<svg xmlns="http://www.w3.org/2000/svg" xmlns:xlink="http://www.w3.org/1999/xlink" width="400" height="139" viewBox="0 0 400 139">
  <defs>
    <clipPath id="clip-path">
      <rect id="Rectángulo_401258" data-name="Rectángulo 401258" width="400" height="139" transform="translate(-105)" fill="#daf2e4"/>
    </clipPath>
    <clipPath id="clip-path-2">
      <rect id="Rectángulo_403101" data-name="Rectángulo 403101" width="238.083" height="139.16" fill="none"/>
    </clipPath>
  </defs>
  <g id="Grupo_1100677" data-name="Grupo 1100677" transform="translate(-495 -6239)">
    <g id="Grupo_133939" data-name="Grupo 133939" transform="translate(495 6239)">
      <rect id="Rectángulo_35929" data-name="Rectángulo 35929" width="400" height="139" transform="translate(0)" fill="#daf2e4"/>
    </g>
    <g id="Enmascarar_grupo_1098662" data-name="Enmascarar grupo 1098662" transform="translate(600 6239)" clip-path="url(#clip-path)">
      <g id="Grupo_1098913" data-name="Grupo 1098913" transform="translate(-12.365 -69.88)">
        <path id="Unión_19" data-name="Unión 19" d="M139.38,120.966l-79.34,71.59L0,125.734,139.346,0l.034.038L139.415,0,278.761,125.734l-60.04,66.823Z" transform="translate(0 278.761) rotate(-90)" fill="#95dbb3"/>
        <path id="Unión_20" data-name="Unión 20" d="M0,91.863,102.358,0l.713.79L204.618,91.925l-43.993,48.7L102.493,88.452,44.188,140.778Z" transform="translate(154.416 241.764) rotate(-90)" fill="#95dbb3"/>
        <path id="Unión_21" data-name="Unión 21" d="M0,69.828,77.583,0l.541.6,76.968,69.275-33.345,37.018L77.685,67.235,33.492,107.01Z" transform="translate(266.829 217) rotate(-90)" fill="#95dbb3"/>
      </g>
      <g id="Grupo_1101666" data-name="Grupo 1101666" transform="translate(-28.083 0.001)">
        <g id="Grupo_1101665" data-name="Grupo 1101665" transform="translate(0 0)">
          <g id="Grupo_1101664" data-name="Grupo 1101664" clip-path="url(#clip-path-2)">
            <path id="Trazado_877425" data-name="Trazado 877425" d="M511.662,125.655a7.674,7.674,0,1,1-7.674-7.674,7.674,7.674,0,0,1,7.674,7.674" transform="translate(-322.27 -76.608)" fill="#30169a"/>
            <path id="Trazado_877426" data-name="Trazado 877426" d="M513.476,127.935H509.6v-3.881h-3.328v3.881h-3.881v3.328h3.881v3.881H509.6v-3.881h3.881Z" transform="translate(-326.213 -80.552)" fill="#fff"/>
            <path id="Trazado_877427" data-name="Trazado 877427" d="M498.627,131.157a10.271,10.271,0,0,1-1.379-.187l.035-.17a10.1,10.1,0,0,0,1.355.183Zm1.391,0-.012-.174a10,10,0,0,0,1.355-.186l.035.17a10.126,10.126,0,0,1-1.378.189m-4.111-.558a10.127,10.127,0,0,1-1.277-.554l.08-.155a10.086,10.086,0,0,0,1.256.544Zm6.829-.006-.059-.164a10.06,10.06,0,0,0,1.254-.546l.08.155a10.219,10.219,0,0,1-1.275.556m-9.3-1.271a10.208,10.208,0,0,1-1.08-.877l.119-.128a10.047,10.047,0,0,0,1.061.863Zm11.759-.009-.1-.142a10.169,10.169,0,0,0,1.06-.864l.119.127a10.292,10.292,0,0,1-1.078.879m-13.79-1.883a10.169,10.169,0,0,1-.8-1.135l.149-.09a10.025,10.025,0,0,0,.791,1.115Zm15.818-.013-.135-.11a10.093,10.093,0,0,0,.789-1.117l.149.09a10.209,10.209,0,0,1-.8,1.137m-17.265-2.355a10.172,10.172,0,0,1-.468-1.31l.168-.047a9.928,9.928,0,0,0,.46,1.288Zm18.71-.017-.16-.069a9.894,9.894,0,0,0,.458-1.29l.168.047a10.172,10.172,0,0,1-.466,1.312m-19.462-2.655a10.265,10.265,0,0,1-.1-1.388h.174a10.2,10.2,0,0,0,.095,1.364Zm20.209-.019-.173-.024a10.164,10.164,0,0,0,.092-1.364v-.039h.174v.038a10.343,10.343,0,0,1-.094,1.389m-20.042-2.733-.173-.023a10.233,10.233,0,0,1,.279-1.363l.168.047a10.054,10.054,0,0,0-.274,1.34m19.864-.058a9.97,9.97,0,0,0-.282-1.338l.168-.048a10.161,10.161,0,0,1,.286,1.362ZM490.106,117l-.16-.069a10.162,10.162,0,0,1,.639-1.237l.149.09a9.987,9.987,0,0,0-.628,1.215m18.39-.052a10.044,10.044,0,0,0-.634-1.211l.148-.091a10.21,10.21,0,0,1,.645,1.232Zm-16.975-2.282-.135-.11a10.256,10.256,0,0,1,.948-1.019l.119.127a10.105,10.105,0,0,0-.932,1m15.548-.043a10.162,10.162,0,0,0-.937-1l.119-.128a10.289,10.289,0,0,1,.953,1.013ZM493.511,112.8l-.1-.142a10.271,10.271,0,0,1,1.186-.727l.081.154a10.081,10.081,0,0,0-1.166.714m11.557-.032a9.964,9.964,0,0,0-1.17-.708l.08-.155a10.175,10.175,0,0,1,1.19.721Zm-9.139-1.231-.059-.164a10.186,10.186,0,0,1,1.339-.378l.036.17a10.017,10.017,0,0,0-1.316.372m6.713-.019a10,10,0,0,0-1.319-.364l.035-.171a10.087,10.087,0,0,1,1.342.371Zm-4.043-.541-.012-.174a10.406,10.406,0,0,1,1.391,0l-.011.174a10.228,10.228,0,0,0-1.368,0" transform="translate(-317.595 -71.933)" fill="#30169a"/>
            <path id="Trazado_877428" data-name="Trazado 877428" d="M146.234,42.226,135.54,20.946l-2.383,3.815H112.329l-4.99,5.945-7.392-20.2L91.6,42.226,80.909,20.946l-2.384,3.815H53.865l-4.989,5.945-7.392-20.2L33.14,42.226,22.446,20.946l-2.384,3.815H6.8v-2.1H18.9l3.749-6,9.877,19.652L41.155,3.49,49.6,26.568l3.283-3.911H77.36l3.749-6,9.877,19.652L99.619,3.49l8.447,23.078,3.283-3.911H131.99l3.749-6,9.876,19.652L154.249,3.49,162.7,26.568l3.283-3.911h24.475l3.748-6,9.877,19.652L212.713,3.49l8.447,23.078,3.283-3.911h15.671v2.1h-14.69l-4.989,5.945-7.392-20.2L204.7,42.226,194,20.946l-2.383,3.815H166.959l-4.99,5.945-7.392-20.2Z" transform="translate(-4.415 -2.266)" fill="#30169a"/>
            <path id="Trazado_877429" data-name="Trazado 877429" d="M527.718,185.66a2.264,2.264,0,0,1-2.261-2.261c0-1.2,2.092-6.129,2.181-6.338l.08-.188.08.188c.089.209,2.181,5.134,2.181,6.338a2.264,2.264,0,0,1-2.261,2.261m0-8.341c-.392.936-2.087,5.041-2.087,6.08a2.087,2.087,0,1,0,4.174,0c0-1.039-1.695-5.144-2.087-6.08" transform="translate(-341.194 -114.849)" fill="#30169a"/>
            <path id="Trazado_877430" data-name="Trazado 877430" d="M234.992,177.191c-.063,1.4,1.661,1.746,1.862,1.824a11.572,11.572,0,0,0,3.683.1c.684-.031.68-.588.479-.615-.1,0,.374-.011.471-.014.855-.068.656-.718.318-.781.667.06.78-.667.354-.738.481-.01.558-.679-.146-.791-.385-.1-3.648-.355-3.648-.355.036-.292,1.3-.166,1.475-.876a.123.123,0,0,0-.121-.123,7.494,7.494,0,0,0-3.367.785,1.985,1.985,0,0,0-1.36,1.589" transform="translate(-152.586 -113.513)" fill="#f6a97e"/>
            <rect id="Rectángulo_403074" data-name="Rectángulo 403074" width="0.175" height="1.952" transform="translate(86.443 64.949) rotate(-85.735)" fill="#d1655f"/>
            <path id="Trazado_877431" data-name="Trazado 877431" d="M249.593,182.826l-2.589-.1.007-.175,2.589.1Z" transform="translate(-160.387 -118.538)" fill="#d1655f"/>
            <rect id="Rectángulo_403075" data-name="Rectángulo 403075" width="0.175" height="2.867" transform="translate(86.697 63.356) rotate(-86.55)" fill="#d1655f"/>
            <path id="Trazado_877432" data-name="Trazado 877432" d="M241.716,179.317l-.04-.17a1.277,1.277,0,0,0,.943-1.494l.173-.03a1.469,1.469,0,0,1-1.076,1.694" transform="translate(-156.927 -115.336)" fill="#d1655f"/>
            <path id="Trazado_877433" data-name="Trazado 877433" d="M201.717,149.426a35.613,35.613,0,0,1,8.82,2.3,5.435,5.435,0,0,1-.938,3.88s-10.565.637-12.246-1.841c-1.617-2.125-2.988-12.832-2.988-12.832s3.814-2.065,3.885-2.086,2.79-.059,2.79-.059l.086,2.752a41.349,41.349,0,0,1,.592,7.881" transform="translate(-126.207 -90.122)" fill="#fff"/>
            <path id="Trazado_877434" data-name="Trazado 877434" d="M211.134,170.478l-.047-.169a2.156,2.156,0,0,0,1.444-1.342l.168.049a2.292,2.292,0,0,1-1.565,1.462" transform="translate(-137.065 -109.715)" fill="#181818"/>
            <path id="Trazado_877435" data-name="Trazado 877435" d="M317.058,42.857c-4.171-7.288-7.555-17.051-7.707-21.331a24.405,24.405,0,0,0-3-12.794C303.037,3.218,296.215.021,289.948,0c-5.633-.018-13.158.931-15.534,8.783-.1.33-2.434,1.472-2.844,1.86-3.7,3.5-3.407,9.493-4.3,14.14a40.572,40.572,0,0,1-6.432,16.047c-6.491,9.163-14.927,18.124-1.212,39.14,11.087,16.989,24.456,18.021,29.173,17.793,4.717.228,18.086-.8,29.173-17.793,13.715-21.015,5.575-27.95-.916-37.113" transform="translate(-163.798 0)" fill="#181818"/>
            <path id="Trazado_877436" data-name="Trazado 877436" d="M224.766,204.42c-15.341,16.28,10.164,29.32,16.578,11.141,8.281-8.732,11.753-21.413,15.542-36.263,5.06-14.259-15.548-21.717-21.374-7.4-4.177,9.925-5.775,14.9-10.746,32.521" transform="translate(-142.808 -106.612)" fill="#00883c"/>
            <path id="Trazado_877437" data-name="Trazado 877437" d="M181.516,283.813l-31.274,12.134,3.11,12.386,34.059-7.325c11.228-3.33,4.912-20.236-5.9-17.2" transform="translate(-97.556 -184.051)" fill="#f6a97e"/>
            <path id="Trazado_877438" data-name="Trazado 877438" d="M115.471,320.383s-.2,1.255-3.253,2.278c-5.387,1.747-13.2,1.294-13.2,1.294-3.232-.372-3.384-2.372-2.173-2.836-4.405,1.243-5.428-2.221-3.182-2.881-3.065.5-3.177-3.06-.708-2.977l.046-.1c-2.222-.091-2.3-3.575.946-3.758l12.42-2.278c-.647-.221-6.31-3.316-4.143-6.451,0,0,6.712,3.193,9.064,4.532a12.087,12.087,0,0,1,3.074,2.07c3.086,3.859,2.177,9.585,1.113,11.111" transform="translate(-59.232 -196.533)" fill="#f6a97e"/>
            <path id="Trazado_877439" data-name="Trazado 877439" d="M127.7,336.624c-4.743-8.3-3.233-10.869-3.166-10.975l.222.141-.111-.07.112.07c-.015.025-1.469,2.585,3.171,10.7Z" transform="translate(-80.681 -211.453)" fill="#d66947"/>
            <rect id="Rectángulo_403076" data-name="Rectángulo 403076" width="10.376" height="0.263" transform="matrix(0.982, -0.191, 0.191, 0.982, 34.404, 121.579)" fill="#d66947"/>
            <rect id="Rectángulo_403077" data-name="Rectángulo 403077" width="9.38" height="0.263" transform="matrix(0.98, -0.198, 0.198, 0.98, 36.662, 124.643)" fill="#d66947"/>
            <rect id="Rectángulo_403078" data-name="Rectángulo 403078" width="10.595" height="0.263" transform="matrix(0.982, -0.187, 0.187, 0.982, 33.546, 118.444)" fill="#d66947"/>
            <path id="Trazado_877440" data-name="Trazado 877440" d="M138.485,325.631c-5.192-1.064-5.154-4.532-5.153-4.567l.263.007c0,.134-.023,3.285,4.943,4.3Z" transform="translate(-86.576 -208.476)" fill="#d66947"/>
            <path id="Trazado_877441" data-name="Trazado 877441" d="M159.718,343.065l-.223-.139a7.912,7.912,0,0,0,1.294-5.736l.254-.067a8.036,8.036,0,0,1-1.324,5.942" transform="translate(-103.565 -218.903)" fill="#d66947"/>
            <path id="Trazado_877442" data-name="Trazado 877442" d="M152.427,317.885a3.845,3.845,0,0,0-1.452-.99l.087-.248a4.041,4.041,0,0,1,1.566,1.068Z" transform="translate(-98.032 -205.608)" fill="#d66947"/>
            <path id="Trazado_877443" data-name="Trazado 877443" d="M491.475,329.542H474.308c-4.559,0-10.911-.935-15.282-5.387-3.554-3.619-4.925-8.071-3.762-12.214a15.635,15.635,0,0,1,1.754-3.695c.316-.536.643-1.091.925-1.648a6.9,6.9,0,0,0,.851-4.95c-.694-2.708-3.024-4.962-5.44-6.993l.9-1.073c2.594,2.182,5.1,4.628,5.9,7.719a8.2,8.2,0,0,1-.959,5.933c-.3.6-.64,1.17-.967,1.725a14.353,14.353,0,0,0-1.612,3.361c-1.023,3.646.221,7.6,3.412,10.852,4.031,4.106,9.991,4.967,14.281,4.967h17.167Z" transform="translate(-294.376 -190.631)" fill="#181818"/>
            <path id="Trazado_877444" data-name="Trazado 877444" d="M286.058,135.176a21.748,21.748,0,0,1-.259-3.9,16.377,16.377,0,0,1,1.758-6.232,30.062,30.062,0,0,0,1.27-3.267,24.186,24.186,0,0,0,.9-5.373l.262.018a24.419,24.419,0,0,1-.912,5.432,30.214,30.214,0,0,1-1.28,3.3,15.94,15.94,0,0,0-1.736,6.133,21.516,21.516,0,0,0,.255,3.849Z" transform="translate(-185.574 -75.587)" fill="#666"/>
            <path id="Trazado_877445" data-name="Trazado 877445" d="M428.083,199.418c18.807,12.11-2.81,30.9-13.41,14.8-10.139-6.483-16.56-17.956-23.811-31.457-8.342-12.622,9.865-24.82,18.965-12.325,6.443,8.628,9.19,13.07,18.256,28.979" transform="translate(-252.413 -107.272)" fill="#00883c"/>
            <path id="Trazado_877446" data-name="Trazado 877446" d="M485.71,270.75l33.07,5.627-.566,12.758-34.836-.357c-11.667-1.014-8.864-18.842,2.333-18.028" transform="translate(-308.991 -175.788)" fill="#f6a97e"/>
            <rect id="Rectángulo_403079" data-name="Rectángulo 403079" width="16.533" height="23.473" transform="translate(116.842 42.207)" fill="#f6a97e"/>
            <path id="Trazado_877447" data-name="Trazado 877447" d="M318.353,154.882l-14.007-2.87c-2.795,2.179-5.452,3.235-8.008,3.273h-.079c-2.556-.038-5.213-1.094-8.008-3.273l-14.008,2.87c-9.1,2.648-12.438,9.53-10.257,17.26l9.951,36.128c7.305,10.249,15.235,13.009,22.361,12.387,7.126.622,15.056-2.138,22.361-12.387l9.951-36.128c2.182-7.731-1.162-14.613-10.257-17.26" transform="translate(-170.995 -98.706)" fill="#00883c"/>
            <path id="Trazado_877448" data-name="Trazado 877448" d="M315.438,340.9a71.278,71.278,0,0,0-11.356-29.726,137.368,137.368,0,0,1-45.01-.175,74.193,74.193,0,0,0-18.327,29.9Z" transform="translate(-156.322 -201.938)" fill="#181818"/>
            <path id="Trazado_877449" data-name="Trazado 877449" d="M342.294,31.267a14.954,14.954,0,0,0-6.362-11.192c-7.773-5.211-19.711-4.011-24.891,4.3a12.836,12.836,0,0,0-1.495,3.407A16.824,16.824,0,0,0,309,31.267s-.928,8.624.466,13.974a25.648,25.648,0,0,0,3.928,8.556,16.282,16.282,0,0,0,4.887,4.46,14.367,14.367,0,0,0,4.489,1.684,16.8,16.8,0,0,0,2.812.286c.022,0,.045,0,.068,0a.21.21,0,0,0,.068,0,16.084,16.084,0,0,0,2.812-.279,14.37,14.37,0,0,0,4.489-1.684A16.282,16.282,0,0,0,337.9,53.8a25.647,25.647,0,0,0,3.928-8.556c1.394-5.348.466-13.969.466-13.974" transform="translate(-200.444 -11.002)" fill="#f6a97e"/>
            <path id="Trazado_877450" data-name="Trazado 877450" d="M301.132,74.922s-5.287-2.308-7.556.741,2.084,13.532,8.8,7.518-1.241-8.259-1.241-8.259" transform="translate(-190.233 -48.105)" fill="#f6a97e"/>
            <path id="Trazado_877451" data-name="Trazado 877451" d="M588.185,279.819s7.078-4.741,9.3-4.571c3.159-1.353,6.924.688,7.612,2.449,2.276-.253,3.288,3.089,1.94,4.846a3.235,3.235,0,0,1-.523,3.893,3.311,3.311,0,0,1-1.759,3.99,3.543,3.543,0,0,1-3.42,3.486c-3.466.38-8.9-.256-12.167-2.622s-3.395-9.211-.979-11.47" transform="translate(-380.845 -178.44)" fill="#f6a97e"/>
            <path id="Trazado_877452" data-name="Trazado 877452" d="M627.188,290.176a2.253,2.253,0,0,1-1.368-.415,3.066,3.066,0,0,1-.932-2.707l.175-4.051.263.012-.175,4.05a2.832,2.832,0,0,0,.826,2.486,2.474,2.474,0,0,0,2.01.256c2.468-5.193,1.91-6.757,1.9-6.772l.243-.1c.027.065.634,1.651-1.934,7.038l-.024.051-.054.018a3.25,3.25,0,0,1-.932.136" transform="translate(-405.754 -183.716)" fill="#d66947"/>
            <path id="Trazado_877453" data-name="Trazado 877453" d="M603.179,295.62l-.022-.262c2.41-.2,4.128-.98,5.106-2.308a5.179,5.179,0,0,0,.821-3.823l-.014-.065.044-.05a3.857,3.857,0,0,1,1.794-1.295l.06.256a3.64,3.64,0,0,0-1.614,1.163,5.342,5.342,0,0,1-.877,3.967c-1.024,1.395-2.807,2.208-5.3,2.418" transform="translate(-391.647 -186.887)" fill="#d66947"/>
            <path id="Trazado_877454" data-name="Trazado 877454" d="M617.577,289.55a2.652,2.652,0,0,0-1.366-1.044l.073-.252a2.874,2.874,0,0,1,1.517,1.158Z" transform="translate(-400.123 -187.171)" fill="#d66947"/>
            <path id="Trazado_877455" data-name="Trazado 877455" d="M640,295.126l-2.618-.56.055-.257,2.619.56Z" transform="translate(-413.871 -191.103)" fill="#d66947"/>
            <path id="Trazado_877456" data-name="Trazado 877456" d="M627.943,299.4a28.846,28.846,0,0,1-6.8-1.546c-.019-.008-1.628-.7-1.184-2.047a1.506,1.506,0,0,1,1.8-1.02l-.064.255a1.23,1.23,0,0,0-1.489.848c-.369,1.12,1.019,1.716,1.033,1.721a28.593,28.593,0,0,0,6.736,1.529Z" transform="translate(-402.505 -191.386)" fill="#d66947"/>
            <path id="Trazado_877457" data-name="Trazado 877457" d="M625.534,308.016l-5.167-2.032a2.08,2.08,0,0,1-.779-2.81c.3-.526.76-.776,1.125-.607l-.11.238c-.232-.1-.562.1-.786.5a1.8,1.8,0,0,0,.672,2.449l5.142,2.018Z" transform="translate(-402.144 -196.431)" fill="#d66947"/>
            <path id="Trazado_877458" data-name="Trazado 877458" d="M623.834,316.631c-.032,0-3.3-.819-3.852-2.684a1.951,1.951,0,0,1,1.072-1.982l.055.258a1.686,1.686,0,0,0-.87,1.679c.49,1.652,3.583,2.461,3.613,2.467Z" transform="translate(-402.569 -202.568)" fill="#d66947"/>
            <path id="Trazado_877459" data-name="Trazado 877459" d="M627.875,325a1.84,1.84,0,0,1-.526-1.222l.263-.009a1.6,1.6,0,0,0,.432,1.03Z" transform="translate(-407.355 -210.232)" fill="#d66947"/>
            <path id="Trazado_877460" data-name="Trazado 877460" d="M591.274,318.121a4.271,4.271,0,0,1-2.647-2.788l.253-.07a4.08,4.08,0,0,0,2.472,2.607Z" transform="translate(-382.212 -204.709)" fill="#d66947"/>
            <path id="Trazado_877461" data-name="Trazado 877461" d="M632.179,297.336l-.263-.012a6.006,6.006,0,0,1,.4-2.2c.336-.343.958-.1.985-.087l-.1.244c-.134-.053-.522-.154-.7.027a6.145,6.145,0,0,0-.328,2.03" transform="translate(-410.321 -191.513)" fill="#d66947"/>
            <path id="Trazado_877462" data-name="Trazado 877462" d="M586.123,297.635a7.466,7.466,0,0,1,.485-3.066l.242.1a7.351,7.351,0,0,0-.465,2.947Z" transform="translate(-380.577 -191.272)" fill="#d66947"/>
            <path id="Trazado_877463" data-name="Trazado 877463" d="M341.392,136.032a13.615,13.615,0,0,1-8.43-2.989l.163-.207a12.99,12.99,0,0,0,16.37.057l.164.206a13.231,13.231,0,0,1-8.267,2.933" transform="translate(-216.201 -86.254)" fill="#d66947"/>
            <path id="Trazado_877464" data-name="Trazado 877464" d="M303.6,87.71a4.436,4.436,0,0,1-2.338-4.467,1.41,1.41,0,0,1,1.466-1.16v.263a1.157,1.157,0,0,0-1.211.96,4.216,4.216,0,0,0,2.205,4.171Z" transform="translate(-195.575 -53.299)" fill="#d66947"/>
            <path id="Trazado_877465" data-name="Trazado 877465" d="M305.288,91.9a2.022,2.022,0,0,0-2.383-.245l-.13-.229a2.321,2.321,0,0,1,2.7.29Z" transform="translate(-196.6 -59.16)" fill="#d66947"/>
            <path id="Trazado_877466" data-name="Trazado 877466" d="M390.735,74.922s5.287-2.308,7.556.741-2.083,13.532-8.8,7.518,1.241-8.259,1.241-8.259" transform="translate(-251.161 -48.105)" fill="#f6a97e"/>
            <path id="Trazado_877467" data-name="Trazado 877467" d="M405.973,87.71l-.122-.233a4.216,4.216,0,0,0,2.2-4.171,1.156,1.156,0,0,0-1.211-.96v-.263a1.411,1.411,0,0,1,1.467,1.16,4.436,4.436,0,0,1-2.339,4.467" transform="translate(-263.53 -53.299)" fill="#d66947"/>
            <path id="Trazado_877468" data-name="Trazado 877468" d="M403.972,91.9l-.188-.183a2.323,2.323,0,0,1,2.7-.29l-.13.229a2.022,2.022,0,0,0-2.384.245" transform="translate(-262.188 -59.161)" fill="#d66947"/>
            <path id="Trazado_877469" data-name="Trazado 877469" d="M353.063,116.066a4.412,4.412,0,0,1-2.328-.685l.137-.224a4.392,4.392,0,0,0,4.588,0l.121.234a5.493,5.493,0,0,1-2.517.68" transform="translate(-227.741 -74.772)" fill="#d66947"/>
            <path id="Trazado_877470" data-name="Trazado 877470" d="M349.065,108.965a8.249,8.249,0,0,1-4.352-1.279l.136-.225c2.718,1.652,5.6,1.65,8.812,0l.121.234a10.293,10.293,0,0,1-4.717,1.274" transform="translate(-223.832 -69.775)" fill="#d66947"/>
            <path id="Trazado_877471" data-name="Trazado 877471" d="M310.745,93.408a15.193,15.193,0,0,1-.937-5.8l.263.01a14.931,14.931,0,0,0,.922,5.7Z" transform="translate(-201.16 -56.885)" fill="#d66947"/>
            <path id="Trazado_877472" data-name="Trazado 877472" d="M401.348,93.408l-.247-.09a14.932,14.932,0,0,0,.922-5.7l.263-.01a15.2,15.2,0,0,1-.937,5.8" transform="translate(-260.446 -56.885)" fill="#d66947"/>
            <path id="Trazado_877473" data-name="Trazado 877473" d="M356.6,85.949l-.023-.262a4.238,4.238,0,0,0,2.6-1.2c.656-.842-1.419-5.022-2.274-6.561l.23-.128c.323.582,3.133,5.719,2.252,6.85a4.417,4.417,0,0,1-2.787,1.3" transform="translate(-231.536 -50.514)" fill="#d66947"/>
            <path id="Trazado_877474" data-name="Trazado 877474" d="M320.589,70.306a6.342,6.342,0,0,1,1.857-1.477,4.65,4.65,0,0,1,.566-.243,2.143,2.143,0,0,1,.311-.089,2.189,2.189,0,0,1,.352-.039,5.418,5.418,0,0,1,1.221.155,16.461,16.461,0,0,1,2.223.719,22.455,22.455,0,0,1,2.115.942.171.171,0,0,1-.133.315h0c-.72-.248-1.446-.486-2.169-.719s-1.454-.435-2.179-.589a5.029,5.029,0,0,0-1.055-.124,2.706,2.706,0,0,0-.954.285,14.308,14.308,0,0,0-1.919,1.115l-.008.005a.172.172,0,0,1-.225-.256" transform="translate(-208.14 -44.451)" fill="#181818"/>
            <path id="Trazado_877475" data-name="Trazado 877475" d="M379.368,70.558a14.556,14.556,0,0,0-1.967-1.119,2.8,2.8,0,0,0-.979-.282,5.27,5.27,0,0,0-1.078.126c-.74.154-1.484.366-2.224.589s-1.479.471-2.214.718h0a.171.171,0,0,1-.131-.316,23.285,23.285,0,0,1,2.162-.941,17.12,17.12,0,0,1,2.267-.719,5.66,5.66,0,0,1,1.24-.155,3.012,3.012,0,0,1,1.25.365A6.508,6.508,0,0,1,379.6,70.3a.172.172,0,0,1-.222.258Z" transform="translate(-240.691 -44.452)" fill="#181818"/>
            <path id="Trazado_877476" data-name="Trazado 877476" d="M326.945,79.958a2.367,2.367,0,1,1-3.416-1.286,6.05,6.05,0,0,0-3.292,1.335c1.659,3.487,4.586,4.431,8.994,2.4a13.626,13.626,0,0,0-2.286-2.453" transform="translate(-207.939 -51.084)" fill="#fff"/>
            <path id="Trazado_877477" data-name="Trazado 877477" d="M326.232,80.709a2.371,2.371,0,1,0,4.606-.759,5.031,5.031,0,0,0-3.416-1.286,2.361,2.361,0,0,0-1.191,2.045" transform="translate(-211.831 -51.076)" fill="#181818"/>
            <path id="Trazado_877478" data-name="Trazado 877478" d="M376.341,78.666a2.384,2.384,0,1,1-3.416,1.286,13.648,13.648,0,0,0-2.286,2.453c4.408,2.028,7.335,1.084,8.994-2.4a6.047,6.047,0,0,0-3.292-1.335" transform="translate(-240.666 -51.08)" fill="#fff"/>
            <path id="Trazado_877479" data-name="Trazado 877479" d="M379.142,83.074a2.363,2.363,0,0,0,1.18-4.415,5.028,5.028,0,0,0-3.415,1.285,2.339,2.339,0,0,0-.136.759,2.371,2.371,0,0,0,2.371,2.371" transform="translate(-244.648 -51.072)" fill="#181818"/>
            <path id="Trazado_877480" data-name="Trazado 877480" d="M328.991,82.42c-2.655-3.778-5.538-4.571-8.815-2.424l-.144-.22c3.373-2.211,6.459-1.371,9.174,2.492Z" transform="translate(-207.806 -51.02)" fill="#181818"/>
            <path id="Trazado_877481" data-name="Trazado 877481" d="M370.616,82.357l-.216-.15c2.715-3.9,5.8-4.746,9.175-2.515l-.145.22c-3.276-2.167-6.159-1.367-8.814,2.446" transform="translate(-240.511 -50.958)" fill="#181818"/>
            <path id="Trazado_877482" data-name="Trazado 877482" d="M306.813,31.53c4.751-1.275,3.457-6.383,6.71-10.355,3.659-2.691,7.755-2.541,11.885-1.659,0,0,4.6,17.375,18.44,6.766-3.664,0-2.112-4.12-4.509-6.291l-5.365-7.6L319.943,10.07l-7.3,4.9a15.512,15.512,0,0,0-6.7,12.715Z" transform="translate(-198.653 -6.539)" fill="#181818"/>
            <path id="Trazado_877483" data-name="Trazado 877483" d="M327.569,30.467a14.581,14.581,0,0,1,11.884-1.659c-2.431-10.853-11.884,1.659-11.884,1.659" transform="translate(-212.7 -15.83)" fill="#444"/>
            <path id="Trazado_877484" data-name="Trazado 877484" d="M318.857,31.5a7.8,7.8,0,0,1-3.784-5.695l.263-.012A7.534,7.534,0,0,0,319,31.279Z" transform="translate(-204.585 -16.749)" fill="#666"/>
            <path id="Trazado_877485" data-name="Trazado 877485" d="M326.694,22.944l-.237-.114a24.489,24.489,0,0,1,2.251-3.648c1.845-2.448,3.65-3.709,5.365-3.75l.006.263c-3.908.094-7.351,7.178-7.385,7.249" transform="translate(-211.978 -10.02)" fill="#666"/>
            <path id="Trazado_877486" data-name="Trazado 877486" d="M376.355,46.642a10.3,10.3,0,0,1-9.075-5.291l.237-.114c.039.081,4.026,8.048,14.393,3.985l.1.245a15.486,15.486,0,0,1-5.651,1.175" transform="translate(-238.485 -26.776)" fill="#666"/>
            <path id="Trazado_877487" data-name="Trazado 877487" d="M404.846,58.955l-.123-.233a26.426,26.426,0,0,0,2.768-1.816l.158.21a26.758,26.758,0,0,1-2.8,1.839" transform="translate(-262.798 -36.951)" fill="#666"/>
            <path id="Trazado_877488" data-name="Trazado 877488" d="M301.081,69.739a2.623,2.623,0,0,1-2.3-1.134l.23-.128c.034.059.849,1.453,3.121.852l.067.254a4.391,4.391,0,0,1-1.122.156" transform="translate(-194.009 -44.464)" fill="#666"/>
            <path id="Trazado_877489" data-name="Trazado 877489" d="M431.212,234.159l-.255-.066a182.377,182.377,0,0,0,4.271-22.2l.261.033a182.672,182.672,0,0,1-4.277,22.229" transform="translate(-279.832 -137.59)" fill="#055124"/>
            <path id="Trazado_877490" data-name="Trazado 877490" d="M280.093,243.358c-1.967-7.653-4.364-23.909-5.217-30.582l.261-.034c.852,6.668,3.246,22.909,5.211,30.55Z" transform="translate(-178.485 -138.139)" fill="#055124"/>
            <path id="Trazado_877491" data-name="Trazado 877491" d="M445.808,258.534a3.038,3.038,0,0,1-2.375-.377c-3.038-1.945-5.5-5.551-7.7-8.352-4.39-6.554,5.536-21.474,16.672-18.708,1.384.4,7.254,7.095,5.759,8.428.34.75.648,1.519.914,2.294a.676.676,0,0,1-.222.8s-.661-.452-.885-.6c-8.214-.559-16.03,8.727-12.163,16.512" transform="translate(-282.243 -149.838)" fill="#181818"/>
            <path id="Trazado_877492" data-name="Trazado 877492" d="M460.354,276.073c-1.353-2.227-2.925-6.73,1.748-11.866,3.554-3.906,9.308-6.245,12.071-4.9l-.115.236c-2.669-1.294-8.276,1.013-11.761,4.844-4.558,5.009-3.033,9.388-1.718,11.552Z" transform="translate(-298.021 -168.127)" fill="#666"/>
            <path id="Trazado_877493" data-name="Trazado 877493" d="M453.488,239.932s-5.472-4.669-4.582-5.56c2.887-2.935,8.861-5.465,12.678-3.715l2.692,3.211Z" transform="translate(-291.424 -149.399)" fill="#181818"/>
            <path id="Trazado_877494" data-name="Trazado 877494" d="M455.144,252.441c-1.689,0-5.5-6.687-5.939-7.459l.229-.129c1.158,2.056,4.41,7.325,5.7,7.325l.046,0a8.883,8.883,0,0,0,2.554-1.245c2.513-1.493,6.309-3.749,9.915-2.378l-.094.246c-3.485-1.327-7.07.8-9.687,2.358a8.691,8.691,0,0,1-2.661,1.281.615.615,0,0,1-.063,0" transform="translate(-291.681 -158.99)" fill="#666"/>
            <path id="Trazado_877495" data-name="Trazado 877495" d="M470.8,287c-1.159-.877-2.7-4.251-2.44-8.057a10.524,10.524,0,0,1,5.646-8.769l.13.229a10.271,10.271,0,0,0-5.513,8.557c-.24,3.575,1.2,6.97,2.336,7.83Z" transform="translate(-304.103 -175.431)" fill="#055124"/>
            <path id="Trazado_877496" data-name="Trazado 877496" d="M258.655,287.8l-.248-.086c.47-1.347-.214-4.97-2.394-7.812a10.275,10.275,0,0,0-9.332-4.068l-.019-.262a10.518,10.518,0,0,1,9.56,4.17c2.321,3.026,2.913,6.686,2.434,8.058" transform="translate(-160.164 -178.909)" fill="#055124"/>
            <path id="Trazado_877497" data-name="Trazado 877497" d="M329.622,139.758s-1.81-.45-1.929,4.943c.161,3.416,5.821,3.76,10.57,3.765s8.5-2.047,9.068-2.906.382-5.8-1.176-6.133c-1.934,3.9-13.929,3.9-16.533.33" transform="translate(-212.78 -90.534)" fill="#00883c"/>
            <path id="Trazado_877498" data-name="Trazado 877498" d="M305.641,245.537a14.732,14.732,0,0,1-10.59-4.95l.2-.165c.079.1,8.041,9.717,19.645,1.581l.15.215a16.289,16.289,0,0,1-9.411,3.319" transform="translate(-191.585 -156.113)" fill="#055124"/>
            <path id="Trazado_877499" data-name="Trazado 877499" d="M379.411,245.537A16.289,16.289,0,0,1,370,242.218l.151-.215c11.61,8.141,19.566-1.483,19.645-1.581l.2.165a14.733,14.733,0,0,1-10.59,4.95" transform="translate(-240.251 -156.113)" fill="#055124"/>
            <path id="Trazado_877500" data-name="Trazado 877500" d="M337.8,159.264c-4.452,0-9.255-1.234-10.313-3.724l.242-.1c1.071,2.519,6.242,3.693,10.8,3.553,5.566-.172,8.154-1.944,8.721-3.545l.248.088c-.908,2.567-5.224,3.6-8.96,3.721q-.365.011-.734.011" transform="translate(-212.644 -100.93)" fill="#055124"/>
            <path id="Trazado_877501" data-name="Trazado 877501" d="M492.1,360.439l31.968-6.508a5.261,5.261,0,0,1,1.061-.106l12.145.025-11.484,2.7a.748.748,0,0,1-.584.882l-.473.1v9.75a1.256,1.256,0,0,1-1.256,1.256h-29.2a1.167,1.167,0,0,1-1.167-1.167v-1.927h0v-1.495l-.291.059a.748.748,0,0,1-.882-.585l-.426-2.1a.748.748,0,0,1,.585-.882" transform="translate(-319.146 -229.748)" fill="#fff"/>
            <path id="Trazado_877502" data-name="Trazado 877502" d="M531.951,369.392l31.618-6.5V373.16a1.256,1.256,0,0,1-1.256,1.256h-29.2a1.166,1.166,0,0,1-1.167-1.167v-1.926h0v-1.93Z" transform="translate(-345.411 -235.633)" fill="#30169a"/>
            <path id="Trazado_877503" data-name="Trazado 877503" d="M528.671,364.048l32.382-6.574a.749.749,0,0,0,.585-.882l-.426-2.1a.749.749,0,0,0-.882-.585l-32.382,6.574a.749.749,0,0,0-.585.882l.426,2.1a.749.749,0,0,0,.882.585" transform="translate(-342.422 -229.794)" fill="#30169a"/>
            <rect id="Rectángulo_403080" data-name="Rectángulo 403080" width="12.57" height="0.175" transform="translate(173.971 134.107)" fill="#30169a"/>
            <path id="Trazado_877504" data-name="Trazado 877504" d="M531.937,370.72l-.035-.172,31.618-6.419.035.172Z" transform="translate(-345.378 -236.439)" fill="#30169a"/>
            <rect id="Rectángulo_403081" data-name="Rectángulo 403081" width="12.571" height="0.175" transform="translate(172.5 130.898)" fill="#30169a"/>
            <path id="Trazado_877505" data-name="Trazado 877505" d="M604.4,387.887h-4.9a.883.883,0,0,1,0-1.766h4.9a.883.883,0,0,1,0,1.766m-4.9-1.591a.708.708,0,0,0,0,1.415h4.9a.708.708,0,0,0,0-1.415Z" transform="translate(-388.699 -250.719)" fill="#30169a"/>
            <rect id="Rectángulo_403082" data-name="Rectángulo 403082" width="2.148" height="0.175" transform="translate(175.531 135.402)" fill="#30169a"/>
            <path id="Trazado_877506" data-name="Trazado 877506" d="M433.869,132.339l-.252-.074c1.224-4.174-.723-7.487-2.978-11.324a35.126,35.126,0,0,1-4.259-9.378l.255-.064a34.913,34.913,0,0,0,4.231,9.309c2.285,3.889,4.259,7.248,3,11.531" transform="translate(-276.86 -72.399)" fill="#666"/>
            <path id="Trazado_877507" data-name="Trazado 877507" d="M450.437,248.992c1.048.882,2.348-.249,2.529-.359a11.34,11.34,0,0,0,2.273-2.806c.384-.551-.052-.88-.192-.74-.062.074.215-.3.27-.375.457-.706-.167-.938-.417-.713.445-.483-.052-1-.363-.716.279-.38-.2-.838-.7-.358-.3.242-2.453,2.624-2.453,2.624-.206-.2.649-1.112.2-1.67a.121.121,0,0,0-.167.02,7.344,7.344,0,0,0-1.4,3.087,1.945,1.945,0,0,0,.424,2.005" transform="translate(-292.143 -157.604)" fill="#f6a97e"/>
            <path id="Trazado_877508" data-name="Trazado 877508" d="M460.853,250.967l-.131-.117L462,249.423l.131.117Z" transform="translate(-299.16 -161.957)" fill="#d66947"/>
            <rect id="Rectángulo_403083" data-name="Rectángulo 403083" width="2.539" height="0.175" transform="matrix(0.637, -0.771, 0.771, 0.637, 161.075, 88.312)" fill="#d66947"/>
            <rect id="Rectángulo_403084" data-name="Rectángulo 403084" width="2.809" height="0.175" transform="translate(160.472 87.746) rotate(-48.978)" fill="#d66947"/>
            <path id="Trazado_877509" data-name="Trazado 877509" d="M380.121,236.21a2.91,2.91,0,0,1-1.413,2.7v0a27.041,27.041,0,0,1-8.023,3.354c1.595,1.494,3.344,3.193,3.241,3.809-.642,1.366-.8,5.9-1.838,6.172-.54.272-8.764-4.462-7.763-7.859,2.386-7.922,10.181-10.808,10.181-10.808l.536.017c.428-.312,1.4-.054,1.972-.093a2.913,2.913,0,0,1,3.107,2.705" transform="translate(-236.513 -151.579)" fill="#fff"/>
            <path id="Trazado_877510" data-name="Trazado 877510" d="M407.623,384.426s-.389,1.575.693,1.808c1.293.3,2.975,1.192,2.728,2.242h-7.279c.08-1.681.352-3.211,1.022-3.923.747.076,2.132-.621,2.835-.126" transform="translate(-262.176 -249.503)" fill="#fff"/>
            <path id="Trazado_877511" data-name="Trazado 877511" d="M377.374,384.426a1.4,1.4,0,0,0,.786,1.935c.974.294,2.266,1.04,1.7,2.114h-6.344c.079-1.681.352-3.211,1.022-3.923.747.076,2.132-.621,2.836-.126" transform="translate(-242.535 -249.503)" fill="#fff"/>
            <rect id="Rectángulo_403085" data-name="Rectángulo 403085" width="10.786" height="4.504" transform="translate(139.402 86.799) rotate(-69.704)" fill="#f6a97e"/>
            <path id="Trazado_877512" data-name="Trazado 877512" d="M382.617,286.785H371.471c-3.087,8.7-.458,36.164-.458,36.164a8.941,8.941,0,0,0,5.081,0s.7-17.57,1.358-27.426a102.932,102.932,0,0,0,2.88,11.707,93.463,93.463,0,0,0,1.414,15.719,8.072,8.072,0,0,0,4.789,0c.013-5.27.882-11.094.575-16.509-.552-9.744-3.118-17.927-4.494-19.656" transform="translate(-240.232 -186.217)" fill="#30169a"/>
            <path id="Trazado_877513" data-name="Trazado 877513" d="M411.85,219.6h0a2.961,2.961,0,0,1-1.745-3.793l.809-2.186a2.961,2.961,0,0,1,3.793-1.745c1.523.563,3.518-1,2.955.52l-.979,2.647c.016.783.146,1.316-.1,1.541s-.666.537-.666.537c-.954,2.537-2.541,3.042-4.064,2.479" transform="translate(-266.174 -137.456)" fill="#f6a97e"/>
            <path id="Trazado_877514" data-name="Trazado 877514" d="M407.97,205.436c1.471-1.422,4.1-1.054,5.527-.222,1.5-.256,2.343.523,2.328,1.535-.231,1.746-1.691,1.846-3.193,1.611-.537,1.724-.89,2.719-1.6,2.755a1.926,1.926,0,0,0,.409-1.015.693.693,0,0,0-1.089-.656,2.068,2.068,0,0,0-.435,2.3c-1.793,1.034-2.825.745-4.366.175-.022-2.941-.349-6.515,2.418-6.488" transform="translate(-263.322 -132.774)" fill="#181818"/>
            <path id="Trazado_877515" data-name="Trazado 877515" d="M362.3,275.756a85.515,85.515,0,0,1,4.114-24.6,51.042,51.042,0,0,1,4.127-14.862c1.624-3.233,3.655-3.27,5.881-2.447l4.293,1.587c3.62,1.452,5.518,3.753,4.441,6.665a37.094,37.094,0,0,1-4.87,13c1.91,10,2.971,22.683,2.672,23.112-2.738.649-8.146.69-11.867.431-.117,0-.62-9.45-.62-9.45a66.037,66.037,0,0,0-.549,9.4c-4.555-.068-7.622-1.814-7.622-2.836" transform="translate(-235.248 -151.549)" fill="#fff"/>
            <path id="Trazado_877516" data-name="Trazado 877516" d="M449.512,258.345l.621-.791a3.813,3.813,0,0,0-2.887-1.984l-1.024,1.213Z" transform="translate(-289.744 -165.949)" fill="#fff"/>
            <path id="Trazado_877517" data-name="Trazado 877517" d="M413.147,243.2a2.911,2.911,0,0,1,2.839,1.1h0a27.05,27.05,0,0,1,4.226,7.6c1.308-1.751,2.8-3.679,3.425-3.645,1.429.486,2.462,1.025,2.844,2.026.331.507-4.228,9.031-7.715,8.414-3.414-.653-7.774-9.92-7.774-9.92l.122-.239c-.358-.391-.21-1.389-.312-1.949a2.913,2.913,0,0,1,2.343-3.388" transform="translate(-266.715 -157.883)" fill="#fff"/>
            <rect id="Rectángulo_403086" data-name="Rectángulo 403086" width="1.813" height="0.176" transform="translate(153.319 95.821) rotate(-87.138)" fill="#30169a"/>
            <path id="Trazado_877518" data-name="Trazado 877518" d="M401.86,230.969a2.579,2.579,0,0,0-.934,1.113c.994,1.474,2.843,2.032,5.557,2.092a4.108,4.108,0,0,0-.372-1.647,9.981,9.981,0,0,1-4.252-1.558" transform="translate(-260.333 -149.975)" fill="#fff"/>
            <path id="Trazado_877519" data-name="Trazado 877519" d="M417.4,270.209a47.089,47.089,0,0,1-2.587-4.107l.155-.082a46.865,46.865,0,0,0,2.575,4.087Z" transform="translate(-269.35 -172.734)" fill="#30169a"/>
            <path id="Trazado_877520" data-name="Trazado 877520" d="M410.338,246.492l-.173-.028a3.619,3.619,0,0,1,1.552-2.678,3.845,3.845,0,0,1,2.923-.272l-.055.166a3.742,3.742,0,0,0-2.778.257,3.454,3.454,0,0,0-1.469,2.556" transform="translate(-266.331 -158.007)" fill="#30169a"/>
            <path id="Trazado_877521" data-name="Trazado 877521" d="M399.563,238.243c-1.183-.007-6.519-2.184-8.4-3.425l.1-.146c1.952,1.291,7.256,3.39,8.3,3.4Z" transform="translate(-253.996 -152.378)" fill="#30169a"/>
            <path id="Trazado_877522" data-name="Trazado 877522" d="M406.03,236.274a9.631,9.631,0,0,1-2.711-.549c-.661-.223-2.24-.827-2.618-1.613l.158-.076a4.588,4.588,0,0,0,2.516,1.523,7.922,7.922,0,0,0,2.947.52l.029.173a2.017,2.017,0,0,1-.322.022" transform="translate(-260.186 -151.965)" fill="#30169a"/>
            <path id="Trazado_877523" data-name="Trazado 877523" d="M419.9,219s-.916,2.574.851,2.864c0,0,.175,3.387-2.752,2.91-1.654-.255.457-1.873.723-4.231Z" transform="translate(-271.011 -142.203)" fill="#181818"/>
            <path id="Trazado_877524" data-name="Trazado 877524" d="M450.15,259.579a4.213,4.213,0,0,0-2.822-1.99l.033-.173a4.315,4.315,0,0,1,2.949,2.092Z" transform="translate(-290.463 -167.147)" fill="#30169a"/>
            <path id="Trazado_877525" data-name="Trazado 877525" d="M374.507,251.939l-.171-.039c.186-.815.36-1.641.545-2.516.9-4.281,1.928-9.133,4.508-12.627l.141.1c-2.556,3.464-3.576,8.3-4.477,12.559-.185.876-.36,1.7-.546,2.519" transform="translate(-243.067 -153.733)" fill="#30169a"/>
            <path id="Trazado_877526" data-name="Trazado 877526" d="M409.529,295.845l-.035-.172a2.935,2.935,0,0,0,1.375-.571l.123.125a3.016,3.016,0,0,1-1.463.618" transform="translate(-265.896 -191.619)" fill="#30169a"/>
            <path id="Trazado_877527" data-name="Trazado 877527" d="M386.377,290.714h0a14.571,14.571,0,0,1-6.913-1.8.088.088,0,0,1-.041-.093l.286-1.431a.088.088,0,0,1,.047-.061.09.09,0,0,1,.077,0,17.218,17.218,0,0,0,6.933,1.781.088.088,0,0,1,.081.11l-.382,1.431a.088.088,0,0,1-.085.065m-6.774-1.921a14.4,14.4,0,0,0,6.707,1.744l.336-1.259a17.388,17.388,0,0,1-6.791-1.744Z" transform="translate(-246.367 -186.563)" fill="#30169a"/>
            <path id="Trazado_877528" data-name="Trazado 877528" d="M381.919,290.042a.326.326,0,1,1-.326-.326.326.326,0,0,1,.326.326" transform="translate(-247.567 -188.121)" fill="#30169a"/>
            <path id="Trazado_877529" data-name="Trazado 877529" d="M397.3,293.887a.326.326,0,1,1-.326-.326.326.326,0,0,1,.326.326" transform="translate(-257.553 -190.617)" fill="#30169a"/>
            <rect id="Rectángulo_403087" data-name="Rectángulo 403087" width="0.263" height="48.905" transform="translate(79.912 90.066)" fill="#181818"/>
            <rect id="Rectángulo_403088" data-name="Rectángulo 403088" width="0.263" height="48.905" transform="translate(63.353 90.066)" fill="#181818"/>
            <rect id="Rectángulo_403089" data-name="Rectángulo 403089" width="19.536" height="0.973" transform="translate(60.143 97.846)" fill="#181818"/>
            <rect id="Rectángulo_403090" data-name="Rectángulo 403090" width="19.536" height="0.973" transform="translate(61.632 90.056)" fill="#181818"/>
            <rect id="Rectángulo_403091" data-name="Rectángulo 403091" width="19.536" height="0.973" transform="translate(57.166 113.426)" fill="#181818"/>
            <rect id="Rectángulo_403092" data-name="Rectángulo 403092" width="19.536" height="0.973" transform="translate(58.654 105.636)" fill="#181818"/>
            <rect id="Rectángulo_403093" data-name="Rectángulo 403093" width="19.536" height="0.973" transform="translate(54.188 129.007)" fill="#181818"/>
            <rect id="Rectángulo_403094" data-name="Rectángulo 403094" width="19.536" height="0.973" transform="translate(55.677 121.217)" fill="#181818"/>
            <rect id="Rectángulo_403095" data-name="Rectángulo 403095" width="49.85" height="0.351" transform="translate(53.671 138.94) rotate(-78.87)" fill="#181818"/>
            <rect id="Rectángulo_403096" data-name="Rectángulo 403096" width="49.85" height="0.351" transform="matrix(0.193, -0.981, 0.981, 0.193, 70.234, 138.941)" fill="#181818"/>
            <path id="Trazado_877530" data-name="Trazado 877530" d="M260.428,98.991h-1.345a.243.243,0,0,1-.243-.243v-1.8a.243.243,0,0,1,.243-.243h1.345a.243.243,0,0,1,.243.243v1.8a.243.243,0,0,1-.243.243" transform="translate(-168.072 -62.793)" fill="#181818"/>
            <path id="Trazado_877531" data-name="Trazado 877531" d="M259.541,91.039h-3.568a.247.247,0,0,1-.247-.247V87.76a.228.228,0,0,1,.228-.228h3.587Z" transform="translate(-166.05 -56.837)" fill="#181818"/>
            <path id="Trazado_877532" data-name="Trazado 877532" d="M266.6,91.039s.671-.491.671-.5V88.027l-.671-.5Z" transform="translate(-173.114 -56.837)" fill="#30169a"/>
            <path id="Trazado_877533" data-name="Trazado 877533" d="M268.519,91.461a10.976,10.976,0,0,1,4-1.168v-.182a10.738,10.738,0,0,1-4-1.167Z" transform="translate(-174.357 -57.754)" fill="#181818"/>
            <path id="Trazado_877534" data-name="Trazado 877534" d="M259.978,112.184h-1.11a.534.534,0,0,1-.534-.534V100.981a.176.176,0,0,1,.176-.176h1.831a.179.179,0,0,1,.178.179v10.659a.541.541,0,0,1-.541.541" transform="translate(-167.743 -65.455)" fill="#181818"/>
            <path id="Trazado_877535" data-name="Trazado 877535" d="M255.5,90.843h0a.168.168,0,0,1-.167-.167V87.043a.167.167,0,1,1,.335,0v3.632a.168.168,0,0,1-.167.167" transform="translate(-165.794 -56.411)" fill="#fff"/>
            <rect id="Rectángulo_403097" data-name="Rectángulo 403097" width="2.185" height="2.13" transform="translate(90.591 37.002)" fill="#30169a"/>
            <rect id="Rectángulo_403098" data-name="Rectángulo 403098" width="1.831" height="0.175" transform="translate(90.768 34.114)" fill="#666"/>
            <rect id="Rectángulo_403099" data-name="Rectángulo 403099" width="1.831" height="0.175" transform="translate(90.768 35.262)" fill="#666"/>
            <path id="Trazado_877536" data-name="Trazado 877536" d="M257.4,112.031c.067-.129-.091-.976-.329-.713,0,0-1.442,1.819-1.991,1.993-.3.1-.232-.864-.232-.864a1.041,1.041,0,0,0-.519.178,3.71,3.71,0,0,0-1.334,2.312c-.178.766.441,2.148,1.342,1.938a14.305,14.305,0,0,0,2.414-.851c.6-.369,1.046-1.761,1.046-1.761.115-.269.036-.92-.084-.719.188-.305-.005-.724-.208-.709a.672.672,0,0,0-.1-.805" transform="translate(-164.256 -72.249)" fill="#fca886"/>
            <path id="Trazado_877537" data-name="Trazado 877537" d="M261.455,115.085l-.116-.132a8.371,8.371,0,0,0,1.427-1.648l.146.1a8.551,8.551,0,0,1-1.457,1.683" transform="translate(-169.695 -73.573)" fill="#d66947"/>
            <path id="Trazado_877538" data-name="Trazado 877538" d="M263.644,119.126l-.128-.12a6.722,6.722,0,0,0,1-1.457l.155.082a6.881,6.881,0,0,1-1.031,1.494" transform="translate(-171.108 -76.328)" fill="#d66947"/>
            <path id="Trazado_877539" data-name="Trazado 877539" d="M262.568,117.131l-.12-.128a6.235,6.235,0,0,0,1.153-1.443l.152.087a6.4,6.4,0,0,1-1.185,1.483" transform="translate(-170.415 -75.036)" fill="#d66947"/>
            <path id="Trazado_877540" data-name="Trazado 877540" d="M256.8,117.2a.565.565,0,0,1-.339-.093l.107-.139c.01.007.238.168.709-.083l.083.154a1.188,1.188,0,0,1-.559.161" transform="translate(-166.529 -75.894)" fill="#d66947"/>
            <path id="Trazado_877541" data-name="Trazado 877541" d="M166.011,292.709s5.144,1.838,3.721,2.949H162.1c-.569.05-.222-1.418.164-2.949Z" transform="translate(-105.061 -190.064)" fill="#fff"/>
            <path id="Trazado_877542" data-name="Trazado 877542" d="M205.49,270.735s5.577,1.454,4.281,2.906h-8.192c-.57.049-.222-1.4.164-2.906Z" transform="translate(-130.696 -175.796)" fill="#fff"/>
            <path id="Trazado_877543" data-name="Trazado 877543" d="M195.913,105.427s-1.424-1.876-1.424-2.9c0-1.384,4.141-3.828,5.392-3.509s2.081,3.148,2.081,3.148Z" transform="translate(-126.287 -64.275)" fill="#fff"/>
            <path id="Trazado_877544" data-name="Trazado 877544" d="M188.713,189.239a132.948,132.948,0,0,1,11.845,12.151,3.982,3.982,0,0,1,0,5.069l-8.414,11.358c-2.411.489-3.987.531-4.495,0a40.693,40.693,0,0,1,5.749-13.868c-4.269-1.858-11.879-8.314-13.258-13.1Z" transform="translate(-116.971 -122.878)" fill="#30169a"/>
            <path id="Trazado_877545" data-name="Trazado 877545" d="M165.543,185.862a8.47,8.47,0,0,0,.282,5.475,227.345,227.345,0,0,0-3.712,29.265,6.1,6.1,0,0,0,4.094-.38c6.4-16.745,8.462-26.722,9.641-36.623l-1.182-2.524-3.8,1.373Z" transform="translate(-105.265 -117.576)" fill="#30169a"/>
            <path id="Trazado_877546" data-name="Trazado 877546" d="M215.568,106.247a9.054,9.054,0,0,1,1.006.355,4.316,4.316,0,0,1,.286,3.265c-.5,1.879-1.731-2.634-1.731-2.634Z" transform="translate(-139.689 -68.989)" fill="#181818"/>
            <path id="Trazado_877547" data-name="Trazado 877547" d="M207.022,108.244s3.272,6.824,1,8.225a2.528,2.528,0,0,1-1.438.377L205.5,120.1l-4.121-1.83a11.1,11.1,0,0,0,.631-2.683,9.238,9.238,0,0,1-.848-4.281l1.421-2.6,2.545-.454,1.479.158Z" transform="translate(-130.611 -70.286)" fill="#fca886"/>
            <path id="Trazado_877548" data-name="Trazado 877548" d="M196.179,106.06a3.394,3.394,0,0,1,.482-2.188,3.928,3.928,0,0,1,1.557-1.263,7.962,7.962,0,0,1,2.148-.617c.462-.074.928-.123,1.394-.16a5.683,5.683,0,0,0,1.542-.227,2.058,2.058,0,0,0,.793-.5c.277.862.574,2.625-.511,3.291a14.251,14.251,0,0,1-4.565,1.521c.518,1.193,1.051,2.4.691,2.644a.781.781,0,0,0-.844-.577c-1.207.2-1.046,1.792.553,2.185a1.271,1.271,0,0,1-.931.844c-2.68-1.866-3.331-3.76-2.31-4.954" transform="translate(-127.087 -65.651)" fill="#181818"/>
            <path id="Trazado_877549" data-name="Trazado 877549" d="M196.558,211.734l-.17-.041.591-2.439.171.041Z" transform="translate(-127.52 -135.875)" fill="#30169a"/>
            <path id="Trazado_877550" data-name="Trazado 877550" d="M212.948,130.557a2.818,2.818,0,0,1-1.995-1.237l.147-.1a2.69,2.69,0,0,0,1.862,1.158Z" transform="translate(-136.978 -83.909)" fill="#d66947"/>
            <path id="Trazado_877551" data-name="Trazado 877551" d="M179.139,133.012c-3.423,1.174-9.656,5.166-12.806,24.418a68.143,68.143,0,0,0,12.17,1.432,45.183,45.183,0,0,0,1.5-5.87l1.961,1.811c2.21-7.752,2.574-12.882,1.549-19.361a7,7,0,0,1-4.377-2.428" transform="translate(-108.005 -86.368)" fill="#fff"/>
            <path id="Trazado_877552" data-name="Trazado 877552" d="M219.111,130.992l-9.435-1.642-.722,5.575,10.4,1.009a3.217,3.217,0,0,0,3.413-1.792l4.485-11.292-2.83-.592Z" transform="translate(-135.68 -79.386)" fill="#fca886"/>
            <path id="Trazado_877553" data-name="Trazado 877553" d="M216.808,131.362a35.616,35.616,0,0,1,4.73-7.793,5.433,5.433,0,0,1,3.45,2.008s-2.409,10.307-5.265,11.209c-2.5.942-13.151-.8-13.151-.8s-.889-4.245-.889-4.319.74-2.69.74-2.69l2.662.7a41.363,41.363,0,0,1,7.721,1.686" transform="translate(-133.556 -80.237)" fill="#fff"/>
            <path id="Trazado_877554" data-name="Trazado 877554" d="M209.346,158.6a18.449,18.449,0,0,1-4.044-.921l.058-.165a18.272,18.272,0,0,0,4.006.912Z" transform="translate(-133.308 -102.28)" fill="#30169a"/>
            <path id="Trazado_877555" data-name="Trazado 877555" d="M238.276,147.368l-.175,0a2.155,2.155,0,0,0-.873-1.767l.1-.147a2.292,2.292,0,0,1,.953,1.918" transform="translate(-154.039 -94.445)" fill="#30169a"/>
            <path id="Trazado_877556" data-name="Trazado 877556" d="M217.263,229.122l1.23-1.312.128.12-.877.936,1.953-.32.028.174Z" transform="translate(-141.075 -147.923)" fill="#30169a"/>
            <path id="Trazado_877557" data-name="Trazado 877557" d="M202.266,129.975a9.038,9.038,0,0,0,4.174,2.949l.19,1.47-2.28-.1-1.593-1.829-1.2-1.251Z" transform="translate(-130.876 -84.396)" fill="#fff"/>
            <path id="Trazado_877558" data-name="Trazado 877558" d="M203.217,143.107l-.175-.017a3.248,3.248,0,0,1,1.112-2.308,3.533,3.533,0,0,1,2.4-.691l-.019.174a3.413,3.413,0,0,0-2.272.654,3.079,3.079,0,0,0-1.046,2.188" transform="translate(-131.841 -90.957)" fill="#30169a"/>
            <path id="Trazado_877559" data-name="Trazado 877559" d="M203.643,135.779a6.3,6.3,0,0,1-2.3-2.3l.151-.09a6.122,6.122,0,0,0,2.238,2.235Z" transform="translate(-130.736 -86.614)" fill="#30169a"/>
            <path id="Trazado_877560" data-name="Trazado 877560" d="M205.252,170.227l-.17-.042c.017-.07,1.751-7,2.338-10.662l.173.028c-.588,3.668-2.323,10.607-2.341,10.677" transform="translate(-133.165 -103.582)" fill="#30169a"/>
            <path id="Trazado_877561" data-name="Trazado 877561" d="M213.262,175.087l-.171-.04a51.243,51.243,0,0,0,.986-5.856l.174.019a51.476,51.476,0,0,1-.99,5.877" transform="translate(-138.366 -109.861)" fill="#30169a"/>
            <path id="Trazado_877562" data-name="Trazado 877562" d="M172.543,180.266a11.394,11.394,0,0,1-2.5-.308l.044-.17a10.643,10.643,0,0,0,2.962.285l.215-1.139a8.82,8.82,0,0,1-2.836-.419l.06-.165a8.751,8.751,0,0,0,2.87.409h.012a.087.087,0,0,1,.086.1l-.247,1.309a.088.088,0,0,1-.079.071c-.2.016-.394.023-.59.023" transform="translate(-110.416 -115.808)" fill="#30169a"/>
            <path id="Trazado_877563" data-name="Trazado 877563" d="M176.926,181.091a.239.239,0,1,1-.238-.238.238.238,0,0,1,.238.238" transform="translate(-114.573 -117.433)" fill="#30169a"/>
            <rect id="Rectángulo_403100" data-name="Rectángulo 403100" width="238.083" height="0.351" transform="translate(0 138.809)" fill="#181818"/>
          </g>
        </g>
      </g>
    </g>
  </g>
</svg>
