<svg xmlns="http://www.w3.org/2000/svg" width="89" height="89" viewBox="0 0 89 89">
  <g id="Grupo_1101880" data-name="Grupo 1101880" transform="translate(-1174.994 -1380)">
    <rect id="Rectángulo_400898" data-name="Rectángulo 400898" width="89" height="89" rx="44.5" transform="translate(1174.994 1380)" fill="#fff"/>
    <path id="salud-emocional" d="M84.926,80.42a7.635,7.635,0,0,1-9.657-2.588A7.636,7.636,0,0,1,84.926,80.42Zm2.815,9.166A7.634,7.634,0,0,1,97.4,87,7.636,7.636,0,0,1,87.741,89.586Zm13.539-.78c.611-10.589,8.76-13.968,8.634-32.448a20.3,20.3,0,0,0-6.272-14.836c-4.905-4.716-12.525-7.493-19.883-7.245-7.186.243-13.458,3.243-17.213,8.233-1.91,2.537-2.235,5.094-2.579,7.8-.4,3.023-.8,6.148-3.412,9.252a.131.131,0,0,1-.036.04l-8.082,8.666a1.421,1.421,0,0,0,.272,2.187l4.878,3.1a3.4,3.4,0,0,1,1.24,1.378l1.2,2.4,1.765,1.055a1.026,1.026,0,0,1,.48.751c.077.593-.308.866-.706,1.267a3.684,3.684,0,0,1,.57,2.453L61.5,87.951a3.3,3.3,0,0,0,3.81,3.678l10.507-1.682a2.466,2.466,0,0,1,2.851,2.578l.235,4.707a.429.429,0,0,0,.425.4h5.973V82.487a9.685,9.685,0,0,1-12.362-4.571,1.027,1.027,0,0,1,.362-1.317,9.663,9.663,0,0,1,12,1.127V71.614c-5.8-2.8-11.964-9.1-14.236-15.556l-3.611-.015a1.022,1.022,0,1,1,0-2.044l3.023.013a13.307,13.307,0,0,1-.326-2.9,9.668,9.668,0,0,1,16.173-7.158,9.674,9.674,0,0,1,16.182,7.158,13.388,13.388,0,0,1-.29,2.721l2.95-.08a1.022,1.022,0,1,1,.054,2.044l-3.575.1c-2.226,6.509-8.444,12.9-14.3,15.719V86.893a9.678,9.678,0,0,1,12.01-1.127,1.024,1.024,0,0,1,.353,1.317,9.685,9.685,0,0,1-12.363,4.571v5.979H101.28a.415.415,0,0,0,.425-.454,71.83,71.83,0,0,1-.425-8.372ZM78.157,56.088a1.027,1.027,0,0,0,.878-.487l1.928-3.134,4.462,8.514a1.023,1.023,0,0,0,1.81,0L91.7,52.467,93.624,55.6a1.042,1.042,0,0,0,.9.486l4.923-.133A28.47,28.47,0,0,1,86.329,69.839,28.551,28.551,0,0,1,73.252,56.067Zm-5.964-4.975A7.629,7.629,0,0,1,85.56,46.086a1.025,1.025,0,0,0,1.539,0,7.629,7.629,0,0,1,13.367,5.027,11.934,11.934,0,0,1-.353,2.778l-5.05.137L92.5,49.865a1.03,1.03,0,0,0-1.783.061L86.329,58.3,81.94,49.926a1.022,1.022,0,0,0-1.774-.061L77.6,54.041l-5.014-.021a11.684,11.684,0,0,1-.389-2.907Zm34.454,27.524a43.65,43.65,0,0,0,5.3-22.292,22.235,22.235,0,0,0-6.887-16.3,27.894,27.894,0,0,0-10.091-6.064A31.415,31.415,0,0,0,83.7,32.233c-7.81.263-14.661,3.561-18.779,9.047C62.681,44.249,62.3,47.2,61.93,50.049s-.706,5.539-2.923,8.177l-8.073,8.647a3.476,3.476,0,0,0,.679,5.305l4.878,3.1a1.282,1.282,0,0,1,.507.568l1.339,2.671a.955.955,0,0,0,.389.419l.887.536-.009.015a1.024,1.024,0,0,0-.2,1.179l.57,1.126a1.346,1.346,0,0,1,.136.818L59.477,87.7a5.344,5.344,0,0,0,6.154,5.95l10.516-1.682a.422.422,0,0,1,.489.455c-.029.234.206,4.313.235,4.913a2.464,2.464,0,0,0,2.462,2.343H101.28a2.463,2.463,0,0,0,2.462-2.655,71.779,71.779,0,0,1-.416-8.1c.217-3.975,1.656-6.9,3.321-10.283Z" transform="translate(1138.994 1357.783)" fill="#30169a" fill-rule="evenodd"/>
  </g>
</svg>
