<svg xmlns="http://www.w3.org/2000/svg" width="89" height="89" viewBox="0 0 89 89">
  <g id="Grupo_1101683" data-name="Grupo 1101683" transform="translate(-598 -1383)">
    <rect id="Rectángulo_402719" data-name="Rectángulo 402719" width="89" height="89" rx="44.5" transform="translate(598 1383)" fill="#fff"/>
    <g id="cuerpo" transform="translate(614.66 1399.643)">
      <g id="Grupo_1101677" data-name="Grupo 1101677" transform="translate(-0.015 0)">
        <path id="Trazado_877573" data-name="Trazado 877573" d="M.907,110.332a.816.816,0,0,1-.816-.816V79.648a9.383,9.383,0,0,1,1.721-5.43.816.816,0,0,1,1.335.94,7.759,7.759,0,0,0-1.423,4.49v29.868A.816.816,0,0,1,.907,110.332Z" transform="translate(-0.079 -65.833)" fill="#30169a"/>
        <path id="Trazado_877574" data-name="Trazado 877574" d="M37.2,42.582a.816.816,0,0,1-.448-1.5,9.67,9.67,0,0,1,5.312-1.577.816.816,0,0,1,0,1.632,8.042,8.042,0,0,0-4.418,1.311A.812.812,0,0,1,37.2,42.582Z" transform="translate(-32.419 -35.207)" fill="#30169a"/>
        <path id="Trazado_877575" data-name="Trazado 877575" d="M267.416,69.049a.816.816,0,0,1-.816-.816l-.01-19.211a7.95,7.95,0,0,0-8-7.884.816.816,0,0,1,0-1.632,9.584,9.584,0,0,1,9.63,9.516l.01,19.211a.816.816,0,0,1-.816.817Z" transform="translate(-229.723 -35.207)" fill="#30169a"/>
        <path id="Trazado_877576" data-name="Trazado 877576" d="M73.525,216.821H46.563a.816.816,0,0,1-.816-.816v-6.356a.816.816,0,1,1,1.632,0v5.54H72.709v-5.521a.816.816,0,1,1,1.632,0v6.337A.816.816,0,0,1,73.525,216.821Z" transform="translate(-40.767 -186.108)" fill="#30169a"/>
        <path id="Trazado_877577" data-name="Trazado 877577" d="M37.717,61.677a7.445,7.445,0,0,1-5.364-2.285.842.842,0,0,1-.156-.167,7.234,7.234,0,0,1-.042-9.644l3.5-9.54a.816.816,0,0,1,.766-.535h3.854a.816.816,0,1,1,0,1.632H37l-3.362,9.153a.816.816,0,0,1-.167.273,5.6,5.6,0,0,0,0,7.627l.017.018a5.806,5.806,0,0,0,4.235,1.834.816.816,0,1,1,0,1.632Z" transform="translate(-27.032 -35.207)" fill="#30169a"/>
        <path id="Trazado_877578" data-name="Trazado 877578" d="M228.409,61.677a.816.816,0,1,1,0-1.632,5.806,5.806,0,0,0,4.235-1.834l.018-.019a5.6,5.6,0,0,0,0-7.626.816.816,0,0,1-.167-.273l-3.362-9.153h-3.285a.816.816,0,1,1,0-1.632H229.7a.816.816,0,0,1,.766.535l3.5,9.54a7.234,7.234,0,0,1-.055,9.659.848.848,0,0,1-.149.159A7.445,7.445,0,0,1,228.409,61.677Z" transform="translate(-200.54 -35.207)" fill="#30169a"/>
        <g id="Grupo_1101674" data-name="Grupo 1101674" transform="translate(12.432)">
          <path id="Trazado_877579" data-name="Trazado 877579" d="M121.076,19.656a6.814,6.814,0,0,1-6.845-6.767V5.115a.816.816,0,0,1,.693-.807c.351-.054,2.1-.4,2.1-1.952V.816a.816.816,0,0,1,1.632,0V2.357a3.546,3.546,0,0,1-2.794,3.414v7.119a5.213,5.213,0,0,0,10.425,0v-7.1a3.571,3.571,0,0,1-2.9-3.43V.816a.816.816,0,0,1,1.632,0V2.357c0,1.245,1.175,1.828,2.182,1.948a.816.816,0,0,1,.719.81v7.774A6.814,6.814,0,0,1,121.076,19.656Z" transform="translate(-114.231 0)" fill="#30169a"/>
        </g>
        <g id="Grupo_1101676" data-name="Grupo 1101676" transform="translate(0 29.081)">
          <path id="Trazado_877580" data-name="Trazado 877580" d="M23.207,282.659H.812A.816.816,0,0,1,0,281.9,22.509,22.509,0,0,1,5.14,267.552a.816.816,0,0,1,.641-.311H32.742a.816.816,0,0,1,.611.276,18.576,18.576,0,0,1,2.3,3.272.816.816,0,0,1-1.426.793,17.06,17.06,0,0,0-1.863-2.709H6.181a21.856,21.856,0,0,0-4.552,12.154H23.207a.816.816,0,1,1,0,1.632Z" transform="translate(0.015 -267.241)" fill="#30169a"/>
          <g id="Grupo_1101675" data-name="Grupo 1101675" transform="translate(0.008 13.786)">
            <path id="Trazado_877581" data-name="Trazado 877581" d="M3.1,406.778a.816.816,0,0,1-.754-.5A30.665,30.665,0,0,1,.066,394.72a.816.816,0,0,1,.816-.791h18.5a.816.816,0,1,1,0,1.632H1.707a29.874,29.874,0,0,0,2.147,10.086.817.817,0,0,1-.753,1.131Z" transform="translate(-0.062 -393.929)" fill="#30169a"/>
          </g>
        </g>
        <path id="Trazado_877582" data-name="Trazado 877582" d="M148.567,466.031a6.609,6.609,0,0,1-3.021-.729.83.83,0,0,1-.368-1.105.8.8,0,0,1,1.084-.362l.028.014a5.01,5.01,0,0,0,4.567,0l.4.712.372.727A6.7,6.7,0,0,1,148.567,466.031Z" transform="translate(-129.301 -413.282)" fill="#30169a"/>
        <path id="Línea_623" data-name="Línea 623" d="M-6.569-3.626A.816.816,0,0,1-7.384-4.4L-7.5-6.642A.816.816,0,0,1-6.726-7.5a.816.816,0,0,1,.857.773l.115,2.242a.816.816,0,0,1-.773.857Z" transform="translate(25.958 59.342)" fill="#30169a"/>
        <path id="Línea_624" data-name="Línea 624" transform="translate(19.224 38.545)" fill="#30169a"/>
      </g>
      <g id="Grupo_1101682" data-name="Grupo 1101682" transform="translate(21.257 32.193)">
        <g id="Grupo_1101678" data-name="Grupo 1101678">
          <path id="Trazado_877583" data-name="Trazado 877583" d="M219.044,319.178h-12.7a3.9,3.9,0,0,1-3.261-1.759l-6.868-10.428a4.444,4.444,0,0,1,1.125-6.1,25.856,25.856,0,0,1,30.7,0,4.444,4.444,0,0,1,1.125,6.1l-3.927,5.964a.816.816,0,0,1-1.363-.9l3.927-5.964a2.818,2.818,0,0,0-.705-3.869,24.225,24.225,0,0,0-28.817,0,2.818,2.818,0,0,0-.705,3.869l6.868,10.428a2.269,2.269,0,0,0,1.9,1.024h12.7a2.269,2.269,0,0,0,1.9-1.024l1.155-1.754a.816.816,0,1,1,1.363.9L222.3,317.42A3.9,3.9,0,0,1,219.044,319.178Z" transform="translate(-195.469 -295.842)" fill="#30169a"/>
          <path id="Trazado_877584" data-name="Trazado 877584" d="M347.813,358.764a.817.817,0,0,1-.752-1.132l4.682-11.153-6.358,10.293a.816.816,0,1,1-1.389-.858l7.717-12.493a.816.816,0,0,1,.072-.1,1.445,1.445,0,0,1,2.374,1.618l-5.593,13.323A.817.817,0,0,1,347.813,358.764Z" transform="translate(-327.725 -337.692)" fill="#30169a"/>
          <path id="Trazado_877585" data-name="Trazado 877585" d="M320.843,467.03h-7.3a.816.816,0,0,1-.816-.816,4.466,4.466,0,1,1,8.933,0A.816.816,0,0,1,320.843,467.03Zm-6.365-1.632h5.429a2.835,2.835,0,0,0-5.429,0Z" transform="translate(-299.966 -443.693)" fill="#30169a"/>
        </g>
        <g id="Grupo_1101681" data-name="Grupo 1101681" transform="translate(4.706 4.094)">
          <g id="Grupo_1101679" data-name="Grupo 1101679" transform="translate(0)">
            <path id="Línea_625" data-name="Línea 625" d="M-6.684-3.91A.816.816,0,0,1-7.5-4.726V-6.684A.816.816,0,0,1-6.684-7.5a.816.816,0,0,1,.816.816v1.958A.816.816,0,0,1-6.684-3.91Z" transform="translate(19.204 7.5)" fill="#30169a"/>
            <path id="Línea_626" data-name="Línea 626" d="M-6.346-3.94a.816.816,0,0,1-.8-.675l-.34-1.928a.816.816,0,0,1,.662-.945.816.816,0,0,1,.945.662l.34,1.928a.816.816,0,0,1-.662.945A.821.821,0,0,1-6.346-3.94Z" transform="translate(15.133 7.9)" fill="#30169a"/>
            <path id="Línea_627" data-name="Línea 627" d="M-6.016-4.029a.816.816,0,0,1-.767-.537l-.67-1.84a.816.816,0,0,1,.488-1.046.816.816,0,0,1,1.046.488l.67,1.84a.816.816,0,0,1-.488,1.046A.815.815,0,0,1-6.016-4.029Z" transform="translate(11.192 9)" fill="#30169a"/>
            <path id="Línea_628" data-name="Línea 628" d="M-5.705-4.173a.816.816,0,0,1-.708-.408l-.979-1.7a.816.816,0,0,1,.3-1.115.816.816,0,0,1,1.115.3L-5-5.4a.816.816,0,0,1-.3,1.115A.813.813,0,0,1-5.705-4.173Z" transform="translate(7.501 10.766)" fill="#30169a"/>
          </g>
          <g id="Grupo_1101680" data-name="Grupo 1101680" transform="translate(15.436 0.398)">
            <path id="Línea_629" data-name="Línea 629" d="M-6.684-3.94a.821.821,0,0,1-.143-.013A.816.816,0,0,1-7.489-4.9l.34-1.928A.816.816,0,0,1-6.2-7.489a.816.816,0,0,1,.662.945l-.34,1.928A.816.816,0,0,1-6.684-3.94Z" transform="translate(7.501 7.501)" fill="#30169a"/>
            <path id="Línea_630" data-name="Línea 630" d="M-6.686-4.173a.812.812,0,0,1-.407-.109.816.816,0,0,1-.3-1.115l.979-1.7a.816.816,0,0,1,1.115-.3A.816.816,0,0,1-5-6.277l-.979,1.7A.816.816,0,0,1-6.686-4.173Z" transform="translate(14.494 10.368)" fill="#30169a"/>
          </g>
        </g>
      </g>
    </g>
  </g>
</svg>
