<svg xmlns="http://www.w3.org/2000/svg" width="89" height="89" viewBox="0 0 89 89">
  <g id="Grupo_1101684" data-name="Grupo 1101684" transform="translate(-913 -1383)">
    <rect id="Rectángulo_402720" data-name="Rectángulo 402720" width="89" height="89" rx="44.5" transform="translate(913 1383)" fill="#fff"/>
    <g id="colesterol" transform="translate(926.814 1397.49)">
      <path id="Trazado_877573" data-name="Trazado 877573" d="M56.2,13.224H48.293A16.161,16.161,0,0,0,33.281,23.317a4.748,4.748,0,0,0-1.115-1.724,4.569,4.569,0,0,0-2.278-1.281,3.194,3.194,0,0,0-.754-.056,52.549,52.549,0,0,0,15.017-16.8L45.29,1.434,43.649.51,42.508,2.535a50.689,50.689,0,0,1-19.24,19.281,49.137,49.137,0,0,0-15.7,14.124L.186,46.269l1.534,1.1,2.451-3.428a5.164,5.164,0,0,0,.44.505,4.573,4.573,0,0,0,2.28,1.281,3.221,3.221,0,0,0,.634.065,2.418,2.418,0,0,0,1.745-.68,2.574,2.574,0,0,0,.618-2.383,4.582,4.582,0,0,0-1.28-2.286,4.926,4.926,0,0,0-1.283-.919L9.1,37.039a46.561,46.561,0,0,1,3.754-4.578,4.684,4.684,0,0,0,2.238.556c2.114,0,3.77-1.241,3.77-2.828a2.587,2.587,0,0,0-1.315-2.159,46.76,46.76,0,0,1,6.648-4.575c.957-.54,1.89-1.118,2.807-1.715a3.787,3.787,0,0,0,1.171,3.851,4.569,4.569,0,0,0,2.282,1.281,3.221,3.221,0,0,0,.634.065,2.55,2.55,0,0,0,1.235-.311,16.151,16.151,0,0,0-.267,2.835A18.2,18.2,0,0,1,29.353,39,41.02,41.02,0,0,0,16.489,59.157l1.817.5A39.081,39.081,0,0,1,36.455,36.284a54.1,54.1,0,0,0,19.1-18.441l4.635-7.488-1.6-.994ZM7.275,41.776c.813.813.943,1.728.666,2a.773.773,0,0,1-.677.1,2.726,2.726,0,0,1-1.32-.766,3.037,3.037,0,0,1-.592-.828l.854-1.194a2.915,2.915,0,0,1,1.068.689Zm9.7-11.586c0,.385-.734.943-1.885.943a2.976,2.976,0,0,1-.848-.124c.56-.555,1.131-1.1,1.717-1.626C16.573,29.566,16.976,29.907,16.976,30.19ZM31.5,24.925a.771.771,0,0,1-.677.1,2.726,2.726,0,0,1-1.32-.766c-.813-.813-.943-1.728-.666-2a.575.575,0,0,1,.408-.128,1.394,1.394,0,0,1,.269.028,2.726,2.726,0,0,1,1.32.766c.813.813.936,1.728.666,2Zm4.016,9.723c-.974.557-1.915,1.162-2.835,1.8a20.075,20.075,0,0,0,1.256-6.983A14.351,14.351,0,0,1,48.294,15.109h6.737l-1.079,1.744A52.2,52.2,0,0,1,35.52,34.648Z" transform="translate(0)" fill="#30169a"/>
      <path id="Trazado_877574" data-name="Trazado 877574" d="M58.392,19.814A56,56,0,0,1,38.624,38.9,36.8,36.8,0,0,0,21.659,60.1l1.8.554a34.926,34.926,0,0,1,16.1-20.122A57.87,57.87,0,0,0,59.995,20.807l1.43-2.309-1.6-.992Z" transform="translate(-1.234 -0.977)" fill="#30169a"/>
      <path id="Trazado_877575" data-name="Trazado 877575" d="M6.031,34.844a51.029,51.029,0,0,1,16.305-14.67A48.8,48.8,0,0,0,40.865,1.611l.1-.177L39.321.51l-.1.179A46.929,46.929,0,0,1,21.406,18.536,52.913,52.913,0,0,0,4.5,33.748L.186,39.78l1.534,1.1Z" transform="translate(0 0)" fill="#30169a"/>
      <path id="Trazado_877576" data-name="Trazado 877576" d="M16.513,47.515a2.574,2.574,0,0,0-2.379.615c-1.122,1.121-.828,3.17.666,4.664a4.569,4.569,0,0,0,2.278,1.281,3.22,3.22,0,0,0,.634.065,2.419,2.419,0,0,0,1.745-.68c1.122-1.121.828-3.17-.666-4.664a4.573,4.573,0,0,0-2.278-1.281Zm1.619,4.613a.771.771,0,0,1-.677.1,2.726,2.726,0,0,1-1.32-.766c-.813-.813-.938-1.728-.666-2a.575.575,0,0,1,.408-.128,1.394,1.394,0,0,1,.269.028,2.726,2.726,0,0,1,1.32.766c.81.813.932,1.728.663,2Z" transform="translate(-0.763 -2.698)" fill="#30169a"/>
      <path id="Trazado_877577" data-name="Trazado 877577" d="M15.632,38.064a4.579,4.579,0,0,0-2.286,1.282c-1.495,1.495-1.791,3.543-.667,4.664a2.42,2.42,0,0,0,1.746.68,3.221,3.221,0,0,0,.634-.065,4.584,4.584,0,0,0,2.286-1.281c1.495-1.495,1.791-3.544.666-4.664a2.57,2.57,0,0,0-2.379-.615Zm.377,3.947a2.721,2.721,0,0,1-1.32.765.766.766,0,0,1-.677-.1c-.272-.271-.148-1.186.666-2A2.722,2.722,0,0,1,16,39.913a1.384,1.384,0,0,1,.27-.028.576.576,0,0,1,.409.128c.271.271.147,1.186-.666,2Z" transform="translate(-0.679 -2.155)" fill="#30169a"/>
      <path id="Trazado_877578" data-name="Trazado 877578" d="M19,42.828c0,1.586,1.656,2.828,3.77,2.828s3.77-1.241,3.77-2.828S24.884,40,22.77,40,19,41.241,19,42.828Zm5.655,0c0,.385-.734.943-1.885.943s-1.885-.558-1.885-.943.734-.943,1.885-.943S24.655,42.443,24.655,42.828Z" transform="translate(-1.082 -2.27)" fill="#30169a"/>
      <path id="Trazado_877579" data-name="Trazado 877579" d="M26.513,36.075A4.573,4.573,0,0,0,28.8,34.794c1.495-1.495,1.791-3.544.667-4.664a2.57,2.57,0,0,0-2.387-.615A4.569,4.569,0,0,0,24.793,30.8C23.3,32.291,23,34.34,24.125,35.461a2.422,2.422,0,0,0,1.746.68,3.221,3.221,0,0,0,.642-.065Zm-1.046-1.947c-.271-.271-.147-1.186.666-2a2.726,2.726,0,0,1,1.32-.766,1.392,1.392,0,0,1,.268-.028.576.576,0,0,1,.409.128c.271.271.147,1.186-.666,2a2.726,2.726,0,0,1-1.32.766.769.769,0,0,1-.68-.1Z" transform="translate(-1.337 -1.663)" fill="#30169a"/>
      <path id="Trazado_877580" data-name="Trazado 877580" d="M7.513,59.075A4.569,4.569,0,0,0,9.8,57.794c1.495-1.495,1.791-3.544.667-4.664a2.571,2.571,0,0,0-2.387-.615A4.569,4.569,0,0,0,5.793,53.8C4.3,55.291,4,57.34,5.125,58.461a2.422,2.422,0,0,0,1.746.68,3.221,3.221,0,0,0,.642-.065ZM6.467,57.128c-.271-.271-.147-1.186.666-2a2.726,2.726,0,0,1,1.32-.766,1.394,1.394,0,0,1,.269-.028.575.575,0,0,1,.408.128c.271.271.147,1.186-.666,2a2.726,2.726,0,0,1-1.32.766.768.768,0,0,1-.68-.1Z" transform="translate(-0.245 -2.985)" fill="#30169a"/>
      <path id="Trazado_877581" data-name="Trazado 877581" d="M49.078,5.515A4.569,4.569,0,0,0,46.793,6.8C45.3,8.291,45,10.34,46.125,11.461a2.422,2.422,0,0,0,1.746.68,3.221,3.221,0,0,0,.634-.065,4.569,4.569,0,0,0,2.286-1.281c1.495-1.495,1.791-3.544.667-4.664a2.577,2.577,0,0,0-2.38-.615Zm.377,3.946a2.726,2.726,0,0,1-1.32.766.768.768,0,0,1-.677-.1c-.271-.271-.147-1.186.666-2a2.726,2.726,0,0,1,1.32-.766,1.394,1.394,0,0,1,.269-.028.575.575,0,0,1,.408.128c.276.271.154,1.186-.66,2Z" transform="translate(-2.602 -0.283)" fill="#30169a"/>
      <path id="Trazado_877582" data-name="Trazado 877582" d="M54,4.828c0,1.586,1.656,2.828,3.77,2.828s3.77-1.241,3.77-2.828S59.884,2,57.77,2,54,3.241,54,4.828Zm5.655,0c0,.385-.734.943-1.885.943s-1.885-.558-1.885-.943.734-.943,1.885-.943S59.655,4.443,59.655,4.828Z" transform="translate(-3.094 -0.086)" fill="#30169a"/>
      <path id="Trazado_877583" data-name="Trazado 877583" d="M49.344,48.221l-1.885-8.483a.943.943,0,0,0-1.786-.167l-2.661,6.208-2.426.81a.943.943,0,0,0-.639.79L39,55.862a.943.943,0,0,0,.639,1L45.3,58.744a.927.927,0,0,0,.3.049.943.943,0,0,0,.935-1.059l-.86-6.88,3.172-1.58A.943.943,0,0,0,49.344,48.221Zm-5.11,1.246a.943.943,0,0,0-.514.96l.754,6.057L40.96,55.312l.792-7.126,2.255-.754a.943.943,0,0,0,.566-.522L46.257,43l1.09,4.91Z" transform="translate(-2.231 -2.213)" fill="#30169a"/>
      <path id="Trazado_877584" data-name="Trazado 877584" d="M57.831,45.237l1.615-3.219a.942.942,0,0,0-.12-1.025l-4.713-5.655a.943.943,0,0,0-1.657.738l.892,6.24-1.686,2.527a.942.942,0,0,0-.04,1l3.77,6.6a.943.943,0,0,0,.82.471.884.884,0,0,0,.189-.019l4.713-.943a.943.943,0,0,0,.539-1.528Zm-.637,5.67-3.145-5.5,1.563-2.342a.943.943,0,0,0,.149-.66L55.289,39.1l2.191,2.629-1.61,3.219a.943.943,0,0,0,.12,1.025l3.7,4.437Z" transform="translate(-2.979 -1.983)" fill="#30169a"/>
    </g>
  </g>
</svg>
