<svg xmlns="http://www.w3.org/2000/svg" width="89" height="89" viewBox="0 0 89 89">
  <g id="Grupo_1102085" data-name="Grupo 1102085" transform="translate(-283.052 -3316)">
    <g id="Grupo_1101630" data-name="Grupo 1101630" transform="translate(283.052 3316)">
      <rect id="Rect치ngulo_400898" data-name="Rect치ngulo 400898" width="89" height="89" rx="44.5" fill="#fff"/>
      <rect id="Rect치ngulo_400907" data-name="Rect치ngulo 400907" width="89" height="89" rx="44.5" fill="none"/>
    </g>
    <g id="sin-azucar" transform="translate(297.738 3330.686)">
      <path id="Trazado_877839" data-name="Trazado 877839" d="M128.423,53.212l-4.665-4.665a22.556,22.556,0,0,1,13.274-4.26.864.864,0,0,0,0-1.727,24.284,24.284,0,0,0-15.121,5.214.872.872,0,0,0-.078,1.29l33.225,33.225a.872.872,0,0,0,1.29-.078A24.534,24.534,0,0,0,140.61,42.819a.864.864,0,0,0-.25,1.709A22.808,22.808,0,0,1,159.836,67.09a22.556,22.556,0,0,1-4.26,13.274l-2.053-2.053a.863.863,0,0,0,.486-.776V67.592a.882.882,0,0,0-.5-.782l-7.559-3.541V53.874a.882.882,0,0,0-.5-.782L137.4,49.318a.864.864,0,0,0-.733,0l-8.056,3.774a.873.873,0,0,0-.1.053l-.006,0-.031.022c-.018.013-.036.025-.053.039Zm7.746,7.746-5.192-5.192,5.192,2.433ZM137.9,58.2l6.329-2.965v8.036L140.313,65.1,137.9,62.685V58.2Zm8.856,13.343,5.529-2.59v8.036l-.057.027Zm-1.3-1.3L141.612,66.4l3.477-1.629,6.021,2.821Zm-8.421-19.188,6.02,2.821-6.02,2.821-6.02-2.821Z" transform="translate(-107.611 -37.669)" fill="#30169a"/>
      <path id="Trazado_877840" data-name="Trazado 877840" d="M50.226,8.617A29.422,29.422,0,1,0,10.963,52.333a.864.864,0,1,0,1.085-1.344,27.6,27.6,0,1,1,2.831,2.006.864.864,0,0,0-.908,1.469A29.424,29.424,0,0,0,50.226,8.617Z" transform="translate(0)" fill="#30169a"/>
      <path id="Trazado_877841" data-name="Trazado 877841" d="M48.4,121.552a.864.864,0,0,0-.628.329A24.284,24.284,0,0,0,42.561,137a24.558,24.558,0,0,0,24.53,24.53,24.284,24.284,0,0,0,15.121-5.214.872.872,0,0,0,.078-1.29L49.065,121.8A.862.862,0,0,0,48.4,121.552Zm18.689,38.253a22.829,22.829,0,0,1-22.8-22.8,22.556,22.556,0,0,1,4.259-13.274l9.507,9.507-7.442,3.487a.876.876,0,0,0-.5.782v3.546a.864.864,0,0,0,1.727,0v-2.188l6.329,2.965v8.036L51.842,146.9v-2.394a.864.864,0,1,0-1.727,0v2.943a.864.864,0,0,0,.5.782L58.669,152a.872.872,0,0,0,.733,0l7.69-3.6,7.69,3.6a.872.872,0,0,0,.733,0l.892-.418,3.959,3.959A22.556,22.556,0,0,1,67.091,159.805Zm-3.9-21.429-4.16,1.949L53.014,137.5l6.339-2.97Zm11.088,11.488L67.955,146.9v-3.763l6.329,6.329ZM66.227,146.9,59.9,149.864v-8.036l4.6-2.153,1.733,1.733Z" transform="translate(-37.67 -107.581)" fill="#30169a"/>
    </g>
  </g>
</svg>
