<svg xmlns="http://www.w3.org/2000/svg" width="96" height="96" viewBox="0 0 96 96">
  <g id="Grupo_1101809" data-name="Grupo 1101809" transform="translate(-239.052 -4308)">
    <rect id="Rectángulo_403135" data-name="Rectángulo 403135" width="96" height="96" transform="translate(239.052 4308)" fill="none"/>
    <g id="mano_1_" data-name="mano (1)" transform="translate(250.052 4318.957)">
      <path id="Trazado_877944" data-name="Trazado 877944" d="M74.326,103.45H41.876A8.952,8.952,0,0,1,32.93,94.5V90.86a1.164,1.164,0,1,1,2.328,0V94.5a6.624,6.624,0,0,0,6.618,6.618h32.45A6.624,6.624,0,0,0,80.944,94.5v-16.3a6.624,6.624,0,0,0-6.618-6.618H41.876a6.624,6.624,0,0,0-6.612,6.618v3.708a1.164,1.164,0,0,1-2.328,0V78.206a8.952,8.952,0,0,1,8.94-8.946h32.45a8.952,8.952,0,0,1,8.946,8.946V94.5A8.952,8.952,0,0,1,74.326,103.45Z" transform="translate(-13.763 -28.929)" fill="#30169a"/>
      <path id="Trazado_877945" data-name="Trazado 877945" d="M91.532,101.632H72a1.164,1.164,0,0,1-1.164-1.164V81.394A1.164,1.164,0,0,1,72,80.23H91.532A1.164,1.164,0,0,1,92.7,81.394v19.074A1.164,1.164,0,0,1,91.532,101.632ZM73.168,99.3h17.2V82.558h-17.2Z" transform="translate(-29.607 -33.513)" fill="#30169a"/>
      <path id="Trazado_877946" data-name="Trazado 877946" d="M25.983,100.147H1.164A1.164,1.164,0,0,1,0,98.983v-8.4A1.164,1.164,0,0,1,1.164,89.42H25.983a1.164,1.164,0,0,1,1.164,1.164v8.4A1.164,1.164,0,0,1,25.983,100.147ZM2.328,97.819H24.819V91.748H2.328Z" transform="translate(0 -37.354)" fill="#30169a"/>
      <path id="Trazado_877947" data-name="Trazado 877947" d="M43.8,100.714A1.164,1.164,0,0,1,42.64,99.55V87.164a1.164,1.164,0,1,1,2.328,0V99.556A1.164,1.164,0,0,1,43.8,100.714Z" transform="translate(-17.821 -35.925)" fill="#30169a"/>
      <path id="Trazado_877948" data-name="Trazado 877948" d="M15.576,69.01A5.559,5.559,0,0,1,10,63.458c0-4.878,4.406-11.3,4.592-11.577a1.168,1.168,0,0,1,1.892-.035c.186.25,4.622,6.211,4.622,11.641a5.559,5.559,0,0,1-5.53,5.524Zm.029-14.359c-1.234,2.078-3.277,5.908-3.277,8.807a3.225,3.225,0,0,0,6.449,0c.023-3.2-1.944-6.833-3.172-8.807Z" transform="translate(-4.179 -21.456)" fill="#30169a"/>
      <path id="Trazado_877949" data-name="Trazado 877949" d="M80.214,19.162l-8.254-.739a1.164,1.164,0,0,0-.937.349,52.363,52.363,0,0,1-7.631,6.472,56.065,56.065,0,0,1-9.121,3.743l-.838.291a7.66,7.66,0,0,0,1.5-2.066,3.492,3.492,0,0,0-.349-3.2,3.725,3.725,0,0,0-2.91-1.653,2.782,2.782,0,0,0-.291-1.781,4.074,4.074,0,0,0-2.707-2.218,3.411,3.411,0,0,0-.466-.064,3.265,3.265,0,0,0-.524-2.439,3.7,3.7,0,0,0-3.737-1.269c-2.241.3-5.413,2.538-6.077,3.009-.786.378-6.4,3.1-7.41,3.574h-.029c-5.454,2.561-10.122,4.569-11.059,4.6-.454,0-.582-.14-.629-.2a2.06,2.06,0,0,1-.186-1.292c2.049-1.49,16.129-9.406,17.514-10.035s6.315-3.376,7.887-4.255a5.722,5.722,0,0,1,.733.2,8.772,8.772,0,0,1,2.4,1.7,1.164,1.164,0,0,0,1.636-1.653,10.978,10.978,0,0,0-3.225-2.223,7.946,7.946,0,0,0-1.036-.291,1.164,1.164,0,0,0-.838-.146,19.115,19.115,0,0,0-4.074-.2,8.31,8.31,0,0,1-6.048-2.328c-1.054-.9-1.286-1.746-1.164-2.218a.646.646,0,0,1,.57-.495,10.628,10.628,0,0,1,2.963.349,22.735,22.735,0,0,0,4.232.582,26.059,26.059,0,0,0,4.226-.4,21.455,21.455,0,0,1,4.074-.355l2.078.111a57.771,57.771,0,0,0,6.764.134c1.537-.1,4.3,1.4,5.7,2.375a1.164,1.164,0,0,0,.652.21l16.5.2a1.164,1.164,0,0,0,0-2.328L64,3.021C62.938,2.317,59.6.274,57.112.443A57.526,57.526,0,0,1,50.639.3L48.532.193A23.556,23.556,0,0,0,44.021.6a24.307,24.307,0,0,1-3.859.378A20.581,20.581,0,0,1,36.338.437,11.5,11.5,0,0,0,32.56.07a2.974,2.974,0,0,0-2.421,2.154c-.431,1.525.268,3.254,1.88,4.627a10.836,10.836,0,0,0,7.66,2.864c-1.839,1.013-3.842,2.1-4.581,2.433-.9.413-5.821,3.131-9.627,5.32-8.731,5-8.865,5.3-9.051,5.821a4.395,4.395,0,0,0,.425,3.679,2.87,2.87,0,0,0,2.462,1.164h.134c1.31-.041,5.78-1.956,10.169-3.975a9.313,9.313,0,0,0,2.189,3.8,3.72,3.72,0,0,0,3.021.582c.279,1.519,1.042,3.731,3.114,4.354,1.228.367,3.289-.512,4.767-1.292a6.292,6.292,0,0,0,1.863,2.445,2.8,2.8,0,0,0,1.694.582,5.739,5.739,0,0,0,2.637-.955c.518-.285,1.1-.582,1.822-.931.931-.425,2.491-.966,4.3-1.595,3.236-1.129,7.264-2.532,9.575-3.958a49.5,49.5,0,0,0,7.683-6.438l7.73.693a1.169,1.169,0,1,0,.21-2.328ZM35.29,26.019a3.1,3.1,0,0,1-1.991.2,7.025,7.025,0,0,1-1.577-3.073c3.225-1.519,6.094-2.91,7.218-3.492h.035l.134-.081c1.286-.931,3.812-2.48,5.1-2.648.762-.1,1.321,0,1.542.32a1.234,1.234,0,0,1-.029,1.164,13.638,13.638,0,0,1-2.27,2.328c-.815.751-5.25,3.545-8.16,5.285Zm3.3,4.656c-.949-.285-1.414-1.857-1.566-2.986,1.845-1.129,6.868-4.226,7.974-5.2.466-.413.989-.9,1.467-1.374a1.164,1.164,0,0,0,.291-.14,1.991,1.991,0,0,1,1.385-.332,1.909,1.909,0,0,1,1.123,1.059c.2.373-.087,1.071-.733,1.938a2.666,2.666,0,0,0-.239.308,28.1,28.1,0,0,1-5.629,5.006c-1.612.972-3.545,1.793-4.051,1.711Zm6.094-.3a26.573,26.573,0,0,0,5.605-5.239,1.5,1.5,0,0,1,1.2-.466,1.385,1.385,0,0,1,1.1.611,1.164,1.164,0,0,1,.157,1.112c-.3.8-3.294,3.609-5.954,5.791-.5.221-.611.157-.832,0a4.389,4.389,0,0,1-1.251-1.816Z" transform="translate(-6.769 0)" fill="#30169a"/>
      <path id="Trazado_877950" data-name="Trazado 877950" d="M19.113,98.958H16.494a1.164,1.164,0,1,1,0-2.328h2.619a1.164,1.164,0,1,1,0,2.328Z" transform="translate(-6.407 -40.368)" fill="#30169a"/>
      <path id="Trazado_877951" data-name="Trazado 877951" d="M55.792,88.693a4.232,4.232,0,1,1,4.232-4.232,4.232,4.232,0,0,1-4.232,4.232Zm0-6.141a1.9,1.9,0,1,1,0,.006Z" transform="translate(-21.549 -33.513)" fill="#30169a"/>
      <path id="Trazado_877952" data-name="Trazado 877952" d="M55.792,110.923a4.232,4.232,0,1,1,4.232-4.232,4.232,4.232,0,0,1-4.232,4.232Zm0-6.141a1.891,1.891,0,1,1,0,.023Z" transform="translate(-21.549 -42.804)" fill="#30169a"/>
      <path id="Trazado_877953" data-name="Trazado 877953" d="M96.584,100.1a1.164,1.164,0,0,1-1.164-1.164V90.864a1.164,1.164,0,1,1,2.328,0v8.079A1.164,1.164,0,0,1,96.584,100.1Z" transform="translate(-39.88 -37.471)" fill="#30169a"/>
      <path id="Trazado_877954" data-name="Trazado 877954" d="M88.7,95.94a1.164,1.164,0,0,1-1.164-1.164V90.864a1.164,1.164,0,1,1,2.328,0v3.911A1.164,1.164,0,0,1,88.7,95.94Z" transform="translate(-36.587 -37.471)" fill="#30169a"/>
      <path id="Trazado_877955" data-name="Trazado 877955" d="M80.834,100.1a1.164,1.164,0,0,1-1.164-1.164V90.864a1.164,1.164,0,1,1,2.328,0v8.079A1.164,1.164,0,0,1,80.834,100.1Z" transform="translate(-33.297 -37.471)" fill="#30169a"/>
    </g>
  </g>
</svg>
