<svg xmlns="http://www.w3.org/2000/svg" width="191" height="85.229" viewBox="0 0 191 85.229">
  <g id="Grupo_1101740" data-name="Grupo 1101740" transform="translate(-1230.052 -998)">
    <rect id="Rectángulo_403025" data-name="Rectángulo 403025" width="191" height="81" rx="9" transform="translate(1230.052 1000)" fill="#ebebfd"/>
    <g id="panuelo" transform="translate(1292.094 998)">
      <g id="Grupo_1101739" data-name="Grupo 1101739" transform="translate(0 0)">
        <path id="Trazado_877802" data-name="Trazado 877802" d="M105.528,85.228a1.25,1.25,0,0,0,1.231-1.465,42.631,42.631,0,0,0-3.846-10.536c-2.06-4.4-4.19-8.943-4.19-14.169,0-3.614,1.921-6.3,4.539-8.973,5.816,7.1,10.385,7.383,18.17,1.432a1.249,1.249,0,0,0,.234-1.75c-4-5.231-7.335-7.367-11.361-6.589a24.166,24.166,0,0,0,6.843-17.273,24.957,24.957,0,0,0-7.11-17.779C104.751,2.81,96.957,0,87.5,0a30.109,30.109,0,0,0-5.526.5,1.249,1.249,0,0,0,.46,2.454A27.6,27.6,0,0,1,87.5,2.5c8.779,0,15.962,2.556,20.77,7.391a22.477,22.477,0,0,1,6.383,16.018c0,8-3.374,12.763-7.335,16.8L95.931,12.4a1.249,1.249,0,0,0-2.337.878l11.773,31.333q-.546.518-1.092,1.029-.378.355-.752.707L88.253,26.373a1.248,1.248,0,1,0-1.984,1.516l4.125,5.4a6.538,6.538,0,0,0-1.905,2.238,1.248,1.248,0,1,0,2.217,1.149,4.03,4.03,0,0,1,1.2-1.4l4.481,5.862a13.653,13.653,0,0,1-7.575,4.32,4.592,4.592,0,0,1-3.347-.466A1.248,1.248,0,0,0,83.995,47a6.809,6.809,0,0,0,5.233.913,16.349,16.349,0,0,0,8.709-4.759l3.779,4.944c-3.058,3.076-5.489,6.335-5.489,10.96,0,5.782,2.25,10.584,4.425,15.229A40.165,40.165,0,0,1,104.3,84.2a1.249,1.249,0,0,0,1.228,1.033ZM118.9,50.289c-6.045,4.366-9.066,3.962-13.753-1.837C111.194,44.087,114.215,44.49,118.9,50.289ZM64.675,85.228a1.245,1.245,0,0,0,.9-.384l4.007-4.174a1.248,1.248,0,1,0-1.8-1.729l-4.007,4.174a1.248,1.248,0,0,0,.9,2.113Zm7.639-7.958a1.245,1.245,0,0,0,.9-.384l2.648-2.759a1.248,1.248,0,0,0,.348-.865V56.84A1.248,1.248,0,0,0,75.053,55.6c-3.044-.222-11.523-1.236-14.162-3.238-1.113-.844-1.836-4.659-1.543-10.748a11.67,11.67,0,0,0,6.475-.549,1.248,1.248,0,1,0-.893-2.332,9.042,9.042,0,0,1-5.411.35q.162-1.89.446-4.008a1.248,1.248,0,0,0-.3-.992c-1.7-1.925-2.159-2.729-2.159-3.743,0-.6,1.507-1.586,3.415-2.835.921-.6,1.964-1.286,3.162-2.125a1.248,1.248,0,0,0-1.433-2.045c-1.165.816-2.191,1.488-3.1,2.08-2.834,1.855-4.544,2.974-4.544,4.924,0,1.911.979,3.308,2.408,4.964-.673,5.237-1.617,16.331,1.966,19.049,3.134,2.378,11.2,3.347,14.332,3.641V72.761l-2.3,2.4a1.248,1.248,0,0,0,.9,2.113ZM71.141,30.2c.965,0,2.709-.126,3.55-.966a1.248,1.248,0,0,0-1.732-1.8,6.411,6.411,0,0,1-3.636,0,1.248,1.248,0,0,0-1.732,1.8C68.432,30.071,70.177,30.2,71.141,30.2Zm-1.785-2.733h0Zm3.57,0h0Zm11.232-3.143a1.249,1.249,0,0,0,.991-2.007L73.383,6.919a18.824,18.824,0,0,1,4.574-2.659,1.248,1.248,0,1,0-.948-2.31,20.844,20.844,0,0,0-6.1,3.794,1.255,1.255,0,0,0-.161.148,18.066,18.066,0,0,0-5.825,13.492,4.308,4.308,0,0,1-.077.812,1.248,1.248,0,1,0,2.452.473,6.81,6.81,0,0,0,.122-1.285q0-.119,0-.237c2.781-.158,7.092,1.041,8.376,2.209a1.248,1.248,0,1,0,1.68-1.847c-1.817-1.653-6.493-2.931-9.845-2.861a15.2,15.2,0,0,1,2.606-6.424,15.473,15.473,0,0,1,1.3-1.6L83.166,23.83A1.247,1.247,0,0,0,84.159,24.321Z" transform="translate(-55.008 0)" fill="#30169a"/>
      </g>
    </g>
  </g>
</svg>
