<svg xmlns="http://www.w3.org/2000/svg" width="184.079" height="184.079" viewBox="0 0 184.079 184.079">
  <g id="Grupo_1101828" data-name="Grupo 1101828" transform="translate(-837 6157)">
    <rect id="Rectángulo_403048" data-name="Rectángulo 403048" width="184.079" height="184.079" rx="92" transform="translate(837 -6157)" fill="#59836b"/>
    <g id="outline" transform="translate(850 -6143.995)">
      <path id="Trazado_878002" data-name="Trazado 878002" d="M39.124,372.148h79.882a23.15,23.15,0,0,0,23.124-23.124,2.1,2.1,0,0,0-2.1-2.1H120.746a6.306,6.306,0,1,0-11.89,0h-28.3a14.715,14.715,0,1,0-28.2,0H18.1a2.1,2.1,0,0,0-2.1,2.1,23.15,23.15,0,0,0,23.124,23.124ZM112.7,344.821a2.1,2.1,0,1,1,2.1,2.1,2.1,2.1,0,0,1-2.1-2.1Zm-38.969,2.1a8.353,8.353,0,0,0,.865-2.1H76.75a10.48,10.48,0,0,1-.667,2.1Zm-15.687-6.306H56.152a10.446,10.446,0,0,1,1.534-3.69l1.524,1.524a8.361,8.361,0,0,0-.906,2.184A2.151,2.151,0,0,0,58.043,340.616Zm18.708,0H74.594a8.359,8.359,0,0,0-.9-2.166l1.524-1.524a10.447,10.447,0,0,1,1.536,3.69Zm-6.031-5.139a8.359,8.359,0,0,0-2.166-.9v-2.157a10.446,10.446,0,0,1,3.69,1.534Zm-6.37-.9a8.359,8.359,0,0,0-2.166.9l-1.524-1.524a10.446,10.446,0,0,1,3.69-1.534Zm-2.1,8.142a4.2,4.2,0,1,1,4.2,4.2A4.2,4.2,0,0,1,62.247,342.718Zm-6.093,2.1h1.889a2.156,2.156,0,0,0,.263-.018,8.351,8.351,0,0,0,.868,2.12H56.821a10.479,10.479,0,0,1-.667-2.1Zm81.655,6.306a18.947,18.947,0,0,1-18.8,16.817H39.124a18.947,18.947,0,0,1-18.8-16.817Z" transform="translate(0 -230.024)" fill="#fff"/>
      <path id="Trazado_878003" data-name="Trazado 878003" d="M82.1,436.2h18.919a2.1,2.1,0,0,0,0-4.2H82.1a2.1,2.1,0,1,0,0,4.2Z" transform="translate(-47.183 -306.693)" fill="#fff"/>
      <path id="Trazado_878004" data-name="Trazado 878004" d="M186.1,436.2h4.2a2.1,2.1,0,0,0,0-4.2h-4.2a2.1,2.1,0,1,0,0,4.2Z" transform="translate(-123.855 -306.693)" fill="#fff"/>
      <path id="Trazado_878005" data-name="Trazado 878005" d="M312.612,193.78a18.105,18.105,0,0,0-3.843,8.506,13.275,13.275,0,0,0-2.984,3.7c-2.167,3.94-2.427,7.727-.764,10.362a.691.691,0,0,1-.123.17c-.019.019-.038.038-.056.058l-10.43,11.258a4.959,4.959,0,0,0,6.984,7.034l10.729-9.832c.023-.021.045-.042.066-.063a.755.755,0,0,1,.661-.2c.2.033.4.061.6.085,2.8,1.951,7.089,1.88,10.957-.247a13.278,13.278,0,0,0,3.7-2.984,18.08,18.08,0,0,0,8.506-3.843c4.1-3.2,6.543-7.365,6.449-10.784a10.444,10.444,0,0,0,1.892-2.726,10.082,10.082,0,0,0,.819-6.414c1.254-4.784.572-8.779-1.943-11.294s-6.51-3.2-11.294-1.944a10.082,10.082,0,0,0-6.414.819,10.454,10.454,0,0,0-2.726,1.892C319.978,187.238,315.811,189.682,312.612,193.78Zm11.1-2.193a2.1,2.1,0,0,0,2.131-.716,6.123,6.123,0,0,1,2.1-1.64,5.822,5.822,0,0,1,4.069-.414,2.1,2.1,0,0,0,1.148-.006c3.489-1.01,6.224-.752,7.7.726s1.736,4.213.726,7.7a2.106,2.106,0,0,0-.006,1.148,5.823,5.823,0,0,1-.414,4.069,6.122,6.122,0,0,1-1.64,2.1,2.1,2.1,0,0,0-.716,2.131c.409,1.673-1.268,5.043-4.781,7.786a13.193,13.193,0,0,1-7.074,3.036,2.1,2.1,0,0,0-1.646.882,8.762,8.762,0,0,1-2.925,2.538c-2.112,1.162-5.2,1.665-6.749.307a2.1,2.1,0,0,0-1.261-.516,7.682,7.682,0,0,1-.82-.091,4.962,4.962,0,0,0-4.3,1.337l-10.71,9.812a.755.755,0,0,1-1.057-1.077L307.9,219.457a5,5,0,0,0,1.4-3.81,2.1,2.1,0,0,0-.516-1.258c-1.055-1.207-.788-3.71.679-6.377a8.76,8.76,0,0,1,2.538-2.926,2.1,2.1,0,0,0,.882-1.645,13.19,13.19,0,0,1,3.036-7.074c2.743-3.513,6.112-5.19,7.786-4.78Z" transform="translate(-204.26 -123.864)" fill="#fff"/>
      <path id="Trazado_878006" data-name="Trazado 878006" d="M367.658,231.352l-3.745,3.745a2.1,2.1,0,1,0,2.973,2.973l3.745-3.745,5.685.631a2.146,2.146,0,0,0,.235.013,2.1,2.1,0,0,0,.23-4.192l-2.342-.26,2.057-2.057,6.329,1.266a2.1,2.1,0,1,0,.825-4.123l-3.58-.716,2.344-2.344,3.7.853a2.1,2.1,0,0,0,.946-4.1l-1.135-.263,3.264-3.264a2.1,2.1,0,0,0-2.973-2.973l-3.264,3.264-.263-1.135a2.1,2.1,0,1,0-4.1.946l.853,3.7-2.345,2.344-.716-3.581a2.1,2.1,0,1,0-4.123.825l1.266,6.329-2.057,2.057-.26-2.342a2.1,2.1,0,1,0-4.178.464Z" transform="translate(-256.038 -144.637)" fill="#fff"/>
      <path id="Trazado_878007" data-name="Trazado 878007" d="M36.761,303.857a10.442,10.442,0,0,0,6.38,4.9,10.511,10.511,0,1,0,3.613-20.624,8.934,8.934,0,0,0,.4-3.232l-.029-.5a2.1,2.1,0,0,0-4.2.25l.03.5a4.682,4.682,0,0,1-.77,2.873l-1.853-3.214a2.1,2.1,0,1,0-3.642,2.1l1.854,3.214a4.681,4.681,0,0,1-2.873-.773l-.414-.275a2.1,2.1,0,1,0-2.318,3.508l.414.273a8.942,8.942,0,0,0,3,1.277,10.5,10.5,0,0,0,.4,9.723Zm14.568-8.4a6.306,6.306,0,0,1-10.926,6.3h0a6.306,6.306,0,0,1,10.926-6.3Z" transform="translate(-11.795 -196.423)" fill="#fff"/>
      <path id="Trazado_878008" data-name="Trazado 878008" d="M307.045,114.359a2.1,2.1,0,0,0-2.171,2.031l-.017.5a8.942,8.942,0,0,0,.488,3.227,10.5,10.5,0,0,0-8.08,5.429h0a10.511,10.511,0,1,0,18.623.289,8.934,8.934,0,0,0,2.971-1.351l.407-.284a2.1,2.1,0,1,0-2.409-3.445l-.406.284a4.683,4.683,0,0,1-2.851.847l1.769-3.261a2.1,2.1,0,1,0-3.7-2l-1.769,3.262a4.681,4.681,0,0,1-.845-2.852l.017-.5A2.1,2.1,0,0,0,307.045,114.359Zm5,19.2a6.307,6.307,0,0,1-11.087-6.014h0a6.314,6.314,0,0,1,8.549-2.538h0A6.314,6.314,0,0,1,312.048,133.56Z" transform="translate(-206.418 -72.516)" fill="#fff"/>
      <path id="Trazado_878009" data-name="Trazado 878009" d="M28.9,41.679a14.686,14.686,0,0,0,3.057,2.105A16.686,16.686,0,0,0,36.9,51.654a16.917,16.917,0,0,0,2.707,1.976A18.917,18.917,0,0,0,57.492,66.447q.536,0,1.077-.03a18.773,18.773,0,0,0,11.559-4.79l7.141,6.387a2.1,2.1,0,1,0,2.8-3.134L72.93,58.494a18.916,18.916,0,0,0-11.341-29.44,16.918,16.918,0,0,0-2.264-2.47,16.689,16.689,0,0,0-8.371-4.039A14.715,14.715,0,1,0,28.9,41.678ZM30.879,23.7a10.442,10.442,0,0,1,7.249-3.487c.2-.011.4-.017.6-.017a10.511,10.511,0,0,1,9.131,5.328,2.1,2.1,0,0,0,1.606,1.054,12.517,12.517,0,0,1,7.06,3.136,12.66,12.66,0,0,1,2.09,2.4,2.1,2.1,0,0,0,1.395.9,14.715,14.715,0,0,1,9.767,22.644l-5.317-4.756.912-6.39a2.1,2.1,0,1,0-4.162-.594l-.516,3.615-4.068-3.638.912-6.39a2.1,2.1,0,0,0-4.162-.594l-.516,3.614L48.787,36.9l.912-6.39a2.1,2.1,0,0,0-4.162-.594l-.516,3.615-4.907-4.388a2.1,2.1,0,1,0-2.8,3.133l4.907,4.388-3.535.914a2.1,2.1,0,1,0,1.053,4.07l6.249-1.616,4.068,3.638-3.536.915a2.1,2.1,0,1,0,1.053,4.07l6.249-1.616,4.069,3.64-3.535.914a2.1,2.1,0,1,0,1.053,4.07l6.249-1.616,5.317,4.756a14.713,14.713,0,0,1-23.589-7.189,2.1,2.1,0,0,0-1.054-1.285,12.649,12.649,0,0,1-2.622-1.81,12.517,12.517,0,0,1-3.9-6.67,2.1,2.1,0,0,0-1.226-1.479,10.511,10.511,0,0,1-3.7-16.669Z" transform="translate(-5.896)" fill="#fff"/>
      <path id="Trazado_878010" data-name="Trazado 878010" d="M242.134,36.835l10.495,7a2.1,2.1,0,0,0,2.915-.583l3.217-4.825A9.46,9.46,0,0,0,264,21.094l-5.246-3.5a9.46,9.46,0,0,0-13.982,11.5l-3.218,4.826a2.1,2.1,0,0,0,.583,2.915Zm6.806-6.42a2.1,2.1,0,0,0,.055-2.245,5.255,5.255,0,0,1,7.423-7.076l5.247,3.5a5.256,5.256,0,0,1-3.677,9.574,2.1,2.1,0,0,0-2.052.914l-2.726,4.088-7-4.663Z" transform="translate(-166.023 -0.009)" fill="#fff"/>
      <path id="Trazado_878011" data-name="Trazado 878011" d="M218.2,243.96a2.1,2.1,0,0,0,.946,1.3l10.758,6.584a2.1,2.1,0,0,0,2.89-.7l3.028-4.947a9.459,9.459,0,0,0,4.561-17.52l-5.379-3.291a9.459,9.459,0,0,0-13.527,12.032l-3.028,4.947A2.1,2.1,0,0,0,218.2,243.96Zm7.5-5.377a2.1,2.1,0,0,0-.032-2.246,5.256,5.256,0,0,1,7.143-7.359l5.379,3.292a5.256,5.256,0,0,1-3.3,9.709,2.105,2.105,0,0,0-2.015.993l-2.565,4.191-7.172-4.388Z" transform="translate(-149.028 -153.348)" fill="#fff"/>
      <path id="Trazado_878012" data-name="Trazado 878012" d="M246.306,140.613A6.306,6.306,0,1,0,240,134.306,6.306,6.306,0,0,0,246.306,140.613Zm0-8.409a2.1,2.1,0,1,1-2.1,2.1A2.1,2.1,0,0,1,246.306,132.2Z" transform="translate(-165.14 -82.574)" fill="#fff"/>
      <path id="Trazado_878013" data-name="Trazado 878013" d="M46.968,211.414a12.249,12.249,0,0,0,7.131,2.3c.071,0,.142,0,.213,0l3.651-.065a2.1,2.1,0,0,0,1.971-2.727l-1.086-3.486a12.248,12.248,0,0,0-4.493-6.249,6.3,6.3,0,0,0-5.877-.8l-.022.008a6.306,6.306,0,0,0-1.487,11.02Zm2.943-7.076.015-.006a2.1,2.1,0,0,1,1.965.266,8.014,8.014,0,0,1,2.942,4.09l.252.81-.848.015a8.032,8.032,0,0,1-4.807-1.507,2.1,2.1,0,0,1,.482-3.668Z" transform="translate(-20.904 -135.65)" fill="#fff"/>
      <path id="Trazado_878014" data-name="Trazado 878014" d="M124.613,249.226A12.613,12.613,0,1,0,112,236.613,12.613,12.613,0,0,0,124.613,249.226Zm0-21.021a8.409,8.409,0,1,1-8.409,8.409,8.409,8.409,0,0,1,8.409-8.409Z" transform="translate(-70.774 -153.348)" fill="#fff"/>
      <path id="Trazado_878015" data-name="Trazado 878015" d="M138.1,258.511a2.1,2.1,0,0,0,.939-.223l3.264-1.632,3.264,1.632a2.1,2.1,0,1,0,1.88-3.76l-3.042-1.521V250.1a2.1,2.1,0,0,0-4.2,0v2.905l-3.042,1.521a2.1,2.1,0,0,0,.942,3.982Z" transform="translate(-88.468 -171.042)" fill="#fff"/>
    </g>
  </g>
</svg>
