<svg xmlns="http://www.w3.org/2000/svg" width="89" height="89" viewBox="0 0 89 89">
  <g id="Grupo_1101853" data-name="Grupo 1101853" transform="translate(-475.052 -6706)">
    <rect id="Rectángulo_400898" data-name="Rectángulo 400898" width="89" height="89" rx="44.5" transform="translate(475.052 6706)" fill="#fff"/>
    <g id="tarro" transform="translate(492.052 6716)">
      <path id="Trazado_878245" data-name="Trazado 878245" d="M49.353,14.751a1.114,1.114,0,0,0-.063-.313A2.825,2.825,0,0,0,50.5,12.272V6.092C50.5,1.274,35.485,0,27.546,0S4.591,1.274,4.591,6.092v6.18A2.825,2.825,0,0,0,5.8,14.438a1.1,1.1,0,0,0-.063.313A21.71,21.71,0,0,1,3.014,25.267,24,24,0,0,0,0,36.9V59.683c0,5.964,14.192,9.182,27.546,9.182s27.546-3.218,27.546-9.182V36.9a24,24,0,0,0-3.014-11.63A21.713,21.713,0,0,1,49.353,14.751ZM6.886,12.272V8.978c4.511,2.467,14.625,3.205,20.66,3.205S43.694,11.446,48.2,8.978v3.294c-.061,1.135-7.164,3.8-20.659,3.8S6.948,13.408,6.886,12.272ZM27.546,2.3c13.48,0,20.59,2.661,20.659,3.8-.069,1.135-7.179,3.8-20.659,3.8S6.954,7.227,6.886,6.092C6.954,4.957,14.064,2.3,27.546,2.3ZM52.8,59.683c0,2.876-9.607,6.886-25.25,6.886S2.3,62.559,2.3,59.683V36.9A21.707,21.707,0,0,1,5.02,26.381,23.994,23.994,0,0,0,8,15.69c4.9,2.044,13.964,2.674,19.542,2.674s14.639-.63,19.542-2.674a24,24,0,0,0,2.984,10.691A21.713,21.713,0,0,1,52.8,36.9Zm0,0" fill="#30169a"/>
      <path id="Trazado_878246" data-name="Trazado 878246" d="M112.878,247.465H89.923a4.6,4.6,0,0,0-4.591,4.591v12.625a4.6,4.6,0,0,0,4.591,4.591h22.955a4.6,4.6,0,0,0,4.591-4.591V252.056A4.6,4.6,0,0,0,112.878,247.465Zm2.3,17.216a2.3,2.3,0,0,1-2.3,2.3H89.923a2.3,2.3,0,0,1-2.3-2.3V252.056a2.3,2.3,0,0,1,2.3-2.3h22.955a2.3,2.3,0,0,1,2.3,2.3Zm0,0" transform="translate(-73.855 -214.181)" fill="#30169a"/>
      <path id="Trazado_878247" data-name="Trazado 878247" d="M79.1,146.214a1.148,1.148,0,1,1-1.148-1.148A1.148,1.148,0,0,1,79.1,146.214Zm0,0" transform="translate(-66.471 -125.555)" fill="#30169a"/>
      <path id="Trazado_878248" data-name="Trazado 878248" d="M103.491,155.84a71.169,71.169,0,0,0,25.71,0,1.148,1.148,0,1,0-.459-2.249,68.891,68.891,0,0,1-24.791,0,1.148,1.148,0,0,0-.459,2.249Zm0,0" transform="translate(-88.8 -132.908)" fill="#30169a"/>
      <path id="Trazado_878249" data-name="Trazado 878249" d="M35.281,298.668a1.148,1.148,0,0,0-1.148,1.147v16.069a1.148,1.148,0,0,0,2.3,0V299.815A1.148,1.148,0,0,0,35.281,298.668Zm0,0" transform="translate(-29.542 -258.497)" fill="#30169a"/>
      <path id="Trazado_878250" data-name="Trazado 878250" d="M35.72,264.659a1.167,1.167,0,0,0-1.251.241,1.07,1.07,0,0,0-.241.379,1.086,1.086,0,0,0,0,.872,1.037,1.037,0,0,0,.62.62,1.15,1.15,0,0,0,.436.092,1.189,1.189,0,0,0,.815-.333,1.344,1.344,0,0,0,.241-.379,1.14,1.14,0,0,0,.092-.436,1.208,1.208,0,0,0-.333-.815A1.335,1.335,0,0,0,35.72,264.659Zm0,0" transform="translate(-29.545 -228.988)" fill="#30169a"/>
    </g>
  </g>
</svg>
