<svg xmlns="http://www.w3.org/2000/svg" width="66" height="66" viewBox="0 0 66 66">
  <g id="Grupo_1101741" data-name="Grupo 1101741" transform="translate(-636.052 -1194)">
    <rect id="Rectángulo_403123" data-name="Rectángulo 403123" width="66" height="66" rx="33" transform="translate(636.052 1194)" fill="#30169a"/>
    <g id="cancer" transform="translate(643.053 1201)">
      <path id="Trazado_877594" data-name="Trazado 877594" d="M77.417,69a.753.753,0,0,1-.6-.3,5.035,5.035,0,0,1-.926-3.292,4.3,4.3,0,0,0-.014-.491,2.193,2.193,0,0,1-.685-1.629,2.379,2.379,0,0,1,4.06-1.682,4.867,4.867,0,0,1,1.4,3.829,4.243,4.243,0,0,0,.014.492.739.739,0,1,1-.846,1.212,1.671,1.671,0,0,1-.232-.2c-.432-.432-.449-.8-.443-1.512a3.406,3.406,0,0,0-.954-2.756A.871.871,0,1,0,76.951,63.9c.431.429.448.794.444,1.512a3.565,3.565,0,0,0,.623,2.378.754.754,0,0,1-.6,1.207Z" transform="translate(-67.632 -54.783)" fill="#fff"/>
      <path id="Trazado_877595" data-name="Trazado 877595" d="M147.864,12.555a.754.754,0,0,1-.447-1.362,17.962,17.962,0,0,1,7.51-3.205,4.691,4.691,0,0,1-.267-1.6,4.864,4.864,0,0,1,1.723-3.7,4.287,4.287,0,0,0,.336-.356A2.328,2.328,0,0,1,159.069,0a2.381,2.381,0,0,1,2.378,2.378,4.864,4.864,0,0,1-1.723,3.7,4.231,4.231,0,0,0-.336.355c.041-.026.256.185.336.265a6.655,6.655,0,0,1,1.031,1.223c.487.074.967.166,1.431.276a.754.754,0,0,1-.348,1.467,16.309,16.309,0,0,0-1.652-.3.754.754,0,0,1-.574-.405,4.594,4.594,0,0,0-.945-1.186c-.513-.506-.758-.776-.758-1.385s.246-.88.757-1.384a3.4,3.4,0,0,0,1.274-2.623.871.871,0,1,0-1.741,0c0,.61-.245.879-.756,1.383a3.4,3.4,0,0,0-1.274,2.623,3.056,3.056,0,0,0,.53,1.775.754.754,0,0,1-.538,1.173,16.446,16.446,0,0,0-7.85,3.076A.75.75,0,0,1,147.864,12.555Z" transform="translate(-132.324)" fill="#fff"/>
      <path id="Trazado_877596" data-name="Trazado 877596" d="M63.283,357.308a2.379,2.379,0,0,1-1.681-4.061,4.867,4.867,0,0,1,3.83-1.4,4.234,4.234,0,0,0,.491-.014c-.047-.01-.049-.312-.05-.425a6.657,6.657,0,0,1,.136-1.6q-.073-.1-.145-.2a.754.754,0,0,1,1.228-.875q.165.231.339.456a.754.754,0,0,1,.121.694,4.608,4.608,0,0,0-.17,1.512c0,.72-.013,1.084-.445,1.515s-.795.447-1.511.442a3.406,3.406,0,0,0-2.756.954.871.871,0,0,0,1.232,1.232c.429-.431.794-.449,1.512-.444a3.4,3.4,0,0,0,2.756-.953,3.063,3.063,0,0,0,.882-1.631.754.754,0,0,1,1.209-.448,16.552,16.552,0,0,0,2.076,1.406.754.754,0,0,1-.748,1.309c-.482-.276-.953-.575-1.407-.893a4.7,4.7,0,0,1-.946,1.324,4.861,4.861,0,0,1-3.832,1.394,4.275,4.275,0,0,0-.489.014A2.242,2.242,0,0,1,63.283,357.308Z" transform="translate(-54.785 -313.404)" fill="#fff"/>
      <path id="Trazado_877597" data-name="Trazado 877597" d="M385.6,386.492a2.371,2.371,0,0,1-1.682-.7,4.867,4.867,0,0,1-1.4-3.829v-.2a.754.754,0,0,1,1.508,0v.208a3.4,3.4,0,0,0,.954,2.751.871.871,0,0,0,1.232-1.232c-.431-.429-.448-.794-.444-1.512a4.315,4.315,0,0,0-.231-1.681.754.754,0,1,1,1.4-.554,5.736,5.736,0,0,1,.336,2.245,4.269,4.269,0,0,0,.014.488,2.329,2.329,0,0,1-.012,3.311A2.371,2.371,0,0,1,385.6,386.492Z" transform="translate(-344.074 -341.153)" fill="#fff"/>
      <path id="Trazado_877598" data-name="Trazado 877598" d="M447.189,229.1a4.864,4.864,0,0,1-3.7-1.723,4.22,4.22,0,0,0-.354-.335.721.721,0,0,1-.524-.9.78.78,0,0,1,.941-.544,2.156,2.156,0,0,1,1.011.717,3.4,3.4,0,0,0,2.623,1.274.871.871,0,0,0,0-1.741c-.61,0-.879-.246-1.383-.756a3.457,3.457,0,0,0-2.389-1.267.754.754,0,1,1,.093-1.5,4.921,4.921,0,0,1,3.367,1.71,4.312,4.312,0,0,0,.359.339,2.328,2.328,0,0,1,2.332,2.35A2.381,2.381,0,0,1,447.189,229.1Z" transform="translate(-398.108 -199.98)" fill="#fff"/>
      <path id="Trazado_877599" data-name="Trazado 877599" d="M380.407,89.727a.754.754,0,0,1-.729-.563A16.33,16.33,0,0,0,376.8,83.3a.754.754,0,0,1-.12-.693,4.6,4.6,0,0,0,.17-1.511c0-.72.013-1.085.446-1.516s.794-.447,1.511-.442a3.407,3.407,0,0,0,2.756-.954.871.871,0,1,0-1.232-1.232c-.429.431-.794.448-1.512.444a3.937,3.937,0,0,0-1.962.359.754.754,0,1,1-.7-1.335,5.346,5.346,0,0,1,2.67-.532,4.3,4.3,0,0,0,.492-.014,2.193,2.193,0,0,1,1.629-.685,2.379,2.379,0,0,1,1.682,4.06,4.867,4.867,0,0,1-3.829,1.4,4.243,4.243,0,0,0-.492.014c.047.01.049.311.05.425a6.655,6.655,0,0,1-.136,1.6,17.815,17.815,0,0,1,2.919,6.1.754.754,0,0,1-.73.945Z" transform="translate(-337.983 -67.631)" fill="#fff"/>
      <path id="Trazado_877600" data-name="Trazado 877600" d="M406.858,276.831a.754.754,0,0,1-.691-1.054,16.369,16.369,0,0,0,1.22-4.427.754.754,0,1,1,1.5.193,17.878,17.878,0,0,1-1.333,4.835A.754.754,0,0,1,406.858,276.831Z" transform="translate(-365.288 -243.485)" fill="#fff"/>
      <path id="Trazado_877601" data-name="Trazado 877601" d="M327.923,390.984a.754.754,0,0,1-.346-1.424,16.421,16.421,0,0,0,2.042-1.249.754.754,0,0,1,.878,1.225,17.943,17.943,0,0,1-2.23,1.364A.751.751,0,0,1,327.923,390.984Z" transform="translate(-294.286 -349.155)" fill="#fff"/>
      <path id="Trazado_877602" data-name="Trazado 877602" d="M224.618,423.794a2.381,2.381,0,0,1-2.378-2.378,4.865,4.865,0,0,1,1.723-3.7,4.3,4.3,0,0,0,.336-.356.712.712,0,0,1,.675-.779.769.769,0,0,1,.8.723c0,.021,0,.082,0,.1,0,.609-.245.879-.756,1.383a3.4,3.4,0,0,0-1.274,2.624.87.87,0,0,0,1.741,0c0-.609.245-.878.755-1.383a3.4,3.4,0,0,0,1.275-2.623,3.059,3.059,0,0,0-.529-1.776.754.754,0,0,1,.538-1.172,16.472,16.472,0,0,0,2.541-.5.754.754,0,1,1,.405,1.452c-.56.156-1.134.286-1.714.388a4.694,4.694,0,0,1,.267,1.6,4.864,4.864,0,0,1-1.723,3.7,4.29,4.29,0,0,0-.336.356A2.329,2.329,0,0,1,224.618,423.794Z" transform="translate(-199.904 -372.333)" fill="#fff"/>
      <path id="Trazado_877603" data-name="Trazado 877603" d="M8.939,204.543a.754.754,0,0,1-.733-.58c-.083-.35-.156-.7-.218-1.059a4.69,4.69,0,0,1-1.6.268,4.864,4.864,0,0,1-3.7-1.723,4.284,4.284,0,0,0-.356-.336A2.329,2.329,0,0,1,0,198.762a2.381,2.381,0,0,1,2.378-2.378,4.864,4.864,0,0,1,3.7,1.723,4.231,4.231,0,0,0,.355.336c-.026-.041.185-.255.265-.336a6.658,6.658,0,0,1,1.223-1.031,17.974,17.974,0,0,1,.743-3.068.754.754,0,0,1,1.428.483,16.462,16.462,0,0,0-.729,3.153.754.754,0,0,1-.405.575,4.594,4.594,0,0,0-1.186.945c-.506.513-.776.758-1.385.758s-.88-.246-1.384-.757a3.4,3.4,0,0,0-2.623-1.274.871.871,0,1,0,0,1.741c.61,0,.879.246,1.383.756a3.4,3.4,0,0,0,2.623,1.274,3.056,3.056,0,0,0,1.775-.53.754.754,0,0,1,1.173.537,16.67,16.67,0,0,0,.341,1.943.754.754,0,0,1-.734.928Z" transform="translate(0 -174.047)" fill="#fff"/>
      <path id="Trazado_877604" data-name="Trazado 877604" d="M279.96,75.78a6.4,6.4,0,0,1-.757-12.755.754.754,0,0,1,.177,1.5,4.892,4.892,0,1,0,2.951.578.754.754,0,1,1,.731-1.318,6.4,6.4,0,0,1-3.1,12Z" transform="translate(-246.066 -56.685)" fill="#fff"/>
      <path id="Trazado_877605" data-name="Trazado 877605" d="M82.876,120.143a.754.754,0,0,1-.042-1.506,4.773,4.773,0,1,0-2.9-.778.754.754,0,0,1-.83,1.259,6.281,6.281,0,1,1,3.812,1.025Z" transform="translate(-68.614 -96.776)" fill="#fff"/>
      <path id="Elipse_11518" data-name="Elipse 11518" d="M-1.228-7.5A6.279,6.279,0,0,1,5.044-1.228,6.279,6.279,0,0,1-1.228,5.044,6.279,6.279,0,0,1-7.5-1.228,6.279,6.279,0,0,1-1.228-7.5Zm0,11.036A4.77,4.77,0,0,0,3.536-1.228,4.77,4.77,0,0,0-1.228-5.992,4.77,4.77,0,0,0-5.992-1.228,4.77,4.77,0,0,0-1.228,3.536Z" transform="translate(23.887 41.324)" fill="#fff"/>
      <path id="Elipse_11519" data-name="Elipse 11519" d="M-2.129-7.5A5.378,5.378,0,0,1,3.243-2.129,5.378,5.378,0,0,1-2.129,3.243,5.378,5.378,0,0,1-7.5-2.129,5.378,5.378,0,0,1-2.129-7.5Zm0,9.235A3.868,3.868,0,0,0,1.735-2.129,3.868,3.868,0,0,0-2.129-5.992,3.868,3.868,0,0,0-5.992-2.129,3.868,3.868,0,0,0-2.129,1.735Z" transform="translate(40.641 38.18)" fill="#fff"/>
      <path id="Elipse_11520" data-name="Elipse 11520" d="M-3.431-7.5A4.073,4.073,0,0,1,.637-3.431,4.073,4.073,0,0,1-3.431.637,4.073,4.073,0,0,1-7.5-3.431,4.073,4.073,0,0,1-3.431-7.5Zm0,6.63A2.564,2.564,0,0,0-.87-3.431,2.564,2.564,0,0,0-3.431-5.992,2.564,2.564,0,0,0-5.992-3.431,2.564,2.564,0,0,0-3.431-.87Z" transform="translate(13.794 36.168)" fill="#fff"/>
      <path id="Elipse_11521" data-name="Elipse 11521" d="M-3.431-7.5A4.073,4.073,0,0,1,.637-3.431,4.073,4.073,0,0,1-3.431.637,4.073,4.073,0,0,1-7.5-3.431,4.073,4.073,0,0,1-3.431-7.5Zm0,6.63A2.564,2.564,0,0,0-.87-3.431,2.564,2.564,0,0,0-3.431-5.992,2.564,2.564,0,0,0-5.992-3.431,2.564,2.564,0,0,0-3.431-.87Z" transform="translate(45.858 28.087)" fill="#fff"/>
      <path id="Elipse_11522" data-name="Elipse 11522" d="M-3.431-7.5A4.073,4.073,0,0,1,.637-3.431,4.073,4.073,0,0,1-3.431.637,4.073,4.073,0,0,1-7.5-3.431,4.073,4.073,0,0,1-3.431-7.5Zm0,6.63A2.564,2.564,0,0,0-.87-3.431,2.564,2.564,0,0,0-3.431-5.992,2.564,2.564,0,0,0-5.992-3.431,2.564,2.564,0,0,0-3.431-.87Z" transform="translate(32.222 27.026)" fill="#fff"/>
      <path id="Elipse_11523" data-name="Elipse 11523" d="M-4.716-7.5A2.788,2.788,0,0,1-1.931-4.716,2.788,2.788,0,0,1-4.716-1.931,2.788,2.788,0,0,1-7.5-4.716,2.788,2.788,0,0,1-4.716-7.5Zm0,4.061A1.278,1.278,0,0,0-3.439-4.716,1.278,1.278,0,0,0-4.716-5.992,1.278,1.278,0,0,0-5.992-4.716,1.278,1.278,0,0,0-4.716-3.439Z" transform="translate(22.891 32.477)" fill="#fff"/>
      <path id="Elipse_11524" data-name="Elipse 11524" d="M-5.223-7.5A2.279,2.279,0,0,1-2.947-5.223,2.279,2.279,0,0,1-5.223-2.947,2.279,2.279,0,0,1-7.5-5.223,2.279,2.279,0,0,1-5.223-7.5Zm0,3.046a.77.77,0,0,0,.769-.769.77.77,0,0,0-.769-.769.77.77,0,0,0-.769.769A.77.77,0,0,0-5.223-4.454Z" transform="translate(28.856 19.006)" fill="#fff"/>
      <path id="Elipse_11525" data-name="Elipse 11525" d="M-5.223-7.5A2.279,2.279,0,0,1-2.947-5.223,2.279,2.279,0,0,1-5.223-2.947,2.279,2.279,0,0,1-7.5-5.223,2.279,2.279,0,0,1-5.223-7.5Zm0,3.046a.77.77,0,0,0,.769-.769.77.77,0,0,0-.769-.769.77.77,0,0,0-.769.769A.77.77,0,0,0-5.223-4.454Z" transform="translate(35.499 37.183)" fill="#fff"/>
      <path id="Línea_623" data-name="Línea 623" transform="translate(36.293 22.16)" fill="#fff"/>
      <path id="Línea_624" data-name="Línea 624" transform="translate(24.515 30.508)" fill="#fff"/>
      <path id="Línea_625" data-name="Línea 625" transform="translate(21.652 22.16)" fill="#fff"/>
      <path id="Línea_626" data-name="Línea 626" transform="translate(16.511 34.017)" fill="#fff"/>
    </g>
  </g>
</svg>
