<svg xmlns="http://www.w3.org/2000/svg" xmlns:xlink="http://www.w3.org/1999/xlink" width="89" height="89" viewBox="0 0 89 89">
  <defs>
    <clipPath id="clip-path">
      <path id="path2925" d="M0-682.665H59.257v59.257H0Z" transform="translate(0 682.665)" fill="none"/>
    </clipPath>
  </defs>
  <g id="Grupo_1102043" data-name="Grupo 1102043" transform="translate(-1227.714 -2502.408)">
    <rect id="Rectángulo_400898" data-name="Rectángulo 400898" width="89" height="89" rx="44.5" transform="translate(1227.714 2502.408)" fill="#fff"/>
    <g id="g2919" transform="translate(1242.627 3199.987)">
      <g id="g2921" transform="translate(0 -682.665)">
        <g id="g2923" clip-path="url(#clip-path)">
          <g id="g2929" transform="translate(5.555 9.622)">
            <path id="path2931" d="M6.342-174.009a1.157,1.157,0,0,1-1.157-1.157v-7.982a2.635,2.635,0,0,0-2.079-2.566A4.969,4.969,0,0,1-.7-189.5H-5.14a4.967,4.967,0,0,1-3.8,3.787,2.635,2.635,0,0,0-2.078,2.565v7.983a1.157,1.157,0,0,1-1.157,1.157,1.157,1.157,0,0,1-1.157-1.157v-7.983a4.961,4.961,0,0,1,3.913-4.83,2.635,2.635,0,0,0,2.078-2.565v-.115a1.157,1.157,0,0,1,1.157-1.157H.343A1.157,1.157,0,0,1,1.5-190.659v.114a2.635,2.635,0,0,0,2.079,2.566,4.962,4.962,0,0,1,3.92,4.831v7.982A1.157,1.157,0,0,1,6.342-174.009Z" transform="translate(13.333 191.817)" fill="#30169a"/>
          </g>
          <path id="path2933" d="M123.37-629.332h8.412a1.157,1.157,0,0,1,1.157,1.157v4.993a1.157,1.157,0,0,1-1.157,1.157H123.37a1.157,1.157,0,0,1-1.157-1.157v-4.993A1.157,1.157,0,0,1,123.37-629.332Zm7.254,2.315h-6.1v2.678h6.1Z" transform="translate(-111.605 633.961)" fill="#30169a"/>
          <g id="g2935" transform="translate(11.274 0)">
            <path id="path2937" d="M-80.7-13.333h5a2.2,2.2,0,0,1,2.2,2.2v3.588a1.157,1.157,0,0,1-1.157,1.157h-7.08A1.157,1.157,0,0,1-82.9-7.547v-3.588A2.2,2.2,0,0,1-80.7-13.333Zm4.881,2.315h-4.766V-8.7h4.766Z" transform="translate(82.901 13.333)" fill="#30169a"/>
          </g>
          <g id="g2939" transform="translate(29.922 12.339)">
            <path id="path2941" d="M-250.888-145.42l-.08,0a1.157,1.157,0,0,1-1.076-1.233,43.4,43.4,0,0,1,2.98-13.125,1.157,1.157,0,0,1,1.075-.729h8.168a1.157,1.157,0,0,1,1.157,1.157,6.055,6.055,0,0,0,4.073,5.719,8.412,8.412,0,0,1,5.572,6.92,1.157,1.157,0,0,1-1.013,1.285,1.157,1.157,0,0,1-1.285-1.013,6.084,6.084,0,0,0-4.03-5,8.372,8.372,0,0,1-5.55-6.749h-6.3a41.1,41.1,0,0,0-2.539,11.7A1.158,1.158,0,0,1-250.888-145.42Z" transform="translate(252.047 160.51)" fill="#30169a"/>
          </g>
          <g id="g2943" transform="translate(26.835 0)">
            <path id="path2945" d="M-268.063-13.333h15.382a2.156,2.156,0,0,1,2.153,2.154v3.237a2.156,2.156,0,0,1-2.153,2.154h-5.713l-2.231,1.955a1.157,1.157,0,0,1-.763.287h-9.461A7.284,7.284,0,0,0-274.9-2.321a1.157,1.157,0,0,1-1.188.057,1.157,1.157,0,0,1-.611-1.02V-4.7A8.646,8.646,0,0,1-268.063-13.333Zm15.221,2.315h-15.221a6.33,6.33,0,0,0-6.3,5.821,9.6,9.6,0,0,1,3.516-.664h9.026l2.231-1.955a1.157,1.157,0,0,1,.763-.287h5.987Z" transform="translate(276.699 13.333)" fill="#30169a"/>
          </g>
          <g id="g2947" transform="translate(46.101 0)">
            <path id="path2949" d="M-12.176-5.789a1.157,1.157,0,0,1-1.157-1.157v-5.23a1.157,1.157,0,0,1,1.157-1.157,1.157,1.157,0,0,1,1.157,1.157v5.23A1.157,1.157,0,0,1-12.176-5.789Z" transform="translate(13.333 13.333)" fill="#30169a"/>
          </g>
          <path id="path2951" d="M387.448-589.412H379.28a1.157,1.157,0,0,1-1.157-1.157v-4.868a1.157,1.157,0,0,1,1.157-1.157h8.168a1.157,1.157,0,0,1,1.157,1.157v4.868A1.157,1.157,0,0,1,387.448-589.412Zm-7.01-2.315h5.853v-2.554h-5.853Z" transform="translate(-345.301 604.066)" fill="#30169a"/>
          <g id="g2953" transform="translate(41.389 7.471)">
            <path id="path2955" d="M-61.593-60.435a5.861,5.861,0,0,1-5.855-5.855,1.157,1.157,0,0,1,1.157-1.157,1.157,1.157,0,0,1,1.157,1.157,3.544,3.544,0,0,0,3.54,3.54,1.157,1.157,0,0,1,1.157,1.157A1.157,1.157,0,0,1-61.593-60.435Z" transform="translate(67.448 67.447)" fill="#30169a"/>
          </g>
          <g id="g2957" transform="translate(2.585 31.596)">
            <path id="path2959" d="M-229.722-277.673h-11.161a7.637,7.637,0,0,1-7.586-6.5L-251.543-304a1.157,1.157,0,0,1,.966-1.321,1.157,1.157,0,0,1,1.321.966l3.075,19.826a5.334,5.334,0,0,0,5.3,4.54h11.161a1.157,1.157,0,0,1,1.157,1.157A1.157,1.157,0,0,1-229.722-277.673Z" transform="translate(251.557 305.334)" fill="#30169a"/>
          </g>
          <g id="g2961" transform="translate(33.679 31.596)">
            <path id="path2963" d="M-239.237,14.326H-250.4a1.157,1.157,0,0,1-1.157-1.157,1.157,1.157,0,0,1,1.157-1.157h11.161a5.334,5.334,0,0,0,5.3-4.54l3.075-19.826a1.157,1.157,0,0,1,1.321-.966A1.157,1.157,0,0,1-228.576-12l-3.075,19.826A7.637,7.637,0,0,1-239.237,14.326Z" transform="translate(251.555 13.335)" fill="#30169a"/>
          </g>
          <g id="g2965" transform="translate(33.317 25.129)">
            <path id="path2967" d="M-9.4-75.088a3.939,3.939,0,0,1-3.935-3.935v-4.387a1.157,1.157,0,0,1,1.157-1.157,1.157,1.157,0,0,1,1.157,1.157v4.387A1.622,1.622,0,0,0-9.4-77.4a1.622,1.622,0,0,0,1.62-1.62v-6.018l-1.428-4.811a1.157,1.157,0,0,1,.78-1.439,1.157,1.157,0,0,1,1.439.78l1.476,4.972a1.157,1.157,0,0,1,.048.329v6.186A3.939,3.939,0,0,1-9.4-75.088Z" transform="translate(13.333 91.339)" fill="#30169a"/>
          </g>
          <g id="g2969" transform="translate(24.046 36.53)">
            <path id="path2971" d="M-63.261,3.765A3.479,3.479,0,0,1-66.736.29V-12.176a1.157,1.157,0,0,1,1.157-1.157,1.157,1.157,0,0,1,1.157,1.157V.29a1.162,1.162,0,0,0,1.16,1.16A1.162,1.162,0,0,0-62.1.29V-12.176a1.157,1.157,0,0,1,1.157-1.157,1.157,1.157,0,0,1,1.157,1.157V.29A3.479,3.479,0,0,1-63.261,3.765Z" transform="translate(66.736 13.333)" fill="#30169a"/>
          </g>
          <g id="g2973" transform="translate(19.41 36.53)">
            <path id="path2975" d="M-63.261,1.41a3.479,3.479,0,0,1-3.475-3.475V-12.176a1.157,1.157,0,0,1,1.157-1.157,1.157,1.157,0,0,1,1.157,1.157V-2.065A1.162,1.162,0,0,0-63.261-.9a1.162,1.162,0,0,0,1.16-1.16V-12.176a1.157,1.157,0,0,1,1.157-1.157,1.157,1.157,0,0,1,1.157,1.157V-2.065A3.479,3.479,0,0,1-63.261,1.41Z" transform="translate(66.736 13.333)" fill="#30169a"/>
          </g>
          <g id="g2977" transform="translate(28.681 31.9)">
            <path id="path2979" d="M-63.261,6.04a3.479,3.479,0,0,1-3.475-3.475V-7.546A1.157,1.157,0,0,1-65.578-8.7a1.157,1.157,0,0,1,1.157,1.157V2.565a1.162,1.162,0,0,0,1.16,1.16,1.162,1.162,0,0,0,1.16-1.16V-12.176a1.157,1.157,0,0,1,1.157-1.157,1.157,1.157,0,0,1,1.157,1.157V2.565A3.479,3.479,0,0,1-63.261,6.04Z" transform="translate(66.736 13.333)" fill="#30169a"/>
          </g>
          <g id="g2981" transform="translate(14.799 25.129)">
            <path id="path2983" d="M-63.261-124.256a3.479,3.479,0,0,1-3.475-3.475v-15.343a1.157,1.157,0,0,1,1.157-1.157,1.157,1.157,0,0,1,1.157,1.157v15.343a1.162,1.162,0,0,0,1.16,1.16,1.162,1.162,0,0,0,1.16-1.16v-3.981a1.157,1.157,0,0,1,1.157-1.157,1.157,1.157,0,0,1,1.157,1.157v3.981A3.479,3.479,0,0,1-63.261-124.256Z" transform="translate(66.736 144.232)" fill="#30169a"/>
          </g>
          <g id="g2985" transform="translate(0 25.115)">
            <path id="path2987" d="M-128.963-79.2h-14.829a1.157,1.157,0,0,1-1.157-1.157,1.157,1.157,0,0,1,1.157-1.157h14.829A2.086,2.086,0,0,0-126.88-83.6a2.086,2.086,0,0,0-2.083-2.083h-50.461a2.086,2.086,0,0,0-2.083,2.083,2.086,2.086,0,0,0,2.083,2.083h11.558a1.157,1.157,0,0,1,1.157,1.157,1.157,1.157,0,0,1-1.157,1.157h-11.558a4.4,4.4,0,0,1-4.4-4.4,4.4,4.4,0,0,1,4.4-4.4h50.461a4.4,4.4,0,0,1,4.4,4.4A4.4,4.4,0,0,1-128.963-79.2Z" transform="translate(183.822 88)" fill="#30169a"/>
          </g>
          <g id="g2989" transform="translate(29.628 58.1)">
            <path id="path2991" fill="#30169a"/>
          </g>
        </g>
      </g>
    </g>
  </g>
</svg>
