<svg xmlns="http://www.w3.org/2000/svg" width="89" height="89" viewBox="0 0 89 89">
  <g id="Grupo_1102045" data-name="Grupo 1102045" transform="translate(-597.714 -2925.408)">
    <rect id="Rectángulo_400898" data-name="Rectángulo 400898" width="89" height="89" rx="44.5" transform="translate(597.714 2925.408)" fill="#fff"/>
    <g id="_06_Sick" data-name="06 Sick" transform="translate(614.714 2942.398)">
      <path id="Trazado_879621" data-name="Trazado 879621" d="M431.368,19.482V2.779a2.769,2.769,0,1,0-5.538,0v16.7a4.8,4.8,0,1,0,5.538,0ZM428.6,1.642a1.135,1.135,0,0,1,1.133,1.133V6.663h-2.267V2.779A1.135,1.135,0,0,1,428.6,1.642Zm0,24.935a3.169,3.169,0,0,1-1.549-5.931.819.819,0,0,0,.416-.713V17.688h.653a.819.819,0,0,0,0-1.633h-.653V13h.653a.819.819,0,0,0,0-1.633h-.653V8.3h2.267V19.935a.818.818,0,0,0,.417.713,3.169,3.169,0,0,1-1.551,5.929Z" transform="translate(-377.651)" fill="#30169a"/>
      <path id="Trazado_879622" data-name="Trazado 879622" d="M40,43.642c-2.82-1.1-5.474-1.97-6.607-2.332V37.219a14.442,14.442,0,0,0,3.244-4.147,11.141,11.141,0,0,0,.739-2.826,4.278,4.278,0,0,0,2.717-1.3,6.273,6.273,0,0,0,1.655-3.692,5.078,5.078,0,0,0-.109-2.01c.823-1.524,4.018-7.908,2.674-12.613a6.109,6.109,0,0,0-4.226-4.5,7.264,7.264,0,0,0-2.274-.28c-.739-1.8-2.722-4.3-8.019-4.937a18.567,18.567,0,0,0-8.022,1.181,12.2,12.2,0,0,1-5.044.894A4.913,4.913,0,0,1,13.518.49.824.824,0,0,0,12.152.34,18.05,18.05,0,0,0,9.158,6.747a21.5,21.5,0,0,0,2.087,15.582,4.3,4.3,0,0,0-.514,2.924,6.276,6.276,0,0,0,1.655,3.692,4.278,4.278,0,0,0,2.722,1.3,11.094,11.094,0,0,0,.739,2.826,14.423,14.423,0,0,0,3.244,4.147v4.086c-1.133.363-3.787,1.235-6.608,2.332-5.088,1.978-8.295,3.728-9.529,5.2C.622,51.62,0,54,0,54.97a.818.818,0,0,0,.818.818h50.85a.818.818,0,0,0,.818-.818c0-.969-.622-3.349-2.95-6.127C48.3,47.37,45.094,45.621,40,43.642ZM20.722,38.518a10.046,10.046,0,0,0,5.519,1.99,10.049,10.049,0,0,0,5.52-1.99v3.215c-.268.532-1.6,2.716-5.52,2.716S21,42.286,20.722,41.732Zm-10-31.286a18.046,18.046,0,0,1,2.056-4.914A5.885,5.885,0,0,0,16.51,4.6a13.435,13.435,0,0,0,5.749-.953,17.032,17.032,0,0,1,7.347-1.119c5.035.6,6.465,3.023,6.87,4.41a.82.82,0,0,0,.923.577,5.573,5.573,0,0,1,2.287.192,4.542,4.542,0,0,1,3.062,3.365c1,3.493-1.055,8.375-2.118,10.552a4.223,4.223,0,0,0-2.471-.918,4.285,4.285,0,0,0-.828-2,16.884,16.884,0,0,1-3.007-6.913.711.711,0,0,0-.021-.1,2.458,2.458,0,0,0-2.423-2.069H20.6a2.456,2.456,0,0,0-2.453,2.454v1.4a31.058,31.058,0,0,1-3.214-.218.823.823,0,0,0-.932.825c0,.033.058,3.039.241,6.628a4.637,4.637,0,0,0-1.742.477A19.63,19.63,0,0,1,10.723,7.232Zm9.063,4.852a.819.819,0,0,1,.818-.818H31.881a.819.819,0,0,1,.818.818V16.57a.819.819,0,0,1-.818.819H20.6a.819.819,0,0,1-.818-.819ZM17.313,32.356a11.608,11.608,0,0,1-.706-3.087.894.894,0,0,0-1.211-.653c-1.291,0-2.733-1.1-3.043-3.571a2.533,2.533,0,0,1,.405-2.021,2.77,2.77,0,0,1,2.063-.7.863.863,0,0,0,1.1-.845c-.151-2.71-.229-5.2-.262-6.5.59.051,1.437.109,2.489.131v1.45A2.458,2.458,0,0,0,20.6,19.021H31.881a2.456,2.456,0,0,0,2.43-2.127,17.022,17.022,0,0,0,1.718,2.8,2.681,2.681,0,0,1,.531,1.778.864.864,0,0,0,1.1.853,2.77,2.77,0,0,1,2.063.7,2.513,2.513,0,0,1,.4,2.021c-.309,2.467-1.751,3.571-3.042,3.571a.89.89,0,0,0-1.211.653,11.635,11.635,0,0,1-.706,3.087c-1.494,3.076-5.629,6.516-8.929,6.516S18.808,35.432,17.313,32.356ZM1.78,54.154A11.837,11.837,0,0,1,4.2,49.9c2.023-2.412,11.188-5.694,15.3-7,.712,1.115,2.6,3.191,6.736,3.191s6.025-2.076,6.737-3.195c4.114,1.307,13.284,4.59,15.3,7A11.817,11.817,0,0,1,50.7,54.154Z" transform="translate(0 -0.029)" fill="#30169a"/>
      <path id="Trazado_879623" data-name="Trazado 879623" d="M210.184,273.823a.814.814,0,0,0,1.059-.455,2.044,2.044,0,0,1,3.674,0,.818.818,0,0,0,1.518-.61,3.672,3.672,0,0,0-6.708,0A.822.822,0,0,0,210.184,273.823Z" transform="translate(-186.839 -241.109)" fill="#30169a"/>
      <path id="Trazado_879624" data-name="Trazado 879624" d="M174.263,199.921a.82.82,0,1,0-1.524-.6c0,.009-.427.882-2.148.795a.819.819,0,0,0-.082,1.633c.109.005.211.008.313.008A3.483,3.483,0,0,0,174.263,199.921Z" transform="translate(-151.288 -177.145)" fill="#30169a"/>
      <path id="Trazado_879625" data-name="Trazado 879625" d="M87.641,289.472a.818.818,0,0,0-1.149.133,6.355,6.355,0,0,0-1.162,3.723,6.419,6.419,0,0,0,.743,2.8,5.439,5.439,0,0,1,.647,2.4.818.818,0,1,0,1.633,0,6.858,6.858,0,0,0-.8-3.076,4.512,4.512,0,0,1,.218-4.824A.818.818,0,0,0,87.641,289.472Z" transform="translate(-76.039 -257.786)" fill="#30169a"/>
      <path id="Trazado_879626" data-name="Trazado 879626" d="M33.784,331.114a.818.818,0,0,0,1.633,0,6.869,6.869,0,0,0-.795-3.076,4.8,4.8,0,0,1-.593-2.115,4.965,4.965,0,0,1,.351-1.842.82.82,0,1,0-1.524-.6,6.618,6.618,0,0,0-.465,2.446,6.352,6.352,0,0,0,.742,2.8A5.281,5.281,0,0,1,33.784,331.114Z" transform="translate(-28.863 -287.785)" fill="#30169a"/>
      <path id="Trazado_879627" data-name="Trazado 879627" d="M368.891,298.5a.818.818,0,1,0,1.633,0,5.371,5.371,0,0,1,.647-2.4,6.13,6.13,0,0,0-.42-6.518.818.818,0,1,0-1.284,1.013,4.514,4.514,0,0,1,.217,4.823A6.9,6.9,0,0,0,368.891,298.5Z" transform="translate(-328.723 -257.772)" fill="#30169a"/>
      <path id="Trazado_879628" data-name="Trazado 879628" d="M421.8,331.114a.818.818,0,0,0,1.633,0,5.371,5.371,0,0,1,.646-2.4,6.345,6.345,0,0,0,.743-2.8,6.618,6.618,0,0,0-.465-2.446.82.82,0,0,0-1.524.6,4.966,4.966,0,0,1,.351,1.842,4.817,4.817,0,0,1-.593,2.115A6.944,6.944,0,0,0,421.8,331.114Z" transform="translate(-375.872 -287.785)" fill="#30169a"/>
      <path id="Trazado_879629" data-name="Trazado 879629" d="M270.528,199.921a.82.82,0,1,1,1.524-.6c0,.009.427.882,2.148.795a.819.819,0,0,1,.082,1.633c-.109.005-.211.008-.312.008A3.484,3.484,0,0,1,270.528,199.921Z" transform="translate(-241.02 -177.145)" fill="#30169a"/>
    </g>
  </g>
</svg>
