<svg xmlns="http://www.w3.org/2000/svg" width="69.609" height="69.609" viewBox="0 0 69.609 69.609">
  <g id="Grupo_1101933" data-name="Grupo 1101933" transform="translate(-215.391 -2723)">
    <rect id="Rectángulo_403157" data-name="Rectángulo 403157" width="69.609" height="69.609" rx="34.805" transform="translate(215.391 2723)" fill="#30169a"/>
    <g id="Image" transform="translate(221.727 2729.678)">
      <g id="Grupo_1101932" data-name="Grupo 1101932" transform="translate(5 0.975)">
        <path id="Trazado_878449" data-name="Trazado 878449" d="M50.833,31.313c-.377-1.138-3.762-11.179-6.225-13.141a31.423,31.423,0,0,0-11.518-5.02c.207-1.166.8-5.208.8-6.244,0-2.861-1.19-4.736-3.19-5.041-5.024-1.844-7.581-.578-9.743,1.55-1.963,1.934-1.981.544-2.839,1.124-1.212.828.539,4.752,2.117,6.162a7.083,7.083,0,0,0,.779,3.889c-3.354,1.121-6.23,2.63-7.6,4.024C10.9,21.192,6.19,28.262,5.991,28.561c-.426.641.126,1.115.661,1.7A13.179,13.179,0,0,0,5,36.678c0,4.287,8.779,8.45,11.436,11.881a11.734,11.734,0,0,0,1.307,1.494V52.82a.85.85,0,0,0,1.7,0V51.008a3.5,3.5,0,0,0,.85.113c1.269,0,3.4-.551,3.4-4.248,0-2.112-6.8-8.423-10.772-10.586l.25-.533c.895.377,1.242-.72,3.634-2.331a21.493,21.493,0,0,1,.941,4.954.85.85,0,1,0,1.7,0,26.462,26.462,0,0,0-1.353-6.612c-.006-.024-.014-.046-.022-.07a39.924,39.924,0,0,0-2.121-5.608.85.85,0,1,0-1.5.792,35.1,35.1,0,0,1,1.834,4.789l-2.835,2.266a32.415,32.415,0,0,1-5.673-4.973,91.362,91.362,0,0,1,6.86-9.157c2.317-2.363,9.906-5.216,15.859-5.216,4.836,0,11.305,3.515,13.064,4.912,1.486,1.183,4.053,7.6,5.473,11.761a19.514,19.514,0,0,1-5.97,1.937c.157-2.343.258-4.93.177-7.592a.85.85,0,0,0-1.7.052,97.966,97.966,0,0,1-.568,12.193c-.509,5.475-.163,2.286-.282,14.968a.85.85,0,0,0,1.7,0V46.114c6.46-5.148,6.8-5.763,6.8-11.134a.85.85,0,0,0-1.7,0c0,4.446-.013,4.877-5.1,8.96V41.776c0-1.256.284-3.6.545-6.821,1.889-.363,8.51-1.831,7.908-3.641Zm-39.1,3.5c-.091.476-1.5,2.106-.277,2.641,3.91,1.714,10.327,8.2,10.536,9.417,0,2.549-1.148,2.549-1.7,2.549-1.6,0-2.331-2.046-3.934-3.541-1.516-1.416-9.66-6.433-9.66-9.2a11.967,11.967,0,0,1,1.183-5.144A33.009,33.009,0,0,0,11.733,34.815Zm7.8-28.626c3.146-.273,3.184-5.537,10.649-2.7.285.112,2.007.025,2.007,3.42,0,2.39-.429,2.7-.447,2.709-1.966,1.211-5.29.957-6.552.805a2.569,2.569,0,0,0-2.347-1.78,3.262,3.262,0,0,0-1.67.615,7.776,7.776,0,0,1-1.639-3.069Zm3.152,7.888A5.346,5.346,0,0,1,21.93,10.8c2.022-1.483,1.26,1.016,2.465,1.226a14.919,14.919,0,0,0,7.232-.475c-.069.463-.144.94-.223,1.375A27.7,27.7,0,0,0,22.684,14.077Z" transform="translate(-5 -0.975)" fill="#fff"/>
        <path id="Trazado_878450" data-name="Trazado 878450" d="M49.554,14.866c.879-1.644,2.6-2.968,1.464-3.727s-1.664,1.3-2.877,2.784a.85.85,0,0,0,1.414.943Z" transform="translate(-11.466 -2.48)" fill="#fff"/>
        <path id="Trazado_878451" data-name="Trazado 878451" d="M13.842,14.87a.85.85,0,0,0,1.414-.943l-1.7-2.549a.85.85,0,0,0-1.414.943Z" transform="translate(-6.053 -2.483)" fill="#fff"/>
        <path id="Trazado_878452" data-name="Trazado 878452" d="M54.448,18c1.533-1.82,3.542-2.757,2.549-3.75s-1.934,1.019-3.75,2.549A.85.85,0,0,0,54.448,18Z" transform="translate(-12.219 -2.932)" fill="#fff"/>
        <path id="Trazado_878453" data-name="Trazado 878453" d="M8.8,19A.849.849,0,0,0,10,17.8L7.45,15.249a.849.849,0,0,0-1.2,1.2Z" transform="translate(-5.15 -3.085)" fill="#fff"/>
        <path id="Trazado_878454" data-name="Trazado 878454" d="M30,42.249a.849.849,0,0,0-1.2,0L26.249,44.8a.849.849,0,1,0,1.2,1.2L30,43.45a.849.849,0,0,0,0-1.2Z" transform="translate(-8.159 -7.147)" fill="#fff"/>
        <path id="Trazado_878455" data-name="Trazado 878455" d="M33.868,48.089l-3.4,1.7a.85.85,0,0,0,.76,1.521l3.4-1.7a.85.85,0,0,0-.76-1.521Z" transform="translate(-8.761 -8.049)" fill="#fff"/>
        <path id="Trazado_878456" data-name="Trazado 878456" d="M34.453,56.875l-3.4-.85a.85.85,0,0,0-.411,1.649l3.4.85a.823.823,0,0,0,.206.025.85.85,0,0,0,.2-1.675Z" transform="translate(-8.761 -9.253)" fill="#fff"/>
      </g>
    </g>
  </g>
</svg>
