<svg xmlns="http://www.w3.org/2000/svg" xmlns:xlink="http://www.w3.org/1999/xlink" width="398.195" height="249.098" viewBox="0 0 398.195 249.098">
  <defs>
    <clipPath id="clip-path">
      <rect id="Rectángulo_403186" data-name="Rectángulo 403186" width="111.318" height="111.281" fill="none"/>
    </clipPath>
    <clipPath id="clip-path-3">
      <rect id="Rectángulo_403182" data-name="Rectángulo 403182" width="105.474" height="78.451" fill="none"/>
    </clipPath>
    <clipPath id="clip-path-4">
      <rect id="Rectángulo_403183" data-name="Rectángulo 403183" width="111.281" height="83.972" fill="none"/>
    </clipPath>
    <clipPath id="clip-path-5">
      <rect id="Rectángulo_403184" data-name="Rectángulo 403184" width="60.296" height="54.27" fill="none"/>
    </clipPath>
    <clipPath id="clip-path-6">
      <rect id="Rectángulo_403187" data-name="Rectángulo 403187" width="104.568" height="75.809" fill="none"/>
    </clipPath>
    <clipPath id="clip-path-7">
      <rect id="Rectángulo_403189" data-name="Rectángulo 403189" width="64.073" height="51.614" fill="none"/>
    </clipPath>
    <clipPath id="clip-path-8">
      <rect id="Rectángulo_403181" data-name="Rectángulo 403181" width="288.568" height="211.845" fill="none"/>
    </clipPath>
    <clipPath id="clip-path-9">
      <rect id="Rectángulo_403180" data-name="Rectángulo 403180" width="15.93" height="4.883" fill="none"/>
    </clipPath>
  </defs>
  <g id="Grupo_1101961" data-name="Grupo 1101961" transform="translate(-602.165 -3123.731)">
    <path id="Trazado_877411" data-name="Trazado 877411" d="M398.2,0H0V249.1H398.2Z" transform="translate(602.165 3123.731)" fill="#5357de"/>
    <g id="Grupo_1101956" data-name="Grupo 1101956" transform="translate(654.968 3220)">
      <g id="Grupo_1101955" data-name="Grupo 1101955" clip-path="url(#clip-path)">
        <g id="Grupo_1101954" data-name="Grupo 1101954">
          <g id="Grupo_1101953" data-name="Grupo 1101953" clip-path="url(#clip-path)">
            <path id="Trazado_878585" data-name="Trazado 878585" d="M56.035,0a55.641,55.641,0,1,0,55.641,55.641A55.641,55.641,0,0,0,56.035,0" transform="translate(-0.357)" fill="#ff7932"/>
            <g id="Grupo_1101946" data-name="Grupo 1101946" transform="translate(2.94 10.065)" style="mix-blend-mode: multiply;isolation: isolate">
              <g id="Grupo_1101945" data-name="Grupo 1101945">
                <g id="Grupo_1101944" data-name="Grupo 1101944" clip-path="url(#clip-path-3)">
                  <path id="Trazado_878586" data-name="Trazado 878586" d="M230.687,107.364q-1.107.781-2.172,1.613c17.365,12.522,35.84,11.373,48.438,8.111a83.413,83.413,0,0,0,19.962-8.121q-1.125-.878-2.294-1.7c-11.021,5.982-38.828,17.637-63.933.1" transform="translate(-210.015 -107.268)" fill="#d6afbc"/>
                  <path id="Trazado_878587" data-name="Trazado 878587" d="M72.949,360.37A130.217,130.217,0,0,1,42.225,350.6q-.529,1.178-1,2.384a131.48,131.48,0,0,0,31.158,9.894,121.9,121.9,0,0,0,72.991-8.351q-.435-1.211-.927-2.395a119.321,119.321,0,0,1-71.5,8.24" transform="translate(-40.295 -327.768)" fill="#d6afbc"/>
                  <path id="Trazado_878588" data-name="Trazado 878588" d="M31.339,781.248c.405,1.2.84,2.381,1.323,3.54A113.086,113.086,0,0,0,82.545,796.3a122.4,122.4,0,0,0,26.55-2.958,136.765,136.765,0,0,0,26.455-8.86q.687-1.679,1.263-3.414a134.374,134.374,0,0,1-28.371,9.788c-19.315,4.286-47.518,5.649-77.1-9.607" transform="translate(-31.339 -717.847)" fill="#d6afbc"/>
                </g>
              </g>
            </g>
            <g id="Grupo_1101949" data-name="Grupo 1101949" transform="translate(0 27.31)" opacity="0.42" style="mix-blend-mode: multiply;isolation: isolate">
              <g id="Grupo_1101948" data-name="Grupo 1101948">
                <g id="Grupo_1101947" data-name="Grupo 1101947" clip-path="url(#clip-path-4)">
                  <path id="Trazado_878589" data-name="Trazado 878589" d="M63.345,344.657a55.632,55.632,0,0,1-55.589-53.59A55.64,55.64,0,1,0,111.281,319.4c0-.688-.027-1.369-.052-2.05a55.6,55.6,0,0,1-47.885,27.31" transform="translate(0 -291.067)" fill="#ff7932"/>
                </g>
              </g>
            </g>
            <g id="Grupo_1101952" data-name="Grupo 1101952" transform="translate(37.297 5.281)" opacity="0.3">
              <g id="Grupo_1101951" data-name="Grupo 1101951">
                <g id="Grupo_1101950" data-name="Grupo 1101950" clip-path="url(#clip-path-5)">
                  <path id="Trazado_878590" data-name="Trazado 878590" d="M442.77,62.965c-8.934-6.273-21.084-9.05-31.213-4.25s-14.974,17.122-13.891,27.811c1.04,10.263,7.892,17.3,16.637,20.993,9.9,4.179,22.222,4.071,31.287-.5a22.354,22.354,0,0,0,9.589-8.433c7.267-12.69-1.692-28.1-12.409-35.623" transform="translate(-397.517 -56.286)" fill="#fff"/>
                </g>
              </g>
            </g>
          </g>
        </g>
      </g>
    </g>
    <g id="Grupo_1101958" data-name="Grupo 1101958" transform="translate(614.473 3265.693)">
      <g id="Grupo_1101957" data-name="Grupo 1101957" clip-path="url(#clip-path-6)">
        <path id="Trazado_878591" data-name="Trazado 878591" d="M98.557,44.87H8.634a3.387,3.387,0,0,0-3.387,3.387L0,112.312A3.388,3.388,0,0,0,3.388,115.7H93.311a3.388,3.388,0,0,0,3.388-3.388l5.247-64.055a3.387,3.387,0,0,0-3.388-3.387" transform="translate(0 -39.891)" fill="#2b6f9c"/>
        <path id="Trazado_878592" data-name="Trazado 878592" d="M140.6,44.87H50.673a3.387,3.387,0,0,0-3.387,3.387l2.623,64.055A3.388,3.388,0,0,0,53.3,115.7H143.22a3.388,3.388,0,0,0,3.388-3.388l-2.623-64.055A3.388,3.388,0,0,0,140.6,44.87" transform="translate(-42.039 -39.891)" fill="#86cedd"/>
        <path id="Trazado_878593" data-name="Trazado 878593" d="M140.595,44.869H50.672a3.388,3.388,0,0,0-3.388,3.387l.265,6.467h96.7l-.265-6.467a3.387,3.387,0,0,0-3.388-3.387" transform="translate(-42.037 -39.89)" fill="#2b6f9c"/>
        <path id="Trazado_878594" data-name="Trazado 878594" d="M468.592,71.236a1.95,1.95,0,1,0,1.95,1.95,1.95,1.95,0,0,0-1.95-1.95" transform="translate(-414.864 -63.332)" fill="#5484d1"/>
        <path id="Trazado_878595" data-name="Trazado 878595" d="M477.877,0h-1.71a.043.043,0,0,0-.043.043v9.974a.043.043,0,0,0,.043.043h1.71a.043.043,0,0,0,.043-.043V.043A.043.043,0,0,0,477.877,0" transform="translate(-423.294)" fill="#fff"/>
        <path id="Trazado_878596" data-name="Trazado 878596" d="M683.738,71.236a1.95,1.95,0,1,0,1.95,1.95,1.951,1.951,0,0,0-1.95-1.95" transform="translate(-606.138 -63.332)" fill="#5484d1"/>
        <path id="Trazado_878597" data-name="Trazado 878597" d="M693.024,0h-1.71a.043.043,0,0,0-.043.043v9.974a.043.043,0,0,0,.043.043h1.71a.043.043,0,0,0,.043-.043V.043A.043.043,0,0,0,693.024,0" transform="translate(-614.569)" fill="#fff"/>
        <path id="Trazado_878598" data-name="Trazado 878598" d="M100.623,222.651H89.957a1.441,1.441,0,0,0-1.439,1.507l.392,8.547a1.441,1.441,0,0,0,1.439,1.375h10.666a1.441,1.441,0,0,0,1.439-1.507l-.392-8.547a1.441,1.441,0,0,0-1.439-1.375" transform="translate(-78.695 -197.946)" fill="#68b6c1"/>
        <path id="Trazado_878599" data-name="Trazado 878599" d="M232.167,71.236a1.95,1.95,0,1,0,1.95,1.95,1.95,1.95,0,0,0-1.95-1.95" transform="translate(-204.673 -63.332)" fill="#5484d1"/>
        <path id="Trazado_878600" data-name="Trazado 878600" d="M241.452,0h-1.71a.043.043,0,0,0-.043.043v9.974a.043.043,0,0,0,.043.043h1.71a.043.043,0,0,0,.043-.043V.043A.043.043,0,0,0,241.452,0" transform="translate(-213.102)" fill="#fff"/>
        <path id="Trazado_878601" data-name="Trazado 878601" d="M110.163,210.161H99.5a1.441,1.441,0,0,0-1.439,1.507l.392,8.547a1.441,1.441,0,0,0,1.439,1.375h10.666a1.441,1.441,0,0,0,1.439-1.507l-.392-8.547a1.441,1.441,0,0,0-1.439-1.375" transform="translate(-87.177 -186.842)" fill="#f2414b"/>
        <path id="Trazado_878602" data-name="Trazado 878602" d="M270.162,222.651H259.5a1.441,1.441,0,0,0-1.439,1.507l.392,8.547a1.441,1.441,0,0,0,1.439,1.375h10.666a1.441,1.441,0,0,0,1.439-1.507l-.392-8.547a1.441,1.441,0,0,0-1.439-1.375" transform="translate(-229.423 -197.946)" fill="#68b6c1"/>
        <path id="Trazado_878603" data-name="Trazado 878603" d="M603.256,222.651H592.591a1.441,1.441,0,0,0-1.439,1.507l.392,8.547a1.441,1.441,0,0,0,1.439,1.375h10.666a1.441,1.441,0,0,0,1.439-1.507l-.392-8.547a1.441,1.441,0,0,0-1.439-1.375" transform="translate(-525.557 -197.946)" fill="#68b6c1"/>
        <path id="Trazado_878604" data-name="Trazado 878604" d="M768.3,222.651H757.635a1.441,1.441,0,0,0-1.439,1.507l.392,8.547a1.441,1.441,0,0,0,1.439,1.375h10.666a1.441,1.441,0,0,0,1.439-1.507l-.392-8.547a1.441,1.441,0,0,0-1.439-1.375" transform="translate(-672.288 -197.946)" fill="#68b6c1"/>
        <path id="Trazado_878605" data-name="Trazado 878605" d="M614.211,420.63H603.546a1.441,1.441,0,0,0-1.439,1.507l.392,8.547a1.441,1.441,0,0,0,1.439,1.375H614.6a1.441,1.441,0,0,0,1.439-1.507L615.651,422a1.441,1.441,0,0,0-1.439-1.375" transform="translate(-535.297 -373.958)" fill="#68b6c1"/>
        <path id="Trazado_878606" data-name="Trazado 878606" d="M782.073,420.63H771.408a1.441,1.441,0,0,0-1.439,1.507l.392,8.547a1.441,1.441,0,0,0,1.439,1.375h10.666a1.441,1.441,0,0,0,1.439-1.507L783.513,422a1.441,1.441,0,0,0-1.439-1.375" transform="translate(-684.533 -373.958)" fill="#68b6c1"/>
        <path id="Trazado_878607" data-name="Trazado 878607" d="M118.49,408.142H107.825a1.441,1.441,0,0,0-1.439,1.507l.392,8.547a1.441,1.441,0,0,0,1.439,1.374h10.666a1.441,1.441,0,0,0,1.439-1.507l-.392-8.547a1.441,1.441,0,0,0-1.439-1.375" transform="translate(-94.58 -362.855)" fill="#fff"/>
        <path id="Trazado_878608" data-name="Trazado 878608" d="M278.025,210.161H267.36a1.441,1.441,0,0,0-1.439,1.507l.392,8.547a1.441,1.441,0,0,0,1.439,1.375h10.666a1.441,1.441,0,0,0,1.439-1.507l-.392-8.547a1.441,1.441,0,0,0-1.439-1.375" transform="translate(-236.413 -186.842)" fill="#f2414b"/>
        <path id="Trazado_878609" data-name="Trazado 878609" d="M286.351,408.142H275.686a1.441,1.441,0,0,0-1.439,1.507l.393,8.547a1.44,1.44,0,0,0,1.439,1.374h10.666a1.441,1.441,0,0,0,1.439-1.507l-.392-8.547a1.44,1.44,0,0,0-1.439-1.375" transform="translate(-243.815 -362.855)" fill="#fff"/>
        <path id="Trazado_878610" data-name="Trazado 878610" d="M445.887,210.161H435.222a1.441,1.441,0,0,0-1.439,1.507l.392,8.547a1.441,1.441,0,0,0,1.439,1.375H446.28a1.441,1.441,0,0,0,1.439-1.507l-.392-8.547a1.441,1.441,0,0,0-1.439-1.375" transform="translate(-385.649 -186.842)" fill="#f2414b"/>
        <path id="Trazado_878611" data-name="Trazado 878611" d="M454.213,408.142H443.548a1.441,1.441,0,0,0-1.439,1.507l.392,8.547a1.441,1.441,0,0,0,1.439,1.374h10.666a1.441,1.441,0,0,0,1.439-1.507l-.392-8.547a1.441,1.441,0,0,0-1.439-1.375" transform="translate(-393.052 -362.855)" fill="#fff"/>
        <path id="Trazado_878612" data-name="Trazado 878612" d="M613.749,210.161H603.083a1.441,1.441,0,0,0-1.439,1.507l.392,8.547a1.441,1.441,0,0,0,1.439,1.375h10.666a1.441,1.441,0,0,0,1.439-1.507l-.392-8.547a1.441,1.441,0,0,0-1.439-1.375" transform="translate(-534.885 -186.842)" fill="#f2414b"/>
        <path id="Trazado_878613" data-name="Trazado 878613" d="M622.075,408.142H611.409a1.441,1.441,0,0,0-1.439,1.507l.392,8.547a1.441,1.441,0,0,0,1.439,1.374h10.666a1.441,1.441,0,0,0,1.439-1.507l-.392-8.547a1.441,1.441,0,0,0-1.439-1.375" transform="translate(-542.287 -362.855)" fill="#f2414b"/>
        <path id="Trazado_878614" data-name="Trazado 878614" d="M781.61,210.161H770.945a1.441,1.441,0,0,0-1.439,1.507l.392,8.547a1.441,1.441,0,0,0,1.439,1.375H782a1.441,1.441,0,0,0,1.439-1.507l-.392-8.547a1.441,1.441,0,0,0-1.439-1.375" transform="translate(-684.121 -186.842)" fill="#f2414b"/>
        <path id="Trazado_878615" data-name="Trazado 878615" d="M789.936,408.142H779.271a1.441,1.441,0,0,0-1.439,1.507l.392,8.547a1.441,1.441,0,0,0,1.439,1.374h10.666a1.441,1.441,0,0,0,1.439-1.507l-.392-8.547a1.441,1.441,0,0,0-1.439-1.375" transform="translate(-691.523 -362.855)" fill="#f2414b"/>
        <path id="Trazado_878616" data-name="Trazado 878616" d="M803.223,427.989,798,424l4.83-4.192a.262.262,0,1,0-.344-.4l-4.912,4.263-5.331-4.068a.262.262,0,0,0-.318.417l5.244,4-5.052,4.385a.262.262,0,0,0,.344.4l5.134-4.456,5.314,4.056a.262.262,0,1,0,.318-.417" transform="translate(-703.959 -372.816)" fill="#fff"/>
        <path id="Trazado_878617" data-name="Trazado 878617" d="M633,426.755l-5.227-3.99,4.829-4.192a.262.262,0,1,0-.344-.4l-4.912,4.263-5.33-4.068a.262.262,0,0,0-.318.417l5.244,4-5.052,4.385a.262.262,0,0,0,.344.4l5.134-4.456,5.314,4.056a.262.262,0,0,0,.318-.417" transform="translate(-552.621 -371.72)" fill="#fff"/>
        <path id="Trazado_878618" data-name="Trazado 878618" d="M288.229,227.542,283,223.552l4.829-4.192a.262.262,0,1,0-.344-.4l-4.912,4.263-5.33-4.068a.262.262,0,0,0-.318.417l5.244,4-5.052,4.385a.262.262,0,0,0,.344.4L282.6,223.9l5.314,4.056a.262.262,0,0,0,.318-.417" transform="translate(-246.107 -194.611)" fill="#fff"/>
        <path id="Trazado_878619" data-name="Trazado 878619" d="M128.744,227.542l-5.227-3.99,4.83-4.192a.262.262,0,0,0-.344-.4l-4.912,4.263-5.33-4.068a.262.262,0,0,0-.318.417l5.244,4-5.051,4.385a.262.262,0,0,0,.344.4l5.134-4.456,5.314,4.056a.262.262,0,1,0,.318-.417" transform="translate(-104.319 -194.611)" fill="#fff"/>
        <path id="Trazado_878620" data-name="Trazado 878620" d="M624.465,227.542l-5.227-3.99,4.83-4.192a.262.262,0,0,0-.344-.4l-4.912,4.263-5.33-4.068a.262.262,0,0,0-.318.417l5.244,4-5.052,4.385a.262.262,0,0,0,.344.4l5.134-4.456,5.314,4.056a.262.262,0,1,0,.318-.417" transform="translate(-545.035 -194.611)" fill="#fff"/>
      </g>
    </g>
    <g id="Grupo_1101577" data-name="Grupo 1101577" transform="translate(614.142 3144.182)">
      <g id="Grupo_1098935" data-name="Grupo 1098935" transform="translate(0 0)">
        <path id="Trazado_873068" data-name="Trazado 873068" d="M81.221,9.6l-2.047.6a.507.507,0,0,0-.008.972l2,.618a10.656,10.656,0,0,1,6.917,6.684l.929,2.674a.507.507,0,0,0,.966-.024l.627-2.141a10.66,10.66,0,0,1,7.236-7.237l2-.585a.508.508,0,0,0,0-.974l-2-.586A10.658,10.658,0,0,1,90.6,2.365l-.586-2a.508.508,0,0,0-.974,0l-.586,2A10.658,10.658,0,0,1,81.221,9.6" transform="translate(12.037 3)" fill="#30169a"/>
        <path id="Trazado_873069" data-name="Trazado 873069" d="M153.843,101.409l-4.019,1.177a1,1,0,0,0-.016,1.909l3.922,1.214a20.927,20.927,0,0,1,13.583,13.126l1.825,5.251a1,1,0,0,0,1.9-.048l1.232-4.2a20.934,20.934,0,0,1,14.211-14.213l3.928-1.148a1,1,0,0,0,0-1.913l-3.928-1.15A20.931,20.931,0,0,1,172.268,87.2l-1.15-3.929a1,1,0,0,0-1.913,0l-1.15,3.929a20.931,20.931,0,0,1-14.211,14.211" transform="translate(-149.106 81.852)" fill="#30169a"/>
        <path id="Trazado_873070" data-name="Trazado 873070" d="M3.935,149.963.6,150.942a.828.828,0,0,0-.013,1.586l3.258,1.008a17.387,17.387,0,0,1,11.285,10.905l1.516,4.363a.828.828,0,0,0,1.576-.04l1.023-3.493a17.392,17.392,0,0,1,11.806-11.808l3.264-.954a.828.828,0,0,0,0-1.59l-3.264-.956a17.39,17.39,0,0,1-11.806-11.806l-.956-3.264a.828.828,0,0,0-1.59,0l-.956,3.264A17.39,17.39,0,0,1,3.935,149.963" transform="translate(331.146 -64.338)" fill="#30169a"/>
      </g>
    </g>
    <g id="Grupo_1101960" data-name="Grupo 1101960" transform="translate(654.968 3168.386)">
      <g id="Grupo_1101959" data-name="Grupo 1101959" clip-path="url(#clip-path-7)">
        <path id="Trazado_878621" data-name="Trazado 878621" d="M82.392,28.909H47.337a12.52,12.52,0,0,0-12.52,12.52V51.936a12.52,12.52,0,0,0,12.52,12.52h34.81L94.912,77.22V41.429a12.52,12.52,0,0,0-12.52-12.52" transform="translate(-30.839 -25.606)" fill="#fff"/>
        <path id="Trazado_878622" data-name="Trazado 878622" d="M47.575,0H12.52A12.52,12.52,0,0,0,0,12.52V23.027a12.52,12.52,0,0,0,12.52,12.52H47.33L60.095,48.311V12.52A12.52,12.52,0,0,0,47.575,0" transform="translate(0)" fill="#ffbc01"/>
        <rect id="Rectángulo_403188" data-name="Rectángulo 403188" width="6.775" height="15.515" transform="translate(15.809 12.765)" fill="#fff"/>
        <path id="Trazado_878623" data-name="Trazado 878623" d="M226.593,40.42H225.17s0-1.866-.1-4.615a5.581,5.581,0,0,0-.62-2.481,1.7,1.7,0,0,0-3.176.609c-.343,2.634-1.407,6.656-5.467,7.568h-2.76V57.015h2.76l11.032.164a6.039,6.039,0,0,0,5.792-6.034V46.459a6.039,6.039,0,0,0-6.039-6.039" transform="translate(-188.707 -28.735)" fill="#fff"/>
      </g>
    </g>
    <g id="Grupo_1101942" data-name="Grupo 1101942" transform="translate(691.627 3151.182)">
      <g id="Grupo_1101943" data-name="Grupo 1101943" transform="translate(0 0)">
        <g id="Grupo_1101940" data-name="Grupo 1101940">
          <g id="Grupo_1101939" data-name="Grupo 1101939" clip-path="url(#clip-path-8)">
            <path id="Trazado_878463" data-name="Trazado 878463" d="M1657.352,167.411c.068-2.062-1.415-5.693-5.442-8.461-7.47-5.134-11.579-2.884-15.552-.758a7.78,7.78,0,0,1-2.176,1.3c-2.106.8-6.878,3.666-5.77,12.9,1.411,11.761,3.433,10.331-.405,14.191s-8.166,6.066-6.674,12.5-5.348,10.9-5.348,10.9l2.971,1.541,3.583-2.931-2.316,4.4s34.63,3.524,45.226-5.707l-1.729-17.733Z" transform="translate(-1432.955 -138.172)" fill="#001830"/>
            <path id="Trazado_878464" data-name="Trazado 878464" d="M1731,122.752a4.456,4.456,0,1,0,5.59,2.91,4.456,4.456,0,0,0-5.59-2.91" transform="translate(-1532.175 -108.665)" fill="#001830"/>
            <path id="Trazado_878465" data-name="Trazado 878465" d="M2021.881,521.153c-2.843-4.181-5.5-9.737-10.692-11.417l2.138,15.732,8.248,12.066s-6.568,13.594-7.484,13.9-5.651-.305-5.651-.305-.306,5.8,2.444,6.873,5.5-1.375,11.3-6.568,9.632-11.749,9.47-14.51c-.153-2.6-7.179-11.952-9.775-15.77" transform="translate(-1780.949 -452.002)" fill="#fcc5a7"/>
            <path id="Trazado_878466" data-name="Trazado 878466" d="M1989.065,1050.154s-7.026,17.579-7.026,19.7,32.1,5.1,31.923,6.7-2.911,8.433-2.254,17.856c.688,9.852,5.008,25.088,5.4,33.413a41.013,41.013,0,0,0,.708,5.664l8.717,4.115c-3.983-11.948,1.931-58.972,1.931-58.972,1.062-2.124-.343-10.081-.343-10.081-2.749-10.081-39.054-18.4-39.054-18.4" transform="translate(-1757.548 -931.211)" fill="#fcc5a7"/>
            <path id="Trazado_878467" data-name="Trazado 878467" d="M2340.222,1219.951a.068.068,0,0,0-.073-.059.067.067,0,0,0-.059.073c.022.2.543,4.811,1.431,5.876a.066.066,0,0,0,.051.024.062.062,0,0,0,.042-.015.066.066,0,0,0,.009-.093c-.863-1.036-1.4-5.759-1.4-5.807" transform="translate(-2075.044 -1081.724)" fill="#c25353"/>
            <path id="Trazado_878468" data-name="Trazado 878468" d="M1165.128,1229.9c-2.116.185-2.2,31.878-3.8,31.841s-8.737-1.619-18.066-.142c-9.754,1.545-30.055,7.341-32.814,8.294a26.546,26.546,0,0,1-5.581,1.2l-3.339,9.043c11.555-5.01,58.54-3.911,58.54-3.911,2.209.872,10.012-1.222,10.012-1.222,9.8-3.619,15.292-39.824,15.292-39.824s-18.126-5.464-20.241-5.279" transform="translate(-976.764 -1090.596)" fill="#fcc5a7"/>
            <path id="Trazado_878469" data-name="Trazado 878469" d="M1655.693,1579.192c-.193.039-4.745.961-5.729,1.938a.067.067,0,0,0,0,.094.067.067,0,0,0,.047.02.064.064,0,0,0,.047-.019c.956-.949,5.615-1.894,5.662-1.9a.067.067,0,1,0-.027-.13" transform="translate(-1463.068 -1400.327)" fill="#c25353"/>
            <path id="Trazado_878470" data-name="Trazado 878470" d="M1567.261,388.968c-1.627-.2-3.837-.744-5.588-1.165a2.106,2.106,0,0,1-1.6-1.832l-1.084-10.456-9.2-.973-.753,10.317a1.9,1.9,0,0,1-1.9,1.767c-6.236-.055-10,.9-11.459,2.607-1.593,1.859-21.639,24.028-23.1,26.152s-2.522,2.655-1.062,6.638,23.365,19.382,23.365,19.382l3.119-5.576c-6.638-8.562-14.005-17.523-14.005-17.523s12.081-11.616,13.01-11.616c.685,0,4.1,13.049,6.055,19.1a10.618,10.618,0,0,1-.218,7.136l-1.81,4.626,28.365,2.257-.531-6.638,3.186-15.134s6.5-14.868,3.983-20.842-6.638-7.965-8.762-8.231" transform="translate(-1339.688 -332.12)" fill="#fcc5a7"/>
            <path id="Trazado_878471" data-name="Trazado 878471" d="M1791.726,498.168a22.235,22.235,0,0,1-4.17-.442,78.736,78.736,0,0,1-7.356-2.851.065.065,0,0,0-.088.034.068.068,0,0,0,.034.088,78.776,78.776,0,0,0,7.378,2.858,22.413,22.413,0,0,0,4.2.446c1.792.079,3.339.147,3.659.717a.066.066,0,0,0,.058.034.071.071,0,0,0,.032-.008.067.067,0,0,0,.026-.09c-.357-.636-1.939-.705-3.771-.785" transform="translate(-1578.486 -438.819)" fill="#c25353"/>
            <path id="Trazado_878472" data-name="Trazado 878472" d="M1948.914,526.519h0c-.073,0-7.241.266-7.83.266a1.245,1.245,0,0,0-.986.562.066.066,0,0,0,.021.091.061.061,0,0,0,.035.01.066.066,0,0,0,.057-.031,1.126,1.126,0,0,1,.873-.5c.592,0,7.763-.263,7.835-.266a.066.066,0,0,0,0-.133" transform="translate(-1720.345 -466.884)" fill="#c25353"/>
            <path id="Trazado_878473" data-name="Trazado 878473" d="M1786.142,484.71a6.376,6.376,0,0,0-1.188-.284,29.515,29.515,0,0,1-3.113-.661c1.8,4.556,3.909,12.96-3.923,15-9.272,2.412-15.076-12.188-16.593-16.57a22.833,22.833,0,0,0-4.533.646,49.146,49.146,0,0,1,3.78,8.224c2.688,7.072-2.195,14.422-4.266,17.091,1.432,3.9,3.266,9.474,4.436,13.1a10.617,10.617,0,0,1-.218,7.136l-1.641,4.193.55.49,16.515,1.314c.757-.135,1.257-.221,1.351-.221.531,0,7.611-1.947,7.611-1.947l1.776-1.847-.139-1.737,3.186-15.134.017.037.006-.192a15.054,15.054,0,0,0,3.834-5.873,7.784,7.784,0,0,0-1.494-7.628c-3.708-4.3-5.327-11.39-5.954-15.134" transform="translate(-1557.382 -427.579)" fill="#f73975"/>
            <path id="Trazado_878474" data-name="Trazado 878474" d="M1686.637,905.734c-.607-2.866-1.092-6.286-1.977-9.472a46.949,46.949,0,0,0-1.726-5.177c-6.726,1.77-26.2-1.042-26.2-1.042-1.73,4.578-7.74,10.2-12.165,17.636s-5.31,21.152-5.31,21.152c10.974,6.2,26.462,7.08,26.462,7.08l2.282-6.2,13.288,4.582c11.455-3.818,10.844-24.438,10.844-24.438s-5.078-2.138-5.5-4.124" transform="translate(-1453.592 -789.234)" fill="#9664f9"/>
            <path id="Trazado_878475" data-name="Trazado 878475" d="M1717.022,888.628l-4.315,2.655,1.2,2.921s3.186,1.593,4.646,1.593,8.5-3.983,8.5-3.983l-1.991-6.638Z" transform="translate(-1518.722 -784.919)" fill="#fcc5a7"/>
            <g id="Grupo_1101938" data-name="Grupo 1101938" transform="translate(204.518 79.415)" style="mix-blend-mode: multiply;isolation: isolate">
              <g id="Grupo_1101937" data-name="Grupo 1101937">
                <g id="Grupo_1101936" data-name="Grupo 1101936" clip-path="url(#clip-path-9)">
                  <path id="Trazado_878476" data-name="Trazado 878476" d="M1805.693,702.044s10.62,9.558,15.93-.885c0,0-4.956,5.133-15.93.885" transform="translate(-1805.693 -701.159)" fill="#bd185d"/>
                </g>
              </g>
            </g>
            <path id="Trazado_878477" data-name="Trazado 878477" d="M1796.3,874.627l-3.452,1.46-2.788,4.779,3.85,2.257a19.256,19.256,0,0,0,2.19,1.46,2.954,2.954,0,0,0,2.456.465l-1.195-1.925-2.522-1.593,2.39.133a3.568,3.568,0,0,0,2.655.664l-.929-1.46c1.461.531,2.124-.133,2.124-.133l-3.452-3.053h-3.452l2.655-1.46c5.177,1.46,5.045-.4,5.045-.4Z" transform="translate(-1587.317 -775.564)" fill="#e89f90"/>
            <path id="Trazado_878478" data-name="Trazado 878478" d="M1998.773,930.8a12.27,12.27,0,0,0,.16-1.354,11.41,11.41,0,0,0-1.089-3.478l-.478.229a11.252,11.252,0,0,1,1.036,3.249,12.772,12.772,0,0,1-.154,1.277c-.345,2.341-.921,6.258.928,7.107l.222-.483c-1.488-.681-.927-4.5-.625-6.547" transform="translate(-1771.139 -821.088)" fill="#fff"/>
            <path id="Trazado_878479" data-name="Trazado 878479" d="M2007.209,1022.015a.9.9,0,1,0,.9.9.9.9,0,0,0-.9-.9" transform="translate(-1779.072 -906.259)" fill="#fff"/>
            <path id="Trazado_878480" data-name="Trazado 878480" d="M1895.862,1042.526a.9.9,0,1,0,.9.9.9.9,0,0,0-.9-.9" transform="translate(-1680.337 -924.447)" fill="#fff"/>
            <path id="Trazado_878481" data-name="Trazado 878481" d="M1904.574,927.759c-.093.128-2.244,3.165-2.041,6.015.211,2.952-.33,7.14-.83,7.541l.333.414c.82-.658,1.214-5.377,1.028-7.992-.19-2.658,1.92-5.638,1.942-5.668Z" transform="translate(-1686.311 -822.678)" fill="#fff"/>
            <path id="Trazado_878482" data-name="Trazado 878482" d="M1744.856,638.526a.409.409,0,0,0-.263-.082c-.9,0-2.9,1.963-3.143,2.211a.066.066,0,0,0,0,.093.065.065,0,0,0,.093,0c.728-.727,2.719-2.524,3.231-2.118a2.463,2.463,0,0,1,.639,1.674.066.066,0,0,0,.133,0,2.548,2.548,0,0,0-.689-1.777" transform="translate(-1544.191 -566.132)" fill="#c25353"/>
            <path id="Trazado_878483" data-name="Trazado 878483" d="M1534.221,747.466a.068.068,0,0,0-.088.034c-.049.109-1.2,2.691-.8,3.637a.067.067,0,0,0,.061.04.062.062,0,0,0,.026-.005.066.066,0,0,0,.035-.087c-.382-.892.784-3.5.8-3.531a.067.067,0,0,0-.034-.088" transform="translate(-1359.59 -662.801)" fill="#c25353"/>
            <path id="Trazado_878484" data-name="Trazado 878484" d="M2129.774,744.468a50.956,50.956,0,0,0-5.816,1.147.066.066,0,0,0-.048.08.067.067,0,0,0,.064.05l.016,0a50.6,50.6,0,0,1,5.792-1.144.066.066,0,0,0,.062-.071.065.065,0,0,0-.071-.062" transform="translate(-1883.348 -660.148)" fill="#c25353"/>
            <path id="Trazado_878485" data-name="Trazado 878485" d="M1988.748,864.834c-.552-.153-5.2.041-5.2.041s.606,1.687,1.5,1.54a22.493,22.493,0,0,1,3.3.027l-4.991,1.306s.5,1.055,1.08.96-.563.986-.563.986a2.5,2.5,0,0,0,2.363.749,2.72,2.72,0,0,1,2.222.285l-3.633.353a1.2,1.2,0,0,0,1.44,1.144,9.861,9.861,0,0,1,2.49-.084l.886,1.146,2.062-5.041-2-1.946s-.413-1.313-.966-1.466" transform="translate(-1758.72 -766.828)" fill="#fcc5a7"/>
            <path id="Trazado_878486" data-name="Trazado 878486" d="M1856.324,360.913a9.67,9.67,0,0,0,9.481,7.5l-.29-4.639s-11.2-10.633-9.191-2.859" transform="translate(-1645.857 -317.514)" fill="#fca186"/>
            <path id="Trazado_878487" data-name="Trazado 878487" d="M1827.7,144.861a8.775,8.775,0,0,1,.266,8.267c-1.658,3.282-5.359,5.63-9.657,6.128l.049.419c4.437-.514,8.263-2.95,9.984-6.357a9.2,9.2,0,0,0-.277-8.667Z" transform="translate(-1612.364 -128.268)" fill="#001830"/>
            <path id="Trazado_878488" data-name="Trazado 878488" d="M1799.77,155.767c-1.983-7.186-7.346-11.354-15.182-9.192s-9.123,8.856-7.14,16.042c.169.613,5.684,5.937,5.937,6.5,0,0,1.685,11.7,13.418,8.587a2.592,2.592,0,0,0,1.467-.78,15.532,15.532,0,0,0,2.319-15.731c-.086-.379-.818-5.428-.818-5.428" transform="translate(-1575.396 -129.467)" fill="#fcc5a7"/>
            <path id="Trazado_878489" data-name="Trazado 878489" d="M1780.386,144.247c-5.672-.384-13.72,1.36-14.488,11.83s7.471,10.09,7.471,10.09c2.03-.955-1.142-8.129-1.142-8.129,4.066-1.62,13.766-3.462,13.766-3.462l-.422-5.1c1.455,1.5,2.518,5.116,2.518,5.116l4.594-.658c-.555-5.612-6.625-9.305-12.3-9.689" transform="translate(-1565.843 -127.867)" fill="#001830"/>
            <path id="Trazado_878490" data-name="Trazado 878490" d="M1896.727,349.175l-.248.351a6.729,6.729,0,0,0,4.574,1.387,4.355,4.355,0,0,0,1.523-.4l-.2-.381c-.1.052-2.506,1.262-5.648-.958" transform="translate(-1681.678 -309.627)" fill="#38261f"/>
            <path id="Trazado_878491" data-name="Trazado 878491" d="M1865.405,258.114c-.794.6-.427,1.139-.281,1.316.085.1.381-.1,1.143-.392,1.624-.613,2.369-.46,2.621-1.013a.888.888,0,0,0-.17-.981c-.608-.5-3.209.992-3.313,1.071" transform="translate(-1653.687 -227.838)" fill="#001830"/>
            <path id="Trazado_878492" data-name="Trazado 878492" d="M1950.7,249.1c-.1-.028-2.4-.436-2.709.136a.73.73,0,0,0,.174.8c.364.344.885,0,2.313-.039.67-.016.961.05.994-.055.057-.18.019-.634-.771-.843" transform="translate(-1727.305 -220.736)" fill="#001830"/>
            <path id="Trazado_878493" data-name="Trazado 878493" d="M1943.132,299.153l-.26.343c.86.651,1.285,1.28,1.229,1.819-.071.681-.874,1.068-.882,1.072l.183.39a2.02,2.02,0,0,0,1.128-1.415c.075-.707-.4-1.45-1.4-2.209" transform="translate(-1722.817 -265.27)" fill="#38261f"/>
            <path id="Trazado_878494" data-name="Trazado 878494" d="M1784.1,302.145a4.415,4.415,0,1,0,5.119,2.97,4.2,4.2,0,0,0-5.119-2.97" transform="translate(-1579.661 -267.769)" fill="#fcc5a7"/>
            <path id="Trazado_878495" data-name="Trazado 878495" d="M1802.946,324a2.177,2.177,0,0,0-1.687.191l.224.367a1.775,1.775,0,0,1,1.337-.147,2.383,2.383,0,0,1,1.315,1.346c-.5.121-1.549.457-1.819,1.209l.405.145c.221-.617,1.342-.92,1.755-.985l.272-.043-.107-.254a2.955,2.955,0,0,0-1.694-1.83" transform="translate(-1597.243 -287.22)" fill="#38261f"/>
            <path id="Trazado_878496" data-name="Trazado 878496" d="M1832.376,316.067a22.229,22.229,0,0,0,.368,3.855,13.433,13.433,0,0,0,2.371,5.539,4.98,4.98,0,0,0-2.739-9.394" transform="translate(-1624.836 -280.248)" fill="#fca186"/>
            <path id="Trazado_878497" data-name="Trazado 878497" d="M1975.218,298.707a4.97,4.97,0,0,0,2.138,3.631,15.589,15.589,0,0,0-.115-8.123,4.975,4.975,0,0,0-2.023,4.492" transform="translate(-1751.479 -260.891)" fill="#fca186"/>
            <path id="Trazado_878498" data-name="Trazado 878498" d="M1885.042,289.91c-.3.089-.418.576-.266,1.089s.518.856.816.768.418-.576.266-1.089-.518-.857-.816-.768" transform="translate(-1671.242 -257.061)" fill="#38261f"/>
            <path id="Trazado_878499" data-name="Trazado 878499" d="M1962.87,277.748c-.272.081-.381.525-.242.992s.472.781.744.7.381-.525.242-.992-.471-.78-.744-.7" transform="translate(-1740.282 -246.278)" fill="#38261f"/>
            <path id="Trazado_878500" data-name="Trazado 878500" d="M1781.44,156.174c-.074-.25,1.705-1.471,4.467-2.343a15.42,15.42,0,0,0-6.4,1.7c-3.975,2.085-5.983,5.967-5.7,6.234.216.206,2.035-1.491,2.41-1.142.258.24-.409,1.224-.217,1.367.346.258,2.812-2.725,3.289-2.4.21.143-.161.795.047.951.391.294,1.992-1.8,4.494-3.426,2.288-1.49,4.2-1.863,4.148-2.046-.1-.337-6.455,1.39-6.54,1.1" transform="translate(-1572.879 -136.391)" fill="#254460"/>
            <path id="Trazado_878501" data-name="Trazado 878501" d="M2032.406,1087.135c5.957,1.489,15.923-2.291,15.923-2.291l-9.164-17.871c-3.207-.344-12.715,18.672-6.759,20.162" transform="translate(-1800.507 -946.121)" fill="#fcc5a7"/>
            <path id="Trazado_878502" data-name="Trazado 878502" d="M989.451,1576.052c-.655.178-1.628,1.725-1.628,1.725s.83-6.469,3.255-6.795a33.6,33.6,0,0,0-14.148-2.557s-1.142.952-1.622,4.873a84.048,84.048,0,0,1-1.478,9.7c-.511,1.658-4.28,10.209-.836,16.7,0,0,3.895.3,4.949-.846s8-13.548,9.224-14.2,4.149-2.147,4.179-3.228-1.24-5.542-1.9-5.364" transform="translate(-861.518 -1390.766)" fill="#34cba0"/>
            <path id="Trazado_878503" data-name="Trazado 878503" d="M976.931,1568.43s-1.142.952-1.622,4.873a84.089,84.089,0,0,1-1.477,9.7c-.511,1.658-4.28,10.209-.836,16.7a16.4,16.4,0,0,0,2.59-.035c-3.259-6.562.437-15.085.943-16.752a86.661,86.661,0,0,0,1.482-9.849,10.6,10.6,0,0,1,1.357-4.622c-.787-.031-1.6-.038-2.437-.01" transform="translate(-861.519 -1390.77)" fill="#fff"/>
            <path id="Trazado_878504" data-name="Trazado 878504" d="M1056.888,1649.874a.141.141,0,0,0-.189.072c-.021.045-1.986,4.47-2.557,5.369-.608.957-4.545,7.662-4.757,8.415a.146.146,0,0,0,.013.109l.93,1.648a.144.144,0,0,0,.125.073.143.143,0,0,0,.125-.214l-.9-1.593c.35-.942,4.122-7.366,4.7-8.285s2.5-5.224,2.577-5.406a.142.142,0,0,0-.073-.189" transform="translate(-930.524 -1462.993)" fill="#697055"/>
            <path id="Trazado_878505" data-name="Trazado 878505" d="M1026.259,1571.382c-2.594,2.273-2.831,7.511-2.971,10.642a12.752,12.752,0,0,1-.2,2.246c-1.207,3.844-3.1,10.562-2.214,12.364a1.01,1.01,0,0,0,.848.666h.038c1.17,0,2.629-2.378,2.692-2.481a.143.143,0,1,0-.245-.148c-.4.657-1.608,2.343-2.445,2.343h-.027c-.245-.011-.442-.176-.6-.506-.613-1.25.2-5.68,2.23-12.152a12.44,12.44,0,0,0,.21-2.319c.139-3.084.372-8.246,2.875-10.438a.144.144,0,0,0-.19-.217" transform="translate(-905.047 -1393.372)" fill="#697055"/>
            <path id="Trazado_878506" data-name="Trazado 878506" d="M1050.336,1760.176a.287.287,0,0,0-.444.363l1.449,1.774a.287.287,0,1,0,.444-.363Z" transform="translate(-930.921 -1560.72)" fill="#fff"/>
            <path id="Trazado_878507" data-name="Trazado 878507" d="M1058.142,1745.09a.287.287,0,0,0-.441.367l1.484,1.775a.289.289,0,0,0,.22.1.282.282,0,0,0,.184-.066.287.287,0,0,0,.037-.4Z" transform="translate(-937.845 -1547.344)" fill="#fff"/>
            <path id="Trazado_878508" data-name="Trazado 878508" d="M1066.523,1731.316a.286.286,0,1,0-.438.369l1.619,1.926a.287.287,0,0,0,.439-.369Z" transform="translate(-945.277 -1535.131)" fill="#fff"/>
            <path id="Trazado_878509" data-name="Trazado 878509" d="M1076.177,1716.285a.286.286,0,1,0-.446.36l1.617,2a.286.286,0,0,0,.446-.36Z" transform="translate(-953.834 -1521.799)" fill="#fff"/>
            <path id="Trazado_878510" data-name="Trazado 878510" d="M1084.6,1701.211a.286.286,0,0,0-.458.344l1.579,2.109a.286.286,0,1,0,.458-.344Z" transform="translate(-961.296 -1508.424)" fill="#fff"/>
            <path id="Trazado_878511" data-name="Trazado 878511" d="M1094.008,1684.243a.286.286,0,1,0-.494.29l1.63,2.774a.286.286,0,0,0,.494-.29Z" transform="translate(-969.624 -1493.355)" fill="#fff"/>
            <path id="Trazado_878512" data-name="Trazado 878512" d="M1102.872,1664.3a.287.287,0,0,0-.487.3,20.632,20.632,0,0,1,2.041,4.175.287.287,0,0,0,.279.222.267.267,0,0,0,.064-.007.287.287,0,0,0,.215-.344,20.62,20.62,0,0,0-2.113-4.35" transform="translate(-977.487 -1475.673)" fill="#fff"/>
            <path id="Trazado_878513" data-name="Trazado 878513" d="M1055.07,1660.89a2.77,2.77,0,0,0,.359-2.016,2.615,2.615,0,0,0-1.361-1.8,4.208,4.208,0,0,0-1.893-.333,1.072,1.072,0,0,0-.512.082.975.975,0,0,0-.374,1.258,2.173,2.173,0,0,0,.758.835c.438.333.853.654,1.241.984a6.759,6.759,0,0,0-1.422-.193c-.163-.007-.325-.012-.489-.017a6.7,6.7,0,0,1-2.071-.275,7.023,7.023,0,0,1-.9-.424,4.325,4.325,0,0,0-1.741-.617.279.279,0,0,0-.3.269.288.288,0,0,0,.27.3,3.837,3.837,0,0,1,1.507.552,7.578,7.578,0,0,0,.978.457,7.239,7.239,0,0,0,2.247.307c.16.005.32.01.48.017a3.969,3.969,0,0,1,2.359.686.723.723,0,0,1,.287.393,1.107,1.107,0,0,1-.063.451s-.02.07-.02.07a5.016,5.016,0,0,0-.018,2.5c.139.552.492,1.135,1.07,1.135h.031a1,1,0,0,0,.856-.684,2.054,2.054,0,0,0,.069-.977,6.077,6.077,0,0,0-1.342-2.965m-2.678-2.431a1.71,1.71,0,0,1-.577-.6c-.083-.194-.037-.454.092-.514a.5.5,0,0,1,.2-.028h.059a3.76,3.76,0,0,1,1.644.273,2.066,2.066,0,0,1,1.055,1.405,2.226,2.226,0,0,1-.194,1.437,16.943,16.943,0,0,0-2.28-1.969m3.413,6.171a.445.445,0,0,1-.339.313c-.219.034-.44-.358-.525-.7a4.493,4.493,0,0,1,.034-2.283c.015-.053.028-.108.042-.164a5.189,5.189,0,0,1,.825,2.134,1.5,1.5,0,0,1-.037.7" transform="translate(-927.844 -1469.092)" fill="#fff"/>
            <path id="Trazado_878514" data-name="Trazado 878514" d="M2297.773,1718.963c-1.262-.918-14.363-6.418-15.152-7.563s-2.6-3.88-3.679-3.788-5.367,1.857-5.117,2.488,1.9,1.423,1.9,1.423-5.1,1.17-5.693-1.2c0,0-3.556,4.977-2.371,13.08,0,0,1.075,1.027,5.025,1.063a84.1,84.1,0,0,1,9.8.375c1.705.321,10.626,3.1,16.686-1.052,0,0-.136-3.9-1.4-4.822" transform="translate(-2010.603 -1514.2)" fill="#34cba0"/>
            <path id="Trazado_878515" data-name="Trazado 878515" d="M2281.921,1826.827a86.681,86.681,0,0,0-9.953-.362,10.6,10.6,0,0,1-4.745-.828c.058.785.143,1.593.264,2.422,0,0,1.075,1.027,5.025,1.063a84.023,84.023,0,0,1,9.8.375c1.705.32,10.627,3.1,16.686-1.052a16.407,16.407,0,0,0-.326-2.57c-6.154,3.978-15.038,1.266-16.751.951" transform="translate(-2010.431 -1618.861)" fill="#fff"/>
            <path id="Trazado_878516" data-name="Trazado 878516" d="M2355.576,1745.52l-1.481,1.073c-.976-.241-7.784-3.265-8.762-3.74s-5.472-1.891-5.662-1.951a.143.143,0,1,0-.086.273c.046.016,4.665,1.469,5.622,1.935,1.019.5,8.125,3.652,8.9,3.778a.145.145,0,0,0,.107-.025l1.533-1.11a.144.144,0,0,0,.058-.133.141.141,0,0,0-.026-.068.145.145,0,0,0-.2-.032" transform="translate(-2074.507 -1543.716)" fill="#697055"/>
            <path id="Trazado_878517" data-name="Trazado 878517" d="M2289.984,1788.2a.143.143,0,1,0-.12.26c.7.323,2.509,1.334,2.6,2.165a.242.242,0,0,1,0,.027c.017.245-.125.459-.435.656-1.173.75-5.667.442-12.325-.846a12.458,12.458,0,0,0-2.329.053c-3.08.21-8.236.56-10.7-1.679a.145.145,0,0,0-.2.01.146.146,0,0,0,.01.2c2.551,2.321,7.783,1.966,10.909,1.753a12.783,12.783,0,0,1,2.255-.057c3.955.766,10.844,1.887,12.534.806a1.011,1.011,0,0,0,.566-.917c0-.012,0-.026,0-.038-.131-1.162-2.659-2.344-2.768-2.4" transform="translate(-2009.742 -1585.652)" fill="#697055"/>
            <path id="Trazado_878518" data-name="Trazado 878518" d="M2458.148,1775.055a.287.287,0,0,0-.406.006l-1.6,1.639a.287.287,0,0,0,.411.4l1.6-1.64a.287.287,0,0,0-.006-.405" transform="translate(-2177.881 -1573.936)" fill="#fff"/>
            <path id="Trazado_878519" data-name="Trazado 878519" d="M2442.277,1768.693a.287.287,0,0,0-.4.009l-1.6,1.675a.287.287,0,0,0,.414.4l1.6-1.675a.287.287,0,0,0,.077-.23.281.281,0,0,0-.087-.175" transform="translate(-2163.813 -1568.296)" fill="#fff"/>
            <path id="Trazado_878520" data-name="Trazado 878520" d="M2427.778,1760.577a.286.286,0,0,0-.406.011l-1.731,1.826a.286.286,0,1,0,.416.394l1.731-1.826a.287.287,0,0,0-.01-.4" transform="translate(-2150.836 -1561.099)" fill="#fff"/>
            <path id="Trazado_878521" data-name="Trazado 878521" d="M2411.828,1752.634a.286.286,0,0,0-.4,0l-1.8,1.833a.286.286,0,0,0,.407.4l1.8-1.833a.285.285,0,0,0,0-.405" transform="translate(-2136.625 -1554.053)" fill="#fff"/>
            <path id="Trazado_878522" data-name="Trazado 878522" d="M2396.015,1746.2a.285.285,0,0,0-.405-.011l-1.918,1.807a.286.286,0,1,0,.393.417L2396,1746.6a.287.287,0,0,0,.012-.4" transform="translate(-2122.495 -1548.338)" fill="#fff"/>
            <path id="Trazado_878523" data-name="Trazado 878523" d="M2378.344,1737.637l-2.573,1.933a.286.286,0,1,0,.344.458l2.573-1.933a.286.286,0,0,0,.113-.261.29.29,0,0,0-.056-.14.286.286,0,0,0-.4-.057" transform="translate(-2106.582 -1540.777)" fill="#fff"/>
            <path id="Trazado_878524" data-name="Trazado 878524" d="M2359.4,1725.811a.287.287,0,0,0-.365-.175,20.635,20.635,0,0,0-4.084,2.59.287.287,0,0,0,.358.449,20.572,20.572,0,0,1,3.918-2.5.287.287,0,0,0,.189-.3.223.223,0,0,0-.015-.063" transform="translate(-2088.128 -1530.171)" fill="#fff"/>
            <path id="Trazado_878525" data-name="Trazado 878525" d="M2356.233,1714.66a1,1,0,0,0-.776-.774,2.048,2.048,0,0,0-.979.042,6.073,6.073,0,0,0-2.794,1.667,2.772,2.772,0,0,0-2.044-.129,2.617,2.617,0,0,0-1.636,1.555,4.212,4.212,0,0,0-.117,1.919,1.067,1.067,0,0,0,.14.5.976.976,0,0,0,1.292.23,2.181,2.181,0,0,0,.744-.848c.281-.473.553-.921.838-1.344a6.741,6.741,0,0,0-.032,1.435c.011.163.024.324.038.488a6.677,6.677,0,0,1-.04,2.089,6.919,6.919,0,0,1-.319.946,4.332,4.332,0,0,0-.417,1.8.279.279,0,0,0,.3.271.287.287,0,0,0,.271-.3,3.842,3.842,0,0,1,.379-1.56,7.553,7.553,0,0,0,.344-1.023,7.226,7.226,0,0,0,.052-2.268c-.013-.16-.026-.319-.037-.478a3.971,3.971,0,0,1,.415-2.421.722.722,0,0,1,.358-.33,1.1,1.1,0,0,1,.455.012l.072.012a5.014,5.014,0,0,0,2.489-.265c.533-.2,1.072-.617,1.007-1.191a.22.22,0,0,0,0-.031m-6.663,3.87a1.719,1.719,0,0,1-.535.642c-.184.1-.447.087-.521-.034a.5.5,0,0,1-.051-.2c0-.02,0-.039-.007-.059a3.765,3.765,0,0,1,.086-1.664,2.068,2.068,0,0,1,1.277-1.207,2.229,2.229,0,0,1,1.45.031,16.944,16.944,0,0,0-1.7,2.488m5.458-3.185a4.5,4.5,0,0,1-2.272.224c-.054-.008-.11-.016-.167-.023a5.186,5.186,0,0,1,2.027-1.061,1.5,1.5,0,0,1,.7-.042.444.444,0,0,1,.349.3c.058.213-.306.477-.637.6" transform="translate(-2081.91 -1519.728)" fill="#fff"/>
            <path id="Trazado_878526" data-name="Trazado 878526" d="M915.849,245.947l-1.114-10.553-10.516-1.108-1.2,14.158-2.355.65-.71,6.248s9.279,6.536,14.16,5.853,7.831-10.479,7.831-10.479l-3.157-1.082a4.385,4.385,0,0,1-2.939-3.687" transform="translate(-798.023 -207.75)" fill="#fcc5a7"/>
            <path id="Trazado_878527" data-name="Trazado 878527" d="M958.968,233.3s-.836,9.036,9.155,11.395l-.386-4.255Z" transform="translate(-850.337 -206.872)" fill="#fca186"/>
            <path id="Trazado_878528" data-name="Trazado 878528" d="M1140.777,940.261l.028-1.105c-1.019.884-.028,1.105-.028,1.105" transform="translate(-1011.186 -832.785)" fill="#fcc5a7"/>
            <path id="Trazado_878529" data-name="Trazado 878529" d="M1159.8,572.572l-.277-.532-11.188,7.057,7.4,14.63-11.188,14.114-.145,5.78a7.243,7.243,0,0,1,1.177-.788c2.754-1.549,12.788-4.639,18.073-8.95,6.541-5.336,6.024-8.778,5.164-12.048-.842-3.2-4.815-11.179-9.017-19.261" transform="translate(-1014.788 -507.249)" fill="#fcc5a7"/>
            <path id="Trazado_878530" data-name="Trazado 878530" d="M544.474,529.578l-12.737-4.647c-3.27,4.991-14.975,18.073-15.835,21.687s5.164,11.7,12.221,16.179,16.351,9.639,16.351,9.639l3.787-6.541-16.7-18.245Z" transform="translate(-457.396 -465.476)" fill="#fcc5a7"/>
            <path id="Trazado_878531" data-name="Trazado 878531" d="M1088.37,993.03s-7.515,18.8-7.515,21.075,34.336,5.459,34.146,7.163-3.114,9.02-2.411,19.1c.735,10.538,5.356,26.835,5.773,35.74a43.892,43.892,0,0,0,.757,6.059l9.325,4.4c-4.26-12.78,2.066-63.079,2.066-63.079,1.136-2.272-.368-10.783-.368-10.783-2.941-10.783-41.774-19.677-41.774-19.677" transform="translate(-958.434 -880.557)" fill="#fcc5a7"/>
            <path id="Trazado_878532" data-name="Trazado 878532" d="M1463.981,1174.653a.071.071,0,1,0-.142.016c.024.21.581,5.146,1.531,6.285a.071.071,0,0,0,.055.026.065.065,0,0,0,.045-.016.07.07,0,0,0,.01-.1c-.923-1.108-1.492-6.16-1.5-6.211" transform="translate(-1298.04 -1041.553)" fill="#c25353"/>
            <path id="Trazado_878533" data-name="Trazado 878533" d="M207.051,1185.294c-2.263.2-2.353,34.1-4.067,34.059s-9.345-1.732-19.324-.151c-10.433,1.652-32.148,7.852-35.1,8.871a28.391,28.391,0,0,1-5.969,1.283l-3.571,9.673c12.359-5.359,62.616-4.183,62.616-4.183,2.362.933,10.709-1.308,10.709-1.308,10.485-3.871,16.357-42.6,16.357-42.6s-19.388-5.845-21.651-5.647" transform="translate(-123.273 -1051.04)" fill="#fcc5a7"/>
            <path id="Trazado_878534" data-name="Trazado 878534" d="M731.78,1558.911c-.207.042-5.076,1.028-6.128,2.074a.071.071,0,0,0,.05.122.071.071,0,0,0,.05-.02c1.022-1.016,6.006-2.026,6.057-2.035a.071.071,0,0,0-.029-.14" transform="translate(-643.444 -1382.344)" fill="#c25353"/>
            <path id="Trazado_878535" data-name="Trazado 878535" d="M764.877,838.551c-.648-3.066-1.167-6.724-2.114-10.131a50.27,50.27,0,0,0-1.846-5.538c-7.194,1.893-28.025-1.115-28.025-1.115-1.85,4.9-8.279,10.912-13.012,18.864s-5.68,22.625-5.68,22.625c11.739,6.627,28.305,7.573,28.305,7.573l2.44-6.629,18.9-.924c12.253-4.084,6.913-20.315,6.913-20.315s-5.432-2.287-5.881-4.411" transform="translate(-633.308 -728.691)" fill="#30169a"/>
            <path id="Trazado_878536" data-name="Trazado 878536" d="M1134.728,1032.588c6.372,1.593,17.032-2.451,17.032-2.451l-9.8-19.115c-3.431-.368-13.6,19.972-7.229,21.566" transform="translate(-1004.384 -896.507)" fill="#fcc5a7"/>
            <path id="Trazado_878537" data-name="Trazado 878537" d="M19.137,1555.553c-.7.191-1.741,1.845-1.741,1.845s.888-6.919,3.482-7.268A35.94,35.94,0,0,0,5.745,1547.4s-1.221,1.018-1.735,5.212a89.879,89.879,0,0,1-1.58,10.372c-.546,1.773-4.578,10.92-.894,17.861,0,0,4.166.326,5.294-.905s8.554-14.492,9.866-15.192,4.438-2.3,4.47-3.453-1.326-5.929-2.027-5.738" transform="translate(0 -1372.117)" fill="#f2414b"/>
            <path id="Trazado_878538" data-name="Trazado 878538" d="M5.745,1547.4s-1.221,1.018-1.735,5.212a89.945,89.945,0,0,1-1.58,10.372c-.546,1.774-4.578,10.92-.894,17.861a17.561,17.561,0,0,0,2.77-.037c-3.485-7.019.468-16.136,1.009-17.918A92.67,92.67,0,0,0,6.9,1552.355a11.345,11.345,0,0,1,1.452-4.944c-.842-.033-1.711-.04-2.607-.011" transform="translate(0 -1372.121)" fill="#fff"/>
            <path id="Trazado_878539" data-name="Trazado 878539" d="M91.269,1634.516a.151.151,0,0,0-.2.078c-.022.048-2.124,4.781-2.735,5.743-.65,1.023-4.861,8.2-5.088,9a.154.154,0,0,0,.013.117l.995,1.763a.154.154,0,1,0,.268-.151l-.962-1.7c.374-1.008,4.409-7.88,5.032-8.862s2.67-5.588,2.756-5.783a.153.153,0,0,0-.078-.2" transform="translate(-73.811 -1449.374)" fill="#50509e"/>
            <path id="Trazado_878540" data-name="Trazado 878540" d="M58.51,1550.558c-2.775,2.431-3.028,8.034-3.178,11.383a13.65,13.65,0,0,1-.211,2.4c-1.29,4.111-3.313,11.3-2.368,13.225a1.08,1.08,0,0,0,.907.712H53.7c1.251,0,2.812-2.543,2.879-2.654a.153.153,0,1,0-.262-.159c-.427.7-1.72,2.506-2.615,2.506h-.029c-.262-.011-.473-.188-.645-.541-.656-1.338.213-6.076,2.386-13a13.323,13.323,0,0,0,.225-2.481c.148-3.3.4-8.821,3.075-11.165a.154.154,0,1,0-.2-.231" transform="translate(-46.561 -1374.905)" fill="#50509e"/>
            <path id="Trazado_878541" data-name="Trazado 878541" d="M84.262,1752.5a.307.307,0,1,0-.475.389l1.55,1.9a.307.307,0,1,0,.475-.388Z" transform="translate(-74.236 -1553.908)" fill="#fff"/>
            <path id="Trazado_878542" data-name="Trazado 878542" d="M92.612,1736.365a.307.307,0,0,0-.471.392l1.587,1.9a.309.309,0,0,0,.235.109.3.3,0,0,0,.2-.071.307.307,0,0,0,.039-.432Z" transform="translate(-81.642 -1539.601)" fill="#fff"/>
            <path id="Trazado_878543" data-name="Trazado 878543" d="M101.578,1721.63a.306.306,0,1,0-.469.394l1.732,2.06a.306.306,0,0,0,.469-.395Z" transform="translate(-89.593 -1526.536)" fill="#fff"/>
            <path id="Trazado_878544" data-name="Trazado 878544" d="M111.9,1705.554a.306.306,0,1,0-.477.385l1.73,2.139a.306.306,0,0,0,.477-.385Z" transform="translate(-98.746 -1512.276)" fill="#fff"/>
            <path id="Trazado_878545" data-name="Trazado 878545" d="M120.911,1689.429a.306.306,0,1,0-.49.368l1.69,2.256a.306.306,0,0,0,.49-.368Z" transform="translate(-106.728 -1497.97)" fill="#fff"/>
            <path id="Trazado_878546" data-name="Trazado 878546" d="M130.977,1671.28a.306.306,0,1,0-.528.31l1.744,2.968a.306.306,0,0,0,.529-.31Z" transform="translate(-115.636 -1481.851)" fill="#fff"/>
            <path id="Trazado_878547" data-name="Trazado 878547" d="M140.458,1649.944a.307.307,0,0,0-.521.326,22.035,22.035,0,0,1,2.184,4.466.307.307,0,0,0,.3.237.276.276,0,0,0,.069-.008.307.307,0,0,0,.23-.368,22.069,22.069,0,0,0-2.26-4.653" transform="translate(-124.046 -1462.939)" fill="#fff"/>
            <path id="Trazado_878548" data-name="Trazado 878548" d="M89.327,1646.3a2.964,2.964,0,0,0,.384-2.157,2.8,2.8,0,0,0-1.456-1.926,4.5,4.5,0,0,0-2.026-.356,1.141,1.141,0,0,0-.548.088,1.044,1.044,0,0,0-.4,1.346,2.325,2.325,0,0,0,.811.893c.469.356.912.7,1.328,1.053a7.228,7.228,0,0,0-1.521-.207c-.174-.008-.347-.013-.523-.018a7.15,7.15,0,0,1-2.215-.294,7.458,7.458,0,0,1-.967-.454,4.63,4.63,0,0,0-1.862-.661.3.3,0,0,0-.324.288.308.308,0,0,0,.288.324,4.108,4.108,0,0,1,1.612.591,8.181,8.181,0,0,0,1.046.489,7.732,7.732,0,0,0,2.4.328c.171.006.343.011.513.018a4.246,4.246,0,0,1,2.523.733.774.774,0,0,1,.307.42,1.167,1.167,0,0,1-.069.482s-.019.074-.02.075a5.363,5.363,0,0,0-.019,2.677c.148.591.526,1.214,1.145,1.214h.034a1.072,1.072,0,0,0,.916-.731,2.192,2.192,0,0,0,.074-1.046,6.5,6.5,0,0,0-1.435-3.171m-2.864-2.6a1.83,1.83,0,0,1-.617-.646c-.089-.208-.039-.485.1-.55a.535.535,0,0,1,.215-.03h.063a4.031,4.031,0,0,1,1.759.292,2.211,2.211,0,0,1,1.129,1.5,2.382,2.382,0,0,1-.208,1.537,18.114,18.114,0,0,0-2.439-2.106m3.651,6.6a.476.476,0,0,1-.363.335c-.234.036-.47-.383-.562-.75a4.811,4.811,0,0,1,.037-2.442c.015-.056.031-.115.045-.175a5.546,5.546,0,0,1,.883,2.282,1.6,1.6,0,0,1-.039.75" transform="translate(-70.946 -1455.896)" fill="#fff"/>
            <path id="Trazado_878549" data-name="Trazado 878549" d="M1418.577,1708.418c-1.351-.982-15.364-6.866-16.208-8.09s-2.782-4.151-3.935-4.052-5.742,1.986-5.473,2.662,2.03,1.522,2.03,1.522-5.451,1.251-6.09-1.287c0,0-3.8,5.324-2.536,13.992,0,0,1.149,1.1,5.375,1.136a89.888,89.888,0,0,1,10.484.4c1.824.343,11.366,3.318,17.848-1.126,0,0-.146-4.176-1.5-5.158" transform="translate(-1229.113 -1504.149)" fill="#f2414b"/>
            <path id="Trazado_878550" data-name="Trazado 878550" d="M1401.621,1823.793a92.7,92.7,0,0,0-10.646-.387,11.34,11.34,0,0,1-5.075-.885c.062.84.153,1.7.282,2.591,0,0,1.15,1.1,5.375,1.136a89.851,89.851,0,0,1,10.484.4c1.824.343,11.367,3.317,17.848-1.126a17.579,17.579,0,0,0-.349-2.749c-6.582,4.255-16.086,1.355-17.918,1.018" transform="translate(-1228.928 -1616.097)" fill="#fff"/>
            <path id="Trazado_878551" data-name="Trazado 878551" d="M1480.407,1736.823l-1.585,1.148c-1.044-.258-8.326-3.493-9.372-4s-5.853-2.023-6.057-2.087a.153.153,0,0,0-.092.292c.05.017,4.991,1.571,6.014,2.07,1.09.53,8.691,3.906,9.517,4.041a.157.157,0,0,0,.115-.027l1.64-1.187a.155.155,0,0,0,.062-.142.152.152,0,0,0-.028-.073.155.155,0,0,0-.215-.035" transform="translate(-1297.468 -1535.719)" fill="#50509e"/>
            <path id="Trazado_878552" data-name="Trazado 878552" d="M1410.245,1782.477a.153.153,0,1,0-.128.278c.746.345,2.684,1.427,2.785,2.316,0,.009,0,.019,0,.029.018.262-.134.491-.465.7-1.255.8-6.061.473-13.184-.9a13.326,13.326,0,0,0-2.491.056c-3.295.225-8.809.6-11.44-1.8a.154.154,0,1,0-.207.228c2.729,2.484,8.325,2.1,11.669,1.875a13.614,13.614,0,0,1,2.411-.061c4.231.819,11.6,2.018,13.407.862a1.081,1.081,0,0,0,.606-.981c0-.013,0-.028,0-.041-.141-1.243-2.844-2.508-2.962-2.562" transform="translate(-1228.191 -1580.576)" fill="#50509e"/>
            <path id="Trazado_878553" data-name="Trazado 878553" d="M1590.122,1768.417a.307.307,0,0,0-.434.006l-1.71,1.754a.307.307,0,0,0,.44.428l1.71-1.754a.308.308,0,0,0-.006-.434" transform="translate(-1408.041 -1568.044)" fill="#fff"/>
            <path id="Trazado_878554" data-name="Trazado 878554" d="M1573.144,1761.61a.307.307,0,0,0-.433.01l-1.707,1.791a.307.307,0,0,0,.443.424l1.708-1.791a.308.308,0,0,0,.082-.246.3.3,0,0,0-.092-.187" transform="translate(-1392.992 -1562.01)" fill="#fff"/>
            <path id="Trazado_878555" data-name="Trazado 878555" d="M1557.635,1752.929a.306.306,0,0,0-.433.012l-1.852,1.953a.306.306,0,0,0,.445.422l1.852-1.953a.307.307,0,0,0-.012-.433" transform="translate(-1379.112 -1554.313)" fill="#fff"/>
            <path id="Trazado_878556" data-name="Trazado 878556" d="M1540.576,1744.434a.306.306,0,0,0-.433,0l-1.93,1.96a.306.306,0,0,0,.436.431l1.93-1.96a.306.306,0,0,0,0-.433" transform="translate(-1363.912 -1546.776)" fill="#fff"/>
            <path id="Trazado_878557" data-name="Trazado 878557" d="M1523.661,1737.548a.3.3,0,0,0-.433-.013l-2.051,1.933a.306.306,0,1,0,.42.445l2.051-1.933a.3.3,0,0,0,.094-.258.3.3,0,0,0-.082-.175" transform="translate(-1348.797 -1540.663)" fill="#fff"/>
            <path id="Trazado_878558" data-name="Trazado 878558" d="M1504.759,1728.392l-2.752,2.068a.306.306,0,1,0,.368.49l2.752-2.068a.3.3,0,0,0,.121-.28.306.306,0,0,0-.489-.211" transform="translate(-1331.776 -1532.575)" fill="#fff"/>
            <path id="Trazado_878559" data-name="Trazado 878559" d="M1484.5,1715.744a.307.307,0,0,0-.391-.187,22.064,22.064,0,0,0-4.369,2.77.307.307,0,0,0,.382.481,22.032,22.032,0,0,1,4.191-2.673.306.306,0,0,0,.2-.324.273.273,0,0,0-.015-.067" transform="translate(-1312.037 -1521.232)" fill="#fff"/>
            <path id="Trazado_878560" data-name="Trazado 878560" d="M1481.108,1703.816a1.072,1.072,0,0,0-.83-.828,2.191,2.191,0,0,0-1.047.044,6.5,6.5,0,0,0-2.99,1.783,2.964,2.964,0,0,0-2.186-.138,2.8,2.8,0,0,0-1.75,1.664,4.5,4.5,0,0,0-.125,2.053,1.148,1.148,0,0,0,.149.534,1.043,1.043,0,0,0,1.382.246,2.325,2.325,0,0,0,.8-.906c.3-.506.591-.985.9-1.438a7.225,7.225,0,0,0-.034,1.535c.012.174.026.347.041.521a7.157,7.157,0,0,1-.042,2.234,7.461,7.461,0,0,1-.342,1.012,4.627,4.627,0,0,0-.447,1.924.3.3,0,0,0,.323.29.308.308,0,0,0,.29-.323,4.106,4.106,0,0,1,.405-1.668,8.135,8.135,0,0,0,.368-1.095,7.747,7.747,0,0,0,.055-2.425c-.014-.171-.028-.342-.04-.512a4.245,4.245,0,0,1,.444-2.59.77.77,0,0,1,.383-.353,1.184,1.184,0,0,1,.487.013l.077.013a5.363,5.363,0,0,0,2.663-.283c.57-.214,1.147-.66,1.077-1.275,0-.011,0-.022,0-.033m-7.127,4.139a1.836,1.836,0,0,1-.572.686c-.2.112-.478.094-.558-.036a.539.539,0,0,1-.054-.211c0-.021,0-.042-.007-.063a4.024,4.024,0,0,1,.092-1.78,2.21,2.21,0,0,1,1.366-1.291,2.384,2.384,0,0,1,1.551.033,18.11,18.11,0,0,0-1.818,2.661m5.839-3.406a4.811,4.811,0,0,1-2.43.239c-.058-.009-.118-.018-.179-.025a5.538,5.538,0,0,1,2.168-1.134,1.607,1.607,0,0,1,.749-.046.476.476,0,0,1,.374.323c.063.228-.328.51-.681.643" transform="translate(-1305.386 -1510.061)" fill="#fff"/>
            <path id="Trazado_878561" data-name="Trazado 878561" d="M618.677,362.9s1.549,8.456-5.68,10.263-10.843-10.65-10.843-10.65-14.845,1.614-20.525,4.97-19.493,25.3-19.493,25.3,5.034,9.294,15.491,10.2l8.133-7.229a161.29,161.29,0,0,0-.258,18.847c.516,9.036-4.647,27.5-4.647,27.5s7.455,1.949,18.2-1.678c13.77-4.647,29.174-10.2,30.724-9.94s1.291-6.713.258-7.746-1.291-7.745-1.291-7.745l5.68-45.7s-14.975-6.39-15.749-6.39" transform="translate(-498.466 -321.457)" fill="#f2414b"/>
            <path id="Trazado_878562" data-name="Trazado 878562" d="M745.312,835.661l-5.734,3.528,1.588,3.881s4.234,2.117,6.175,2.117,11.291-5.293,11.291-5.293l-2.646-8.821Z" transform="translate(-655.811 -736.944)" fill="#fcc5a7"/>
            <path id="Trazado_878563" data-name="Trazado 878563" d="M850.674,817.055,846.087,819l-3.7,6.351,5.116,3a25.613,25.613,0,0,0,2.911,1.94,3.927,3.927,0,0,0,3.264.618l-1.588-2.558-3.352-2.117,3.176.176a4.745,4.745,0,0,0,3.529.882l-1.235-1.94c1.941.706,2.823-.177,2.823-.177l-4.587-4.058h-4.587l3.528-1.941c6.88,1.941,6.7-.529,6.7-.529Z" transform="translate(-746.971 -724.513)" fill="#fcc5a7"/>
            <path id="Trazado_878564" data-name="Trazado 878564" d="M1113.865,837.353c-.591-.164-5.561.044-5.561.044s.649,1.8,1.609,1.647a24.057,24.057,0,0,1,3.529.029l-5.339,1.4s.538,1.128,1.155,1.027-.6,1.054-.6,1.054a2.679,2.679,0,0,0,2.528.8,2.909,2.909,0,0,1,2.376.3l-3.885.377a1.282,1.282,0,0,0,1.54,1.224,10.563,10.563,0,0,1,2.664-.09l.948,1.225,2.205-5.391-2.135-2.081s-.442-1.4-1.033-1.568" transform="translate(-982.596 -742.457)" fill="#fcc5a7"/>
            <path id="Trazado_878565" data-name="Trazado 878565" d="M1155.922,422.353l-5.68,24.269,4.26,7.229c12.78-2.84,14.974-7.487,14.974-7.487s-6.067-12.135-6.584-13.555-2.969-8.133-6.971-10.456" transform="translate(-1019.962 -374.516)" fill="#f2414b"/>
            <path id="Trazado_878566" data-name="Trazado 878566" d="M342.666,979.445c-3.357-.774-25.561-9.494-25.561-9.494l-22.2,14.141-27.883,7.229s-3.615,34.338-4.389,35.371-18.331-1.033-24.785,1.549-9.036-.258-13.942.258-7.229,5.68-7.229,5.68l-7.229,2.582c-1.033,3.615,2.065,10.069,2.065,10.069l7.745-.516c2.582,3.357,14.974,1.807,20.654,0s10.585-.258,14.716-.258,12.393,2.323,21.687-2.066,19.363-45.44,20.86-48.389,15.8,2.175,17.867,2.691,22.462,3.1,24.011,4.131-2.582,20.4-1.291,24.011,1.032,5.68,1.807,9.811,2.84,4.905,2.84,4.905l1.033,6.713a53.977,53.977,0,0,0,11.36-.516v-6.455a16.782,16.782,0,0,0,2.582-4.389c1.549-3.356,1.033-20.4,1.549-27.367a95.314,95.314,0,0,0,.258-14.716c-.258-5.938-13.167-14.2-16.523-14.974" transform="translate(-185.535 -860.092)" fill="#30169a"/>
            <path id="Trazado_878567" data-name="Trazado 878567" d="M1094.671,1103.755a.958.958,0,1,0,.959.959.958.958,0,0,0-.959-.959" transform="translate(-969.835 -978.741)" fill="#fff"/>
            <path id="Trazado_878568" data-name="Trazado 878568" d="M985.827,1142.792a.959.959,0,1,0,.959.959.959.959,0,0,0-.959-.959" transform="translate(-873.319 -1013.356)" fill="#fff"/>
            <path id="Trazado_878569" data-name="Trazado 878569" d="M1085.649,1006.185a13.1,13.1,0,0,0,.171-1.449,12.2,12.2,0,0,0-1.165-3.72l-.511.245a12.05,12.05,0,0,1,1.108,3.475,13.675,13.675,0,0,1-.165,1.366c-.369,2.5-.985,6.694.993,7.6l.237-.517c-1.592-.728-.991-4.81-.668-7" transform="translate(-961.351 -887.639)" fill="#fff"/>
            <path id="Trazado_878570" data-name="Trazado 878570" d="M995.145,1020.032c-.1.137-2.4,3.385-2.183,6.434.226,3.157-.353,7.637-.888,8.066l.356.442c.877-.7,1.3-5.751,1.1-8.548-.2-2.843,2.054-6.031,2.077-6.062Z" transform="translate(-879.709 -904.5)" fill="#fff"/>
            <path id="Trazado_878571" data-name="Trazado 878571" d="M915.212,38.936c-.092-.373-.178-.746-.289-1.114-2.19-7.262-6.62-9.418-13.681-8.254-8.626,1.422-9.6,11.37-7.66,17.642.2.653,3.723.895,3.935,1.526,0,0-.949,10.441,8.542,12.339,1.126.225,5.147.707,5.979-.191a16.679,16.679,0,0,0,3.489-17.044c.463-.994.116-3.147-.316-4.9" transform="translate(-791.627 -25.956)" fill="#fcc5a7"/>
            <path id="Trazado_878572" data-name="Trazado 878572" d="M1075.569,156.79a8.056,8.056,0,0,0-.015,11.455,17.013,17.013,0,0,0-.033-11.329c.018-.039.033-.083.049-.126" transform="translate(-951.621 -139.032)" fill="#fca186"/>
            <path id="Trazado_878573" data-name="Trazado 878573" d="M913.776,175.989a3.954,3.954,0,0,0-3.233,1.9c1.111.3,2.621.543,2.758.95a14.281,14.281,0,0,0,1.792,7.8,5.494,5.494,0,0,0,2.954-5.19c0-3.014-1.912-5.458-4.271-5.458" transform="translate(-807.412 -156.056)" fill="#fca186"/>
            <path id="Trazado_878574" data-name="Trazado 878574" d="M990.438,224.654l-.268.312a7.116,7.116,0,0,0,4.969,1.941,4.488,4.488,0,0,0,1.431-.266l-.156-.381c-.028.011-2.824,1.1-5.975-1.606" transform="translate(-878.021 -199.209)" fill="#38261f"/>
            <path id="Trazado_878575" data-name="Trazado 878575" d="M966.657,129.089c-.91.558-.573,1.176-.435,1.38.081.119.419-.073,1.264-.3,1.8-.491,2.583-.251,2.909-.818a.954.954,0,0,0-.083-1.068c-.6-.6-3.537.736-3.657.809" transform="translate(-856.629 -113.614)" fill="#001830"/>
            <path id="Trazado_878576" data-name="Trazado 878576" d="M1058.763,125.567c-.1-.049-2.375-.723-2.71-.106a1.007,1.007,0,0,0,.136.961c.347.459.885.136,2.315.322.671.087.958.211,1,.094a1.159,1.159,0,0,0-.736-1.271" transform="translate(-936.38 -111.022)" fill="#001830"/>
            <path id="Trazado_878577" data-name="Trazado 878577" d="M988.312,165.766c-.3.078-.44.52-.318.987s.463.783.76.7.44-.52.318-.987-.463-.783-.76-.7" transform="translate(-876.052 -146.981)" fill="#38261f"/>
            <path id="Trazado_878578" data-name="Trazado 878578" d="M1064.716,156.113c-.271.071-.393.506-.271.972s.441.786.712.715.393-.506.271-.972-.441-.786-.712-.715" transform="translate(-943.841 -138.423)" fill="#38261f"/>
            <path id="Trazado_878579" data-name="Trazado 878579" d="M892.953,10.528c-3.926-1.183-10.551-3.585-16.876.131s-8.062,8.273-9.005,9.7c-1.207,1.825,2.454,9,4.87,13.318.771,1.378,2.175,1.116,2.761-.35l-.281-.683.548-2.942.367-11.005s12.017.607,15.066-2.238a8.079,8.079,0,0,1,1.547,3.091s4.929-7.84,1-9.023" transform="translate(-768.654 -7.685)" fill="#001830"/>
            <path id="Trazado_878580" data-name="Trazado 878580" d="M913.318,6.188l.319.26c7.386-9.065,20.041-5.247,20.168-5.207l.123-.393c-.13-.041-13.05-3.939-20.61,5.34" transform="translate(-809.873 -0.001)" fill="#001830"/>
            <path id="Trazado_878581" data-name="Trazado 878581" d="M887.471,166.964a4.009,4.009,0,1,0,4.645,2.7,3.811,3.811,0,0,0-4.645-2.7" transform="translate(-784.8 -147.915)" fill="#fcc5a7"/>
            <path id="Trazado_878582" data-name="Trazado 878582" d="M904.558,186.72a1.991,1.991,0,0,0-1.542.172l.214.352a1.6,1.6,0,0,1,1.206-.13,2.146,2.146,0,0,1,1.18,1.208c-.465.112-1.4.418-1.649,1.1l.387.14c.2-.555,1.214-.827,1.587-.885l.261-.041-.1-.243a2.693,2.693,0,0,0-1.542-1.67" transform="translate(-800.738 -165.495)" fill="#38261f"/>
            <path id="Trazado_878583" data-name="Trazado 878583" d="M937.981,76.976l.124,10.521c3.848-.692.866-12.637.866-12.637Z" transform="translate(-831.742 -66.381)" fill="#001830"/>
            <path id="Trazado_878584" data-name="Trazado 878584" d="M1037.665,175.5l-.075.4c.988.185,2.46.62,2.641,1.01a.1.1,0,0,1-.007.1,5.128,5.128,0,0,1-1.546,1.427l.211.353a5.44,5.44,0,0,0,1.693-1.577.506.506,0,0,0,.022-.481c-.335-.721-2.507-1.16-2.94-1.241" transform="translate(-920.07 -155.619)" fill="#38261f"/>
          </g>
        </g>
      </g>
    </g>
  </g>
</svg>
