<svg xmlns="http://www.w3.org/2000/svg" width="85" height="85" viewBox="0 0 85 85">
  <g id="Grupo_1101935" data-name="Grupo 1101935" transform="translate(-1020.165 -3135)">
    <g id="Grupo_1098883" data-name="Grupo 1098883" transform="translate(1.165 -3629)">
      <g id="Grupo_1098742" data-name="Grupo 1098742" transform="translate(1019 6764)">
        <rect id="Rect치ngulo_400898" data-name="Rect치ngulo 400898" width="85" height="85" rx="42.5" transform="translate(0 0)" fill="#30169a"/>
        <rect id="Rect치ngulo_400907" data-name="Rect치ngulo 400907" width="85" height="85" rx="42.5" transform="translate(0 0)" fill="none"/>
      </g>
    </g>
    <g id="_x31_13" transform="translate(1029.244 3143.919)">
      <path id="Trazado_878459" data-name="Trazado 878459" d="M51.1,11.1a.779.779,0,0,0,.6-.9l-.6-3.5a.765.765,0,1,0-1.5.3l.6,3.5a.779.779,0,0,0,.9.6Z" fill="#fff"/>
      <path id="Trazado_878460" data-name="Trazado 878460" d="M53.8,10.8a.669.669,0,0,0,.7-.6l.5-3a.765.765,0,1,0-1.5-.3l-.5,3a.817.817,0,0,0,.8.9Z" fill="#fff"/>
      <path id="Trazado_878461" data-name="Trazado 878461" d="M56.5,11.8l1.4-.6a.762.762,0,1,0-.6-1.4l-1.4.6a.819.819,0,0,0-.4,1A.731.731,0,0,0,56.5,11.8Z" fill="#fff"/>
      <path id="Trazado_878462" data-name="Trazado 878462" d="M2.4,38.9a2.65,2.65,0,0,0,2.8,1.7,12.914,12.914,0,0,0,1.6,5.8c1.1,1.7,3.4,2.9,5.3,2.1a3.1,3.1,0,0,0,1,2.4c1.6,1.4,5.1,1.6,6.5-.3a3.51,3.51,0,0,0,.6-1.8,3.454,3.454,0,0,0,.2-1.7c-.1-3.2-.4-6.4-.8-9.5.6-.4,1-.1,4.4-.6.2,3.5,1.4,6.3,2.6,9.5A53.465,53.465,0,0,1,29,58.4a26.956,26.956,0,0,0,.4,2.8.73.73,0,0,0,.7.6h.1c.4-.1.7-.4.6-.8-.1-.9-.3-1.8-.4-2.8A56.253,56.253,0,0,0,27.9,46c-1.1-3.1-2.4-6-2.5-9.2,1-.2,2-.3,3-.5a3.152,3.152,0,0,0,5.4-.5,3.191,3.191,0,0,0,4-2.7A2.88,2.88,0,0,0,40.6,31a.725.725,0,0,1,.2.8,1.38,1.38,0,0,1-.3.4.819.819,0,0,0-.4,1c.5,1,2.1.1,2.2-1.4a2.958,2.958,0,0,0,1.7-.2.738.738,0,0,0-.7-1.3,1.95,1.95,0,0,1-1.3-.1c-.1,0-.1,0-.2-.1a7.3,7.3,0,0,0-1-.9,2.321,2.321,0,0,1-.6-2.1c.1-.2.3-.5.6-.5a3.178,3.178,0,0,1,1.3.2c1,.3,2,.7,3,1.1,2.2.9,1.5,1.2,1,5.9-.4,2.5-.7,4-3.8,5.7-1.5.8-3.1,1.6-3.8,3.3-.6,1.4-.1,2.9.4,4.2,1.1,3,2.4,5.9,3.6,8.8a.67.67,0,0,0,.7.4.367.367,0,0,0,.3-.1.731.731,0,0,0,.4-1c-1.2-2.8-2.5-5.7-3.6-8.7a5.119,5.119,0,0,1-.4-3.2c.8-2.1,5.2-2.5,6.9-6.1a11.813,11.813,0,0,0,.8-3.1,25.122,25.122,0,0,0,2.7-.4v-.1c.6,2.6,1.2,5.3,2,8.1a6.725,6.725,0,0,0,.8,2c.9,1.6,3.5,2,5.1,1.4A4.707,4.707,0,0,0,61,40a5.282,5.282,0,0,0,3.1-4.2,16.387,16.387,0,0,0-.3-5.4,2.158,2.158,0,0,0,1.8-1.5v-.3a2.537,2.537,0,0,0,.2-1.2L65.7,25a2.233,2.233,0,0,0-2.5-1.9l-.8.1a12.761,12.761,0,0,0-1.6-5,4.638,4.638,0,0,0-4.5-2.1c0-.2-.1-.3-.1-.5a3.913,3.913,0,0,0-4.4-3.1h-.3A4.126,4.126,0,0,0,48.3,17a73.9,73.9,0,0,0,.7,9.1l-2.9.6c-.5-.2-1.4-.6-1.9-.8a2.573,2.573,0,0,0-.1-1.5,6.213,6.213,0,0,0-3.8-3.2,2.966,2.966,0,0,0-3.1,1.3,3.237,3.237,0,0,0-5.4,1,3.108,3.108,0,0,0-3.9,1.7,3.037,3.037,0,0,0-3.4,1.2,5.192,5.192,0,0,0-.2,3.9c-.6.1-2.6.5-5.6,1a66.1,66.1,0,0,0-2.4-9,3.913,3.913,0,0,0-4.4-3.1h-.3a3.811,3.811,0,0,0-3.1,4.3v.9a4.39,4.39,0,0,0-3.7,3.3,14.017,14.017,0,0,0,0,5.4,2.578,2.578,0,0,0-2.3,1A2.352,2.352,0,0,0,2,35.7a5.7,5.7,0,0,0,.4,3.2ZM63.9,24.8c.4.3.2.6.6,2.9a.688.688,0,0,1-.5.8l-.6.1c-.2-1.3-.5-2.4-.8-3.8C63.2,24.7,63.6,24.5,63.9,24.8Zm-4.4-5.7a11.737,11.737,0,0,1,1.3,4c.7,4,1.9,7.8,1.6,11.7a5.387,5.387,0,0,1-.5,2.1,3.6,3.6,0,0,1-1.8,1.2,106.022,106.022,0,0,0-3.5-20.5A2.984,2.984,0,0,1,59.5,19.1Zm-7.8-4.9H52a2.408,2.408,0,0,1,2.7,1.9c.2,1,2.9,7.7,4.2,24.6A2.3,2.3,0,0,1,57,43.4a2.462,2.462,0,0,1-2.1-.3,2.944,2.944,0,0,1-1-1.6C49.4,25.8,50,17.8,49.8,16.9a2.3,2.3,0,0,1,1.9-2.7ZM49.9,31.4l-1.9.4c.2-1.5.6-2.7-.2-3.9l1.5-.3c.1,1.2.4,2.5.6,3.8ZM40,22.7a4.053,4.053,0,0,1,2.1,1.4,1.889,1.889,0,0,1,.7,1.3,5.105,5.105,0,0,0-2.1-.3c-1.9.3-2.4,2.4-1.6,4.1v.3a1.964,1.964,0,0,1-.5,1.5.913.913,0,0,1-1.1.2h-.1c-.2-2.2-.9-5,.5-6.9.1-.2.4-1.9,2.1-1.6Zm-5.8.3a1.918,1.918,0,0,1,2,.6c.1.1.2.2.3.2-2.3,3.9.9,9.2-1.2,10.2a1.431,1.431,0,0,1-1.1-.3c0-.1-.1-.1-.2-.2-.3-2.8-1.5-6-1-8.7v-.2A1.712,1.712,0,0,1,34.2,23Zm-5.1,3.4a1.339,1.339,0,0,1,.8-1.4,1.946,1.946,0,0,1,1.5,0c-.6,3.8,1.7,8.9.9,10.2a1.359,1.359,0,0,1-1.5.3,2.251,2.251,0,0,1-1-1.6c0-.2-.1-.3-.2-.5a4.133,4.133,0,0,0-.2-1.9,20.434,20.434,0,0,1-.4-4.6,1.338,1.338,0,0,0,.1-.5Zm-3.5.7a1.758,1.758,0,0,1,1.9-.5v.2c-.1,3.8.7,5.3.6,6.2a.842.842,0,0,1-.4.7.663.663,0,0,1-.7-.2c-.3-.2-.4-.6-.6-1.1-1.3-3.3-1.1-4.7-.8-5.3Zm-1,4.6c.4,1.3.8,2.6,1.8,3.2-1.8.3-4.3.6-7,1.1a30.285,30.285,0,0,0-.6-3.2c3.1-.5,5.1-.9,5.8-1.1ZM11.8,20.8h.3a2.4,2.4,0,0,1,2.7,1.9A86.964,86.964,0,0,1,19,47.3,2.3,2.3,0,0,1,17.1,50h-.5a2.354,2.354,0,0,1-2.7-1.9A83.37,83.37,0,0,1,9.8,23.6v-.1a2.448,2.448,0,0,1,2-2.7ZM6.1,28.3A3.159,3.159,0,0,1,8.4,26a78.684,78.684,0,0,0,3.5,20.4.756.756,0,0,0-.4.1A3.735,3.735,0,0,1,9.1,46,4.342,4.342,0,0,1,8,44.1c-1.4-3.6-1.4-7.6-2-11.6a11.915,11.915,0,0,1,.1-4.2ZM4,34.8l.8-.1c.2,1.4.2,2.5.4,3.8l-.6.1c-.4.1-.7-.2-.8-.6l-.4-2.4a.871.871,0,0,1,.6-.8Z" fill="#fff"/>
    </g>
  </g>
</svg>
