<svg xmlns="http://www.w3.org/2000/svg" xmlns:xlink="http://www.w3.org/1999/xlink" width="420" height="200.464" viewBox="0 0 420 200.464">
  <defs>
    <clipPath id="clip-path">
      <path id="Trazado_878426" data-name="Trazado 878426" d="M420,0H0V200.454H420Z" transform="translate(1001.165 519)" fill="#5357de"/>
    </clipPath>
    <clipPath id="clip-path-2">
      <path id="Trazado_878421" data-name="Trazado 878421" d="M22.287,83.355A55.251,55.251,0,1,0,77.538,28.1,55.252,55.252,0,0,0,22.287,83.355" transform="translate(-22.287 -28.103)" fill="none"/>
    </clipPath>
    <clipPath id="clip-path-3">
      <rect id="Rectángulo_403170" data-name="Rectángulo 403170" width="185.192" height="194.86" fill="none"/>
    </clipPath>
    <clipPath id="clip-path-5">
      <path id="Trazado_878294" data-name="Trazado 878294" d="M169,177.5c-11.966,1.971-3.676,6.855-3.676,6.855,2.173,5.009-4.11,7.958-4.11,7.958-3.4,1.47-.171,3.436,1.678,4.454,3.736,2.055,5.819,2.44,6.337,7.186.248,2.28.955,6.827,4.042,6.947,3.705.137,5.352-6.673,5.716-9.44a22.342,22.342,0,0,0-3.36-14.466c2.165-8.483-.926-10.086-3.573-10.086A9.077,9.077,0,0,0,169,177.5" transform="translate(-159.721 -176.904)" fill="none"/>
    </clipPath>
    <clipPath id="clip-path-7">
      <path id="Trazado_878297" data-name="Trazado 878297" d="M105.363,135.26c-3.868,1.761-8.009,5.457-8.921,9.61l.459-.924a129.38,129.38,0,0,0,6.676,42.994c.852,2.638,1.682,5.6,3.795,7.547,1.42,1.3,2.936,1.112,4.69.7,5.49-1.287,7.117-8.3,7.8-13.121,1.445-12.636,2.14-31.633-4.159-43.052-1.875-3.488-3.155-5.207-5.483-5.208a12.312,12.312,0,0,0-4.852,1.452" transform="translate(-96.442 -133.808)" fill="none"/>
    </clipPath>
    <clipPath id="clip-path-9">
      <path id="Trazado_878305" data-name="Trazado 878305" d="M24.422,197.061c-2.376,3.538-2.948,5.579-7.722,5.674-2.291.043-6.885.342-7.279,3.408-.466,3.676,6.171,5.923,8.895,6.532a19.928,19.928,0,0,0,4.232.458h.183a22.6,22.6,0,0,0,10.292-2.517c13.274,4.684,10.047-5.754,10.047-5.754-.9-12.093-6.5-4.27-6.5-4.27-5.181,1.718-7.561-4.8-7.561-4.8-.389-1.18-.9-1.622-1.453-1.622-1.094,0-2.35,1.734-3.133,2.9" transform="translate(-9.398 -194.165)" fill="none"/>
    </clipPath>
    <clipPath id="clip-path-11">
      <path id="Trazado_878308" data-name="Trazado 878308" d="M40.834,138.036c-2.739.417-5.8.763-8.055,2.54-1.512,1.191-1.567,2.718-1.442,4.519.392,5.621,7.054,8.348,11.709,9.785,12.245,3.446,30.886,7.161,43.163,2.767,5.732-1.981,7.147-3.249,5.358-9.6-1.121-4.1-4.11-8.778-8.063-10.341l.841.6a119.173,119.173,0,0,0-21.865-1.977,143.391,143.391,0,0,0-21.645,1.709" transform="translate(-31.293 -136.327)" fill="none"/>
    </clipPath>
    <clipPath id="clip-path-13">
      <path id="Trazado_878318" data-name="Trazado 878318" d="M93.2,129.147c-.031,1.13-.066,2.259-.1,3.389L64.573,131.7a.507.507,0,0,0-.527.37.569.569,0,0,0-.028.052,34.41,34.41,0,0,0-1.6,21.346,20.975,20.975,0,0,0,1.886,4.819c.3.533.8,1.882,1.554,1.822l2.738-.217,23.764-1.882q-.154,5.227-.307,10.453a.506.506,0,0,0,.368.528c.018.008.034.02.053.027a34.4,34.4,0,0,0,21.345,1.6,20.8,20.8,0,0,0,4.82-1.886c.534-.3,1.883-.8,1.823-1.555q-.109-1.37-.216-2.737-1.344-16.957-2.684-33.916a.592.592,0,0,0-.578-.575l-23.2-1.38h-.029a.584.584,0,0,0-.545.575" transform="translate(-61.4 -128.572)" fill="none"/>
    </clipPath>
    <clipPath id="clip-path-15">
      <path id="Trazado_878379" data-name="Trazado 878379" d="M70.652,72.657l7.13,40.674-2.554,12h.045a.228.228,0,0,0-.022.077c-.008,1.391,9.831,2.575,21.973,2.642s21.99-1.006,22-2.4a.322.322,0,0,0-.016-.078h.082l-2.421-12.032,7.791-40.588L99.313,63.552l-2.129-.011-.7-.006-2.2-.012Z" transform="translate(-70.652 -63.523)" fill="none"/>
    </clipPath>
    <clipPath id="clip-path-17">
      <rect id="Rectángulo_403167" data-name="Rectángulo 403167" width="19.549" height="11.536" fill="none"/>
    </clipPath>
    <clipPath id="clip-path-18">
      <rect id="Rectángulo_403168" data-name="Rectángulo 403168" width="15.166" height="4.183" fill="none"/>
    </clipPath>
  </defs>
  <g id="Grupo_1101923" data-name="Grupo 1101923" transform="translate(-1001.165 -519)">
    <path id="Trazado_877412" data-name="Trazado 877412" d="M420,0H0V200.454H420Z" transform="translate(1001.165 519)" fill="#5357de"/>
    <g id="Enmascarar_grupo_1098755" data-name="Enmascarar grupo 1098755" clip-path="url(#clip-path)">
      <path id="Unión_74" data-name="Unión 74" d="M0,161.738,179.7,0l1.252,1.39L359.229,161.847,281.995,247.59,179.937,155.733,77.576,247.861Z" transform="translate(1185.165 574.109)" fill="#95dbb3"/>
      <path id="Unión_75" data-name="Unión 75" d="M0,86.123,179.7,247.861l1.252-1.39L359.229,86.014,281.995.271,179.937,92.128,77.576,0Z" transform="translate(917.165 428.139)" fill="#95dbb3"/>
    </g>
    <g id="Grupo_1101922" data-name="Grupo 1101922" transform="translate(-19.098 -4.099)">
      <path id="Trazado_873068" data-name="Trazado 873068" d="M81.413,10.367l-2.21.647a.548.548,0,0,0-.009,1.049l2.156.667a11.506,11.506,0,0,1,7.468,7.217l1,2.887a.548.548,0,0,0,1.043-.026l.677-2.312a11.51,11.51,0,0,1,7.813-7.815l2.16-.631a.548.548,0,0,0,0-1.052l-2.16-.632a11.508,11.508,0,0,1-7.813-7.813L90.911.394a.548.548,0,0,0-1.052,0l-.632,2.16a11.508,11.508,0,0,1-7.813,7.813" transform="translate(1150.377 540.02)" fill="#6063c0"/>
      <path id="Trazado_873069" data-name="Trazado 873069" d="M154.9,105.614l-4.915,1.44a1.219,1.219,0,0,0-.019,2.335l4.8,1.484a25.594,25.594,0,0,1,16.613,16.053l2.232,6.422a1.218,1.218,0,0,0,2.321-.058l1.506-5.143a25.6,25.6,0,0,1,17.38-17.383l4.8-1.4a1.219,1.219,0,0,0,0-2.34l-4.8-1.407a25.6,25.6,0,0,1-17.38-17.38l-1.407-4.8a1.219,1.219,0,0,0-2.34,0l-1.407,4.8a25.6,25.6,0,0,1-17.38,17.38" transform="translate(919.157 566.172)" fill="#30169a"/>
      <path id="Trazado_873070" data-name="Trazado 873070" d="M16.587,200.327,2.513,204.45a3.49,3.49,0,0,0-.056,6.684l13.733,4.25a73.282,73.282,0,0,1,47.566,45.965l6.391,18.387a3.489,3.489,0,0,0,6.645-.167l4.313-14.724a73.307,73.307,0,0,1,49.763-49.771l13.757-4.02a3.491,3.491,0,0,0,0-6.7l-13.757-4.028a73.3,73.3,0,0,1-49.763-49.763l-4.028-13.757a3.491,3.491,0,0,0-6.7,0L66.35,150.564a73.3,73.3,0,0,1-49.763,49.763" transform="translate(1246.728 418.26)" fill="#30169a"/>
      <g id="Grupo_1101921" data-name="Grupo 1101921" transform="translate(1102.842 613.06)">
        <g id="Grupo_1101920" data-name="Grupo 1101920" transform="translate(0 0)">
          <g id="Grupo_1101919" data-name="Grupo 1101919" transform="translate(0 0)" clip-path="url(#clip-path-2)">
            <path id="Trazado_878415" data-name="Trazado 878415" d="M22.287,83.355A55.251,55.251,0,1,0,77.538,28.1,55.251,55.251,0,0,0,22.287,83.355" transform="translate(-22.287 -28.103)" fill="#0200e8"/>
            <path id="Trazado_878416" data-name="Trazado 878416" d="M105.513,47.658c-1.027,6.362-7.217,10.9-12.552,13.657A50.2,50.2,0,0,1,74.079,66.3,47.49,47.49,0,0,1,54.2,64.015,19.937,19.937,0,0,1,46.9,59.8a15.242,15.242,0,0,1-3.838-6.8,19.991,19.991,0,0,1,2.368-15.757c3.239-5.125,9.425-7.852,15.075-9.323a51.737,51.737,0,0,1,20.072-.9A37.642,37.642,0,0,1,97.472,33.3c4.544,3.226,8.824,8.225,8.065,14.167-.114.907-1.555.919-1.438,0,.853-6.7-5.014-11.764-10.262-14.782-5.524-3.176-12-4.355-18.3-4.695C68.6,27.616,61.366,28.464,55,31.368a20.709,20.709,0,0,0-7.483,5.422,17.285,17.285,0,0,0-3.406,7.861c-1.04,5.62.6,12.09,5.439,15.5,5.315,3.757,12.722,4.745,19.053,4.882a53.583,53.583,0,0,0,20.381-3.5c5.967-2.31,13.273-6.759,14.968-13.37.072-.29.122-.588.172-.885.146-.913,1.531-.525,1.385.381" transform="translate(-20.685 -28.234)" fill="#fff"/>
            <path id="Trazado_878417" data-name="Trazado 878417" d="M121.956,50.371c-.957,6.119-5.45,11.009-10.192,14.65A56.647,56.647,0,0,1,93.88,74.083a78.6,78.6,0,0,1-40.51,1.729c-5.657-1.318-11.788-3.467-16.114-7.487-3.968-3.685-6.024-8.961-6.667-14.244a29.292,29.292,0,0,1,2.8-16.177c2.586-5.324,7.066-9.028,12.207-11.78,11.915-6.381,26.588-7.272,39.765-5.535,12.035,1.588,24.4,6.154,32.235,15.9,3.114,3.872,5.057,8.673,4.388,13.7-.12.906-1.56.918-1.438,0,.862-6.471-2.774-12.038-7.334-16.269A43.922,43.922,0,0,0,96.984,24.57a74.3,74.3,0,0,0-40.335-1.141c-6.308,1.628-12.763,4.418-17.537,8.959-4.15,3.949-6.435,9.641-7.09,15.26a25.021,25.021,0,0,0,3.447,16.295c3.324,5.207,9.186,7.8,14.883,9.563,12.922,4,27.458,3.383,40.433-.032a57.579,57.579,0,0,0,17.734-7.861c5.435-3.678,10.99-8.823,12.051-15.623.143-.916,1.528-.525,1.385.382" transform="translate(-21.64 -28.765)" fill="#fff"/>
            <path id="Trazado_878418" data-name="Trazado 878418" d="M134.171,59.307c-.79,5.7-3.664,10.64-7.171,14.791a58.538,58.538,0,0,1-16.036,12.886c-10.722,6.028-22.849,9-34.785,10.034-12.165,1.056-24.832-.035-36.37-4.626C34.9,90.44,30,87.87,26.277,83.753a31.78,31.78,0,0,1-6.955-13.992A43.648,43.648,0,0,1,24.21,37.817c6.3-10.282,17.963-15.652,28.514-18.43a88.984,88.984,0,0,1,36.954-1.255c11.095,1.826,21.6,5.8,30.674,13.226,7.967,6.523,15.254,16.32,13.819,27.948-.114.917-1.37.524-1.258-.382,1.624-13.126-8.685-23.586-17.872-29.779-9.8-6.6-21.112-9.426-32.444-10.49-12.5-1.174-25.461-.035-37.322,4.669a47.751,47.751,0,0,0-15.548,9.712,33.231,33.231,0,0,0-8.226,14c-3.339,10.589-2.626,23.282,3.322,32.592,3.162,4.943,7.821,7.969,12.785,10.279a64.7,64.7,0,0,0,17.151,5.024,92.262,92.262,0,0,0,38.095-2.263c12.276-3.276,24.407-9.357,33.221-19.587a27.78,27.78,0,0,0,6.838-14.156c.13-.913,1.382-.524,1.258.382" transform="translate(-22.613 -29.006)" fill="#fff"/>
            <path id="Trazado_878419" data-name="Trazado 878419" d="M155.374,61.479c-1.74,13.8-11.068,24.976-21.472,33.544-10.244,8.432-22.334,14.091-35.066,17.64a119.07,119.07,0,0,1-40.736,4.03c-12.877-.972-25.8-4.259-36.97-10.876A38.613,38.613,0,0,1,9.209,95.183,46.7,46.7,0,0,1,2.361,80.489a68.873,68.873,0,0,1-.343-34.451A59.68,59.68,0,0,1,8.1,30.409,46.538,46.538,0,0,1,18.923,17.727C29.047,9.248,41.661,4.246,54.542,1.815a113.977,113.977,0,0,1,39.412-.2c11.6,1.9,22.8,5.5,32.739,11.853,16.036,10.26,31.02,27.749,28.682,48.008-.1.911-1.544.92-1.44,0,1.557-13.472-4.922-25.826-14.006-35.338A74.53,74.53,0,0,0,109.837,6.97,113.075,113.075,0,0,0,71.62,1.486c-13.5.314-27.14,3.068-39.256,9.163A64.785,64.785,0,0,0,16.1,22.221,44.2,44.2,0,0,0,7.085,35.56,67.437,67.437,0,0,0,1.846,70.111C2.975,81.092,7.023,92.378,15.355,99.946c4.5,4.086,10.264,6.986,15.849,9.255a86.662,86.662,0,0,0,19.008,5.14,114.4,114.4,0,0,0,41.463-1.4c12.848-2.726,25.45-7.579,36.248-15.141,12.142-8.5,24.078-20.977,26.01-36.317.114-.909,1.557-.919,1.44,0" transform="translate(-24.065 -30.345)" fill="#fff"/>
            <path id="Trazado_878420" data-name="Trazado 878420" d="M156.537,76.268c-1.719,14.171-11.169,25.693-21.818,34.532-10.081,8.368-22.168,13.911-34.772,17.275a109.264,109.264,0,0,1-40.411,3.061c-12.612-1.445-25.245-5.41-35.591-12.926-8.778-6.376-13.465-16.922-15.487-27.3a72.641,72.641,0,0,1,1.96-34.835,54.826,54.826,0,0,1,7.036-14.886,51.281,51.281,0,0,1,12.58-12.332C40.749,21.15,53.7,17.074,66.7,15.5a107.248,107.248,0,0,1,38.687,2.571,75.5,75.5,0,0,1,30.536,15.417c12.521,10.468,22.486,25.851,20.612,42.775-.1.911-1.542.923-1.44,0,1.511-13.634-4.874-26.215-14.006-35.936a71.733,71.733,0,0,0-29.785-19.054A105.431,105.431,0,0,0,73.1,16.394c-13.395.7-26.826,4.112-38.367,11.085A54.992,54.992,0,0,0,20.272,39.786a49.355,49.355,0,0,0-7.821,14.7A70.859,70.859,0,0,0,9.72,89.841c1.932,10.869,6.843,21.515,16.117,27.953,10.8,7.5,23.94,11.118,36.921,12.228,27.346,2.337,56.536-5.88,76.474-25.187,7.922-7.669,14.513-17.4,15.865-28.568.112-.909,1.553-.919,1.44,0" transform="translate(-23.491 -29.166)" fill="#fff"/>
          </g>
        </g>
      </g>
      <g id="Grupo_1101918" data-name="Grupo 1101918" transform="translate(1135.103 528.702)">
        <g id="Grupo_1101917" data-name="Grupo 1101917" clip-path="url(#clip-path-3)">
          <g id="Grupo_1101886" data-name="Grupo 1101886">
            <g id="Grupo_1101885" data-name="Grupo 1101885" clip-path="url(#clip-path-3)">
              <path id="Trazado_878288" data-name="Trazado 878288" d="M96.9,143.946a129.384,129.384,0,0,0,6.676,42.994c.852,2.638,1.682,5.6,3.794,7.548,1.42,1.3,2.936,1.111,4.691.7,5.489-1.287,7.118-8.3,7.8-13.122,1.445-12.635,2.139-31.632-4.159-43.051-2.873-5.342-4.347-6.537-10.335-3.756-3.869,1.761-8.009,5.457-8.921,9.61" transform="translate(-9.076 -12.593)" fill="#f79860"/>
              <path id="Trazado_878289" data-name="Trazado 878289" d="M151.975,192.4l.011,0c1.15-.323,8.667-1.323,11.523-2.183l1.433-8.17c-2.674-.143-12.345-.381-14.285-.464a162.994,162.994,0,0,0-21.124,1.062c-14.56,1.7-29.744,5.846-22.08,15.563,2.341,2.958,8.611,1.3,11.7,1.014a122.419,122.419,0,0,0,18.2-3.223c4.871-1.21,9.785-2.235,14.619-3.6" transform="translate(-9.919 -17.086)" fill="#f79860"/>
              <path id="Trazado_878290" data-name="Trazado 878290" d="M161.21,192.31s6.283-2.949,4.111-7.958c0,0-8.29-4.884,3.675-6.855,0,0,10.109-4.145,6.627,9.495a22.334,22.334,0,0,1,3.36,14.465c-.364,2.767-2.011,9.578-5.715,9.441-3.088-.121-3.795-4.668-4.042-6.948-.518-4.745-2.6-5.131-6.338-7.186-1.848-1.017-5.078-2.984-1.678-4.454" transform="translate(-15.032 -16.649)" fill="#fff"/>
              <path id="Trazado_878291" data-name="Trazado 878291" d="M178.012,201.585a22.9,22.9,0,0,0-3.447-14.831c1.607-6.289.395-8.889-1.427-9.847,2.684-.069,5.959,1.414,3.747,10.083a22.335,22.335,0,0,1,3.36,14.466c-.364,2.768-2.011,9.577-5.715,9.44a3,3,0,0,1-.658-.1c2.6-1.6,3.83-6.842,4.14-9.208" transform="translate(-16.294 -16.649)" fill="#6861ff"/>
            </g>
          </g>
          <g id="Grupo_1101888" data-name="Grupo 1101888" transform="translate(144.689 160.255)">
            <g id="Grupo_1101887" data-name="Grupo 1101887" clip-path="url(#clip-path-5)">
              <path id="Trazado_878292" data-name="Trazado 878292" d="M169.011,196.145c-1.372,1.592-2.686,3.083-3.058,5.218-.16.934-1.584.563-1.424-.367.413-2.382,1.894-4.1,3.424-5.873.621-.72,1.676.307,1.058,1.022" transform="translate(-160.172 -178.596)" fill="#0200e8"/>
              <path id="Trazado_878293" data-name="Trazado 878293" d="M171.6,198.481a22.531,22.531,0,0,0-3.443,5.617c-.322.88-1.748.525-1.424-.368a24.844,24.844,0,0,1,3.811-6.271c.57-.758,1.62.274,1.056,1.023" transform="translate(-160.376 -178.813)" fill="#0200e8"/>
            </g>
          </g>
          <g id="Grupo_1101890" data-name="Grupo 1101890">
            <g id="Grupo_1101889" data-name="Grupo 1101889" clip-path="url(#clip-path-3)">
              <path id="Trazado_878295" data-name="Trazado 878295" d="M107.818,196.727c1.339,1.243,2.853,2.555,4.8,1.937.533-.169.759.665.231.833-2.258.718-4.063-.7-5.636-2.159-.409-.38.2-.987.609-.611" transform="translate(-10.077 -18.503)" fill="#ef6237"/>
            </g>
          </g>
          <g id="Grupo_1101892" data-name="Grupo 1101892" transform="translate(87.366 121.215)">
            <g id="Grupo_1101891" data-name="Grupo 1101891" clip-path="url(#clip-path-7)">
              <path id="Trazado_878296" data-name="Trazado 878296" d="M97.87,174.306q-2.242-17.045-4.489-34.092-.322-2.45-.644-4.9a.577.577,0,0,1,.476-.659l23.126-2.34a.584.584,0,0,1,.657.475l8.065,33.053q.325,1.334.65,2.667c.179.739-1.073,1.444-1.551,1.824a20.868,20.868,0,0,1-4.458,2.633,34.416,34.416,0,0,1-21.327,1.823.482.482,0,0,1-.054-.021.508.508,0,0,1-.451-.46" transform="translate(-96.093 -133.667)" fill="#ef6237"/>
            </g>
          </g>
          <g id="Grupo_1101894" data-name="Grupo 1101894">
            <g id="Grupo_1101893" data-name="Grupo 1101893" clip-path="url(#clip-path-3)">
              <path id="Trazado_878298" data-name="Trazado 878298" d="M123.021,185.707l-3.749.605c-.543.088-.775-.744-.226-.832q1.871-.3,3.744-.606c.547-.088.78.744.231.833" transform="translate(-11.174 -17.398)" fill="#ef6237"/>
              <path id="Trazado_878299" data-name="Trazado 878299" d="M84.344,138.3a129.376,129.376,0,0,0-43.51-.268c-2.739.418-5.8.763-8.055,2.54-1.511,1.192-1.567,2.718-1.442,4.519.392,5.622,7.054,8.348,11.709,9.786,12.244,3.445,30.885,7.161,43.163,2.767,5.732-1.981,7.146-3.25,5.357-9.6-1.121-4.1-4.11-8.778-8.062-10.341" transform="translate(-2.945 -12.83)" fill="#f79860"/>
              <path id="Trazado_878300" data-name="Trazado 878300" d="M32.212,185.062l0,.01c.133,1.189-.081,8.768.316,11.725l7.837,2.717c.567-2.617,2.347-12.124,2.736-14.026a162.787,162.787,0,0,0,2.323-21.025c.65-14.645-1.021-30.3-11.839-24.28-3.293,1.841-2.657,8.293-2.867,11.39a122.486,122.486,0,0,0,.274,18.484c.418,5,.647,10.013,1.218,15.005" transform="translate(-2.869 -13.069)" fill="#f79860"/>
              <path id="Trazado_878301" data-name="Trazado 878301" d="M29.009,195.786s2.379,6.522,7.56,4.806c0,0,5.6-7.822,6.5,4.269,0,0,3.227,10.439-10.046,5.754a22.322,22.322,0,0,1-14.708,2.059c-2.724-.609-9.36-2.856-8.894-6.532.394-3.066,4.989-3.364,7.279-3.407,4.773-.1,5.346-2.137,7.722-5.674,1.179-1.749,3.426-4.792,4.587-1.275" transform="translate(-0.884 -18.273)" fill="#fff"/>
              <path id="Trazado_878302" data-name="Trazado 878302" d="M18.387,211.615A22.875,22.875,0,0,0,33.466,209.5c6.12,2.16,8.817,1.184,9.936-.543-.17,2.677-1.94,5.809-10.377,2.832a22.322,22.322,0,0,1-14.708,2.059c-2.724-.609-9.361-2.856-8.895-6.532a2.99,2.99,0,0,1,.163-.645c1.359,2.732,6.472,4.423,8.8,4.941" transform="translate(-0.884 -19.451)" fill="#6861ff"/>
            </g>
          </g>
          <g id="Grupo_1101896" data-name="Grupo 1101896" transform="translate(8.514 175.892)">
            <g id="Grupo_1101895" data-name="Grupo 1101895" clip-path="url(#clip-path-9)">
              <path id="Trazado_878303" data-name="Trazado 878303" d="M27.4,203.315c-1.462-1.51-2.827-2.951-4.924-3.51-.915-.245-.418-1.631.493-1.387,2.337.624,3.913,2.25,5.545,3.933.661.683-.453,1.641-1.114.964" transform="translate(-10.584 -194.563)" fill="#0200e8"/>
              <path id="Trazado_878304" data-name="Trazado 878304" d="M24.807,205.684a22.52,22.52,0,0,0-5.288-3.929c-.85-.4-.368-1.79.494-1.385a24.866,24.866,0,0,1,5.908,4.352c.7.635-.418,1.589-1.114.962" transform="translate(-10.309 -194.742)" fill="#0200e8"/>
            </g>
          </g>
          <g id="Grupo_1101898" data-name="Grupo 1101898">
            <g id="Grupo_1101897" data-name="Grupo 1101897" clip-path="url(#clip-path-3)">
              <path id="Trazado_878306" data-name="Trazado 878306" d="M36.71,140.934c-1.4,1.092-3.052,2.418-2.745,4.4.086.544-.746.778-.832.229-.366-2.354,1.25-3.905,2.968-5.243.434-.338,1.047.268.609.611" transform="translate(-3.113 -13.197)" fill="#ef6237"/>
            </g>
          </g>
          <g id="Grupo_1101900" data-name="Grupo 1101900" transform="translate(28.348 123.497)">
            <g id="Grupo_1101899" data-name="Grupo 1101899" clip-path="url(#clip-path-11)">
              <path id="Trazado_878307" data-name="Trazado 878307" d="M61.4,132.889,95.773,133.9l4.943.146a.579.579,0,0,1,.576.575q-.69,11.6-1.381,23.2a.59.59,0,0,1-.576.575l-33.913,2.684-2.738.217c-.759.06-1.254-1.288-1.553-1.824a20.794,20.794,0,0,1-1.888-4.818,34.408,34.408,0,0,1,1.6-21.345.247.247,0,0,1,.03-.052.5.5,0,0,1,.524-.37" transform="translate(-33.828 -136.003)" fill="#ef6237"/>
            </g>
          </g>
          <g id="Grupo_1101902" data-name="Grupo 1101902">
            <g id="Grupo_1101901" data-name="Grupo 1101901" clip-path="url(#clip-path-3)">
              <path id="Trazado_878309" data-name="Trazado 878309" d="M95.232,168.462q.505-17.184,1.008-34.37.075-2.472.146-4.944a.58.58,0,0,1,.573-.575l23.2,1.382a.59.59,0,0,1,.578.574q1.341,16.957,2.684,33.915.106,1.37.217,2.738c.06.758-1.289,1.254-1.824,1.555A20.8,20.8,0,0,1,117,170.621a34.406,34.406,0,0,1-21.345-1.6c-.019-.007-.035-.019-.054-.027a.507.507,0,0,1-.368-.528" transform="translate(-8.962 -12.1)" fill="#77b864"/>
              <path id="Trazado_878310" data-name="Trazado 878310" d="M64.017,132.444a.471.471,0,0,1,.029-.052.5.5,0,0,1,.526-.371l34.37,1.011,4.944.145a.58.58,0,0,1,.575.575q-.692,11.6-1.382,23.2a.589.589,0,0,1-.575.574l-33.914,2.684-2.738.217c-.757.061-1.252-1.289-1.554-1.821a20.916,20.916,0,0,1-1.886-4.82,34.4,34.4,0,0,1,1.6-21.346" transform="translate(-5.778 -12.425)" fill="#77b864"/>
              <path id="Trazado_878311" data-name="Trazado 878311" d="M88.934,143.108c.611,2.248,2.713,3.948,4.587,5.162.468.3.035,1.047-.432.745-2.077-1.342-4.312-3.2-4.986-5.676a.432.432,0,0,1,.832-.23" transform="translate(-8.29 -13.439)" fill="#0200e8"/>
              <path id="Trazado_878312" data-name="Trazado 878312" d="M94.142,149.484a70.693,70.693,0,0,0,1.141,10.065c.083.544-.748.78-.832.23a72.619,72.619,0,0,1-1.172-10.3.431.431,0,0,1,.862,0" transform="translate(-8.779 -14.029)" fill="#0200e8"/>
            </g>
          </g>
          <g id="Grupo_1101904" data-name="Grupo 1101904" transform="translate(55.621 116.472)">
            <g id="Grupo_1101903" data-name="Grupo 1101903" clip-path="url(#clip-path-13)">
              <path id="Trazado_878313" data-name="Trazado 878313" d="M123.1,135.025c-9.724,2.264-19.689,2.5-29.617,1.894-8.188-.5-16.446-2.959-22.346-8.907-.391-.4.22-1.006.611-.611,6.009,6.058,14.334,8.221,22.622,8.707,9.551.56,19.152.262,28.5-1.916.543-.124.774.708.231.833" transform="translate(-62.304 -128.45)" fill="#0200e8"/>
              <path id="Trazado_878314" data-name="Trazado 878314" d="M127.238,147.7c-2.686.013-5.364.218-8.052.231.145-.145.289-.288.43-.431.173,4.2-.626,8.542.495,12.658A5.707,5.707,0,0,0,124.4,164.4a6.664,6.664,0,0,0,5.759-2.025c.4-.385,1.011.225.607.611-3.259,3.143-8.47,3.234-10.844-.993-1.112-1.978-1.2-4.508-1.249-6.716-.056-2.594.193-5.189.085-7.782a.435.435,0,0,1,.43-.433c2.689-.01,5.366-.217,8.052-.228a.431.431,0,0,1,0,.861" transform="translate(-66.789 -130.291)" fill="#0200e8"/>
              <path id="Trazado_878315" data-name="Trazado 878315" d="M128.312,150.222a52.438,52.438,0,0,1-8.861.706.431.431,0,0,1,0-.862,51.353,51.353,0,0,0,8.629-.675c.544-.1.777.736.233.832" transform="translate(-66.824 -130.531)" fill="#0200e8"/>
              <path id="Trazado_878316" data-name="Trazado 878316" d="M74.1,127.029c-.013,2.686-.22,5.367-.231,8.053a.431.431,0,0,1-.43.431c-4.686-.191-10.136,1.049-14.5-1.163s-4.025-7.7-.992-10.848c.385-.4,1,.209.611.611a6.785,6.785,0,0,0-2.026,5.759,5.675,5.675,0,0,0,4.248,4.286c4.047,1.226,8.508.324,12.658.494-.146.143-.289.288-.432.431.013-2.686.22-5.367.23-8.053a.432.432,0,0,1,.863,0" transform="translate(-60.86 -128.083)" fill="#0200e8"/>
              <path id="Trazado_878317" data-name="Trazado 878317" d="M73.294,126.464a51.061,51.061,0,0,0-.676,8.629.431.431,0,0,1-.862,0,52.565,52.565,0,0,1,.707-8.859c.1-.546.928-.313.832.23" transform="translate(-62.374 -128.323)" fill="#0200e8"/>
            </g>
          </g>
          <g id="Grupo_1101906" data-name="Grupo 1101906">
            <g id="Grupo_1101905" data-name="Grupo 1101905" clip-path="url(#clip-path-3)">
              <path id="Trazado_878319" data-name="Trazado 878319" d="M131.066,29.695c0,7.686,3.88,13.918,8.666,13.918S148.4,37.38,148.4,29.695s-3.882-13.92-8.668-13.92-8.666,6.233-8.666,13.92" transform="translate(-12.335 -1.485)" fill="#0200e8"/>
              <rect id="Rectángulo_403163" data-name="Rectángulo 403163" width="3.57" height="27.824" transform="translate(127.7 14.305)" fill="#ffbf67"/>
              <path id="Trazado_878320" data-name="Trazado 878320" d="M135.253,29.695c0,7.686,3.88,13.918,8.668,13.918s8.666-6.233,8.666-13.918-3.882-13.92-8.666-13.92-8.668,6.233-8.668,13.92" transform="translate(-12.729 -1.485)" fill="#f27238"/>
              <path id="Trazado_878321" data-name="Trazado 878321" d="M145.905,11.96c.135,0,.268.008.4.016h4.429v1.816c3.547,2.852,5.983,8.739,5.983,15.544s-2.436,12.689-5.983,15.541V46.71h-4.455V46.7c-.127.006-.252.014-.379.014-5.973,0-10.818-7.779-10.818-17.373s4.845-17.377,10.818-17.377" transform="translate(-12.713 -1.126)" fill="#6861ff"/>
              <path id="Trazado_878322" data-name="Trazado 878322" d="M140.316,29.336c0,9.594,4.843,17.373,10.818,17.373s10.817-7.779,10.817-17.373-4.844-17.377-10.817-17.377-10.818,7.78-10.818,17.377" transform="translate(-13.205 -1.125)" fill="#ff9c41"/>
              <path id="Trazado_878323" data-name="Trazado 878323" d="M151.9,29.212l.014,0v0h35.626v3.5H151.916v0l-.008,0c-.607,0-1.093-.782-1.093-1.747s.486-1.747,1.087-1.747" transform="translate(-14.193 -2.749)" fill="#0200e8"/>
              <path id="Trazado_878324" data-name="Trazado 878324" d="M145.241,30.1c0-5.513,2.853-10,6.356-10s6.354,4.485,6.354,10-2.851,10-6.354,10-6.356-4.485-6.356-10m.69,0c0,5.131,2.541,9.306,5.665,9.306s5.664-4.175,5.664-9.306-2.538-9.308-5.664-9.308-5.665,4.174-5.665,9.308" transform="translate(-13.669 -1.892)" fill="#fff"/>
              <path id="Trazado_878325" data-name="Trazado 878325" d="M157.527,55.785a94.483,94.483,0,0,0,2.962-15.253c.214-1.782.7-5.431,3.326-4.845,4.9,1.1,4.277,7.415,4.249,11.22-.044,6.24,2.453,12.14,2.516,18.465.05,4.867-1.4,11.2-6.422,13.232a6.215,6.215,0,0,1-6.281-1.364,9.174,9.174,0,0,1-2.7-5.644c-.813-5.291.875-10.8,2.354-15.811" transform="translate(-14.584 -3.353)" fill="#f79860"/>
              <path id="Trazado_878326" data-name="Trazado 878326" d="M124.486,76.488a23.411,23.411,0,0,1,6.948-4.236,25.051,25.051,0,0,1,8.259-1.939,21.869,21.869,0,0,1,15.423,5.18.548.548,0,0,1-.345.948L155.1,79.4a.589.589,0,0,1,.472.985c-4.015,4.191-8.842,7.515-14.66,8.5-4.689.792-9.986.491-14.26-1.732a8.817,8.817,0,0,1-4.443-4.861c-.7-2.222.745-4.341,2.275-5.8" transform="translate(-11.484 -6.613)" fill="#f79860"/>
              <path id="Trazado_878327" data-name="Trazado 878327" d="M161.7,42.059a1.832,1.832,0,0,0,1.753.078c.424-.2.809.422.382.628a2.591,2.591,0,0,1-2.493-.065c-.409-.24-.05-.882.358-.64" transform="translate(-15.167 -3.953)" fill="#ef6237"/>
              <path id="Trazado_878328" data-name="Trazado 878328" d="M140.468,86.108a.475.475,0,0,1,.426-.409l24.6-7.586a.578.578,0,0,1,.707.4,3.752,3.752,0,0,1-1.086,3.875c-1.378,1.277-3.413,1.469-5.158,1.845-3.071.664-5.895,1.859-8.868,2.8-1.779.561-11.536,3.655-10.618-.923" transform="translate(-13.214 -7.349)" fill="#f79860"/>
              <path id="Trazado_878329" data-name="Trazado 878329" d="M165.969,79.955a1.529,1.529,0,0,1-.471,1.225,2.1,2.1,0,0,1-1.343.356.431.431,0,0,1,0-.861,1.565,1.565,0,0,0,.779-.143.441.441,0,0,0,.1-.123,1.185,1.185,0,0,0,.071-.453.432.432,0,0,1,.864,0" transform="translate(-15.41 -7.485)" fill="#ef6237"/>
              <path id="Trazado_878330" data-name="Trazado 878330" d="M164.358,33.179c-2.025.246-5.183.951-5.967,3.115-1.27,3.5,3.981,4.543,6.306,4.594a7.324,7.324,0,0,0,6.146-2.791,2.855,2.855,0,0,0-.706-3.949c-1.708-1.207-3.789-1.211-5.78-.969" transform="translate(-14.888 -3.111)" fill="#f79860"/>
              <path id="Trazado_878331" data-name="Trazado 878331" d="M160.329,25.227a1.863,1.863,0,0,1,1.708,2.006l-.462,5.773c-.1,1.266-1.083,3.51-2.7,2.822-.869-.371-1.071-2.307-1.006-3.118l.462-5.773a1.859,1.859,0,0,1,2-1.709" transform="translate(-14.856 -2.374)" fill="#f79860"/>
              <path id="Trazado_878332" data-name="Trazado 878332" d="M164.2,25.537a1.863,1.863,0,0,1,1.709,2l-.464,5.774a1.862,1.862,0,1,1-3.711-.3l.461-5.773a1.864,1.864,0,0,1,2-1.709" transform="translate(-15.22 -2.403)" fill="#f79860"/>
              <path id="Trazado_878333" data-name="Trazado 878333" d="M167.995,25.84a1.864,1.864,0,0,1,1.707,2.006l-.461,5.773a1.864,1.864,0,0,1-3.716-.3l.464-5.774a1.863,1.863,0,0,1,2.007-1.708" transform="translate(-15.577 -2.431)" fill="#f79860"/>
              <path id="Trazado_878334" data-name="Trazado 878334" d="M171.594,27.5a1.607,1.607,0,0,1,1.472,1.728l-.3,3.674a1.6,1.6,0,1,1-3.2-.255l.294-3.674a1.6,1.6,0,0,1,1.728-1.473" transform="translate(-15.958 -2.588)" fill="#f79860"/>
              <path id="Trazado_878335" data-name="Trazado 878335" d="M158.145,38.138a1.715,1.715,0,0,1,.178-2.392l3.861-2.682a1.9,1.9,0,0,1,2.123,3.058L160.447,38.8a1.713,1.713,0,0,1-2.3-.667" transform="translate(-14.846 -3.09)" fill="#f79860"/>
              <path id="Trazado_878336" data-name="Trazado 878336" d="M160.895,37.717c1.742-.346,4.568-1.558,4.387-3.755-.067-.825-1.275-.6-1.761-.508a25.461,25.461,0,0,0-4.606,1.406c-.557.218-.152,1.048.4.833a23.558,23.558,0,0,1,4.9-1.416c.365-.054-.456,1.071-.456,1.071a4.237,4.237,0,0,1-.88.678,6.441,6.441,0,0,1-2.154.785.462.462,0,0,0,.175.906" transform="translate(-14.931 -3.139)" fill="#ef6237"/>
              <path id="Trazado_878337" data-name="Trazado 878337" d="M165.46,35.376c1.376.049,3.073,0,3.614,1.541.2.563,1.029.156.832-.4-.661-1.882-2.662-2-4.373-2.061-.592-.021-.668.9-.072.921" transform="translate(-15.533 -3.243)" fill="#ef6237"/>
              <path id="Trazado_878338" data-name="Trazado 878338" d="M159.242,32.646c.636.931,1.991,1.647,2.661.376a6.544,6.544,0,0,0,.395-1.875,20.2,20.2,0,0,0,.2-3.879c0-.591-.926-.669-.924-.073a24.359,24.359,0,0,1-.2,3.879c-.06.419-.1.862-.2,1.276-.21.9-.938.128-1.233-.3-.335-.493-1.034.112-.7.6" transform="translate(-14.978 -2.521)" fill="#ef6237"/>
              <path id="Trazado_878339" data-name="Trazado 878339" d="M165.937,32.683c.366,1.354,1.464,1.747,2.528.775,1.429-1.3,1.108-3.75,1.23-5.476a.463.463,0,0,0-.923-.073c-.079,1.132-.072,2.268-.243,3.394-.1.64-1.252,2.81-1.684,1.206-.156-.569-1.063-.4-.909.174" transform="translate(-15.615 -2.588)" fill="#ef6237"/>
              <path id="Trazado_878340" data-name="Trazado 878340" d="M168.952,33c.125,1.642,2.528,2.7,3.586,1.261.353-.481-.408-1.007-.756-.527-.607.826-1.863-.121-1.923-.909-.044-.592-.95-.415-.907.175" transform="translate(-15.9 -3.055)" fill="#ef6237"/>
              <path id="Trazado_878341" data-name="Trazado 878341" d="M165.767,33.321c1.549-1.209,1.414-4.311,1.156-6.039-.085-.591-.994-.416-.907.173.207,1.376.383,4.2-.848,5.163-.469.366.129,1.069.6.7" transform="translate(-15.528 -2.533)" fill="#ef6237"/>
              <path id="Trazado_878342" data-name="Trazado 878342" d="M182.437,11.96c.137,0,.27.008.406.016h4.43v1.816c3.547,2.852,5.984,8.739,5.984,15.544s-2.437,12.689-5.984,15.541V46.71h-4.457V46.7c-.125.006-.252.014-.379.014-5.975,0-10.815-7.779-10.815-17.373s4.84-17.377,10.815-17.377" transform="translate(-16.152 -1.126)" fill="#6861ff"/>
              <path id="Trazado_878343" data-name="Trazado 878343" d="M176.848,29.336c0,9.594,4.842,17.373,10.818,17.373s10.82-7.779,10.82-17.373-4.845-17.377-10.82-17.377-10.818,7.78-10.818,17.377" transform="translate(-16.644 -1.125)" fill="#0200e8"/>
              <path id="Trazado_878344" data-name="Trazado 878344" d="M189.778,15.775c.106,0,.214.007.322.014h3.548v1.454c2.843,2.286,4.793,7,4.793,12.452s-1.95,10.166-4.793,12.45v1.468h-3.567V43.6c-.1,0-.2.013-.3.013-4.789,0-8.668-6.233-8.668-13.918s3.879-13.921,8.668-13.921" transform="translate(-17.045 -1.485)" fill="#6861ff"/>
              <path id="Trazado_878345" data-name="Trazado 878345" d="M185.3,29.695c0,7.686,3.882,13.918,8.668,13.918s8.667-6.233,8.667-13.918-3.882-13.92-8.667-13.92-8.668,6.233-8.668,13.92" transform="translate(-17.439 -1.485)" fill="#ff9c41"/>
              <path id="Trazado_878346" data-name="Trazado 878346" d="M197.015,29.212l.01,0,0,0h3.048v0l.01,0c.607,0,1.092.782,1.092,1.747s-.485,1.747-1.087,1.747l-.014,0v0H197.03v0l-.014,0c-.6,0-1.087-.782-1.087-1.747s.486-1.747,1.087-1.747" transform="translate(-18.439 -2.749)" fill="#fff"/>
              <path id="Trazado_878347" data-name="Trazado 878347" d="M188.418,30.188c0-5.059,2.62-9.175,5.84-9.175s5.842,4.115,5.842,9.175-2.622,9.173-5.842,9.173-5.84-4.115-5.84-9.173m.69,0c0,4.677,2.307,8.483,5.15,8.483s5.152-3.806,5.152-8.483S197.1,21.7,194.258,21.7s-5.15,3.806-5.15,8.485" transform="translate(-17.732 -1.978)" fill="#fff"/>
              <path id="Trazado_878348" data-name="Trazado 878348" d="M0,29.695C0,37.38,3.88,43.613,8.666,43.613s8.666-6.233,8.666-13.918-3.879-13.92-8.666-13.92S0,22.008,0,29.695" transform="translate(0 -1.485)" fill="#0200e8"/>
              <rect id="Rectángulo_403164" data-name="Rectángulo 403164" width="3.572" height="27.824" transform="translate(8.967 14.305)" fill="#ffbf67"/>
              <path id="Trazado_878349" data-name="Trazado 878349" d="M4.186,29.695c0,7.686,3.88,13.918,8.668,13.918S21.52,37.38,21.52,29.695s-3.882-13.92-8.667-13.92-8.668,6.233-8.668,13.92" transform="translate(-0.394 -1.485)" fill="#f27238"/>
              <path id="Trazado_878350" data-name="Trazado 878350" d="M14.839,11.96c.135,0,.268.008.4.016h4.433v1.816c3.545,2.852,5.983,8.739,5.983,15.544S23.22,42.026,19.676,44.878V46.71H15.215V46.7c-.124.006-.249.014-.376.014-5.975,0-10.817-7.779-10.817-17.373S8.864,11.96,14.839,11.96" transform="translate(-0.379 -1.126)" fill="#6861ff"/>
              <path id="Trazado_878351" data-name="Trazado 878351" d="M9.247,29.336c0,9.594,4.845,17.373,10.817,17.373S30.882,38.93,30.882,29.336,26.04,11.959,20.064,11.959,9.247,19.739,9.247,29.336" transform="translate(-0.87 -1.125)" fill="#ff9c41"/>
              <path id="Trazado_878352" data-name="Trazado 878352" d="M20.832,29.212l.013,0,0,0H56.476v3.5H20.849v0l-.016,0c-.6,0-1.085-.782-1.085-1.747s.486-1.747,1.085-1.747" transform="translate(-1.858 -2.749)" fill="#0200e8"/>
              <path id="Trazado_878353" data-name="Trazado 878353" d="M14.175,30.1c0-5.513,2.851-10,6.354-10s6.356,4.485,6.356,10-2.851,10-6.356,10-6.354-4.485-6.354-10m.69,0c0,5.131,2.541,9.306,5.664,9.306s5.665-4.175,5.665-9.306-2.54-9.308-5.665-9.308-5.664,4.174-5.664,9.308" transform="translate(-1.334 -1.892)" fill="#fff"/>
              <path id="Trazado_878354" data-name="Trazado 878354" d="M41.132,55.785a94.381,94.381,0,0,1-2.96-15.253c-.217-1.782-.7-5.431-3.327-4.845-4.9,1.1-4.277,7.415-4.25,11.22.046,6.24-2.453,12.14-2.517,18.465-.048,4.867,1.4,11.2,6.425,13.232a6.215,6.215,0,0,0,6.281-1.364,9.164,9.164,0,0,0,2.7-5.644c.813-5.291-.878-10.8-2.356-15.811" transform="translate(-2.642 -3.353)" fill="#f79860"/>
              <path id="Trazado_878355" data-name="Trazado 878355" d="M72.3,76.488a23.376,23.376,0,0,0-6.948-4.236,25.057,25.057,0,0,0-8.259-1.939,21.86,21.86,0,0,0-15.423,5.18.546.546,0,0,0,.345.948L41.675,79.4a.59.59,0,0,0-.471.985c4.017,4.191,8.844,7.515,14.662,8.5,4.686.792,9.986.491,14.26-1.732a8.808,8.808,0,0,0,4.442-4.861c.7-2.222-.743-4.341-2.273-5.8" transform="translate(-3.862 -6.613)" fill="#f79860"/>
              <path id="Trazado_878356" data-name="Trazado 878356" d="M38.283,42.059a1.826,1.826,0,0,1-1.75.078c-.427-.2-.809.422-.383.628a2.591,2.591,0,0,0,2.493-.065c.408-.24.05-.882-.36-.64" transform="translate(-3.385 -3.953)" fill="#ef6237"/>
              <path id="Trazado_878357" data-name="Trazado 878357" d="M57.121,86.108A.476.476,0,0,0,56.7,85.7L32.1,78.114a.578.578,0,0,0-.707.4,3.752,3.752,0,0,0,1.086,3.875c1.38,1.277,3.412,1.469,5.158,1.845,3.068.664,5.895,1.859,8.865,2.8,1.782.561,11.539,3.655,10.621-.923" transform="translate(-2.941 -7.349)" fill="#f79860"/>
              <path id="Trazado_878358" data-name="Trazado 878358" d="M34.945,79.955a1.439,1.439,0,0,0,.053.4.385.385,0,0,0,.118.174,1.456,1.456,0,0,0,.778.143.431.431,0,0,1,0,.861,2.1,2.1,0,0,1-1.342-.356,1.531,1.531,0,0,1-.469-1.225.431.431,0,0,1,.862,0" transform="translate(-3.208 -7.485)" fill="#ef6237"/>
              <path id="Trazado_878359" data-name="Trazado 878359" d="M34.559,33.179c2.026.246,5.182.951,5.967,3.115,1.268,3.5-3.981,4.543-6.306,4.594A7.323,7.323,0,0,1,28.074,38.1a2.856,2.856,0,0,1,.7-3.949c1.709-1.207,3.791-1.211,5.78-.969" transform="translate(-2.594 -3.111)" fill="#f79860"/>
              <path id="Trazado_878360" data-name="Trazado 878360" d="M39.519,25.227a1.859,1.859,0,0,0-1.707,2.006l.459,5.773c.1,1.266,1.085,3.51,2.707,2.822.871-.371,1.069-2.307,1.006-3.118l-.461-5.773a1.862,1.862,0,0,0-2-1.709" transform="translate(-3.558 -2.374)" fill="#f79860"/>
              <path id="Trazado_878361" data-name="Trazado 878361" d="M35.649,25.537a1.861,1.861,0,0,0-1.709,2l.464,5.774a1.862,1.862,0,1,0,3.711-.3l-.462-5.773a1.863,1.863,0,0,0-2-1.709" transform="translate(-3.194 -2.403)" fill="#f79860"/>
              <path id="Trazado_878362" data-name="Trazado 878362" d="M31.853,25.84a1.864,1.864,0,0,0-1.707,2.006l.461,5.773a1.864,1.864,0,0,0,3.716-.3l-.466-5.774a1.861,1.861,0,0,0-2-1.708" transform="translate(-2.837 -2.431)" fill="#f79860"/>
              <path id="Trazado_878363" data-name="Trazado 878363" d="M28.323,27.5a1.6,1.6,0,0,0-1.47,1.728l.3,3.674a1.605,1.605,0,0,0,3.2-.255l-.3-3.674a1.608,1.608,0,0,0-1.73-1.473" transform="translate(-2.527 -2.588)" fill="#f79860"/>
              <path id="Trazado_878364" data-name="Trazado 878364" d="M41.4,38.138a1.715,1.715,0,0,0-.178-2.392l-3.861-2.682a1.9,1.9,0,0,0-2.123,3.058L39.094,38.8a1.715,1.715,0,0,0,2.3-.667" transform="translate(-3.262 -3.09)" fill="#f79860"/>
              <path id="Trazado_878365" data-name="Trazado 878365" d="M38.7,37.717c-1.743-.346-4.567-1.558-4.387-3.755.069-.825,1.275-.6,1.759-.508a25.435,25.435,0,0,1,4.607,1.406c.557.218.154,1.048-.4.833a23.486,23.486,0,0,0-4.895-1.416c-.368-.054.454,1.071.454,1.071a4.3,4.3,0,0,0,.881.678,6.441,6.441,0,0,0,2.151.785.461.461,0,0,1-.172.906" transform="translate(-3.228 -3.139)" fill="#ef6237"/>
              <path id="Trazado_878366" data-name="Trazado 878366" d="M34.313,35.376c-1.374.049-3.071,0-3.612,1.541-.2.563-1.029.156-.832-.4.661-1.882,2.661-2,4.373-2.061.592-.021.668.9.071.921" transform="translate(-2.808 -3.243)" fill="#ef6237"/>
              <path id="Trazado_878367" data-name="Trazado 878367" d="M40.691,32.646c-.632.931-1.992,1.647-2.659.376a6.578,6.578,0,0,1-.4-1.875,20.34,20.34,0,0,1-.2-3.879c0-.591.923-.669.923-.073a24.682,24.682,0,0,0,.2,3.879c.063.419.106.862.2,1.276.21.9.938.128,1.234-.3.334-.493,1.033.112.7.6" transform="translate(-3.522 -2.521)" fill="#ef6237"/>
              <path id="Trazado_878368" data-name="Trazado 878368" d="M33.952,32.683c-.364,1.354-1.461,1.747-2.526.775-1.429-1.3-1.111-3.75-1.231-5.476a.463.463,0,0,1,.923-.073c.079,1.132.072,2.268.241,3.394.1.64,1.254,2.81,1.686,1.206.157-.569,1.063-.4.907.174" transform="translate(-2.842 -2.588)" fill="#ef6237"/>
              <path id="Trazado_878369" data-name="Trazado 878369" d="M30.949,33c-.125,1.642-2.528,2.7-3.586,1.261-.353-.481.408-1.007.759-.527.6.826,1.861-.121,1.919-.909.048-.592.952-.415.909.175" transform="translate(-2.567 -3.055)" fill="#ef6237"/>
              <path id="Trazado_878370" data-name="Trazado 878370" d="M34.3,33.321c-1.55-1.209-1.415-4.311-1.16-6.039.088-.591,1-.416.91.173-.207,1.376-.383,4.2.848,5.163.472.366-.129,1.069-.6.7" transform="translate(-3.104 -2.533)" fill="#ef6237"/>
              <path id="Trazado_878371" data-name="Trazado 878371" d="M51.371,11.96c.137,0,.27.008.4.016h4.433v1.816c3.547,2.852,5.984,8.739,5.984,15.544s-2.437,12.689-5.984,15.541V46.71H51.75V46.7c-.128.006-.252.014-.379.014-5.973,0-10.818-7.779-10.818-17.373S45.4,11.96,51.371,11.96" transform="translate(-3.817 -1.126)" fill="#6861ff"/>
              <path id="Trazado_878372" data-name="Trazado 878372" d="M45.781,29.336c0,9.594,4.842,17.373,10.815,17.373s10.82-7.779,10.82-17.373S62.573,11.959,56.6,11.959s-10.815,7.78-10.815,17.377" transform="translate(-4.309 -1.125)" fill="#0200e8"/>
              <path id="Trazado_878373" data-name="Trazado 878373" d="M58.71,15.775c.11,0,.216.007.323.014h3.552v1.454c2.839,2.286,4.789,7,4.789,12.452s-1.95,10.166-4.789,12.45v1.468H59.012V43.6c-.1,0-.2.013-.3.013-4.787,0-8.667-6.233-8.667-13.918s3.88-13.921,8.667-13.921" transform="translate(-4.71 -1.485)" fill="#6861ff"/>
              <path id="Trazado_878374" data-name="Trazado 878374" d="M54.23,29.695c0,7.686,3.882,13.918,8.668,13.918s8.664-6.233,8.664-13.918-3.877-13.92-8.664-13.92-8.668,6.233-8.668,13.92" transform="translate(-5.104 -1.485)" fill="#ff9c41"/>
              <path id="Trazado_878375" data-name="Trazado 878375" d="M57.348,30.188c0-5.059,2.623-9.175,5.844-9.175s5.839,4.115,5.839,9.175-2.619,9.173-5.839,9.173-5.844-4.115-5.844-9.173m.689,0c0,4.677,2.311,8.483,5.154,8.483s5.149-3.806,5.149-8.483S66.031,21.7,63.192,21.7s-5.154,3.806-5.154,8.485" transform="translate(-5.397 -1.978)" fill="#fff"/>
              <path id="Trazado_878376" data-name="Trazado 878376" d="M65.948,29.212l.014,0v0h3.048v0l.015,0c.6,0,1.087.782,1.087,1.747s-.486,1.747-1.087,1.747l-.015,0v0H65.963v0l-.014,0c-.6,0-1.087-.782-1.087-1.747s.486-1.747,1.087-1.747" transform="translate(-6.104 -2.749)" fill="#fff"/>
              <path id="Trazado_878377" data-name="Trazado 878377" d="M77.783,113.332,70.652,72.657l23.629-9.133,2.2.011.7.006,2.13.011,25.346,9.409-7.791,40.589,2.421,12.032h-.081a.384.384,0,0,1,.016.078c-.008,1.39-9.857,2.464-22,2.4s-21.98-1.252-21.972-2.642a.243.243,0,0,1,.021-.077h-.045Z" transform="translate(-6.649 -5.978)" fill="#6760ff"/>
            </g>
          </g>
          <g id="Grupo_1101908" data-name="Grupo 1101908" transform="translate(64.003 57.545)">
            <g id="Grupo_1101907" data-name="Grupo 1101907" clip-path="url(#clip-path-15)">
              <path id="Trazado_878378" data-name="Trazado 878378" d="M85.317,58.682a11.757,11.757,0,1,0,11.564-11.8,11.684,11.684,0,0,0-11.564,11.8" transform="translate(-72.032 -61.957)" fill="#f79860"/>
            </g>
          </g>
          <g id="Grupo_1101916" data-name="Grupo 1101916">
            <g id="Grupo_1101915" data-name="Grupo 1101915" clip-path="url(#clip-path-3)">
              <path id="Trazado_878380" data-name="Trazado 878380" d="M95.637,74.933a.387.387,0,0,0-.578-.055c-.091-.008-.181-.015-.274-.025a20.84,20.84,0,0,1-12.016-6.059l.764-.294a20.956,20.956,0,0,0,11.136,5.6c6.341.975,11.737-1.984,15.55-6.542l.738.274c-3.763,4.595-9.034,7.551-15.319,7.1" transform="translate(-7.79 -6.358)" fill="#fff"/>
              <path id="Trazado_878381" data-name="Trazado 878381" d="M125.186,97.112l-.326,1.709c-2.416-8.387-.7-17.676,2.071-25.994l.684.253c-2.56,7.695-4.2,16.194-2.429,24.033" transform="translate(-11.642 -6.854)" fill="#fff"/>
              <path id="Trazado_878382" data-name="Trazado 878382" d="M72.371,72.916l.684-.264c3.037,8.47,4.907,17.929,2.249,26.485l-.293-1.689c1.965-8.013.172-16.687-2.641-24.532" transform="translate(-6.811 -6.837)" fill="#fff"/>
              <path id="Trazado_878383" data-name="Trazado 878383" d="M96.9,75.682a.365.365,0,0,1,.058.188q.113,7.054.231,14.106a.368.368,0,0,1-.736.013q-.116-7.052-.233-14.106a.332.332,0,0,1,.1-.256.387.387,0,0,1,.578.055" transform="translate(-9.056 -7.108)" fill="#fff"/>
              <path id="Trazado_878384" data-name="Trazado 878384" d="M100.554,79.651a.867.867,0,1,1-.881-.853.867.867,0,0,1,.881.853" transform="translate(-9.3 -7.416)" fill="#fff"/>
              <path id="Trazado_878385" data-name="Trazado 878385" d="M99.758,83.99a.868.868,0,1,1-.851.881.868.868,0,0,1,.851-.881" transform="translate(-9.308 -7.904)" fill="#fff"/>
              <path id="Trazado_878386" data-name="Trazado 878386" d="M149.025,77.911a18.459,18.459,0,0,1-15.864-1.081c-.485-.269-.05-1.016.435-.743a17.624,17.624,0,0,0,15.2.991c.522-.2.745.632.231.833" transform="translate(-12.512 -7.155)" fill="#ef6237"/>
              <path id="Trazado_878387" data-name="Trazado 878387" d="M67.107,77.593a18.653,18.653,0,0,1-17,.691c-.5-.242-.064-.987.435-.745a17.781,17.781,0,0,0,16.132-.69.431.431,0,0,1,.435.744" transform="translate(-4.695 -7.226)" fill="#ef6237"/>
              <path id="Trazado_878388" data-name="Trazado 878388" d="M161.986,56.535a33.993,33.993,0,0,1,0,15.415c-.129.541-.963.311-.832-.229a33.09,33.09,0,0,0,0-14.956c-.131-.541.7-.77.832-.229" transform="translate(-15.165 -5.292)" fill="#ef6237"/>
              <path id="Trazado_878389" data-name="Trazado 878389" d="M38.561,56.651c0,5.018.1,10.022,2.056,14.723.214.515-.621.737-.832.232C37.8,66.835,37.7,61.74,37.7,56.651a.43.43,0,0,1,.861,0" transform="translate(-3.548 -5.292)" fill="#ef6237"/>
              <path id="Trazado_878390" data-name="Trazado 878390" d="M85.866,11.971a.652.652,0,0,0-.819.627v.013l-1.557-.279a.666.666,0,0,0-1.109-.573c-3.245,3.152-4.349,8.56-3.277,12.859.687,2.743,3.634,6.571,6.675,4.26,2.557-1.942,3.389-5.9,3.593-8.91.2-2.96-.412-6.758-3.506-8" transform="translate(-7.407 -1.089)" fill="#0200e8"/>
              <rect id="Rectángulo_403166" data-name="Rectángulo 403166" width="9.195" height="12.995" transform="translate(84.341 47.918) rotate(-0.147)" fill="#f79860"/>
              <path id="Trazado_878391" data-name="Trazado 878391" d="M93.115,58.055a6.96,6.96,0,0,0,9.2-.026L102.3,52.87l-9.2.024Z" transform="translate(-8.762 -4.976)" fill="#ef6237"/>
              <path id="Trazado_878392" data-name="Trazado 878392" d="M111.934,19.326c-.65-6.9-11.007-9.884-16.352-9.825-5.9.066-14.051,2.792-14.684,9.919A122.408,122.408,0,0,0,80.373,32.3c.068,3.881-.208,8.315,1.027,12.041,3.769,11.345,25.79,11,30.035.265,1.4-3.552,1-8,1.083-11.746a115.556,115.556,0,0,0-.584-13.539" transform="translate(-7.563 -0.894)" fill="#f79860"/>
              <path id="Trazado_878393" data-name="Trazado 878393" d="M88.773,27c3.092,2.905,5.036,7.727-.326,9.413a.677.677,0,0,0-.457.81c.368,2.169,2.352,3.778,4.339,2.2.31-.245.027-.7-.3-.713-1.3-.061-2.435-.336-2.776-1.845-.152.271-.306.541-.457.811,5.712-2.144,5.017-8.11.257-11.049a.236.236,0,0,0-.284.369" transform="translate(-8.28 -2.503)" fill="#ef6237"/>
              <path id="Trazado_878394" data-name="Trazado 878394" d="M114.383,40.189a3.878,3.878,0,0,0,3.2,2.135,3.715,3.715,0,0,0,2.914-1.34c1.52-1.951,2.034-5.015.263-7.015a3.291,3.291,0,0,0-3.257-1.094c-.093.025-.181.06-.27.092a2.884,2.884,0,0,0-2.05,1.216c.44-.588.414-.562-.071.077-.1.217-.2.438-.281.664.079-.226.122-.348.146-.406-.032.077-.094.238-.146.331a13.956,13.956,0,0,0-.671,1.435,4.51,4.51,0,0,0,.22,3.905" transform="translate(-10.712 -3.085)" fill="#f79860"/>
              <path id="Trazado_878395" data-name="Trazado 878395" d="M120.714,35.971c-2.1-.774-4.108.861-5.389,2.368-.343.406.241.995.591.585,1.089-1.281,2.769-2.817,4.578-2.151.5.188.715-.62.22-.8" transform="translate(-10.844 -3.367)" fill="#ef6237"/>
              <path id="Trazado_878396" data-name="Trazado 878396" d="M90.231,44.937s3.9,2.322,8.812-.931c0,0-3.477,8.564-8.812.931" transform="translate(-8.492 -4.141)" fill="#fff"/>
              <path id="Trazado_878397" data-name="Trazado 878397" d="M82.859,33.188c0,1.593.74,2.881,1.642,2.88s1.631-1.3,1.628-2.888-.742-2.883-1.644-2.88-1.631,1.295-1.626,2.888" transform="translate(-7.798 -2.852)" fill="#0200e8"/>
              <path id="Trazado_878398" data-name="Trazado 878398" d="M101.716,33.137c.006,1.593.74,2.881,1.642,2.88s1.634-1.3,1.628-2.889-.742-2.883-1.642-2.879-1.632,1.3-1.628,2.888" transform="translate(-9.573 -2.847)" fill="#0200e8"/>
              <path id="Trazado_878399" data-name="Trazado 878399" d="M80.639,26.937c1.7-.471,5.886-.044,6.1-2.572a1.95,1.95,0,0,0-1.776-2.111,6.356,6.356,0,0,0-5.609,3.159,1.152,1.152,0,0,0,1.283,1.524" transform="translate(-7.46 -2.094)" fill="#0200e8"/>
              <path id="Trazado_878400" data-name="Trazado 878400" d="M106.018,26.709a15.253,15.253,0,0,1-3.412-.3c-1.173-.222-2.566-.694-2.693-2.079a1.948,1.948,0,0,1,1.764-2.12,6.362,6.362,0,0,1,5.626,3.128c.491.952-.247,1.294-1.285,1.372" transform="translate(-9.402 -2.09)" fill="#0200e8"/>
              <path id="Trazado_878401" data-name="Trazado 878401" d="M106.585,10.6a.674.674,0,0,1,.514-.65c12.127-3.527,13.448,17.572,6.657,23.349a.742.742,0,0,1-1.256-.515c.172-3.441.177-6.888.168-10.333a12.121,12.121,0,0,1-4.9-4.278,13.3,13.3,0,0,1-1.6-6.926.662.662,0,0,1,.414-.648" transform="translate(-9.992 -0.899)" fill="#0200e8"/>
              <path id="Trazado_878402" data-name="Trazado 878402" d="M104.262,39.652c.129.373.291.734.418,1.108.144.421.815.238.668-.186-.127-.374-.287-.736-.418-1.108-.144-.422-.813-.238-.668.186" transform="translate(-9.81 -3.692)" fill="#ef6237"/>
              <path id="Trazado_878403" data-name="Trazado 878403" d="M105.639,39.648c.13.373.292.733.42,1.108.145.419.814.238.668-.186-.128-.373-.292-.735-.422-1.11-.142-.419-.812-.237-.666.188" transform="translate(-9.94 -3.691)" fill="#ef6237"/>
              <path id="Trazado_878404" data-name="Trazado 878404" d="M107.323,39.642c.13.374.292.735.42,1.11.143.42.813.236.669-.187-.133-.374-.292-.735-.42-1.109-.146-.421-.815-.237-.669.186" transform="translate(-10.098 -3.691)" fill="#ef6237"/>
              <path id="Trazado_878405" data-name="Trazado 878405" d="M81.292,39.713c.129.375.291.736.42,1.11.143.419.813.237.667-.187-.129-.374-.289-.734-.419-1.108-.144-.421-.813-.238-.668.185" transform="translate(-7.649 -3.698)" fill="#ef6237"/>
              <path id="Trazado_878406" data-name="Trazado 878406" d="M82.671,39.711c.127.373.291.734.418,1.108.146.42.811.237.669-.187-.13-.373-.293-.736-.419-1.109-.146-.42-.813-.236-.668.188" transform="translate(-7.778 -3.697)" fill="#ef6237"/>
              <path id="Trazado_878407" data-name="Trazado 878407" d="M84.356,39.707c.127.374.289.734.418,1.108.143.421.813.237.668-.186-.127-.373-.291-.736-.418-1.109-.144-.42-.813-.237-.668.187" transform="translate(-7.937 -3.697)" fill="#ef6237"/>
              <path id="Trazado_878408" data-name="Trazado 878408" d="M78.937,19.564a57.4,57.4,0,0,1,17.806-2.026,74.683,74.683,0,0,1,17.966,2.522,1.727,1.727,0,0,1-.917,3.328,72,72,0,0,0-17.049-2.4,53.56,53.56,0,0,0-16.891,1.9c-2.133.645-3.042-2.688-.915-3.327" transform="translate(-7.315 -1.648)" fill="#fff"/>
              <path id="Trazado_878409" data-name="Trazado 878409" d="M83.25,9.367c-2.177-1.549-4.638-4.252-1.994-6.248C84.294.824,88.5,1.894,92.02,2.92A2.2,2.2,0,0,1,92.2.458c.884-.917,2.678-.232,3.641.12a22.244,22.244,0,0,1,5.678,3.056,76.18,76.18,0,0,1,5.994,5.593.745.745,0,0,1-.146,1.154l-3.181,2.447c-2.2,2.2-4.67,4.5-7.571,5.732a2.962,2.962,0,0,1-3.181-.241,3.791,3.791,0,0,1-.852-3.24c-1.873,1.233-3.607,2.891-5.886,3.111a2.479,2.479,0,0,1-2.464-1.469c-.1.043-.195.087-.3.129-1.549.583-4.343,1.405-5.5-.3-1.738-2.575,1.933-5.935,4.821-7.18" transform="translate(-7.339 0)" fill="#0200e8"/>
              <path id="Trazado_878410" data-name="Trazado 878410" d="M104.042,12.433c-1.784,1.944-3.927,3.712-6.606,4.152a.368.368,0,0,1-.116-.726c2.479-.406,4.482-2.067,6.134-3.866.318-.345.91.09.588.44" transform="translate(-9.131 -1.117)" fill="#6760ff"/>
              <path id="Trazado_878411" data-name="Trazado 878411" d="M93.24,10.5c-1.609,3.339-6.752,4.749-9.688,2.374-.368-.3.071-.887.44-.586,2.546,2.055,7.157.866,8.564-2.063.2-.424.89-.153.684.274" transform="translate(-7.85 -0.942)" fill="#6760ff"/>
              <path id="Trazado_878412" data-name="Trazado 878412" d="M102.629,10.7a14.3,14.3,0,0,1-5.759,2.4c-.464.1-.574-.624-.115-.726a13.492,13.492,0,0,0,5.418-2.248c.377-.288.834.287.456.575" transform="translate(-9.078 -0.946)" fill="#6760ff"/>
              <g id="Grupo_1101911" data-name="Grupo 1101911" transform="translate(77.993 97.424)" style="mix-blend-mode: multiply;isolation: isolate">
                <g id="Grupo_1101910" data-name="Grupo 1101910">
                  <g id="Grupo_1101909" data-name="Grupo 1101909" clip-path="url(#clip-path-17)">
                    <path id="Trazado_878413" data-name="Trazado 878413" d="M94.447,117.4a13.869,13.869,0,0,1-8.352-9.856,23.714,23.714,0,0,0,8.774,7.33,32.123,32.123,0,0,0,5.686,2.618c1.62.493,3.333,1.643,5.087,1.464a23.082,23.082,0,0,1-11.2-1.556" transform="translate(-86.095 -107.545)" fill="#6760ff"/>
                  </g>
                </g>
              </g>
              <g id="Grupo_1101914" data-name="Grupo 1101914" transform="translate(79.847 96.146)" style="mix-blend-mode: multiply;isolation: isolate">
                <g id="Grupo_1101913" data-name="Grupo 1101913">
                  <g id="Grupo_1101912" data-name="Grupo 1101912" clip-path="url(#clip-path-18)">
                    <path id="Trazado_878414" data-name="Trazado 878414" d="M92.23,108.945c-1.416-1.109-2.757-2.619-4.087-2.811,3.461.5,6.491,2.417,10.021,2.651,1.661.11,3.5.669,5.145.245-2.836.731-6.19,1.8-9.113,1.014a5.8,5.8,0,0,1-1.965-1.1" transform="translate(-88.143 -106.134)" fill="#6760ff"/>
                  </g>
                </g>
              </g>
            </g>
          </g>
        </g>
      </g>
    </g>
  </g>
</svg>
