<svg xmlns="http://www.w3.org/2000/svg" xmlns:xlink="http://www.w3.org/1999/xlink" width="69.609" height="69.609" viewBox="0 0 69.609 69.609">
  <defs>
    <clipPath id="clip-path">
      <path id="path4725" d="M0-682.665H43.555v43.555H0Z" transform="translate(0 682.665)" fill="none"/>
    </clipPath>
  </defs>
  <g id="Grupo_1101927" data-name="Grupo 1101927" transform="translate(-215.165 -2356)">
    <rect id="Rectángulo_403156" data-name="Rectángulo 403156" width="69.609" height="69.609" rx="34.805" transform="translate(215.165 2356)" fill="#30169a"/>
    <g id="g4719" transform="translate(228.388 3051.889)">
      <g id="g4721" transform="translate(0 -682.665)">
        <g id="g4723" clip-path="url(#clip-path)">
          <g id="g4729" transform="translate(6.68 4.597)">
            <path id="path4731" d="M-247.6-44.805a8.419,8.419,0,0,1,6.018,2.408,8.459,8.459,0,0,1,2.384,6.688,10.984,10.984,0,0,1-3.268,6.966,10.95,10.95,0,0,1-7.636,3.291,8.419,8.419,0,0,1-6.018-2.408,8.459,8.459,0,0,1-2.384-6.688,10.984,10.984,0,0,1,3.268-6.966A10.95,10.95,0,0,1-247.6-44.805Zm-2.5,18.077a9.666,9.666,0,0,0,6.733-2.918,9.709,9.709,0,0,0,2.9-6.152,7.2,7.2,0,0,0-2.014-5.7,7.152,7.152,0,0,0-5.116-2.034,9.667,9.667,0,0,0-6.733,2.918,9.709,9.709,0,0,0-2.9,6.152,7.2,7.2,0,0,0,2.014,5.7A7.152,7.152,0,0,0-250.1-26.729Z" transform="translate(258.524 44.805)" fill="#fff"/>
          </g>
          <g id="g4733" transform="translate(19.541 3.505)">
            <path id="path4735" d="M-75.486-89.417a.637.637,0,0,1-.505-.248.638.638,0,0,1,.115-.895,2.47,2.47,0,0,0,.237-.207,2.435,2.435,0,0,0,0-3.439,2.435,2.435,0,0,0-3.439,0,2.448,2.448,0,0,0-.367.47.638.638,0,0,1-.876.218.638.638,0,0,1-.218-.876,3.726,3.726,0,0,1,.558-.715,3.712,3.712,0,0,1,5.243,0,3.712,3.712,0,0,1,0,5.244,3.747,3.747,0,0,1-.359.314A.635.635,0,0,1-75.486-89.417Z" transform="translate(80.631 96.192)" fill="#fff"/>
          </g>
          <g id="g4737" transform="translate(5.588 17.457)">
            <path id="path4739" d="M-92.486-73.653a3.7,3.7,0,0,1-2.622-1.084,3.712,3.712,0,0,1,0-5.243,3.729,3.729,0,0,1,.715-.558.638.638,0,0,1,.875.218.638.638,0,0,1-.218.876,2.452,2.452,0,0,0-.47.367,2.435,2.435,0,0,0,0,3.439,2.435,2.435,0,0,0,3.439,0,2.441,2.441,0,0,0,.207-.236.638.638,0,0,1,.895-.115.638.638,0,0,1,.115.895,3.713,3.713,0,0,1-.315.359A3.7,3.7,0,0,1-92.486-73.653Z" transform="translate(96.192 80.631)" fill="#fff"/>
          </g>
          <g id="g4741" transform="translate(2.085 0.002)">
            <path id="path4743" d="M-290.919-55.249a.636.636,0,0,1-.412-.151,18,18,0,0,1-4.141-4.988,1.847,1.847,0,0,1-.021-1.692,1.865,1.865,0,0,1,1.38-1.007l.154-.023c-.25-1.939.5-3.776,1.228-5.56.219-.536.438-1.073.628-1.61a1.45,1.45,0,0,1,.888-.888c.537-.19,1.074-.409,1.61-.628,1.784-.728,3.621-1.478,5.56-1.228q.01-.073.023-.154a1.865,1.865,0,0,1,1.007-1.38,1.847,1.847,0,0,1,1.692.021,18,18,0,0,1,4.988,4.141.638.638,0,0,1-.074.9.638.638,0,0,1-.9-.074,16.679,16.679,0,0,0-4.614-3.84.561.561,0,0,0-.521-.005.579.579,0,0,0-.317.434,2.855,2.855,0,0,0-.057.6.616.616,0,0,1-.173.6.637.637,0,0,1-.617.148c-1.808-.488-3.608.247-5.514,1.025-.544.222-1.106.452-1.667.65a.18.18,0,0,0-.11.11c-.2.561-.428,1.124-.65,1.667-.778,1.906-1.513,3.706-1.025,5.514a.638.638,0,0,1-.161.614.638.638,0,0,1-.61.171,4.486,4.486,0,0,0-.572.062.579.579,0,0,0-.434.317.561.561,0,0,0,.005.521,16.676,16.676,0,0,0,3.84,4.614.638.638,0,0,1,.074.9A.637.637,0,0,1-290.919-55.249Z" transform="translate(295.688 74.752)" fill="#fff"/>
          </g>
          <g id="g4745" transform="translate(10.825 16.255)">
            <path id="path4747" d="M-8.64-8a.636.636,0,0,1-.451-.187l-.722-.722a.638.638,0,0,1,0-.9.638.638,0,0,1,.9,0l.722.722a.638.638,0,0,1,0,.9A.636.636,0,0,1-8.64-8Z" transform="translate(10 10)" fill="#fff"/>
          </g>
          <g id="g4749" transform="translate(18.338 8.742)">
            <path id="path4751" d="M-8.64-8a.636.636,0,0,1-.451-.187l-.722-.722a.638.638,0,0,1,0-.9.638.638,0,0,1,.9,0l.722.722a.638.638,0,0,1,0,.9A.636.636,0,0,1-8.64-8Z" transform="translate(10 10)" fill="#fff"/>
          </g>
          <g id="g4753" transform="translate(14.292 12.208)">
            <path id="path4755" d="M-9.234-37.783q-.086,0-.172-.006a.638.638,0,0,1-.593-.68.638.638,0,0,1,.68-.593,1.22,1.22,0,0,0,.947-.354,1.219,1.219,0,0,0,.354-.947.638.638,0,0,1,.593-.68.638.638,0,0,1,.68.593,2.5,2.5,0,0,1-.725,1.936A2.5,2.5,0,0,1-9.234-37.783Z" transform="translate(10 41.044)" fill="#fff"/>
          </g>
          <g id="g4757" transform="translate(17.809 15.726)">
            <path id="path4759" d="M-3.562-91.922c-.051,0-.1,0-.15,0a2.41,2.41,0,0,1-1.8-.89,24.272,24.272,0,0,1-4.479-9.315.638.638,0,0,1,.488-.759.638.638,0,0,1,.759.488,23.228,23.228,0,0,0,4.22,8.778,1.122,1.122,0,0,0,.872.422c1.658.083,4.513-2.139,6.027-3.653s3.737-4.369,3.653-6.028a1.122,1.122,0,0,0-.422-.872,23.228,23.228,0,0,0-8.778-4.22.638.638,0,0,1-.488-.759.638.638,0,0,1,.759-.488,24.272,24.272,0,0,1,9.315,4.479,2.41,2.41,0,0,1,.89,1.8c.138,2.747-3.6,6.567-4.026,6.994S-.828-91.922-3.562-91.922Z" transform="translate(10.002 109.235)" fill="#fff"/>
          </g>
          <g id="g4761" transform="translate(24.736 4.91)">
            <path id="path4763" d="M-98.823-.633a.635.635,0,0,1-.391-.134.638.638,0,0,1-.112-.9c1.7-2.183,4.38-5.932,5.667-8.034a.638.638,0,0,1,.877-.211.638.638,0,0,1,.211.877C-93.88-6.892-96.6-3.09-98.319-.88A.637.637,0,0,1-98.823-.633Z" transform="translate(99.46 10.001)" fill="#fff"/>
          </g>
          <g id="g4765" transform="translate(27.821 3.475)">
            <path id="path4767" d="M-9.363-206.163a.635.635,0,0,1-.406-.146.638.638,0,0,1-.086-.9,113.278,113.278,0,0,0,6.917-9.734,1.8,1.8,0,0,0-.627-2.459,1.786,1.786,0,0,0-.615-.227.638.638,0,0,1-.522-.736.638.638,0,0,1,.736-.522,3.058,3.058,0,0,1,1.053.387A3.074,3.074,0,0,1-1.84-216.29a115.135,115.135,0,0,1-7.03,9.9A.637.637,0,0,1-9.363-206.163Z" transform="translate(10 220.894)" fill="#fff"/>
          </g>
          <g id="g4769" transform="translate(16.516 27.525)">
            <path id="path4771" d="M-9.364-124.915a.635.635,0,0,1-.3-.076.638.638,0,0,1-.26-.864,80.123,80.123,0,0,0,3.306-7.837.638.638,0,0,1,.819-.378.638.638,0,0,1,.378.819,81.44,81.44,0,0,1-3.379,8A.638.638,0,0,1-9.364-124.915Z" transform="translate(10.002 134.109)" fill="#fff"/>
          </g>
          <g id="g4773" transform="translate(11.818 22.461)">
            <path id="path4775" d="M-79.514,5.746l-.058,0a3.08,3.08,0,0,1-1.355-.457A3.074,3.074,0,0,1-81.9,1.055a82.95,82.95,0,0,0,4.17-10.579.638.638,0,0,1,.778-.458.638.638,0,0,1,.458.778A83.083,83.083,0,0,1-80.817,1.732a1.8,1.8,0,0,0,.568,2.474,1.774,1.774,0,0,0,.791.267.638.638,0,0,1,.579.692A.638.638,0,0,1-79.514,5.746Z" transform="translate(82.366 10.002)" fill="#fff"/>
          </g>
          <g id="g4777" transform="translate(19.455 21.256)">
            <path id="path4779" d="M-67.752-152.124a3.026,3.026,0,0,1-1.334-.311,3.019,3.019,0,0,1-1.538-1.745,3.019,3.019,0,0,1,.146-2.321c.2-.414,2.03-4.136,3.645-7.1a.638.638,0,0,1,.865-.255.638.638,0,0,1,.255.865c-1.6,2.941-3.418,6.639-3.619,7.051a1.751,1.751,0,0,0-.085,1.347,1.751,1.751,0,0,0,.892,1.012,1.752,1.752,0,0,0,1.346.085,1.751,1.751,0,0,0,1.013-.893c.859-1.753,2.842-5.7,4.2-8.092a.638.638,0,0,1,.423-.309,7.985,7.985,0,0,0,3.6-1.862.638.638,0,0,1,.573-.141.638.638,0,0,1,.444.389c1.3,3.352,3.178,8.6,3.383,9.581a1.754,1.754,0,0,0,.753,1.127,1.752,1.752,0,0,0,1.323.261,1.751,1.751,0,0,0,1.121-.751,1.751,1.751,0,0,0,.262-1.324,134.4,134.4,0,0,0-5.042-13.71.638.638,0,0,1-.057-.356,4.57,4.57,0,0,0-1.06-3.776.638.638,0,0,1,.032-.9.638.638,0,0,1,.9.032A5.774,5.774,0,0,1-53.9-169.6a134.429,134.429,0,0,1,5.063,13.843,3.019,3.019,0,0,1-.451,2.282,3.019,3.019,0,0,1-1.933,1.294,3.02,3.02,0,0,1-2.28-.45,3.018,3.018,0,0,1-1.3-1.934c-.145-.7-1.627-4.946-3.009-8.56a9.129,9.129,0,0,1-3.192,1.522c-1.338,2.383-3.2,6.1-4.028,7.779a3.019,3.019,0,0,1-1.746,1.539A3.044,3.044,0,0,1-67.752-152.124Z" transform="translate(70.79 174.425)" fill="#fff"/>
          </g>
          <g id="g4781" transform="translate(35.035 37.631)">
            <path id="path4783" d="M-9.362-28.869a.636.636,0,0,1-.432-.168.638.638,0,0,1-.038-.9,6.806,6.806,0,0,1,5.209-1.5.638.638,0,0,1,.5.75.638.638,0,0,1-.75.5,5.764,5.764,0,0,0-4.022,1.115A.636.636,0,0,1-9.362-28.869Z" transform="translate(10 31.518)" fill="#fff"/>
          </g>
          <g id="g4785" transform="translate(20.558 37.092)">
            <path id="path4787" d="M-5.089-6.537a.636.636,0,0,1-.454-.19A10.309,10.309,0,0,0-9.522-8.746a.638.638,0,0,1-.461-.776.638.638,0,0,1,.776-.461A11.482,11.482,0,0,1-4.635-7.624a.638.638,0,0,1-.006.9A.636.636,0,0,1-5.089-6.537Z" transform="translate(10.002 10.002)" fill="#fff"/>
          </g>
        </g>
      </g>
    </g>
  </g>
</svg>
