<svg xmlns="http://www.w3.org/2000/svg" width="69.609" height="69.609" viewBox="0 0 69.609 69.609">
  <g id="Grupo_1101928" data-name="Grupo 1101928" transform="translate(-215.165 -2448)">
    <rect id="Rectángulo_403155" data-name="Rectángulo 403155" width="69.609" height="69.609" rx="34.805" transform="translate(215.165 2448)" fill="#30169a"/>
    <g id="Outline" transform="translate(214.212 2447.047)">
      <path id="Trazado_878434" data-name="Trazado 878434" d="M50.585,53.911v1.33a.665.665,0,0,0,.665.665h3.991a.665.665,0,0,0,.665-.665,5.237,5.237,0,0,0-1.68-3.837l-7.18-6.628-.036-.031-6.585-5.268a5.227,5.227,0,0,1-.7-.94c-1.656-2.207-3.872-3.918-5.537-6.117-.838-1.107-1.414-2.366-2.157-3.533a23.2,23.2,0,0,0-2.712-3.479c-.509-.538-3.561-3.255-3.561-3.255l-6.648-5.983a.665.665,0,0,0-.814-.059l-2,1.33A.665.665,0,0,0,16,18v1.33a.665.665,0,0,0,.323.57l3.255,1.953,3.938,3.938-.165.024-.324-.179L23,25.617a2.99,2.99,0,0,0-2.3-.141,3.034,3.034,0,0,0-1.019.6,4.678,4.678,0,0,0-1.395,1.809,3.641,3.641,0,0,0,.024,2.894,3.52,3.52,0,0,0,1.017,1.354v3.047a2.1,2.1,0,0,1-1.441,2V32.738a2.1,2.1,0,0,1,.306-1.095l-1.136-.692a3.432,3.432,0,0,0-.5,1.787v4.277l-.484.968a.665.665,0,0,0,.092.734c.474.546,1.607-.1,2.143-.282a3.431,3.431,0,0,0,2.35-3.26v-2.3a8.085,8.085,0,0,0,2.724.445c.159,0,.3,0,.4-.009l.335.247,0,0-1.6,2.14a2.5,2.5,0,0,0-.5,1.6l.112,2.7A2.665,2.665,0,0,0,19.991,42.6V52.689a.108.108,0,0,1-.074.1l-.939.313a1.438,1.438,0,0,0,.457,2.8h3.883a.665.665,0,0,0,.3-.07l.9-.451.326.326a.665.665,0,0,0,.47.195h.665a.665.665,0,0,0,.665-.665V41.274H31.3a.665.665,0,0,0,.665-.665v-.835l5.732-1.72,1.717,2.289a.668.668,0,0,0,.116.12l6.633,5.306,2.685,2.479-1.26,1.679-6.636-3.9-3.326-2a.666.666,0,0,0-.342-.095H27.972v1.33H37.1l3.172,1.9,10.566,6.215-.057.057A.665.665,0,0,0,50.585,53.911ZM20.461,20.851a.669.669,0,0,0-.128-.1l-3-1.8v-.6L18.6,17.5l6.267,5.64.007.006,1.963,1.718a21.9,21.9,0,0,1,4.744,5.871,4.354,4.354,0,0,1-3.066-1.174L27.9,28.339a.664.664,0,0,0-.125-.173Zm6.723,9.027-.23.279-.792-.608.485-.632.114.114Zm-5.207,1.981a3.027,3.027,0,0,1-2.444-1.606,2.44,2.44,0,0,1,.4-2.559l.708,1.382a1.488,1.488,0,0,0,1.643,2.34l.167-.058.361.607a7.245,7.245,0,0,1-.837-.107ZM21.321,42.6a1.331,1.331,0,0,1,.862-1.244l.273,6.565H21.321Zm-.333,11.972H19.434a.108.108,0,0,1-.108-.108.11.11,0,0,1,.074-.1l.938-.313a1.437,1.437,0,0,0,.983-1.364V49.255h1.191l.13,3.116Zm4.691-17.223a.665.665,0,0,0-.368.595V54.3l-.195-.195a.665.665,0,0,0-.768-.125l-1.19.6h-.508l1.2-1.6a.665.665,0,0,0,.132-.427l-.638-15.312a1.162,1.162,0,0,1,.231-.744l1.011-1.348.917,1.528a3.646,3.646,0,0,0,.413.559Zm-.165-3.7a1.157,1.157,0,0,0-.466-1.071l-.565-.416-1.165-1.959a.665.665,0,0,0-.788-.289l-.678.234a.157.157,0,0,1-.145-.274l.161-.12a.665.665,0,0,0,.194-.836L20.97,26.8a1.685,1.685,0,0,1,.161-.066,1.668,1.668,0,0,1,1.268.071l.5.279a.664.664,0,0,0,.419.076l.889-.131.024.18a.665.665,0,0,0,.254.441l.915.7-.7.915a.665.665,0,0,0,.122.932l1.447,1.111a1.158,1.158,0,0,0,1.471-.044,2.38,2.38,0,0,1-.24,2.222,1.483,1.483,0,0,1-1.5.331A3.226,3.226,0,0,1,25.514,33.659Zm5.118,6.285H26.642V38.36l.477-.239a3.634,3.634,0,0,0,2.674.143l.419-.14.421,1.262Zm-.39-3.232-.87.29a2.325,2.325,0,0,1-2.73-1.01l-.482-.8a3.435,3.435,0,0,0,.356.019,2.639,2.639,0,0,0,1.926-.78,3.2,3.2,0,0,0,.721-2.847,6.1,6.1,0,0,0,3.15.444l.816,1.224Zm1.482,1.744-.344-1.031L34,34.278l2.688,2.688Zm17.016,12.15,1.088-1.451,3.495,3.226a3.9,3.9,0,0,1,1.195,2.195h-2.6v-.39l.47-.47a.665.665,0,0,0-.133-1.044Z" fill="#fff"/>
    </g>
  </g>
</svg>
