<svg xmlns="http://www.w3.org/2000/svg" width="85" height="85" viewBox="0 0 85 85">
  <g id="Grupo_1101143" data-name="Grupo 1101143" transform="translate(-710.195 -5961.041)">
    <g id="Grupo_1098883" data-name="Grupo 1098883" transform="translate(-308.804 -802.959)">
      <g id="Grupo_1098742" data-name="Grupo 1098742" transform="translate(1019 6764)">
        <rect id="Rect치ngulo_400898" data-name="Rect치ngulo 400898" width="85" height="85" rx="42.5" transform="translate(0 0)" fill="#30169a" opacity="0.996"/>
        <rect id="Rect치ngulo_400907" data-name="Rect치ngulo 400907" width="85" height="85" rx="42.5" transform="translate(0 0)" fill="none"/>
      </g>
    </g>
    <g id="verduras" transform="translate(720.448 5971.291)">
      <path id="Trazado_874708" data-name="Trazado 874708" d="M84.776,83.7a12.63,12.63,0,0,1-2.146,1.9,4.3,4.3,0,0,0-3.016-1.253,4.219,4.219,0,0,0-1.536.286l-.53.2a.805.805,0,0,0-.514.637v.021a30.735,30.735,0,0,1-18.42.031.8.8,0,0,0-.877,1.25c2.1,2.821,8.057,7.2,15.428,7.2a18.837,18.837,0,0,0,7.274-1.481.787.787,0,0,0,.853.134l.126-.058.016-.007a4.311,4.311,0,0,0,2.115-5.639A14.22,14.22,0,0,0,86,84.743.8.8,0,1,0,84.775,83.7ZM60.912,87.777a31.878,31.878,0,0,0,17.215-.954l.432.328-.28,1.439a.8.8,0,0,0,.509.908l1.425.53-.022.828c-8.087,3.571-15.5.154-19.279-3.078Zm20.9,2.443.019-.725a.8.8,0,0,0-.524-.776l-1.323-.493.246-1.261a.8.8,0,0,0-.3-.8l-.276-.209a2.7,2.7,0,0,1,2.161,4.258Z" transform="translate(-28.543 -42.501)" fill="#fff"/>
      <path id="Trazado_874709" data-name="Trazado 874709" d="M54.345,60.856a.8.8,0,1,0-1.532.491,7.183,7.183,0,0,0,1.314,2.4.805.805,0,0,0,1.241-1.026,5.589,5.589,0,0,1-1.023-1.864Z" transform="translate(-25.947 -30.009)" fill="#fff"/>
      <path id="Trazado_874710" data-name="Trazado 874710" d="M110.5,56.481a.8.8,0,0,0,1.037-.469,19.143,19.143,0,0,0,1.057-6.79,20.165,20.165,0,0,0-.368-3.484.8.8,0,1,0-1.578.313,18.584,18.584,0,0,1,.339,3.209,17.378,17.378,0,0,1-.954,6.185A.8.8,0,0,0,110.5,56.481Z" transform="translate(-56.851 -21.794)" fill="#fff"/>
      <path id="Trazado_874711" data-name="Trazado 874711" d="M87.715,51.538h.039a.8.8,0,0,0,.8-.765,18.819,18.819,0,0,1,.281-2.47,17.7,17.7,0,0,1,1.518-4.686.8.8,0,1,0-1.443-.712,19.268,19.268,0,0,0-1.658,5.106,20.5,20.5,0,0,0-.306,2.684.8.8,0,0,0,.765.843Z" transform="translate(-44.41 -20.362)" fill="#fff"/>
      <path id="Trazado_874712" data-name="Trazado 874712" d="M104.656,57.384a.766.766,0,0,0,.128.011.805.805,0,0,0,.794-.677c.227-1.414.4-2.979.5-4.407a.8.8,0,1,0-1.606-.106c-.052.8-.184,2.415-.481,4.258a.8.8,0,0,0,.667.922Z" transform="translate(-53.611 -25.232)" fill="#fff"/>
      <path id="Trazado_874713" data-name="Trazado 874713" d="M105.918,42.064h.02a.8.8,0,0,0,.785-.824c-.017-.72-.056-1.432-.119-2.176a.8.8,0,1,0-1.6.136c.06.712.1,1.392.114,2.08a.8.8,0,0,0,.8.785Z" transform="translate(-54.161 -18.141)" fill="#fff"/>
      <path id="Trazado_874714" data-name="Trazado 874714" d="M94.377,55.819h.009a.805.805,0,0,0,.8-.8,43.032,43.032,0,0,1,.763-6.9c.171-.893.359-1.747.558-2.535a.8.8,0,1,0-1.56-.393c-.206.819-.4,1.7-.577,2.625a44.714,44.714,0,0,0-.792,7.186.805.805,0,0,0,.8.813Z" transform="translate(-47.993 -21.523)" fill="#fff"/>
      <path id="Trazado_874715" data-name="Trazado 874715" d="M40.874,54.821l-6.682-4.472,0,0-14.3-9.569.209-6.613a10.737,10.737,0,0,1,2.407-6.587c.184.029.368.053.552.064.125.008.249.012.373.012.154,0,.308-.008.46-.021-.031.2-.066.407-.085.615a9.949,9.949,0,0,0,9.011,10.814q.463.042.923.042a9.871,9.871,0,0,0,7.289-3.2,9.979,9.979,0,0,0,5.4,2.837c-.276.418-.514.714-.518.719a.8.8,0,1,0,1.251,1.011c.018-.022.276-.346.586-.81.184.528.351.908.363.934a.8.8,0,0,0,1.466-.664c0-.006-.159-.354-.322-.834.216.009.433.022.644.022a8.976,8.976,0,0,0,6.57-2.4c2.447-2.413,2.985-6.192,2.672-8.925-.465-4.071-2.571-6.606-4.264-8.643-1.161-1.4-2.076-2.5-2.023-3.6A8.31,8.31,0,0,1,56.6,10.272a.8.8,0,1,0-.76-1.418,8.95,8.95,0,0,0-3.882,4.441l.54-4.209a.8.8,0,0,0-1.6-.205l-.542,4.226a8.936,8.936,0,0,0-2.633-5.293A.8.8,0,0,0,46.634,9a8.3,8.3,0,0,1,2.278,6.054c-.227,1.068-1.391,1.908-2.866,2.965a20.091,20.091,0,0,0-4.434,3.968.8.8,0,0,0-.109-.128,11.264,11.264,0,0,0-5.266-2.8,16.929,16.929,0,0,1,1.977-4.163.8.8,0,0,0-1.321-.919A18.915,18.915,0,0,0,34.626,18.8a11.443,11.443,0,0,0-4.459.5,5.328,5.328,0,0,0-2.52-6.827,5.315,5.315,0,0,0-4.3-4.259,5.762,5.762,0,0,0-10.231-.65,5.314,5.314,0,0,0-4.806,3.678,5.329,5.329,0,0,0-2.519,8.193,5.754,5.754,0,0,0,4.979,7.422,10.688,10.688,0,0,1,1.547,6.79l-.877,9.278a.782.782,0,0,0,.387.761c-.119.225-.239.45-.345.672a4.5,4.5,0,0,1-1.866-2.931.8.8,0,1,0-1.563.379,8.183,8.183,0,0,0,.565,1.618L5.858,42.3a.8.8,0,1,0-.605,1.491L8.011,44.91a8.166,8.166,0,0,0-1.531.766.8.8,0,0,0,.859,1.361,4.486,4.486,0,0,1,3.377-.8,20.969,20.969,0,0,0-.776,3.113,4.431,4.431,0,0,0,2.729,4.863,7.372,7.372,0,0,0,1.449.421l1.363.249h0L27.19,57.016h0L39.1,59.189a2.407,2.407,0,0,0,1.771-4.368ZM18.5,34.087l-.184,5.855a4.424,4.424,0,0,0-5.116,1.5l.725-7.671a12.583,12.583,0,0,0-1.345-7.029A5.71,5.71,0,0,0,14.02,26.2c.042.03.086.057.128.085A13.753,13.753,0,0,1,15.5,32.367a.805.805,0,0,0,.754.817h.051a.8.8,0,0,0,.8-.716,13.739,13.739,0,0,1,1.839-5.422,5.715,5.715,0,0,0,1.139-.465,5.736,5.736,0,0,0,.782.468,12.522,12.522,0,0,0-2.37,7.038Zm-2.253-6.93a5.753,5.753,0,0,0,.754.1H17c-.146.3-.292.605-.431.941-.1-.366-.212-.709-.327-1.039Zm16.724,10.3A8.34,8.34,0,0,1,25.41,28.4a8.777,8.777,0,0,1,.2-1.174,5.756,5.756,0,0,0,3.505-4.4,7.091,7.091,0,0,0,1.14.169A5.754,5.754,0,0,0,31.4,25.678a.807.807,0,0,0,.706.3,4.551,4.551,0,0,0,2.552-1.32,4.663,4.663,0,0,0,3.08,2.01.838.838,0,0,0,.143.012.805.805,0,0,0,.711-.429,5.293,5.293,0,0,0,.506-2.32,3.13,3.13,0,0,0,1.036-.11c.057.068.111.138.165.207a13.414,13.414,0,0,0-.569,1.268c-.99,2.558-1.425,6.338.319,9.287a8.291,8.291,0,0,1-7.087,2.873ZM46.981,19.323c1.465-1.05,2.758-1.977,3.31-3.3l.485.062.011,0h.018l.474.061c.2,1.416,1.216,2.641,2.368,4.027,1.637,1.97,3.494,4.2,3.9,7.8.269,2.356-.169,5.589-2.207,7.6-1.639,1.616-4.092,2.227-7.3,1.815s-5.425-1.622-6.6-3.6c-1.462-2.457-1.069-5.7-.213-7.908,1.307-3.372,3.666-5.061,5.748-6.556ZM34.546,20.4a9.72,9.72,0,0,1,5.008,1.91,1.661,1.661,0,0,1-1-.154.8.8,0,0,0-1.175.9,3.858,3.858,0,0,1,0,1.839,3.294,3.294,0,0,1-1.77-1.872.8.8,0,0,0-.634-.552.827.827,0,0,0-.134-.011.806.806,0,0,0-.647.326,4.87,4.87,0,0,1-1.8,1.484,2.8,2.8,0,0,1-.506-1.908.8.8,0,0,0-.936-1.011,3.776,3.776,0,0,1-1.442-.087A9.842,9.842,0,0,1,34.546,20.4ZM8.18,23.864a4.148,4.148,0,0,1-.736-4.291A.8.8,0,0,0,7.3,18.74a3.721,3.721,0,0,1,1.865-6.079.8.8,0,0,0,.587-.6,3.694,3.694,0,0,1,3.8-2.891.789.789,0,0,0,.764-.454A4.153,4.153,0,0,1,22,9.2a.805.805,0,0,0,.7.547,3.71,3.71,0,0,1,3.408,3.35.805.805,0,0,0,.506.672A3.721,3.721,0,0,1,27.7,20.036a.805.805,0,0,0-.25.809,4.158,4.158,0,0,1,.132.935.812.812,0,0,0,0,.095c0,.092,0,.184-.006.276a4.152,4.152,0,0,1-2.89,3.7l-.007,0a4.138,4.138,0,0,1-4-.848.8.8,0,0,0-.985-.063,4.151,4.151,0,0,1-1.435.62l-.031.007a4.1,4.1,0,0,1-2.988-.495c-.008-.006-.017-.009-.025-.014a4.265,4.265,0,0,1-.6-.441.8.8,0,0,0-.985-.063,4.146,4.146,0,0,1-5.45-.69ZM40.275,57.122a.8.8,0,0,1-.883.485L28.46,55.613l.341-.84a.8.8,0,1,0-1.491-.6l-.466,1.149L16.751,53.478l.731-1.8a.8.8,0,0,0-1.491-.6l-.857,2.115-.729-.133a5.773,5.773,0,0,1-1.133-.33,2.867,2.867,0,0,1-1.747-3.106,16.8,16.8,0,0,1,2.887-7.122,2.86,2.86,0,0,1,2.351-1.221,2.924,2.924,0,0,1,.34.023l-1.617,3.989a.8.8,0,1,0,1.491.6l1.627-4.015c.089.053.181.1.266.159l7.155,4.786-.614,1.517a.8.8,0,1,0,1.491.6l.487-1.208,5.361,3.586-.809,2a.8.8,0,0,0,1.491.6l.684-1.687,5.861,3.923a.8.8,0,0,1,.3.964Z" transform="translate(0 0)" fill="#fff"/>
      <path id="Trazado_874716" data-name="Trazado 874716" d="M41.581,96.369a.8.8,0,0,0-1.046.442l-.677,1.669a.8.8,0,1,0,1.491.6l.677-1.669A.8.8,0,0,0,41.581,96.369Z" transform="translate(-18.937 -49.466)" fill="#fff"/>
    </g>
  </g>
</svg>
