<svg xmlns="http://www.w3.org/2000/svg" xmlns:xlink="http://www.w3.org/1999/xlink" width="295" height="397.468" viewBox="0 0 295 397.468">
  <defs>
    <clipPath id="clip-path">
      <rect id="Rectángulo_403111" data-name="Rectángulo 403111" width="55.662" height="59.001" fill="none"/>
    </clipPath>
    <clipPath id="clip-path-2">
      <rect id="Rectángulo_403110" data-name="Rectángulo 403110" width="55.661" height="59.001" fill="none"/>
    </clipPath>
    <clipPath id="clip-path-3">
      <rect id="Rectángulo_403107" data-name="Rectángulo 403107" width="16.232" height="6.78" fill="none"/>
    </clipPath>
    <clipPath id="clip-path-4">
      <rect id="Rectángulo_403108" data-name="Rectángulo 403108" width="15.5" height="8.454" fill="none"/>
    </clipPath>
    <clipPath id="clip-path-5">
      <rect id="Rectángulo_403109" data-name="Rectángulo 403109" width="30.557" height="55.324" fill="none"/>
    </clipPath>
    <clipPath id="clip-path-6">
      <rect id="Rectángulo_403104" data-name="Rectángulo 403104" width="57.072" height="40.62" fill="none"/>
    </clipPath>
    <clipPath id="clip-path-7">
      <rect id="Rectángulo_403105" data-name="Rectángulo 403105" width="34.235" height="78.95" fill="none"/>
    </clipPath>
  </defs>
  <g id="Grupo_1101714" data-name="Grupo 1101714" transform="translate(-180.052 -394)">
    <g id="Grupo_1101696" data-name="Grupo 1101696">
      <g id="Grupo_1101582" data-name="Grupo 1101582" transform="translate(179.051 383.162)">
        <g id="Grupo_1098861" data-name="Grupo 1098861" transform="translate(1 10.838)">
          <path id="Unión_17" data-name="Unión 17" d="M0,71.444,79.379,0l.553.614,78.749,70.878-34.117,37.875L79.483,68.791l-45.216,40.7Z" transform="translate(0 287.833)" fill="#95dbb3"/>
          <rect id="Rectángulo_401079" data-name="Rectángulo 401079" width="217" height="337.788" rx="88" transform="translate(40 33.162)" fill="#5357de"/>
          <path id="Unión_15" data-name="Unión 15" d="M106.081,92.066,45.7,146.553,0,95.695,106.055,0l.026.029L106.107,0,212.162,95.695l-45.7,50.858Z" transform="translate(82.838)" fill="#95dbb3"/>
          <path id="Unión_16" data-name="Unión 16" d="M0,69.916,77.9,0l.543.6,77.286,69.362L122.25,107.028,78.006,67.32,33.631,107.145Z" transform="translate(111.267 106.814)" fill="#95dbb3"/>
        </g>
        <g id="Grupo_1098863" data-name="Grupo 1098863" transform="translate(156.877 348.421)">
          <rect id="Rectángulo_401081" data-name="Rectángulo 401081" width="2.46" height="2.459" transform="translate(134.662)" fill="#95dbb3" stroke="#95dbb3" stroke-linejoin="round" stroke-width="2"/>
          <rect id="Rectángulo_401082" data-name="Rectángulo 401082" width="2.46" height="2.46" transform="translate(134.662 14.872)" fill="#95dbb3" stroke="#95dbb3" stroke-linejoin="round" stroke-width="2"/>
          <rect id="Rectángulo_401083" data-name="Rectángulo 401083" width="2.46" height="2.46" transform="translate(134.662 29.745)" fill="#95dbb3" stroke="#95dbb3" stroke-linejoin="round" stroke-width="2"/>
          <rect id="Rectángulo_401084" data-name="Rectángulo 401084" width="2.46" height="2.459" transform="translate(121.196)" fill="#95dbb3" stroke="#95dbb3" stroke-linejoin="round" stroke-width="2"/>
          <rect id="Rectángulo_401085" data-name="Rectángulo 401085" width="2.46" height="2.46" transform="translate(121.196 14.872)" fill="#95dbb3" stroke="#95dbb3" stroke-linejoin="round" stroke-width="2"/>
          <rect id="Rectángulo_401086" data-name="Rectángulo 401086" width="2.46" height="2.46" transform="translate(121.196 29.745)" fill="#95dbb3" stroke="#95dbb3" stroke-linejoin="round" stroke-width="2"/>
          <rect id="Rectángulo_401087" data-name="Rectángulo 401087" width="2.46" height="2.459" transform="translate(107.731)" fill="#95dbb3" stroke="#95dbb3" stroke-linejoin="round" stroke-width="2"/>
          <rect id="Rectángulo_401088" data-name="Rectángulo 401088" width="2.46" height="2.46" transform="translate(107.731 14.872)" fill="#95dbb3" stroke="#95dbb3" stroke-linejoin="round" stroke-width="2"/>
          <rect id="Rectángulo_401089" data-name="Rectángulo 401089" width="2.46" height="2.46" transform="translate(107.731 29.745)" fill="#95dbb3" stroke="#95dbb3" stroke-linejoin="round" stroke-width="2"/>
          <rect id="Rectángulo_401090" data-name="Rectángulo 401090" width="2.46" height="2.459" transform="translate(94.263)" fill="#95dbb3" stroke="#95dbb3" stroke-linejoin="round" stroke-width="2"/>
          <rect id="Rectángulo_401091" data-name="Rectángulo 401091" width="2.46" height="2.46" transform="translate(94.263 14.872)" fill="#95dbb3" stroke="#95dbb3" stroke-linejoin="round" stroke-width="2"/>
          <rect id="Rectángulo_401092" data-name="Rectángulo 401092" width="2.46" height="2.46" transform="translate(94.263 29.745)" fill="#95dbb3" stroke="#95dbb3" stroke-linejoin="round" stroke-width="2"/>
          <rect id="Rectángulo_401093" data-name="Rectángulo 401093" width="2.46" height="2.459" transform="translate(80.798)" fill="#95dbb3" stroke="#95dbb3" stroke-linejoin="round" stroke-width="2"/>
          <rect id="Rectángulo_401094" data-name="Rectángulo 401094" width="2.46" height="2.46" transform="translate(80.798 14.872)" fill="#95dbb3" stroke="#95dbb3" stroke-linejoin="round" stroke-width="2"/>
          <rect id="Rectángulo_401095" data-name="Rectángulo 401095" width="2.46" height="2.46" transform="translate(80.798 29.745)" fill="#95dbb3" stroke="#95dbb3" stroke-linejoin="round" stroke-width="2"/>
          <rect id="Rectángulo_401096" data-name="Rectángulo 401096" width="2.459" height="2.459" transform="translate(67.332)" fill="#95dbb3" stroke="#95dbb3" stroke-linejoin="round" stroke-width="2"/>
          <rect id="Rectángulo_401097" data-name="Rectángulo 401097" width="2.46" height="2.46" transform="translate(67.332 14.872)" fill="#95dbb3" stroke="#95dbb3" stroke-linejoin="round" stroke-width="2"/>
          <rect id="Rectángulo_401098" data-name="Rectángulo 401098" width="2.459" height="2.46" transform="translate(67.332 29.745)" fill="#95dbb3" stroke="#95dbb3" stroke-linejoin="round" stroke-width="2"/>
          <rect id="Rectángulo_401099" data-name="Rectángulo 401099" width="2.459" height="2.459" transform="translate(53.866)" fill="#95dbb3" stroke="#95dbb3" stroke-linejoin="round" stroke-width="2"/>
          <rect id="Rectángulo_401100" data-name="Rectángulo 401100" width="2.46" height="2.46" transform="translate(53.866 14.872)" fill="#95dbb3" stroke="#95dbb3" stroke-linejoin="round" stroke-width="2"/>
          <rect id="Rectángulo_401101" data-name="Rectángulo 401101" width="2.459" height="2.46" transform="translate(53.866 29.745)" fill="#95dbb3" stroke="#95dbb3" stroke-linejoin="round" stroke-width="2"/>
          <rect id="Rectángulo_401102" data-name="Rectángulo 401102" width="2.459" height="2.459" transform="translate(40.4)" fill="#95dbb3" stroke="#95dbb3" stroke-linejoin="round" stroke-width="2"/>
          <rect id="Rectángulo_401103" data-name="Rectángulo 401103" width="2.46" height="2.46" transform="translate(40.399 14.872)" fill="#95dbb3" stroke="#95dbb3" stroke-linejoin="round" stroke-width="2"/>
          <rect id="Rectángulo_401104" data-name="Rectángulo 401104" width="2.459" height="2.46" transform="translate(40.4 29.745)" fill="#95dbb3" stroke="#95dbb3" stroke-linejoin="round" stroke-width="2"/>
          <rect id="Rectángulo_401105" data-name="Rectángulo 401105" width="2.459" height="2.459" transform="translate(26.933)" fill="#95dbb3" stroke="#95dbb3" stroke-linejoin="round" stroke-width="2"/>
          <rect id="Rectángulo_401106" data-name="Rectángulo 401106" width="2.46" height="2.46" transform="translate(26.933 14.872)" fill="#95dbb3" stroke="#95dbb3" stroke-linejoin="round" stroke-width="2"/>
          <rect id="Rectángulo_401107" data-name="Rectángulo 401107" width="2.459" height="2.46" transform="translate(26.933 29.745)" fill="#95dbb3" stroke="#95dbb3" stroke-linejoin="round" stroke-width="2"/>
          <rect id="Rectángulo_401108" data-name="Rectángulo 401108" width="2.46" height="2.459" transform="translate(13.466)" fill="#95dbb3" stroke="#95dbb3" stroke-linejoin="round" stroke-width="2"/>
          <rect id="Rectángulo_401109" data-name="Rectángulo 401109" width="2.46" height="2.46" transform="translate(13.467 14.872)" fill="#95dbb3" stroke="#95dbb3" stroke-linejoin="round" stroke-width="2"/>
          <rect id="Rectángulo_401110" data-name="Rectángulo 401110" width="2.46" height="2.46" transform="translate(13.466 29.745)" fill="#95dbb3" stroke="#95dbb3" stroke-linejoin="round" stroke-width="2"/>
          <rect id="Rectángulo_401111" data-name="Rectángulo 401111" width="2.46" height="2.459" fill="#95dbb3" stroke="#95dbb3" stroke-linejoin="round" stroke-width="2"/>
          <rect id="Rectángulo_401112" data-name="Rectángulo 401112" width="2.46" height="2.46" transform="translate(0 14.872)" fill="#95dbb3" stroke="#95dbb3" stroke-linejoin="round" stroke-width="2"/>
          <rect id="Rectángulo_401113" data-name="Rectángulo 401113" width="2.46" height="2.46" transform="translate(0 29.745)" fill="#95dbb3" stroke="#95dbb3" stroke-linejoin="round" stroke-width="2"/>
        </g>
      </g>
      <g id="Grupo_1101695" data-name="Grupo 1101695" transform="translate(208.052 311.698)">
        <g id="Grupo_1101697" data-name="Grupo 1101697" transform="translate(0 82.302)">
          <g id="Grupo_1101693" data-name="Grupo 1101693">
            <g id="Grupo_1101698" data-name="Grupo 1101698">
              <path id="Trazado_877630" data-name="Trazado 877630" d="M69.426,141.054c2.211-16.178,4.238-32.01,17.407-43.488a42.5,42.5,0,0,1,19.476-9.476A56.024,56.024,0,0,1,131.6,82.317c10.424.262,20.945,6.683,28.3,14.519,6.013,4.744,10.988,10.788,15.286,16.02,2.014,2.452,4.155,4.933,6.227,7.331,6.535,7.57,13.294,15.4,17.873,24.316,3,5.83,6.116,14.681,3.969,23.737a35.576,35.576,0,0,1-6.775,13.251,40.412,40.412,0,0,1-4.095,5.948C187.761,193,181.91,197.4,175.958,201.5c-17.1,11.794-36.452,22.059-57.527,23.626-7.34.546-15.71,2.352-22.572-.813-8.39-3.868-15.157-11.06-19.5-19.119a57.24,57.24,0,0,1-2.872-6.208c-3.638-9.241-5.024-19.357-5.429-29.331a162.493,162.493,0,0,1,1.367-28.6m109.333-16.039c5.572,7.008,11.026,13.828,15.424,21.759,3.593,6.482,6.615,13.6,6.389,21.01a26.883,26.883,0,0,1-1.061,6.508,27.7,27.7,0,0,0,2.42-6.365c2.05-8.651-.966-17.176-3.855-22.8-4.506-8.774-11.211-16.539-17.694-24.05-2.077-2.4-4.225-4.892-6.25-7.356-2.707-3.3-5.693-6.921-9.028-10.326,4.791,7.055,8.331,14.927,13.655,21.622" transform="translate(-67.925 -82.302)" fill="#0b0a14"/>
              <path id="Trazado_877631" data-name="Trazado 877631" d="M40.145,217.194c1.064,4.534,4.582,10.693,5.732,14.214,10.775,33.006,16.035,72.643,10.254,106.971-3.977,23.613,38.927,33.785,55.52,33.952a128.6,128.6,0,0,0,36.189-4.806c5.3-1.509,10.257-3.828,15.437-5.6,6.015-2.061,6.556-2.733,6.749-9.418A33.948,33.948,0,0,1,171.751,344q5.924-20.178,11.85-40.354c2.295-7.817,4.6-15.694,5.369-23.806,1.544-16.321-3.23-32.6-9.425-47.78C174,218.475,168.8,203.652,162.052,190.668c-7.889-15.181-12.7,6-17.3,12.107-8.139,10.8-20.129,18.891-33.568,21.177a48.443,48.443,0,0,1-30.7-5.246A46.466,46.466,0,0,1,68.1,209.126a92.621,92.621,0,0,1-8.012-10.765.97.97,0,0,0-.37-.373.991.991,0,0,0-.8.123c-6.639,3.109-18.381,8.3-19.062,16.287a9.146,9.146,0,0,0,.289,2.8" transform="translate(-17.672 -54.935)" fill="#30169a"/>
              <path id="Trazado_877632" data-name="Trazado 877632" d="M48.447,363.53A148.226,148.226,0,0,1,71.42,310.985c3.476,19.343,40.39,27.794,55.5,27.946a128.542,128.542,0,0,0,36.188-4.8c5.3-1.509,10.259-3.829,15.438-5.6,3.3-1.13,4.95-1.849,5.8-3.371,2.154,3.523,2.663,8.656,4.426,15.247q5.829,21.782,9.623,44.043,2.85,16.685,4.552,33.539H41.088a318.973,318.973,0,0,1,7.359-54.453" transform="translate(-32.941 -21.536)" fill="#0d046d"/>
              <path id="Trazado_877633" data-name="Trazado 877633" d="M152.61,207.028c-8.14,10.8-20.13,18.891-33.568,21.176a48.441,48.441,0,0,1-30.7-5.245,46.466,46.466,0,0,1-12.388-9.579,92.125,92.125,0,0,1-7.979-10.716c3.593-1.37,9.155-3.749,9.728-3.995,5.836-2.487,15.066-4.764,15.592-12.39a18.405,18.405,0,0,0-.591-5.358A50.115,50.115,0,0,0,90.956,175c-.352-.967-.738-1.92-1.143-2.866a15.746,15.746,0,0,1-.583-1.911c11.823,3.426,29.043,6.325,37.984-.94.808,2.545,1.58,5.1,2.276,7.68,1.972,7.3,6.217,10.917,13.5,12.8,1.38.358,12.65,1.119,18.514,1.34-3.423,3.574-6.194,12.338-8.892,15.918" transform="translate(-25.527 -59.189)" fill="#ffc396"/>
              <path id="Trazado_877634" data-name="Trazado 877634" d="M89.078,157.087c-1.481-3.777-3.566-7.441-3.822-11.49-.663-10.419,6.979-15.929,12.807-22.894a42.506,42.506,0,0,0,7.387-12.9c1.413-3.943,3.462-8.878,2.659-13.1,6.6,1.733,14.087,6.66,19.314,11.059,6.169,5.191,11.513,12.865,15.823,19.634.511.8.995,1.62,1.473,2.442,1.347,4.258,2.457,8.6,3.443,12.928.433,1.9.867,3.8,1.261,5.72,2.488,12.086,1.223,22.634-5.406,33.292-9.355,15.043-25.273,13.715-40.5,9a43.43,43.43,0,0,1-13.529-7.6,40.542,40.542,0,0,0-.9-26.1" transform="translate(-36.452 -78.475)" fill="#fdb884"/>
              <path id="Trazado_877635" data-name="Trazado 877635" d="M1.611,259.286c8.369-6.734,16.73-12.739,25.56-18.623,2.242-1.494,3.109-3.871,5.608-3.185,1.795.492,4.85,5.422,6.14,6.87q6.151,6.9,12.219,13.881c3.161,3.634,7.923,7.344,9.3,11.97,1.571,5.277.08,12.26-2.309,17.043a23.443,23.443,0,0,1-15.525,12.428c-11.027,2.431-23.566-5.126-28.45-14.814C12.67,281.905-1.05,261.428.262,260.372l1.349-1.086" transform="translate(160.705 -41.101)" fill="#30169a"/>
              <path id="Trazado_877636" data-name="Trazado 877636" d="M30.224,294.845c3.806-1.025,7.63-1.973,11.447-2.687,18.8-3.517,38.341-2.263,54.1-14.158,5.35-4.038,9.989-9.285,12.212-15.609.185-.527.368-1.072.571-1.609,3.815,6.583,9.965,15.929,10.933,17.852a28.212,28.212,0,0,0,8.9,10.04c-6.355,1.5-13.018,2.962-18.388,5.755-10.208,5.311-18.8,13.141-28.513,19.1-1.414.867-2.853,1.7-4.324,2.471a137.742,137.742,0,0,1-40.217,13.548c-.805.142-1.62.275-2.44.394-.757-9.993-1.956-19.6-3.529-29.425-.368-2.3.439-4.288-.752-5.67" transform="translate(55.371 -34.876)" fill="#ffc396"/>
              <path id="Trazado_877637" data-name="Trazado 877637" d="M26.054,140.875a2.17,2.17,0,0,1,.939.714c5.067,5.574,10.85,11.861,17.3,15.751,4.13,2.492,9.518,4.955,12.5,8.9,1.682,2.226,2.006,5.164,2.219,7.945q.535,7.027.628,14.079l-.17-.935-.17.259a116.8,116.8,0,0,0,10.516,24.178c4.612,7.987,10.28,15.176,14.957,23.015,2.835,4.75,6.358,9.1,9.631,13.57,3.688,5.038,6.879,10.154,10.394,15.051-1.111.638-1.99,1.959-3.438,2.924-8.828,5.884-17.19,11.889-25.56,18.623l-.44.356A180.708,180.708,0,0,1,45.27,198.539a53.316,53.316,0,0,1-.147-6.669c-3.615-3.1-6.318-6.916-10.288-9.865a16.894,16.894,0,0,1-3.066-2.68,9.312,9.312,0,0,1-1.939-7.278,18.454,18.454,0,0,1,1.425-5.843,8.021,8.021,0,0,0,.7-1.583c.21-.864,0-1.791.224-2.652.509-1.959,2.7-2.777,1.513-4.867-.889-1.564-3.155-2.91-4.364-4.3a22.851,22.851,0,0,1-4.577-6.83c-.392-1.078-1.362-5.851,1.3-5.093" transform="translate(86.52 -66.76)" fill="#ffc396"/>
              <path id="Trazado_877638" data-name="Trazado 877638" d="M34.594,248.362c-3.515-4.9-6.7-10.013-10.394-15.049-3.273-4.471-6.8-8.821-9.631-13.571C10.02,212.118,4.542,205.1,0,197.376,15.159,211.22,29.871,225.6,42.846,241.527c7.188,8.827,14.511,17.886,18.68,28.6,2.056,5.286,3.855,11.522,3.764,17.244A14.9,14.9,0,0,1,63.966,293c1.145-4.011,1.554-8.5.459-12.177-1.378-4.626-6.141-8.336-9.3-11.97q-6.068-6.977-12.219-13.882c-1.29-1.448-4.346-6.377-6.141-6.87A2.68,2.68,0,0,0,34.594,248.362Z" transform="translate(156.719 -51.725)" fill="#30169a"/>
              <path id="Trazado_877639" data-name="Trazado 877639" d="M105.271,231.627c1.081-7.868,1.366-19.745,7.169-25.778,2.959-3.077,4.258-4.253,8.441-2.543a27.265,27.265,0,0,1,8.813,5.492c2.736,2.787,4.707,6.949,6.879,10.218a66.385,66.385,0,0,1,6.229,12.076c3.43,8.561,5.454,17.6,7.43,26.585,2.424,11.017,4.855,22.1,5.339,33.373.272,6.362.377,12.708.566,19.072,3.293-.084,6.587-.184,9.88-.247,1.939-.035,7.634-1.142,9.213-.158,2.2,1.368,1.046,3.619,1.472,6.278,1.678,10.476,2.95,20.692,3.693,31.409q.059.864.119,1.728c.116,1.681-24.231,5.52-27.409,6.432a29.212,29.212,0,0,1-25.745-5.584c-5.535-4.117-9.071-10.845-11.564-17.443-7.045-18.647-8.766-38.813-10.333-58.685-.687-8.73-1.353-17.539-1.285-26.323a121.341,121.341,0,0,1,1.092-15.9" transform="translate(-90.356 -50.358)" fill="#30169a"/>
              <path id="Trazado_877640" data-name="Trazado 877640" d="M98.18,128.926c-1.27-2.138.13-5.8,2.867-5.869a4.2,4.2,0,0,1,3.895,4.767c-.587,3.054-5.219,3.7-6.761,1.1" transform="translate(-6.658 -71.473)" fill="#190e90"/>
              <path id="Trazado_877641" data-name="Trazado 877641" d="M102.658,136.665c.877.594,1.429,2.987,1.5,3.955a7.16,7.16,0,0,1-.723,3.753,2.062,2.062,0,0,0-.338.966c.046,1.478,3.1.316,3.69.013,1.794-.924,3.331-3.221,1.29-4.782q-2.652-2.032-5.421-3.9" transform="translate(-16.975 -67.857)" fill="#e86464"/>
              <path id="Trazado_877642" data-name="Trazado 877642" d="M96.774,122.963a.882.882,0,0,0,.818-.552,10.37,10.37,0,0,1,6.126-6.022,10.618,10.618,0,0,1,8.621.97.883.883,0,0,0,.867-1.539,12.4,12.4,0,0,0-10.061-1.1,12.137,12.137,0,0,0-7.188,7.03.882.882,0,0,0,.818,1.215" transform="translate(-13.013 -73.85)" fill="#190e90"/>
              <path id="Trazado_877643" data-name="Trazado 877643" d="M120.516,137.2c-1.27-2.138.132-5.8,2.868-5.869a4.2,4.2,0,0,1,3.893,4.767c-.586,3.054-5.219,3.7-6.761,1.1" transform="translate(-57.265 -69.274)" fill="#190e90"/>
              <path id="Trazado_877644" data-name="Trazado 877644" d="M121.3,132.467a.882.882,0,0,0,.818-.552,10.377,10.377,0,0,1,6.126-6.022,10.63,10.63,0,0,1,8.621.97.883.883,0,0,0,.867-1.538,12.381,12.381,0,0,0-10.06-1.1,12.136,12.136,0,0,0-7.189,7.03.882.882,0,0,0,.818,1.214" transform="translate(-68.582 -71.325)" fill="#190e90"/>
              <path id="Trazado_877645" data-name="Trazado 877645" d="M101.328,158a1.157,1.157,0,0,0,.761-.284c2.823-2.444,6.379-3.211,11.185-2.431a1.162,1.162,0,1,0,.375-2.293c-5.463-.9-9.744.075-13.081,2.967a1.162,1.162,0,0,0,.761,2.042" transform="translate(-19.391 -63.605)" fill="#e86464"/>
              <path id="Trazado_877646" data-name="Trazado 877646" d="M101.719,141.7a12.991,12.991,0,1,0-12.991-12.99,13,13,0,0,0,12.991,12.99m0-24.664a11.673,11.673,0,1,1-11.674,11.674,11.684,11.684,0,0,1,11.674-11.674" transform="translate(-5.001 -73.423)" fill="#fff"/>
              <path id="Trazado_877647" data-name="Trazado 877647" d="M126.005,151.444a12.991,12.991,0,1,0-12.991-12.99,13,13,0,0,0,12.991,12.99m0-24.664a11.673,11.673,0,1,1-11.674,11.674,11.685,11.685,0,0,1,11.674-11.674" transform="translate(-60.026 -70.834)" fill="#fff"/>
              <path id="Trazado_877648" data-name="Trazado 877648" d="M107.543,132.71l1.313-.1c-.019-.27.2-.608.644-1.006a9.624,9.624,0,0,1,5.915-2.4.529.529,0,0,1-.128-.227.494.494,0,0,1,.065-.4l1.087.744a.822.822,0,0,0,.044-.876,1.269,1.269,0,0,0-1.124-.562,10.826,10.826,0,0,0-6.737,2.733,2.712,2.712,0,0,0-1.078,2.088" transform="translate(-30.688 -70.189)" fill="#fff"/>
              <rect id="Rectángulo_403106" data-name="Rectángulo 403106" width="1.318" height="23.799" transform="translate(30.646 75.129) rotate(-99.483)" fill="#fff"/>
              <path id="Trazado_877649" data-name="Trazado 877649" d="M94.693,333.07c2.323,25.073,1.99,53.875,1.524,79.044" transform="translate(5.606 -15.668)" fill="none" stroke="#fff" stroke-linecap="round" stroke-miterlimit="10" stroke-width="1.3"/>
              <path id="Trazado_877650" data-name="Trazado 877650" d="M78.371,360.962a50.639,50.639,0,0,1-31.219-23.529" transform="translate(83.961 -14.508)" fill="none" stroke="#fff" stroke-linecap="round" stroke-miterlimit="10" stroke-width="1.3"/>
              <path id="Trazado_877651" data-name="Trazado 877651" d="M161.143,321.623c-14.419,28.628-15.682,61.846-16.661,93.885" transform="translate(-122.003 -18.71)" fill="none" stroke="#fff" stroke-linecap="round" stroke-miterlimit="10" stroke-width="1.3"/>
              <path id="Trazado_877652" data-name="Trazado 877652" d="M162.069,334.844a14.266,14.266,0,0,1-3.162,5.307,54.817,54.817,0,0,1-35.087,18.823" transform="translate(-96.777 -15.197)" fill="none" stroke="#fff" stroke-linecap="round" stroke-miterlimit="10" stroke-width="1.3"/>
              <path id="Trazado_877653" data-name="Trazado 877653" d="M94.786,333.668c-.13,8.788-.249,17.692,1.864,26.223,1.115,4.506,3.228,9.275,7.464,11.174" transform="translate(-1.997 -15.509)" fill="none" stroke="#fff" stroke-linecap="round" stroke-miterlimit="10" stroke-width="1.3"/>
              <path id="Trazado_877654" data-name="Trazado 877654" d="M122.955,202.571c21.772,6.786,27.847,38.745,31.91,57.965a346.6,346.6,0,0,1,6.3,49.53" transform="translate(-94.776 -50.344)" fill="none" stroke="#fff" stroke-linecap="round" stroke-miterlimit="10" stroke-width="1.3"/>
              <path id="Trazado_877655" data-name="Trazado 877655" d="M60.887,269.294a103.137,103.137,0,0,0-12.6-17.166c-2.169-2.39-4.558-4.606-6.836-6.889q-2.322-2.328-4.638-4.66a25.174,25.174,0,0,0-2.434-2.6c-1.5-1.142-1.924-.37-3.157.681-3.093,2.635-6.27,5.181-9.474,7.682q-9.717,7.583-19.986,14.427A115.608,115.608,0,0,1,10.9,277.634" transform="translate(158.899 -41.086)" fill="none" stroke="#fff" stroke-linecap="round" stroke-miterlimit="10" stroke-width="1.3"/>
              <path id="Trazado_877656" data-name="Trazado 877656" d="M107.142,297.736a12.409,12.409,0,0,1,5.607-6.234c6.591-3.793,14.219-4,21.615-4.244a205.173,205.173,0,0,1,24,.609,1.6,1.6,0,0,1,1.794,1.544,146.936,146.936,0,0,1,3.9,37.82,96.7,96.7,0,0,1-17.333,4.09c-10.461,1.719-20.845,4.746-30.475-1.168-4.263-2.617-7.883-6.139-11.465-9.63" transform="translate(-74.711 -27.871)" fill="none" stroke="#fff" stroke-linecap="round" stroke-miterlimit="10" stroke-width="1.3"/>
              <path id="Trazado_877657" data-name="Trazado 877657" d="M81.575,142.957a15.464,15.464,0,0,1-1.389-1.3,1.874,1.874,0,0,0-1.74-.532c-1.473.492-.554,4.176-.214,5.262a14.751,14.751,0,0,0,2.961,5.044,36.9,36.9,0,0,0,9.332,7.466" transform="translate(33.222 -66.689)" fill="none" stroke="#fff" stroke-miterlimit="10" stroke-width="0.858"/>
              <path id="Trazado_877658" data-name="Trazado 877658" d="M82.746,154.167c-1.529,1.053-3.068,1.972-3.531,3.914a4.931,4.931,0,0,0,1.119,4.374" transform="translate(39.164 -63.206)" fill="none" stroke="#fff" stroke-miterlimit="10" stroke-width="0.858"/>
              <path id="Trazado_877659" data-name="Trazado 877659" d="M82.008,160.581a1,1,0,0,0-.975.349,4.417,4.417,0,0,0-1.12,3.8c.143,1.333-.892,2.372-.867,3.838a9.514,9.514,0,0,0,1.886,5.243,21.2,21.2,0,0,0,3.959,4.015" transform="translate(37.071 -61.512)" fill="none" stroke="#fff" stroke-miterlimit="10" stroke-width="0.858"/>
            </g>
          </g>
        </g>
      </g>
    </g>
    <g id="Grupo_1101711" data-name="Grupo 1101711" transform="translate(398.335 422)">
      <g id="Grupo_1101710" data-name="Grupo 1101710" clip-path="url(#clip-path)">
        <g id="Grupo_1101709" data-name="Grupo 1101709" transform="translate(0 0)">
          <g id="Grupo_1101708" data-name="Grupo 1101708" clip-path="url(#clip-path-2)">
            <path id="Trazado_877660" data-name="Trazado 877660" d="M22.27,50.771c-6.215-.893-12.129-2.557-18.529-2.934-5.249-.31-4.04,7.093-2,9.754,1.135,1.478,3.172,2.124,5.073,2.648a209.337,209.337,0,0,0,32.333,6.233,9.707,9.707,0,0,0,4.843-.294c1.885-.806,2.848-2.668,3.672-4.394q.9-1.888,1.8-3.775a1.566,1.566,0,0,0,.223-.862,1.547,1.547,0,0,0-.728-.943,12.168,12.168,0,0,0-4.835-1.641c-7.265-1.37-14.534-2.74-21.857-3.791" transform="translate(0 -7.632)" fill="#f3c752"/>
            <path id="Trazado_877661" data-name="Trazado 877661" d="M44.228,49.821a113.386,113.386,0,0,0-20.3-5.387c-3.116-.525-6.472-.492-9.527-1.11s-5.208-1.388-8.464-.839c-1.985.335-5.915,2.4-5.269,4.826.349,1.311,2.069,1.724,3.479,1.736s3.04-.052,3.968.967c.864.95.708,2.446,1.461,3.479a3.654,3.654,0,0,0,3.347,1.184A17.18,17.18,0,0,0,16.5,53.635c2.637-.885,5.974-1.035,7.824.974.554.6.919,1.346,1.475,1.946a4.536,4.536,0,0,0,4.768,1.1c1.676-.629,2.849-2.224,4.585-2.676a6.139,6.139,0,0,1,4.374.872A30.568,30.568,0,0,0,43.5,58.032a5.784,5.784,0,0,0,5.274-.482,3.493,3.493,0,0,0,1.011-4.7,5.129,5.129,0,0,0-1.738-1.376,28.183,28.183,0,0,0-3.821-1.652" transform="translate(-0.096 -6.749)" fill="#4ca059"/>
            <path id="Trazado_877662" data-name="Trazado 877662" d="M23.971,51.685A49.88,49.88,0,0,1,10.2,48.006a17.473,17.473,0,0,1-3.484-2.089,7.21,7.21,0,0,1-2.246-1.989,4.658,4.658,0,0,1-.282-2.594c.215-2.4.714-4.233,3.577-4.307A64.4,64.4,0,0,1,20.5,38.4l20.086,3.524a62.249,62.249,0,0,1,7.265,1.63c1.709.519,2.957,1.508,3.075,3.337a10.156,10.156,0,0,1-.249,2.5c-.358,1.918-1.247,3.761-3.544,3.724-2.792-.045-5.7.087-8.545.1a62.851,62.851,0,0,1-6.786-.637c-2.6-.26-5.228-.526-7.83-.9" transform="translate(-0.659 -5.907)" fill="#a52e28"/>
            <path id="Trazado_877663" data-name="Trazado 877663" d="M17.832,33.9c-3.016.042-7.033.144-9.076,2.731a2.718,2.718,0,0,0-.678,1.5c-.056,1.156,1.057,1.971,2.085,2.43A22.341,22.341,0,0,0,17.4,42.208a25.225,25.225,0,0,0,9.479-.716,5.839,5.839,0,0,0,1.867-.861A2.64,2.64,0,0,0,29.826,38.9c.28-2.337-2.091-3.287-3.785-3.814A26.433,26.433,0,0,0,17.832,33.9" transform="translate(-1.289 -5.409)" fill="#f49e40"/>
            <path id="Trazado_877664" data-name="Trazado 877664" d="M29.823,39.354l-.008,0a2.85,2.85,0,0,1-.015.289,2.643,2.643,0,0,1-1.078,1.734,5.847,5.847,0,0,1-1.867.861,25.225,25.225,0,0,1-9.479.716A22.336,22.336,0,0,1,10.138,41.3C9.11,40.844,8,40.028,8.053,38.873a1.789,1.789,0,0,1,.045-.307c-.113.034-.115.128-.133.384s-.04.525-.045.789a2.863,2.863,0,0,0,.32,1.567,3.931,3.931,0,0,0,1.81,1.408,22.336,22.336,0,0,0,7.239,1.651,25.227,25.227,0,0,0,9.479-.716,5.855,5.855,0,0,0,1.867-.861,3.049,3.049,0,0,0,1.116-1.7,5.786,5.786,0,0,0,.082-1.146c0-.067-.008-.333-.01-.591" transform="translate(-1.263 -6.154)" fill="#f3c752"/>
            <g id="Grupo_1101701" data-name="Grupo 1101701" transform="translate(8.991 29.051)" opacity="0.2">
              <g id="Grupo_1101700" data-name="Grupo 1101700">
                <g id="Grupo_1101699" data-name="Grupo 1101699" clip-path="url(#clip-path-3)">
                  <path id="Trazado_877665" data-name="Trazado 877665" d="M19.786,41.734l.194.03a1.519,1.519,0,0,0,1.051-.087,1.1,1.1,0,0,0,.435-1.014,6.077,6.077,0,0,0-.3-1.072,2.966,2.966,0,0,0-.462-1.071,5.481,5.481,0,0,0-.81-.913.437.437,0,0,0-.15-.1c-.174-.055-.337.113-.446.265a14.645,14.645,0,0,0-1.216,1.957,2.668,2.668,0,0,0-.3.809.887.887,0,0,0,.242.793,1.234,1.234,0,0,0,.632.224l1.133.178" transform="translate(-11.826 -35.034)" fill="#fff"/>
                  <path id="Trazado_877666" data-name="Trazado 877666" d="M15.3,39.779a4.562,4.562,0,0,0,2.14-2.567A.384.384,0,0,0,17.477,37a.316.316,0,0,0-.193-.2,1.8,1.8,0,0,0-.855-.108A11.045,11.045,0,0,0,11.748,37.8a2.513,2.513,0,0,0-.742.534,1.118,1.118,0,0,0-.3.853,1.221,1.221,0,0,0,.6.831,4.111,4.111,0,0,0,1.783.435,4,4,0,0,0,2.209-.673" transform="translate(-10.698 -34.904)" fill="#fff"/>
                  <path id="Trazado_877667" data-name="Trazado 877667" d="M20.8,35.645c-.261.161-.536.287-.78.466a.48.48,0,0,1-.44.043c-.313-.108-.485-.318-.82-.4a7.043,7.043,0,0,1-1.09-.367.277.277,0,0,1-.155-.121c-.061-.134.089-.265.219-.327a4.471,4.471,0,0,1,2.785-.262,1.1,1.1,0,0,1,.436.161.444.444,0,0,1,.195.408.65.65,0,0,1-.351.4" transform="translate(-11.784 -34.566)" fill="#fff"/>
                  <path id="Trazado_877668" data-name="Trazado 877668" d="M25.371,35.451a2.947,2.947,0,0,1,2.263.688.634.634,0,0,1,.187.316.512.512,0,0,1-.224.475,1.293,1.293,0,0,1-.5.192,8.759,8.759,0,0,1-3.018.11c-.2-.028-2.378-.5-2.314-.746a.145.145,0,0,1,.063-.076,5.551,5.551,0,0,1,1.584-.636,7.9,7.9,0,0,1,1.961-.322" transform="translate(-12.464 -34.707)" fill="#fff"/>
                  <path id="Trazado_877669" data-name="Trazado 877669" d="M27.568,41.111a3.5,3.5,0,0,1-3.542-.379,17.494,17.494,0,0,1-2.108-2.774.682.682,0,0,1-.2-.481c.433.071.818.328,1.238.39s.877.02,1.3.071a14.464,14.464,0,0,1,2.826.633,2.623,2.623,0,0,1,1.414.883,1,1,0,0,1,.187.509.982.982,0,0,1-.358.762,2.068,2.068,0,0,1-.761.385" transform="translate(-12.456 -35.031)" fill="#fff"/>
                  <path id="Trazado_877670" data-name="Trazado 877670" d="M14.585,35.441a3.67,3.67,0,0,0-2.173.334,2.081,2.081,0,0,0-.915.87.242.242,0,0,0-.03.207c.044.09.166.092.262.082q1.344-.15,2.676-.392c.483-.087.961-.2,1.446-.275.387-.056.812-.008,1.183-.085a3.353,3.353,0,0,0-.843-.3,9.124,9.124,0,0,0-1.606-.44" transform="translate(-10.819 -34.7)" fill="#fff"/>
                </g>
              </g>
            </g>
            <path id="Trazado_877671" data-name="Trazado 877671" d="M45.3,37.932c-2.912-.756-6.8-1.717-9.508.231a2.8,2.8,0,0,0-1.082,1.259c-.385,1.1.452,2.174,1.309,2.887a21.871,21.871,0,0,0,6.487,3.5,25.12,25.12,0,0,0,9.32,1.812,5.949,5.949,0,0,0,2.041-.335A2.732,2.732,0,0,0,55.4,45.9c.939-2.173-1.068-3.712-2.546-4.666a25.973,25.973,0,0,0-7.555-3.3" transform="translate(-5.524 -5.907)" fill="#f49e40"/>
            <path id="Trazado_877672" data-name="Trazado 877672" d="M55.417,46.032l-.007,0c-.029.091-.057.182-.1.275a2.732,2.732,0,0,1-1.534,1.383,5.952,5.952,0,0,1-2.041.335,25.129,25.129,0,0,1-9.319-1.811,21.886,21.886,0,0,1-6.487-3.5c-.856-.713-1.693-1.79-1.309-2.886a1.888,1.888,0,0,1,.132-.283c-.119,0-.147.092-.237.334s-.19.5-.271.746a2.852,2.852,0,0,0-.141,1.592,3.805,3.805,0,0,0,1.337,1.83,21.882,21.882,0,0,0,6.487,3.5,25.13,25.13,0,0,0,9.32,1.811,5.952,5.952,0,0,0,2.041-.335,3.161,3.161,0,0,0,1.559-1.335,5.766,5.766,0,0,0,.408-1.081c.022-.064.087-.322.16-.571" transform="translate(-5.432 -6.31)" fill="#f3c752"/>
            <g id="Grupo_1101704" data-name="Grupo 1101704" transform="translate(31.127 31.955)" opacity="0.2">
              <g id="Grupo_1101703" data-name="Grupo 1101703">
                <g id="Grupo_1101702" data-name="Grupo 1101702" clip-path="url(#clip-path-4)">
                  <path id="Trazado_877673" data-name="Trazado 877673" d="M45,45.758l.177.081a1.515,1.515,0,0,0,1.035.192,1.133,1.133,0,0,0,.709-.86,6.038,6.038,0,0,0,.021-1.109,2.918,2.918,0,0,0-.138-1.151,5.305,5.305,0,0,0-.518-1.092.406.406,0,0,0-.115-.134c-.152-.1-.356.018-.505.136a15.059,15.059,0,0,0-1.73,1.56,2.72,2.72,0,0,0-.524.7.878.878,0,0,0,.005.826,1.2,1.2,0,0,0,.543.383l1.039.47" transform="translate(-38.039 -38.6)" fill="#fff"/>
                  <path id="Trazado_877674" data-name="Trazado 877674" d="M41.3,42.82a4.713,4.713,0,0,0,2.793-1.9.388.388,0,0,0,.1-.2.3.3,0,0,0-.129-.241,1.783,1.783,0,0,0-.791-.329,11.121,11.121,0,0,0-4.818-.17,2.588,2.588,0,0,0-.866.318,1.145,1.145,0,0,0-.534.74A1.189,1.189,0,0,0,37.39,42a3.9,3.9,0,0,0,3.906.824" transform="translate(-37.037 -38.303)" fill="#fff"/>
                  <path id="Trazado_877675" data-name="Trazado 877675" d="M47.873,40.146c-.3.087-.6.134-.883.241a.48.48,0,0,1-.435-.074c-.269-.187-.375-.434-.672-.6a6.768,6.768,0,0,1-.943-.64.269.269,0,0,1-.114-.157c-.02-.145.161-.232.305-.257a4.458,4.458,0,0,1,2.752.483,1.052,1.052,0,0,1,.373.27.437.437,0,0,1,.071.445.673.673,0,0,1-.453.294" transform="translate(-38.279 -38.114)" fill="#fff"/>
                  <path id="Trazado_877676" data-name="Trazado 877676" d="M52.3,41.238A2.871,2.871,0,0,1,54.278,42.5a.6.6,0,0,1,.09.353.528.528,0,0,1-.35.4,1.3,1.3,0,0,1-.539.051,8.7,8.7,0,0,1-2.934-.69c-.182-.078-2.142-1.108-2.011-1.328a.154.154,0,0,1,.083-.057,5.629,5.629,0,0,1,1.705-.193,7.913,7.913,0,0,1,1.978.208" transform="translate(-38.87 -38.502)" fill="#fff"/>
                  <path id="Trazado_877677" data-name="Trazado 877677" d="M52.842,47.118a3.448,3.448,0,0,1-3.3-1.3A16.959,16.959,0,0,1,48.313,42.6a.675.675,0,0,1-.055-.514c.4.182.693.53,1.079.7s.838.25,1.234.413a14.165,14.165,0,0,1,2.535,1.354,2.539,2.539,0,0,1,1.106,1.222,1,1,0,0,1,.035.539,1.015,1.015,0,0,1-.564.639,2.086,2.086,0,0,1-.841.17" transform="translate(-38.822 -38.669)" fill="#fff"/>
                  <path id="Trazado_877678" data-name="Trazado 877678" d="M41.913,38.344a3.675,3.675,0,0,0-2.185-.253,2.15,2.15,0,0,0-1.129.6.245.245,0,0,0-.088.192c.015.1.132.132.229.147q1.335.211,2.685.329c.489.043.982.057,1.469.117.388.048.782.207,1.162.231a3.271,3.271,0,0,0-.724-.511,8.921,8.921,0,0,0-1.419-.846" transform="translate(-37.272 -38.022)" fill="#fff"/>
                </g>
              </g>
            </g>
            <path id="Trazado_877679" data-name="Trazado 877679" d="M15.675,37.637c.4.782.436,1.89,1.28,2.21a1.987,1.987,0,0,0,1.119-.008c1.272-.28,2.631-.781,3.828-.282a4.128,4.128,0,0,1,2.027,2.614,7.563,7.563,0,0,0,1.493,3,1.094,1.094,0,0,0,.832.387,1.154,1.154,0,0,0,.776-.6,21.57,21.57,0,0,0,1.316-2.892,4.425,4.425,0,0,1,2.086-2.353c1.743-.761,3.717.306,5.3,1.34s3.535,2.12,5.294,1.4a13.741,13.741,0,0,1,2.018-1.015,5.449,5.449,0,0,1,2.5.345,9.109,9.109,0,0,0,2.834.259,2.792,2.792,0,0,0,2.544-1.348,2,2,0,0,0-.435-1.943,5.878,5.878,0,0,0-1.7-1.267A58.217,58.217,0,0,0,29.662,30.8a58.972,58.972,0,0,0-10.3-.774,32.69,32.69,0,0,0-9.107,1.1,7.167,7.167,0,0,0-3.893,2.331,1.427,1.427,0,0,0-.293,1.262c.248.67,1.156.811,1.9.824,2.186.039,6.535-.208,7.712,2.1" transform="translate(-0.959 -4.791)" fill="#4ca059"/>
            <path id="Trazado_877680" data-name="Trazado 877680" d="M46.3,49.678c-.008-.134-2.1-.05-5.553-.124A93.8,93.8,0,0,1,27.144,48.28v0h0c-.541-.082-1.067-.186-1.6-.284s-1.057-.19-1.59-.311h0v0a93.181,93.181,0,0,1-13.11-3.721,23.792,23.792,0,0,1-3.651-1.641A8.186,8.186,0,0,0,5.917,41.6c-.031.034.322.421,1.109.965a18.7,18.7,0,0,0,3.622,1.861A79.067,79.067,0,0,0,23.8,48.359v0h0c.538.122,1.072.209,1.6.313s1.064.205,1.61.287h0v0a79.656,79.656,0,0,0,13.728,1.094c.868,0,1.65-.027,2.334-.061s1.272-.061,1.75-.108a5.5,5.5,0,0,0,1.473-.208" transform="translate(-0.944 -6.638)" fill="#e5524a"/>
            <path id="Trazado_877681" data-name="Trazado 877681" d="M26.389,35.913a49.88,49.88,0,0,1-13.773-3.679,17.473,17.473,0,0,1-3.484-2.088,7.21,7.21,0,0,1-2.246-1.989A4.658,4.658,0,0,1,6.6,25.562c.215-2.4.714-4.233,3.577-4.307a64.405,64.405,0,0,1,12.736,1.371L43,26.15a62.249,62.249,0,0,1,7.265,1.63c1.709.519,2.957,1.508,3.075,3.337a10.156,10.156,0,0,1-.249,2.5c-.358,1.918-1.247,3.761-3.543,3.724-2.793-.045-5.7.087-8.546.1a62.851,62.851,0,0,1-6.786-.637c-2.6-.26-5.228-.526-7.83-.9" transform="translate(-1.045 -3.39)" fill="#a52e28"/>
            <path id="Trazado_877682" data-name="Trazado 877682" d="M50.623,34.241c-.008-.134-2.1-.05-5.553-.124a93.8,93.8,0,0,1-13.608-1.273v0h0c-.541-.082-1.067-.186-1.6-.284s-1.057-.19-1.59-.311h0v0a93.182,93.182,0,0,1-13.11-3.721,23.792,23.792,0,0,1-3.651-1.641,8.275,8.275,0,0,0-1.276-.719c-.031.034.322.421,1.109.964a18.648,18.648,0,0,0,3.622,1.862A78.985,78.985,0,0,0,28.12,32.922v0h0c.538.122,1.072.209,1.6.313s1.064.205,1.61.287h0v0a79.655,79.655,0,0,0,13.728,1.094c.868,0,1.65-.027,2.334-.061s1.272-.061,1.75-.108a5.5,5.5,0,0,0,1.473-.208" transform="translate(-1.633 -4.174)" fill="#e5524a"/>
            <path id="Trazado_877683" data-name="Trazado 877683" d="M49.591,6.26a27.8,27.8,0,0,0-10.114-5.2C32.544-.8,25.044-.07,18.238,2.185a20.957,20.957,0,0,0-7.656,4.224C7.627,9.077,5.127,13.126,6.7,16.714c1.014,2.3,3.442,3.719,5.835,4.711,7.04,2.917,14.846,3.479,22.408,4.7,2.615.423,5.224.93,7.871,1.142,2.423.194,5.022.816,7.436.3a7.173,7.173,0,0,0,3.924-2.2,8.836,8.836,0,0,0,2.4-7.508c-.466-4.547-3.261-8.565-6.988-11.6" transform="translate(-0.992 0)" fill="#f3c752"/>
            <path id="Trazado_877684" data-name="Trazado 877684" d="M37.8,24.264c.45.739,1.219-.061,1.042-.667a11.882,11.882,0,0,0-.4-1.143c-.46.382-1,1.225-.642,1.81" transform="translate(-6.014 -3.583)" fill="#f49e40"/>
            <path id="Trazado_877685" data-name="Trazado 877685" d="M31.358,19.872c-.019.856,1.073.559,1.252-.046a11.536,11.536,0,0,0,.282-1.175c-.6.1-1.519.544-1.534,1.221" transform="translate(-5.003 -2.976)" fill="#f49e40"/>
            <path id="Trazado_877686" data-name="Trazado 877686" d="M24.529,16.879c-.019.856,1.073.559,1.252-.046a11.538,11.538,0,0,0,.282-1.175c-.6.1-1.519.544-1.534,1.221" transform="translate(-3.914 -2.499)" fill="#f49e40"/>
            <path id="Trazado_877687" data-name="Trazado 877687" d="M19.878,9.834c-.39.769.73.939,1.157.461A12.1,12.1,0,0,0,21.8,9.34c-.587-.154-1.616-.116-1.925.493" transform="translate(-3.159 -1.478)" fill="#f49e40"/>
            <path id="Trazado_877688" data-name="Trazado 877688" d="M25.085,5.7c-.554.67.5,1.068,1.027.689q.5-.363.964-.772c-.538-.272-1.552-.448-1.991.083" transform="translate(-3.978 -0.855)" fill="#f49e40"/>
            <path id="Trazado_877689" data-name="Trazado 877689" d="M29.032,11.721c-.061.853,1.045.606,1.253.009a11.454,11.454,0,0,0,.337-1.161c-.6.069-1.542.477-1.59,1.152" transform="translate(-4.632 -1.687)" fill="#f49e40"/>
            <path id="Trazado_877690" data-name="Trazado 877690" d="M37.107,15.945c.3.805,1.21.154,1.152-.473a11.472,11.472,0,0,0-.176-1.193c-.524.295-1.215,1.029-.977,1.667" transform="translate(-5.913 -2.278)" fill="#f49e40"/>
            <path id="Trazado_877691" data-name="Trazado 877691" d="M34.414,8.054c.147.845,1.162.359,1.221-.269a11.489,11.489,0,0,0,.05-1.2c-.571.2-1.387.805-1.271,1.472" transform="translate(-5.489 -1.05)" fill="#f49e40"/>
            <path id="Trazado_877692" data-name="Trazado 877692" d="M30.235,4.325c-.214.83.919.772,1.232.219a11.6,11.6,0,0,0,.543-1.088c-.607-.033-1.605.212-1.775.869" transform="translate(-4.82 -0.551)" fill="#f49e40"/>
            <path id="Trazado_877693" data-name="Trazado 877693" d="M45.485,21.364c-.212.83-1.188.274-1.2-.356a11.294,11.294,0,0,1,.045-1.2c.554.241,1.32.9,1.152,1.56" transform="translate(-7.066 -3.16)" fill="#f49e40"/>
            <path id="Trazado_877694" data-name="Trazado 877694" d="M52.888,20.166c-.212.831-1.188.274-1.2-.356a11.3,11.3,0,0,1,.045-1.2c.553.241,1.32.9,1.152,1.56" transform="translate(-8.248 -2.969)" fill="#f49e40"/>
            <path id="Trazado_877695" data-name="Trazado 877695" d="M59.2,14.5c.17.84-.959.726-1.242.158a11.736,11.736,0,0,1-.485-1.112c.608,0,1.593.289,1.727.954" transform="translate(-9.17 -2.162)" fill="#f49e40"/>
            <path id="Trazado_877696" data-name="Trazado 877696" d="M49.924,14.063c-.172.84-1.172.326-1.214-.3a11.767,11.767,0,0,1-.013-1.205c.565.216,1.362.842,1.227,1.507" transform="translate(-7.769 -2.004)" fill="#f49e40"/>
            <path id="Trazado_877697" data-name="Trazado 877697" d="M41.379,6.607c-.508.7-1.211-.151-.986-.742a11.974,11.974,0,0,1,.491-1.11c.428.415.9,1.3.5,1.852" transform="translate(-6.438 -0.759)" fill="#f49e40"/>
            <path id="Trazado_877698" data-name="Trazado 877698" d="M44.293,12.79c-.369.778-1.219.058-1.108-.562a11.816,11.816,0,0,1,.277-1.176c.5.335,1.123,1.121.83,1.738" transform="translate(-6.889 -1.764)" fill="#f49e40"/>
            <path id="Trazado_877699" data-name="Trazado 877699" d="M50.717,6.611c-.017.856-1.1.517-1.249-.095a11.377,11.377,0,0,1-.232-1.184c.6.119,1.494.6,1.481,1.279" transform="translate(-7.856 -0.851)" fill="#f49e40"/>
            <g id="Grupo_1101707" data-name="Grupo 1101707" transform="translate(19.76 1.17)" opacity="0.2">
              <g id="Grupo_1101706" data-name="Grupo 1101706">
                <g id="Grupo_1101705" data-name="Grupo 1101705" clip-path="url(#clip-path-5)">
                  <path id="Trazado_877700" data-name="Trazado 877700" d="M54.827,13.187c.193-.144.122-.54-.182-1.157a11.572,11.572,0,0,0-1.677-2.364A22.61,22.61,0,0,0,49.73,6.7,26.09,26.09,0,0,0,45,3.818l0-.008h0l-1.09-.494-1.119-.433h0l0,.009a23.875,23.875,0,0,0-5.46-1.332A20.045,20.045,0,0,0,32.8,1.487a11.123,11.123,0,0,0-2.925.674c-.658.271-.982.524-.933.754.045.21.447.34,1.119.4l2.785.172a33.472,33.472,0,0,1,4.053.561,28.233,28.233,0,0,1,4.845,1.412l0,.012h0l1.011.382.981.453h0L43.74,6.3a32.876,32.876,0,0,1,4.429,2.431c1.309.822,2.4,1.667,3.335,2.364.907.722,1.667,1.293,2.2,1.687s.942.536,1.119.405" transform="translate(-24.377 -1.393)" fill="#fff"/>
                  <path id="Trazado_877701" data-name="Trazado 877701" d="M45.446,65.4c0-.958-4.391-1.284-10.019-2.071l0-.009h0l-.843-.106-.84-.125h0l0,.009c-5.63-.763-9.938-1.635-10.221-.716-.255.8,3.958,2.515,9.783,3.444l0,.012h0l.871.124.872.117h0l0-.012c5.863.68,10.407.173,10.4-.666" transform="translate(-23.511 -11.061)" fill="#fff"/>
                </g>
              </g>
            </g>
          </g>
        </g>
      </g>
    </g>
    <g id="Grupo_1101712" data-name="Grupo 1101712" transform="translate(228.046 393.999)">
      <path id="Trazado_877585" data-name="Trazado 877585" d="M16.7,12.511C24.085,6.329,36.827,2.015,46.245.56A48.824,48.824,0,0,1,59.819.4,21.807,21.807,0,0,1,71.826,6.035a12.4,12.4,0,0,1,4,6.724,2.647,2.647,0,0,1-.075,1.47c-.918,2.155-3.994,1.149-4.584,3.8-.475,2.14-.321,3.511-2.826,4.2a32.418,32.418,0,0,0-4.178.984c-3.71,1.579-5.591,6.937-9.621,6.8-1.556-.053-2.942-.99-4.468-1.3-4.776-.96-8.712,4.252-13.565,4.68-5.839.514-11.026-5.7-16.564-1.362-1.334,1.044-3.168,2.127-4.587,1.2-.462-.3-.956-.817-1.459-.59-.287.13-.421.458-.647.677-.874.843-2.241-.324-2.735-1.433C7.5,25.115,11.705,16.691,16.7,12.511m12.135,6.317c2.151,1.356,4.9,1.179,7.421.861a44.388,44.388,0,0,0,9.8-2.159c2.465-.905,5.434-1.831,7.6-3.453q.289-.216.558-.45a2.081,2.081,0,0,0,.661-2.383,2.739,2.739,0,0,0-1.77-1.192c-3.3-1-6.855-.582-10.231.113a64.569,64.569,0,0,0-8.482,2.357c-1.656.585-9.055,4.1-5.551,6.306" transform="translate(90)" fill="#e5524a"/>
      <path id="Trazado_877586" data-name="Trazado 877586" d="M11.357,33.331c.227-.219.361-.547.648-.677.5-.227,1,.288,1.458.59,1.419.925,3.254-.158,4.588-1.2,5.537-4.335,10.725,1.876,16.563,1.362,4.853-.427,8.789-5.639,13.565-4.679,1.527.307,2.913,1.244,4.469,1.3,4.029.136,5.91-5.222,9.62-6.8a32.588,32.588,0,0,1,4.178-.985c2.505-.692,2.351-2.062,2.826-4.2.543-2.44,3.183-1.792,4.318-3.346.071.307.138.62.2.947a22.637,22.637,0,0,1-.123,9.339c-1.5,5.56-6.8,9.174-11.991,11.665a94.153,94.153,0,0,1-18.1,6.061c-5.922,1.484-12.2,2.8-18.323,1.92a19.177,19.177,0,0,1-13.493-8.568c-.765-1.1-1.8-2.047-2.462-3.165.624.653,1.461,1.028,2.064.447" transform="translate(91.9)" fill="#f49e40"/>
      <path id="Trazado_877587" data-name="Trazado 877587" d="M25.167,4.634a1.225,1.225,0,0,1,.809-1.757c.782-.061,1.661.25,1.524,1.23a1.3,1.3,0,0,1-2.333.527" transform="translate(122.85)" fill="#a52e28"/>
      <path id="Trazado_877588" data-name="Trazado 877588" d="M36.809,3.2a1.225,1.225,0,0,1,.809-1.757c.782-.061,1.661.25,1.524,1.23a1.3,1.3,0,0,1-2.333.527" transform="translate(99.566)" fill="#a52e28"/>
      <path id="Trazado_877589" data-name="Trazado 877589" d="M22.8,16.156a1.226,1.226,0,0,1,.809-1.757c.783-.06,1.662.25,1.524,1.23a1.3,1.3,0,0,1-2.333.527" transform="translate(127.591)" fill="#a52e28"/>
      <path id="Trazado_877590" data-name="Trazado 877590" d="M47.694,24.378a1.225,1.225,0,0,1,.809-1.757c.782-.061,1.661.25,1.524,1.23a1.3,1.3,0,0,1-2.333.527" transform="translate(77.796)" fill="#a52e28"/>
      <path id="Trazado_877591" data-name="Trazado 877591" d="M58.5,20.547A1.225,1.225,0,0,1,59.3,18.79c.782-.061,1.661.25,1.524,1.23a1.3,1.3,0,0,1-2.333.527" transform="translate(56.192)" fill="#a52e28"/>
      <path id="Trazado_877592" data-name="Trazado 877592" d="M58.855,11.464a1.225,1.225,0,0,1,.809-1.757c.782-.061,1.661.25,1.524,1.23a1.3,1.3,0,0,1-2.333.527" transform="translate(55.474)" fill="#a52e28"/>
      <path id="Trazado_877593" data-name="Trazado 877593" d="M63.677,28.888a1.225,1.225,0,0,1,.809-1.757c.782-.061,1.661.25,1.524,1.23a1.3,1.3,0,0,1-2.333.527" transform="translate(45.83)" fill="#a52e28"/>
      <path id="Trazado_877594" data-name="Trazado 877594" d="M47.814,31.5a1.224,1.224,0,0,1,.809-1.756c.782-.061,1.661.25,1.524,1.23a1.3,1.3,0,0,1-2.333.526" transform="translate(77.556)" fill="#a52e28"/>
      <path id="Trazado_877595" data-name="Trazado 877595" d="M15.326,14.234a1.225,1.225,0,0,1,.809-1.757c.782-.06,1.661.25,1.524,1.23a1.3,1.3,0,0,1-2.333.527" transform="translate(142.532)" fill="#a52e28"/>
      <path id="Trazado_877596" data-name="Trazado 877596" d="M29.437,27.382a1.225,1.225,0,0,1,.809-1.757c.782-.061,1.661.25,1.524,1.23a1.3,1.3,0,0,1-2.333.527" transform="translate(114.31)" fill="#a52e28"/>
      <path id="Trazado_877597" data-name="Trazado 877597" d="M31.8,7.458a.88.88,0,0,1-.48-1.3c.367-.428.971-.716,1.4-.148.468.621-.129,1.692-.919,1.452" transform="translate(111.352)" fill="#a52e28"/>
      <path id="Trazado_877598" data-name="Trazado 877598" d="M27,21.3a.88.88,0,0,1-.48-1.3c.367-.428.971-.716,1.4-.148.468.621-.129,1.691-.919,1.452" transform="translate(120.946)" fill="#a52e28"/>
      <path id="Trazado_877599" data-name="Trazado 877599" d="M38.3,24.985a.881.881,0,0,1-.48-1.3c.367-.428.971-.716,1.4-.148.467.621-.13,1.692-.92,1.452" transform="translate(98.346)" fill="#a52e28"/>
      <path id="Trazado_877600" data-name="Trazado 877600" d="M41.994,21.7a.88.88,0,0,1-.48-1.3c.367-.428.971-.716,1.4-.148.468.621-.129,1.692-.919,1.452" transform="translate(90.964)" fill="#a52e28"/>
      <path id="Trazado_877601" data-name="Trazado 877601" d="M51.615,7.158a.88.88,0,0,1-.48-1.3c.367-.428.971-.716,1.4-.148.468.621-.129,1.692-.919,1.452" transform="translate(71.722)" fill="#a52e28"/>
      <path id="Trazado_877602" data-name="Trazado 877602" d="M66.642,16a.88.88,0,0,1-.48-1.3c.367-.428.971-.716,1.4-.148.468.621-.129,1.692-.919,1.452" transform="translate(41.667)" fill="#a52e28"/>
      <path id="Trazado_877603" data-name="Trazado 877603" d="M51.938,11.623a.88.88,0,0,1-.48-1.3c.367-.428.971-.716,1.4-.148.468.621-.129,1.691-.919,1.452" transform="translate(71.076)" fill="#a52e28"/>
      <path id="Trazado_877604" data-name="Trazado 877604" d="M55.483,26.137a.88.88,0,0,1-.48-1.3c.367-.428.971-.716,1.4-.148.468.621-.129,1.692-.919,1.452" transform="translate(63.986)" fill="#a52e28"/>
      <path id="Trazado_877605" data-name="Trazado 877605" d="M71.559,26.38a.879.879,0,0,1-.48-1.3c.367-.429.971-.716,1.4-.149.468.621-.129,1.693-.919,1.452" transform="translate(31.833)" fill="#a52e28"/>
      <path id="Trazado_877606" data-name="Trazado 877606" d="M65.867,21.831a.88.88,0,0,1-.48-1.3c.367-.428.971-.716,1.4-.148.468.621-.129,1.691-.919,1.452" transform="translate(43.218)" fill="#a52e28"/>
      <path id="Trazado_877607" data-name="Trazado 877607" d="M43.9,6.878a.88.88,0,0,1-.48-1.3c.367-.428.971-.716,1.4-.148.468.621-.129,1.692-.919,1.452" transform="translate(87.146)" fill="#a52e28"/>
      <path id="Trazado_877608" data-name="Trazado 877608" d="M18.679,20.884a.88.88,0,0,1-.48-1.3c.367-.428.971-.716,1.4-.148.468.621-.129,1.691-.919,1.452" transform="translate(137.594)" fill="#a52e28"/>
      <path id="Trazado_877609" data-name="Trazado 877609" d="M17.275,9.013a.88.88,0,0,1-.48-1.3c.367-.428.971-.716,1.4-.148.468.621-.129,1.691-.919,1.452" transform="translate(140.402)" fill="#a52e28"/>
      <path id="Trazado_877610" data-name="Trazado 877610" d="M24.44,9.4a.88.88,0,0,1-.48-1.3c.367-.428.971-.716,1.4-.148.468.621-.129,1.692-.919,1.452" transform="translate(126.072)" fill="#a52e28"/>
      <path id="Trazado_877611" data-name="Trazado 877611" d="M33.705,18.29a.88.88,0,0,1-.48-1.3c.367-.428.971-.716,1.4-.148.468.621-.129,1.692-.919,1.452" transform="translate(107.542)" fill="#a52e28"/>
      <g id="Grupo_1101688" data-name="Grupo 1101688" transform="translate(103.996 1.691)" opacity="0.2">
        <g id="Grupo_1101687" data-name="Grupo 1101687" transform="translate(0)">
          <g id="Grupo_1101686" data-name="Grupo 1101686" clip-path="url(#clip-path-6)">
            <path id="Trazado_877612" data-name="Trazado 877612" d="M14.338,3.69c-.061-.35,1.464-.908,4.087-1.386a38.2,38.2,0,0,1,4.692-.544,36.178,36.178,0,0,1,5.924.116V1.868h0c.428.043.847.116,1.268.174s.84.123,1.265.215h0v.008a22.239,22.239,0,0,1,5.718,1.917,17.422,17.422,0,0,1,2.232,1.389,10.657,10.657,0,0,1,1.739,1.494A7.245,7.245,0,0,1,42.994,9.9c.217.76.147,1.208-.02,1.252-.345.1-.862-1.4-2.78-2.951a11.736,11.736,0,0,0-1.669-1.142,19.766,19.766,0,0,0-2.082-1.1,24.1,24.1,0,0,0-5.276-1.58v.01h0c-.391-.085-.779-.156-1.173-.2s-.783-.117-1.185-.157h0V4.011a46.126,46.126,0,0,0-5.626-.287c-1.728,0-3.279.069-4.578.13-2.6.123-4.2.175-4.263-.164" transform="translate(13.942 -1.691)" fill="#fff"/>
            <path id="Trazado_877613" data-name="Trazado 877613" d="M45.388,29.978c.175-.092.432.171.928.352a3.355,3.355,0,0,0,2.2,0,5.4,5.4,0,0,0,1.429-.776c.518-.363,1.068-.829,1.733-1.32A8.983,8.983,0,0,1,57.038,26.4V26.39h0a9.141,9.141,0,0,1,1.241.082,8.606,8.606,0,0,1,1.224.244h0l0,.008a13.156,13.156,0,0,1,2.649,1.14c.768.412,1.455.793,2.1,1.071a7.486,7.486,0,0,0,3.574.582c2.119-.172,3.317-.963,3.551-.634.1.126-.092.477-.627.924a6.541,6.541,0,0,1-2.684,1.251,8.052,8.052,0,0,1-4.527-.292c-1.621-.57-3.09-1.57-4.612-1.972l0,.009h0a6.957,6.957,0,0,0-.929-.19,7.5,7.5,0,0,0-.952-.058h0v-.01a7.562,7.562,0,0,0-2.293.351,7.772,7.772,0,0,0-1.961.951,10.862,10.862,0,0,1-3.931,2,3.6,3.6,0,0,1-3.068-.769c-.567-.568-.539-1.048-.407-1.1" transform="translate(-45.309 -1.691)" fill="#fff"/>
            <path id="Trazado_877614" data-name="Trazado 877614" d="M39.116,38.055c.17-.349,1.508.064,3.684.645a42.409,42.409,0,0,0,8.759,1.406V40.1h0l1.05.053,1.052-.006h0v.007a42.285,42.285,0,0,0,8.813-1.014c2.2-.483,3.555-.836,3.709-.48.126.284-1.056,1.124-3.27,1.977A28.016,28.016,0,0,1,53.684,42.3v.009H52.562l-1.119-.05h0v-.009a28.006,28.006,0,0,1-9.148-2.075c-2.173-.951-3.316-1.843-3.178-2.121" transform="translate(-33.891 -1.691)" fill="#fff"/>
          </g>
        </g>
      </g>
    </g>
    <g id="Grupo_1101713" data-name="Grupo 1101713" transform="translate(346.157 490.899)">
      <path id="Trazado_877702" data-name="Trazado 877702" d="M83.37,86.1a31.12,31.12,0,0,1-11.737.049l-4.452-.908c-.1-.02-.2-.039-.3-.05a2.992,2.992,0,0,0-.288-.1l-4.332-1.372a31.117,31.117,0,0,1-10.232-5.749,8.091,8.091,0,0,0-.69,2.228c-.248.84-.46,1.689-.658,2.542-.4,1.693-.726,3.4-1.16,5.086a2.113,2.113,0,0,0-.073,1.17c.635,1.938,4.588,3.836,6.291,4.612,1.556.708,3.153,1.324,4.763,1.9a35.7,35.7,0,0,0,5.762,1.6c2.075.37,4.16.693,6.262.863,1.865.151,6.243.414,7.74-.971a2.1,2.1,0,0,0,.5-1.058c.441-1.682.982-3.337,1.461-5.008.241-.842.469-1.687.66-2.541A8.06,8.06,0,0,0,83.37,86.1" transform="translate(-47.767 -42.701)" fill="#91b3fa"/>
      <path id="Trazado_877703" data-name="Trazado 877703" d="M72.585,97.724c-2.087-.224-4.165-.579-6.233-.974a42.194,42.194,0,0,1-5.766-1.581c-1.616-.551-3.22-1.137-4.788-1.8-1.664-.7-3.217-1.59-4.788-2.437-.146.372-.453,4.611-.7,6.51q-.531,4.119-1.015,8.242-.786,6.687-1.452,13.386c-.352,3.507.408,5.457,3.719,6.918a31.222,31.222,0,0,0,9.957,2.535c3.094.259,4.55-1.379,5.879-4.043,2.179-4.367,4.134-8.844,5.929-13.382,1.716-4.341,2.994-9,4.885-13.218a38.644,38.644,0,0,1-5.63-.155" transform="translate(-47.767 -42.701)" fill="#4445ea"/>
      <path id="Trazado_877704" data-name="Trazado 877704" d="M72.6,88.888c-7.036-.675-13.947-3.273-18.619-8.479a8.152,8.152,0,0,1-2.433-4.987C51.5,73.534,52.9,71.516,54.789,71.5a5.068,5.068,0,0,1,.734-5.421c.566-.689,3.9-3.23,4.876-2.069-1.227-1.457-.426-3.8,1.132-4.883s3.578-1.233,5.49-1.353c-.63-1.995,1.087-4,3.02-4.848s4.132-.976,6.07-1.807A8.857,8.857,0,0,0,81.382,42.7c.006.111,2.712,1.856,3.02,2.187a10.329,10.329,0,0,1,2.063,3.321c.929,2.428.977,4.865-.734,6.918,2.708.115,4.821,2.857,4.807,5.567a8.554,8.554,0,0,1-4,6.714c2.1,1.1,2.924,3.845,2.39,6.152a11.577,11.577,0,0,1-3.917,5.786,1.373,1.373,0,0,0-.46.582,1.514,1.514,0,0,0,.1.87,6.641,6.641,0,0,1-3.692,7.7,11.547,11.547,0,0,1-3.9.568,40.346,40.346,0,0,1-4.457-.177" transform="translate(-47.767 -42.701)" fill="#f49e40"/>
      <path id="Trazado_877705" data-name="Trazado 877705" d="M73.488,75.3h0l-1.15.546-1.165.512h0l0,0c-1.075.465-2.127.874-3.148,1.241a11.725,11.725,0,0,1-1.664.013,16.327,16.327,0,0,1-4.253-1.089l0,0h0l-.483-.2-.473-.224h0v0c-3.191-1.524-4.912-3.753-5.205-3.5-.12.093.2.745.987,1.633a12.655,12.655,0,0,0,3.759,2.811l0,0h0l.508.238.519.217h0l0,0a12.563,12.563,0,0,0,4.013.874c-.046.015-.1.032-.141.046a22.722,22.722,0,0,1-4.617,1.018c-2.665.261-4.208-.466-4.273-.282-.033.071.312.332,1.046.6a9.1,9.1,0,0,0,3.273.44,20.167,20.167,0,0,0,4.84-.858,46.849,46.849,0,0,0,5.723-2.011v0h0l1.188-.525,1.175-.555h0l0,0a46.281,46.281,0,0,0,9.173-5.921c2.1-1.778,3.2-3.044,3.084-3.161-.242-.293-5,4.425-12.716,8.143Z" transform="translate(-47.767 -42.701)" fill="#f3c752"/>
      <path id="Trazado_877706" data-name="Trazado 877706" d="M82.312,78.638a22.919,22.919,0,0,0-5.734-.456v0h0c-.23.014-.459.021-.68.045l-.672.059h0v.005L72.1,78.6c-.943.083-1.787.135-2.494.176-1.415.082-2.282.137-2.292.3s.848.368,2.29.456c.722.043,1.586.056,2.556.019s2.015-.135,3.138-.224v0h0l.667-.061c.223-.023.439-.027.661-.042h0v0c4.426-.241,7.79.595,7.875.223.038-.151-.774-.5-2.191-.811" transform="translate(-47.767 -42.701)" fill="#f3c752"/>
      <path id="Trazado_877707" data-name="Trazado 877707" d="M69.458,62.506a7.113,7.113,0,0,0,4.761,1.843,7.939,7.939,0,0,0,3.063-.515A5.378,5.378,0,0,0,79.171,62.6a4.386,4.386,0,0,0,.485-.2,8.132,8.132,0,0,0,2.637-2.272l0,0,.249-.323.242-.325,0,0c.787-1.092,1.372-2.122,1.834-2.736s.868-.858.813-1.036c-.03-.154-.67-.11-1.366.517a19.986,19.986,0,0,0-2.124,2.638l0,0h0l-.23.312-.237.3h0l0,0A13.419,13.419,0,0,1,80.2,60.927a4.261,4.261,0,0,0,.177-.75,3.619,3.619,0,0,0-.109-1.515h0a6.112,6.112,0,0,0-.824-1.547,3.094,3.094,0,0,1-.552-1.211,2.831,2.831,0,0,1,.9-2.225,14.264,14.264,0,0,1,1.951-1.628,6.86,6.86,0,0,0,1.673-1.725,3.7,3.7,0,0,0,.561-1.947A5.892,5.892,0,0,0,83.8,46.93c-.2-.76-.381-1.143-.463-1.126s-.042.445.025,1.2a4.22,4.22,0,0,1-.575,2.908,6.468,6.468,0,0,1-1.563,1.445,13.832,13.832,0,0,0-2.128,1.675,4.959,4.959,0,0,0-.911,1.286,3.006,3.006,0,0,0-.295,1.735,4.013,4.013,0,0,0,.686,1.623,5.327,5.327,0,0,1,.691,1.29h0a2.573,2.573,0,0,1,.077,1.071,3.226,3.226,0,0,1-.347,1.061h0l0,0a3.381,3.381,0,0,1-.718.917,1.142,1.142,0,0,0,.082-.234,2.391,2.391,0,0,0-.124-1.324,4.869,4.869,0,0,0-1.053-1.64c-.508-.541-1.12-1-1.7-1.51l0,0h0L75.14,57q-.161-.155-.31-.316h0l0,0a3.388,3.388,0,0,1-.876-3.262c.222-.893.625-1.36.488-1.5-.082-.113-.743.211-1.206,1.256a3.837,3.837,0,0,0-.267,1.971,4.073,4.073,0,0,0,1.09,2.24l0,0c.12.129.241.25.364.366s.245.229.373.339l0,0c.633.535,1.25.967,1.708,1.394a5.372,5.372,0,0,1,1.036,1.273c.456.791.362,1.394.535,1.441a4.683,4.683,0,0,1-1.17.687,7.166,7.166,0,0,1-2.671.5,6.573,6.573,0,0,1-4.264-1.449,5.687,5.687,0,0,1-1.716-2.525c-.237-.7-.259-1.123-.353-1.122-.074-.005-.206.43-.078,1.229a5.425,5.425,0,0,0,1.638,2.98" transform="translate(-47.767 -42.701)" fill="#f3c752"/>
      <path id="Trazado_877708" data-name="Trazado 877708" d="M87.678,58.194a7.849,7.849,0,0,0-2.853,1.63c-1.079.879-2.171,2.095-3.531,3.231a25.023,25.023,0,0,1-4.867,3.209v0h0c-.375.19-.75.363-1.128.527s-.763.309-1.156.45h0v0a14,14,0,0,1-5.649.849,10.613,10.613,0,0,1-4.369-1.3c-2.3-1.294-3.059-2.843-3.242-2.714-.061.034.059.444.478,1.095a8.11,8.11,0,0,0,2.373,2.27,10.643,10.643,0,0,0,4.679,1.6,14.323,14.323,0,0,0,6.076-.815l0,.005h0c.417-.15.823-.306,1.222-.479s.794-.352,1.187-.551h0l0,0c.074-.038.14-.08.213-.118l-.2.195A22.881,22.881,0,0,1,69.8,72.234l0,0h0c-.319.129-.637.246-.957.354s-.646.2-.98.278h0v0a11.154,11.154,0,0,1-4.686.207,9.868,9.868,0,0,1-3.524-1.36c-1.833-1.168-2.492-2.415-2.66-2.3-.067.036.013.389.353.936a7.171,7.171,0,0,0,1.877,1.991,9.7,9.7,0,0,0,3.768,1.673,11.552,11.552,0,0,0,5.121-.13v0h0c.361-.088.709-.192,1.056-.3s.686-.239,1.028-.378h0l0,0a17.813,17.813,0,0,0,4.344-2.612,24.615,24.615,0,0,0,2.915-2.79c.608-.688,1.085-1.281,1.436-1.757a24.247,24.247,0,0,0,3.024-2.263c1.4-1.235,2.434-2.489,3.408-3.386a9.469,9.469,0,0,1,2.505-1.784c.657-.3,1.061-.4,1.047-.488-.007-.075-.442-.131-1.2.072" transform="translate(-47.767 -42.701)" fill="#f3c752"/>
      <path id="Trazado_877709" data-name="Trazado 877709" d="M80.49,81.06A21.956,21.956,0,0,1,74.458,84l0-.005h0l-.762.233-.777.179h0v.005a21.969,21.969,0,0,1-6.692.473c-1.7-.151-2.727-.376-2.779-.2-.048.147.93.62,2.68.95a18.177,18.177,0,0,0,7.02-.206v0h0l.818-.193.8-.242h0v0a18.175,18.175,0,0,0,6.183-3.332C82.3,80.5,82.912,79.6,82.8,79.5c-.133-.128-.912.582-2.307,1.561" transform="translate(-47.767 -42.701)" fill="#f3c752"/>
      <g id="Grupo_1101712-2" data-name="Grupo 1101712" transform="translate(3.312 4.314)" opacity="0.2">
        <g id="Grupo_1101690" data-name="Grupo 1101690">
          <g id="Grupo_1101689" data-name="Grupo 1101689" clip-path="url(#clip-path-7)">
            <path id="Trazado_877623" data-name="Trazado 877623" d="M63.985,125.948c.811.335,3.181-4.414,5.4-10.93l.009,0h0l.32-.977c.105-.324.209-.648.316-.978h0l-.009,0c2.044-6.572,2.923-11.806,2.07-12.012-.8-.2-2.424,4.781-4.558,11.217l-.011,0h0c-.1.326-.2.646-.307.966s-.212.637-.321.962h0l.011,0c-2.063,6.459-3.679,11.439-2.917,11.752" transform="translate(-51.079 -47.015)" fill="#fff"/>
            <path id="Trazado_877624" data-name="Trazado 877624" d="M75.193,95.978c.069-.924-4.967-1.513-11.17-3.519l0-.009h0l-.929-.29-.918-.322h0l0,.008C56,89.755,51.6,87.224,51.108,88.006c-.209.334.713,1.3,2.506,2.516a36.443,36.443,0,0,0,7.693,3.789l0,.01h0l.966.331.973.31h0l0-.011A36.358,36.358,0,0,0,71.681,96.5c2.164.1,3.481-.131,3.512-.524" transform="translate(-51.08 -47.015)" fill="#fff"/>
            <path id="Trazado_877625" data-name="Trazado 877625" d="M59.649,65.512c-.161-.4-.664-.565-1.381-.35a4.379,4.379,0,0,0-2.229,1.807l-.008-.005h0c-.066.1-.119.2-.176.3a3.5,3.5,0,0,0-.165.309h0l.009,0a4.136,4.136,0,0,0-.311,2.978,1.488,1.488,0,0,0,.667.86.546.546,0,0,0,.644-.074,1.582,1.582,0,0,0,.318-.476c.085-.165.169-.327.258-.5.174-.353.417-1,.765-1.629l.01,0c.03-.067.063-.13.1-.193s.071-.125.113-.185l-.009-.006c.7-1.283,1.675-2.072,1.4-2.847" transform="translate(-51.079 -47.015)" fill="#fff"/>
            <path id="Trazado_877626" data-name="Trazado 877626" d="M77.714,62.867c-.279-.362-1.077-.1-2.281.277a16.078,16.078,0,0,1-4.776.831v-.009h0c-.191.007-.378,0-.566,0-.188-.016-.375-.02-.565-.042h0v.01a16.048,16.048,0,0,1-4.7-1.186c-1.174-.46-1.95-.785-2.254-.446-.265.289.137,1.132,1.283,2.076a10.475,10.475,0,0,0,5.431,2.156v.012h0c.238.026.474.03.709.044s.471.017.71.009h0v-.012a10.471,10.471,0,0,0,5.576-1.745c1.213-.856,1.677-1.667,1.435-1.974" transform="translate(-51.079 -47.015)" fill="#fff"/>
            <path id="Trazado_877627" data-name="Trazado 877627" d="M83.229,47.017c-.464.065-.592.914-1.312,1.905a6.986,6.986,0,0,1-1.554,1.545,7.464,7.464,0,0,1-1.137.68,12.8,12.8,0,0,1-1.415.58l0-.008-.62.213-.641.193h0l0,.009c-1.087.329-2.179.631-3.173,1.01a6.02,6.02,0,0,0-2.623,1.7,2.827,2.827,0,0,0-.68,2.145c.1.55.378.76.585.711.389-.1.51-.9,1.439-1.518a6.426,6.426,0,0,1,2.015-.77c.919-.232,1.987-.454,3.168-.776l0,.011h0l.706-.22c.236-.072.474-.152.716-.239h0l0-.01a11.93,11.93,0,0,0,1.715-.8A7.945,7.945,0,0,0,81.894,52.3a6.438,6.438,0,0,0,1.727-2.545,3.651,3.651,0,0,0,.155-2.069c-.127-.48-.357-.693-.547-.67" transform="translate(-51.079 -47.015)" fill="#fff"/>
            <path id="Trazado_877628" data-name="Trazado 877628" d="M68.6,74.292c-.054.426.827.879,2.393,1.091a16.134,16.134,0,0,0,6.2-.571l0,.009h0l.714-.216.7-.248,0-.009a16.1,16.1,0,0,0,5.334-3.206c1.137-1.1,1.58-1.985,1.285-2.3-.587-.615-3.314,1.622-7.511,3.048l0-.011h0l-.619.225-.634.185h0l0,.011c-4.228,1.336-7.75,1.146-7.858,1.988" transform="translate(-51.079 -47.015)" fill="#fff"/>
            <path id="Trazado_877629" data-name="Trazado 877629" d="M81.216,80.048c-.258-.379-1.368.045-3.314.193a46.276,46.276,0,0,1-7.948-.052V80.18h0l-.939-.093-.935-.132h0v.009c-6.288-.874-10.712-3.21-11.164-2.391-.191.34.763,1.268,2.657,2.308a25.813,25.813,0,0,0,8.118,2.666l0,.011h0l1.012.136,1.016.108h0V82.79a25.035,25.035,0,0,0,8.547-.687,7.131,7.131,0,0,0,2.389-1.147c.5-.4.669-.741.563-.908" transform="translate(-51.079 -47.015)" fill="#fff"/>
          </g>
        </g>
      </g>
    </g>
  </g>
</svg>
