<svg xmlns="http://www.w3.org/2000/svg" width="69.609" height="69.609" viewBox="0 0 69.609 69.609">
  <g id="Grupo_1101930" data-name="Grupo 1101930" transform="translate(-215.165 -2540)">
    <rect id="Rectángulo_403154" data-name="Rectángulo 403154" width="69.609" height="69.609" rx="34.805" transform="translate(215.165 2540)" fill="#30169a"/>
    <g id="_10-minutos" data-name="10-minutos" transform="translate(224.165 2549)">
      <g id="Grupo_1101929" data-name="Grupo 1101929" transform="translate(0)">
        <path id="Trazado_878436" data-name="Trazado 878436" d="M43.792,7.514A25.653,25.653,0,0,0,7.513,43.792a25.656,25.656,0,0,0,33.546,2.374,1,1,0,0,0-1.2-1.6A23.65,23.65,0,0,1,2,25.653,23.647,23.647,0,0,1,24.651,2.026V4.977A20.708,20.708,0,1,0,44.057,16.184L46.624,14.7a23.7,23.7,0,0,1-.936,23.52,1,1,0,1,0,1.7,1.067A25.661,25.661,0,0,0,43.792,7.514Zm-7.94,33.8-.278-.481a1,1,0,1,0-1.736,1l.28.485a18.562,18.562,0,0,1-7.463,2V43.76a1,1,0,1,0-2,0v.562a18.561,18.561,0,0,1-7.463-2l.28-.485a1,1,0,1,0-1.736-1l-.278.481a18.846,18.846,0,0,1-5.462-5.462l.481-.278a1,1,0,1,0-1-1.736l-.485.28a18.561,18.561,0,0,1-2-7.463h.562a1,1,0,1,0,0-2H6.984a18.562,18.562,0,0,1,2-7.463l.485.28a1,1,0,0,0,1-1.736l-.481-.278a18.847,18.847,0,0,1,5.462-5.462l.278.481a1,1,0,1,0,1.736-1l-.28-.485a18.563,18.563,0,0,1,7.463-2v.562a1,1,0,0,0,2,0V6.984a18.561,18.561,0,0,1,7.463,2l-.28.485a1,1,0,1,0,1.736,1l.278-.481a18.846,18.846,0,0,1,5.462,5.462l-.481.278a1,1,0,1,0,1,1.736l.485-.28a18.561,18.561,0,0,1,2,7.463H43.76a1,1,0,0,0,0,2h.562a18.562,18.562,0,0,1-2,7.463l-.485-.28a1,1,0,1,0-1,1.736l.481.278a18.844,18.844,0,0,1-5.462,5.462Zm7.2-26.864a20.709,20.709,0,0,0-16.4-9.473V2.026a23.478,23.478,0,0,1,15.72,6.9,23.851,23.851,0,0,1,3.245,4.037Z" transform="translate(0)" fill="#fff"/>
        <path id="Trazado_878437" data-name="Trazado 878437" d="M187.464,131h.923v8a1,1,0,0,0,2,0v-9a1,1,0,0,0-1-1h-1.925a1,1,0,0,0,0,2Z" transform="translate(-167.777 -116.071)" fill="#fff"/>
        <path id="Trazado_878438" data-name="Trazado 878438" d="M262.611,136.5v-4a3.5,3.5,0,0,0-7.008,0v4a3.5,3.5,0,0,0,7.008,0Zm-2,0a1.5,1.5,0,0,1-3,0v-4a1.5,1.5,0,0,1,3,0Z" transform="translate(-229.99 -116.071)" fill="#fff"/>
        <path id="Trazado_878439" data-name="Trazado 878439" d="M310.026,266.524a3.144,3.144,0,0,0-1.551.4,1,1,0,0,0-1.848.535v6.881a1,1,0,1,0,2,0V270.8c0-1.383.548-2.276,1.395-2.276a.856.856,0,0,1,.677.231c.173.178.458.662.424,1.905,0,.009,0,.019,0,.028v3.622a1,1,0,1,0,2,0v-3.608a4.482,4.482,0,0,0-.991-3.344A2.866,2.866,0,0,0,310.026,266.524Z" transform="translate(-275.901 -239.761)" fill="#fff"/>
        <path id="Trazado_878440" data-name="Trazado 878440" d="M148.3,266.605a3.194,3.194,0,0,0-2.254.838,2.773,2.773,0,0,0-2.146-.873,3.192,3.192,0,0,0-1.584.406,1,1,0,0,0-1.877.488v6.865a1,1,0,1,0,2,0V270.79s0-.008,0-.012c0-1.017.382-2.2,1.457-2.2.451,0,1.011,0,1.067,1.879,0,.061,0,3.875,0,3.875a1,1,0,1,0,2,0l0-4.013a2.229,2.229,0,0,1,.326-1.272,1.1,1.1,0,0,1,1-.434c.581,0,.743.17.8.226.152.159.4.624.337,1.958,0,.015,0,3.535,0,3.535a1,1,0,0,0,2,0V270.86a4.439,4.439,0,0,0-.891-3.41A2.971,2.971,0,0,0,148.3,266.605Z" transform="translate(-126.368 -239.76)" fill="#fff"/>
        <path id="Trazado_878441" data-name="Trazado 878441" d="M270.477,267.9a1,1,0,0,0-1,1v6.579a1,1,0,1,0,2,0V268.9A1,1,0,0,0,270.477,267.9Z" transform="translate(-242.472 -241.055)" fill="#fff"/>
        <circle id="Elipse_11520" data-name="Elipse 11520" cx="1.002" cy="1.002" r="1.002" transform="translate(42.797 41.336)" fill="#fff"/>
      </g>
    </g>
  </g>
</svg>
