<svg xmlns="http://www.w3.org/2000/svg" width="69.609" height="69.609" viewBox="0 0 69.609 69.609">
  <g id="Grupo_1101931" data-name="Grupo 1101931" transform="translate(-215.391 -2631)">
    <rect id="Rectángulo_403153" data-name="Rectángulo 403153" width="69.609" height="69.609" rx="34.805" transform="translate(215.391 2631)" fill="#30169a"/>
    <g id="respiracion" transform="translate(225.822 2637.32)">
      <path id="Trazado_878442" data-name="Trazado 878442" d="M8.685,54.361a.785.785,0,0,1-.766-.956c1.3-5.8,3.108-7.954,4.7-9.851a13.332,13.332,0,0,0,3.03-5.238c1.43-4.574-2.377-7.19-4.9-8.922A11.083,11.083,0,0,1,9.2,28.211C5.368,24.26,3.645,19.4,4.352,14.524A15.708,15.708,0,0,1,33.409,8.678a5.127,5.127,0,0,1,.425.917l.526,1.473A3.62,3.62,0,0,0,35.824,12.9l4.086,2.6a.785.785,0,0,1,.109,1.241L37.712,18.85l1.64,1.426a.785.785,0,0,1,.187.943L39.147,22l.746.149a.785.785,0,0,1,.568,1.076,6.647,6.647,0,0,0-.525,1.813c.069.074.177.176.269.264a3.16,3.16,0,0,1,1.31,2.754c-.139.837-1.2,1.536-3.579,3.039-1.927,1.216-4.567,2.882-5.094,4.064a11.477,11.477,0,0,0,.092,8.458,11.053,11.053,0,0,0,1.249,1.855A13.928,13.928,0,0,1,37.514,53.5a.785.785,0,1,1-1.563.146,12.414,12.414,0,0,0-3.015-7.217,12.344,12.344,0,0,1-1.42-2.133,12.862,12.862,0,0,1-.109-9.775c.722-1.617,3.361-3.282,5.689-4.752a17.585,17.585,0,0,0,2.876-2.031c.03-.423-.351-.823-.85-1.3a3.942,3.942,0,0,1-.529-.566,2.807,2.807,0,0,1,.08-2.368l-.008,0a1.436,1.436,0,0,1-1-2.051l.2-.4-1.845-1.6A.785.785,0,0,1,36,18.286l2.2-2.013-3.222-2.048a5.2,5.2,0,0,1-2.1-2.629l-.526-1.473a3.573,3.573,0,0,0-.3-.641A14.139,14.139,0,0,0,5.9,14.75a14.588,14.588,0,0,0,4.423,12.369,10.818,10.818,0,0,0,1.313.982c2.544,1.749,7.28,5,5.505,10.683a15,15,0,0,1-3.326,5.78c-1.55,1.846-3.152,3.756-4.371,9.185a.785.785,0,0,1-.765.613Z" transform="translate(0 0)" fill="#fff"/>
      <path id="Trazado_878443" data-name="Trazado 878443" d="M22.58,23.558c-2.627,0-7.587-.525-9.8-4.243a4.745,4.745,0,0,1,5.2-7.04,4.745,4.745,0,0,1,8.667-1.221c3.022,5.072-1.615,11.81-1.814,12.094a.784.784,0,0,1-.554.33,15.929,15.929,0,0,1-1.7.08Zm-5.73-9.85a3.177,3.177,0,0,0-2.724,4.8c2.19,3.676,8.1,3.54,9.615,3.436.808-1.287,3.74-6.426,1.556-10.091a3.175,3.175,0,0,0-5.9,1.509.785.785,0,0,1-1.131.674,3.2,3.2,0,0,0-1.413-.331Z" transform="translate(-1.703 -1.666)" fill="#fff"/>
      <path id="Trazado_878444" data-name="Trazado 878444" d="M30.774,53.835a.774.774,0,0,1-.284-.054.785.785,0,0,1-.446-1.016c1.935-4.967-1.093-10.263-3.3-14.132a16.147,16.147,0,0,1-2.178-4.74,12.352,12.352,0,0,1,1.628-8.007.785.785,0,0,1,1.312.861,10.946,10.946,0,0,0-1.387,6.917A16.074,16.074,0,0,0,28.1,37.855c2.368,4.143,5.61,9.816,3.4,15.481a.784.784,0,0,1-.732.5Z" transform="translate(-4.359 -5.285)" fill="#fff"/>
      <path id="Trazado_878445" data-name="Trazado 878445" d="M27.284,25.747a.785.785,0,1,1-.016-1.569c1.4-.03,2.541-.924,3.756-1.871.212-.165.425-.331.64-.494C33.071,20.75,35,19.3,37.252,19.253a.8.8,0,0,1,.8.77.785.785,0,0,1-.77.8c-1.612.03-3.07,1.034-4.671,2.243-.209.158-.415.319-.621.479-1.363,1.063-2.771,2.161-4.687,2.2Z" transform="translate(-4.8 -3.93)" fill="#fff"/>
      <path id="Trazado_878446" data-name="Trazado 878446" d="M53.583,19.169a.785.785,0,0,1-.233-1.533c4.195-1.311,4.109-6.839,4.108-6.9a.785.785,0,0,1,.765-.8.8.8,0,0,1,.8.766c.007.276.1,6.771-5.208,8.431a.777.777,0,0,1-.235.036Z" transform="translate(-10.463 -1.924)" fill="#fff"/>
      <path id="Trazado_878447" data-name="Trazado 878447" d="M61.133,31.584a.785.785,0,0,1-.771-.643,5.67,5.67,0,0,0-3.984-4.711.785.785,0,0,1,.341-1.532,7.21,7.21,0,0,1,5.186,5.959.784.784,0,0,1-.63.913.749.749,0,0,1-.142.013Z" transform="translate(-11.101 -5.098)" fill="#fff"/>
      <path id="Trazado_878448" data-name="Trazado 878448" d="M58.369,21.314a.785.785,0,0,1-.146-1.556,7.284,7.284,0,0,0,4.347-3.3.785.785,0,1,1,1.368.769A8.765,8.765,0,0,1,58.517,21.3a.809.809,0,0,1-.148.014Z" transform="translate(-11.493 -3.243)" fill="#fff"/>
    </g>
  </g>
</svg>
