<svg xmlns="http://www.w3.org/2000/svg" width="85" height="85" viewBox="0 0 85 85">
  <g id="Grupo_1102038" data-name="Grupo 1102038" transform="translate(-733.714 -1062.408)">
    <g id="Grupo_1098883" data-name="Grupo 1098883" transform="translate(733.714 1062.408)">
      <g id="Grupo_1098742" data-name="Grupo 1098742" transform="translate(0 0)">
        <rect id="Rect치ngulo_400898" data-name="Rect치ngulo 400898" width="85" height="85" rx="42.5" transform="translate(0 0)" fill="#30169a"/>
        <rect id="Rect치ngulo_400907" data-name="Rect치ngulo 400907" width="85" height="85" rx="42.5" transform="translate(0 0)" fill="none"/>
      </g>
    </g>
    <g id="cocinando" transform="translate(742.738 1030.408)">
      <path id="Trazado_879572" data-name="Trazado 879572" d="M11.443,176.835a24.71,24.71,0,0,0,8.5,1.47,28.336,28.336,0,0,0,9.29-1.6,26.568,26.568,0,0,0,14.031-10.937,18.1,18.1,0,0,0,2.078-15.6,2.8,2.8,0,0,0-.117-.281,3.629,3.629,0,0,0,3.061.537L64.8,142.412a3.122,3.122,0,0,0,1.44-4.21L66,137.715a3.116,3.116,0,0,0-4.075-1.45l-15.553,7.1a3.671,3.671,0,0,0-2.689,3.547,3.624,3.624,0,0,0,.208,1.212l-.306.2c-4.083-2.042-13.985-.4-23.236,2.822q-.815.284-1.626.585a7.3,7.3,0,0,1,1.767-6.691l-1.474-1.469a10.054,10.054,0,0,0-2.208,3.807,8.666,8.666,0,0,0-.042,5.106c-1.665.665-3.265,1.367-4.778,2.1a28.726,28.726,0,0,1-.8-8.656,3.524,3.524,0,1,0-7.044-.176v7.359a.563.563,0,0,1-.563.562,2.643,2.643,0,0,0-2.644,2.658,16.773,16.773,0,0,0,.892,4.958c-1.592,1.7-2.162,3.249-1.692,4.6a18.105,18.105,0,0,0,11.308,10.941Zm17.106-2.1a24.486,24.486,0,0,1-16.391.142,16.847,16.847,0,0,1-8.532-6.547,16.052,16.052,0,0,0,3.3.3q.956,0,2.042-.074a59.645,59.645,0,0,0,12.436-2.447c.091.015,2.572-.8,3.723-1.2a80.472,80.472,0,0,0,7.72-3.128l.053-.025a51.911,51.911,0,0,0,7.161-4.017,19.819,19.819,0,0,0,4.05-3.488c.783,8.309-5.565,17.006-15.566,20.485ZM39.382,153.8c-.219,1.865-.585,2.249-.6,2.265l.02.02c-.861.587-1.806,1.172-2.822,1.749a13.453,13.453,0,0,0,1.327-4.285,1.052,1.052,0,0,1,1.042-.91,1.04,1.04,0,0,1,1.034,1.162Zm23.4-15.637a1.038,1.038,0,0,1,1.356.484l.244.487a1.04,1.04,0,0,1-.485,1.406l-12.933,6.3a3.634,3.634,0,0,0-1.282-2.7Zm-15.458,7.192a1.559,1.559,0,0,1,.954,2.794l-.572.279a1.479,1.479,0,0,1-.568.037l.244-.162a1.04,1.04,0,1,0-1.154-1.731l-.461.308a1.562,1.562,0,0,1,1.558-1.523ZM18.949,156.425l1.6-1.332a10.491,10.491,0,0,1-1.014-1.438c.5-.183,1-.362,1.5-.536a63.277,63.277,0,0,1,15.618-3.535,17.289,17.289,0,0,1,4.968.236c.986.239,1.611.607,1.76,1.035s-.113,1.1-.738,1.9a10.828,10.828,0,0,1-1.187,1.261,3.126,3.126,0,1,0-6.207-.75,11.117,11.117,0,0,1-3.47,6.722,78.729,78.729,0,0,1-7.327,2.956q-1.592.554-3.163,1.03a11.194,11.194,0,0,1-8.645-7.394c1.552-.757,3.2-1.485,4.927-2.172a12.484,12.484,0,0,0,1.383,2.015Zm-15.771-.5a.559.559,0,0,1,.4-.166,2.647,2.647,0,0,0,2.644-2.644v-7.358a1.443,1.443,0,1,1,2.885.073,28.543,28.543,0,0,0,1.588,11.49,14.542,14.542,0,0,0,3.83,5.662,12.494,12.494,0,0,0,3.1,2.007,53.424,53.424,0,0,1-7.241,1.349l-.869-.16a6.961,6.961,0,0,1-5.246-4.364,14.5,14.5,0,0,1-1.253-5.491.556.556,0,0,1,.162-.4ZM2.1,165.21c-.144-.414.094-1.045.649-1.785a9.981,9.981,0,0,0,2.47,3.041,10.091,10.091,0,0,1-1.359-.221c-.985-.239-1.61-.606-1.76-1.034h0Z" transform="translate(0 -76.543)" fill="#fff"/>
      <path id="Trazado_879573" data-name="Trazado 879573" d="M51.122,104a3.122,3.122,0,1,0,3.122,3.122A3.122,3.122,0,0,0,51.122,104Zm0,4.162a1.041,1.041,0,1,1,1.041-1.041A1.041,1.041,0,0,1,51.122,108.162Z" transform="translate(-41.778 -48.716)" fill="#fff"/>
      <path id="Trazado_879574" data-name="Trazado 879574" d="M110.243,51.122a3.122,3.122,0,1,0-3.122,3.122A3.122,3.122,0,0,0,110.243,51.122Zm-4.162,0a1.041,1.041,0,1,1,1.04,1.041A1.041,1.041,0,0,1,106.081,51.122Z" transform="translate(-90.495)" fill="#fff"/>
      <path id="Trazado_879575" data-name="Trazado 879575" d="M104,160h2.081v2.081H104Z" transform="translate(-90.495 -97.433)" fill="#fff"/>
      <path id="Trazado_879576" data-name="Trazado 879576" d="M96,232h2.081v2.081H96Z" transform="translate(-83.535 -160.068)" fill="#fff"/>
      <path id="Trazado_879577" data-name="Trazado 879577" d="M144,304h2.081v2.081H144Z" transform="translate(-125.292 -222.704)" fill="#fff"/>
      <path id="Trazado_879578" data-name="Trazado 879578" d="M16,152h2.081v2.081H16Z" transform="translate(-13.94 -90.473)" fill="#fff"/>
      <path id="Trazado_879579" data-name="Trazado 879579" d="M59.585,332.849l1.154-1.731c-2.543-1.7-2.655-3.257-2.658-3.323a.2.2,0,0,1,0,.027H56C56,328.092,56.1,330.527,59.585,332.849Z" transform="translate(-48.738 -243.404)" fill="#fff"/>
      <path id="Trazado_879580" data-name="Trazado 879580" d="M139.445,101.64a13.245,13.245,0,0,1,1.453-1.826l-1.472-1.471c-.14.14-3.426,3.467-3.426,6.979h2.081a7.028,7.028,0,0,1,1.364-3.682Z" transform="translate(-118.333 -43.795)" fill="#fff"/>
    </g>
  </g>
</svg>
