<svg xmlns="http://www.w3.org/2000/svg" width="184.079" height="184.079" viewBox="0 0 184.079 184.079">
  <g id="Grupo_1101752" data-name="Grupo 1101752" transform="translate(-1151.052 -1982)">
    <rect id="Rectángulo_400898" data-name="Rectángulo 400898" width="184.079" height="184.079" rx="92" transform="translate(1151.052 1982)" fill="#59836b"/>
    <g id="ensalada-de-frutas" transform="translate(1168.052 1972.375)">
      <g id="Grupo_1101749" data-name="Grupo 1101749" transform="translate(0 36.625)">
        <g id="Grupo_1101748" data-name="Grupo 1101748" transform="translate(0 0)">
          <path id="Trazado_877803" data-name="Trazado 877803" d="M141.035,74.354l-2.745-11.342a2.511,2.511,0,0,0-4.5-.84l-4.176,6.019c-.516-.216-1.033-.421-1.552-.625a24.72,24.72,0,0,0-31.741-9.482,25.3,25.3,0,0,0-2.165-6.77l-3.083-6.373a2.51,2.51,0,0,0-3.353-1.167l-6.378,3.083-.145.073a25.662,25.662,0,0,0-7.437-6.449l-6.142-3.521a2.51,2.51,0,0,0-3.426.928l-3.526,6.144a25.372,25.372,0,0,0-2.987,8.245,19.514,19.514,0,0,0-11.091,7.947,24.8,24.8,0,0,0-19.667-1.73,2.51,2.51,0,1,0,1.592,4.761,19.733,19.733,0,0,1,25.25,13.431,9.685,9.685,0,0,0-3.351,3.9A13.241,13.241,0,0,0,37.764,84.3a2.51,2.51,0,1,0,3.55,3.55,8.46,8.46,0,0,1,8.207-2.321,9.691,9.691,0,0,0,1.07,3.71c-5.736,1.415-9.544,4.559-9.545,8.394v2.984a19.461,19.461,0,0,1-5.049.987,12.909,12.909,0,0,0-17.483-8.525,19.7,19.7,0,0,1,3.719-26.343,2.51,2.51,0,1,0-3.2-3.872,24.713,24.713,0,0,0-4.686,33.02,12.869,12.869,0,0,0-3.2,5.356C7.895,98.5,5.021,94.89,5.021,90.672a11.617,11.617,0,0,1,2.758-7.136,2.511,2.511,0,1,0-3.96-3.087A16.5,16.5,0,0,0,0,90.659s0,.008,0,.012a75.709,75.709,0,0,0,129.986,52.782,2.51,2.51,0,0,0-3.6-3.5A70.691,70.691,0,0,1,6.2,103.526a36.969,36.969,0,0,0,5.566,4.407,71.566,71.566,0,0,0,17.168,7.841,122.829,122.829,0,0,0,14.144,3.6,168.153,168.153,0,0,0,28.543,2.965c1.3.029,2.677.044,4.093.044,2.162,0,4.335-.038,6.459-.111H82.2c1.711-.061,3.281-.137,4.795-.231,2.849-.172,5.742-.419,8.6-.733,5.07-.56,9.988-1.336,14.619-2.308,14.447-3.027,25.885-7.774,33.077-13.729.7-.58,1.352-1.171,1.963-1.766A69.813,69.813,0,0,1,130.8,134.964a2.51,2.51,0,1,0,3.911,3.148,75.9,75.9,0,0,0,16.7-47.351c0-.031,0-.061,0-.091C151.419,84.812,147.832,79.186,141.035,74.354Zm-111.892,36.2a67.155,67.155,0,0,1-13.507-6.114A7.906,7.906,0,0,1,31.4,104.35c.017.2.025.411.025.646A7.827,7.827,0,0,1,29.143,110.555Zm11.9,3.268h0q-3.492-.765-6.758-1.682a13.01,13.01,0,0,0,2.056-5.524,24.487,24.487,0,0,0,4.7-.751Zm55.6-50.211a19.559,19.559,0,0,1,10.293-2.905,19.771,19.771,0,0,1,18.635,13.3l-1.806,2.6-4.329-5.479a2.5,2.5,0,0,0-4.1.241l-.005,0L100.406,95.564a9.676,9.676,0,0,0-5.152-1.831,9.763,9.763,0,0,0,.113-3.158,2.51,2.51,0,1,0-4.981.633A4.685,4.685,0,1,1,87.5,87.46a2.511,2.511,0,1,0,1.887-4.653,9.773,9.773,0,0,0-2.068-.584A25.694,25.694,0,0,0,96.648,63.612ZM83.527,51.376l4.117-1.991,1.99,4.113a20.634,20.634,0,0,1-5.07,24.49,9.691,9.691,0,0,0-2.14-3.227c-.035-.035-.072-.068-.107-.1a19.679,19.679,0,0,0-5.862-17.654A20.51,20.51,0,0,1,83.527,51.376Zm-3.281,30.25a4.683,4.683,0,1,1-1.373-3.313A4.656,4.656,0,0,1,80.245,81.625ZM65.02,46.529,67.3,42.563l3.965,2.273A20.326,20.326,0,0,1,76.9,49.593a25.422,25.422,0,0,0-4.5,4.44,19.577,19.577,0,0,0-9.448-2.45A20.466,20.466,0,0,1,65.02,46.529ZM50.734,63.057a14.687,14.687,0,0,1,26.849,8.235c0,.281-.011.561-.026.84a9.691,9.691,0,0,0-11.112,6.161c-.127-.143-.258-.284-.4-.421a9.722,9.722,0,0,0-7.537-2.818A24.615,24.615,0,0,0,50.734,63.057ZM62.5,88.05a4.761,4.761,0,0,1-.809.645,31.547,31.547,0,0,0-4.077-.26c-.427,0-.847.011-1.263.027a4.623,4.623,0,0,1-.476-.411,4.693,4.693,0,0,1,0-6.629,4.576,4.576,0,0,1,1.651-1.065A4.685,4.685,0,0,1,62.5,88.05Zm3.743,15.117a2.51,2.51,0,0,0,2.919,1.152v12.918a162.994,162.994,0,0,1-23.1-2.42v-10.46a25.12,25.12,0,0,0,11.548,2.487,31.194,31.194,0,0,0,4.526-.325,2.51,2.51,0,0,0-.732-4.967,26.1,26.1,0,0,1-3.794.271c-7.164,0-11.548-2.709-11.548-4.184s4.385-4.184,11.549-4.184,11.548,2.709,11.548,4.184c0,.587-.78,1.412-1.986,2.1A2.51,2.51,0,0,0,66.243,103.167Zm7.683-7.208c-.7-2.276-2.8-4.214-5.829-5.553a4.675,4.675,0,0,1,5.829,5.553Zm4.911,21.374c-1.04.018-2.085.027-3.127.027-.516,0-1.024,0-1.526-.007v-4.166a9.62,9.62,0,0,0,4.765,1.591A9.656,9.656,0,0,0,78.837,117.333Zm.705-7.555a4.687,4.687,0,1,1,3.313-1.373A4.654,4.654,0,0,1,79.542,109.778Zm7.142,7.249c-.909.056-1.842.1-2.811.149a4.688,4.688,0,1,1,9.324-.67C91.025,116.721,88.843,116.9,86.684,117.027ZM94.7,108.1a4.687,4.687,0,1,1,3.313-1.373A4.654,4.654,0,0,1,94.7,108.1Zm12.82,6.315c-3.006.591-6.131,1.1-9.333,1.514a9.834,9.834,0,0,0-.736-3.2A9.721,9.721,0,0,0,103.7,99.779l9-14.584Zm34.465-14.752-6.07-7.684a2.511,2.511,0,0,0-3.94,3.113l6.16,7.8c-5.944,4.223-14.744,7.829-25.31,10.371l6.141-34.634,8.673,10.977a2.51,2.51,0,1,0,3.94-3.113l-4.556-5.766,5.475-7.894c.024-.03.047-.062.07-.094l2.158-3.111,7.268,30.031Zm3.807-5.654L143.1,82.879a12.146,12.146,0,0,1,3.3,7.793A9.813,9.813,0,0,1,145.794,94.013Z" transform="translate(0 -36.625)" fill="#fff"/>
        </g>
      </g>
      <g id="Grupo_1101751" data-name="Grupo 1101751" transform="translate(104.645 62.159)">
        <g id="Grupo_1101750" data-name="Grupo 1101750">
          <path id="Trazado_877804" data-name="Trazado 877804" d="M355.006,123.342a2.509,2.509,0,1,0,3.834,2.426A2.53,2.53,0,0,0,355.006,123.342Z" transform="translate(-353.841 -122.964)" fill="#fff"/>
        </g>
      </g>
    </g>
  </g>
</svg>
