<svg xmlns="http://www.w3.org/2000/svg" width="89" height="89" viewBox="0 0 89 89">
  <g id="Grupo_1101685" data-name="Grupo 1101685" transform="translate(-1228 -1383)">
    <rect id="Rectángulo_402721" data-name="Rectángulo 402721" width="89" height="89" rx="44.5" transform="translate(1228 1383)" fill="#fff"/>
    <g id="cancer" transform="translate(1243.001 1398)">
      <path id="Trazado_877594" data-name="Trazado 877594" d="M77.7,70.035a.849.849,0,0,1-.68-.339,5.681,5.681,0,0,1-1.045-3.714,4.85,4.85,0,0,0-.016-.555,2.474,2.474,0,0,1-.773-1.838,2.684,2.684,0,0,1,4.582-1.9,5.491,5.491,0,0,1,1.575,4.32,4.785,4.785,0,0,0,.016.555.834.834,0,1,1-.954,1.368,1.885,1.885,0,0,1-.262-.224c-.487-.487-.506-.9-.5-1.707a3.843,3.843,0,0,0-1.076-3.11.983.983,0,1,0-1.39,1.39c.487.484.506.9.5,1.706a4.022,4.022,0,0,0,.7,2.683.851.851,0,0,1-.679,1.362Z" transform="translate(-66.662 -53.997)" fill="#30169a"/>
      <path id="Trazado_877595" data-name="Trazado 877595" d="M147.961,14.166a.851.851,0,0,1-.5-1.536,20.267,20.267,0,0,1,8.474-3.616,5.293,5.293,0,0,1-.3-1.81,5.488,5.488,0,0,1,1.944-4.171,4.836,4.836,0,0,0,.379-.4A2.627,2.627,0,0,1,160.6,0a2.687,2.687,0,0,1,2.684,2.684,5.488,5.488,0,0,1-1.944,4.171,4.772,4.772,0,0,0-.379.4c.046-.03.288.209.379.3a7.51,7.51,0,0,1,1.164,1.38c.55.083,1.091.187,1.615.312a.851.851,0,0,1-.392,1.655,18.4,18.4,0,0,0-1.864-.339.851.851,0,0,1-.648-.457,5.184,5.184,0,0,0-1.067-1.338c-.579-.571-.856-.875-.856-1.563s.277-.993.854-1.561a3.838,3.838,0,0,0,1.437-2.959.982.982,0,1,0-1.965,0c0,.688-.277.992-.853,1.561A3.839,3.839,0,0,0,157.33,7.2a3.449,3.449,0,0,0,.6,2,.851.851,0,0,1-.607,1.323A18.556,18.556,0,0,0,148.463,14,.847.847,0,0,1,147.961,14.166Z" transform="translate(-130.427)" fill="#30169a"/>
      <path id="Trazado_877596" data-name="Trazado 877596" d="M63.588,358.448a2.684,2.684,0,0,1-1.9-4.582,5.491,5.491,0,0,1,4.321-1.575,4.783,4.783,0,0,0,.554-.016c-.054-.012-.056-.352-.056-.48a7.512,7.512,0,0,1,.153-1.8q-.083-.113-.164-.226a.851.851,0,0,1,1.385-.987q.186.261.382.515a.851.851,0,0,1,.137.783,5.2,5.2,0,0,0-.192,1.706c0,.812-.014,1.223-.5,1.709s-.9.5-1.705.5a3.843,3.843,0,0,0-3.11,1.076.983.983,0,1,0,1.39,1.39c.484-.487.9-.506,1.706-.5a3.836,3.836,0,0,0,3.11-1.075,3.456,3.456,0,0,0,1-1.84.851.851,0,0,1,1.365-.506,18.677,18.677,0,0,0,2.342,1.586.851.851,0,1,1-.845,1.477c-.544-.311-1.075-.648-1.588-1.008a5.3,5.3,0,0,1-1.067,1.494,5.484,5.484,0,0,1-4.324,1.573,4.821,4.821,0,0,0-.552.016A2.53,2.53,0,0,1,63.588,358.448Z" transform="translate(-53.999 -308.911)" fill="#30169a"/>
      <path id="Trazado_877597" data-name="Trazado 877597" d="M385.993,387.418a2.675,2.675,0,0,1-1.9-.785,5.491,5.491,0,0,1-1.575-4.32v-.221a.851.851,0,1,1,1.7,0v.234a3.839,3.839,0,0,0,1.076,3.1.983.983,0,0,0,1.39-1.39c-.487-.484-.506-.9-.5-1.706a4.869,4.869,0,0,0-.26-1.9.851.851,0,1,1,1.582-.625,6.472,6.472,0,0,1,.379,2.534,4.821,4.821,0,0,0,.016.551,2.627,2.627,0,0,1-.013,3.736A2.675,2.675,0,0,1,385.993,387.418Z" transform="translate(-339.14 -336.262)" fill="#30169a"/>
      <path id="Trazado_877598" data-name="Trazado 877598" d="M447.779,229.974a5.488,5.488,0,0,1-4.171-1.944,4.755,4.755,0,0,0-.4-.378.813.813,0,0,1-.591-1.011.88.88,0,0,1,1.062-.614,2.433,2.433,0,0,1,1.141.809,3.838,3.838,0,0,0,2.959,1.437.982.982,0,1,0,0-1.965c-.688,0-.992-.277-1.561-.853a3.9,3.9,0,0,0-2.7-1.429.851.851,0,1,1,.1-1.7,5.553,5.553,0,0,1,3.8,1.929,4.87,4.87,0,0,0,.4.382,2.627,2.627,0,0,1,2.632,2.651A2.687,2.687,0,0,1,447.779,229.974Z" transform="translate(-392.399 -197.112)" fill="#30169a"/>
      <path id="Trazado_877599" data-name="Trazado 877599" d="M381,91.592a.851.851,0,0,1-.822-.636,18.425,18.425,0,0,0-3.252-6.618.851.851,0,0,1-.135-.782,5.2,5.2,0,0,0,.192-1.705c-.005-.813.014-1.224.5-1.71s.9-.5,1.7-.5a3.844,3.844,0,0,0,3.11-1.076.983.983,0,1,0-1.39-1.39c-.484.487-.9.506-1.706.5a4.442,4.442,0,0,0-2.214.406.851.851,0,0,1-.79-1.506,6.033,6.033,0,0,1,3.012-.6,4.851,4.851,0,0,0,.555-.016,2.474,2.474,0,0,1,1.838-.773,2.684,2.684,0,0,1,1.9,4.582,5.491,5.491,0,0,1-4.32,1.575,4.787,4.787,0,0,0-.555.016c.053.012.056.351.056.479a7.509,7.509,0,0,1-.153,1.8,20.1,20.1,0,0,1,3.293,6.885A.851.851,0,0,1,381,91.592Z" transform="translate(-333.137 -66.662)" fill="#30169a"/>
      <path id="Trazado_877600" data-name="Trazado 877600" d="M406.954,277.619a.851.851,0,0,1-.78-1.19,18.47,18.47,0,0,0,1.377-5,.851.851,0,0,1,1.687.218,20.172,20.172,0,0,1-1.5,5.455A.851.851,0,0,1,406.954,277.619Z" transform="translate(-360.05 -239.994)" fill="#30169a"/>
      <path id="Trazado_877601" data-name="Trazado 877601" d="M328.02,391.345a.851.851,0,0,1-.39-1.607,18.531,18.531,0,0,0,2.3-1.409.851.851,0,1,1,.991,1.383,20.242,20.242,0,0,1-2.516,1.539A.847.847,0,0,1,328.02,391.345Z" transform="translate(-290.066 -344.148)" fill="#30169a"/>
      <path id="Trazado_877602" data-name="Trazado 877602" d="M224.923,425.059a2.686,2.686,0,0,1-2.683-2.683,5.489,5.489,0,0,1,1.944-4.171,4.847,4.847,0,0,0,.379-.4.8.8,0,0,1,.762-.88.868.868,0,0,1,.9.816c0,.023,0,.092,0,.116,0,.688-.277.991-.853,1.56a3.84,3.84,0,0,0-1.438,2.96.982.982,0,0,0,1.964,0c0-.687.277-.991.852-1.561a3.84,3.84,0,0,0,1.439-2.96,3.451,3.451,0,0,0-.6-2,.851.851,0,0,1,.607-1.323,18.583,18.583,0,0,0,2.867-.559.851.851,0,1,1,.457,1.638c-.632.177-1.279.323-1.934.438a5.3,5.3,0,0,1,.3,1.81,5.488,5.488,0,0,1-1.944,4.17,4.843,4.843,0,0,0-.379.4A2.627,2.627,0,0,1,224.923,425.059Z" transform="translate(-197.037 -366.995)" fill="#30169a"/>
      <path id="Trazado_877603" data-name="Trazado 877603" d="M10.086,205.961a.851.851,0,0,1-.827-.654c-.094-.395-.176-.794-.246-1.2a5.292,5.292,0,0,1-1.81.3,5.488,5.488,0,0,1-4.171-1.944,4.834,4.834,0,0,0-.4-.379A2.627,2.627,0,0,1,0,199.438a2.687,2.687,0,0,1,2.684-2.684A5.488,5.488,0,0,1,6.853,198.7a4.772,4.772,0,0,0,.4.379c-.03-.046.209-.288.3-.379a7.512,7.512,0,0,1,1.38-1.164,20.281,20.281,0,0,1,.839-3.461.851.851,0,0,1,1.612.545,18.575,18.575,0,0,0-.823,3.558.851.851,0,0,1-.457.649,5.184,5.184,0,0,0-1.338,1.067c-.571.579-.875.856-1.563.856s-.993-.277-1.561-.854a3.838,3.838,0,0,0-2.959-1.437.982.982,0,1,0,0,1.965c.688,0,.992.277,1.561.853a3.839,3.839,0,0,0,2.96,1.438,3.448,3.448,0,0,0,2-.6.851.851,0,0,1,1.323.606,18.809,18.809,0,0,0,.385,2.193.851.851,0,0,1-.828,1.047Z" transform="translate(0 -171.551)" fill="#30169a"/>
      <path id="Trazado_877604" data-name="Trazado 877604" d="M280.782,77.418a7.221,7.221,0,0,1-.854-14.392.851.851,0,0,1,.2,1.689,5.52,5.52,0,1,0,3.33.652.851.851,0,1,1,.825-1.488,7.222,7.222,0,0,1-3.5,13.538Z" transform="translate(-242.537 -55.872)" fill="#30169a"/>
      <path id="Trazado_877605" data-name="Trazado 877605" d="M83.722,121.753a.851.851,0,0,1-.047-1.7,5.385,5.385,0,1,0-3.269-.878.851.851,0,1,1-.936,1.42,7.087,7.087,0,1,1,4.3,1.156Z" transform="translate(-67.63 -95.389)" fill="#30169a"/>
      <path id="Elipse_11518" data-name="Elipse 11518" d="M-.423-7.5A7.085,7.085,0,0,1,6.653-.423,7.085,7.085,0,0,1-.423,6.653,7.085,7.085,0,0,1-7.5-.423,7.085,7.085,0,0,1-.423-7.5Zm0,12.452A5.382,5.382,0,0,0,4.952-.423,5.382,5.382,0,0,0-.423-5.8,5.382,5.382,0,0,0-5.8-.423,5.382,5.382,0,0,0-.423,4.952Z" transform="translate(25.99 45.665)" fill="#30169a"/>
      <path id="Elipse_11519" data-name="Elipse 11519" d="M-1.439-7.5A6.068,6.068,0,0,1,4.621-1.439,6.068,6.068,0,0,1-1.439,4.621,6.068,6.068,0,0,1-7.5-1.439,6.068,6.068,0,0,1-1.439-7.5Zm0,10.42a4.365,4.365,0,0,0,4.36-4.36A4.365,4.365,0,0,0-1.439-5.8,4.365,4.365,0,0,0-5.8-1.439,4.365,4.365,0,0,0-1.439,2.92Z" transform="translate(44.894 42.116)" fill="#30169a"/>
      <path id="Elipse_11520" data-name="Elipse 11520" d="M-2.909-7.5A4.6,4.6,0,0,1,1.681-2.909,4.6,4.6,0,0,1-2.909,1.681,4.6,4.6,0,0,1-7.5-2.909,4.6,4.6,0,0,1-2.909-7.5Zm0,7.48A2.893,2.893,0,0,0-.02-2.909,2.893,2.893,0,0,0-2.909-5.8,2.893,2.893,0,0,0-5.8-2.909,2.893,2.893,0,0,0-2.909-.02Z" transform="translate(14.602 39.846)" fill="#30169a"/>
      <path id="Elipse_11521" data-name="Elipse 11521" d="M-2.909-7.5A4.6,4.6,0,0,1,1.681-2.909,4.6,4.6,0,0,1-2.909,1.681,4.6,4.6,0,0,1-7.5-2.909,4.6,4.6,0,0,1-2.909-7.5Zm0,7.48A2.893,2.893,0,0,0-.02-2.909,2.893,2.893,0,0,0-2.909-5.8,2.893,2.893,0,0,0-5.8-2.909,2.893,2.893,0,0,0-2.909-.02Z" transform="translate(50.781 30.729)" fill="#30169a"/>
      <path id="Elipse_11522" data-name="Elipse 11522" d="M-2.909-7.5A4.6,4.6,0,0,1,1.681-2.909,4.6,4.6,0,0,1-2.909,1.681,4.6,4.6,0,0,1-7.5-2.909,4.6,4.6,0,0,1-2.909-7.5Zm0,7.48A2.893,2.893,0,0,0-.02-2.909,2.893,2.893,0,0,0-2.909-5.8,2.893,2.893,0,0,0-5.8-2.909,2.893,2.893,0,0,0-2.909-.02Z" transform="translate(35.394 29.532)" fill="#30169a"/>
      <path id="Elipse_11523" data-name="Elipse 11523" d="M-4.358-7.5A3.145,3.145,0,0,1-1.217-4.358,3.145,3.145,0,0,1-4.358-1.217,3.145,3.145,0,0,1-7.5-4.358,3.145,3.145,0,0,1-4.358-7.5Zm0,4.582A1.442,1.442,0,0,0-2.918-4.358,1.442,1.442,0,0,0-4.358-5.8,1.442,1.442,0,0,0-5.8-4.358,1.442,1.442,0,0,0-4.358-2.918Z" transform="translate(24.866 35.682)" fill="#30169a"/>
      <path id="Elipse_11524" data-name="Elipse 11524" d="M-4.931-7.5A2.572,2.572,0,0,1-2.362-4.931,2.572,2.572,0,0,1-4.931-2.362,2.572,2.572,0,0,1-7.5-4.931,2.572,2.572,0,0,1-4.931-7.5Zm0,3.437a.869.869,0,0,0,.868-.868A.869.869,0,0,0-4.931-5.8a.869.869,0,0,0-.868.868A.869.869,0,0,0-4.931-4.063Z" transform="translate(31.596 20.483)" fill="#30169a"/>
      <path id="Elipse_11525" data-name="Elipse 11525" d="M-4.931-7.5A2.572,2.572,0,0,1-2.362-4.931,2.572,2.572,0,0,1-4.931-2.362,2.572,2.572,0,0,1-7.5-4.931,2.572,2.572,0,0,1-4.931-7.5Zm0,3.437a.869.869,0,0,0,.868-.868A.869.869,0,0,0-4.931-5.8a.869.869,0,0,0-.868.868A.869.869,0,0,0-4.931-4.063Z" transform="translate(39.092 40.992)" fill="#30169a"/>
      <path id="Línea_623" data-name="Línea 623" transform="translate(40.951 25.004)" fill="#30169a"/>
      <path id="Línea_624" data-name="Línea 624" transform="translate(27.661 34.423)" fill="#30169a"/>
      <path id="Línea_625" data-name="Línea 625" transform="translate(24.431 25.004)" fill="#30169a"/>
      <path id="Línea_626" data-name="Línea 626" transform="translate(18.63 38.382)" fill="#30169a"/>
    </g>
  </g>
</svg>
