<svg xmlns="http://www.w3.org/2000/svg" width="184.079" height="184.079" viewBox="0 0 184.079 184.079">
  <g id="Grupo_1101753" data-name="Grupo 1101753" transform="translate(2196 9685)">
    <rect id="Rectángulo_400898" data-name="Rectángulo 400898" width="184.079" height="184.079" rx="92" transform="translate(-2196 -9685)" fill="#59836b"/>
    <g id="aceite-de-girasol" transform="translate(-2171.97 -9660.542)">
      <path id="Trazado_877805" data-name="Trazado 877805" d="M76.329,41.837a2.293,2.293,0,0,0-2.293,2.293V54.863a37.2,37.2,0,0,1-14.216,2.955,2.293,2.293,0,0,0,0,4.586,41.327,41.327,0,0,0,14.216-2.617v4.2a37.2,37.2,0,0,1-14.216,2.955,2.293,2.293,0,1,0,0,4.586,41.327,41.327,0,0,0,14.216-2.617v2.021a6.354,6.354,0,0,1-4.85,5.88,47.441,47.441,0,0,1-28.04-.015A6.355,6.355,0,0,1,36.5,71.3a2.268,2.268,0,0,0-2.426-2.151,2.292,2.292,0,0,0-2.151,2.426,10.908,10.908,0,0,0,7.845,9.6c10.014,3.46,38.681,5.045,38.856-10.238V44.13a2.293,2.293,0,0,0-2.293-2.293Z" transform="translate(26.132 48.915)" fill="#fff"/>
      <path id="Trazado_877806" data-name="Trazado 877806" d="M76.907,71.818c-1.138-3.567-4.467-10.6-3.855-14.289a17.72,17.72,0,0,1,2.135-6.947,14.61,14.61,0,0,0-3.633-16.5L66.946,29.73a2.553,2.553,0,0,1-.887-1.914V22.842a4.937,4.937,0,0,0,2.883-4.2l-.179-8.078c-.048-8.871-29.15-8.651-28.885.055,0,.144.165,7.88.183,8.261a4.97,4.97,0,0,0,2.688,3.873v3.865c.013,1.507.053,2.272-.913,3.156-.14.148-3.98,3.749-4.8,4.532a14.776,14.776,0,0,0-4.465,8.948,2.3,2.3,0,1,0,4.6.157c.391-6.507,10.183-9.077,10.16-15.6,0-.089,0-3.242,0-3.323-.05-.047.227.041.369.063a35.148,35.148,0,0,0,13.77-.035c0,.265-.007,3.474,0,3.523a7.238,7.238,0,0,0,2.369,5.069C67.382,36.465,72.188,40,71.763,45.18a20.163,20.163,0,0,1-2.273,7.042,18.609,18.609,0,0,0-.131,12.139c.765,2.528,4.087,10.142,3.831,12.363v4.661c-.007,1.474,0,2.424,0,2.609a2.294,2.294,0,0,0,4.582-.126c-.157-3.611.48-8.88-.868-12.05ZM54.32,8.624a18.97,18.97,0,0,1,9.592,1.94A18.987,18.987,0,0,1,54.32,12.5a18.987,18.987,0,0,1-9.592-1.939,18.97,18.97,0,0,1,9.592-1.94Zm-8.384,10.6a4.231,4.231,0,0,1-1.3-.758l-.064-2.888A31.948,31.948,0,0,0,64.287,15.5l.066,2.981c-.667.708-4.085,2.156-9.853,2.156a22.559,22.559,0,0,1-8.565-1.409Z" transform="translate(26.979 0)" fill="#fff"/>
      <path id="Trazado_877807" data-name="Trazado 877807" d="M65.963,91.465a2.3,2.3,0,0,0,2.305-1.319,21.179,21.179,0,0,0,1.694-10.015A22.6,22.6,0,0,0,79.982,78.47a2.293,2.293,0,0,0,1.328-2.3,21.246,21.246,0,0,0-3.5-9.4,21.174,21.174,0,0,0,7.769-6.384,2.293,2.293,0,0,0,.006-2.656,21.09,21.09,0,0,0-7.857-6.459,21.262,21.262,0,0,0,3.585-9.523,2.293,2.293,0,0,0-1.33-2.3,21.2,21.2,0,0,0-9.894-1.655,21.165,21.165,0,0,0-1.642-9.9,2.291,2.291,0,0,0-2.3-1.332,21.19,21.19,0,0,0-9.525,3.565,21.156,21.156,0,0,0-6.435-7.874,2.3,2.3,0,0,0-2.661,0,21.243,21.243,0,0,0-6.385,7.742,21.241,21.241,0,0,0-9.394-3.536,2.288,2.288,0,0,0-2.307,1.323A21.283,21.283,0,0,0,27.754,37.8a21.085,21.085,0,0,0-10.027,1.641,2.294,2.294,0,0,0-1.33,2.3,21.356,21.356,0,0,0,3.491,9.4,21.168,21.168,0,0,0-7.759,6.384,2.291,2.291,0,0,0-.007,2.651,21.1,21.1,0,0,0,7.855,6.479,21.2,21.2,0,0,0-3.58,9.507,2.293,2.293,0,0,0,1.33,2.3,21.945,21.945,0,0,0,8.258,1.764,15.786,15.786,0,0,0,1.637-.091,21.28,21.28,0,0,0,1.641,9.9,2.294,2.294,0,0,0,2.3,1.334,21.185,21.185,0,0,0,9.528-3.568,21.18,21.18,0,0,0,6.432,7.855,2.291,2.291,0,0,0,2.658,0,21.2,21.2,0,0,0,6.4-7.736,21.253,21.253,0,0,0,9.384,3.528ZM46.1,73.37A14.749,14.749,0,0,1,37.753,49.4c6.875-8.527,21.7-5.681,24.958,4.76A14.765,14.765,0,0,1,46.1,73.37ZM64.7,86.59a12.763,12.763,0,0,1-7.049-3.927,11.659,11.659,0,0,0-1.764-5.794,19.327,19.327,0,0,0,4.934-2.855,11.455,11.455,0,0,0,3.989,4.336,12.559,12.559,0,0,1-.109,8.239Zm2.991-11.834a7.228,7.228,0,0,1-3.4-4.321,18.718,18.718,0,0,0,2.229-3.889c5.7-1.363,9.15,4.068,9.921,8.347A12.039,12.039,0,0,1,67.693,74.756ZM80.722,59.047a12.7,12.7,0,0,1-6.95,4.145A11.634,11.634,0,0,0,67.894,61.8a19.9,19.9,0,0,0-.013-5.688,11.649,11.649,0,0,0,5.686-1.261,12.435,12.435,0,0,1,7.155,4.192ZM76.435,43.023c-.759,4.192-4.134,9.729-9.91,8.343a19.134,19.134,0,0,0-2.243-3.9c1.731-5.7,8.091-5.885,12.153-4.447Zm-11.582-11.6a12.7,12.7,0,0,1,.1,8.127,11.464,11.464,0,0,0-4.1,4.416,19.1,19.1,0,0,0-4.986-2.883A11.3,11.3,0,0,0,57.641,35.5,12.546,12.546,0,0,1,64.853,31.422Zm-16-4.319c2.584,2.147,5.976,7.507,3.194,11.462-.821,2.243-3.6.744-5.473,1.31C42.6,35.539,45.515,29.948,48.852,27.1ZM33.008,31.328a12.846,12.846,0,0,1,7.046,3.918,11.654,11.654,0,0,0,1.762,5.816,19.238,19.238,0,0,0-4.943,2.86,11.461,11.461,0,0,0-3.956-4.313,12.6,12.6,0,0,1,.092-8.28ZM30.023,43.2a7.211,7.211,0,0,1,3.39,4.31,19.2,19.2,0,0,0-2.243,3.885c-5.679,1.357-9.142-4.081-9.9-8.366a11.971,11.971,0,0,1,8.754.17ZM16.982,58.87a12.707,12.707,0,0,1,6.912-4.145,11.766,11.766,0,0,0,5.94,1.406,17.948,17.948,0,0,0,.014,5.69,11.673,11.673,0,0,0-5.7,1.259,12.43,12.43,0,0,1-7.161-4.211Zm4.287,16.023c.519-3.3,3.565-8.961,8.275-8.5,2.432-.374,2.44,2.687,3.914,4.072-1.693,5.645-8.061,5.912-12.189,4.432ZM32.852,86.514a12.782,12.782,0,0,1-.128-8.067A11.748,11.748,0,0,0,36.887,74a19.715,19.715,0,0,0,4.955,2.853,11.2,11.2,0,0,0-1.777,5.589,12.551,12.551,0,0,1-7.214,4.075Zm16.009,4.3c-3.276-2.819-6.3-8.446-2.271-12.746a17.785,17.785,0,0,0,4.545,0c3.963,4.409,1.091,9.848-2.274,12.749Z" transform="translate(0 23.036)" fill="#fff"/>
      <path id="Trazado_877808" data-name="Trazado 877808" d="M26.172,35.153a2.293,2.293,0,1,0,2.293,2.293,2.293,2.293,0,0,0-2.293-2.293Z" transform="translate(15.74 40.274)" fill="#fff"/>
      <path id="Trazado_877809" data-name="Trazado 877809" d="M32.228,39.738a2.293,2.293,0,1,0-2.293-2.293,2.293,2.293,0,0,0,2.293,2.293Z" transform="translate(23.568 40.274)" fill="#fff"/>
      <path id="Trazado_877810" data-name="Trazado 877810" d="M26.172,38.891a2.293,2.293,0,1,0,2.293,2.293,2.293,2.293,0,0,0-2.293-2.293Z" transform="translate(15.74 45.106)" fill="#fff"/>
      <path id="Trazado_877811" data-name="Trazado 877811" d="M32.228,43.476a2.293,2.293,0,1,0-2.293-2.293,2.293,2.293,0,0,0,2.293,2.293Z" transform="translate(23.568 45.106)" fill="#fff"/>
      <path id="Trazado_877812" data-name="Trazado 877812" d="M29.2,41.607a2.293,2.293,0,1,0-2.293-2.293A2.293,2.293,0,0,0,29.2,41.607Z" transform="translate(19.654 42.69)" fill="#fff"/>
      <path id="Trazado_877813" data-name="Trazado 877813" d="M29.2,37.559a2.293,2.293,0,1,0-2.293-2.293A2.293,2.293,0,0,0,29.2,37.559Z" transform="translate(19.654 37.456)" fill="#fff"/>
      <path id="Trazado_877814" data-name="Trazado 877814" d="M31.493,43.362A2.293,2.293,0,1,0,29.2,45.655a2.293,2.293,0,0,0,2.293-2.293Z" transform="translate(19.654 47.923)" fill="#fff"/>
    </g>
  </g>
</svg>
