<svg xmlns="http://www.w3.org/2000/svg" width="85.165" height="85.383" viewBox="0 0 85.165 85.383">
  <g id="Grupo_1102086" data-name="Grupo 1102086" transform="translate(-315 -2885)">
    <rect id="Rect치ngulo_400898" data-name="Rect치ngulo 400898" width="85" height="85" rx="42.5" transform="translate(315 2885.383)" fill="#30169a"/>
    <g id="Grupo_1101934" data-name="Grupo 1101934">
      <rect id="Rect치ngulo_400907" data-name="Rect치ngulo 400907" width="85" height="85" rx="42.5" transform="translate(315.165 2885)" fill="none"/>
      <g id="ejercicio_1_" data-name="ejercicio (1)" transform="translate(325.165 2896)">
        <circle id="Elipse_11521" data-name="Elipse 11521" cx="1" cy="1" r="1" transform="translate(27 19)" fill="#fff"/>
        <circle id="Elipse_11522" data-name="Elipse 11522" cx="1" cy="1" r="1" transform="translate(35 19)" fill="#fff"/>
        <path id="Trazado_878457" data-name="Trazado 878457" d="M33,25H29v2h4a4,4,0,0,0,4-4H35A2,2,0,0,1,33,25Z" fill="#fff"/>
        <path id="Trazado_878458" data-name="Trazado 878458" d="M61,21H59a2,2,0,0,0-2,2v4H54.816A3,3,0,0,0,52,25H48a3,3,0,0,0-2.816,2H40.315a6.906,6.906,0,0,0,.6-2H41a4,4,0,0,0,4-4,3.946,3.946,0,0,0-.516-1.925l2.1-4.888A5.165,5.165,0,0,0,47,12.138a9.736,9.736,0,0,0-5.006-8.507A20.948,20.948,0,0,0,31.843,1h-1.3a20.374,20.374,0,0,0-9.062,2.139l-.118.059A7.859,7.859,0,0,0,17,10.265a3.411,3.411,0,0,0,.576,1.9l1,1.507-.953,1.191a2.866,2.866,0,0,0,1.332,4.509l.341.114A3.991,3.991,0,0,0,23,25h.08a6.937,6.937,0,0,0,.6,2H18.816A3,3,0,0,0,16,25H12a3,3,0,0,0-2.816,2H7V23a2,2,0,0,0-2-2H3a2,2,0,0,0-2,2V37a2,2,0,0,0,2,2H5a2,2,0,0,0,2-2V33H8.753L7.506,38.614A21.244,21.244,0,0,0,9.242,52.722l.388.774a6.327,6.327,0,0,0,10.732.962l1.492,6.961A2.009,2.009,0,0,0,23.809,63H40.192a2.009,2.009,0,0,0,1.955-1.581l1.492-6.961A6.326,6.326,0,0,0,54.37,53.5l.388-.775a21.241,21.241,0,0,0,1.736-14.107L55.247,33H57v4a2,2,0,0,0,2,2h2a2,2,0,0,0,2-2V23A2,2,0,0,0,61,21ZM47,28a1,1,0,0,1,1-1h4a1,1,0,0,1,1,1v2a1,1,0,0,1-1,1H48a1,1,0,0,1-1-1Zm-5.109,6.407a3.015,3.015,0,0,0-1.017-.47l-3.185-.8L37.618,33H47v5.057ZM36,34.236V38a1,1,0,0,1-1,1H29a1,1,0,0,1-1-1V34.236l1.627-3.255c.125.007.247.019.373.019h4c.126,0,.248-.012.373-.019Zm-9.689-1.1-3.186.8a2.993,2.993,0,0,0-1.015.469L17,38.057V33h9.382ZM19,29h6.111A7.011,7.011,0,0,0,27.6,30.567L27.382,31H18.816A2.966,2.966,0,0,0,19,30Zm15,0H30a5.006,5.006,0,0,1-5-5V18.09a3.985,3.985,0,0,1,1.053-2.707,4.505,4.505,0,0,0,4.694,1.444l6.172-1.764A1.656,1.656,0,0,1,39,16.631V24A5.006,5.006,0,0,1,34,29Zm4.889,0H45v1a2.966,2.966,0,0,0,.184,1H36.618l-.217-.433A6.993,6.993,0,0,0,38.889,29ZM41,23V19a2,2,0,0,1,0,4ZM19.19,16.113l3.591-4.489-1.563-1.249-1.327,1.659-.652-.978A1.423,1.423,0,0,1,19,10.265a5.867,5.867,0,0,1,3.262-5.277l.118-.059A18.346,18.346,0,0,1,30.547,3h1.3a18.955,18.955,0,0,1,9.181,2.379A7.736,7.736,0,0,1,45,12.138a3.172,3.172,0,0,1-.259,1.26l-1.774,4.14A3.958,3.958,0,0,0,41,17v-.369a3.631,3.631,0,0,0-4.629-3.491L30.2,14.9a2.532,2.532,0,0,1-2.464-4.225l1.973-1.972L28.293,7.293,26.319,9.266a4.587,4.587,0,0,0-1.2,4.248A5.958,5.958,0,0,0,23.107,17H23a3.956,3.956,0,0,0-2.393.815l-1.015-.338a.866.866,0,0,1-.4-1.363ZM21,21a2,2,0,0,1,2-2v4A2,2,0,0,1,21,21ZM11,28a1,1,0,0,1,1-1h4a1,1,0,0,1,1,1v2a1,1,0,0,1-1,1H12a1,1,0,0,1-1-1ZM3,37V23H5V37Zm4-8H9v1a2.966,2.966,0,0,0,.184,1H7ZM19.362,52.185a4.338,4.338,0,0,1-7.943.416l-.388-.774A19.233,19.233,0,0,1,9.459,39.048L10.8,33H15V50h2V40.515l4.2-3-1.659,5.53a12.862,12.862,0,0,0-.257,6.395l.4,1.877ZM40.191,61H23.809L21.242,49.02a10.853,10.853,0,0,1,.217-5.4L23.8,35.832l2.2-.551V38a3,3,0,0,0,3,3h6a3,3,0,0,0,3-3V35.281l2.205.551,2.336,7.787a10.868,10.868,0,0,1,.218,5.4Zm14.35-21.952a19.23,19.23,0,0,1-1.572,12.778l-.388.775A4.314,4.314,0,0,1,48.7,55a4.358,4.358,0,0,1-4.063-2.816l-.326-.868.4-1.876a12.848,12.848,0,0,0-.256-6.4L42.8,37.513l4.2,3V50h2V33h4.2ZM54.816,31A2.966,2.966,0,0,0,55,30V29h2v2ZM61,37H59V23h2Z" fill="#fff"/>
      </g>
    </g>
  </g>
</svg>
