<svg xmlns="http://www.w3.org/2000/svg" width="184.079" height="184.079" viewBox="0 0 184.079 184.079">
  <g id="Grupo_1101770" data-name="Grupo 1101770" transform="translate(1347 9685)">
    <rect id="Rectángulo_400898" data-name="Rectángulo 400898" width="184.079" height="184.079" rx="92" transform="translate(-1347 -9685)" fill="#59836b"/>
    <g id="pastel" transform="translate(-1313.842 -9659.753)">
      <g id="Grupo_1101755" data-name="Grupo 1101755" transform="translate(38.463 77.312)">
        <g id="Grupo_1101754" data-name="Grupo 1101754">
          <path id="Trazado_877815" data-name="Trazado 877815" d="M171.815,302.506a2.322,2.322,0,0,0-.131-.43,2.27,2.27,0,0,0-.212-.4,2.35,2.35,0,0,0-.287-.35,2.3,2.3,0,0,0-2.5-.5,2.271,2.271,0,0,0-.4.212,2.235,2.235,0,0,0-.635.635,2.27,2.27,0,0,0-.212.4,2.323,2.323,0,0,0-.131.43,2.265,2.265,0,0,0-.046.448,2.305,2.305,0,0,0,.046.451,2.435,2.435,0,0,0,.131.43,2.334,2.334,0,0,0,.212.4,2.2,2.2,0,0,0,.285.35,2.35,2.35,0,0,0,.35.287,2.267,2.267,0,0,0,.4.212,2.323,2.323,0,0,0,.43.131,2.264,2.264,0,0,0,.448.044,2.317,2.317,0,0,0,1.626-.674,2.291,2.291,0,0,0,.5-.745,2.434,2.434,0,0,0,.131-.43,2.3,2.3,0,0,0,.044-.451A2.263,2.263,0,0,0,171.815,302.506Z" transform="translate(-167.26 -300.657)" fill="#fff"/>
        </g>
      </g>
      <g id="Grupo_1101757" data-name="Grupo 1101757" transform="translate(0 10.614)">
        <g id="Grupo_1101756" data-name="Grupo 1101756">
          <path id="Trazado_877816" data-name="Trazado 877816" d="M115.439,118.872h-4.763V84.194a6.891,6.891,0,0,0-6.884-6.884H99.865V54.628a6.891,6.891,0,0,0-6.884-6.884H85.923V41.067A9.33,9.33,0,0,0,92,27.889L85.685,15.1a2.3,2.3,0,0,0-4.124,0L75.25,27.889a9.33,9.33,0,0,0,6.073,13.178v6.677H61.169V37.859a9.33,9.33,0,0,0,6.073-13.178L60.932,11.9a2.3,2.3,0,0,0-4.124,0L50.5,24.681A9.33,9.33,0,0,0,56.57,37.859v9.885H36.416v-6.67a9.344,9.344,0,0,0,6.073-13.185L36.178,15.1a2.3,2.3,0,0,0-4.124,0L25.743,27.89a9.344,9.344,0,0,0,6.073,13.185v6.67H24.757a6.891,6.891,0,0,0-6.884,6.884V77.311H13.947a6.891,6.891,0,0,0-6.884,6.884v34.678H2.3a2.3,2.3,0,1,0,0,4.6h113.14a2.3,2.3,0,0,0,0-4.6Zm-35.166-83.5a4.735,4.735,0,0,1-.9-5.447l4.248-8.607,4.248,8.607a4.74,4.74,0,0,1-7.6,5.447ZM55.519,32.163a4.736,4.736,0,0,1-.9-5.447l4.248-8.607,4.248,8.607a4.74,4.74,0,0,1-7.6,5.447ZM30.766,35.372a4.735,4.735,0,0,1-.9-5.447l4.248-8.607,4.248,8.607a4.74,4.74,0,0,1-7.6,5.447ZM24.757,52.343H92.982a2.287,2.287,0,0,1,2.284,2.284v7.22a11.125,11.125,0,0,1-3.393.465A10.769,10.769,0,0,1,84.9,59.948a16.037,16.037,0,0,0-19.054,0,11.472,11.472,0,0,1-13.951,0,15.227,15.227,0,0,0-9.527-3.137,15.227,15.227,0,0,0-9.526,3.137,10.767,10.767,0,0,1-6.975,2.364,11.133,11.133,0,0,1-3.392-.465v-7.22h0A2.287,2.287,0,0,1,24.757,52.343Zm81.32,66.529H11.662v-22.1a11.673,11.673,0,0,1,4.676,2.172,15.226,15.226,0,0,0,9.527,3.137,15.227,15.227,0,0,0,9.526-3.137,10.767,10.767,0,0,1,6.975-2.364,10.768,10.768,0,0,1,6.975,2.364,16.035,16.035,0,0,0,19.053,0,11.474,11.474,0,0,1,13.952,0,16.037,16.037,0,0,0,19.054,0,11.677,11.677,0,0,1,4.676-2.172Zm0-26.753a15.521,15.521,0,0,0-7.228,3,11.474,11.474,0,0,1-13.952,0,16.037,16.037,0,0,0-19.054,0,11.472,11.472,0,0,1-13.951,0,15.226,15.226,0,0,0-9.527-3.137,15.227,15.227,0,0,0-9.526,3.137,10.767,10.767,0,0,1-6.975,2.364,10.767,10.767,0,0,1-6.975-2.364,15.519,15.519,0,0,0-7.227-3V84.194a2.287,2.287,0,0,1,2.284-2.284H31.595a2.3,2.3,0,0,0,0-4.6H22.473V66.587a16.827,16.827,0,0,0,3.392.324,15.227,15.227,0,0,0,9.526-3.137,10.767,10.767,0,0,1,6.975-2.364,10.767,10.767,0,0,1,6.975,2.364,16.036,16.036,0,0,0,19.053,0,11.473,11.473,0,0,1,13.952,0,15.228,15.228,0,0,0,9.527,3.137,16.836,16.836,0,0,0,3.393-.324V77.311H49.931a2.3,2.3,0,1,0,0,4.6h53.862a2.287,2.287,0,0,1,2.284,2.284v7.924Z" transform="translate(0 -10.614)" fill="#fff"/>
        </g>
      </g>
      <g id="Grupo_1101759" data-name="Grupo 1101759" transform="translate(17.875 111.31)">
        <g id="Grupo_1101758" data-name="Grupo 1101758">
          <path id="Trazado_877817" data-name="Trazado 877817" d="M82.283,450.349a2.321,2.321,0,0,0-.131-.43,2.267,2.267,0,0,0-.5-.747,2.3,2.3,0,0,0-3.252,0,2.309,2.309,0,0,0-.5.747,2.322,2.322,0,0,0-.131.43,2.335,2.335,0,0,0,0,.9,2.323,2.323,0,0,0,.131.43,2.309,2.309,0,0,0,.5.747,2.318,2.318,0,0,0,1.628.674,2.284,2.284,0,0,0,.448-.046,2.323,2.323,0,0,0,1.175-.628,2.268,2.268,0,0,0,.5-.747,2.322,2.322,0,0,0,.131-.43,2.22,2.22,0,0,0,0-.9Z" transform="translate(-77.73 -448.5)" fill="#fff"/>
        </g>
      </g>
      <g id="Grupo_1101761" data-name="Grupo 1101761" transform="translate(42.588 104.433)">
        <g id="Grupo_1101760" data-name="Grupo 1101760">
          <path id="Trazado_877818" data-name="Trazado 877818" d="M189.755,420.444a2.324,2.324,0,0,0-.131-.43,2.449,2.449,0,0,0-.212-.4,2.475,2.475,0,0,0-.287-.35,2.2,2.2,0,0,0-.35-.285,2.334,2.334,0,0,0-.4-.212,2.435,2.435,0,0,0-.43-.131,2.277,2.277,0,0,0-.9,0,2.323,2.323,0,0,0-.43.131,2.269,2.269,0,0,0-.4.212,2.2,2.2,0,0,0-.35.285,2.311,2.311,0,0,0-.285.35,2.449,2.449,0,0,0-.212.4,2.325,2.325,0,0,0-.131.43,2.221,2.221,0,0,0,0,.9,2.324,2.324,0,0,0,.131.43,2.446,2.446,0,0,0,.212.4,2.308,2.308,0,0,0,.285.35,2.333,2.333,0,0,0,.35.285,2.271,2.271,0,0,0,.4.212,2.325,2.325,0,0,0,.43.131,2.265,2.265,0,0,0,.448.046,2.305,2.305,0,0,0,.451-.046,2.437,2.437,0,0,0,.43-.131,2.333,2.333,0,0,0,.745-.5,2.471,2.471,0,0,0,.287-.35,2.446,2.446,0,0,0,.212-.4,2.323,2.323,0,0,0,.131-.43,2.335,2.335,0,0,0,0-.9Z" transform="translate(-185.2 -418.594)" fill="#fff"/>
        </g>
      </g>
      <g id="Grupo_1101763" data-name="Grupo 1101763" transform="translate(69.176 111.308)">
        <g id="Grupo_1101762" data-name="Grupo 1101762">
          <path id="Trazado_877819" data-name="Trazado 877819" d="M305.373,450.344a2.324,2.324,0,0,0-.131-.43,2.31,2.31,0,0,0-.5-.747,2.334,2.334,0,0,0-.35-.285,2.273,2.273,0,0,0-.4-.212,2.325,2.325,0,0,0-.43-.131,2.276,2.276,0,0,0-.9,0,2.436,2.436,0,0,0-.43.131,2.332,2.332,0,0,0-.745.5,2.609,2.609,0,0,0-.287.35,2.445,2.445,0,0,0-.212.4,2.32,2.32,0,0,0-.131.43,2.334,2.334,0,0,0,0,.9,2.321,2.321,0,0,0,.131.43,2.447,2.447,0,0,0,.212.4,2.474,2.474,0,0,0,.287.35,2.2,2.2,0,0,0,.35.285,2.333,2.333,0,0,0,.4.212,2.434,2.434,0,0,0,.43.131,2.287,2.287,0,0,0,2.362-.977,2.445,2.445,0,0,0,.212-.4,2.325,2.325,0,0,0,.131-.43,2.22,2.22,0,0,0,0-.9Z" transform="translate(-300.82 -448.494)" fill="#fff"/>
        </g>
      </g>
      <g id="Grupo_1101765" data-name="Grupo 1101765" transform="translate(95.267 105.807)">
        <g id="Grupo_1101764" data-name="Grupo 1101764">
          <path id="Trazado_877820" data-name="Trazado 877820" d="M418.833,426.421a2.32,2.32,0,0,0-.131-.43,2.355,2.355,0,0,0-.212-.4,2.3,2.3,0,0,0-3.539-.35,2.455,2.455,0,0,0-.285.35,2.353,2.353,0,0,0-.212.4,2.323,2.323,0,0,0-.131.43,2.262,2.262,0,0,0-.044.448,2.285,2.285,0,0,0,.044.451,2.3,2.3,0,0,0,.343.826,2.476,2.476,0,0,0,.285.352,2.6,2.6,0,0,0,.35.285,2.447,2.447,0,0,0,.4.212,2.321,2.321,0,0,0,.43.131,2.287,2.287,0,0,0,.451.044,2.3,2.3,0,0,0,2.122-1.419,2.376,2.376,0,0,0,.131-.43,2.288,2.288,0,0,0,.046-.451A2.263,2.263,0,0,0,418.833,426.421Z" transform="translate(-414.28 -424.57)" fill="#fff"/>
        </g>
      </g>
      <g id="Grupo_1101767" data-name="Grupo 1101767" transform="translate(72.384 68.219)">
        <g id="Grupo_1101766" data-name="Grupo 1101766">
          <path id="Trazado_877821" data-name="Trazado 877821" d="M319.325,262.964a2.432,2.432,0,0,0-.131-.43,2.291,2.291,0,0,0-.5-.745,2.215,2.215,0,0,0-.35-.287,2.338,2.338,0,0,0-.4-.212,2.436,2.436,0,0,0-.43-.131,2.276,2.276,0,0,0-.9,0,2.325,2.325,0,0,0-.43.131,2.271,2.271,0,0,0-.4.212,2.281,2.281,0,0,0-.635.637,2.332,2.332,0,0,0-.212.4,2.437,2.437,0,0,0-.131.43,2.307,2.307,0,0,0-.046.451,2.267,2.267,0,0,0,.046.448,2.326,2.326,0,0,0,.131.43,2.355,2.355,0,0,0,.212.4,2.234,2.234,0,0,0,.635.635,2.269,2.269,0,0,0,.4.212,2.323,2.323,0,0,0,.43.131,2.267,2.267,0,0,0,.448.046,2.308,2.308,0,0,0,.451-.046,2.434,2.434,0,0,0,.43-.131,2.331,2.331,0,0,0,.4-.212,2.2,2.2,0,0,0,.35-.285,2.268,2.268,0,0,0,.5-.747,2.321,2.321,0,0,0,.131-.43,2.262,2.262,0,0,0,.044-.448A2.3,2.3,0,0,0,319.325,262.964Z" transform="translate(-314.77 -261.114)" fill="#fff"/>
        </g>
      </g>
      <g id="Grupo_1101769" data-name="Grupo 1101769" transform="translate(42.361 65.087)">
        <g id="Grupo_1101768" data-name="Grupo 1101768">
          <path id="Trazado_877822" data-name="Trazado 877822" d="M188.763,249.345a2.324,2.324,0,0,0-.131-.43,2.447,2.447,0,0,0-.212-.4,2.235,2.235,0,0,0-.635-.635,2.447,2.447,0,0,0-.4-.212,2.323,2.323,0,0,0-.43-.131,2.276,2.276,0,0,0-.9,0,2.322,2.322,0,0,0-.43.131,2.283,2.283,0,0,0-1.244,1.244,2.324,2.324,0,0,0-.131.43,2.336,2.336,0,0,0,0,.9,2.324,2.324,0,0,0,.131.43,2.446,2.446,0,0,0,.212.4,2.235,2.235,0,0,0,.635.635,2.444,2.444,0,0,0,.4.212,2.324,2.324,0,0,0,.43.131,2.22,2.22,0,0,0,.9,0,2.324,2.324,0,0,0,.43-.131,2.309,2.309,0,0,0,.747-.5,2.592,2.592,0,0,0,.285-.35,2.445,2.445,0,0,0,.212-.4,2.324,2.324,0,0,0,.131-.43,2.335,2.335,0,0,0,0-.9Z" transform="translate(-184.21 -247.495)" fill="#fff"/>
        </g>
      </g>
    </g>
  </g>
</svg>
