<svg xmlns="http://www.w3.org/2000/svg" width="184.079" height="184.079" viewBox="0 0 184.079 184.079">
  <g id="Grupo_1101772" data-name="Grupo 1101772" transform="translate(2196 9229)">
    <rect id="Rectángulo_400898" data-name="Rectángulo 400898" width="184.079" height="184.079" rx="92" transform="translate(-2196 -9229)" fill="#59836b"/>
    <g id="vapor" transform="translate(-2173.008 -9206.01)">
      <path id="Trazado_877832" data-name="Trazado 877832" d="M117.616,136.261a14.282,14.282,0,0,0-8.914-13.217V107.737a5.348,5.348,0,1,0,0-10.7V95.258h5.348a5.348,5.348,0,1,0,0-10.7H108.7V82.779a5.348,5.348,0,1,0,0-10.7h-.494A26.789,26.789,0,0,0,82.959,54.255H74.83V51.839a7.131,7.131,0,1,0-10.7,0v2.416H56.005a26.79,26.79,0,0,0-25.25,17.83l-.493,0a5.348,5.348,0,1,0,0,10.7v1.783H24.914a5.348,5.348,0,0,0,0,10.7h5.348v1.783a5.348,5.348,0,1,0,0,10.7v15.306a14.282,14.282,0,0,0-8.914,13.217v1.783H16v3.565H122.964v-3.565h-5.348Zm-3.565,0v1.783h-3.565v-1.783a7.139,7.139,0,0,0-7.131-7.131h-1.783a1.783,1.783,0,1,1,0-3.565h1.783a10.708,10.708,0,0,1,10.7,10.7Zm-71.616-10.7h5.655v3.465c0,.034,0,.067,0,.1H46.306a1.783,1.783,0,0,0-1.783,1.783v7.131H32.045v-1.783A3.57,3.57,0,0,1,35.61,132.7h1.783a5.346,5.346,0,0,0,5.042-7.131Zm5.655,7.131h1.386a5.279,5.279,0,0,0,3.708,1.777c.086,0,.172.006.258.006A5.3,5.3,0,0,0,57.13,133c.1-.1.2-.2.291-.3H65.5a5.339,5.339,0,0,0,7.964,0h8.078c.093.1.19.207.291.3a5.3,5.3,0,0,0,3.688,1.479q.129,0,.258-.006a5.279,5.279,0,0,0,3.708-1.777h1.386v5.348H48.089Zm39.22-6.838v3.173a1.855,1.855,0,0,1-1.7,1.881,1.783,1.783,0,0,1-.987-3.321C85.613,127.012,86.5,126.44,87.309,125.857Zm-7.131,3.273H74.83a11.884,11.884,0,0,0-.943-3.565h7.658A5.367,5.367,0,0,0,80.178,129.13Zm-8.914,0a1.783,1.783,0,1,1-3.565,0,21.476,21.476,0,0,1,1.783-4.817A21.483,21.483,0,0,1,71.265,129.131Zm-7.131,0H58.786a5.367,5.367,0,0,0-1.367-3.565h7.658A11.884,11.884,0,0,0,64.134,129.13Zm-9.8-1.54a1.783,1.783,0,0,1-.987,3.321,1.855,1.855,0,0,1-1.7-1.881v-3.173C52.464,126.44,53.351,127.012,54.336,127.589Zm38.321,1.54H90.872c0-.033,0-.066,0-.1v-3.465H96.53a5.346,5.346,0,0,0,5.042,7.131h1.783a3.57,3.57,0,0,1,3.565,3.565v1.783H94.44v-7.131a1.783,1.783,0,0,0-1.783-1.783Zm23.175-39.22a1.785,1.785,0,0,1-1.783,1.783H101.571V88.127H114.05A1.785,1.785,0,0,1,115.833,89.91ZM67.1,49.779a3.565,3.565,0,1,1,4.755,0,1.783,1.783,0,0,0-.595,1.329v3.147H67.7V51.108a1.783,1.783,0,0,0-.594-1.329ZM42.137,62.414A23.067,23.067,0,0,1,56.005,57.82H82.959a23.228,23.228,0,0,1,21.429,14.264l-69.812,0a23.041,23.041,0,0,1,7.561-9.669ZM28.479,77.431a1.785,1.785,0,0,1,1.783-1.783H108.7a1.783,1.783,0,1,1,0,3.565H30.262A1.785,1.785,0,0,1,28.479,77.431ZM23.131,89.91a1.785,1.785,0,0,1,1.783-1.783H37.393v3.565H24.914A1.785,1.785,0,0,1,23.131,89.91Zm10.7,5.348h5.348a1.783,1.783,0,0,0,1.783-1.783V86.344a1.783,1.783,0,0,0-1.783-1.783H33.827V82.779h71.309v1.783H99.788a1.783,1.783,0,0,0-1.783,1.783v7.131a1.783,1.783,0,0,0,1.783,1.783h5.348v1.783H33.827Zm-5.348,7.131a1.785,1.785,0,0,1,1.783-1.783H108.7a1.783,1.783,0,1,1,0,3.565H30.262A1.785,1.785,0,0,1,28.479,102.389ZM33.827,122V107.737h71.309V122H90.875a1.783,1.783,0,0,0-3.043-1.261l-.18.18c-.37.37-.766.728-1.187,1.081H72.344c-.522-1.11-1-2.055-1.276-2.6a1.783,1.783,0,0,0-3.172,0c-.278.542-.754,1.487-1.277,2.6H52.5c-.421-.353-.818-.712-1.188-1.082l-.179-.179A1.783,1.783,0,0,0,48.089,122Zm-8.914,14.262a10.708,10.708,0,0,1,10.7-10.7h1.783a1.783,1.783,0,1,1,0,3.565H35.61a7.139,7.139,0,0,0-7.131,7.131v1.783H24.914Z" transform="translate(-0.002 -18.646)" fill="#fff"/>
      <path id="Trazado_877833" data-name="Trazado 877833" d="M386.449,35.639l-1.369,2.738,3.189,1.594,4.457-8.914-3.189-1.594-1.382,2.763a3.566,3.566,0,0,1,5.353-4.624l2.378-2.657a7.119,7.119,0,0,0-4.754-1.816,3.565,3.565,0,1,1,7.131,0h3.565a7.121,7.121,0,0,0-.224-1.776c.074,0,.149-.007.224-.007a3.563,3.563,0,0,1,2.056,6.475,7.086,7.086,0,0,0-3.839-1.126v3.565a3.565,3.565,0,1,1-1.423,6.832l1.235-2.47-3.189-1.594-5.348,10.7,3.189,1.594,2.516-5.032a7.13,7.13,0,0,0,9.3-9.846A7.123,7.123,0,0,0,399.743,18.1a7.125,7.125,0,0,0-12.116,5.957,7.127,7.127,0,0,0-1.178,11.585Z" transform="translate(-285.996)" fill="#fff"/>
      <path id="Trazado_877834" data-name="Trazado 877834" d="M18.637,30.443a7.132,7.132,0,0,0,9.3,9.846l2.516,5.032,3.189-1.594-5.348-10.7L25.1,34.625l1.235,2.47a3.565,3.565,0,1,1-1.423-6.832V26.7a7.086,7.086,0,0,0-3.839,1.126,3.563,3.563,0,0,1,2.056-6.475c.075,0,.15,0,.224.007a7.121,7.121,0,0,0-.224,1.776h3.565a3.565,3.565,0,1,1,7.131,0,7.119,7.119,0,0,0-4.754,1.816L31.449,27.6A3.566,3.566,0,0,1,36.8,32.228L35.42,29.465l-3.189,1.594,4.457,8.914,3.189-1.594L38.508,35.64A7.127,7.127,0,0,0,37.33,24.055,7.127,7.127,0,0,0,25.214,18.1a7.124,7.124,0,0,0-6.577,12.345Z" transform="translate(0 -0.001)" fill="#fff"/>
    </g>
  </g>
</svg>
