<svg xmlns="http://www.w3.org/2000/svg" xmlns:xlink="http://www.w3.org/1999/xlink" width="184.079" height="184.079" viewBox="0 0 184.079 184.079">
  <defs>
    <clipPath id="clip-path">
      <path id="path1173" d="M0-682.665H136.815V-545.85H0Z" transform="translate(0 682.665)"/>
    </clipPath>
  </defs>
  <g id="Grupo_1101773" data-name="Grupo 1101773" transform="translate(1347 9229)">
    <rect id="Rectángulo_400898" data-name="Rectángulo 400898" width="184.079" height="184.079" rx="92" transform="translate(-1347 -9229)" fill="#59836b"/>
    <g id="g1167" transform="translate(-1323.539 -8522.874)">
      <g id="g1169" transform="translate(0 -682.665)">
        <g id="g1171" clip-path="url(#clip-path)">
          <g id="g1177" transform="translate(0 0)">
            <path id="path1179" d="M-40.23,31.351a68.485,68.485,0,0,1-68.407-68.407,67.919,67.919,0,0,1,20.365-48.7,2,2,0,0,1,2.834.019,2,2,0,0,1-.019,2.834,63.939,63.939,0,0,0-19.172,45.844,64.472,64.472,0,0,0,64.4,64.4,64.472,64.472,0,0,0,64.4-64.4,64.472,64.472,0,0,0-64.4-64.4,63.881,63.881,0,0,0-38.244,12.58,2,2,0,0,1-2.8-.42,2,2,0,0,1,.42-2.8A67.862,67.862,0,0,1-40.23-105.464,68.485,68.485,0,0,1,28.178-37.057,68.485,68.485,0,0,1-40.23,31.351Z" transform="translate(108.637 105.464)" fill="#fff"/>
          </g>
          <g id="g1181" transform="translate(82.408 21.179)">
            <path id="path1183" d="M20.8,56.6a2.005,2.005,0,0,1-1.869-2.727,46.087,46.087,0,0,0,2.74-22.119A45.906,45.906,0,0,0-8.671-6.11,2,2,0,0,1-9.886-8.671,2,2,0,0,1-7.325-9.886,49.892,49.892,0,0,1,25.653,31.267a50.109,50.109,0,0,1-2.981,24.049A2,2,0,0,1,20.8,56.6Z" transform="translate(10.003 10.003)" fill="#fff"/>
          </g>
          <g id="g1185" transform="translate(47.312 18.403)">
            <path id="path1187" d="M-8-21.607a2,2,0,0,1-1.842-1.212,2,2,0,0,1,1.048-2.634A50.246,50.246,0,0,1,18.287-29a2,2,0,0,1,1.691,2.274A2,2,0,0,1,17.7-25.036,46.238,46.238,0,0,0-7.2-21.771,2,2,0,0,1-8-21.607Z" transform="translate(10.003 29.529)" fill="#fff"/>
          </g>
          <g id="g1189" transform="translate(22.68 21.493)">
            <path id="path1191" d="M-268.635-116.406a6.463,6.463,0,0,1-4.333-1.659l-1.029-.924a17.583,17.583,0,0,1-5.4-16.8,24.72,24.72,0,0,0-12.515-5.1c-10.9-1.238-26.157-4.744-36.93-14.417a60.582,60.582,0,0,1-18.2-29.013c-2.511-9.487-1.775-17.937,1.92-22.053s12.018-5.754,21.72-4.276a60.581,60.581,0,0,1,30.8,14.979c6.833,6.135,12.162,14.945,15.839,26.186a2,2,0,0,1-1.282,2.528,2,2,0,0,1-2.528-1.282c-3.456-10.564-8.4-18.79-14.708-24.449-18.46-16.575-41.433-17.049-46.858-11.008s-2.487,28.831,15.973,45.406c9.985,8.965,24.384,12.244,34.7,13.417a28.687,28.687,0,0,1,15.637,6.837,2,2,0,0,1,.6,2.1,13.552,13.552,0,0,0,3.9,13.965l1.03.924a2.494,2.494,0,0,0,3.518-.189,2.5,2.5,0,0,0,.533-.919l2.366-7.365a7.348,7.348,0,0,1,4.076-4.5l6.864-2.972a2.511,2.511,0,0,0,.864-.622,2.474,2.474,0,0,0,.634-1.8,2.474,2.474,0,0,0-.823-1.72l-1.03-.924a13.415,13.415,0,0,0-14.072-2.472,2,2,0,0,1-2.089-.368,28.844,28.844,0,0,1-8.691-14.446,2,2,0,0,1,1.451-2.435,2,2,0,0,1,2.435,1.451,24.882,24.882,0,0,0,6.622,11.636,17.382,17.382,0,0,1,17.022,3.65l1.029.924a6.457,6.457,0,0,1,2.148,4.487,6.457,6.457,0,0,1-1.654,4.692,6.549,6.549,0,0,1-2.253,1.622l-6.864,2.972a3.34,3.34,0,0,0-1.853,2.043l-2.366,7.366a6.452,6.452,0,0,1-1.353,2.355A6.512,6.512,0,0,1-268.635-116.406Z" transform="translate(348.511 211.178)" fill="#fff"/>
          </g>
          <g id="g1193" transform="translate(36.976 29.885)">
            <path id="path1195" d="M-40.93-33.027a6.269,6.269,0,0,1-4.194-1.607A6.238,6.238,0,0,1-47.2-38.969,6.239,6.239,0,0,1-45.6-43.5a6.29,6.29,0,0,1,4.674-2.084,6.269,6.269,0,0,1,4.194,1.607,6.239,6.239,0,0,1,2.075,4.335,6.238,6.238,0,0,1-1.6,4.533A6.29,6.29,0,0,1-40.93-33.027Zm0-8.551a2.246,2.246,0,0,0-1.692.754,2.257,2.257,0,0,0-.578,1.64,2.256,2.256,0,0,0,.75,1.568,2.266,2.266,0,0,0,1.516.581,2.246,2.246,0,0,0,1.692-.754,2.256,2.256,0,0,0,.578-1.639A2.257,2.257,0,0,0-39.411-41,2.266,2.266,0,0,0-40.927-41.578Z" transform="translate(47.208 45.586)" fill="#fff"/>
          </g>
          <g id="g1197" transform="translate(30.12 26.353)">
            <path id="path1199" d="M-155.857,27.01a2,2,0,0,1-1.87-1.284,2,2,0,0,1,1.149-2.591A46.984,46.984,0,0,0-128.161-8.514a2,2,0,0,1,2.453-1.421,2,2,0,0,1,1.421,2.453,51,51,0,0,1-30.849,34.357A2,2,0,0,1-155.857,27.01Z" transform="translate(157.862 10.002)" fill="#fff"/>
          </g>
          <g id="g1201" transform="translate(66.284 26.737)">
            <path id="path1203" d="M12.349,4.122A2,2,0,0,1,11.319.4l5.4-3.229a4.537,4.537,0,0,0,2.017-2.581,5.994,5.994,0,0,0-2.708-6.932L2.546-20.264A7.261,7.261,0,0,0-6.5-18.859a2,2,0,0,1-2.83.152,2,2,0,0,1-.152-2.83A11.283,11.283,0,0,1,4.576-23.72L18.06-15.8A9.991,9.991,0,0,1,22.573-4.246a8.537,8.537,0,0,1-3.8,4.856l-5.4,3.229A2,2,0,0,1,12.349,4.122Z" transform="translate(10 25.26)" fill="#fff"/>
          </g>
          <g id="g1205" transform="translate(24.072 75.98)">
            <path id="path1207" d="M-26.668-134.634a32.151,32.151,0,0,1-13.176-2.837,2,2,0,0,1-1-2.651,2,2,0,0,1,2.651-1A28.1,28.1,0,0,0-25.67-138.66,28.252,28.252,0,0,0-4.638-149.3l-48.518-26.591A28.043,28.043,0,0,0-45.6-146a2,2,0,0,1,.124,2.832,2,2,0,0,1-2.832.124,32.048,32.048,0,0,1-7.719-36.5,2,2,0,0,1,1.19-1.093,2,2,0,0,1,1.609.14L-.71-151.719a2,2,0,0,1,.984,1.283,2,2,0,0,1-.284,1.592,32.254,32.254,0,0,1-25.512,14.188Q-26.095-134.634-26.668-134.634Z" transform="translate(58.719 180.746)" fill="#fff"/>
          </g>
          <g id="g1209" transform="translate(32.081 79.853)">
            <path id="path1211" d="M-99.949-126.508a24.1,24.1,0,0,1-11.544-2.964,23.893,23.893,0,0,1-11.528-14.35,23.769,23.769,0,0,1,.749-15.662,2,2,0,0,1,1.184-1.14,2,2,0,0,1,1.639.129l38.38,21.034a2,2,0,0,1,.992,1.315,2,2,0,0,1-.329,1.614,24.276,24.276,0,0,1-18.67,10.007Q-99.513-126.508-99.949-126.508Zm-19.332-29.324a19.81,19.81,0,0,0,.108,10.886,19.911,19.911,0,0,0,9.606,11.959,20.058,20.058,0,0,0,10.344,2.457A20.251,20.251,0,0,0-85.1-137.1Z" transform="translate(124.001 160.741)" fill="#fff"/>
          </g>
          <g id="g1213" transform="translate(36.545 90.514)">
            <path id="path1215" d="M-7.995-47.206a2,2,0,0,1-1.694-.93A2,2,0,0,1-9.071-50.9L7.19-61.232a2,2,0,0,1,2.766.617,2,2,0,0,1-.617,2.766L-6.922-47.519A2,2,0,0,1-7.995-47.206Z" transform="translate(10.001 61.545)" fill="#fff"/>
          </g>
          <g id="g1217" transform="translate(52.807 90.515)">
            <path id="path1219" d="M-9.93-83.191a2,2,0,0,1-2-1.954l-.484-19.35a2,2,0,0,1,1.953-2.054A2,2,0,0,1-8.41-104.6l.484,19.35a2,2,0,0,1-1.953,2.054Z" transform="translate(12.417 106.549)" fill="#fff"/>
          </g>
          <g id="g1221" transform="translate(68.191 106.266)">
            <path id="path1223" d="M-133.672,2.31a2,2,0,0,1-2-1.925A2,2,0,0,1-133.75-1.7c1.257-.05,2.531-.153,3.787-.305a45.5,45.5,0,0,0,20.349-7.649,2,2,0,0,1,2.785.525,2,2,0,0,1-.525,2.785,50.156,50.156,0,0,1-22.125,8.318c-1.363.166-2.747.278-4.113.332Z" transform="translate(135.674 10.001)" fill="#fff"/>
          </g>
          <g id="g1225" transform="translate(18.221 44.259)">
            <path id="path1227" d="M-31.565-186.872a2,2,0,0,1-1.759-1.04,49.737,49.737,0,0,1-5.783-18,49.768,49.768,0,0,1,5.332-29.234,2,2,0,0,1,2.705-.846,2,2,0,0,1,.846,2.705,45.777,45.777,0,0,0-4.9,26.89,45.746,45.746,0,0,0,5.318,16.552,2,2,0,0,1-.793,2.721A2,2,0,0,1-31.565-186.872Z" transform="translate(39.478 236.217)" fill="#fff"/>
          </g>
        </g>
      </g>
    </g>
  </g>
</svg>
