<svg xmlns="http://www.w3.org/2000/svg" width="89" height="89" viewBox="0 0 89 89">
  <g id="Grupo_1102039" data-name="Grupo 1102039" transform="translate(-282.714 -2555.408)">
    <path id="Trazado_876648" data-name="Trazado 876648" d="M44.5,0A44.5,44.5,0,1,1,0,44.5,44.5,44.5,0,0,1,44.5,0Z" transform="translate(282.714 2555.408)" fill="#fff"/>
    <g id="lavarse-las-manos" transform="translate(295.462 2553.665)">
      <path id="Trazado_879581" data-name="Trazado 879581" d="M85.385,304.57a3.757,3.757,0,0,0-2.853-.809l-9.289,1.225a.445.445,0,0,1-.423-.7l1.281-1.835a.93.93,0,1,0-1.525-1.065l-1.281,1.835a2.305,2.305,0,0,0,2.192,3.606l9.289-1.225a1.882,1.882,0,0,1,.93,3.62L66.16,316.064a15.956,15.956,0,0,1-7.374,1l-1.408-.143a.934.934,0,0,0-.58.132l-10.4,6.371a.93.93,0,1,0,.971,1.586L57.5,318.808l1.1.111a17.829,17.829,0,0,0,8.237-1.121l8.331-3.248,3.061,9.945a.93.93,0,0,0,1.778-.547l-3.1-10.075,7.475-2.914a3.743,3.743,0,0,0,1-6.388Z" transform="translate(-40.251 -249.479)" fill="#30169a"/>
      <path id="Trazado_879582" data-name="Trazado 879582" d="M8.609,233.4l1.408-1.391a.93.93,0,1,0-1.308-1.323L7.3,232.074a11.816,11.816,0,0,0-2.894,4.6l-.627,1.842L.366,241.123A.93.93,0,1,0,1.495,242.6l3.641-2.777a.929.929,0,0,0,.317-.44l.718-2.11A9.952,9.952,0,0,1,8.609,233.4Z" transform="translate(0 -187.657)" fill="#30169a"/>
      <path id="Trazado_879583" data-name="Trazado 879583" d="M449.575,417.667a.93.93,0,0,0-1.772.568l2.535,7.909a.93.93,0,0,0,1.772-.568Z" transform="translate(-392.227 -351.118)" fill="#30169a"/>
      <path id="Trazado_879584" data-name="Trazado 879584" d="M405.326,164.473a18.335,18.335,0,0,0,3.168-5.966l2.52-8.044a.93.93,0,1,0-1.775-.556l-2.52,8.044a16.475,16.475,0,0,1-2.848,5.363l-.593.745a2.621,2.621,0,0,0-.567,1.682h0a11.425,11.425,0,0,0,.311,1.337.929.929,0,0,0,1.151.608l.044-.013a.93.93,0,0,0,.635-1.165l-.274-.9a.748.748,0,0,1,.155-.387Z" transform="translate(-352.765 -116.561)" fill="#30169a"/>
      <path id="Trazado_879585" data-name="Trazado 879585" d="M14.708,146.024a2.983,2.983,0,1,0,2.983-2.983,2.986,2.986,0,0,0-2.983,2.983Zm4.105,0a1.122,1.122,0,1,1-1.123-1.123A1.124,1.124,0,0,1,18.813,146.024Z" transform="translate(-12.884 -111.118)" fill="#30169a"/>
      <path id="Trazado_879586" data-name="Trazado 879586" d="M459.744,211.785a3.454,3.454,0,1,0,3.454,3.454A3.458,3.458,0,0,0,459.744,211.785Zm0,5.047a1.594,1.594,0,1,1,1.594-1.594A1.6,1.6,0,0,1,459.744,216.832Z" transform="translate(-399.7 -171.336)" fill="#30169a"/>
      <path id="Trazado_879587" data-name="Trazado 879587" d="M18.538,36.738a4.095,4.095,0,1,0-4.095-4.095A4.1,4.1,0,0,0,18.538,36.738Zm0-6.329A2.235,2.235,0,1,1,16.3,32.643a2.237,2.237,0,0,1,2.235-2.235Z" transform="translate(-12.652 -10.825)" fill="#30169a"/>
      <path id="Trazado_879588" data-name="Trazado 879588" d="M126.086,34.808l.134-.192h2.8a1.946,1.946,0,0,0,1.824-1.278l1.662-4.578a6.238,6.238,0,0,1,4.337-3.922,1.156,1.156,0,0,1,1.387,1.466l-1.018,3.249a.93.93,0,1,0,1.775.556l1.018-3.249a3.016,3.016,0,0,0-3.618-3.826,8.1,8.1,0,0,0-5.63,5.091L129.1,32.7a.081.081,0,0,1-.075.053h-1.5l.378-.542A3.335,3.335,0,0,0,125.655,27a3.076,3.076,0,0,0-5.126-3.166l-.558.591a3.356,3.356,0,0,0-.945-1.381c-.049-.043-.1-.084-.15-.124a4.056,4.056,0,0,0-6.13-4.218,4.057,4.057,0,0,0-6.6.35l-1.941-1.907A3.335,3.335,0,0,0,98.7,18.491a3.076,3.076,0,0,0-3.974,4.528l.49.648a3.381,3.381,0,0,0-2.114,5.32l1.777,2.425a3.08,3.08,0,0,0-1.832,4.759l.88,1.261-2.83,2.8A.93.93,0,0,0,92.4,41.554l17.67-17.46a1.222,1.222,0,0,1,1.67-.042,1.22,1.22,0,0,1,.068,1.755l-8.166,8.46a.93.93,0,0,0,1.334,1.3l10.731-11.039a1.517,1.517,0,0,1,2.19,2.1L106.883,38.286a.93.93,0,1,0,1.352,1.277l13.646-14.448a1.217,1.217,0,0,1,1.821,1.612l-12.642,15.1a.93.93,0,0,0,1.422,1.2L124.029,29.35a1.481,1.481,0,0,1,1.848-.339,1.478,1.478,0,0,1,.494,2.139L114.148,48.659a.93.93,0,1,0,1.525,1.065l.71-1.017a4.66,4.66,0,0,0,3.451,1.917q.152.009.3.01a4.592,4.592,0,0,0,3.17-1.257,4.64,4.64,0,0,0,1.438-3.872,5.711,5.711,0,0,0,1.342-10.7Zm-25.372-16.2a1.479,1.479,0,0,1,2.191-.132L104.461,20a4.87,4.87,0,0,0-2.435,2l-1.286-1.519A1.481,1.481,0,0,1,100.714,18.607Zm-5.448,17.5-.7-1a1.219,1.219,0,0,1,.237-1.645,1.216,1.216,0,0,1,1.74.23l.488.666Zm3.107-3.07L94.6,27.888a1.517,1.517,0,0,1,2.434-1.811l3.583,4.744ZM101.95,29.5l-3.267-4.326-.166-.22L96.208,21.9A1.217,1.217,0,0,1,98.1,20.371l3.224,3.743c-.013.142-.02.285-.02.43a4.833,4.833,0,0,0,1.828,3.79Zm12.423-6.274-.581.6a3.083,3.083,0,0,0-5.03-1.055l-4.291,4.24a2.983,2.983,0,0,1,1.67-5.45h.01a1.363,1.363,0,0,0,1.319-.966,2.209,2.209,0,0,1,2.1-1.56,2.181,2.181,0,0,1,1.881,1.063,1.373,1.373,0,0,0,2.051.348,2.2,2.2,0,0,1,3.582,1.546c.005.076.005.151,0,.225A3.372,3.372,0,0,0,114.373,23.228Zm9.8,20.492a1.571,1.571,0,0,0-1.032.641,1.546,1.546,0,0,0-.269,1.165,2.807,2.807,0,0,1,.04.47,2.778,2.778,0,0,1-2.959,2.772,2.8,2.8,0,0,1-2.393-1.743L125,36.36a3.85,3.85,0,0,1-.833,7.36Z" transform="translate(-79.553)" fill="#30169a"/>
      <path id="Trazado_879589" data-name="Trazado 879589" d="M402.881,319.02a3.424,3.424,0,0,0-.409-1.621,1.7,1.7,0,0,1-.149-1.223,4.316,4.316,0,0,0-3.91-5.359,4.276,4.276,0,0,0-3.226,1.161,4.312,4.312,0,0,0,.264,6.514,1.676,1.676,0,0,1,.617,1.048c.014.089.032.18.054.272a3.458,3.458,0,0,0,3.09,2.627q.124.009.247.009a3.392,3.392,0,0,0,2.333-.921A3.438,3.438,0,0,0,402.881,319.02Zm-2.359,1.146a1.558,1.558,0,0,1-1.182.417,1.581,1.581,0,0,1-1.41-1.2c-.01-.042-.018-.083-.025-.125a3.531,3.531,0,0,0-1.294-2.215,2.452,2.452,0,0,1,1.528-4.369c.053,0,.105,0,.158,0a2.455,2.455,0,0,1,2.221,3.048h0a3.552,3.552,0,0,0,.316,2.561,1.564,1.564,0,0,1-.313,1.883Z" transform="translate(-344.984 -258.078)" fill="#30169a"/>
    </g>
  </g>
</svg>
