<svg xmlns="http://www.w3.org/2000/svg" width="89" height="89" viewBox="0 0 89 89">
  <g id="Grupo_1102040" data-name="Grupo 1102040" transform="translate(-597.714 -2555.408)">
    <rect id="Rectángulo_400898" data-name="Rectángulo 400898" width="89" height="89" rx="44.5" transform="translate(597.714 2555.408)" fill="#fff"/>
    <g id="_18-Rinse" data-name="18-Rinse" transform="translate(610.714 2567.408)">
      <rect id="Rectángulo_403220" data-name="Rectángulo 403220" width="2" height="7" transform="translate(18 12)" fill="#30169a"/>
      <path id="Trazado_879590" data-name="Trazado 879590" d="M20,11H8a1,1,0,0,1-1-1V8H1V6H8A1,1,0,0,1,9,7V9H19V2H1V0H20a1,1,0,0,1,1,1v9A1,1,0,0,1,20,11Z" fill="#30169a"/>
      <rect id="Rectángulo_403221" data-name="Rectángulo 403221" width="2" height="25" transform="translate(8 12)" fill="#30169a"/>
      <path id="Trazado_879591" data-name="Trazado 879591" d="M27.853,29.989,19.626,28.76A6.78,6.78,0,0,1,14,22.021a2.027,2.027,0,0,1,.705-1.54,1.991,1.991,0,0,1,1.6-.458l18.851,2.886a.985.985,0,0,1,.21.056L43.187,26H63v2H43a.989.989,0,0,1-.361-.068l-7.9-3.063L16,22a4.792,4.792,0,0,0,3.944,4.785l8.206,1.226Z" fill="#30169a"/>
      <path id="Trazado_879592" data-name="Trazado 879592" d="M40.379,52.387l-.756-1.852a16.751,16.751,0,0,0,4.722-2.915l5-4.373A1,1,0,0,1,50,43H63v2H50.376l-4.715,4.126A18.774,18.774,0,0,1,40.379,52.387Z" fill="#30169a"/>
      <path id="Trazado_879593" data-name="Trazado 879593" d="M12.362,64a4.187,4.187,0,0,1-.973-.115l-.3-.073A3.948,3.948,0,0,1,8,60v-.046a4.18,4.18,0,0,1-1.612-.067l-.3-.073A3.948,3.948,0,0,1,3,56a3.891,3.891,0,0,1,1.783-3.253L5.86,52H5.588a3.587,3.587,0,0,1-1.94-6.6L16.4,37.2l12.95-10.957,1.292,1.526-13,11a1.283,1.283,0,0,1-.1.077L4.729,47.077A1.588,1.588,0,0,0,5.587,50a7.2,7.2,0,0,0,3.9-1.146l11.971-7.7a1,1,0,0,1,1.111,1.662L5.9,54.4A1.914,1.914,0,0,0,5,56a1.956,1.956,0,0,0,1.55,1.869l.3.072a2.141,2.141,0,0,0,1.731-.316l.633-.43a4.021,4.021,0,0,1,.567-.448L25.44,46.171a1,1,0,1,1,1.122,1.656L10.5,58.735A1.86,1.86,0,0,0,10,60a1.956,1.956,0,0,0,1.55,1.869l.3.072a2.138,2.138,0,0,0,1.731-.316L29.414,50.189a1,1,0,0,1,1.179,1.617l-9.647,7.1a1.149,1.149,0,0,0-.482,1.325A1.127,1.127,0,0,0,21.535,61a3.415,3.415,0,0,0,2.037-.679L29.4,55.95l1.2,1.6-5.83,4.371A5.424,5.424,0,0,1,21.535,63a3.126,3.126,0,0,1-2.969-2.14,2.943,2.943,0,0,1-.086-.307l-3.742,2.7A4.172,4.172,0,0,1,12.362,64Z" fill="#30169a"/>
      <path id="Trazado_879594" data-name="Trazado 879594" d="M52.829,54h-3.8a13.462,13.462,0,0,1-4.273-.694l-4.073-1.358.632-1.9L45.389,51.4a11.482,11.482,0,0,0,3.641.6h3.8a11.571,11.571,0,0,0,6.907-2.3l.607-.455.95-.949A1,1,0,0,1,62,48h1v2h-.586l-.707.707a1.065,1.065,0,0,1-.107.093l-.663.5A13.6,13.6,0,0,1,52.829,54Z" fill="#30169a"/>
      <path id="Trazado_879595" data-name="Trazado 879595" d="M55.435,27.825l-5-3.429-6.253-4.083A1.869,1.869,0,0,0,43.161,20,2.422,2.422,0,0,0,41,22.612a2.332,2.332,0,0,0,.688,1.662l2.019,2.019-1.414,1.414-2.019-2.019A4.32,4.32,0,0,1,39,22.612,4.408,4.408,0,0,1,43.16,18a3.86,3.86,0,0,1,2.115.639l6.272,4.1,5.018,3.441Z" fill="#30169a"/>
      <path id="Trazado_879596" data-name="Trazado 879596" d="M36.5,39a3.5,3.5,0,0,1-3.445-4.113A4,4,0,0,1,34,27a3.953,3.953,0,0,1,2.651,1.021,3,3,0,0,1,2.457,5.111A3.586,3.586,0,0,1,40,35.5,3.5,3.5,0,0,1,36.5,39Zm-1.942-6.057a1,1,0,0,1,.78,1.626A1.5,1.5,0,1,0,38,35.5a1.555,1.555,0,0,0-1.2-1.52A1,1,0,0,1,37,32a1,1,0,1,0,0-2,.984.984,0,0,0-.338.066,1,1,0,0,1-1.116-.313A1.994,1.994,0,1,0,34,33a2.067,2.067,0,0,0,.372-.039.977.977,0,0,1,.186-.018Z" fill="#30169a"/>
      <path id="Trazado_879597" data-name="Trazado 879597" d="M24,41a4,4,0,0,1,0-8,3.953,3.953,0,0,1,2.651,1.021,3,3,0,1,1,0,5.957A3.954,3.954,0,0,1,24,41Zm0-6a2,2,0,1,0,1.546,3.247,1,1,0,0,1,1.116-.313A.984.984,0,0,0,27,38a1,1,0,1,0,0-2,.984.984,0,0,0-.338.066,1,1,0,0,1-1.116-.313A1.986,1.986,0,0,0,24,35Z" fill="#30169a"/>
      <path id="Trazado_879598" data-name="Trazado 879598" d="M33,60a4,4,0,0,1-.92-7.894A5,5,0,1,1,37,58a4.374,4.374,0,0,1-.531-.033A4.009,4.009,0,0,1,33,60Zm4-10a3,3,0,0,0-3,3,1,1,0,0,1-1,1,2,2,0,1,0,1.91,2.546,1,1,0,0,1,1.245-.686A2.931,2.931,0,0,0,37,56a3,3,0,1,0,0-6Z" fill="#30169a"/>
      <path id="Trazado_879599" data-name="Trazado 879599" d="M5.671,45.5A5,5,0,0,1,10.1,38a5,5,0,0,1,9.228-1.5l-1.73,1A3,3,0,0,0,12,39h0a.354.354,0,0,1,.013.107,1,1,0,0,1-1.254,1.006A2.95,2.95,0,0,0,7,43a3.007,3.007,0,0,0,.4,1.5Z" fill="#30169a"/>
      <path id="Trazado_879600" data-name="Trazado 879600" d="M38.173,15.562C38.1,15.457,36.354,13,32,13s-6.1,2.457-6.173,2.562l-1.659-1.117C24.262,14.305,26.527,11,32,11s7.738,3.305,7.832,3.445Z" fill="#30169a"/>
      <path id="Trazado_879601" data-name="Trazado 879601" d="M36.1,18.436a4.668,4.668,0,0,0-8.2,0l-1.8-.866a6.665,6.665,0,0,1,11.806,0Z" fill="#30169a"/>
      <path id="Trazado_879602" data-name="Trazado 879602" d="M52,63c-5.473,0-7.738-3.3-7.832-3.445l1.659-1.117C45.9,58.543,47.646,61,52,61s6.1-2.457,6.173-2.562l1.659,1.117C59.738,59.7,57.473,63,52,63Z" fill="#30169a"/>
      <path id="Trazado_879603" data-name="Trazado 879603" d="M52,60a6.65,6.65,0,0,1-5.9-3.57l1.8-.866a4.668,4.668,0,0,0,8.2,0l1.8.866A6.65,6.65,0,0,1,52,60Z" fill="#30169a"/>
    </g>
  </g>
</svg>
