<svg xmlns="http://www.w3.org/2000/svg" xmlns:xlink="http://www.w3.org/1999/xlink" width="420" height="218.042" viewBox="0 0 420 218.042">
  <defs>
    <clipPath id="clip-path">
      <rect id="Rectángulo_403118" data-name="Rectángulo 403118" width="96.068" height="184.934" fill="none"/>
    </clipPath>
    <clipPath id="clip-path-2">
      <rect id="Rectángulo_403117" data-name="Rectángulo 403117" width="96.067" height="184.934" fill="none"/>
    </clipPath>
    <clipPath id="clip-path-3">
      <rect id="Rectángulo_403115" data-name="Rectángulo 403115" width="91.514" height="116.16" fill="none"/>
    </clipPath>
    <clipPath id="clip-path-4">
      <rect id="Rectángulo_403116" data-name="Rectángulo 403116" width="72.696" height="54.875" fill="none"/>
    </clipPath>
    <clipPath id="clip-path-5">
      <rect id="Rectángulo_403114" data-name="Rectángulo 403114" width="112.741" height="89.607" fill="none"/>
    </clipPath>
    <clipPath id="clip-path-7">
      <rect id="Rectángulo_403112" data-name="Rectángulo 403112" width="45.923" height="59.669" fill="none"/>
    </clipPath>
    <clipPath id="clip-path-8">
      <rect id="Rectángulo_403121" data-name="Rectángulo 403121" width="104.256" height="70.283" fill="none"/>
    </clipPath>
    <clipPath id="clip-path-9">
      <rect id="Rectángulo_403120" data-name="Rectángulo 403120" width="104.257" height="70.283" fill="none"/>
    </clipPath>
    <clipPath id="clip-path-10">
      <rect id="Rectángulo_403119" data-name="Rectángulo 403119" width="89.334" height="63.583" fill="none"/>
    </clipPath>
  </defs>
  <g id="Grupo_1101738" data-name="Grupo 1101738" transform="translate(-1002.052 -394)">
    <path id="Trazado_877412" data-name="Trazado 877412" d="M420,0H0V218.042H420Z" transform="translate(1002.052 394)" fill="#5357de"/>
    <g id="Grupo_1101581" data-name="Grupo 1101581" transform="translate(1014.052 407.931)">
      <g id="Grupo_1098935" data-name="Grupo 1098935" transform="translate(0 0)">
        <path id="Trazado_873068" data-name="Trazado 873068" d="M81.221,9.6l-2.047.6a.507.507,0,0,0-.008.972l2,.618a10.656,10.656,0,0,1,6.917,6.684l.929,2.674a.507.507,0,0,0,.966-.024l.627-2.141a10.66,10.66,0,0,1,7.236-7.237l2-.585a.508.508,0,0,0,0-.974l-2-.586A10.658,10.658,0,0,1,90.6,2.365l-.586-2a.508.508,0,0,0-.974,0l-.586,2A10.658,10.658,0,0,1,81.221,9.6" transform="translate(124.651 0)" fill="#6063c0"/>
        <path id="Trazado_873069" data-name="Trazado 873069" d="M165.777,148.913l-14.145,4.144a3.507,3.507,0,0,0-.056,6.718l13.8,4.271a73.649,73.649,0,0,1,47.8,46.195l6.423,18.48a3.506,3.506,0,0,0,6.678-.167l4.335-14.8a73.674,73.674,0,0,1,50.012-50.02l13.826-4.04a3.508,3.508,0,0,0,0-6.734l-13.826-4.048A73.663,73.663,0,0,1,230.619,98.9l-4.048-13.826a3.508,3.508,0,0,0-6.734,0L215.789,98.9a73.663,73.663,0,0,1-50.012,50.012" transform="translate(-168.69 2.503) rotate(-16)" fill="#30169a"/>
        <path id="Trazado_873070" data-name="Trazado 873070" d="M11.88,181.589,1.8,184.542a2.5,2.5,0,0,0-.04,4.787l9.836,3.044a52.487,52.487,0,0,1,34.068,32.921l4.577,13.17A2.5,2.5,0,0,0,55,238.345L58.09,227.8a52.5,52.5,0,0,1,35.641-35.647l9.853-2.879a2.5,2.5,0,0,0,0-4.8l-9.853-2.885A52.5,52.5,0,0,1,58.09,145.948l-2.885-9.853a2.5,2.5,0,0,0-4.8,0l-2.885,9.853A52.5,52.5,0,0,1,11.88,181.589" transform="translate(273.054 -137.256) rotate(21)" fill="#30169a"/>
        <path id="Trazado_877801" data-name="Trazado 877801" d="M7.666,164.814l-6.5,1.906a1.613,1.613,0,0,0-.026,3.089l6.347,1.964a33.868,33.868,0,0,1,21.983,21.243l2.954,8.5a1.612,1.612,0,0,0,3.071-.077l1.993-6.805a33.88,33.88,0,0,1,23-23l6.358-1.858a1.613,1.613,0,0,0,0-3.1l-6.358-1.862a33.875,33.875,0,0,1-23-23l-1.862-6.358a1.613,1.613,0,0,0-3.1,0l-1.862,6.358a33.875,33.875,0,0,1-23,23" transform="matrix(0.891, 0.454, -0.454, 0.891, 379.022, -24.415)" fill="#30169a"/>
      </g>
      <g id="Grupo_1101715" data-name="Grupo 1101715" transform="translate(204.781 -8.931) rotate(22)">
        <g id="Grupo_1101730" data-name="Grupo 1101730" clip-path="url(#clip-path)">
          <g id="Grupo_1101729" data-name="Grupo 1101729" transform="translate(0 0)">
            <g id="Grupo_1101728" data-name="Grupo 1101728" clip-path="url(#clip-path-2)">
              <path id="Trazado_877735" data-name="Trazado 877735" d="M36.569,12.4a74.347,74.347,0,0,1-28.48,7.2A40.336,40.336,0,0,1,0,19.525a69.011,69.011,0,0,0,2.289,7.014c2.384,6.968,21.392,46.637,27.431,59.81a7.859,7.859,0,0,0,1.375,2.272,6.644,6.644,0,0,0,2.876,1.5c6.8,2.124,10.89,2.8,17.875,1.042.523-.133,1.078-.256,1.642-.387a4.494,4.494,0,0,0,.6-.095,10.96,10.96,0,0,0,1.54-.473,11.2,11.2,0,0,0,1.5-.578,4.443,4.443,0,0,0,.53-.3c.525-.245,1.039-.491,1.529-.711,6.577-2.939,10.447-6.368,14.476-12.24A6.634,6.634,0,0,0,75,73.423a7.821,7.821,0,0,0-.324-2.636C71.279,56.7,60.623,14.14,58.189,7.188A63.16,63.16,0,0,0,55.519,0C51.09,4.7,38.634,11.429,36.569,12.4" transform="translate(15.435 86.528)" fill="#f3c752"/>
              <path id="Trazado_877736" data-name="Trazado 877736" d="M35.461,178.038h0a3.213,3.213,0,0,1-3.746-2.573L.055,3.8A3.214,3.214,0,1,1,6.376,2.63L38.035,174.292a3.214,3.214,0,0,1-2.573,3.746" transform="translate(16.035 -0.001)" fill="#190e90"/>
              <path id="Trazado_877737" data-name="Trazado 877737" d="M15.815.235c.181.032.36.066.539.1,2.9.578,6.456,1.114,7.688,3.924A39.91,39.91,0,0,1,25.831,9.2a13.072,13.072,0,0,1,.654,4.149c-.115,2.8-1.678,5.39-3.2,7.849a10.364,10.364,0,0,1-2.734,3.282,7.315,7.315,0,0,1-4.719,1.069,42.781,42.781,0,0,1-7.217-1.354c-2.079-.564-4.164-1.185-4.959-3.277C2.47,17.825,1.818,14.6.438,11.556A3.731,3.731,0,0,1,0,10.125C-.069,6.977,5.409,4.056,7.644,2.41A12.1,12.1,0,0,1,11.617.226a9.789,9.789,0,0,1,4.2.009" transform="translate(12.445 92.817)" fill="#91b3fa"/>
              <path id="Trazado_877738" data-name="Trazado 877738" d="M18.3.012c-.163-.12-.946.7-2.122,2.127-.589.715-1.277,1.585-2.036,2.566-.378.492-.774,1.012-1.185,1.551a3.227,3.227,0,0,1-1.332,1.168l0,0a2.783,2.783,0,0,1-.693.167,5.021,5.021,0,0,1-.775.018h0v0c-.668-.03-1.384-.14-2.058-.211L6.159,7.16c-1.221-.156-2.3-.322-3.2-.48C1.158,6.369.078,6.089,0,6.29c-.061.161.949.72,2.761,1.234A31.648,31.648,0,0,0,6,8.237c.616.106,1.268.206,1.943.3s1.363.211,2.152.258V8.8h0a5.838,5.838,0,0,0,.965-.029,3.9,3.9,0,0,0,1-.238v0l0,0a4.25,4.25,0,0,0,1.814-1.581l1.139-1.6c.716-1.014,1.345-1.927,1.855-2.7C17.889,1.106,18.444.121,18.3.012" transform="translate(14.243 96.061)" fill="#4445ea"/>
              <path id="Trazado_877739" data-name="Trazado 877739" d="M4.687,12.611c.381-.115-.231-2.756-1.4-6.072l0,0c-.061-.167-.122-.33-.181-.494s-.12-.326-.181-.492h0C1.677,2.26.443-.152.074.007-.27.158.629,2.686,1.808,5.964l-.005,0v0c.063.163.122.324.183.487s.116.324.175.489v0l.005,0c1.216,3.263,2.161,5.775,2.521,5.668" transform="translate(26.359 104.188)" fill="#4445ea"/>
              <path id="Trazado_877740" data-name="Trazado 877740" d="M16.468.417q.266.067.532.14c2.851.779,6.361,1.562,7.394,4.45a40.265,40.265,0,0,1,1.44,5.05,13.129,13.129,0,0,1,.362,4.185c-.31,2.781-2.05,5.259-3.739,7.607A10.354,10.354,0,0,1,19.5,24.933a7.315,7.315,0,0,1-4.781.736,42.776,42.776,0,0,1-7.106-1.855C5.579,23.106,3.544,22.342,2.9,20.2,1.929,17.034,1.5,13.769.337,10.637A3.717,3.717,0,0,1,0,9.179C.153,6.033,5.82,3.5,8.166,2.018a12.07,12.07,0,0,1,4.115-1.9,9.83,9.83,0,0,1,4.187.3" transform="translate(51.21 98.046)" fill="#91b3fa"/>
              <path id="Trazado_877741" data-name="Trazado 877741" d="M18.69.015c-.154-.133-.99.629-2.265,1.973-.638.673-1.384,1.492-2.21,2.419-.412.464-.843.954-1.293,1.463a3.218,3.218,0,0,1-1.409,1.073l0,0a2.781,2.781,0,0,1-.7.116,5,5,0,0,1-.775-.036h0v0c-.664-.077-1.372-.235-2.038-.356s-1.3-.251-1.909-.369c-1.209-.24-2.274-.482-3.162-.7C1.15,5.16.092,4.805,0,5c-.073.156.9.784,2.668,1.424a31.707,31.707,0,0,0,3.177.937c.607.15,1.25.3,1.918.439s1.345.306,2.129.406v.005a5.93,5.93,0,0,0,.965.039,3.858,3.858,0,0,0,1.014-.168l0-.005a4.249,4.249,0,0,0,1.921-1.451l1.246-1.511c.786-.962,1.476-1.83,2.04-2.564C18.209,1.079,18.83.135,18.69.015" transform="translate(53.044 101.761)" fill="#4445ea"/>
              <path id="Trazado_877742" data-name="Trazado 877742" d="M3.811,12.9c.39-.088-.036-2.765-.974-6.155l.005,0q-.075-.255-.145-.5c-.048-.168-.1-.335-.147-.505h0C1.533,2.364.467-.129.091.005-.261.129.457,2.716,1.4,6.067l-.005,0h0c.048.168.1.335.147.5s.093.331.141.5l.005,0c.983,3.34,1.751,5.913,2.117,5.831" transform="translate(64.987 109.45)" fill="#4445ea"/>
              <path id="Trazado_877743" data-name="Trazado 877743" d="M2.627,4.833c.124-.134.251-.269.376-.4C5.048,2.3,7.408-.416,10.44.053A40.109,40.109,0,0,1,15.565,1.2a13.026,13.026,0,0,1,3.852,1.676c2.3,1.6,3.646,4.309,4.9,6.912a10.379,10.379,0,0,1,1.3,4.069,7.319,7.319,0,0,1-1.631,4.554,42.75,42.75,0,0,1-5.018,5.362c-1.592,1.452-3.234,2.876-5.428,2.423-3.243-.655-6.316-1.837-9.625-2.306a3.733,3.733,0,0,1-1.442-.4C-.213,21.854.263,15.664.077,12.9A12.086,12.086,0,0,1,.367,8.37a9.8,9.8,0,0,1,2.26-3.537" transform="translate(37.334 82.852)" fill="#91b3fa"/>
              <path id="Trazado_877744" data-name="Trazado 877744" d="M4.539,0c-.192.072.079,1.171.654,2.933.287.881.652,1.927,1.073,3.094l.67,1.834a3.226,3.226,0,0,1,.272,1.751l-.005,0a2.7,2.7,0,0,1-.231.673,5.042,5.042,0,0,1-.4.664v0l0,0c-.385.548-.861,1.092-1.286,1.622l-1.234,1.5c-.788.946-1.508,1.769-2.124,2.444C.7,17.875-.117,18.636.014,18.806c.1.14,1.116-.415,2.523-1.667a31.058,31.058,0,0,0,2.337-2.346c.421-.462.854-.958,1.3-1.476s.91-1.037,1.372-1.678l.005,0a5.7,5.7,0,0,0,.494-.829,3.971,3.971,0,0,0,.337-.972l-.007,0a4.212,4.212,0,0,0-.36-2.378c-.254-.632-.5-1.241-.734-1.818-.471-1.15-.9-2.17-1.28-3.016C5.243.934,4.709-.063,4.539,0" transform="translate(40.268 85.694)" fill="#4445ea"/>
              <path id="Trazado_877745" data-name="Trazado 877745" d="M13.109,3.063c.109-.385-2.448-1.286-5.875-2.079l0,0h0L6.722.867,6.208.755l0,.005C2.762.044.064-.209,0,.187c-.059.369,2.559.971,5.956,1.735l0,.005.51.107c.168.039.337.077.507.115l0,0c3.4.727,6.033,1.277,6.135.917" transform="translate(48.382 95.022)" fill="#4445ea"/>
              <path id="Trazado_877746" data-name="Trazado 877746" d="M4.407,2.27c-.122.109-.244.22-.362.331C2.111,4.4-.342,6.477.04,9.192a35.933,35.933,0,0,0,.954,4.593,11.713,11.713,0,0,0,1.451,3.462c1.4,2.074,3.8,3.313,6.114,4.47a9.254,9.254,0,0,0,3.619,1.214,6.548,6.548,0,0,0,4.09-1.4,38.265,38.265,0,0,0,4.853-4.416c1.316-1.4,2.611-2.854,2.233-4.819-.546-2.906-1.563-5.666-1.941-8.63a3.326,3.326,0,0,0-.338-1.291C19.65-.054,14.113.3,11.642.093A10.785,10.785,0,0,0,7.595.3,8.735,8.735,0,0,0,4.407,2.27" transform="translate(50.587 82.053)" fill="#91b3fa"/>
              <path id="Trazado_877747" data-name="Trazado 877747" d="M0,3.816c-.068.168.817.659,2.321,1.352.75.346,1.658.743,2.679,1.177q.774.322,1.617.677a3.809,3.809,0,0,0,2.122.347l0,0a3.461,3.461,0,0,0,.872-.285,5.25,5.25,0,0,0,.747-.433h0l0,0c.578-.4,1.042-.818,1.517-1.2s.919-.77,1.339-1.139a27.945,27.945,0,0,0,2.129-2.056C16.488,1.014,17,.113,16.86.011S16.033.623,14.808,1.7C13.6,2.774,11.781,4.251,9.765,5.774l0-.005v0a4.418,4.418,0,0,1-.6.349,2.4,2.4,0,0,1-.605.2v.005A2.883,2.883,0,0,1,7,6.06L5.365,5.442c-1.039-.389-1.972-.723-2.754-.99C1.042,3.918.065,3.662,0,3.816" transform="translate(53.155 84.812)" fill="#4445ea"/>
              <path id="Trazado_877748" data-name="Trazado 877748" d="M2.567,11.748c.355-.095-.129-2.443-.741-5.492l0,0c-.032-.154-.064-.3-.1-.455s-.059-.3-.09-.457H1.638C1,2.3.524-.053.162,0-.16.046,0,2.463.6,5.552H.592c.032.156.063.308.095.46s.063.306.093.46v0l.005,0c.67,3.071,1.467,5.36,1.782,5.276" transform="translate(61.449 91.942)" fill="#4445ea"/>
              <path id="Trazado_877749" data-name="Trazado 877749" d="M2.426,5.069c.12-.14.24-.276.362-.412C4.761,2.454,7.032-.336,10.076.033A40.431,40.431,0,0,1,15.237,1a13.13,13.13,0,0,1,3.9,1.547c2.349,1.52,3.787,4.187,5.132,6.748a10.365,10.365,0,0,1,1.436,4.022,7.325,7.325,0,0,1-1.481,4.608,42.6,42.6,0,0,1-4.837,5.525c-1.542,1.5-3.137,2.982-5.344,2.6-3.265-.55-6.373-1.628-9.7-1.988A3.732,3.732,0,0,1,2.9,23.716C.152,22.174.422,15.971.144,13.211a12.093,12.093,0,0,1,.14-4.534A9.794,9.794,0,0,1,2.426,5.069" transform="translate(32.15 101.764)" fill="#91b3fa"/>
              <path id="Trazado_877750" data-name="Trazado 877750" d="M3.914,0c-.186.079.118,1.168.752,2.91.317.87.715,1.905,1.175,3.059.233.575.476,1.18.731,1.809A3.232,3.232,0,0,1,6.9,9.522H6.9a2.657,2.657,0,0,1-.21.68,4.75,4.75,0,0,1-.378.677v0l0,0c-.367.561-.826,1.121-1.23,1.664S4.274,13.6,3.9,14.09c-.756.972-1.449,1.818-2.041,2.512C.671,17.994-.121,18.78.015,18.946c.107.136,1.1-.451,2.466-1.75a31.4,31.4,0,0,0,2.26-2.421c.4-.478.822-.987,1.25-1.52s.874-1.066,1.316-1.721l0,0a6.113,6.113,0,0,0,.467-.845,3.909,3.909,0,0,0,.3-.983l-.005,0A4.245,4.245,0,0,0,7.637,7.34L6.843,5.548c-.51-1.132-.976-2.138-1.382-2.971C4.65.91,4.084-.068,3.914,0" transform="translate(35.438 104.684)" fill="#4445ea"/>
              <path id="Trazado_877751" data-name="Trazado 877751" d="M13.2,2.657c.1-.389-2.489-1.205-5.942-1.882l0,0c-.175-.034-.346-.064-.518-.1L6.223.58h0v0C2.755-.018.049-.179,0,.216-.046.589,2.59,1.1,6.01,1.755l0,.005h0c.172.03.342.061.512.09s.338.066.51.1l0-.005c3.428.616,6.072,1.078,6.162.715" transform="translate(43.243 113.859)" fill="#4445ea"/>
              <path id="Trazado_877752" data-name="Trazado 877752" d="M3.467,1.4A1.7,1.7,0,0,0,1.067.213C.173.827-.5,1.926.5,2.863c1.092,1.024,3.266.1,2.971-1.461" transform="translate(50.385 131.618)" fill="#fff"/>
              <path id="Trazado_877753" data-name="Trazado 877753" d="M3.467,1.4A1.7,1.7,0,0,0,1.067.213C.173.827-.5,1.926.5,2.863c1.092,1.024,3.266.1,2.971-1.461" transform="translate(58.531 128.35)" fill="#fff"/>
              <path id="Trazado_877754" data-name="Trazado 877754" d="M3.467,1.4A1.7,1.7,0,0,0,1.067.213C.173.827-.5,1.926.5,2.863c1.092,1.024,3.266.1,2.971-1.461" transform="translate(64.074 151.431)" fill="#fff"/>
              <path id="Trazado_877755" data-name="Trazado 877755" d="M3.467,1.4A1.7,1.7,0,0,0,1.067.213C.173.827-.5,1.926.5,2.863c1.092,1.024,3.266.1,2.971-1.461" transform="translate(74.551 133.058)" fill="#fff"/>
              <path id="Trazado_877756" data-name="Trazado 877756" d="M3.468,1.4A1.7,1.7,0,0,0,1.068.213C.173.827-.5,1.926.5,2.863c1.092,1.024,3.266.1,2.971-1.461" transform="translate(24.828 121.695)" fill="#fff"/>
              <path id="Trazado_877757" data-name="Trazado 877757" d="M3.467,1.4A1.7,1.7,0,0,0,1.067.213C.173.827-.5,1.926.5,2.863c1.092,1.024,3.266.1,2.971-1.461" transform="translate(71.486 167.492)" fill="#fff"/>
              <path id="Trazado_877758" data-name="Trazado 877758" d="M2.254,1.862A1.22,1.22,0,0,0,1.638.039C.869-.1-.031.114,0,1.1a1.29,1.29,0,0,0,2.253.765" transform="translate(63.2 138.481)" fill="#fff"/>
              <path id="Trazado_877759" data-name="Trazado 877759" d="M2.254,1.862A1.22,1.22,0,0,0,1.638.039C.869-.1-.031.113,0,1.1a1.29,1.29,0,0,0,2.253.765" transform="translate(62.076 165.164)" fill="#fff"/>
              <path id="Trazado_877760" data-name="Trazado 877760" d="M2.254,1.862A1.22,1.22,0,0,0,1.638.039C.869-.1-.031.114,0,1.1a1.29,1.29,0,0,0,2.253.765" transform="translate(75.24 155.51)" fill="#fff"/>
              <path id="Trazado_877761" data-name="Trazado 877761" d="M2.254,1.862A1.22,1.22,0,0,0,1.638.039C.869-.1-.031.114,0,1.1a1.29,1.29,0,0,0,2.253.765" transform="translate(84.672 156.067)" fill="#fff"/>
              <path id="Trazado_877762" data-name="Trazado 877762" d="M2.254,1.862A1.22,1.22,0,0,0,1.638.039C.869-.1-.031.113,0,1.1a1.29,1.29,0,0,0,2.253.765" transform="translate(77.235 120.823)" fill="#fff"/>
              <path id="Trazado_877763" data-name="Trazado 877763" d="M2.254,1.862A1.22,1.22,0,0,0,1.638.039C.869-.1-.031.114,0,1.1a1.29,1.29,0,0,0,2.253.765" transform="translate(33.818 131.804)" fill="#fff"/>
              <path id="Trazado_877764" data-name="Trazado 877764" d="M2.254,1.862A1.22,1.22,0,0,0,1.638.039C.869-.1-.031.113,0,1.1a1.29,1.29,0,0,0,2.253.765" transform="translate(68.684 127.226)" fill="#fff"/>
              <path id="Trazado_877765" data-name="Trazado 877765" d="M2.254,1.862A1.22,1.22,0,0,0,1.638.039C.869-.1-.031.114,0,1.1a1.29,1.29,0,0,0,2.253.765" transform="translate(54.426 157.159)" fill="#fff"/>
              <path id="Trazado_877766" data-name="Trazado 877766" d="M2.254,1.862A1.22,1.22,0,0,0,1.638.039C.869-.1-.031.114,0,1.1a1.29,1.29,0,0,0,2.253.765" transform="translate(34.491 143.383)" fill="#fff"/>
              <path id="Trazado_877767" data-name="Trazado 877767" d="M2.254,1.862A1.22,1.22,0,0,0,1.638.039C.869-.1-.031.114,0,1.1a1.29,1.29,0,0,0,2.253.765" transform="translate(52.81 142.077)" fill="#fff"/>
              <path id="Trazado_877768" data-name="Trazado 877768" d="M2.254,1.862A1.22,1.22,0,0,0,1.638.039C.869-.1-.031.113,0,1.1a1.29,1.29,0,0,0,2.253.765" transform="translate(70.444 145.331)" fill="#fff"/>
              <g id="Grupo_1101724" data-name="Grupo 1101724" transform="translate(4.553 68.774)" opacity="0.2">
                <g id="Grupo_1101723" data-name="Grupo 1101723">
                  <g id="Grupo_1101722" data-name="Grupo 1101722" clip-path="url(#clip-path-3)">
                    <path id="Trazado_877769" data-name="Trazado 877769" d="M43.823,15.214A83.7,83.7,0,0,1,9.731,23.633C6.977,23.7,3.109,23.98,0,23.348c.7,3.025,1.968,6.139,2.917,8.914,3.035,8.857,26.838,59.412,34.415,76.191a10.505,10.505,0,0,0,1.708,2.9,8.216,8.216,0,0,0,3.5,1.961c8.227,2.844,13.164,3.793,21.527,1.739.625-.152,1.291-.3,1.966-.449a5.192,5.192,0,0,0,.72-.1,12.411,12.411,0,0,0,1.841-.562,12.345,12.345,0,0,0,1.793-.7,5.1,5.1,0,0,0,.63-.364c.625-.3,1.237-.595,1.823-.861,7.844-3.556,12.417-7.8,17.125-15.119A8.216,8.216,0,0,0,91.5,93.2a10.47,10.47,0,0,0-.451-3.338C86.626,71.989,72.8,17.979,69.709,9.142A85.437,85.437,0,0,0,66.326,0c-5.216,5.836-20.042,14.036-22.5,15.214" transform="translate(0.001 0)" fill="#91b3fa"/>
                  </g>
                </g>
              </g>
              <g id="Grupo_1101727" data-name="Grupo 1101727" transform="translate(0 37.653)" opacity="0.2">
                <g id="Grupo_1101726" data-name="Grupo 1101726">
                  <g id="Grupo_1101725" data-name="Grupo 1101725" clip-path="url(#clip-path-4)">
                    <path id="Trazado_877770" data-name="Trazado 877770" d="M58.9,6.735c4.241,3.27,6.6,8.315,8.426,13.212.763,2.045,1.228,4.224,2.183,6.185a2.3,2.3,0,0,1,2.518.236C77.12,30.6,51.67,44.758,48.377,46.336a83.666,83.666,0,0,1-34.091,8.418c-3.51.081-8.837.528-12.084-1.031-1.728-.831-3.684-5.19-.516-5.354C-1,40.41.194,32.017,2.553,24.078A32.006,32.006,0,0,1,13.575,8.465C20,3.4,27.17-.127,35.472,0,43.681.132,51.983,1.5,58.7,6.586c.066.05.131.1.2.149" transform="translate(-0.001 0)" fill="#91b3fa"/>
                  </g>
                </g>
              </g>
            </g>
          </g>
        </g>
      </g>
      <g id="Grupo_1101716" data-name="Grupo 1101716" transform="translate(35.981 106.511) rotate(-30)">
        <g id="Grupo_1101720" data-name="Grupo 1101720" clip-path="url(#clip-path-5)">
          <g id="Grupo_1101719" data-name="Grupo 1101719" transform="translate(0 0)">
            <g id="Grupo_1101718" data-name="Grupo 1101718" clip-path="url(#clip-path-5)">
              <path id="Trazado_877710" data-name="Trazado 877710" d="M.408,39.494a3.776,3.776,0,0,1,2.773-.672c4.064.125,8.132.543,12.193.315,11.775-.659,22-7.262,30.4-15.129,3.616-3.384,7.111-7.256,11.831-8.748,3.68-1.164,7.523-.711,11.291.352C65.948,5.093,52.534.491,42.254.038,21.4-.883,5.155,15.125.371,34.64a11.482,11.482,0,0,0-.159,5.074,2.071,2.071,0,0,1,.2-.22" transform="translate(0.206 0)" fill="#f49e40"/>
              <path id="Trazado_877711" data-name="Trazado 877711" d="M3.154,1.664a32.91,32.91,0,0,1,8.638,6.452c-.54-2.643-2.926-4.691-5.442-5.835C4.3,1.351,2.093.807,0,0,1.061.535,2.116,1.085,3.154,1.664" transform="translate(91.616 24.846)" fill="#4ca059"/>
              <path id="Trazado_877712" data-name="Trazado 877712" d="M3.042,18.029Q1.737,23.169,0,28.133c3.05-1.212,5.822-3.055,6.314-6.142.167-1.06.026-2.145.132-3.211.246-2.489,1.8-4.65,2.447-7.066A10.273,10.273,0,0,0,3.632.183C3.5.121,3.37.061,3.236,0c2.572,5.8,1.429,11.631-.195,18.029" transform="translate(103.538 38.121)" fill="#4ca059"/>
              <path id="Trazado_877713" data-name="Trazado 877713" d="M1.16,27.978C-.273,29.393-.279,31.8.6,33.608a14.94,14.94,0,0,0,.738,1.328,99.816,99.816,0,0,0,10.306.24c11.775-.659,22-7.264,30.4-15.131,3.614-3.383,7.111-7.254,11.831-8.746,5.957-1.884,12.338.465,18.139,2.781,4.335,1.73,8.674,3.473,12.894,5.455-2.849-1.9-2.992-4.733-5.071-7.232-2.444-2.936-6.18-2.045-9.481-2.593-2.735-.455-3.9-1.658-5.881-3.289C60.972,3.537,54.674.352,50.055.066c-2.106-.13-4.368-.178-6.138.968-1.912,1.24-3,3.73-5.2,4.31-2.7.712-5.053-1.834-7.643-2.879a7.731,7.731,0,0,0-9.828,4.558c-.416,1.257-.519,2.672-1.349,3.7a4.311,4.311,0,0,1-3.851,1.331c-2.151-.243-3.5-1.617-5.661-.683a5.506,5.506,0,0,0-3.191,4.333,10.386,10.386,0,0,0,1.6,6.36,3.006,3.006,0,0,1,.542,1.5,2.113,2.113,0,0,1-.9,1.515c-2.076,1.633-5.392,1.039-7.272,2.9" transform="translate(3.937 3.961)" fill="#4ca059"/>
              <path id="Trazado_877714" data-name="Trazado 877714" d="M16.68,16.612c-3.156,2.92-8.78,4.753-12.566,2.048a10.6,10.6,0,0,1-4.06-7.616A9.055,9.055,0,0,1,4.178,2.327C6.861.477,10.289-.552,13.435.308a9.207,9.207,0,0,1,6.41,7.137,10.268,10.268,0,0,1-3.166,9.167" transform="translate(2.318 26.255)" fill="#a52e28"/>
              <path id="Trazado_877715" data-name="Trazado 877715" d="M.975,7.913A13.2,13.2,0,0,0,2.281,20.3a13.2,13.2,0,0,0,11.147,5.56,13.571,13.571,0,0,0,8.534-3.667c2.679-2.455,3.535-5.965,3.773-9.534a12.043,12.043,0,0,0-1.646-7.317C18.63-3.135,4.692-.963.975,7.913" transform="translate(14.654 19.349)" fill="#e5524a"/>
              <path id="Trazado_877716" data-name="Trazado 877716" d="M13.774.633A10.378,10.378,0,0,0,4.081,2.006a10.378,10.378,0,0,0-4.055,8.91,10.678,10.678,0,0,0,3.121,6.6c2,2.035,4.785,2.609,7.593,2.7a9.476,9.476,0,0,0,5.7-1.5C22.946,14.188,20.85,3.3,13.774.633" transform="translate(17.346 21.793)" fill="#a52e28"/>
              <path id="Trazado_877717" data-name="Trazado 877717" d="M.42,6.8a7.044,7.044,0,0,0,3.83,2.225,6.368,6.368,0,0,0,3.724-.214,5.156,5.156,0,0,0,2.764-2.461,2.646,2.646,0,0,0,.317-1.426,3.115,3.115,0,0,0-.437-1.172A10.309,10.309,0,0,0,8.492,1.12,3.559,3.559,0,0,0,5.9.011,3.413,3.413,0,0,0,4.489.563,16.667,16.667,0,0,0,.923,3.744a3.274,3.274,0,0,0-.9,1.547A2.058,2.058,0,0,0,.42,6.8" transform="translate(22.558 31.217)" fill="#e5524a"/>
              <path id="Trazado_877718" data-name="Trazado 877718" d="M4.268,8.928C2.892,8.1.781,7.4.22,5.8A6.265,6.265,0,0,1,.591,1.685,2.957,2.957,0,0,1,1.064.715,2.239,2.239,0,0,1,2.8,0,4.112,4.112,0,0,1,5.517,1.143a7.449,7.449,0,0,1,1.691,2.47A12.646,12.646,0,0,1,8.25,7.365a2.515,2.515,0,0,1-.268,1.754,1.88,1.88,0,0,1-1.844.633,5.555,5.555,0,0,1-1.87-.825" transform="translate(27.826 23.548)" fill="#e5524a"/>
              <path id="Trazado_877719" data-name="Trazado 877719" d="M7.926,6.081A5.39,5.39,0,0,1,6.484,8.2a18.148,18.148,0,0,1-4.566,3.339,1.355,1.355,0,0,1-.825.211c-.468-.084-.712-.6-.836-1.056A9.35,9.35,0,0,1,1.592,3.457,8.211,8.211,0,0,1,4.166.79C4.962.3,6.79-.572,7.446.542A8.523,8.523,0,0,1,7.894,3.28a6.042,6.042,0,0,1,.032,2.8" transform="translate(19.066 22.878)" fill="#e5524a"/>
              <path id="Trazado_877720" data-name="Trazado 877720" d="M.976,7.913A13.2,13.2,0,0,0,2.28,20.3a13.2,13.2,0,0,0,11.147,5.56,13.572,13.572,0,0,0,8.534-3.667c2.679-2.455,3.535-5.965,3.773-9.534a12.043,12.043,0,0,0-1.646-7.317C18.629-3.135,4.691-.963.976,7.913" transform="translate(82.136 56.403)" fill="#e5524a"/>
              <path id="Trazado_877721" data-name="Trazado 877721" d="M13.774.634A10.373,10.373,0,0,0,4.081,2.007a10.378,10.378,0,0,0-4.055,8.91,10.678,10.678,0,0,0,3.121,6.6c2,2.035,4.785,2.609,7.593,2.7a9.476,9.476,0,0,0,5.7-1.5C22.946,14.189,20.85,3.3,13.774.634" transform="translate(84.826 58.846)" fill="#a52e28"/>
              <path id="Trazado_877722" data-name="Trazado 877722" d="M.42,6.8a7.044,7.044,0,0,0,3.83,2.225,6.368,6.368,0,0,0,3.724-.214,5.156,5.156,0,0,0,2.764-2.461,2.646,2.646,0,0,0,.317-1.426,3.091,3.091,0,0,0-.439-1.172A10.269,10.269,0,0,0,8.492,1.12,3.559,3.559,0,0,0,5.9.011,3.413,3.413,0,0,0,4.489.563,16.667,16.667,0,0,0,.923,3.744a3.26,3.26,0,0,0-.9,1.547A2.058,2.058,0,0,0,.42,6.8" transform="translate(90.039 68.271)" fill="#e5524a"/>
              <path id="Trazado_877723" data-name="Trazado 877723" d="M4.268,8.928C2.891,8.1.78,7.4.219,5.8A6.276,6.276,0,0,1,.591,1.685,2.957,2.957,0,0,1,1.063.715,2.228,2.228,0,0,1,2.8,0,4.112,4.112,0,0,1,5.517,1.143a7.449,7.449,0,0,1,1.691,2.47A12.647,12.647,0,0,1,8.25,7.365a2.515,2.515,0,0,1-.268,1.754,1.879,1.879,0,0,1-1.844.633,5.555,5.555,0,0,1-1.87-.825" transform="translate(95.307 60.602)" fill="#e5524a"/>
              <path id="Trazado_877724" data-name="Trazado 877724" d="M7.926,6.081A5.389,5.389,0,0,1,6.484,8.2a18.119,18.119,0,0,1-4.566,3.339,1.355,1.355,0,0,1-.825.211c-.468-.085-.712-.6-.836-1.056A9.35,9.35,0,0,1,1.592,3.457,8.2,8.2,0,0,1,4.166.79C4.962.3,6.79-.572,7.446.542A8.523,8.523,0,0,1,7.894,3.28a6.041,6.041,0,0,1,.032,2.8" transform="translate(86.547 59.932)" fill="#e5524a"/>
              <path id="Trazado_877725" data-name="Trazado 877725" d="M.847,6.872A11.461,11.461,0,0,0,1.98,17.632a11.464,11.464,0,0,0,9.682,4.83,11.791,11.791,0,0,0,7.412-3.185c2.326-2.132,3.071-5.182,3.277-8.28a10.466,10.466,0,0,0-1.429-6.355C16.18-2.723,4.075-.837.847,6.872" transform="translate(46.305 6.25)" fill="#e5524a"/>
              <path id="Trazado_877726" data-name="Trazado 877726" d="M11.962.55A9.007,9.007,0,0,0,3.544,1.743,9,9,0,0,0,.023,9.481a9.26,9.26,0,0,0,2.709,5.732c1.74,1.767,4.154,2.267,6.6,2.343a8.228,8.228,0,0,0,4.952-1.3c5.65-3.929,3.828-13.385-2.317-15.7" transform="translate(48.644 8.371)" fill="#a52e28"/>
              <path id="Trazado_877727" data-name="Trazado 877727" d="M.365,5.907A6.111,6.111,0,0,0,3.692,7.839a5.549,5.549,0,0,0,3.235-.185,4.477,4.477,0,0,0,2.4-2.138A2.3,2.3,0,0,0,9.6,4.278a2.714,2.714,0,0,0-.379-1.019A8.953,8.953,0,0,0,7.377.973,3.1,3.1,0,0,0,5.126.01,2.954,2.954,0,0,0,3.9.487,14.516,14.516,0,0,0,.8,3.251,2.847,2.847,0,0,0,.02,4.6,1.787,1.787,0,0,0,.365,5.907" transform="translate(53.17 16.558)" fill="#e5524a"/>
              <path id="Trazado_877728" data-name="Trazado 877728" d="M3.707,7.754C2.511,7.039.678,6.426.191,5.034A5.44,5.44,0,0,1,.514,1.463,2.558,2.558,0,0,1,.924.622,1.937,1.937,0,0,1,2.433,0,3.585,3.585,0,0,1,4.792.992,6.479,6.479,0,0,1,6.26,3.137,10.962,10.962,0,0,1,7.165,6.4a2.184,2.184,0,0,1-.233,1.524,1.628,1.628,0,0,1-1.6.548,4.806,4.806,0,0,1-1.624-.715" transform="translate(57.747 9.897)" fill="#e5524a"/>
              <path id="Trazado_877729" data-name="Trazado 877729" d="M6.884,5.281A4.69,4.69,0,0,1,5.632,7.121a15.748,15.748,0,0,1-3.966,2.9A1.166,1.166,0,0,1,.95,10.2C.543,10.13.331,9.683.223,9.286A8.12,8.12,0,0,1,1.383,3,7.129,7.129,0,0,1,3.619.686C4.309.259,5.9-.5,6.466.471a7.455,7.455,0,0,1,.391,2.378,5.271,5.271,0,0,1,.027,2.433" transform="translate(50.138 9.313)" fill="#e5524a"/>
              <path id="Trazado_877730" data-name="Trazado 877730" d="M16.68,16.612c-3.156,2.92-8.78,4.753-12.566,2.048a10.6,10.6,0,0,1-4.06-7.616A9.053,9.053,0,0,1,4.176,2.329C6.861.477,10.289-.552,13.435.308a9.207,9.207,0,0,1,6.41,7.137,10.268,10.268,0,0,1-3.166,9.167" transform="translate(32.006 13.146)" fill="#a52e28"/>
              <path id="Trazado_877731" data-name="Trazado 877731" d="M37.959,57.208Q36.62,56.46,35.28,55.7C22.542,48.488,11.133,41.286,1.593,29.886.4,28.453-.738,26.207.614,24.919a3.768,3.768,0,0,1,2.773-.67c4.066.124,8.132.542,12.193.315,11.775-.659,22-7.264,30.4-15.131C49.6,6.049,53.094,2.179,57.815.686,63.77-1.2,70.153,1.15,75.953,3.469a160.788,160.788,0,0,1,18.817,8.466c3.595,2,7.1,4.349,9.606,7.618,5.471,7.143,4.2,14.156,2.2,22.025a98.759,98.759,0,0,1-11.43,27.906c-4.818,7.8-13.6,5.751-21.372,3.569-12.905-3.619-24.306-9.4-35.821-15.844" transform="translate(0 14.575)" fill="#f3c752"/>
              <path id="Trazado_877732" data-name="Trazado 877732" d="M93.053,10.823a13.866,13.866,0,0,0-2.965-1.978,92.1,92.1,0,0,0-8.682-4.556A45.73,45.73,0,0,0,67.2.163a30.6,30.6,0,0,0-8.909.37,39.433,39.433,0,0,0-9.156,2.994l0,0,0,0C47.909,4.072,46.749,4.68,45.6,5.3s-2.28,1.283-3.41,1.981l0,0,0,0c-5.614,3.47-10.364,7.434-15.29,9.838a33.5,33.5,0,0,1-13.885,3.431A36.489,36.489,0,0,1,3.443,19.54,22.243,22.243,0,0,0,0,18.693a11.272,11.272,0,0,0,3.283,1.415,32.281,32.281,0,0,0,9.741,1.457,33.467,33.467,0,0,0,14.426-3.3c5.134-2.444,9.947-6.418,15.462-9.8l0,.006,0,0c1.113-.687,2.219-1.333,3.343-1.947s2.264-1.2,3.45-1.728l0,0,0-.006a38.629,38.629,0,0,1,8.831-2.933,29.788,29.788,0,0,1,8.534-.429A46.842,46.842,0,0,1,81,5.213c3.8,1.6,6.746,3.146,8.8,4.15a16.177,16.177,0,0,0,3.246,1.46" transform="translate(3.173 23.054)" fill="#f49e40"/>
              <g id="Grupo_1101717" data-name="Grupo 1101717" transform="translate(57.516 27.331)" opacity="0.2">
                <g id="Grupo_1101716-2" data-name="Grupo 1101716">
                  <g id="Grupo_1101715-2" data-name="Grupo 1101715" clip-path="url(#clip-path-7)">
                    <path id="Trazado_877733" data-name="Trazado 877733" d="M45.9,17.391c.531-1.039-7.96-6.134-19.447-12.221l0-.01,0,0L24.689,4.3c-.59-.285-1.182-.561-1.791-.836l0,0,0,.011A42.671,42.671,0,0,0,14.012.546,26.148,26.148,0,0,0,6.419.107,15.521,15.521,0,0,0,1.5,1.327c-1.088.5-1.584.986-1.487,1.248.2.556,2.587-.1,6.492.05a32.231,32.231,0,0,1,6.815,1.019,49.315,49.315,0,0,1,8.151,2.99l-.006.014h0l1.715.791c.564.28,1.127.559,1.7.842l0,0,.006-.014C36.329,14.143,45.4,18.365,45.9,17.391" transform="translate(0 0.001)" fill="#fff"/>
                    <path id="Trazado_877734" data-name="Trazado 877734" d="M.013,23.1c-.087.264.257.677,1.079,1.026a7.806,7.806,0,0,0,3.743.458,12.866,12.866,0,0,0,5.328-1.87,15.356,15.356,0,0,0,2.68-2.068,20.4,20.4,0,0,0,2.336-2.716l.01.006v0c.286-.4.551-.8.807-1.209s.508-.809.744-1.228l0,0-.011-.006a50.334,50.334,0,0,0,2.754-5.915c.722-1.8,1.33-3.42,1.791-4.8C22.2,2.03,22.531.263,21.991.022,21.5-.2,20.411,1.234,18.973,3.753c-.717,1.26-1.524,2.794-2.388,4.526s-1.772,3.621-2.865,5.482l-.013-.006v0c-.214.379-.434.74-.658,1.1s-.465.7-.711,1.048v0l.013.008a20.173,20.173,0,0,1-1.9,2.355A14.326,14.326,0,0,1,8.42,20.061a13.867,13.867,0,0,1-4.05,2.047C1.9,22.855.192,22.54.013,23.1" transform="translate(19.489 35.038)" fill="#fff"/>
                  </g>
                </g>
              </g>
            </g>
          </g>
        </g>
      </g>
      <g id="Grupo_1101717-2" data-name="Grupo 1101717" transform="translate(245.565 88.187) rotate(-17)">
        <g id="Grupo_1101737" data-name="Grupo 1101737" clip-path="url(#clip-path-8)">
          <g id="Grupo_1101736" data-name="Grupo 1101736" transform="translate(0 -0.001)">
            <g id="Grupo_1101735" data-name="Grupo 1101735" clip-path="url(#clip-path-9)">
              <path id="Trazado_877771" data-name="Trazado 877771" d="M92.662,19.582C81.1,9.905,61.157,3.153,46.416.875A76.423,76.423,0,0,0,25.168.622,34.135,34.135,0,0,0,6.374,9.445C3.35,12.3.793,15.871.1,19.97a4.143,4.143,0,0,0,.117,2.3c1.437,3.373,6.252,1.8,7.175,5.953.744,3.35.5,5.5,4.424,6.579,2.163.6,4.475.662,6.54,1.54C24.168,38.815,27.112,47.2,33.42,46.99c2.436-.083,4.605-1.55,6.994-2.03,7.476-1.5,13.637,6.656,21.233,7.326,9.14.8,17.259-8.917,25.928-2.132,2.088,1.634,4.959,3.331,7.18,1.881.723-.471,1.5-1.279,2.284-.922.449.2.659.715,1.013,1.058,1.368,1.32,3.508-.507,4.281-2.243,4.729-10.617-1.852-23.8-9.67-30.346M73.667,29.47C70.3,31.593,66,31.316,62.051,30.818a69.481,69.481,0,0,1-15.334-3.379c-3.858-1.417-8.506-2.866-11.893-5.4q-.453-.338-.873-.7a3.257,3.257,0,0,1-1.035-3.73,4.288,4.288,0,0,1,2.771-1.866c5.165-1.559,10.73-.911,16.015.177A101.068,101.068,0,0,1,64.978,19.6c2.592.916,14.174,6.413,8.689,9.871" transform="translate(0.334 0.001)" fill="#e5524a"/>
              <path id="Trazado_877772" data-name="Trazado 877772" d="M98.385,29.187c-.355-.343-.564-.856-1.014-1.06-.786-.355-1.559.451-2.282.924-2.221,1.448-5.093-.247-7.182-1.883C79.24,20.382,71.121,30.1,61.981,29.3c-7.6-.668-13.757-8.827-21.233-7.324-2.39.481-4.56,1.947-7,2.029-6.307.213-9.251-8.174-15.058-10.646-2.065-.88-4.377-.944-6.54-1.542-3.921-1.083-3.68-3.228-4.424-6.579C6.881,1.418,2.748,2.432.972,0,.861.481.756.97.665,1.482-.15,6.055-.357,11.594.858,16.1,3.2,24.8,11.5,30.461,19.627,34.36c9.094,4.361,18.6,7.047,28.333,9.487,9.27,2.323,19.1,4.383,28.681,3.005,9.135-1.313,15.957-5.994,21.121-13.411,1.2-1.72,2.811-3.2,3.854-4.954-.977,1.022-2.287,1.609-3.231.7" transform="translate(0 22.987)" fill="#f49e40"/>
              <path id="Trazado_877773" data-name="Trazado 877773" d="M3.674,2.762C4.2,1.772,3.638.107,2.408.011S-.192.4.022,1.937c.233,1.678,2.8,2.411,3.652.825" transform="translate(24.647 4.493)" fill="#a52e28"/>
              <path id="Trazado_877774" data-name="Trazado 877774" d="M3.674,2.761C4.2,1.772,3.637.107,2.408.011S-.193.4.023,1.936c.233,1.678,2.8,2.411,3.652.825" transform="translate(42.871 2.24)" fill="#a52e28"/>
              <path id="Trazado_877775" data-name="Trazado 877775" d="M3.674,2.762C4.2,1.771,3.638.107,2.408.011S-.192.4.022,1.937c.233,1.678,2.8,2.411,3.652.825" transform="translate(20.937 22.528)" fill="#a52e28"/>
              <path id="Trazado_877776" data-name="Trazado 877776" d="M3.674,2.762C4.2,1.771,3.638.107,2.408.011S-.192.4.022,1.937c.233,1.678,2.8,2.411,3.652.825" transform="translate(59.91 35.398)" fill="#a52e28"/>
              <path id="Trazado_877777" data-name="Trazado 877777" d="M3.674,2.762C4.2,1.771,3.638.107,2.408.011S-.192.4.022,1.937c.233,1.678,2.8,2.411,3.652.825" transform="translate(76.818 29.401)" fill="#a52e28"/>
              <path id="Trazado_877778" data-name="Trazado 877778" d="M3.674,2.762C4.2,1.771,3.638.107,2.408.011S-.192.4.022,1.937c.233,1.678,2.8,2.411,3.652.825" transform="translate(77.38 15.184)" fill="#a52e28"/>
              <path id="Trazado_877779" data-name="Trazado 877779" d="M3.674,2.762C4.2,1.771,3.637.107,2.407.011S-.193.4.023,1.937c.232,1.678,2.8,2.411,3.652.825" transform="translate(84.928 42.457)" fill="#a52e28"/>
              <path id="Trazado_877780" data-name="Trazado 877780" d="M3.674,2.761C4.2,1.771,3.638.107,2.408.011S-.192.4.022,1.937c.233,1.678,2.8,2.411,3.652.825" transform="translate(60.098 46.554)" fill="#a52e28"/>
              <path id="Trazado_877781" data-name="Trazado 877781" d="M3.674,2.762C4.2,1.771,3.638.107,2.408.011S-.192.4.022,1.937c.233,1.678,2.8,2.411,3.652.825" transform="translate(9.243 19.519)" fill="#a52e28"/>
              <path id="Trazado_877782" data-name="Trazado 877782" d="M3.674,2.762C4.2,1.772,3.638.107,2.408.011S-.192.4.022,1.937c.233,1.678,2.8,2.411,3.652.825" transform="translate(31.332 40.1)" fill="#a52e28"/>
              <path id="Trazado_877783" data-name="Trazado 877783" d="M1.7,2.768A1.378,1.378,0,0,0,2.448.727C1.874.057.928-.394.258.5c-.733.972.2,2.648,1.439,2.273" transform="translate(34.241 8.905)" fill="#a52e28"/>
              <path id="Trazado_877784" data-name="Trazado 877784" d="M1.7,2.768A1.378,1.378,0,0,0,2.448.727C1.874.057.928-.394.258.5c-.733.972.2,2.647,1.439,2.273" transform="translate(26.732 30.578)" fill="#a52e28"/>
              <path id="Trazado_877785" data-name="Trazado 877785" d="M1.7,2.768A1.378,1.378,0,0,0,2.448.727C1.874.057.928-.394.258.5c-.733.972.2,2.648,1.439,2.273" transform="translate(44.418 36.341)" fill="#a52e28"/>
              <path id="Trazado_877786" data-name="Trazado 877786" d="M1.7,2.768A1.378,1.378,0,0,0,2.448.727C1.874.057.928-.394.258.5c-.733.972.2,2.647,1.439,2.273" transform="translate(50.197 31.201)" fill="#a52e28"/>
              <path id="Trazado_877787" data-name="Trazado 877787" d="M1.7,2.768A1.378,1.378,0,0,0,2.448.727C1.874.057.928-.394.258.5c-.733.972.2,2.648,1.438,2.273" transform="translate(65.257 8.437)" fill="#a52e28"/>
              <path id="Trazado_877788" data-name="Trazado 877788" d="M1.7,2.768A1.378,1.378,0,0,0,2.448.727C1.874.057.928-.394.258.5c-.733.972.2,2.647,1.439,2.273" transform="translate(88.779 22.273)" fill="#a52e28"/>
              <path id="Trazado_877789" data-name="Trazado 877789" d="M1.7,2.768A1.378,1.378,0,0,0,2.448.727C1.874.057.928-.394.258.5c-.733.972.2,2.647,1.439,2.273" transform="translate(65.763 15.426)" fill="#a52e28"/>
              <path id="Trazado_877790" data-name="Trazado 877790" d="M1.7,2.768A1.378,1.378,0,0,0,2.448.727C1.874.057.928-.394.258.5c-.733.972.2,2.648,1.438,2.273" transform="translate(71.312 38.145)" fill="#a52e28"/>
              <path id="Trazado_877791" data-name="Trazado 877791" d="M1.7,2.768A1.378,1.378,0,0,0,2.448.727C1.874.057.928-.394.258.5c-.733.972.2,2.648,1.439,2.273" transform="translate(96.474 38.525)" fill="#a52e28"/>
              <path id="Trazado_877792" data-name="Trazado 877792" d="M1.7,2.768A1.378,1.378,0,0,0,2.448.727C1.874.057.928-.394.258.5c-.733.972.2,2.647,1.439,2.273" transform="translate(87.566 31.404)" fill="#a52e28"/>
              <path id="Trazado_877793" data-name="Trazado 877793" d="M1.7,2.768A1.378,1.378,0,0,0,2.448.727C1.874.057.928-.394.258.5c-.733.972.2,2.648,1.438,2.273" transform="translate(53.186 7.999)" fill="#a52e28"/>
              <path id="Trazado_877794" data-name="Trazado 877794" d="M1.7,2.768A1.378,1.378,0,0,0,2.448.727C1.874.057.928-.394.258.5c-.733.972.2,2.647,1.439,2.273" transform="translate(13.703 29.922)" fill="#a52e28"/>
              <path id="Trazado_877795" data-name="Trazado 877795" d="M1.7,2.768A1.378,1.378,0,0,0,2.448.727C1.874.057.928-.394.258.5c-.733.972.2,2.647,1.439,2.273" transform="translate(11.503 11.34)" fill="#a52e28"/>
              <path id="Trazado_877796" data-name="Trazado 877796" d="M1.7,2.768A1.378,1.378,0,0,0,2.448.727C1.874.057.928-.394.258.5c-.733.972.2,2.648,1.439,2.273" transform="translate(22.72 11.948)" fill="#a52e28"/>
              <path id="Trazado_877797" data-name="Trazado 877797" d="M1.7,2.768A1.378,1.378,0,0,0,2.448.727C1.874.057.928-.394.258.5c-.733.972.2,2.648,1.439,2.273" transform="translate(37.223 25.86)" fill="#a52e28"/>
              <g id="Grupo_1101734" data-name="Grupo 1101734" transform="translate(7.894 2.647)" opacity="0.2">
                <g id="Grupo_1101733" data-name="Grupo 1101733">
                  <g id="Grupo_1101732" data-name="Grupo 1101732" clip-path="url(#clip-path-10)">
                    <path id="Trazado_877798" data-name="Trazado 877798" d="M45.068,3.128c.1-.548-2.292-1.421-6.4-2.169A59.792,59.792,0,0,0,31.326.107a56.629,56.629,0,0,0-9.273.182l0-.013h0c-.67.067-1.326.182-1.985.272s-1.315.193-1.98.337h0l0,.013a34.81,34.81,0,0,0-8.95,3A27.271,27.271,0,0,0,5.64,6.073a16.611,16.611,0,0,0-2.722,2.34,11.333,11.333,0,0,0-2.7,4.43c-.34,1.191-.23,1.892.031,1.961.54.157,1.349-2.191,4.352-4.619A18.37,18.37,0,0,1,7.208,8.4a30.94,30.94,0,0,1,3.259-1.727A37.73,37.73,0,0,1,18.726,4.2l0,.016,0,0c.612-.133,1.219-.244,1.836-.321s1.226-.183,1.855-.246h0l0-.014a72.2,72.2,0,0,1,8.806-.449c2.7,0,5.133.108,7.166.2,4.07.193,6.58.274,6.673-.257" transform="translate(0 0)" fill="#fff"/>
                    <path id="Trazado_877799" data-name="Trazado 877799" d="M40.729,5.616c-.274-.144-.676.268-1.453.551a5.251,5.251,0,0,1-3.442-.006A8.478,8.478,0,0,1,33.6,4.946c-.811-.568-1.672-1.3-2.713-2.066A14.062,14.062,0,0,0,22.493.011V0h0a14.291,14.291,0,0,0-1.943.128A13.472,13.472,0,0,0,18.632.51h0l0,.013a20.593,20.593,0,0,0-4.146,1.784c-1.2.645-2.278,1.241-3.295,1.676A11.717,11.717,0,0,1,5.6,4.895C2.279,4.625.4,3.387.038,3.9c-.15.2.144.747.981,1.446a10.258,10.258,0,0,0,4.2,1.958,12.6,12.6,0,0,0,7.086-.457c2.537-.892,4.837-2.458,7.219-3.087l0,.014h0a10.89,10.89,0,0,1,1.454-.3,11.739,11.739,0,0,1,1.49-.091h0V3.373a11.837,11.837,0,0,1,3.589.549,12.166,12.166,0,0,1,3.07,1.489c1.935,1.26,3.915,2.775,6.153,3.131a5.64,5.64,0,0,0,4.8-1.2c.888-.889.844-1.64.637-1.722" transform="translate(48.481 38.662)" fill="#fff"/>
                    <path id="Trazado_877800" data-name="Trazado 877800" d="M42.385.2c-.266-.546-2.36.1-5.767,1.01a66.383,66.383,0,0,1-13.71,2.2V3.4h0l-1.644.083-1.647-.011h0v.013A66.188,66.188,0,0,1,5.82,1.9C2.378,1.141.255.589.014,1.146c-.2.445,1.653,1.759,5.119,3.095A43.854,43.854,0,0,0,19.582,6.847v.016h1.756l1.752-.078,0,0,0-.014a43.794,43.794,0,0,0,14.319-3.25C40.812,2.032,42.6.636,42.385.2" transform="translate(38.771 56.72)" fill="#fff"/>
                  </g>
                </g>
              </g>
            </g>
          </g>
        </g>
      </g>
    </g>
  </g>
</svg>
