<svg xmlns="http://www.w3.org/2000/svg" width="85" height="85" viewBox="0 0 85 85">
  <g id="Grupo_1101672" data-name="Grupo 1101672" transform="translate(-625 -455)">
    <g id="Grupo_1098742" data-name="Grupo 1098742" transform="translate(625 455)">
      <rect id="Rect치ngulo_400898" data-name="Rect치ngulo 400898" width="85" height="85" rx="42.5" transform="translate(0)" fill="#30169a" opacity="0.859"/>
      <rect id="Rect치ngulo_400907" data-name="Rect치ngulo 400907" width="85" height="85" rx="42.5" transform="translate(0)" fill="none"/>
    </g>
    <g id="Grupo_1101671" data-name="Grupo 1101671" transform="translate(0.515 4.526)">
      <g id="g991" transform="translate(657.999 507.065)">
        <path id="path993" d="M-4.312-5.406A1.23,1.23,0,0,1-5-5.616c-.035-.024-3.546-2.392-7.825-5.49a1.231,1.231,0,0,1-.275-1.719,1.231,1.231,0,0,1,1.719-.275c3.134,2.269,5.848,4.14,7.069,4.975C-3.1-8.956-.4-10.815,2.713-13.07a1.231,1.231,0,0,1,1.719.275,1.231,1.231,0,0,1-.275,1.719C-.1-7.991-3.589-5.64-3.624-5.616A1.23,1.23,0,0,1-4.312-5.406Z" transform="translate(13.334 13.334)" fill="#fff"/>
      </g>
      <g id="g995" transform="translate(641.221 470.474)">
        <path id="path997" d="M-525.109-225.568a1.231,1.231,0,0,1-1.122-.724A17.834,17.834,0,0,1-527.9-234.9c.4-8.393,6.5-14.968,13.877-14.968,5.714,0,10.088,3.389,11.9,5.059,1.862-1.654,6.361-5.059,11.856-5.059,7.38,0,13.476,6.575,13.877,14.968a17.825,17.825,0,0,1-1.669,8.608,1.231,1.231,0,0,1-1.629.614,1.231,1.231,0,0,1-.614-1.629,15.483,15.483,0,0,0,1.453-7.476c-.333-6.961-5.455-12.624-11.418-12.624-6.026,0-10.932,5.108-10.981,5.16a1.233,1.233,0,0,1-.914.385,1.232,1.232,0,0,1-.9-.413c-.044-.05-4.66-5.132-10.956-5.132-5.963,0-11.085,5.663-11.418,12.624a15.491,15.491,0,0,0,1.452,7.477,1.231,1.231,0,0,1-.614,1.629A1.227,1.227,0,0,1-525.109-225.568Z" transform="translate(527.924 249.869)" fill="#fff"/>
      </g>
      <path id="path999" d="M243.748-290.773h15.784a1.231,1.231,0,0,1,1.231,1.231v7.185a1.231,1.231,0,0,1-.361.87,1.231,1.231,0,0,1-.87.361H243.748a1.231,1.231,0,0,1-1.231-1.231v-7.185A1.231,1.231,0,0,1,243.748-290.773Zm14.553,2.462H244.979v4.723H258.3Z" transform="translate(415.359 788.774)" fill="#fff"/>
      <g id="g1001" transform="translate(635.485 498.001)">
        <path id="path1003" d="M-75.747-13.333h2.629A1.231,1.231,0,0,1-71.886-12.1v7.185a1.231,1.231,0,0,1-1.231,1.231h-2.629A4.821,4.821,0,0,1-80.554-8.51,4.821,4.821,0,0,1-75.747-13.333Zm1.4,2.462h-1.4A2.356,2.356,0,0,0-78.092-8.51a2.356,2.356,0,0,0,2.346,2.361h1.4Z" transform="translate(80.554 13.333)" fill="#fff"/>
      </g>
      <g id="g1005" transform="translate(689.844 498.001)">
        <path id="path1007" d="M-40.581-13.333h2.629A4.821,4.821,0,0,1-33.144-8.51a4.821,4.821,0,0,1-4.808,4.823h-2.629a1.231,1.231,0,0,1-1.231-1.231V-12.1A1.231,1.231,0,0,1-40.581-13.333Zm2.629,7.185A2.356,2.356,0,0,0-35.606-8.51a2.356,2.356,0,0,0-2.346-2.361h-1.4v4.723Z" transform="translate(41.812 13.333)" fill="#fff"/>
      </g>
      <g id="g1009" transform="translate(641.692 491.169)">
        <path id="path1011" d="M-51.88-215.83a5.292,5.292,0,0,1-5.277-5.295v-12.72a5.292,5.292,0,0,1,5.277-5.294,5.292,5.292,0,0,1,5.277,5.294v12.72A5.292,5.292,0,0,1-51.88-215.83Zm0-20.848a2.827,2.827,0,0,0-2.815,2.833v12.72a2.827,2.827,0,0,0,2.815,2.833,2.827,2.827,0,0,0,2.815-2.833v-12.72A2.827,2.827,0,0,0-51.88-236.677Z" transform="translate(57.157 239.139)" fill="#fff"/>
      </g>
      <g id="g1013" transform="translate(649.784 489.457)">
        <path id="path1015" d="M-51.88-249.512a5.292,5.292,0,0,1-5.277-5.294v-16.146a5.292,5.292,0,0,1,5.277-5.294,5.292,5.292,0,0,1,5.277,5.294v16.146A5.292,5.292,0,0,1-51.88-249.512Zm0-24.273a2.827,2.827,0,0,0-2.815,2.833v16.146a2.827,2.827,0,0,0,2.815,2.833,2.827,2.827,0,0,0,2.815-2.833v-16.146A2.827,2.827,0,0,0-51.88-273.785Z" transform="translate(57.157 276.247)" fill="#fff"/>
      </g>
      <g id="g1017" transform="translate(681.752 491.169)">
        <path id="path1019" d="M-51.88-13.333A5.292,5.292,0,0,1-46.6-8.039V4.682A5.292,5.292,0,0,1-51.88,9.976a5.292,5.292,0,0,1-5.277-5.295V-8.039A5.292,5.292,0,0,1-51.88-13.333Zm0,20.847a2.827,2.827,0,0,0,2.815-2.833V-8.039a2.827,2.827,0,0,0-2.815-2.833A2.827,2.827,0,0,0-54.7-8.039V4.682A2.827,2.827,0,0,0-51.88,7.514Z" transform="translate(57.157 13.333)" fill="#fff"/>
      </g>
      <g id="g1021" transform="translate(673.66 489.457)">
        <path id="path1023" d="M-51.88-13.333A5.292,5.292,0,0,1-46.6-8.039V8.108A5.292,5.292,0,0,1-51.88,13.4a5.292,5.292,0,0,1-5.277-5.294V-8.039A5.292,5.292,0,0,1-51.88-13.333Zm0,24.273a2.827,2.827,0,0,0,2.815-2.833V-8.039a2.827,2.827,0,0,0-2.815-2.833A2.827,2.827,0,0,0-54.7-8.039V8.108A2.827,2.827,0,0,0-51.88,10.94Z" transform="translate(57.157 13.333)" fill="#fff"/>
      </g>
    </g>
  </g>
</svg>
