<svg xmlns="http://www.w3.org/2000/svg" xmlns:xlink="http://www.w3.org/1999/xlink" width="279.35" height="351.599" viewBox="0 0 279.35 351.599">
  <defs>
    <clipPath id="clip-path">
      <rect id="Rectángulo_401429" data-name="Rectángulo 401429" width="276.35" height="327.599" fill="none"/>
    </clipPath>
  </defs>
  <g id="Grupo_1101877" data-name="Grupo 1101877" transform="translate(-195.65 -840.208)">
    <path id="Unión_65" data-name="Unión 65" d="M0,71.444,79.379,0l.553.614,78.749,70.878-34.117,37.875L79.483,68.791l-45.216,40.7Z" transform="translate(316.319 1073.021)" fill="#95dbb3"/>
    <path id="Unión_66" data-name="Unión 66" d="M0,118.427,131.9,0l.919,1.018L263.681,118.506,206.99,181.288,132.077,114.03,56.942,181.487Z" transform="translate(195.65 840.208)" fill="#95dbb3"/>
    <g id="Grupo_1099662" data-name="Grupo 1099662" transform="translate(-36.631 -1908.619)">
      <g id="Grupo_1099660" data-name="Grupo 1099660" transform="translate(235.281 2772.827)">
        <path id="Trazado_875449" data-name="Trazado 875449" d="M104.662,322.836,91.656,371.115l129.62.379-11.314-48.658Z" transform="translate(-12.585 -44.328)" fill="#162229"/>
        <g id="Grupo_1099657" data-name="Grupo 1099657" transform="translate(0)">
          <g id="Grupo_1099656" data-name="Grupo 1099656" clip-path="url(#clip-path)">
            <path id="Trazado_875450" data-name="Trazado 875450" d="M91.656,371.115l13.006-48.279h105.3l11.315,48.658Z" transform="translate(-12.585 -44.328)" fill="none" stroke="#263238" stroke-miterlimit="10" stroke-width="1"/>
            <path id="Trazado_875451" data-name="Trazado 875451" d="M198.223,359.6a36.946,36.946,0,0,1-4.332,5.252" transform="translate(-26.623 -49.375)" fill="none" stroke="#616161" stroke-miterlimit="10" stroke-width="1"/>
            <path id="Trazado_875452" data-name="Trazado 875452" d="M213.292,335.628s-6.308,9.8-11.666,17.413" transform="translate(-27.685 -46.084)" fill="none" stroke="#616161" stroke-miterlimit="10" stroke-width="1"/>
            <line id="Línea_604" data-name="Línea 604" x1="10.434" y2="15.177" transform="translate(175.805 293.97)" fill="none" stroke="#616161" stroke-miterlimit="10" stroke-width="1"/>
            <line id="Línea_605" data-name="Línea 605" x2="10.7" y2="14.266" transform="translate(104.713 295.83)" fill="none" stroke="#616161" stroke-miterlimit="10" stroke-width="1"/>
            <line id="Línea_606" data-name="Línea 606" x2="2.125" y2="2.833" transform="translate(100.236 289.86)" fill="none" stroke="#616161" stroke-miterlimit="10" stroke-width="1"/>
            <line id="Línea_607" data-name="Línea 607" x2="8.221" y2="7.272" transform="translate(108.773 308.515)" fill="none" stroke="#616161" stroke-miterlimit="10" stroke-width="1"/>
            <path id="Trazado_875453" data-name="Trazado 875453" d="M83.493,197.1l-4.837,52.835L94.722,295.76s8.835-4.049,11.412-16.935a130.075,130.075,0,0,0,2.025-26.691l-6.995-46.2Z" transform="translate(-10.8 -27.063)" fill="#f0956d"/>
            <path id="Trazado_875454" data-name="Trazado 875454" d="M83.493,197.1l-4.837,52.835L94.722,295.76s8.835-4.049,11.412-16.935a130.075,130.075,0,0,0,2.025-26.691l-6.995-46.2Z" transform="translate(-10.8 -27.063)" fill="none" stroke="#263238" stroke-miterlimit="10" stroke-width="1"/>
            <path id="Trazado_875455" data-name="Trazado 875455" d="M84.618,202.3l17.716,19.567-.529-11.105Z" transform="translate(-11.619 -27.777)" fill="#263238"/>
            <path id="Trazado_875456" data-name="Trazado 875456" d="M84.618,202.3l17.716,19.567-.529-11.105Z" transform="translate(-11.619 -27.777)" fill="none" stroke="#263238" stroke-miterlimit="10" stroke-width="1"/>
            <path id="Trazado_875457" data-name="Trazado 875457" d="M243.185,197.1l2.577,34.421L231.956,295.76s-8.835-4.049-11.412-16.935a130.073,130.073,0,0,1-2.025-26.691l6.995-46.2Z" transform="translate(-29.998 -27.063)" fill="#f0956d"/>
            <path id="Trazado_875458" data-name="Trazado 875458" d="M243.185,197.1l2.577,34.421L231.956,295.76s-8.835-4.049-11.412-16.935a130.073,130.073,0,0,1-2.025-26.691l6.995-46.2Z" transform="translate(-29.998 -27.063)" fill="none" stroke="#263238" stroke-miterlimit="10" stroke-width="1"/>
            <path id="Trazado_875459" data-name="Trazado 875459" d="M230.779,215.6l14.543-6.875-.484-11.626L230.515,210.31Z" transform="translate(-31.651 -27.063)" fill="#263238"/>
            <path id="Trazado_875460" data-name="Trazado 875460" d="M230.779,215.6l14.543-6.875-.484-11.626L230.515,210.31Z" transform="translate(-31.651 -27.063)" fill="none" stroke="#263238" stroke-miterlimit="10" stroke-width="1"/>
            <path id="Trazado_875461" data-name="Trazado 875461" d="M99.933,152.743s-11.784,3.928-15.057,8.292-3.273,5.018-3.491,6.983a98.975,98.975,0,0,1-2.906,9.9c-.165.481-2.408-1.243-2.576-.757a35.114,35.114,0,0,0-1.5,11.585l22.694,14.4,10.91,59.789s-10.692,21.6-10.037,24.221,1.09,5.019,1.09,5.019l3.23,5.2h105.3s2.449-6.122,2.041-9.387-6.939-28.978-6.939-30.61,7.347-51.426,7.347-51.426,23.005-17.726,23.156-18.18-2.879-11.82-3.636-11.669a2.14,2.14,0,0,1-1.516-.455s-4.092-13.789-6.971-16.668-37.732-15.76-37.732-15.76l-8.334-3.182-39.728,1.97s-15.484,4.34-18.613,5.153c-4.133,1.072-13.638,4.395-14.093,4.7a17.831,17.831,0,0,1-2.64.887" transform="translate(-10.213 -19.228)" fill="#f0c518"/>
            <path id="Trazado_875462" data-name="Trazado 875462" d="M99.933,152.743s-11.784,3.928-15.057,8.292-3.273,5.018-3.491,6.983a98.975,98.975,0,0,1-2.906,9.9c-.165.481-2.408-1.243-2.576-.757a35.114,35.114,0,0,0-1.5,11.585l22.694,14.4,10.91,59.789s-10.692,21.6-10.037,24.221,1.09,5.019,1.09,5.019l3.23,5.2h105.3s2.449-6.122,2.041-9.387-6.939-28.978-6.939-30.61,7.347-51.426,7.347-51.426,23.005-17.726,23.156-18.18-2.879-11.82-3.636-11.669a2.14,2.14,0,0,1-1.516-.455s-4.092-13.789-6.971-16.668-37.732-15.76-37.732-15.76l-8.334-3.182-39.728,1.97s-15.484,4.34-18.613,5.153c-4.133,1.072-13.638,4.395-14.093,4.7A17.831,17.831,0,0,1,99.933,152.743Z" transform="translate(-10.213 -19.228)" fill="none" stroke="#263238" stroke-miterlimit="10" stroke-width="1"/>
            <path id="Trazado_875463" data-name="Trazado 875463" d="M216.9,235.879s-9.365,16.483-20.6,23.6" transform="translate(-26.952 -32.388)" fill="#92e3a9"/>
            <path id="Trazado_875464" data-name="Trazado 875464" d="M216.9,235.879s-9.365,16.483-20.6,23.6" transform="translate(-26.952 -32.388)" fill="none" stroke="#263238" stroke-miterlimit="10" stroke-width="1"/>
            <path id="Trazado_875465" data-name="Trazado 875465" d="M157.906,168.728a65.6,65.6,0,0,0,9.94.184" transform="translate(-21.682 -23.168)" fill="#92e3a9"/>
            <path id="Trazado_875466" data-name="Trazado 875466" d="M157.906,168.728a65.6,65.6,0,0,0,9.94.184" transform="translate(-21.682 -23.168)" fill="none" stroke="#263238" stroke-miterlimit="10" stroke-width="1"/>
            <path id="Trazado_875467" data-name="Trazado 875467" d="M123.421,153.892s8.084,9.008,24.619,12.079" transform="translate(-16.947 -21.131)" fill="none" stroke="#263238" stroke-miterlimit="10" stroke-width="1"/>
            <path id="Trazado_875468" data-name="Trazado 875468" d="M209.65,152.6s-9.273,6.305-17.434,8.9" transform="translate(-26.393 -20.953)" fill="#92e3a9"/>
            <path id="Trazado_875469" data-name="Trazado 875469" d="M209.65,152.6s-9.273,6.305-17.434,8.9" transform="translate(-26.393 -20.953)" fill="none" stroke="#263238" stroke-miterlimit="10" stroke-width="1"/>
            <line id="Línea_608" data-name="Línea 608" x2="14.699" y2="11.062" transform="translate(68.265 158.691)" fill="none" stroke="#263238" stroke-miterlimit="10" stroke-width="1"/>
            <line id="Línea_609" data-name="Línea 609" x1="10.131" y1="35.382" transform="translate(76.752 148.539)" fill="none" stroke="#263238" stroke-miterlimit="10" stroke-width="1"/>
            <line id="Línea_610" data-name="Línea 610" x2="9.849" y2="15.457" transform="translate(72.054 151.266)" fill="none" stroke="#263238" stroke-miterlimit="10" stroke-width="1"/>
            <path id="Trazado_875470" data-name="Trazado 875470" d="M231.631,211.087l.73-8.027,8.789-25.61" transform="translate(-31.805 -24.365)" fill="none" stroke="#263238" stroke-miterlimit="10" stroke-width="1"/>
            <line id="Línea_611" data-name="Línea 611" y1="20.609" x2="18.033" transform="translate(200.555 158.085)" fill="none" stroke="#263238" stroke-miterlimit="10" stroke-width="1"/>
            <path id="Trazado_875471" data-name="Trazado 875471" d="M235.683,177.274s-2.576,16.062-3.031,21.669" transform="translate(-31.945 -24.341)" fill="none" stroke="#263238" stroke-miterlimit="10" stroke-width="1"/>
            <path id="Trazado_875472" data-name="Trazado 875472" d="M120.119,268.375a161.922,161.922,0,0,0,7.538-18.149" transform="translate(-16.493 -34.358)" fill="none" stroke="#263238" stroke-miterlimit="10" stroke-width="1"/>
            <path id="Trazado_875473" data-name="Trazado 875473" d="M115.415,279.831s.907-1.655,2.267-4.352" transform="translate(-15.847 -37.825)" fill="none" stroke="#263238" stroke-miterlimit="10" stroke-width="1"/>
            <path id="Trazado_875474" data-name="Trazado 875474" d="M217.832,254.92s2.806,14.9,3.681,16.566" transform="translate(-29.91 -35.003)" fill="none" stroke="#263238" stroke-miterlimit="10" stroke-width="1"/>
            <path id="Trazado_875475" data-name="Trazado 875475" d="M198.492,143.628c-9.578-3.407-15.434-5.586-17.971-9.288-3.508-5.119-3.742-14.871-3.742-14.871l-14.731,1.463-14.731-1.463s-.234,9.752-3.741,14.871c-2.667,3.893-9,6.1-19.48,9.824,6.418,3.428,18.269,11.183,35.027,11.163,12.721-.014,27.353-4.479,39.368-11.7" transform="translate(-17.04 -16.404)" fill="#f0956d"/>
            <path id="Trazado_875476" data-name="Trazado 875476" d="M198.492,143.628c-9.578-3.407-15.434-5.586-17.971-9.288-3.508-5.119-3.742-14.871-3.742-14.871l-14.731,1.463-14.731-1.463s-.234,9.752-3.741,14.871c-2.667,3.893-9,6.1-19.48,9.824,6.418,3.428,18.269,11.183,35.027,11.163C171.845,155.314,186.477,150.849,198.492,143.628Z" transform="translate(-17.04 -16.404)" fill="none" stroke="#263238" stroke-miterlimit="10" stroke-width="1"/>
            <path id="Trazado_875477" data-name="Trazado 875477" d="M147.01,133.9l13.009-5.714,2.22-6.436-1.908-1.3-9.867-.98s-.221,9.21-3.453,14.428" transform="translate(-20.186 -16.404)" fill="#263238"/>
            <path id="Trazado_875478" data-name="Trazado 875478" d="M147.01,133.9l13.009-5.714,2.22-6.436-1.908-1.3-9.867-.98S150.243,128.678,147.01,133.9Z" transform="translate(-20.186 -16.404)" fill="none" stroke="#263238" stroke-miterlimit="10" stroke-width="1"/>
            <path id="Trazado_875479" data-name="Trazado 875479" d="M153.825,6.686s-10.632-6.3-13.586-3.741,4.135,4.332,4.135,4.332-8.663,0-9.254,1.575.394,1.969.394,1.969-9.057,2.165-9.452,4.923a4.263,4.263,0,0,0,1.97,4.135s-6.5-1.182-6.891,1.181A6.9,6.9,0,0,0,121.535,25s-5.71.985-5.316,2.757,2.56,2.363,2.56,2.363-10.633,1.969-8.27,5.513,4.135,2.954,4.135,2.954-4.923,3.15-2.363,4.725a4.889,4.889,0,0,0,4.726.394s-2.756,3.937-2.756,4.725-2.56,0-2.954,1.379,1.575,2.756,1.575,2.756h2.56s-6.3,3.741-3.741,6.3a4.656,4.656,0,0,0,5.119,1.379s-3.741,4.726-1.182,4.726,3.347-1.379,3.347-1.379-1.575,4.923-.393,5.907,4.528.788,4.528.788-2.756,2.756-2.756,3.741-2.756,0-2.363,1.969,3.544,1.378,3.544,1.378-.788,2.364,2.166,2.56,4.135-.984,4.135-.984-1.575,3.347.2,4.332,3.347-.984,3.347-.984-.984,2.953,1.378,2.56,2.56-1.182,2.56-1.182-.2,2.757,1.969,2.954,2.953-.788,2.953-.788h45.483s3.346,1.969,4.332.2a4.979,4.979,0,0,0,.788-2.953s2.953,1.378,2.953-.2V81.309s5.119,1.969,6.1-1.97-.788-4.332-.788-4.332,6.891,1.182,7.482-.984a3.606,3.606,0,0,0-.984-3.544s7.088,2.953,7.876.2-3.151-8.072-3.151-8.072,5.513,1.378,5.317-2.166a5.5,5.5,0,0,0-3.347-4.725s4.923-.394,4.923-2.56-3.938-2.56-3.938-2.56.2-3.347-1.379-3.938a8.251,8.251,0,0,0-3.347-.393s4.726-1.97,3.938-4.332a5.455,5.455,0,0,0-2.363-3.15s5.119-.591,4.529-2.954-3.741-2.363-3.741-2.363,3.741-4.134.394-6.891A7.254,7.254,0,0,0,204.624,25s1.378-2.165-.788-3.15l-2.166-.984s3.742-2.363,1.379-5.71a6.743,6.743,0,0,0-5.907-2.953s1.379-2.757-.394-2.954a14.319,14.319,0,0,0-4.134.393s3.741-2.756.2-4.725-10.633,1.379-10.633,1.379-.393-5.12-1.969-4.332a4.793,4.793,0,0,0-2.165,2.363S176.665-.4,174.893.976a9.036,9.036,0,0,0-2.56,3.938s.393-3.544-2.954-3.938-3.741,3.938-3.741,3.938-.984-3.544-2.166-2.56l-1.181.984L161.5,4.914S160.716-.2,157.763.583s-1.182,4.923-1.182,4.923-3.347-2.166-2.756,1.181" transform="translate(-15.127 -0.069)" fill="#263238"/>
            <path id="Trazado_875480" data-name="Trazado 875480" d="M153.825,6.686s-10.632-6.3-13.586-3.741,4.135,4.332,4.135,4.332-8.663,0-9.254,1.575.394,1.969.394,1.969-9.057,2.165-9.452,4.923a4.263,4.263,0,0,0,1.97,4.135s-6.5-1.182-6.891,1.181A6.9,6.9,0,0,0,121.535,25s-5.71.985-5.316,2.757,2.56,2.363,2.56,2.363-10.633,1.969-8.27,5.513,4.135,2.954,4.135,2.954-4.923,3.15-2.363,4.725a4.889,4.889,0,0,0,4.726.394s-2.756,3.937-2.756,4.725-2.56,0-2.954,1.379,1.575,2.756,1.575,2.756h2.56s-6.3,3.741-3.741,6.3a4.656,4.656,0,0,0,5.119,1.379s-3.741,4.726-1.182,4.726,3.347-1.379,3.347-1.379-1.575,4.923-.393,5.907,4.528.788,4.528.788-2.756,2.756-2.756,3.741-2.756,0-2.363,1.969,3.544,1.378,3.544,1.378-.788,2.364,2.166,2.56,4.135-.984,4.135-.984-1.575,3.347.2,4.332,3.347-.984,3.347-.984-.984,2.953,1.378,2.56,2.56-1.182,2.56-1.182-.2,2.757,1.969,2.954,2.953-.788,2.953-.788h45.483s3.346,1.969,4.332.2a4.979,4.979,0,0,0,.788-2.953s2.953,1.378,2.953-.2V81.309s5.119,1.969,6.1-1.97-.788-4.332-.788-4.332,6.891,1.182,7.482-.984a3.606,3.606,0,0,0-.984-3.544s7.088,2.953,7.876.2-3.151-8.072-3.151-8.072,5.513,1.378,5.317-2.166a5.5,5.5,0,0,0-3.347-4.725s4.923-.394,4.923-2.56-3.938-2.56-3.938-2.56.2-3.347-1.379-3.938a8.251,8.251,0,0,0-3.347-.393s4.726-1.97,3.938-4.332a5.455,5.455,0,0,0-2.363-3.15s5.119-.591,4.529-2.954-3.741-2.363-3.741-2.363,3.741-4.134.394-6.891A7.254,7.254,0,0,0,204.624,25s1.378-2.165-.788-3.15l-2.166-.984s3.742-2.363,1.379-5.71a6.743,6.743,0,0,0-5.907-2.953s1.379-2.757-.394-2.954a14.319,14.319,0,0,0-4.134.393s3.741-2.756.2-4.725-10.633,1.379-10.633,1.379-.393-5.12-1.969-4.332a4.793,4.793,0,0,0-2.165,2.363S176.665-.4,174.893.976a9.036,9.036,0,0,0-2.56,3.938s.393-3.544-2.954-3.938-3.741,3.938-3.741,3.938-.984-3.544-2.166-2.56l-1.181.984L161.5,4.914S160.716-.2,157.763.583s-1.182,4.923-1.182,4.923S153.234,3.339,153.825,6.686Z" transform="translate(-15.127 -0.069)" fill="none" stroke="#263238" stroke-miterlimit="10" stroke-width="1"/>
            <path id="Trazado_875481" data-name="Trazado 875481" d="M141.15,81.412a3.056,3.056,0,0,0-4.6.613c-2.144,2.757.3,9.694,2.272,12.648s3.7,4.354,3.548,3.9-1.225-17.155-1.225-17.155" transform="translate(-18.636 -11.069)" fill="#f0956d"/>
            <path id="Trazado_875482" data-name="Trazado 875482" d="M141.15,81.412a3.056,3.056,0,0,0-4.6.613c-2.144,2.757.3,9.694,2.272,12.648s3.7,4.354,3.548,3.9S141.15,81.412,141.15,81.412Z" transform="translate(-18.636 -11.069)" fill="none" stroke="#263238" stroke-miterlimit="10" stroke-width="1"/>
            <path id="Trazado_875483" data-name="Trazado 875483" d="M199.9,81.412a3.056,3.056,0,0,1,4.6.613c2.144,2.757-.3,9.694-2.273,12.648s-3.7,4.354-3.548,3.9S199.9,81.412,199.9,81.412" transform="translate(-27.278 -11.069)" fill="#f0956d"/>
            <path id="Trazado_875484" data-name="Trazado 875484" d="M199.9,81.412a3.056,3.056,0,0,1,4.6.613c2.144,2.757-.3,9.694-2.273,12.648s-3.7,4.354-3.548,3.9S199.9,81.412,199.9,81.412Z" transform="translate(-27.278 -11.069)" fill="none" stroke="#263238" stroke-miterlimit="10" stroke-width="1"/>
            <path id="Trazado_875485" data-name="Trazado 875485" d="M142.061,95.606a10.707,10.707,0,1,0,10.707,10.707,10.707,10.707,0,0,0-10.707-10.707m0,18.99a8.284,8.284,0,1,1,8.284-8.284,8.284,8.284,0,0,1-8.284,8.284" transform="translate(-18.036 -13.127)" fill="#a854f3"/>
            <path id="Trazado_875486" data-name="Trazado 875486" d="M142.061,95.606a10.707,10.707,0,1,0,10.707,10.707A10.707,10.707,0,0,0,142.061,95.606Zm0,18.99a8.284,8.284,0,1,1,8.284-8.284A8.284,8.284,0,0,1,142.061,114.6Z" transform="translate(-18.036 -13.127)" fill="none" stroke="#263238" stroke-miterlimit="10" stroke-width="1"/>
            <path id="Trazado_875487" data-name="Trazado 875487" d="M199.981,95.606a10.707,10.707,0,1,0,10.707,10.707,10.706,10.706,0,0,0-10.707-10.707m0,18.99a8.284,8.284,0,1,1,8.284-8.284,8.284,8.284,0,0,1-8.284,8.284" transform="translate(-25.989 -13.127)" fill="#a854f3"/>
            <path id="Trazado_875488" data-name="Trazado 875488" d="M199.981,95.606a10.707,10.707,0,1,0,10.707,10.707A10.706,10.706,0,0,0,199.981,95.606Zm0,18.99a8.284,8.284,0,1,1,8.284-8.284A8.284,8.284,0,0,1,199.981,114.6Z" transform="translate(-25.989 -13.127)" fill="none" stroke="#263238" stroke-miterlimit="10" stroke-width="1"/>
            <path id="Trazado_875489" data-name="Trazado 875489" d="M140.663,67.208s.446,23.422,1.783,30.783,14.5,25.206,19.853,26.991,9.041-.023,11.5-2.7,14.158-12.692,17.057-25.406,2.455-25.43,1.34-28.107.446-4.238-5.8-10.038-17.621-7.36-26.1-6.022-14.054.223-19.63,14.5" transform="translate(-19.314 -7.176)" fill="#f0956d"/>
            <path id="Trazado_875490" data-name="Trazado 875490" d="M140.663,67.208s.446,23.422,1.783,30.783,14.5,25.206,19.853,26.991,9.041-.023,11.5-2.7,14.158-12.692,17.057-25.406,2.455-25.43,1.34-28.107.446-4.238-5.8-10.038-17.621-7.36-26.1-6.022S146.239,52.932,140.663,67.208Z" transform="translate(-19.314 -7.176)" fill="none" stroke="#263238" stroke-miterlimit="10" stroke-width="1"/>
            <path id="Trazado_875491" data-name="Trazado 875491" d="M152.713,50.275s5.883,6.152,7.647,5.082l1.765-1.07s4.118,5.884,7.059,5.35,3.529-3.745,3.529-3.745,2.648,5.082,4.412,3.745.588-4.28.588-4.28a10.411,10.411,0,0,0,.883-7.49" transform="translate(-20.969 -6.573)" fill="#263238"/>
            <path id="Trazado_875492" data-name="Trazado 875492" d="M152.713,50.275s5.883,6.152,7.647,5.082l1.765-1.07s4.118,5.884,7.059,5.35,3.529-3.745,3.529-3.745,2.648,5.082,4.412,3.745.588-4.28.588-4.28a10.411,10.411,0,0,0,.883-7.49" transform="translate(-20.969 -6.573)" fill="none" stroke="#263238" stroke-miterlimit="10" stroke-width="1"/>
            <path id="Trazado_875493" data-name="Trazado 875493" d="M164.451,100.357s3.346,4.684,8.7.223" transform="translate(-22.58 -13.78)" fill="none" stroke="#263238" stroke-miterlimit="10" stroke-width="1"/>
            <path id="Trazado_875494" data-name="Trazado 875494" d="M158.166,109.407h21.327s-.492,9.377-10.047,10.047c-10.047.7-11.281-10.047-11.281-10.047" transform="translate(-21.718 -15.022)" fill="#263238"/>
            <path id="Trazado_875495" data-name="Trazado 875495" d="M158.166,109.407h21.327s-.492,9.377-10.047,10.047C159.4,120.159,158.166,109.407,158.166,109.407Z" transform="translate(-21.718 -15.022)" fill="none" stroke="#263238" stroke-miterlimit="10" stroke-width="1"/>
            <path id="Trazado_875496" data-name="Trazado 875496" d="M170.065,120.334a10.544,10.544,0,0,0,6.283-2.385,11.831,11.831,0,0,0-13.676.085,9.606,9.606,0,0,0,7.393,2.3" transform="translate(-22.336 -15.902)" fill="#fff"/>
            <path id="Trazado_875497" data-name="Trazado 875497" d="M170.065,120.334a10.544,10.544,0,0,0,6.283-2.385,11.831,11.831,0,0,0-13.676.085A9.606,9.606,0,0,0,170.065,120.334Z" transform="translate(-22.336 -15.902)" fill="none" stroke="#263238" stroke-miterlimit="10" stroke-width="1"/>
            <path id="Trazado_875498" data-name="Trazado 875498" d="M158.839,112.108c3.8,1.217,10.748,2.454,20.1-.022a11.78,11.78,0,0,0,.552-2.679H158.166a14.03,14.03,0,0,0,.673,2.7" transform="translate(-21.718 -15.022)" fill="#fff"/>
            <path id="Trazado_875499" data-name="Trazado 875499" d="M158.839,112.108c3.8,1.217,10.748,2.454,20.1-.022a11.78,11.78,0,0,0,.552-2.679H158.166A14.03,14.03,0,0,0,158.839,112.108Z" transform="translate(-21.718 -15.022)" fill="none" stroke="#263238" stroke-miterlimit="10" stroke-width="1"/>
            <path id="Trazado_875500" data-name="Trazado 875500" d="M158.623,83.144c0,1.791-.853,3.243-1.9,3.243s-1.906-1.452-1.906-3.243.853-3.243,1.906-3.243,1.9,1.452,1.9,3.243" transform="translate(-21.257 -10.971)" fill="#263238"/>
            <path id="Trazado_875501" data-name="Trazado 875501" d="M158.623,83.144c0,1.791-.853,3.243-1.9,3.243s-1.906-1.452-1.906-3.243.853-3.243,1.906-3.243S158.623,81.353,158.623,83.144Z" transform="translate(-21.257 -10.971)" fill="none" stroke="#263238" stroke-miterlimit="10" stroke-width="1"/>
            <path id="Trazado_875502" data-name="Trazado 875502" d="M184.889,83.144c0,1.791-.853,3.243-1.9,3.243s-1.906-1.452-1.906-3.243.853-3.243,1.906-3.243,1.9,1.452,1.9,3.243" transform="translate(-24.864 -10.971)" fill="#263238"/>
            <path id="Trazado_875503" data-name="Trazado 875503" d="M184.889,83.144c0,1.791-.853,3.243-1.9,3.243s-1.906-1.452-1.906-3.243.853-3.243,1.906-3.243S184.889,81.353,184.889,83.144Z" transform="translate(-24.864 -10.971)" fill="none" stroke="#263238" stroke-miterlimit="10" stroke-width="1"/>
            <path id="Trazado_875504" data-name="Trazado 875504" d="M147.385,71.927s6.246-7.138,12.714,0" transform="translate(-20.237 -9.441)" fill="none" stroke="#263238" stroke-linecap="round" stroke-miterlimit="10" stroke-width="3"/>
            <path id="Trazado_875505" data-name="Trazado 875505" d="M179.189,71s8.7-6.246,13.83,1.115" transform="translate(-24.604 -9.41)" fill="none" stroke="#263238" stroke-linecap="round" stroke-miterlimit="10" stroke-width="3"/>
            <path id="Trazado_875506" data-name="Trazado 875506" d="M59.974,189.827a70.252,70.252,0,0,0,.38-14.611c-.619-8.259-2.684-13.643-2.946-17.13s1.216-8.4-1.977-6.681-4.414,5.13-4.167,8.434,1.271,7.1.394,7.724a2.256,2.256,0,0,1-2.95.036c-1.354-.821-11.683-10.568-11.683-10.568L21.643,138.986s-2.414-.188-2.5,1.11S31.528,160.027,31.2,160.6a4.959,4.959,0,0,1-1.569,1.225S8.39,144.41,7.078,144.139a1.711,1.711,0,0,0-1.841,2.538c.845,1.413,17.5,19.177,17.5,19.177s-18.246-11.922-19.6-12.743a1.687,1.687,0,0,0-2.418,2.211C1.59,157.1,22.171,173.1,22.171,173.1s-2.57.192-9.5-1.134-9.723-1.67-9.783,0,1.858,2.63,3.537,2.873,14.8,5.35,19.145,6.686,2.538,1.84,4.709,3.708,5.432,8.276,9.366,12.663a63.97,63.97,0,0,1,6.082,7.584s7.588,48.168,11.86,58.37,17.552,27.295,22.087,26.216,9.155-3.456,9.5-16.034-1.611-21.476-8.315-29.649c-4.162-5.074-19.707-41.967-18.722-42.9Z" transform="translate(-0.069 -19.083)" fill="#f0956d"/>
            <path id="Trazado_875507" data-name="Trazado 875507" d="M59.974,189.827a70.252,70.252,0,0,0,.38-14.611c-.619-8.259-2.684-13.643-2.946-17.13s1.216-8.4-1.977-6.681-4.414,5.13-4.167,8.434,1.271,7.1.394,7.724a2.256,2.256,0,0,1-2.95.036c-1.354-.821-11.683-10.568-11.683-10.568L21.643,138.986s-2.414-.188-2.5,1.11S31.528,160.027,31.2,160.6a4.959,4.959,0,0,1-1.569,1.225S8.39,144.41,7.078,144.139a1.711,1.711,0,0,0-1.841,2.538c.845,1.413,17.5,19.177,17.5,19.177s-18.246-11.922-19.6-12.743a1.687,1.687,0,0,0-2.418,2.211C1.59,157.1,22.171,173.1,22.171,173.1s-2.57.192-9.5-1.134-9.723-1.67-9.783,0,1.858,2.63,3.537,2.873,14.8,5.35,19.145,6.686,2.538,1.84,4.709,3.708,5.432,8.276,9.366,12.663a63.97,63.97,0,0,1,6.082,7.584s7.588,48.168,11.86,58.37,17.552,27.295,22.087,26.216,9.155-3.456,9.5-16.034-1.611-21.476-8.315-29.649c-4.162-5.074-19.707-41.967-18.722-42.9Z" transform="translate(-0.069 -19.083)" fill="none" stroke="#263238" stroke-miterlimit="10" stroke-width="1"/>
            <path id="Trazado_875508" data-name="Trazado 875508" d="M57.031,174.972s-2.6,2.723-2.716,4.978" transform="translate(-7.458 -24.025)" fill="none" stroke="#263238" stroke-miterlimit="10" stroke-width="1"/>
            <path id="Trazado_875509" data-name="Trazado 875509" d="M47.048,190.932s5.231,2.365,7.11,2.912,5.934,2.541,5.785,6.688-2.347,5.46-2.347,5.46" transform="translate(-6.46 -26.217)" fill="none" stroke="#263238" stroke-miterlimit="10" stroke-width="1"/>
            <path id="Trazado_875510" data-name="Trazado 875510" d="M37.46,162.525s-5.437,4.083-8.372,13.952" transform="translate(-3.994 -22.316)" fill="none" stroke="#263238" stroke-miterlimit="10" stroke-width="1"/>
            <path id="Trazado_875511" data-name="Trazado 875511" d="M250.289,187.766a70.336,70.336,0,0,1-1.434-14.546c.022-8.283,1.693-13.8,1.7-17.3s-1.819-8.288,1.491-6.807,4.773,4.8,4.765,8.112-.756,7.177.163,7.731a2.257,2.257,0,0,0,2.946-.176c1.291-.917,10.891-11.384,10.891-11.384l14.04-19.105s2.394-.362,2.574.927-10.916,20.771-10.549,21.325a4.955,4.955,0,0,0,1.654,1.109s19.93-18.906,21.22-19.271a1.71,1.71,0,0,1,2.019,2.4c-.74,1.471-16.069,20.389-16.069,20.389s17.338-13.207,18.63-14.124a1.688,1.688,0,0,1,2.571,2.032c-.741,1.838-20.115,19.273-20.115,19.273s2.578.007,9.393-1.816,9.578-2.367,9.758-.71-1.664,2.757-3.322,3.12S288.241,175.351,284,177s-2.4,2.018-4.428,4.037-4.821,8.647-8.429,13.306a63.931,63.931,0,0,0-5.519,8s-4.094,48.59-7.619,59.073-15.539,28.489-20.139,27.741-9.38-2.787-10.635-15.307.058-21.536,6.155-30.171c3.786-5.362,16.63-43.279,15.58-44.135Z" transform="translate(-31.142 -18.433)" fill="#f0956d"/>
            <path id="Trazado_875512" data-name="Trazado 875512" d="M250.289,187.766a70.336,70.336,0,0,1-1.434-14.546c.022-8.283,1.693-13.8,1.7-17.3s-1.819-8.288,1.491-6.807,4.773,4.8,4.765,8.112-.756,7.177.163,7.731a2.257,2.257,0,0,0,2.946-.176c1.291-.917,10.891-11.384,10.891-11.384l14.04-19.105s2.394-.362,2.574.927-10.916,20.771-10.549,21.325a4.955,4.955,0,0,0,1.654,1.109s19.93-18.906,21.22-19.271a1.71,1.71,0,0,1,2.019,2.4c-.74,1.471-16.069,20.389-16.069,20.389s17.338-13.207,18.63-14.124a1.688,1.688,0,0,1,2.571,2.032c-.741,1.838-20.115,19.273-20.115,19.273s2.578.007,9.393-1.816,9.578-2.367,9.758-.71-1.664,2.757-3.322,3.12S288.241,175.351,284,177s-2.4,2.018-4.428,4.037-4.821,8.647-8.429,13.306a63.931,63.931,0,0,0-5.519,8s-4.094,48.59-7.619,59.073-15.539,28.489-20.139,27.741-9.38-2.787-10.635-15.307.058-21.536,6.155-30.171c3.786-5.362,16.63-43.279,15.58-44.135Z" transform="translate(-31.142 -18.433)" fill="none" stroke="#263238" stroke-miterlimit="10" stroke-width="1"/>
            <path id="Trazado_875513" data-name="Trazado 875513" d="M267.032,191.661c-1.834.682-5.735,2.962-5.288,7.088s2.736,5.276,2.736,5.276" transform="translate(-35.935 -26.317)" fill="none" stroke="#263238" stroke-miterlimit="10" stroke-width="1"/>
            <path id="Trazado_875514" data-name="Trazado 875514" d="M275.326,187.7s-1.606.87-3.336,1.751" transform="translate(-37.347 -25.773)" fill="none" stroke="#263238" stroke-miterlimit="10" stroke-width="1"/>
            <path id="Trazado_875515" data-name="Trazado 875515" d="M282.042,158.771s5.716,3.681,9.356,13.312" transform="translate(-38.727 -21.801)" fill="none" stroke="#263238" stroke-miterlimit="10" stroke-width="1"/>
          </g>
        </g>
        <path id="Trazado_876877" data-name="Trazado 876877" d="M13.535-18.281q.044-6.108,2.2-9.185T23.6-34.541a14.261,14.261,0,0,0,4.636-4.57A11.665,11.665,0,0,0,29.927-45.4a8.472,8.472,0,0,0-1.978-5.889,7.177,7.177,0,0,0-5.625-2.2,7.034,7.034,0,0,0-4.922,1.8,7.146,7.146,0,0,0-2.065,5.361H.879l-.088-.264Q.659-55.723,6.614-60.315t15.71-4.592q10.459,0,16.458,5.273t6,14.238a17.093,17.093,0,0,1-3.274,10.107,23.25,23.25,0,0,1-8.328,7.251,10.085,10.085,0,0,0-3.8,3.977,13.948,13.948,0,0,0-.989,5.779ZM28.345,0H13.579V-11.865H28.345Z" transform="translate(202.075 89.606) rotate(19)" fill="#30169a"/>
      </g>
    </g>
  </g>
</svg>
