<svg xmlns="http://www.w3.org/2000/svg" width="89" height="89" viewBox="0 0 89 89">
  <g id="Grupo_1102041" data-name="Grupo 1102041" transform="translate(-927.714 -2502.408)">
    <rect id="Rectángulo_400898" data-name="Rectángulo 400898" width="89" height="89" rx="44.5" transform="translate(927.714 2502.408)" fill="#fff"/>
    <g id="cocinando_1_" data-name="cocinando (1)" transform="translate(943.714 2517.403)">
      <g id="Grupo_1102042" data-name="Grupo 1102042" transform="translate(9.148 27.453)">
        <g id="Grupo_1102041-2" data-name="Grupo 1102041">
          <path id="Trazado_879604" data-name="Trazado 879604" d="M82.477,216.366l-1.895-2.806c-.01-.016-.024-.038-.043-.064a7.786,7.786,0,0,1-.487-6.428,4.57,4.57,0,0,0-.215-4.04,3.336,3.336,0,0,0-1.443-1.183,3.181,3.181,0,0,0-.383-2.953,3.22,3.22,0,0,0-2.356-1.455,3.489,3.489,0,0,0-.482-1.052,3.192,3.192,0,0,0-2.707-1.458,3.386,3.386,0,0,0-.186-.308,3.033,3.033,0,0,0-3.259-1.365,2.605,2.605,0,0,0-4.34,2.884,3,3,0,0,0-.045,3.641,3.608,3.608,0,0,0,.374.465,3.236,3.236,0,0,0,.483,2.675,3.478,3.478,0,0,0,.775.825,3.337,3.337,0,0,0,3.116,4.226,3.316,3.316,0,0,0,.557,1.738,4.567,4.567,0,0,0,3.667,1.71,7.532,7.532,0,0,1,5.681,2.843l.033.048c.025.039.042.064.048.073l0,0,1.89,2.8a.732.732,0,0,0,1.214-.818Zm-3.819-9.743a10.484,10.484,0,0,0-.52,3.319l-1.958-2.9.5-2.587a.731.731,0,1,0-1.436-.278l-.223,1.151-.882-1.306.5-2.587a.731.731,0,1,0-1.436-.278l-.223,1.151-.965-1.43.5-2.587a.731.731,0,1,0-1.436-.278l-.223,1.151-1.754-2.6a.732.732,0,0,0-1.213.818l1.683,2.493-.975-.189a.732.732,0,0,0-.279,1.436l2.411.467.965,1.429-.974-.189a.732.732,0,0,0-.279,1.436l2.411.467.882,1.306-.974-.189a.732.732,0,0,0-.279,1.436l2.41.467,1.977,2.927a10.3,10.3,0,0,0-3.157-.723,3.256,3.256,0,0,1-2.558-1.065,2.224,2.224,0,0,1-.24-1.71.732.732,0,0,0-1.108-.824,1.458,1.458,0,0,1-1.871-.669,1.612,1.612,0,0,1-.127-1.787.732.732,0,0,0-.291-1.109,1.923,1.923,0,0,1-.814-.7,1.66,1.66,0,0,1-.189-1.692.731.731,0,0,0-.2-.951,2.033,2.033,0,0,1-.472-.5,1.465,1.465,0,0,1,.078-1.987l.064-.037a.741.741,0,0,0,.351-.5.765.765,0,0,0-.142-.605l-.056-.076a1.232,1.232,0,1,1,1.948-1.317l.06.1a.73.73,0,0,0,.957.282.747.747,0,0,0,.1-.059,1.465,1.465,0,0,1,1.861.676,2.041,2.041,0,0,1,.257.535.731.731,0,0,0,.949.467,1.571,1.571,0,0,1,1.686.763,1.921,1.921,0,0,1,.342,1.025.732.732,0,0,0,.905.692,1.61,1.61,0,0,1,1.591.791,1.462,1.462,0,0,1-.076,1.984l-.006,0a.732.732,0,0,0,.573,1.319,2.13,2.13,0,0,1,1.33.826A3.238,3.238,0,0,1,78.658,206.623Z" transform="translate(-64.047 -192.163)" fill="#30169a"/>
        </g>
      </g>
      <g id="Grupo_1102044" data-name="Grupo 1102044" transform="translate(26.941 32.986)">
        <g id="Grupo_1102043" data-name="Grupo 1102043">
          <path id="Trazado_879605" data-name="Trazado 879605" d="M196.737,237.015a4.118,4.118,0,1,0-6.7.706,4.113,4.113,0,1,0,5.8.4A4.071,4.071,0,0,0,196.737,237.015Zm-1.681,5.091a2.65,2.65,0,1,1-2.949-3.862c.03-.007.06-.012.09-.018a2.659,2.659,0,0,1,.567-.059l.043,0a2.641,2.641,0,0,1,.6.083l.022.007a2.618,2.618,0,0,1,.587.236A2.66,2.66,0,0,1,195.057,242.106Zm.4-5.8a2.635,2.635,0,0,1-.784.88,4.076,4.076,0,0,0-.615-.26c-.058-.02-.116-.037-.174-.055a4.147,4.147,0,0,0-.661-.142c-.041-.005-.082,0-.122-.007-.122-.011-.244-.023-.367-.023-.057,0-.114.012-.171.015-.116.005-.23.015-.345.031a4.024,4.024,0,0,0-.434.08c-.063.015-.127.017-.19.035-.045.013-.084.037-.129.051s-.1.023-.154.041a2.656,2.656,0,1,1,4.147-.647Z" transform="translate(-188.615 -230.905)" fill="#30169a"/>
        </g>
      </g>
      <g id="Grupo_1102046" data-name="Grupo 1102046" transform="translate(29.89 35.556)">
        <g id="Grupo_1102045" data-name="Grupo 1102045">
          <path id="Trazado_879606" data-name="Trazado 879606" d="M212.358,250.026a.733.733,0,0,0-.9-.508l-.129.036-.036-.128a.731.731,0,1,0-1.408.394l.036.128-.128.036a.731.731,0,1,0,.392,1.409l.129-.036.036.128a.731.731,0,1,0,1.408-.393l-.036-.128.128-.036A.731.731,0,0,0,212.358,250.026Z" transform="translate(-209.258 -248.892)" fill="#30169a"/>
        </g>
      </g>
      <g id="Grupo_1102048" data-name="Grupo 1102048" transform="translate(29.496 41.339)">
        <g id="Grupo_1102047" data-name="Grupo 1102047">
          <path id="Trazado_879607" data-name="Trazado 879607" d="M209.6,290.514a.735.735,0,0,0-.9-.508l-.128.036-.037-.129a.731.731,0,1,0-1.408.394l.036.128-.128.036a.732.732,0,1,0,.393,1.409l.129-.036.036.128a.731.731,0,1,0,1.408-.393l-.036-.128.128-.036A.731.731,0,0,0,209.6,290.514Z" transform="translate(-206.499 -289.38)" fill="#30169a"/>
        </g>
      </g>
      <g id="Grupo_1102050" data-name="Grupo 1102050" transform="translate(15.761 19.706)">
        <g id="Grupo_1102049" data-name="Grupo 1102049">
          <path id="Trazado_879608" data-name="Trazado 879608" d="M118.5,141.244a4.117,4.117,0,1,0-4.047,4.922,4.173,4.173,0,0,0,.81-.08,4.117,4.117,0,0,0,3.237-4.842Zm-1.831,2.279a2.656,2.656,0,1,1-2.725-4.081,2.712,2.712,0,0,1,.524-.052,2.656,2.656,0,0,1,2.2,4.133Z" transform="translate(-110.339 -137.928)" fill="#30169a"/>
        </g>
      </g>
      <g id="Grupo_1102052" data-name="Grupo 1102052" transform="translate(18.434 22.379)">
        <g id="Grupo_1102051" data-name="Grupo 1102051">
          <path id="Trazado_879609" data-name="Trazado 879609" d="M131.631,157.969l-.11-.075.075-.11a.732.732,0,0,0-1.21-.823l-.075.11L130.2,157a.731.731,0,1,0-.823,1.209l.11.076-.075.11a.732.732,0,0,0,1.21.822l.075-.11.11.075a.732.732,0,0,0,.823-1.21Z" transform="translate(-129.058 -156.642)" fill="#30169a"/>
        </g>
      </g>
      <g id="Grupo_1102054" data-name="Grupo 1102054" transform="translate(0 0.005)">
        <g id="Grupo_1102053" data-name="Grupo 1102053" transform="translate(0)">
          <path id="Trazado_879610" data-name="Trazado 879610" d="M58.791,24.209a3.263,3.263,0,0,0-.962-2.322L36.908.965a3.289,3.289,0,0,0-4.645,0L24.233,9a37.966,37.966,0,0,0-8.839-4.66c-4.9-1.651-6.825-.259-7.027-.1a.73.73,0,0,0-.052,1.091l9.9,9.682L.962,32.268a3.284,3.284,0,0,0,0,4.644l20.92,20.921a3.285,3.285,0,0,0,4.645,0L42.991,41.32l6.839,6.688a3.875,3.875,0,1,0,5.419-5.541l-6.752-6.6,9.332-9.332A3.26,3.26,0,0,0,58.791,24.209ZM10.158,5.091c2.42-.433,10.254.258,28.23,17.7L35.3,25.949a.731.731,0,0,0,.012,1.034l2.735,2.674L36.7,31.042ZM25.492,56.8a1.867,1.867,0,0,1-2.576,0L2,35.878A1.824,1.824,0,0,1,2,33.3L19.26,16.037,35.674,32.089l-.527.538a.731.731,0,0,0,.012,1.034L41.944,40.3ZM54.225,43.512a2.412,2.412,0,0,1,.039,3.412,2.417,2.417,0,0,1-3.412.038L36.7,33.127l3.374-3.45ZM56.794,25.5,47.45,34.84,40.578,28.12a.731.731,0,0,0-1.034.012l-.471.481-2.212-2.163,3.085-3.155a.731.731,0,0,0-.012-1.034A124.04,124.04,0,0,0,25.453,9.844L33.3,2a1.866,1.866,0,0,1,2.576,0l20.92,20.92A1.823,1.823,0,0,1,56.794,25.5Z" transform="translate(0 -0.005)" fill="#30169a"/>
        </g>
      </g>
      <g id="Grupo_1102056" data-name="Grupo 1102056" transform="translate(35.698 9.825)">
        <g id="Grupo_1102055" data-name="Grupo 1102055">
          <path id="Trazado_879611" data-name="Trazado 879611" d="M262.46,77.758l-8.273-8.273a2.5,2.5,0,1,0-3.537,3.536l8.273,8.274a2.5,2.5,0,0,0,3.537-3.537Zm-1.034,2.5a1.039,1.039,0,0,1-1.469,0l-8.273-8.273a1.038,1.038,0,0,1,1.469-1.468l8.273,8.273A1.04,1.04,0,0,1,261.426,80.26Z" transform="translate(-249.919 -68.754)" fill="#30169a"/>
        </g>
      </g>
    </g>
  </g>
</svg>
