<svg xmlns="http://www.w3.org/2000/svg" width="89" height="89" viewBox="0 0 89 89">
  <g id="Grupo_1101776" data-name="Grupo 1101776" transform="translate(-598.052 -3316)">
    <rect id="Rectángulo_400898" data-name="Rectángulo 400898" width="89" height="89" rx="44.5" transform="translate(598.052 3316)" fill="#fff"/>
    <g id="Grupo_1101775" data-name="Grupo 1101775" transform="translate(10.391 3.48)">
      <g id="g9577" transform="translate(603.661 3370.365)">
        <path id="path9579" d="M-139.075-109.537a.993.993,0,0,1-.165-.014,19.726,19.726,0,0,1-6.271-2.118,22.408,22.408,0,0,1-8.708-9.448.987.987,0,0,1,.036-.885.987.987,0,0,1,.73-.5,23.568,23.568,0,0,1,9.211.875.987.987,0,0,1,.652,1.234.987.987,0,0,1-1.234.652,21.956,21.956,0,0,0-6.9-.9,20.125,20.125,0,0,0,7.165,7.246,17.761,17.761,0,0,0,5.646,1.9.987.987,0,0,1,.81,1.137A.987.987,0,0,1-139.075-109.537Z" transform="translate(154.306 122.627)" fill="#30169a"/>
      </g>
      <g id="g9581" transform="translate(643.115 3341.317)">
        <path id="path9583" d="M-66.371-155.823a.987.987,0,0,1-.954-.738.987.987,0,0,1,.706-1.2,9.309,9.309,0,0,0,7.032-8.942,9.155,9.155,0,0,0-3.387-7.085.987.987,0,0,1-.136-1.389.987.987,0,0,1,1.389-.136,11.122,11.122,0,0,1,4.109,8.611,11.284,11.284,0,0,1-8.507,10.852A.989.989,0,0,1-66.371-155.823Zm1.427-6.817c-2.432,0-5.9-2.108-10.519-6.389a.987.987,0,0,1-.191-1.2,7.533,7.533,0,0,1,6.587-3.839,7.444,7.444,0,0,1,7.5,7.365c0,1.884-.708,3.231-1.994,3.793A3.429,3.429,0,0,1-64.944-162.639Zm-8.564-7.277c6.355,5.739,8.611,5.434,9.162,5.193.705-.308.811-1.375.811-1.984a5.468,5.468,0,0,0-5.531-5.391A5.578,5.578,0,0,0-73.508-169.916Zm2.061-5.278c-1.315,0-1.5-.258-1.7-.539a1.089,1.089,0,0,1-.074-1.08c.564-1.091,3.785-1.122,4.151-1.122a11.683,11.683,0,0,1,2.711.318.987.987,0,0,1,.757,1.007.987.987,0,0,1-.85.93A40.106,40.106,0,0,1-71.447-175.195Z" transform="translate(75.779 177.936)" fill="#30169a"/>
      </g>
      <g id="g9585" transform="translate(616.359 3333.736)">
        <path id="path9587" d="M-142.967,23.639a.989.989,0,0,1-.248-.032.987.987,0,0,1-.708-1.2c1.613-6.226,7.556-14.267,12.259-19.917a4,4,0,0,0,.931-2.554V-9.013a.987.987,0,0,1,.987-.987.987.987,0,0,1,.987.987V-.067a5.983,5.983,0,0,1-1.388,3.817c-4.573,5.495-10.344,13.277-11.865,19.149A.987.987,0,0,1-142.967,23.639Z" transform="translate(143.955 10)" fill="#30169a"/>
      </g>
      <g id="g9589" transform="translate(621.899 3333.736)">
        <path id="path9591" d="M10.7-512H-9.013a.987.987,0,0,1-.987-.987.987.987,0,0,1,.987-.987H10.7l.044-3.248a.987.987,0,0,1,.568-.893,17.33,17.33,0,0,0,10.029-15.57c0-4.533-4.345-12.25-12.234-21.729a5.983,5.983,0,0,1-1.388-3.817v-8.946a.987.987,0,0,1,.987-.987.987.987,0,0,1,.987.987v8.946a4,4,0,0,0,.931,2.554c5.789,6.956,12.691,16.591,12.691,22.992a19.3,19.3,0,0,1-10.6,17.08v2.612A2.009,2.009,0,0,1,10.7-512Z" transform="translate(10 569.161)" fill="#30169a"/>
      </g>
      <g id="g9593" transform="translate(630.366 3374.176)">
        <path id="path9595" d="M-178.6-1.292h-9.873a.987.987,0,0,1-.987-.987.987.987,0,0,1,.987-.987h9.873a4.152,4.152,0,0,0,2.4-.743A13.658,13.658,0,0,0-172.619-7.7a13.305,13.305,0,0,0,.961-1.732.987.987,0,0,1,1.309-.483.987.987,0,0,1,.483,1.309,15.288,15.288,0,0,1-1.1,1.99,15.624,15.624,0,0,1-4.094,4.219A6.116,6.116,0,0,1-178.6-1.292Z" transform="translate(189.462 10.002)" fill="#30169a"/>
      </g>
      <g id="g9597" transform="translate(619.82 3359.558)">
        <path id="path9599" d="M19.849-99.129a1,1,0,0,1-.1-.006.987.987,0,0,1-.878-1.085,13.328,13.328,0,0,0,.073-1.393c0-1.673-1.049-4.388-2.964-7.68A28.709,28.709,0,0,0,7.9-108.278a37.736,37.736,0,0,1-11.024,1.217c-1.351,0-2.576-.033-3.723-.1-1.481,2.932-1.8,4.629-1.8,5.55q0,.621.057,1.234A.987.987,0,0,1-9.483-99.3a.987.987,0,0,1-1.074-.891c-.044-.468-.066-.945-.066-1.418,0-1.747.782-4.115,2.323-7.038a.987.987,0,0,1,.944-.524c1.285.093,2.67.139,4.232.139a36.056,36.056,0,0,0,10.537-1.156,31.117,31.117,0,0,1,9.124-1.078.987.987,0,0,1,.848.481c2.341,3.922,3.528,7.009,3.528,9.176a15.31,15.31,0,0,1-.084,1.6A.987.987,0,0,1,19.849-99.129Z" transform="translate(10.623 111.269)" fill="#30169a"/>
      </g>
      <g id="g9601" transform="translate(628.904 3384.691)">
        <path id="path9603" d="M4.729-8.026H-9.013A.987.987,0,0,1-10-9.013.987.987,0,0,1-9.013-10H4.729a.987.987,0,0,1,.987.987A.987.987,0,0,1,4.729-8.026Z" transform="translate(10 10)" fill="#30169a"/>
      </g>
      <g id="g9605" transform="translate(625.658 3366.755)">
        <path id="path9607" d="M-45.771-28.919a2.878,2.878,0,0,1,2.9,2.854,2.878,2.878,0,0,1-2.9,2.854,2.878,2.878,0,0,1-2.9-2.854A2.878,2.878,0,0,1-45.771-28.919Zm0,3.735a.9.9,0,0,0,.921-.88.9.9,0,0,0-.921-.88.9.9,0,0,0-.921.88A.9.9,0,0,0-45.771-25.184Z" transform="translate(48.667 28.919)" fill="#30169a"/>
      </g>
      <g id="g9609" transform="translate(634.601 3372.316)">
        <path id="path9611" d="M-45.771-28.919a2.878,2.878,0,0,1,2.9,2.854,2.878,2.878,0,0,1-2.9,2.854,2.878,2.878,0,0,1-2.9-2.854A2.878,2.878,0,0,1-45.771-28.919Zm0,3.735a.9.9,0,0,0,.921-.88.9.9,0,0,0-.921-.88.9.9,0,0,0-.921.88A.9.9,0,0,0-45.771-25.184Z" transform="translate(48.667 28.919)" fill="#30169a"/>
      </g>
      <g id="g9613" transform="translate(629.579 3332.459)">
        <path id="path9615" d="M-103.886-3.275h-3.727A4.142,4.142,0,0,1-111.758-7.4v-1.61a.987.987,0,0,1,.987-.987.987.987,0,0,1,.987.987V-7.4a2.165,2.165,0,0,0,2.171,2.154h3.727A2.165,2.165,0,0,0-101.715-7.4v-1.61a.987.987,0,0,1,.987-.987.987.987,0,0,1,.987.987V-7.4A4.142,4.142,0,0,1-103.886-3.275Z" transform="translate(111.758 10)" fill="#30169a"/>
      </g>
      <g id="g9617" transform="translate(627.646 3323.52)">
        <path id="path9619" d="M-7.784-52.61a.984.984,0,0,1-.344-.062.987.987,0,0,1-.58-1.269l1.03-2.766a.565.565,0,0,0-.068-.531.59.59,0,0,0-.489-.254H-19a.589.589,0,0,0-.49.255.564.564,0,0,0-.066.531l1.041,2.761a.987.987,0,0,1-.575,1.272.987.987,0,0,1-1.272-.575L-21.4-56.01a2.551,2.551,0,0,1,.289-2.351A2.569,2.569,0,0,1-19-59.466H-8.235a2.57,2.57,0,0,1,2.11,1.1,2.553,2.553,0,0,1,.3,2.346l-1.031,2.767A.988.988,0,0,1-7.784-52.61Z" transform="translate(21.563 59.466)" fill="#30169a"/>
      </g>
      <g id="g9621" transform="translate(625.379 3328.401)">
        <path id="path9623" d="M-113.406-4.1h-14.516a2.954,2.954,0,0,1-2.95-2.95,2.954,2.954,0,0,1,2.95-2.95h5.361a.987.987,0,0,1,.987.987.987.987,0,0,1-.987.987h-5.361a.977.977,0,0,0-.976.976.977.977,0,0,0,.976.976h14.516a.977.977,0,0,0,.976-.976.977.977,0,0,0-.976-.976h-4.549a.987.987,0,0,1-.987-.987.987.987,0,0,1,.987-.987h4.549a2.954,2.954,0,0,1,2.95,2.95A2.954,2.954,0,0,1-113.406-4.1Z" transform="translate(130.873 10)" fill="#30169a"/>
      </g>
      <g id="g9625" transform="translate(611.791 3362.409)">
        <path id="path9627" d="M-13.855-107.523a.987.987,0,0,1-.977-.855,17.38,17.38,0,0,0-1.609-5.418,20.07,20.07,0,0,0-6.954-7.463,20.44,20.44,0,0,0,1.377,9.226.987.987,0,0,1-.52,1.3.987.987,0,0,1-1.3-.52,22.594,22.594,0,0,1-1.339-11.808.987.987,0,0,1,.532-.7.987.987,0,0,1,.883,0,22.446,22.446,0,0,1,9.084,9.09,19.346,19.346,0,0,1,1.8,6.031.987.987,0,0,1-.845,1.111A1,1,0,0,1-13.855-107.523Z" transform="translate(25.437 123.87)" fill="#30169a"/>
      </g>
      <g id="g9629" transform="translate(615.662 3377.544)">
        <path id="path9631" d="M-34.814-34.631a.983.983,0,0,1-.642-.238,22.4,22.4,0,0,1-2.956-3.049.987.987,0,0,1,.159-1.387.987.987,0,0,1,1.387.159,20.426,20.426,0,0,0,2.7,2.778.987.987,0,0,1,.107,1.392A.985.985,0,0,1-34.814-34.631Z" transform="translate(38.626 39.519)" fill="#30169a"/>
      </g>
      <g id="g9633" transform="translate(616.506 3371.391)">
        <path id="path9635" d="M-41.178-72.7a.987.987,0,0,1-.885-.548l-3.522-7.082a.987.987,0,0,1,.444-1.323.987.987,0,0,1,1.323.444l3.522,7.082A.987.987,0,0,1-40.74-72.8.983.983,0,0,1-41.178-72.7Z" transform="translate(45.689 81.754)" fill="#30169a"/>
      </g>
      <g id="g9637" transform="translate(607.906 3379.17)">
        <path id="path9639" d="M-114.681-90.167c-4.673,0-8.475-2.828-8.475-6.3,0-2.184,1.472-4.178,3.936-5.334a.987.987,0,0,1,1.313.475.987.987,0,0,1-.475,1.313c-1.753.822-2.8,2.147-2.8,3.546,0,2.347,2.977,4.329,6.5,4.329a8.976,8.976,0,0,0,3.313-.614.987.987,0,0,1,1.284.548.987.987,0,0,1-.548,1.284A10.967,10.967,0,0,1-114.681-90.167Z" transform="translate(123.156 101.897)" fill="#30169a"/>
      </g>
      <g id="g9641" transform="translate(617.264 3375.987)">
        <path id="path9643" d="M-108.836-98.721a5.348,5.348,0,0,1-3.872-1.492,5.3,5.3,0,0,1-1.5-3.858,9.532,9.532,0,0,1,3.017-6.566,9.622,9.622,0,0,1,6.594-3,5.348,5.348,0,0,1,3.872,1.492,5.3,5.3,0,0,1,1.5,3.858,9.532,9.532,0,0,1-3.017,6.566A9.623,9.623,0,0,1-108.836-98.721Zm4.237-12.94a7.757,7.757,0,0,0-5.2,2.424,7.668,7.668,0,0,0-2.435,5.166,3.415,3.415,0,0,0,.92,2.459,3.468,3.468,0,0,0,2.48.918,7.758,7.758,0,0,0,5.2-2.424,7.669,7.669,0,0,0,2.435-5.166,3.415,3.415,0,0,0-.92-2.459A3.469,3.469,0,0,0-104.6-111.661Z" transform="translate(114.21 113.635)" fill="#30169a"/>
      </g>
    </g>
  </g>
</svg>
