<svg xmlns="http://www.w3.org/2000/svg" width="89" height="89" viewBox="0 0 89 89">
  <g id="Grupo_1102044" data-name="Grupo 1102044" transform="translate(-282.714 -2925.408)">
    <path id="Trazado_876648" data-name="Trazado 876648" d="M44.5,0A44.5,44.5,0,1,1,0,44.5,44.5,44.5,0,0,1,44.5,0Z" transform="translate(282.714 2925.408)" fill="#fff"/>
    <g id="Outline" transform="translate(283.714 2926.408)">
      <path id="Trazado_879615" data-name="Trazado 879615" d="M152.065,33.588a.926.926,0,0,0,.926-.926V20.628a.926.926,0,0,0-.926-.926h-10.89l-6.037-3.018a6.5,6.5,0,0,0-2.9-.685h-6.095a3.707,3.707,0,0,0-3.7,3.7v.018a26.08,26.08,0,0,0-3.113.3,3.7,3.7,0,1,0,.324,1.823,24.31,24.31,0,0,1,3.714-.287,24.064,24.064,0,0,1,9.269,1.851h-.474a3.24,3.24,0,0,0,0,6.48h4.544a7.578,7.578,0,0,0,6.539,3.7h.971a24.022,24.022,0,0,1,3.2,11.108h-8.862l-5.931-4.58V36.365a1.854,1.854,0,0,0-1.851-1.851h-2.8a5.556,5.556,0,0,0-8.752-4.051l-.053-.054a6.48,6.48,0,0,0-10.752,6.565,6.4,6.4,0,0,0,1.586,2.6l.056.055a5.562,5.562,0,0,0,1.734,8.022l.932-1.6a3.7,3.7,0,0,1-.757-5.82l.056-.056a.926.926,0,0,0-.118-1.409,4.629,4.629,0,0,1,4.9-7.834,5.008,5.008,0,0,1,1.295,1.054c.093.108.178.217.254.325a.926.926,0,0,0,1.41.12l.056-.056a3.7,3.7,0,0,1,6.29,2.143H115.963a1.854,1.854,0,0,0-1.851,1.851V50.271a4.109,4.109,0,0,0-3.493,5.385q-.176.118-.342.252a4.627,4.627,0,0,0,3.835,8.134v.094a1.854,1.854,0,0,0,1.851,1.851h14.811a1.854,1.854,0,0,0,1.851-1.851V61.359h4.628V59.508H123.368a1.854,1.854,0,0,1-1.851-1.851V50.251a1.854,1.854,0,0,1,1.851-1.851h7.837a.933.933,0,0,0,.743-1.478l-2.969-3.989a1.327,1.327,0,0,1,1.872-1.847l6.824,5.269a.925.925,0,0,0,.566.193h12.9v12.96h-2.777v1.851h3.7a.926.926,0,0,0,.926-.926V45.622a.926.926,0,0,0-.926-.926h-2.794a25.885,25.885,0,0,0-2.942-11.108Zm-38.879,28.7a2.777,2.777,0,0,1-1.018-5.361.926.926,0,0,0,.443-1.359,2.253,2.253,0,0,1,1.5-3.424v9.985a2.785,2.785,0,0,1-.926.159Zm16.177-15.737h-5.994a3.707,3.707,0,0,0-3.7,3.7v7.406a3.707,3.707,0,0,0,3.7,3.7h7.406v2.777H115.963V42.845h10.981C127.011,43.14,129.362,46.548,129.362,46.548Zm-1.57-6.659a3.181,3.181,0,0,0-.716,1.1H115.963V36.365h14.811v2.683a3.184,3.184,0,0,0-2.982.841ZM115.963,23.406a1.851,1.851,0,1,1,1.851-1.851A1.851,1.851,0,0,1,115.963,23.406Zm27.282,8.331a5.741,5.741,0,0,1-5.163-3.191.926.926,0,0,0-.828-.512h-5.091a1.389,1.389,0,0,1,0-2.777h8.794V23.406h-4.234a25.847,25.847,0,0,0-12.429-3.686V19.7a1.854,1.854,0,0,1,1.851-1.851h6.095a4.636,4.636,0,0,1,2.069.489l6.233,3.116a.926.926,0,0,0,.414.1h10.183V31.737Z" transform="translate(-81.449)" fill="#30169a"/>
      <path id="Trazado_879616" data-name="Trazado 879616" d="M41.92,123.674A24.071,24.071,0,0,1,30.061,78.657l-.913-1.61A25.922,25.922,0,1,0,56.32,121.159l-1.03-1.539A23.947,23.947,0,0,1,41.92,123.674Z" transform="translate(0 -53.983)" fill="#30169a"/>
      <path id="Trazado_879617" data-name="Trazado 879617" d="M322.378,157.922l1.832-.268A17.614,17.614,0,0,0,316.58,145.6l-1.03,1.538A15.76,15.76,0,0,1,322.378,157.922Z" transform="translate(-264.888 -114.604)" fill="#30169a"/>
      <path id="Trazado_879618" data-name="Trazado 879618" d="M88.947,222.663a17.626,17.626,0,0,0,1.6,14.831l1.582-.962A15.774,15.774,0,0,1,90.7,223.264Z" transform="translate(-63.668 -182.75)" fill="#30169a"/>
      <path id="Trazado_879619" data-name="Trazado 879619" d="M372.628,384a4.628,4.628,0,1,0,4.629,4.629A4.628,4.628,0,0,0,372.628,384Zm0,7.406a2.777,2.777,0,1,1,2.777-2.777A2.777,2.777,0,0,1,372.628,391.406Z" transform="translate(-311.269 -325.418)" fill="#30169a"/>
      <path id="Trazado_879620" data-name="Trazado 879620" d="M20.628,25.257A4.628,4.628,0,1,0,16,20.628a4.628,4.628,0,0,0,4.628,4.628Zm0-7.406a2.777,2.777,0,1,1-2.777,2.777A2.777,2.777,0,0,1,20.628,17.851Z" transform="translate(0 0)" fill="#30169a"/>
    </g>
  </g>
</svg>
