<svg xmlns="http://www.w3.org/2000/svg" width="89" height="89" viewBox="0 0 89 89">
  <g id="Grupo_1101779" data-name="Grupo 1101779" transform="translate(-913.052 -3316)">
    <rect id="Rectángulo_400898" data-name="Rectángulo 400898" width="89" height="89" rx="44.5" transform="translate(913.052 3316)" fill="#fff"/>
    <g id="aperitivos" transform="translate(911.766 3329)">
      <g id="Grupo_1101777" data-name="Grupo 1101777" transform="translate(21.564 22.266)">
        <path id="Trazado_877842" data-name="Trazado 877842" d="M102.391,199.594a3.468,3.468,0,0,0-2.56-1.132h-.8a7.743,7.743,0,0,0-1.6-5.748,4.073,4.073,0,0,0-2.759-1.764,3.4,3.4,0,0,0-1.447.165,7.786,7.786,0,0,0-4.584-5.523,4.073,4.073,0,0,0-3.269-.2c-1.573.67-2.227,2.372-2.984,4.342-.152.394-.31.8-.477,1.208a3.375,3.375,0,0,0-1.274.133,7.869,7.869,0,0,0-.547-1.589,7.745,7.745,0,0,0-4.408-4.02,4.073,4.073,0,0,0-3.274-.027c-1.536.751-2.1,2.484-2.755,4.49-.135.414-.276.841-.428,1.271a3.2,3.2,0,0,0-.948-.253,3.506,3.506,0,0,0-1.722.265c-.067-.1-.134-.2-.206-.291a7.744,7.744,0,0,0-5.136-3.035,4.072,4.072,0,0,0-3.211.642c-1.35,1.049-1.549,2.861-1.78,4.959-.055.5-.112,1.015-.186,1.537s-.163,1.034-.25,1.528c-.123.7-.238,1.374-.3,2.007a3.466,3.466,0,0,0-2.627,3.7,25.338,25.338,0,0,0,15.493,20.969,15.8,15.8,0,0,0,6.1,1.2h7.225a15.8,15.8,0,0,0,6.1-1.2,25.338,25.338,0,0,0,15.493-20.969,3.486,3.486,0,0,0-.889-2.67Zm-7.973-6.182c.382.041.793.472,1.07.827a5.305,5.305,0,0,1,1.039,4.224H87.351c.444-.4,1.029-.829,1.631-1.27.421-.308.856-.626,1.3-.975s.861-.694,1.261-1.028c1.1-.915,2.136-1.781,2.8-1.781a.68.68,0,0,1,.074,0Zm-15.575,1.778c1.1-.915,2.136-1.781,2.8-1.781a.687.687,0,0,1,.074,0c.382.041.793.472,1.07.827a5.305,5.305,0,0,1,1.038,4.224H74.648c.444-.4,1.028-.829,1.631-1.269.421-.308.856-.626,1.3-.975s.861-.694,1.261-1.028Zm5.865-4.565c.532-1.385,1.035-2.693,1.643-2.952a.819.819,0,0,1,.321-.057,2.863,2.863,0,0,1,1.017.258,5.325,5.325,0,0,1,3.245,4.616c-.319.252-.642.521-.975.8-.386.322-.784.654-1.2.979s-.835.631-1.24.928c-.44.322-.864.633-1.256.946a7.74,7.74,0,0,0-1.527-3.426,6.561,6.561,0,0,0-.593-.665c.2-.491.388-.966.564-1.425ZM71.494,192.24c.193-.533.36-1.046.521-1.541.46-1.411.894-2.743,1.488-3.033a.882.882,0,0,1,.386-.075,3.038,3.038,0,0,1,.961.206,5.323,5.323,0,0,1,3.494,4.6c-.354.277-.714.576-1.086.886s-.784.654-1.2.979-.835.631-1.24.928a18.692,18.692,0,0,0-2.14,1.725,7.727,7.727,0,0,0-1.452-3.963c.09-.233.18-.471.269-.717Zm-3.471,1.171c.382.041.793.472,1.07.827a5.285,5.285,0,0,1,1.089,3.923c-.012.1-.029.2-.047.3h-9.18c.444-.4,1.029-.829,1.631-1.27.421-.308.856-.626,1.3-.975s.861-.694,1.261-1.028c1.1-.915,2.136-1.781,2.8-1.781A.658.658,0,0,1,68.024,193.411ZM58.5,195.375c.08-.561.139-1.1.2-1.615.162-1.475.315-2.868.837-3.273a1.311,1.311,0,0,1,.781-.19,4.092,4.092,0,0,1,.564.044,5.284,5.284,0,0,1,3.5,2.071c.032.043.061.088.092.131-.3.236-.6.487-.906.745-.386.322-.784.654-1.2.979s-.835.631-1.24.928a9.485,9.485,0,0,0-3.089,2.993c.056-.384.127-.791.2-1.206C58.325,196.467,58.418,195.936,58.5,195.375Zm42.318,6.655a22.786,22.786,0,0,1-13.978,18.917,13.343,13.343,0,0,1-5.15,1.009H74.462a13.342,13.342,0,0,1-5.15-1.009A22.787,22.787,0,0,1,55.333,202.03a.993.993,0,0,1,.256-.771.974.974,0,0,1,.728-.322H99.832a.973.973,0,0,1,.728.322A.992.992,0,0,1,100.815,202.03Z" transform="translate(-52.853 -185.112)" fill="#30169a"/>
        <path id="Trazado_877843" data-name="Trazado 877843" d="M148.154,343.351a1.238,1.238,0,0,1,0-2.476h3.876a1.238,1.238,0,0,1,0,2.476Z" transform="translate(-135.602 -322.139)" fill="#30169a"/>
        <path id="Trazado_877844" data-name="Trazado 877844" d="M107.072,343.351h-.825a1.238,1.238,0,0,1,0-2.476h.825a1.238,1.238,0,1,1,0,2.476Z" transform="translate(-98.736 -322.139)" fill="#30169a"/>
      </g>
      <g id="Grupo_1101778" data-name="Grupo 1101778" transform="translate(17.286 0)">
        <path id="Trazado_877845" data-name="Trazado 877845" d="M230.294.3l1.017,2.859a.459.459,0,0,0,.239.268l2.54,1.144a.507.507,0,0,1,0,.9l-2.54,1.144a.459.459,0,0,0-.239.268l-1.017,2.859a.413.413,0,0,1-.8,0l-1.017-2.859a.459.459,0,0,0-.239-.268L225.7,5.47a.507.507,0,0,1,0-.9l2.54-1.144a.459.459,0,0,0,.239-.268L229.5.3a.413.413,0,0,1,.8,0Z" transform="translate(-200.397 0)" fill="#30169a"/>
        <path id="Trazado_877846" data-name="Trazado 877846" d="M22.147,98.247l1.017,2.859a.459.459,0,0,0,.239.268l2.54,1.145a.507.507,0,0,1,0,.9l-2.54,1.145a.459.459,0,0,0-.239.268l-1.017,2.859a.413.413,0,0,1-.8,0l-1.017-2.859a.459.459,0,0,0-.239-.268l-2.541-1.145a.507.507,0,0,1,0-.9l2.541-1.145a.459.459,0,0,0,.239-.268l1.017-2.859A.413.413,0,0,1,22.147,98.247Z" transform="translate(-17.286 -86.163)" fill="#30169a"/>
        <path id="Trazado_877847" data-name="Trazado 877847" d="M443.276,139.928l.754,2.121a.34.34,0,0,0,.177.2l1.884.849a.376.376,0,0,1,0,.664l-1.884.849a.34.34,0,0,0-.177.2l-.754,2.121a.306.306,0,0,1-.59,0l-.754-2.121a.34.34,0,0,0-.177-.2l-1.884-.849a.376.376,0,0,1,0-.664l1.884-.849a.34.34,0,0,0,.177-.2l.754-2.121A.306.306,0,0,1,443.276,139.928Z" transform="translate(-388.864 -122.899)" fill="#30169a"/>
        <circle id="Elipse_11508" data-name="Elipse 11508" cx="2.22" cy="2.22" r="2.22" transform="translate(40.487 12.86) rotate(-22.514)" fill="#30169a"/>
        <circle id="Elipse_11509" data-name="Elipse 11509" cx="0.958" cy="0.958" r="0.958" transform="translate(17.81 11.449)" fill="#30169a"/>
      </g>
    </g>
  </g>
</svg>
