<svg xmlns="http://www.w3.org/2000/svg" width="89" height="89" viewBox="0 0 89 89">
  <g id="Grupo_1102046" data-name="Grupo 1102046" transform="translate(-912.714 -2889.408)">
    <rect id="Rectángulo_400898" data-name="Rectángulo 400898" width="89" height="89" rx="44.5" transform="translate(912.714 2889.408)" fill="#fff"/>
    <g id="clavo" transform="translate(932.02 2907.436)">
      <path id="Trazado_879630" data-name="Trazado 879630" d="M17.942,58.073v-1.1a5.088,5.088,0,0,0-5.082-5.082H7.909a5.088,5.088,0,0,0-5.082,5.082v.868a.8.8,0,0,0-.153.111A8.38,8.38,0,0,0,0,64.06v14.4a.79.79,0,0,0,1.579,0V64.06a6.777,6.777,0,0,1,1.248-3.9V64.8a7.557,7.557,0,1,0,15.115,0V60.39a6.715,6.715,0,0,1,1.306,3.986V98.324H1.58V82.043a.79.79,0,0,0-1.58,0V99.113a.79.79,0,0,0,.79.79H20.038a.79.79,0,0,0,.789-.79V64.376A8.306,8.306,0,0,0,17.942,58.073ZM16.362,64.8a5.978,5.978,0,0,1-11.956,0V56.969a3.506,3.506,0,0,1,3.5-3.5H12.86a3.506,3.506,0,0,1,3.5,3.5Zm0,0" transform="translate(0 -46.414)" fill="#30169a"/>
      <path id="Trazado_879631" data-name="Trazado 879631" d="M59.118,391.345h6.943a.79.79,0,1,0,0-1.579H59.118a.79.79,0,0,0,0,1.579Zm0,0" transform="translate(-52.176 -348.653)" fill="#30169a"/>
      <path id="Trazado_879632" data-name="Trazado 879632" d="M59.118,427.814h6.943a.79.79,0,1,0,0-1.58H59.118a.79.79,0,0,0,0,1.58Zm0,0" transform="translate(-52.176 -381.275)" fill="#30169a"/>
      <path id="Trazado_879633" data-name="Trazado 879633" d="M255.824,42.889l-5.242-21.508L251.734.836A.789.789,0,0,0,250.945,0h-.152l-.028,0H230.41l-.028,0h-.41a.79.79,0,0,0-.789.829l.95,19.054a.79.79,0,1,0,1.578-.079L231.1,7.576h18.673L249.3,16.1l-.539-2.213a.79.79,0,0,0-1-.569l-2.245.682a.79.79,0,0,0-.534.553,4.5,4.5,0,0,1-.369.96A4.753,4.753,0,0,1,241.9,17.75a4.826,4.826,0,0,1-3.528-.358,3.537,3.537,0,0,1-.831-.563.79.79,0,0,0-.758-.169l-2.131.648a.789.789,0,0,0-.512,1.027L244.4,46.361a5.538,5.538,0,0,0,2.319,2.828,6.471,6.471,0,0,1-5.623,3.237h-1.274a6.5,6.5,0,0,1-6.491-6.138L232,22.832a.79.79,0,0,0-1.577.089l1.332,23.457a8.084,8.084,0,0,0,8.068,7.628H241.1a8.045,8.045,0,0,0,7.082-4.188,5.525,5.525,0,0,0,3.059-.049l.8-.242A5.563,5.563,0,0,0,255.824,42.889Zm-10.06-41.31-.11.114a7.708,7.708,0,0,1-5.266,2.181,7.8,7.8,0,0,1-5.29-2.2c-.032-.03-.063-.06-.095-.091ZM231.493,6l-.248-4.416h1.7a7.268,7.268,0,0,0,1.08,1.252,9.344,9.344,0,0,0,6.358,2.621,9.345,9.345,0,0,0,6.382-2.644,8.588,8.588,0,0,0,1.012-1.229h2.148L249.683,6ZM242.06,35.373l9.6-2.917.928,3.809-9.018,3.22Zm-5.226-17.078a4.983,4.983,0,0,0,.851.522,6.374,6.374,0,0,0,4.67.445,6.3,6.3,0,0,0,3.649-3,5.855,5.855,0,0,0,.373-.869l1.042-.317,3.862,15.842-9.765,2.968-5.609-15.311Zm14.746,29.72-.8.243a3.983,3.983,0,0,1-4.9-2.44l-1.776-4.85,8.85-3.16,1.33,5.455A3.983,3.983,0,0,1,251.58,48.015Zm0,0" transform="translate(-205.008)" fill="#30169a"/>
      <path id="Trazado_879634" data-name="Trazado 879634" d="M307.035,94.82a3.426,3.426,0,1,0-3.426-3.426A3.429,3.429,0,0,0,307.035,94.82Zm0-5.272a1.846,1.846,0,1,1-1.846,1.846A1.848,1.848,0,0,1,307.035,89.548Zm0,0" transform="translate(-271.585 -78.69)" fill="#30169a"/>
    </g>
  </g>
</svg>
