<svg xmlns="http://www.w3.org/2000/svg" width="89.267" height="89.276" viewBox="0 0 89.267 89.276">
  <g id="Grupo_1102086" data-name="Grupo 1102086" transform="translate(-1228.052 -3315.724)">
    <rect id="Rect치ngulo_400898" data-name="Rect치ngulo 400898" width="89" height="89" rx="44.5" transform="translate(1228.052 3316)" fill="#fff"/>
    <g id="Grupo_1101788" data-name="Grupo 1101788">
      <rect id="Rect치ngulo_400907" data-name="Rect치ngulo 400907" width="89" height="89" rx="44.5" transform="translate(1228.319 3315.724)" fill="none"/>
      <g id="cerveza" transform="translate(1212.229 3331.269)">
        <g id="Grupo_1101781" data-name="Grupo 1101781" transform="translate(62.866 51.352)">
          <g id="Grupo_1101780" data-name="Grupo 1101780" transform="translate(0)">
            <path id="Trazado_877848" data-name="Trazado 877848" d="M277.138,451.29a1.138,1.138,0,1,0,1.138,1.138A1.138,1.138,0,0,0,277.138,451.29Z" transform="translate(-276 -451.29)" fill="#30169a"/>
          </g>
        </g>
        <g id="Grupo_1101783" data-name="Grupo 1101783" transform="translate(46.879 22.791)">
          <g id="Grupo_1101782" data-name="Grupo 1101782">
            <path id="Trazado_877849" data-name="Trazado 877849" d="M136.638,200.29a1.138,1.138,0,0,0-1.138,1.138v21.734a1.138,1.138,0,1,0,2.276,0V201.428A1.138,1.138,0,0,0,136.638,200.29Z" transform="translate(-135.5 -200.29)" fill="#30169a"/>
          </g>
        </g>
        <g id="Grupo_1101785" data-name="Grupo 1101785" transform="translate(55.982 22.791)">
          <g id="Grupo_1101784" data-name="Grupo 1101784" transform="translate(0)">
            <path id="Trazado_877850" data-name="Trazado 877850" d="M216.638,200.29a1.138,1.138,0,0,0-1.138,1.138v21.734a1.138,1.138,0,1,0,2.276,0V201.428A1.138,1.138,0,0,0,216.638,200.29Z" transform="translate(-215.5 -200.29)" fill="#30169a"/>
          </g>
        </g>
        <g id="Grupo_1101787" data-name="Grupo 1101787" transform="translate(35.5)">
          <g id="Grupo_1101786" data-name="Grupo 1101786" transform="translate(0)">
            <path id="Trazado_877851" data-name="Trazado 877851" d="M79.991,18.32H74.3V14.877A5.67,5.67,0,0,0,72.133,4.8a5.753,5.753,0,0,0-3.265.235A5.7,5.7,0,0,0,64.061,2.39a5.615,5.615,0,0,0-2.145.422A10.182,10.182,0,0,0,46.363,4.617,10.264,10.264,0,0,0,35.5,14.825V28.48a3.446,3.446,0,0,0,3.471,3.414,3.411,3.411,0,0,0,1.195-.215V52.57a5.7,5.7,0,0,0,5.689,5.689H68.612A5.7,5.7,0,0,0,74.3,52.57V49.157h5.689a5.7,5.7,0,0,0,5.689-5.689V24.009A5.7,5.7,0,0,0,79.991,18.32ZM72.026,51.432H68.554a1.132,1.132,0,1,0,0,2.264H71.83a3.429,3.429,0,0,1-3.218,2.287H45.855a3.419,3.419,0,0,1-3.218-2.276H59.454a1.138,1.138,0,0,0,0-2.276H42.441V20.426a7.9,7.9,0,0,0,5.933-4.381.843.843,0,0,1,.6.237,6.826,6.826,0,0,0,9.693-.124.376.376,0,0,1,.269-.113c1.771,0,2.93.378,3.445,1.124a3.82,3.82,0,0,1,.424,2.156v4.6a3.419,3.419,0,0,0,2.276,3.218V45.662a1.138,1.138,0,1,0,2.276,0V27.146a3.419,3.419,0,0,0,2.276-3.218V15.911a6.038,6.038,0,0,0,2.39,0ZM69.014,13.307a1.138,1.138,0,0,0-1.654,1.014v9.607a1.138,1.138,0,0,1-2.276,0v-4.6a5.792,5.792,0,0,0-.826-3.449c-.965-1.4-2.754-2.108-5.318-2.108a2.662,2.662,0,0,0-1.906.808,4.55,4.55,0,0,1-6.462.081,3.116,3.116,0,0,0-2.2-.889,2.286,2.286,0,0,0-2.042,1.275,5.64,5.64,0,0,1-5.039,3.2,1.138,1.138,0,0,0-1.128,1.138v9.049a1.229,1.229,0,0,1-1.195,1.192,1.183,1.183,0,0,1-1.195-1.138V14.825a7.983,7.983,0,0,1,8.011-7.948,8.117,8.117,0,0,1,1.033.066,1.138,1.138,0,0,0,1.137-.572A7.919,7.919,0,0,1,60.839,4.965a1.138,1.138,0,0,0,1.456.2,3.294,3.294,0,0,1,1.765-.5,3.417,3.417,0,0,1,3.222,2.282,1.138,1.138,0,0,0,1.708.569,3.414,3.414,0,0,1,5.22,2.031A3.5,3.5,0,0,1,69.014,13.307ZM74.3,25.147h4.552V42.329H74.3Zm9.1,18.32a3.418,3.418,0,0,1-3.414,3.414H74.3V44.6h5.689a1.138,1.138,0,0,0,1.138-1.138V24.009a1.138,1.138,0,0,0-1.138-1.138H74.3V20.6h5.689A3.418,3.418,0,0,1,83.4,24.009Z" transform="translate(-35.5)" fill="#30169a"/>
          </g>
        </g>
      </g>
    </g>
  </g>
</svg>
