<svg xmlns="http://www.w3.org/2000/svg" width="89" height="89" viewBox="0 0 89 89">
  <g id="Grupo_1102042" data-name="Grupo 1102042" transform="translate(-1227.714 -2889.408)">
    <rect id="Rectángulo_400898" data-name="Rectángulo 400898" width="89" height="89" rx="44.5" transform="translate(1227.714 2889.408)" fill="#fff"/>
    <g id="vapor" transform="translate(1226.716 2887.409)">
      <path id="Trazado_879612" data-name="Trazado 879612" d="M73.02,94.011a8.014,8.014,0,0,0-5-7.417V78.006a3,3,0,1,0,0-6V71h3a3,3,0,0,0,0-6h-3V64a3,3,0,1,0,0-6h-.277A15.033,15.033,0,0,0,53.573,48H49.012V46.639a4,4,0,1,0-6,0V48H38.448A15.033,15.033,0,0,0,24.28,58L24,58a3,3,0,1,0,0,6v1H21a3,3,0,1,0,0,6h3v1a3,3,0,1,0,0,6v8.589a8.014,8.014,0,0,0-5,7.417v1H16v2H76.021v-2h-3Zm-2,0v1h-2v-1a4.006,4.006,0,0,0-4-4h-1a1,1,0,0,1,0-2h1a6.009,6.009,0,0,1,6,6Zm-40.186-6h3.173v1.945c0,.019,0,.037,0,.056h-1a1,1,0,0,0-1,1v4H25v-1a2,2,0,0,1,2-2h1a3,3,0,0,0,2.829-4Zm3.173,4h.778a2.962,2.962,0,0,0,2.081,1c.048,0,.1,0,.145,0a2.975,2.975,0,0,0,2.07-.83c.057-.055.111-.112.164-.17h4.533a3,3,0,0,0,4.469,0h4.533c.052.059.106.116.164.17a2.974,2.974,0,0,0,2.07.83q.072,0,.145,0a2.962,2.962,0,0,0,2.081-1h.778v3H34.006Zm22.008-3.837v1.78a1.041,1.041,0,0,1-.951,1.055,1,1,0,0,1-.554-1.864C55.062,88.822,55.56,88.5,56.014,88.173Zm-4,1.836h-3a6.669,6.669,0,0,0-.529-2h4.3A3.012,3.012,0,0,0,52.013,90.01Zm-5,0a1,1,0,1,1-2,0,12.051,12.051,0,0,1,1-2.7A12.054,12.054,0,0,1,47.011,90.011Zm-4,0h-3a3.012,3.012,0,0,0-.767-2h4.3A6.669,6.669,0,0,0,43.01,90.01Zm-5.5-.864a1,1,0,0,1-.554,1.864,1.041,1.041,0,0,1-.951-1.055v-1.78C36.461,88.5,36.959,88.822,37.512,89.145Zm21.5.864h-1c0-.019,0-.037,0-.056V88.009h3.173a3,3,0,0,0,2.829,4h1a2,2,0,0,1,2,2v1h-7v-4a1,1,0,0,0-1-1ZM72.02,68a1,1,0,0,1-1,1h-7V67h7A1,1,0,0,1,72.02,68ZM44.677,45.484a2,2,0,1,1,2.668,0,1,1,0,0,0-.334.746V48h-2V46.229a1,1,0,0,0-.334-.746Zm-14.01,7.09A12.944,12.944,0,0,1,38.448,50H53.573A13.034,13.034,0,0,1,65.6,58H26.424a12.929,12.929,0,0,1,4.243-5.425ZM23,61a1,1,0,0,1,1-1H68.018a1,1,0,1,1,0,2H24A1,1,0,0,1,23,61Zm-3,7a1,1,0,0,1,1-1h7v2H21A1,1,0,0,1,20,68Zm6,3h3a1,1,0,0,0,1-1V66a1,1,0,0,0-1-1H26V64H66.018v1h-3a1,1,0,0,0-1,1v4a1,1,0,0,0,1,1h3v1H26Zm-3,4a1,1,0,0,1,1-1H68.018a1,1,0,0,1,0,2H24A1,1,0,0,1,23,75Zm3,11v-8H66.018v8h-8a1,1,0,0,0-1.708-.708l-.1.1c-.208.208-.43.409-.666.607H47.617c-.293-.623-.56-1.153-.716-1.457a1,1,0,0,0-1.78,0c-.156.3-.423.834-.716,1.457H36.481c-.236-.2-.459-.4-.666-.607l-.1-.1a1,1,0,0,0-1.708.708Zm-5,8a6.009,6.009,0,0,1,6-6h1a1,1,0,1,1,0,2H27a4.006,4.006,0,0,0-4,4v1H21Z" transform="translate(-0.002 -20.992)" fill="#30169a"/>
      <path id="Trazado_879613" data-name="Trazado 879613" d="M385.374,27.02l-.768,1.537,1.789.895,2.5-5-1.789-.895-.775,1.55a2,2,0,0,1,3-2.595l1.334-1.491A4,4,0,0,0,388,20a2,2,0,0,1,4,0h2a4,4,0,0,0-.126-1c.042,0,.084,0,.126,0a2,2,0,0,1,1.154,3.633A3.976,3.976,0,0,0,393,22v2a2,2,0,1,1-.8,3.834l.693-1.386-1.789-.895-3,6,1.789.895,1.412-2.824a4,4,0,0,0,5.216-5.525,4,4,0,0,0-3.69-6.927,4,4,0,0,0-6.8,3.343,4,4,0,0,0-.661,6.5Z" transform="translate(-321.985 0)" fill="#30169a"/>
      <path id="Trazado_879614" data-name="Trazado 879614" d="M17.479,24.1a4,4,0,0,0,5.216,5.525l1.412,2.824,1.789-.895-3-6-1.789.895.693,1.386A2,2,0,1,1,21,24V22a3.976,3.976,0,0,0-2.154.632A2,2,0,0,1,20,19c.042,0,.084,0,.126,0A4,4,0,0,0,20,20h2a2,2,0,1,1,4,0,4,4,0,0,0-2.668,1.019l1.334,1.491a2,2,0,0,1,3,2.595l-.775-1.55-1.789.895,2.5,5,1.789-.895-.768-1.537a4,4,0,0,0-.661-6.5,4,4,0,0,0-6.8-3.343,4,4,0,0,0-3.69,6.927Z" transform="translate(0 -0.001)" fill="#30169a"/>
    </g>
  </g>
</svg>
