<svg xmlns="http://www.w3.org/2000/svg" xmlns:xlink="http://www.w3.org/1999/xlink" width="295" height="244" viewBox="0 0 295 244">
  <defs>
    <clipPath id="clip-path">
      <rect id="Rectángulo_403133" data-name="Rectángulo 403133" width="295" height="244" transform="translate(180.052 3626)" fill="#fff" stroke="#707070" stroke-width="1"/>
    </clipPath>
    <clipPath id="clip-path-2">
      <rect id="Rectángulo_403132" data-name="Rectángulo 403132" width="218.515" height="431.844" fill="none"/>
    </clipPath>
    <clipPath id="clip-path-4">
      <rect id="Rectángulo_403127" data-name="Rectángulo 403127" width="101.898" height="10.059" fill="none"/>
    </clipPath>
    <clipPath id="clip-path-5">
      <path id="Trazado_877879" data-name="Trazado 877879" d="M43.659,153.549s-16.115,35.5-20.214,67.385c0,0,31.428.455,55.115,12.753,0,0,11.842-28.694,14.575-33.25,0,0,7.744,24.14,9.11,41.45,0,0,22.318-10.022,51.924-7.289,0,0-2.277-18.675,0-30.517s1.823-34.616-2.732-53.293c0,0-74.354,21.917-107.778,2.76" transform="translate(-23.445 -150.789)" fill="none"/>
    </clipPath>
    <clipPath id="clip-path-7">
      <rect id="Rectángulo_403129" data-name="Rectángulo 403129" width="110.652" height="21.799" fill="none"/>
    </clipPath>
    <clipPath id="clip-path-8">
      <rect id="Rectángulo_403130" data-name="Rectángulo 403130" width="21.036" height="34.373" fill="none"/>
    </clipPath>
  </defs>
  <g id="Grupo_1101806" data-name="Grupo 1101806" transform="translate(-180.052 -3626)">
    <g id="Grupo_1101669" data-name="Grupo 1101669" transform="translate(-4.886 11.919)">
      <path id="Unión_67" data-name="Unión 67" d="M0,69.967,77.738,0l.542.6L155.4,70.014,121.99,107.106,77.84,67.369,33.559,107.224Z" transform="translate(313.824 3736.731)" fill="#59836b"/>
      <path id="Unión_68" data-name="Unión 68" d="M0,89.483,99.666,0l.695.769,98.876,88.774L156.4,136.981,99.8,86.16l-56.772,50.97Z" transform="translate(195.649 3628.208)" fill="#95dbb3"/>
    </g>
    <g id="Enmascarar_grupo_1098749" data-name="Enmascarar grupo 1098749" clip-path="url(#clip-path)">
      <g id="Grupo_1101805" data-name="Grupo 1101805" transform="translate(218.294 3632.078)">
        <g id="Grupo_1101804" data-name="Grupo 1101804" clip-path="url(#clip-path-2)">
          <g id="Grupo_1101793" data-name="Grupo 1101793">
            <g id="Grupo_1101792" data-name="Grupo 1101792" clip-path="url(#clip-path-2)">
              <path id="Trazado_877852" data-name="Trazado 877852" d="M23.445,202.585s-.477,4.937,15.19,7.548,37.549,11.978,39.924,5.2-42.886-19-55.113-12.753" transform="translate(8.591 73.607)" fill="#232825"/>
              <path id="Trazado_877853" data-name="Trazado 877853" d="M81.112,219.963s2.972,4.612,14.461.435,35.762-2.911,37.464-7.722-41.842-.719-51.925,7.287" transform="translate(29.724 77.181)" fill="#232825"/>
              <g id="Grupo_1101791" data-name="Grupo 1101791" transform="translate(67.415 421.785)" style="mix-blend-mode: multiply;isolation: isolate">
                <g id="Grupo_1101790" data-name="Grupo 1101790">
                  <g id="Grupo_1101789" data-name="Grupo 1101789" clip-path="url(#clip-path-4)">
                    <path id="Trazado_877854" data-name="Trazado 877854" d="M151.235,313.7c0,2.778-22.81,5.03-50.951,5.03s-50.948-2.252-50.948-5.03,22.812-5.03,50.948-5.03,50.951,2.252,50.951,5.03" transform="translate(-49.335 -308.671)" fill="#d1d3d4"/>
                  </g>
                </g>
              </g>
              <path id="Trazado_877855" data-name="Trazado 877855" d="M84.276,216.191s9.769,51.847,11.02,65.873.5,40.075-.25,45.085,18.283,9.517,28.052.5c0,0-2-19.286,1-29.055s14.528-27.8,7.014-50.594a141.531,141.531,0,0,1-6.763-44.083s-29.305-4.006-40.075,12.274" transform="translate(30.883 74.567)" fill="#fbac98"/>
              <path id="Trazado_877856" data-name="Trazado 877856" d="M124.351,203.919s-29.305-4.008-40.075,12.273c0,0,.552,2.926,1.4,7.544,5.018-2.361,22.742-9.341,39.984.227a130.186,130.186,0,0,1-1.312-20.044" transform="translate(30.883 74.567)" fill="#c95d4e"/>
              <path id="Trazado_877857" data-name="Trazado 877857" d="M100.64,292.831a18.756,18.756,0,0,1-10.028,15.632c-10.028,5.31-18.582,7.964-19.467,9.438s-2.95,5.605,2.949,5.605,34.215-2.95,42.474-2.655,15.042,1.77,14.748-5.9-3.245-19.173-3.245-23.3-27.43,1.179-27.43,1.179" transform="translate(25.675 106.301)" fill="#fbac98"/>
              <path id="Trazado_877858" data-name="Trazado 877858" d="M89.882,225.169a19.222,19.222,0,0,0,8.487,13.7" transform="translate(32.938 82.514)" fill="none" stroke="#d36d59" stroke-linecap="round" stroke-linejoin="round" stroke-width="0.567"/>
              <path id="Trazado_877859" data-name="Trazado 877859" d="M105.987,223.382a26.712,26.712,0,0,1-3.077,13.465" transform="translate(37.712 81.86)" fill="none" stroke="#d36d59" stroke-linecap="round" stroke-linejoin="round" stroke-width="0.567"/>
              <path id="Trazado_877860" data-name="Trazado 877860" d="M107.038,296.185a14.179,14.179,0,0,1,1.9,5.264,4.738,4.738,0,0,1-.112,2.333A2.067,2.067,0,0,1,107.1,305.2" transform="translate(39.225 108.539)" fill="none" stroke="#d36d59" stroke-linecap="round" stroke-linejoin="round" stroke-width="0.567"/>
              <path id="Trazado_877861" data-name="Trazado 877861" d="M76.117,316.644a2.071,2.071,0,0,1-.727-3.9,4.606,4.606,0,0,1,1.187-.348,20.619,20.619,0,0,0,8.554-4" transform="translate(27.216 113.015)" fill="none" stroke="#d36d59" stroke-linecap="round" stroke-linejoin="round" stroke-width="0.567"/>
              <path id="Trazado_877862" data-name="Trazado 877862" d="M72.725,317.1a3.047,3.047,0,0,1-.1-4.477,6.364,6.364,0,0,1,1.916-1,36.932,36.932,0,0,0,7.607-4.08" transform="translate(26.272 112.704)" fill="none" stroke="#d36d59" stroke-linecap="round" stroke-linejoin="round" stroke-width="0.567"/>
              <path id="Trazado_877863" data-name="Trazado 877863" d="M29.347,192.813s-.752,36.318.5,52.1,15.778,41.577,33.311,63.118c0,0,14.027,5.26,21.039-10.52,0,0-8.014-15.528-8.266-24.044s-7.263-30.808-11.521-39.324c0,0,9.767-22.792,12.272-29.555,0,0-36.819-12.524-47.338-11.772" transform="translate(10.672 70.645)" fill="#fbac98"/>
              <path id="Trazado_877864" data-name="Trazado 877864" d="M69.017,223.3c2.86-6.78,6.242-14.894,7.617-18.581l-5.115-1.835c-10.507-3.4-34.093-10.647-42.174-10.071,0,0-.179,8.647-.216,19.33,7.174-.891,27.233-1.97,39.888,11.157" transform="translate(10.674 70.645)" fill="#c95d4e"/>
              <path id="Trazado_877865" data-name="Trazado 877865" d="M55.113,280.889s6.175,10.43,7.06,17.51c.788,6.31-.786,12.409-2,18.554a15.521,15.521,0,0,1-1.483,4.74,5.236,5.236,0,0,1-3.9,2.792,9.076,9.076,0,0,0-2.195.149,2.59,2.59,0,0,0-1.342,3.33,4.185,4.185,0,0,0,3.04,2.367,11.823,11.823,0,0,0,3.991.014,37.041,37.041,0,0,0,9.168-1.931,14.537,14.537,0,0,0,7.291-5.657,22.281,22.281,0,0,0,1.439-2.956c2.365-5.538,4.884-11.257,9.393-15.251,3-2.659,6.336-6.078,7.968-9.823,1.671-3.84-.328-7.166-3.057-9.895-7.08-7.08-12.683-12.683-16.223-17.992Z" transform="translate(18.72 97.785)" fill="#fbac98"/>
              <path id="Trazado_877866" data-name="Trazado 877866" d="M42.026,223.228a16.658,16.658,0,0,1-3.863,8.781" transform="translate(13.985 81.803)" fill="none" stroke="#d36d59" stroke-linecap="round" stroke-linejoin="round" stroke-width="0.567"/>
              <path id="Trazado_877867" data-name="Trazado 877867" d="M32.216,227.739a19.592,19.592,0,0,0,3.307,3.968" transform="translate(11.806 83.456)" fill="none" stroke="#d36d59" stroke-linecap="round" stroke-linejoin="round" stroke-width="0.567"/>
              <path id="Trazado_877868" data-name="Trazado 877868" d="M70.236,278.482l5.46,4.512a2.832,2.832,0,0,1,.9,1.025c.448,1.084-.53,2.19-1.417,2.957" transform="translate(25.738 102.051)" fill="none" stroke="#d36d59" stroke-linecap="round" stroke-linejoin="round" stroke-width="0.567"/>
              <path id="Trazado_877869" data-name="Trazado 877869" d="M53.607,309.807A57.388,57.388,0,0,0,63.681,307.2" transform="translate(19.645 112.574)" fill="none" stroke="#d36d59" stroke-linecap="round" stroke-linejoin="round" stroke-width="0.567"/>
              <path id="Trazado_877870" data-name="Trazado 877870" d="M55.984,309.16q1.925-1.884,3.717-3.9" transform="translate(20.516 111.865)" fill="none" stroke="#d36d59" stroke-linecap="round" stroke-linejoin="round" stroke-width="0.567"/>
              <path id="Trazado_877871" data-name="Trazado 877871" d="M43.659,153.549s-16.115,35.5-20.214,67.385c0,0,31.428.455,55.113,12.753,0,0,11.843-28.7,14.576-33.25,0,0,7.744,24.141,9.11,41.449,0,0,22.318-10.02,51.925-7.287,0,0-2.278-18.675,0-30.517s1.821-34.618-2.733-53.292c0,0-74.354,21.915-107.778,2.759" transform="translate(8.592 55.258)" fill="#4686fa"/>
            </g>
          </g>
          <g id="Grupo_1101795" data-name="Grupo 1101795" transform="translate(32.037 206.046)">
            <g id="Grupo_1101794" data-name="Grupo 1101794" transform="translate(0)" clip-path="url(#clip-path-5)">
              <path id="Trazado_877872" data-name="Trazado 877872" d="M107.094,230.971a6.357,6.357,0,0,1-4.449-1.723,6.712,6.712,0,0,1,.176-9.419,12.544,12.544,0,0,1,2.316-1.552,9.086,9.086,0,0,0,2.457-1.763,4.14,4.14,0,0,0,.854-3.422,3.837,3.837,0,0,0-1.832-2.752c-1.578-.875-3.45-.541-5.434-.189a15.884,15.884,0,0,1-4.052.369,7.236,7.236,0,0,1-5.736-3.666,6.5,6.5,0,0,1,.377-6.79,5.9,5.9,0,0,1,6.422-2.171,10.442,10.442,0,0,1,3.45,2.22l.614.517a12.433,12.433,0,0,0,5.108,2.729,4.081,4.081,0,0,0,3.266-.272,4.144,4.144,0,0,0,1.346-3.054,32,32,0,0,0,.061-4.405c-.085-2.783-.164-5.413.88-6.995a8.385,8.385,0,0,1,2.266-2.166,9.79,9.79,0,0,1,6.708-1.973,6.763,6.763,0,0,1,4.515,10.686,12.94,12.94,0,0,1-3.961,3.191c-.474.287-.947.574-1.4.879-1,.668-3.3,2.471-3.085,4.744a.587.587,0,0,0,.07.283.967.967,0,0,0,.368.152,16.338,16.338,0,0,0,4.169.547,5.682,5.682,0,0,0,2.119-.314,7.349,7.349,0,0,0,2.636-2.348l.3-.358a10.226,10.226,0,0,1,4.407-3.39c3.643-1.211,7.444,1.223,9.169,4.117a7.345,7.345,0,0,1,1,5.667A8.692,8.692,0,0,1,139,212.461a8.33,8.33,0,0,1-4.47,2.07c-2.177.149-4.035-1.064-5.822-2.234l-.639-.414a29.172,29.172,0,0,0-5.8-2.863,5.523,5.523,0,0,0-2.148-.436,1.746,1.746,0,0,0-1.483.89,1.964,1.964,0,0,0,.357,1.808c1.116,1.647,3.162,2.211,5.329,2.805,2.152.592,4.378,1.2,5.812,2.961a7.412,7.412,0,0,1,1.09,7.626,7.888,7.888,0,0,1-6.472,4.867,5.805,5.805,0,0,1-5.1-1.886,7.663,7.663,0,0,1-1.282-5.339c.025-.4.057-.8.092-1.2a12.688,12.688,0,0,0-.051-3.807,6.126,6.126,0,0,0-2.369-3.6,1.713,1.713,0,0,0-1.118-.437c-.839.072-1.2,1.331-1.282,2.062a22.8,22.8,0,0,0,.077,4.371c.062.767.123,1.536.146,2.3.094,2.983-.507,5.2-1.837,6.787a6.383,6.383,0,0,1-4.59,2.174c-.12.005-.239.008-.358.008m-2.883-22.348a5.977,5.977,0,0,1,2.968.7,4.985,4.985,0,0,1,2.415,3.569,5.306,5.306,0,0,1-1.126,4.388,10.131,10.131,0,0,1-2.758,2.009,11.371,11.371,0,0,0-2.106,1.4,5.555,5.555,0,0,0-.149,7.726,5.5,5.5,0,0,0,7.7-.373c1.138-1.355,1.651-3.319,1.567-6-.025-.749-.085-1.5-.145-2.248a24.047,24.047,0,0,1-.074-4.593c.152-1.346.854-2.961,2.335-3.091a2.817,2.817,0,0,1,1.9.65,7.308,7.308,0,0,1,2.826,4.3,13.776,13.776,0,0,1,.072,4.155c-.033.392-.066.784-.087,1.174-.12,2.1.2,3.539,1.019,4.535a4.687,4.687,0,0,0,4.079,1.466,6.73,6.73,0,0,0,5.515-4.155,6.263,6.263,0,0,0-.92-6.448c-1.2-1.469-3.15-2.007-5.217-2.576-2.275-.624-4.627-1.269-5.982-3.273a3.1,3.1,0,0,1-.463-2.919,2.87,2.87,0,0,1,2.468-1.589,6.486,6.486,0,0,1,2.626.5A30.461,30.461,0,0,1,128.7,210.9l.649.422c1.627,1.063,3.3,2.156,5.111,2.048a7.316,7.316,0,0,0,3.822-1.823,7.659,7.659,0,0,0,2.793-3.531,6.119,6.119,0,0,0-.881-4.743c-1.494-2.507-4.742-4.62-7.805-3.612a9.2,9.2,0,0,0-3.881,3.034l-.29.351a8.181,8.181,0,0,1-3.1,2.688,6.888,6.888,0,0,1-2.554.4,17.489,17.489,0,0,1-4.467-.585,1.783,1.783,0,0,1-.972-.542,1.626,1.626,0,0,1-.324-.9c-.2-2.044,1.114-4.166,3.6-5.825.469-.314.955-.611,1.443-.906a11.869,11.869,0,0,0,3.628-2.883,5.6,5.6,0,0,0-3.741-8.849,8.679,8.679,0,0,0-5.884,1.778,6.976,6.976,0,0,0-1.957,1.852c-.84,1.275-.762,3.838-.689,6.318a32.246,32.246,0,0,1-.07,4.578c-.221,1.887-.819,3.152-1.826,3.867a5.1,5.1,0,0,1-4.2.458,13.612,13.612,0,0,1-5.589-2.967L100.89,201a9.445,9.445,0,0,0-3.054-2,4.793,4.793,0,0,0-5.126,1.748,5.322,5.322,0,0,0-.3,5.556,6.141,6.141,0,0,0,4.811,3.06,15.131,15.131,0,0,0,3.751-.354,18.819,18.819,0,0,1,3.233-.385" transform="translate(1.17 -138.463)" fill="#fff"/>
              <path id="Trazado_877873" data-name="Trazado 877873" d="M84.159,232.43a6.354,6.354,0,0,1-4.716.732,6.711,6.711,0,0,1-4.554-8.245,12.514,12.514,0,0,1,1.228-2.5,9.059,9.059,0,0,0,1.246-2.755,4.135,4.135,0,0,0-.97-3.39A3.829,3.829,0,0,0,73.43,214.8c-1.8.031-3.258,1.256-4.8,2.553a15.9,15.9,0,0,1-3.325,2.345,7.231,7.231,0,0,1-6.8-.306,6.5,6.5,0,0,1-3.069-6.068,5.9,5.9,0,0,1,4.477-5.091,10.415,10.415,0,0,1,4.1.2l.79.141a12.465,12.465,0,0,0,5.787-.19,4.087,4.087,0,0,0,2.693-1.869,4.149,4.149,0,0,0-.362-3.318,32.084,32.084,0,0,0-2.149-3.845c-1.465-2.369-2.848-4.606-2.734-6.5a8.36,8.36,0,0,1,.88-3.009,9.8,9.8,0,0,1,4.821-5.063,6.765,6.765,0,0,1,9.254,7,12.921,12.921,0,0,1-1.837,4.744c-.266.485-.532.97-.773,1.461-.533,1.079-1.626,3.792-.3,5.653.116.16.178.2.2.209a.958.958,0,0,0,.394-.052,16.325,16.325,0,0,0,3.883-1.611,5.685,5.685,0,0,0,1.678-1.332,7.325,7.325,0,0,0,1.11-3.351l.078-.458a10.213,10.213,0,0,1,2.121-5.139c2.55-2.87,7.059-2.663,10-1.018a7.344,7.344,0,0,1,3.7,4.408,8.7,8.7,0,0,1-.7,5.154,8.329,8.329,0,0,1-2.837,4.028c-1.811,1.216-4.026,1.095-6.159.976l-.761-.04a29.25,29.25,0,0,0-6.452.419,5.536,5.536,0,0,0-2.078.7,1.753,1.753,0,0,0-.839,1.513,1.972,1.972,0,0,0,1.213,1.387c1.79.869,3.844.333,6.018-.235,2.159-.564,4.393-1.146,6.514-.34a7.411,7.411,0,0,1,4.757,6.059,7.886,7.886,0,0,1-3.172,7.45,5.8,5.8,0,0,1-5.356.915c-1.961-.739-3.1-2.628-3.778-3.982-.179-.359-.351-.726-.523-1.089a12.676,12.676,0,0,0-1.946-3.273,6.13,6.13,0,0,0-3.855-1.938,1.712,1.712,0,0,0-1.186.182c-.69.481-.374,1.752-.079,2.425a22.846,22.846,0,0,0,2.251,3.747c.437.634.875,1.269,1.279,1.923,1.573,2.536,2.163,4.761,1.8,6.8a6.373,6.373,0,0,1-2.887,4.177c-.1.064-.2.126-.306.186m-13.67-17.913a5.991,5.991,0,0,1,2.92-.877,4.984,4.984,0,0,1,3.875,1.884,5.312,5.312,0,0,1,1.22,4.363,10.126,10.126,0,0,1-1.386,3.118A11.414,11.414,0,0,0,76,225.271a5.554,5.554,0,0,0,3.735,6.765,5.495,5.495,0,0,0,6.477-4.172c.309-1.744-.23-3.7-1.644-5.981-.395-.638-.823-1.257-1.249-1.876a23.991,23.991,0,0,1-2.359-3.939c-.542-1.241-.743-2.993.477-3.845a2.815,2.815,0,0,1,1.97-.385A7.3,7.3,0,0,1,88,214.147a13.746,13.746,0,0,1,2.141,3.562c.167.355.336.712.511,1.06.944,1.878,1.946,2.962,3.15,3.418a4.687,4.687,0,0,0,4.266-.769,6.731,6.731,0,0,0,2.7-6.357,6.263,6.263,0,0,0-4.02-5.124c-1.771-.674-3.732-.163-5.806.378-2.282.6-4.642,1.212-6.817.156a3.1,3.1,0,0,1-1.86-2.3,2.861,2.861,0,0,1,1.342-2.61,6.471,6.471,0,0,1,2.525-.879,30.407,30.407,0,0,1,6.709-.437l.772.041c1.942.107,3.934.219,5.451-.782a7.306,7.306,0,0,0,2.4-3.489,7.653,7.653,0,0,0,.655-4.455,6.119,6.119,0,0,0-3.135-3.668c-2.547-1.425-6.416-1.63-8.565.775a9.2,9.2,0,0,0-1.845,4.568l-.075.448a8.173,8.173,0,0,1-1.34,3.877,6.871,6.871,0,0,1-2.013,1.622,17.519,17.519,0,0,1-4.161,1.727,1.8,1.8,0,0,1-1.112.016,1.636,1.636,0,0,1-.731-.619c-1.192-1.673-1.118-4.165.2-6.843.249-.506.522-1.006.8-1.506a11.857,11.857,0,0,0,1.7-4.31,5.6,5.6,0,0,0-7.664-5.8,8.676,8.676,0,0,0-4.207,4.483,7,7,0,0,0-.769,2.58c-.09,1.525,1.259,3.707,2.563,5.817a32.338,32.338,0,0,1,2.227,4c.753,1.746.868,3.141.351,4.263a5.088,5.088,0,0,1-3.4,2.492,13.585,13.585,0,0,1-6.324.225l-.809-.143a9.428,9.428,0,0,0-3.644-.2,4.79,4.79,0,0,0-3.565,4.076,5.318,5.318,0,0,0,2.521,4.959,6.142,6.142,0,0,0,5.7.245,15.115,15.115,0,0,0,3.072-2.182,18.8,18.8,0,0,1,2.607-1.95" transform="translate(-11.733 -138.507)" fill="#fff"/>
              <path id="Trazado_877874" data-name="Trazado 877874" d="M56.436,218.813a6.354,6.354,0,0,1-4.716.732,6.711,6.711,0,0,1-4.554-8.245,12.515,12.515,0,0,1,1.228-2.5,9.059,9.059,0,0,0,1.246-2.755,4.135,4.135,0,0,0-.97-3.39,3.829,3.829,0,0,0-2.964-1.468c-1.8.031-3.258,1.256-4.8,2.553a15.9,15.9,0,0,1-3.325,2.345,7.231,7.231,0,0,1-6.8-.306,6.5,6.5,0,0,1-3.069-6.068,5.9,5.9,0,0,1,4.477-5.091,10.415,10.415,0,0,1,4.1.2l.79.141a12.465,12.465,0,0,0,5.787-.19,4.087,4.087,0,0,0,2.693-1.869,4.149,4.149,0,0,0-.362-3.318,31.893,31.893,0,0,0-2.149-3.845c-1.465-2.369-2.848-4.606-2.734-6.5a8.36,8.36,0,0,1,.88-3.009,9.789,9.789,0,0,1,4.821-5.061,6.764,6.764,0,0,1,9.254,7,12.922,12.922,0,0,1-1.837,4.744c-.266.485-.532.97-.773,1.461-.533,1.08-1.626,3.792-.3,5.653.116.16.178.2.2.209a.95.95,0,0,0,.392-.052,16.313,16.313,0,0,0,3.885-1.611,5.685,5.685,0,0,0,1.678-1.332,7.325,7.325,0,0,0,1.11-3.351l.078-.458a10.213,10.213,0,0,1,2.121-5.139c2.55-2.87,7.059-2.663,10-1.018a7.344,7.344,0,0,1,3.7,4.408,8.7,8.7,0,0,1-.7,5.154,8.329,8.329,0,0,1-2.837,4.028c-1.811,1.216-4.026,1.095-6.159.976l-.761-.04a29.251,29.251,0,0,0-6.452.419,5.528,5.528,0,0,0-2.078.7,1.75,1.75,0,0,0-.839,1.513,1.972,1.972,0,0,0,1.213,1.387c1.79.869,3.844.333,6.018-.235,2.159-.564,4.393-1.146,6.513-.34a7.41,7.41,0,0,1,4.758,6.059,7.885,7.885,0,0,1-3.172,7.45,5.8,5.8,0,0,1-5.357.916c-1.961-.739-3.1-2.628-3.778-3.982-.179-.359-.351-.726-.523-1.089a12.7,12.7,0,0,0-1.946-3.273,6.13,6.13,0,0,0-3.855-1.938,1.712,1.712,0,0,0-1.186.182c-.69.481-.374,1.752-.079,2.425a22.916,22.916,0,0,0,2.251,3.748c.437.633.875,1.268,1.28,1.921,1.571,2.537,2.162,4.761,1.8,6.8a6.373,6.373,0,0,1-2.887,4.177c-.1.064-.2.126-.306.186M42.766,200.9a5.975,5.975,0,0,1,2.92-.877,4.984,4.984,0,0,1,3.875,1.884,5.312,5.312,0,0,1,1.22,4.363,10.127,10.127,0,0,1-1.386,3.118,11.413,11.413,0,0,0-1.123,2.266,5.554,5.554,0,0,0,3.735,6.765,5.5,5.5,0,0,0,6.478-4.172c.307-1.742-.231-3.7-1.645-5.981-.395-.638-.823-1.257-1.249-1.876a23.931,23.931,0,0,1-2.359-3.939c-.542-1.241-.743-2.991.477-3.845a2.813,2.813,0,0,1,1.969-.385,7.3,7.3,0,0,1,4.6,2.309,13.746,13.746,0,0,1,2.141,3.562c.167.355.336.712.511,1.06.944,1.878,1.946,2.962,3.15,3.418a4.688,4.688,0,0,0,4.266-.769,6.731,6.731,0,0,0,2.7-6.357,6.263,6.263,0,0,0-4.02-5.124c-1.771-.674-3.732-.163-5.806.379-2.282.6-4.642,1.212-6.817.156a3.1,3.1,0,0,1-1.86-2.3,2.863,2.863,0,0,1,1.342-2.61,6.47,6.47,0,0,1,2.525-.879,30.405,30.405,0,0,1,6.709-.437l.772.041c1.942.107,3.934.219,5.451-.782a7.306,7.306,0,0,0,2.4-3.489,7.653,7.653,0,0,0,.655-4.455,6.119,6.119,0,0,0-3.135-3.668c-2.547-1.425-6.416-1.63-8.565.775a9.2,9.2,0,0,0-1.845,4.568l-.075.448a8.173,8.173,0,0,1-1.34,3.877,6.872,6.872,0,0,1-2.013,1.622,17.519,17.519,0,0,1-4.161,1.727,1.8,1.8,0,0,1-1.112.016,1.636,1.636,0,0,1-.731-.619c-1.192-1.671-1.118-4.165.2-6.843.249-.506.522-1.006.8-1.506a11.829,11.829,0,0,0,1.7-4.31,5.6,5.6,0,0,0-7.663-5.8,8.676,8.676,0,0,0-4.207,4.483,6.972,6.972,0,0,0-.769,2.58c-.09,1.525,1.259,3.707,2.563,5.817a32.345,32.345,0,0,1,2.227,4c.753,1.746.868,3.141.351,4.263a5.088,5.088,0,0,1-3.4,2.492,13.584,13.584,0,0,1-6.324.225l-.808-.143a9.436,9.436,0,0,0-3.646-.2,4.79,4.79,0,0,0-3.565,4.076,5.318,5.318,0,0,0,2.521,4.959,6.142,6.142,0,0,0,5.7.245,15.116,15.116,0,0,0,3.072-2.182,18.8,18.8,0,0,1,2.607-1.95" transform="translate(-21.892 -143.497)" fill="#fff"/>
              <path id="Trazado_877875" data-name="Trazado 877875" d="M128.75,181.084a6.359,6.359,0,0,1-.169,4.769,6.714,6.714,0,0,1-8.957,2.92,12.532,12.532,0,0,1-2.225-1.679,9.063,9.063,0,0,0-2.471-1.744,4.138,4.138,0,0,0-3.512.314,3.83,3.83,0,0,0-2,2.633c-.309,1.779.619,3.437,1.6,5.2a15.883,15.883,0,0,1,1.675,3.706,7.233,7.233,0,0,1-1.582,6.622,6.5,6.5,0,0,1-6.538,1.869,5.9,5.9,0,0,1-4.155-5.357,10.422,10.422,0,0,1,.966-3.987l.287-.749a12.449,12.449,0,0,0,.9-5.72,4.083,4.083,0,0,0-1.328-3,4.149,4.149,0,0,0-3.326-.271A31.966,31.966,0,0,0,93.738,188c-2.6.991-5.059,1.928-6.9,1.459a8.342,8.342,0,0,1-2.789-1.431,9.785,9.785,0,0,1-4.062-5.689,6.765,6.765,0,0,1,8.616-7.77,12.948,12.948,0,0,1,4.313,2.7c.426.354.853.706,1.289,1.036.961.727,3.418,2.312,5.495,1.361.179-.082.231-.135.245-.159a.95.95,0,0,0,.022-.4,16.287,16.287,0,0,0-.849-4.118,5.679,5.679,0,0,0-.992-1.9,7.328,7.328,0,0,0-3.083-1.722l-.435-.164a10.2,10.2,0,0,1-4.647-3.051c-2.338-3.044-1.284-7.435.885-10.012a7.341,7.341,0,0,1,5.026-2.8A8.694,8.694,0,0,1,100.8,157a8.316,8.316,0,0,1,3.422,3.545c.854,2.007.317,4.16-.2,6.232l-.183.741a29.162,29.162,0,0,0-.8,6.414,5.549,5.549,0,0,0,.292,2.173,1.753,1.753,0,0,0,1.327,1.11,1.97,1.97,0,0,0,1.591-.931c1.19-1.595,1.052-3.711.9-5.954-.146-2.227-.3-4.531.894-6.461a7.409,7.409,0,0,1,6.847-3.531,7.89,7.89,0,0,1,6.719,4.519,5.808,5.808,0,0,1-.111,5.433,7.662,7.662,0,0,1-4.623,2.96c-.387.108-.779.209-1.168.309a12.684,12.684,0,0,0-3.581,1.3,6.121,6.121,0,0,0-2.628,3.42,1.709,1.709,0,0,0-.046,1.2c.343.769,1.651.7,2.368.536a22.8,22.8,0,0,0,4.1-1.5c.705-.31,1.412-.619,2.129-.894,2.788-1.066,5.082-1.227,7.014-.489a6.374,6.374,0,0,1,3.558,3.624c.045.111.086.223.126.335m-20.169,10.049a5.963,5.963,0,0,1-.31-3.034,4.98,4.98,0,0,1,2.581-3.45,5.306,5.306,0,0,1,4.513-.376,10.09,10.09,0,0,1,2.8,1.949,11.51,11.51,0,0,0,2.013,1.53,5.553,5.553,0,0,0,7.347-2.393,5.494,5.494,0,0,0-2.875-7.148c-1.653-.631-3.676-.471-6.183.486-.7.269-1.39.571-2.077.873a23.854,23.854,0,0,1-4.315,1.574c-1.321.3-3.077.165-3.685-1.193a2.815,2.815,0,0,1-.008-2.007,7.31,7.31,0,0,1,3.135-4.078,13.768,13.768,0,0,1,3.9-1.431c.381-.1.762-.2,1.138-.3,2.021-.574,3.277-1.353,3.95-2.449a4.686,4.686,0,0,0,.048-4.334,6.728,6.728,0,0,0-5.734-3.849,6.264,6.264,0,0,0-5.79,2.982c-1,1.612-.864,3.635-.723,5.775.156,2.353.316,4.787-1.133,6.724a3.1,3.1,0,0,1-2.6,1.394,2.865,2.865,0,0,1-2.311-1.811,6.465,6.465,0,0,1-.387-2.645,30.493,30.493,0,0,1,.835-6.671l.186-.752c.471-1.886.957-3.822.261-5.5a7.326,7.326,0,0,0-2.975-3.013A7.66,7.66,0,0,0,95.93,156.5a6.109,6.109,0,0,0-4.192,2.387c-1.88,2.231-2.811,5.993-.854,8.557a9.2,9.2,0,0,0,4.138,2.673l.426.159A8.175,8.175,0,0,1,99,172.326a6.848,6.848,0,0,1,1.212,2.283,17.441,17.441,0,0,1,.913,4.411,1.786,1.786,0,0,1-.194,1.1,1.655,1.655,0,0,1-.745.6c-1.867.855-4.3.313-6.683-1.488-.45-.34-.89-.7-1.33-1.067a11.836,11.836,0,0,0-3.911-2.483,5.6,5.6,0,0,0-7.136,6.435,8.683,8.683,0,0,0,3.609,4.977,6.963,6.963,0,0,0,2.39,1.242c1.481.376,3.878-.537,6.2-1.42a32.405,32.405,0,0,1,4.347-1.435c1.857-.41,3.248-.26,4.252.458a5.092,5.092,0,0,1,1.808,3.812A13.59,13.59,0,0,1,102.76,196l-.294.767a9.442,9.442,0,0,0-.888,3.542,4.791,4.791,0,0,0,3.331,4.269,5.323,5.323,0,0,0,5.346-1.541,6.139,6.139,0,0,0,1.313-5.548A15.038,15.038,0,0,0,110,194.061a18.723,18.723,0,0,1-1.424-2.928" transform="translate(-2.768 -149.123)" fill="#fff"/>
              <path id="Trazado_877876" data-name="Trazado 877876" d="M98.352,169.595a6.353,6.353,0,0,1-.168,4.769,6.714,6.714,0,0,1-8.957,2.92A12.467,12.467,0,0,1,87,175.6a9.084,9.084,0,0,0-2.471-1.744,4.133,4.133,0,0,0-3.512.316,3.828,3.828,0,0,0-2,2.633c-.309,1.778.619,3.435,1.6,5.2a15.883,15.883,0,0,1,1.675,3.706,7.233,7.233,0,0,1-1.582,6.622,6.5,6.5,0,0,1-6.538,1.869,5.9,5.9,0,0,1-4.155-5.357,10.422,10.422,0,0,1,.966-3.987l.287-.749a12.449,12.449,0,0,0,.9-5.72,4.083,4.083,0,0,0-1.328-3,4.149,4.149,0,0,0-3.326-.271,31.9,31.9,0,0,0-4.183,1.387c-2.6.991-5.059,1.928-6.9,1.461a8.367,8.367,0,0,1-2.789-1.432,9.773,9.773,0,0,1-4.062-5.689,6.765,6.765,0,0,1,8.615-7.77,12.947,12.947,0,0,1,4.313,2.7c.426.354.853.706,1.289,1.037.961.726,3.418,2.311,5.495,1.36a.586.586,0,0,0,.245-.158.95.95,0,0,0,.022-.4,16.287,16.287,0,0,0-.849-4.119,5.7,5.7,0,0,0-.992-1.9,7.345,7.345,0,0,0-3.083-1.723l-.435-.161a10.217,10.217,0,0,1-4.647-3.053c-2.338-3.044-1.284-7.435.885-10.012a7.341,7.341,0,0,1,5.026-2.8,8.694,8.694,0,0,1,4.929,1.662,8.316,8.316,0,0,1,3.422,3.545c.854,2.007.317,4.161-.2,6.232l-.183.741a29.162,29.162,0,0,0-.8,6.414,5.524,5.524,0,0,0,.292,2.173,1.753,1.753,0,0,0,1.327,1.11,1.97,1.97,0,0,0,1.591-.931c1.19-1.595,1.052-3.711.9-5.954-.146-2.227-.3-4.531.894-6.461a7.409,7.409,0,0,1,6.847-3.531,7.89,7.89,0,0,1,6.719,4.519,5.808,5.808,0,0,1-.111,5.433,7.661,7.661,0,0,1-4.624,2.96c-.385.108-.778.209-1.167.309a12.725,12.725,0,0,0-3.581,1.3,6.122,6.122,0,0,0-2.628,3.42,1.713,1.713,0,0,0-.046,1.2c.343.768,1.651.7,2.368.534a22.8,22.8,0,0,0,4.1-1.5c.705-.31,1.412-.619,2.129-.894,2.788-1.066,5.082-1.227,7.014-.489a6.374,6.374,0,0,1,3.558,3.624c.045.111.086.223.124.335M78.185,179.644a5.978,5.978,0,0,1-.312-3.034,4.986,4.986,0,0,1,2.583-3.45,5.306,5.306,0,0,1,4.513-.376,10.09,10.09,0,0,1,2.8,1.949,11.51,11.51,0,0,0,2.013,1.53,5.553,5.553,0,0,0,7.347-2.393,5.494,5.494,0,0,0-2.875-7.148c-1.653-.631-3.676-.471-6.183.486-.7.269-1.39.571-2.077.873a23.854,23.854,0,0,1-4.315,1.574c-1.321.3-3.077.165-3.685-1.193a2.815,2.815,0,0,1-.008-2.007,7.3,7.3,0,0,1,3.135-4.076,13.715,13.715,0,0,1,3.9-1.432c.381-.1.762-.2,1.138-.3,2.021-.574,3.277-1.353,3.95-2.449a4.686,4.686,0,0,0,.048-4.334,6.728,6.728,0,0,0-5.734-3.849A6.264,6.264,0,0,0,78.636,153c-1,1.612-.864,3.635-.724,5.775.156,2.353.317,4.787-1.131,6.724a3.1,3.1,0,0,1-2.606,1.394,2.865,2.865,0,0,1-2.309-1.811,6.465,6.465,0,0,1-.387-2.645,30.494,30.494,0,0,1,.835-6.671l.186-.752c.471-1.886.957-3.822.261-5.5a7.321,7.321,0,0,0-2.975-3.014,7.66,7.66,0,0,0-4.251-1.481,6.109,6.109,0,0,0-4.192,2.387c-1.88,2.231-2.811,5.993-.854,8.557a9.2,9.2,0,0,0,4.138,2.673l.426.159a8.183,8.183,0,0,1,3.556,2.047,6.848,6.848,0,0,1,1.212,2.283,17.442,17.442,0,0,1,.913,4.411,1.786,1.786,0,0,1-.194,1.1,1.655,1.655,0,0,1-.745.6c-1.868.855-4.3.313-6.683-1.488-.45-.34-.89-.7-1.33-1.067a11.836,11.836,0,0,0-3.911-2.483,5.6,5.6,0,0,0-7.136,6.435,8.683,8.683,0,0,0,3.609,4.977,6.951,6.951,0,0,0,2.39,1.242c1.481.376,3.878-.537,6.2-1.42a32.41,32.41,0,0,1,4.347-1.435c1.857-.41,3.248-.26,4.252.458a5.092,5.092,0,0,1,1.808,3.812,13.608,13.608,0,0,1-.972,6.253l-.294.767a9.448,9.448,0,0,0-.888,3.542,4.791,4.791,0,0,0,3.331,4.269,5.32,5.32,0,0,0,5.346-1.541A6.139,6.139,0,0,0,81.172,186a15.038,15.038,0,0,0-1.563-3.428,18.72,18.72,0,0,1-1.424-2.928" transform="translate(-13.907 -153.333)" fill="#fff"/>
              <path id="Trazado_877877" data-name="Trazado 877877" d="M59.232,168.431a6.359,6.359,0,0,1-.169,4.769,6.714,6.714,0,0,1-8.957,2.92,12.533,12.533,0,0,1-2.225-1.679A9.064,9.064,0,0,0,45.41,172.7a4.134,4.134,0,0,0-3.512.316,3.827,3.827,0,0,0-2,2.633c-.309,1.778.619,3.435,1.6,5.2a15.909,15.909,0,0,1,1.675,3.706,7.233,7.233,0,0,1-1.582,6.622,6.5,6.5,0,0,1-6.538,1.869,5.9,5.9,0,0,1-4.155-5.356,10.422,10.422,0,0,1,.966-3.987l.287-.749a12.449,12.449,0,0,0,.9-5.72,4.083,4.083,0,0,0-1.328-3,4.149,4.149,0,0,0-3.326-.271,31.966,31.966,0,0,0-4.183,1.387c-2.6.991-5.059,1.928-6.9,1.461a8.367,8.367,0,0,1-2.789-1.432,9.785,9.785,0,0,1-4.062-5.689,6.765,6.765,0,0,1,8.616-7.77,12.948,12.948,0,0,1,4.313,2.7c.426.354.853.706,1.289,1.037.961.726,3.419,2.311,5.5,1.36.178-.082.23-.135.243-.159a.95.95,0,0,0,.022-.4,16.287,16.287,0,0,0-.849-4.119,5.679,5.679,0,0,0-.992-1.9,7.328,7.328,0,0,0-3.083-1.722l-.435-.164a10.21,10.21,0,0,1-4.647-3.051c-2.338-3.044-1.284-7.435.885-10.012a7.341,7.341,0,0,1,5.026-2.8,8.694,8.694,0,0,1,4.929,1.662,8.327,8.327,0,0,1,3.423,3.545c.853,2.007.316,4.161-.2,6.232l-.183.741a29.162,29.162,0,0,0-.8,6.414,5.549,5.549,0,0,0,.292,2.173,1.751,1.751,0,0,0,1.327,1.11,1.97,1.97,0,0,0,1.591-.931c1.19-1.595,1.052-3.711.9-5.954-.148-2.227-.3-4.531.892-6.461a7.409,7.409,0,0,1,6.847-3.531,7.89,7.89,0,0,1,6.719,4.519,5.808,5.808,0,0,1-.111,5.433,7.662,7.662,0,0,1-4.623,2.96c-.387.108-.779.209-1.168.309a12.726,12.726,0,0,0-3.581,1.3,6.122,6.122,0,0,0-2.628,3.42,1.713,1.713,0,0,0-.046,1.2c.343.768,1.651.7,2.368.534a22.8,22.8,0,0,0,4.1-1.5c.705-.31,1.412-.619,2.129-.894,2.788-1.066,5.082-1.227,7.015-.489a6.376,6.376,0,0,1,3.557,3.624c.045.111.086.223.126.335M39.063,178.48a5.978,5.978,0,0,1-.31-3.034A4.98,4.98,0,0,1,41.334,172a5.306,5.306,0,0,1,4.513-.376,10.089,10.089,0,0,1,2.8,1.949,11.51,11.51,0,0,0,2.013,1.53,5.555,5.555,0,0,0,7.349-2.393,5.5,5.5,0,0,0-2.876-7.148c-1.653-.631-3.676-.471-6.183.486-.7.269-1.39.571-2.077.873a23.876,23.876,0,0,1-4.314,1.574c-1.323.3-3.079.165-3.687-1.193a2.815,2.815,0,0,1-.008-2.007A7.3,7.3,0,0,1,42,161.216a13.73,13.73,0,0,1,3.9-1.432c.381-.1.762-.2,1.138-.3,2.021-.574,3.277-1.353,3.95-2.449a4.686,4.686,0,0,0,.048-4.334A6.728,6.728,0,0,0,45.3,148.85a6.264,6.264,0,0,0-5.79,2.982c-1,1.612-.864,3.635-.723,5.775.156,2.353.316,4.787-1.133,6.724a3.1,3.1,0,0,1-2.6,1.394,2.865,2.865,0,0,1-2.311-1.811,6.465,6.465,0,0,1-.387-2.645,30.5,30.5,0,0,1,.835-6.671l.186-.75c.471-1.887.957-3.823.261-5.5a7.322,7.322,0,0,0-2.975-3.014,7.66,7.66,0,0,0-4.251-1.481,6.111,6.111,0,0,0-4.192,2.387c-1.88,2.231-2.811,5.993-.854,8.557a9.2,9.2,0,0,0,4.138,2.673l.426.159a8.168,8.168,0,0,1,3.556,2.047,6.848,6.848,0,0,1,1.212,2.283,17.442,17.442,0,0,1,.913,4.411,1.786,1.786,0,0,1-.194,1.1,1.655,1.655,0,0,1-.745.6c-1.867.855-4.3.313-6.683-1.488-.45-.34-.89-.7-1.33-1.067a11.858,11.858,0,0,0-3.911-2.483,5.6,5.6,0,0,0-7.136,6.435,8.683,8.683,0,0,0,3.609,4.977,6.963,6.963,0,0,0,2.39,1.242c1.481.376,3.878-.537,6.2-1.42a32.408,32.408,0,0,1,4.347-1.435c1.857-.41,3.248-.26,4.252.458a5.092,5.092,0,0,1,1.808,3.812,13.59,13.59,0,0,1-.972,6.253l-.294.767a9.442,9.442,0,0,0-.888,3.542,4.791,4.791,0,0,0,3.331,4.269,5.32,5.32,0,0,0,5.346-1.541,6.139,6.139,0,0,0,1.313-5.548,15.038,15.038,0,0,0-1.563-3.428,18.72,18.72,0,0,1-1.424-2.928" transform="translate(-28.243 -153.759)" fill="#fff"/>
              <path id="Trazado_877878" data-name="Trazado 877878" d="M155.7,174.151a6.357,6.357,0,0,1-1.741,4.444,6.713,6.713,0,0,1-9.418-.216A12.506,12.506,0,0,1,143,176.057a9.078,9.078,0,0,0-1.752-2.465,4.142,4.142,0,0,0-3.419-.868,3.833,3.833,0,0,0-2.76,1.82c-.88,1.576-.555,3.448-.21,5.433a15.9,15.9,0,0,1,.351,4.053,7.233,7.233,0,0,1-3.689,5.721,6.5,6.5,0,0,1-6.787-.4,5.9,5.9,0,0,1-2.145-6.431,10.417,10.417,0,0,1,2.236-3.442l.519-.612a12.445,12.445,0,0,0,2.749-5.1,4.083,4.083,0,0,0-.258-3.267,4.15,4.15,0,0,0-3.049-1.358,31.882,31.882,0,0,0-4.405-.079c-2.783.072-5.413.142-6.991-.91a8.348,8.348,0,0,1-2.156-2.274,9.785,9.785,0,0,1-1.946-6.716,6.765,6.765,0,0,1,10.7-4.471,12.953,12.953,0,0,1,3.174,3.975c.284.476.568.948.872,1.4.664,1,2.457,3.315,4.732,3.106a.6.6,0,0,0,.283-.068.959.959,0,0,0,.153-.368,16.269,16.269,0,0,0,.564-4.166,5.673,5.673,0,0,0-.306-2.119,7.344,7.344,0,0,0-2.337-2.647l-.357-.3a10.224,10.224,0,0,1-3.372-4.421c-1.194-3.648,1.254-7.439,4.157-9.151a7.337,7.337,0,0,1,5.669-.976,8.694,8.694,0,0,1,4.1,3.2,8.322,8.322,0,0,1,2.052,4.479c.139,2.177-1.081,4.03-2.257,5.813l-.418.637a29.172,29.172,0,0,0-2.886,5.786,5.509,5.509,0,0,0-.445,2.145,1.748,1.748,0,0,0,.884,1.487,1.967,1.967,0,0,0,1.809-.35c1.652-1.108,2.223-3.152,2.827-5.317.6-2.149,1.222-4.373,2.986-5.8a7.415,7.415,0,0,1,7.63-1.06,7.892,7.892,0,0,1,4.84,6.493,5.8,5.8,0,0,1-1.908,5.087,7.656,7.656,0,0,1-5.343,1.26c-.4-.026-.8-.061-1.2-.1a12.705,12.705,0,0,0-3.807.034,6.127,6.127,0,0,0-3.614,2.354,1.719,1.719,0,0,0-.441,1.118c.068.838,1.325,1.2,2.057,1.289a22.751,22.751,0,0,0,4.37-.057c.768-.059,1.537-.116,2.305-.138,2.983-.081,5.2.529,6.779,1.867a6.379,6.379,0,0,1,2.155,4.6c.005.12.007.239.007.357m-22.359,2.792a5.976,5.976,0,0,1,.713-2.965,4.983,4.983,0,0,1,3.579-2.4,5.309,5.309,0,0,1,4.384,1.144,10.094,10.094,0,0,1,2,2.767,11.479,11.479,0,0,0,1.391,2.111,5.553,5.553,0,0,0,7.726.18,5.5,5.5,0,0,0-.342-7.7c-1.351-1.144-3.312-1.664-6-1.592-.75.021-1.5.078-2.249.135a24.046,24.046,0,0,1-4.591.055c-1.346-.157-2.96-.865-3.083-2.349a2.817,2.817,0,0,1,.659-1.9,7.3,7.3,0,0,1,4.308-2.808,13.781,13.781,0,0,1,4.157-.056c.392.036.784.068,1.174.093,2.1.128,3.539-.19,4.538-1a4.687,4.687,0,0,0,1.484-4.073,6.728,6.728,0,0,0-4.132-5.533,6.264,6.264,0,0,0-6.452.894c-1.474,1.19-2.02,3.141-2.6,5.206-.633,2.272-1.289,4.621-3.3,5.969a3.1,3.1,0,0,1-2.92.451,2.863,2.863,0,0,1-1.58-2.473,6.5,6.5,0,0,1,.512-2.625,30.5,30.5,0,0,1,3-6.017l.425-.646c1.07-1.623,2.17-3.289,2.069-5.1a7.3,7.3,0,0,0-1.806-3.83,7.663,7.663,0,0,0-3.519-2.807,6.116,6.116,0,0,0-4.747.861c-2.513,1.483-4.639,4.722-3.643,7.79a9.178,9.178,0,0,0,3.017,3.893l.35.291a8.168,8.168,0,0,1,2.674,3.111,6.842,6.842,0,0,1,.387,2.555,17.426,17.426,0,0,1-.6,4.464,1.793,1.793,0,0,1-.545.969,1.632,1.632,0,0,1-.9.32c-2.046.189-4.162-1.131-5.812-3.62-.312-.47-.607-.958-.9-1.447a11.849,11.849,0,0,0-2.867-3.639,5.6,5.6,0,0,0-8.866,3.7,8.685,8.685,0,0,0,1.755,5.892,6.962,6.962,0,0,0,1.842,1.964c1.272.846,3.836.779,6.316.715a32.563,32.563,0,0,1,4.578.089c1.887.23,3.15.832,3.859,1.843a5.083,5.083,0,0,1,.44,4.2,13.563,13.563,0,0,1-2.99,5.576l-.53.626a9.461,9.461,0,0,0-2.013,3.047,4.791,4.791,0,0,0,1.727,5.132,5.317,5.317,0,0,0,5.553.318,6.141,6.141,0,0,0,3.08-4.8,15.064,15.064,0,0,0-.339-3.752,18.8,18.8,0,0,1-.372-3.234" transform="translate(7.986 -155.209)" fill="#fff"/>
            </g>
          </g>
          <g id="Grupo_1101803" data-name="Grupo 1101803">
            <g id="Grupo_1101802" data-name="Grupo 1101802" clip-path="url(#clip-path-2)">
              <g id="Grupo_1101798" data-name="Grupo 1101798" transform="translate(52.1 206.048)" opacity="0.5" style="mix-blend-mode: multiply;isolation: isolate">
                <g id="Grupo_1101797" data-name="Grupo 1101797">
                  <g id="Grupo_1101796" data-name="Grupo 1101796" clip-path="url(#clip-path-7)">
                    <path id="Trazado_877880" data-name="Trazado 877880" d="M38.278,153.549s-.057.126-.15.336c1.791,4.539,10.1,10.068,12.5,11.724a39.989,39.989,0,0,0,8.682,4.7,43.675,43.675,0,0,0,15.729,2.281c13.742-.138,27.194-3.643,40.744-5.948,10.891-1.853,22.236-2.891,33-.843a137.582,137.582,0,0,0-2.723-15S71.7,172.705,38.278,153.549" transform="translate(-38.128 -150.79)" fill="#3c81e5"/>
                  </g>
                </g>
              </g>
              <g id="Grupo_1101801" data-name="Grupo 1101801" transform="translate(80.69 254.572)" opacity="0.5" style="mix-blend-mode: multiply;isolation: isolate">
                <g id="Grupo_1101800" data-name="Grupo 1101800">
                  <g id="Grupo_1101799" data-name="Grupo 1101799" clip-path="url(#clip-path-8)">
                    <path id="Trazado_877881" data-name="Trazado 877881" d="M69.164,186.748s-4.086,19.2-10.113,30.931c2.195.913,4.359,1.9,6.459,3,0,0,11.843-28.7,14.576-33.25,0,0-5.9-1.988-10.922-.678" transform="translate(-59.05 -186.301)" fill="#3c81e5"/>
                  </g>
                </g>
              </g>
              <path id="Trazado_877882" data-name="Trazado 877882" d="M69,160.939s0,18.084,4.325,35.184l6.29.982s-3.146-22.8-2.163-36.952" transform="translate(25.284 58.689)" fill="none" stroke="#153b72" stroke-linecap="round" stroke-miterlimit="10" stroke-width="0.567"/>
              <path id="Trazado_877883" data-name="Trazado 877883" d="M101.649,155.406s8.648,11.6,20.834,12.58" transform="translate(37.25 56.949)" fill="none" stroke="#153b72" stroke-linecap="round" stroke-miterlimit="10" stroke-width="0.567"/>
              <path id="Trazado_877884" data-name="Trazado 877884" d="M35.912,166.5s7.469,0,16.117-10.81" transform="translate(13.16 57.055)" fill="none" stroke="#153b72" stroke-linecap="round" stroke-miterlimit="10" stroke-width="0.567"/>
              <path id="Trazado_877885" data-name="Trazado 877885" d="M112.437,151.522s7.272,9.042,4.52,33.611,1.376,48.353,1.376,48.353" transform="translate(41.203 55.526)" fill="none" stroke="#153b72" stroke-linecap="round" stroke-miterlimit="10" stroke-width="0.567"/>
              <path id="Trazado_877886" data-name="Trazado 877886" d="M65.537,186.686a75.16,75.16,0,0,1,27.928,3.668" transform="translate(24.016 68.366)" fill="none" stroke="#153b72" stroke-linecap="round" stroke-miterlimit="10" stroke-width="0.567"/>
              <path id="Trazado_877887" data-name="Trazado 877887" d="M72.946,187.052s-9.828,21.031-12.58,30.073" transform="translate(22.121 68.546)" fill="none" stroke="#153b72" stroke-linecap="round" stroke-miterlimit="10" stroke-width="0.567"/>
              <path id="Trazado_877888" data-name="Trazado 877888" d="M26.456,154.913c.879,3.822,1.376,8.288-1.189,11.253-.668.772-1.5,1.33-1.7,2.359A7.457,7.457,0,0,0,23.815,172c.35,1.2.868,2.353,1.111,3.579a4.628,4.628,0,0,1-.556,3.6,2.505,2.505,0,0,1-3.295.769c-.368-.26-.7-.664-1.146-.659a3.211,3.211,0,0,1-5.44,1.809,2.009,2.009,0,0,1-3.733.972,1.627,1.627,0,0,1-1.182,2.047,2.614,2.614,0,0,1-2.419-.846,7.231,7.231,0,0,1-1.335-2.311c-1.7-4.109-2.714-8.453-4.474-12.536-.737-1.705-1.533-3.5-1.306-5.408a13.246,13.246,0,0,1,1.149-3.441,57.369,57.369,0,0,0,1.988-6.008q.568-1.957,1.137-3.914a12.232,12.232,0,0,1,3.862-6.44,11.173,11.173,0,0,1,7.354-2.084c2.357.12,7.954.838,9.442,3.043s.836,7.923,1.484,10.738" transform="translate(0 51.713)" fill="#fbac98"/>
              <path id="Trazado_877889" data-name="Trazado 877889" d="M8.785,166.468a10.643,10.643,0,0,0,2.611-6.832,1.182,1.182,0,0,1,.128-.62,1.13,1.13,0,0,1,.34-.3,14.64,14.64,0,0,0,3.027-2.439,5.273,5.273,0,0,0,1.431-3.53,9.011,9.011,0,0,1-4.285,3.118,26.812,26.812,0,0,1-5.231,1.215,10.585,10.585,0,0,1-.612,7.849c-.268.537-.582,1.049-.9,1.558a2.451,2.451,0,0,1-.987,1.036c-.821.359-1.723-.239-2.419-.8.392.318-.026,1.671.506,2.158.492.451,1.373.238,1.955.123a8.282,8.282,0,0,0,4.436-2.533" transform="translate(0.692 55.976)" fill="#e58373"/>
              <path id="Trazado_877890" data-name="Trazado 877890" d="M.858,163.43l1.528,3.288a2.223,2.223,0,0,0,.723,1,1.681,1.681,0,0,0,1.528,0,5.089,5.089,0,0,0,2.529-2.982,10.611,10.611,0,0,0,.148-7.275,12.613,12.613,0,0,0,10.494-5.821" transform="translate(0.314 55.572)" fill="none" stroke="#d36d59" stroke-linecap="round" stroke-linejoin="round" stroke-width="0.567"/>
              <path id="Trazado_877891" data-name="Trazado 877891" d="M15.264,172.067s-1.775-6.288-1.627-10.876" transform="translate(4.994 59.069)" fill="none" stroke="#d36d59" stroke-linecap="round" stroke-linejoin="round" stroke-width="0.567"/>
              <path id="Trazado_877892" data-name="Trazado 877892" d="M11,173.267s-1.554-7-1.48-10.777" transform="translate(3.488 59.545)" fill="none" stroke="#d36d59" stroke-linecap="round" stroke-linejoin="round" stroke-width="0.567"/>
              <path id="Trazado_877893" data-name="Trazado 877893" d="M8.366,173.764A26.835,26.835,0,0,1,6.55,163.79" transform="translate(2.39 60.022)" fill="none" stroke="#d36d59" stroke-linecap="round" stroke-linejoin="round" stroke-width="0.567"/>
              <path id="Trazado_877894" data-name="Trazado 877894" d="M5.074,165.194a65.449,65.449,0,0,1,13.472-4.274" transform="translate(1.859 58.97)" fill="none" stroke="#d36d59" stroke-linecap="round" stroke-linejoin="round" stroke-width="0.567"/>
              <path id="Trazado_877895" data-name="Trazado 877895" d="M164.939,79a25.552,25.552,0,0,0-9.148-8.711c-18.219-10.527-40.735-13.188-61.153-8.6-9.564,2.149-18.793,6.231-26.2,12.746-12.047,10.605-18.988,25.7-28.551,38.594-7.078,9.542-15.624,17.9-22.54,27.572C10.067,150.785,6.426,161.349,4.635,173.68a3.65,3.65,0,0,0,.011,1.636,3.26,3.26,0,0,0,.922,1.283c3.976,3.821,9.71,5.153,15.2,5.7a7.564,7.564,0,0,0,3.812-.309,7.987,7.987,0,0,0,2.692-2.353c3.479-4.12,5.992-8.575,9.367-12.7q2.947-3.6,5.915-7.186c1.372-1.667,5.522-5.126,5.917-7.188-2.26,11.585-4.285,24.513,2.115,34.429,3.771,5.843,10.069,9.732,16.735,11.713S81.046,200.92,88,200.7c21.971-.708,43.672-5.854,64.163-13.814,2.908-1.129,5.866-2.36,8.136-4.5s3.732-5.408,2.911-8.417c-.95-3.48-4.542-5.557-8.018-6.518a45.875,45.875,0,0,0-1.246-15.494,9.151,9.151,0,0,1-.471-3.515,9.094,9.094,0,0,1,2.278-4.093c10.128-12.85,13.492-29.9,13.349-46.257-.059-6.593-.719-13.461-4.158-19.088" transform="translate(1.666 21.815)" fill="#d3382a"/>
              <path id="Trazado_877896" data-name="Trazado 877896" d="M60.635,167.3c-7.238-2.115-14.122-6.105-18.578-12.189A51.334,51.334,0,0,1,37.483,147a40.208,40.208,0,0,1-2.383-5.828c.093,5.672,1.212,11.134,4.288,15.9,3.771,5.843,10.069,9.732,16.735,11.713S69.849,171,76.8,170.777c5.235-.169,10.453-.6,15.643-1.248q-4.7.242-9.4.247c-7.541.019-15.169-.365-22.407-2.48" transform="translate(12.863 51.734)" fill="#b72720"/>
              <path id="Trazado_877897" data-name="Trazado 877897" d="M51.79,100.86c-.318-.307-5.486-5.388-15.941-9.659q-.642,1-1.291,1.994a58.2,58.2,0,0,1,16.883,10.351Z" transform="translate(12.664 33.421)" fill="#fff"/>
              <path id="Trazado_877898" data-name="Trazado 877898" d="M50.859,95.209c-.223-.228-3.387-3.815-12.958-7.222Q37.259,88.993,36.616,90c9.4,3.258,13.952,7.779,14,7.833Z" transform="translate(13.418 32.243)" fill="#fff"/>
              <path id="Trazado_877899" data-name="Trazado 877899" d="M125.348,168.638c2.268-2.141,3.732-5.408,2.911-8.419-.948-3.479-4.541-5.556-8.018-6.518A45.9,45.9,0,0,0,119,138.208a9.128,9.128,0,0,1-.471-3.516A9.1,9.1,0,0,1,120.8,130.6a61.191,61.191,0,0,0,11.34-25.247,92.576,92.576,0,0,0-12.267-7.1c-1.4-.663-3.978-2.088-5.314-.488s.527,5.519.892,7.287a27.776,27.776,0,0,1-3.025,18.382,43.858,43.858,0,0,1-12.518,14.1c4.338.2,7.5,4.636,7.842,8.964s-1.4,8.519-3.111,12.511a22.569,22.569,0,0,1,7.606.642c2.434.783,4.694,2.6,5.292,5.085.8,3.344-1.506,6.574-3.76,9.17-.23.265-.466.529-.7.791q2.076-.76,4.138-1.559c2.908-1.13,5.866-2.361,8.135-4.5" transform="translate(36.613 35.559)" fill="#b72720"/>
              <path id="Trazado_877900" data-name="Trazado 877900" d="M56.7,120.048c3.2-3.329,6.4-8.065,6.016-14.722a70.274,70.274,0,0,0-18.51-11.171c-1.4,2.1-2.823,4.169-4.317,6.185-7.08,9.542-15.624,17.9-22.541,27.572C10.067,138.1,6.425,148.66,4.634,160.991a3.65,3.65,0,0,0,.012,1.636,3.246,3.246,0,0,0,.922,1.283c3.976,3.821,9.71,5.153,15.2,5.7a7.58,7.58,0,0,0,3.812-.31,7.987,7.987,0,0,0,2.692-2.353c3.478-4.12,5.992-8.575,9.367-12.7,1.964-2.4,3.944-4.791,5.915-7.186,1.372-1.667,5.522-5.126,5.915-7.188-.055.286-.109.574-.164.861.519-2.081,1.03-4.349,1.356-6.349A28.61,28.61,0,0,1,56.7,120.048" transform="translate(1.666 34.504)" fill="#f56049"/>
              <path id="Trazado_877901" data-name="Trazado 877901" d="M180.423,117.3a25.775,25.775,0,0,0-4.625-16.094c-4.933-6.581-13.136-14.65-43.34-27.926s-28.64,9.893-28.64,9.893c.313,4.634,2.863,13.234,6.679,17.549s24.529,17.764,31.177,20.966c.486.235,1.063.482,1.7.737-5.91,12.525-13.58,29.383-13.58,29.383s2.553,16.339,19.715,15.579c0,0,23.7-33.194,27.837-41.856.228-.478.444-.925.653-1.36a11.507,11.507,0,0,0,2.255-5.489,5.622,5.622,0,0,0,.167-1.381" transform="translate(38.039 25.35)" fill="#d3382a"/>
              <path id="Trazado_877902" data-name="Trazado 877902" d="M115.782,107.165l2.285.432a51.869,51.869,0,0,1,22.68-30.79q-1.187-.586-2.438-1.187a54.334,54.334,0,0,0-22.527,31.546" transform="translate(42.429 27.711)" fill="#fff"/>
              <path id="Trazado_877903" data-name="Trazado 877903" d="M111.751,105.318l2.285.432A51.885,51.885,0,0,1,136.812,74.9q-1.22-.568-2.5-1.152a54.331,54.331,0,0,0-22.566,31.572" transform="translate(40.952 27.025)" fill="#fff"/>
              <path id="Trazado_877904" data-name="Trazado 877904" d="M116.688,132.579a14.285,14.285,0,0,0-5.827,8.04,1.291,1.291,0,0,0,.991,1.614,6.88,6.88,0,0,0,5.09-.515,5.925,5.925,0,0,1,1.88-1.122,2.649,2.649,0,0,1,1.168.079,7.871,7.871,0,0,1,6.053,6.9c.469,5.728-4.076,8.935-8.483,11.1a4.711,4.711,0,0,0-1.846,1.3,1.537,1.537,0,0,0,.113,2.059,2.179,2.179,0,0,0,1.246.321,52.963,52.963,0,0,0,17.3-2.065,8.043,8.043,0,0,0,3.344-1.626c2.085-1.962,1.746-5.329,2.816-7.986.967-2.4,3.148-4.337,3.371-6.914.232-2.706-1.8-5.067-3.927-6.753-6.172-4.884-16.012-9.24-23.291-4.441" transform="translate(40.609 47.822)" fill="#fbac98"/>
              <path id="Trazado_877905" data-name="Trazado 877905" d="M133.23,147.915c2.967-.07,4.668-1.129,5.639-2.42a5.863,5.863,0,0,0,.491-1.842,6.518,6.518,0,0,0-1.786-4.7l-10.63-6.991a24.364,24.364,0,0,0-3.724-1.137c.749,4.4,3.493,17.242,10.009,17.09" transform="translate(45.155 47.942)" fill="#c95d4e"/>
              <path id="Trazado_877906" data-name="Trazado 877906" d="M118.69,155.534a14.7,14.7,0,0,0,8.942-7.1" transform="translate(43.495 54.393)" fill="none" stroke="#d36d59" stroke-linecap="round" stroke-linejoin="round" stroke-width="0.567"/>
              <path id="Trazado_877907" data-name="Trazado 877907" d="M124.726,154.762a33.793,33.793,0,0,0,6.562-5.858" transform="translate(45.706 54.567)" fill="none" stroke="#d36d59" stroke-linecap="round" stroke-linejoin="round" stroke-width="0.567"/>
              <path id="Trazado_877908" data-name="Trazado 877908" d="M138.132,119.5c-5.91,12.525-13.58,29.383-13.58,29.383s2.554,16.339,19.715,15.579c0,0,23.7-33.194,27.839-41.856.228-.478.443-.925.652-1.36a11.5,11.5,0,0,0,2.256-5.489,5.618,5.618,0,0,0,.165-1.381,25.774,25.774,0,0,0-4.624-16.094C166.524,92.91,160.307,86.54,141.7,77.151c-15.3,9.174-22.967,28.773-23.595,30.434l.667.448a13.527,13.527,0,0,1,3.248,2.143,164.078,164.078,0,0,0,14.407,8.592c.486.235,1.063.482,1.7.737" transform="translate(43.282 28.272)" fill="#f56049"/>
              <path id="Trazado_877909" data-name="Trazado 877909" d="M70.767,56.835c2.293-3.773,9.956-3.42,14.381-3.849a62.057,62.057,0,0,1,8.364-.433,61.907,61.907,0,0,1,7.144.825L115.7,55.706c5.971.925,12.2,1.954,17.059,5.549s6.78,9.867,3.795,15.12a42.408,42.408,0,0,0-11.966-6.815c-3.54-1.433-6.94-3.232-10.66-2.364-3.629.847-6.37,3.725-9.5,5.745-6.168,3.978-14.256,4.027-20.933,1.332-5.08-2.051-11.279-6.8-12.947-12.235-.7-2.292-.527-3.968.223-5.2" transform="translate(25.689 19.249)" fill="#a5231c"/>
              <path id="Trazado_877910" data-name="Trazado 877910" d="M118.863,60.417c-2.6-.2-5.617-1.569-8.133-2.188a86.917,86.917,0,0,0-9.319-2.14,162.323,162.323,0,0,0-17.2-1.067,18.525,18.525,0,0,0-5.182.379,6.38,6.38,0,0,0-4.1,2.972c-1.4,2.662-.027,5.874,1.334,8.554a13.255,13.255,0,0,0,2.886,4.22,11.666,11.666,0,0,0,5.561,2.231,48.384,48.384,0,0,0,9.838.832c2.589-.048,5.894-.279,8.037-1.927,1.77-1.36,2.912-3.653,4.612-5.2a41.23,41.23,0,0,1,6.482-4.813,10.214,10.214,0,0,1,5.493-1.841c-.1,0-.206-.01-.309-.018" transform="translate(27.243 20.156)" fill="#6b100e"/>
              <path id="Trazado_877911" data-name="Trazado 877911" d="M36.163,150.064c1.264-6.724,2.587-13.624,6.083-19.681a28.581,28.581,0,0,1,2.984-4.261,26.653,26.653,0,0,0,3.049-4.076A20.365,20.365,0,0,0,50.65,112.3c.139-3.408-.118-6.842-.1-10.3a25.9,25.9,0,0,1,1.667-10.232c2.707-6.614,9.553-10.1,11.954-16.721C62.026,81.789,55.221,85.615,52.77,92a26.317,26.317,0,0,0-1.514,10.007c0,3.419.29,6.857.168,10.326A21.1,21.1,0,0,1,48.887,122.4a27.316,27.316,0,0,1-3.143,4.15,31.477,31.477,0,0,0-2.987,4.134,41.637,41.637,0,0,0-4.034,9.4c-1.033,3.271-1.8,6.629-2.561,9.981" transform="translate(13.252 27.503)" fill="#771915"/>
              <path id="Trazado_877912" data-name="Trazado 877912" d="M80.825,77.467c-.839,2.19-1.622,4.389-2.286,6.623a77.062,77.062,0,0,0-2.762,13.666c-.256,2.315-.388,4.646-.467,6.991a44.045,44.045,0,0,1-.127-7.041,49.959,49.959,0,0,1,2.792-13.8,44.254,44.254,0,0,1,2.85-6.439" transform="translate(27.521 28.388)" fill="#771915"/>
              <path id="Trazado_877913" data-name="Trazado 877913" d="M55.016,105.339a49.357,49.357,0,0,1,10.011-1.7A54.027,54.027,0,0,1,85.16,106.06a49.33,49.33,0,0,1,9.319,4.035,68.494,68.494,0,0,0-9.49-3.465,65.683,65.683,0,0,0-19.931-2.4,68.378,68.378,0,0,0-10.042,1.112" transform="translate(20.161 37.933)" fill="#771915"/>
              <path id="Trazado_877914" data-name="Trazado 877914" d="M131.114,106.7a8.976,8.976,0,0,1-3.3-1.883,23.006,23.006,0,0,0-3.157-2.035c-2.205-1.19-4.513-2.237-6.825-3.249-2.294-1.052-4.63-2.013-6.973-2.96s-4.707-1.843-7.076-2.753c2.465.6,4.891,1.356,7.286,2.2s4.746,1.808,7.078,2.811a71.375,71.375,0,0,1,6.806,3.442,22.735,22.735,0,0,1,3.1,2.257,9.671,9.671,0,0,0,3.057,2.174" transform="translate(38.034 34.38)" fill="#771915"/>
              <path id="Trazado_877915" data-name="Trazado 877915" d="M118.745,124.347c-1.934.637-3.9,1.161-5.873,1.644s-3.97.872-5.965,1.267c-2,.333-4.011.668-6.029.91s-4.042.439-6.077.521c2-.4,3.994-.746,5.988-1.11l5.98-1.082,5.98-1.085c2-.361,3.987-.739,6-1.064" transform="translate(34.741 45.568)" fill="#771915"/>
              <path id="Trazado_877916" data-name="Trazado 877916" d="M118.8,140.108c-1.923.463-3.833.925-5.724,1.457s-3.771,1.082-5.616,1.746c-1.865.607-3.691,1.324-5.511,2.061s-3.614,1.541-5.418,2.35a43.2,43.2,0,0,1,5.178-2.9,50.716,50.716,0,0,1,11.225-3.837,43.441,43.441,0,0,1,5.866-.881" transform="translate(35.374 51.343)" fill="#771915"/>
              <path id="Trazado_877917" data-name="Trazado 877917" d="M108.256,141.036l-3.523.473-3.493.5-3.486.557-3.5.592a23.941,23.941,0,0,1,3.375-1.174,30.439,30.439,0,0,1,7.058-1.069,23.812,23.812,0,0,1,3.572.119" transform="translate(34.539 51.633)" fill="#771915"/>
              <path id="Trazado_877918" data-name="Trazado 877918" d="M92.9,129.618a20.113,20.113,0,0,1,2.872-.808,26.615,26.615,0,0,1,5.922-.581,19.755,19.755,0,0,1,2.975.235c-.988.157-1.969.251-2.947.359l-2.93.3-2.932.272c-.98.085-1.961.182-2.96.221" transform="translate(34.043 46.988)" fill="#771915"/>
              <path id="Trazado_877919" data-name="Trazado 877919" d="M115.188,100.417a6.851,6.851,0,0,1,2.64.41c.847.3,1.656.649,2.479.987a17.177,17.177,0,0,1,4.63,2.756.382.382,0,0,1-.213.671,39.912,39.912,0,0,1-5.346-.141,9.423,9.423,0,0,0-2.572.216c-.406.123-.922.148-.9.562-.015.406.4.7.775.9-.394-.131-.913-.347-.98-.894a.655.655,0,0,1,.363-.664c.217-.118.422-.18.635-.273a9.779,9.779,0,0,1,2.677-.447c1.8-.063,3.565.2,5.255-.031l-.213.671a18.679,18.679,0,0,0-4.362-2.793c-.784-.4-1.573-.812-2.365-1.172a7.694,7.694,0,0,0-2.5-.761" transform="translate(42.211 36.793)" fill="#771915"/>
              <path id="Trazado_877920" data-name="Trazado 877920" d="M132.051,110.518a36.135,36.135,0,0,1,21.108-7.13.357.357,0,0,1,.362.354.363.363,0,0,1-.286.357,84.208,84.208,0,0,0-9.295,2.6c-1.518.529-3.038,1.088-4.5,1.727a14.467,14.467,0,0,0-4.011,2.49l-.3-.5a25.132,25.132,0,0,1,14.15-.161,26.985,26.985,0,0,0-13.968.735.3.3,0,0,1-.306-.5l.007-.007a13.964,13.964,0,0,1,4.147-2.681c1.494-.67,3.009-1.243,4.539-1.794a67.538,67.538,0,0,1,9.39-2.61l.077.711a39.005,39.005,0,0,0-21.113,6.413" transform="translate(48.391 37.887)" fill="#771915"/>
              <path id="Trazado_877921" data-name="Trazado 877921" d="M49.736,109.02a39.481,39.481,0,0,0-9.3-1.981,33,33,0,0,0-4.732-.13,11.9,11.9,0,0,0-4.493,1l-.138-.69a63.1,63.1,0,0,1,6.835.776,27.238,27.238,0,0,1,3.356.8c.548.175,1.092.361,1.625.574a2.655,2.655,0,0,1,.784.387c.292.184.09.75-.231.6.321.09.425-.409.167-.525a2.931,2.931,0,0,0-.778-.294c-.545-.165-1.1-.3-1.652-.429-1.11-.243-2.225-.455-3.352-.594-2.255-.273-4.524-.43-6.8-.568a.363.363,0,0,1-.34-.384.376.376,0,0,1,.2-.3,11.191,11.191,0,0,1,4.785-1.089,33.571,33.571,0,0,1,4.836.215,31.06,31.06,0,0,1,9.233,2.635" transform="translate(11.242 38.902)" fill="#771915"/>
              <path id="Trazado_877922" data-name="Trazado 877922" d="M76.443,64c.111,5.592,1.2,10.758,6.477,13.178a19.5,19.5,0,0,0,17.67-.876,9.759,9.759,0,0,0,3.672-3.4,13.017,13.017,0,0,0,1.249-5.716q.314-4.891.624-9.78a5.443,5.443,0,0,0-.119-1.992,5.234,5.234,0,0,0-1.845-2.27,36.624,36.624,0,0,0-12.935-7.056c-4.587-1.368-7.684.108-12.166,1.664a3.792,3.792,0,0,0-2.506,1.776,3.8,3.8,0,0,0-.1,1.819c.394,3.758-.107,8.334-.022,12.656" transform="translate(27.999 16.69)" fill="#fbac98"/>
              <path id="Trazado_877923" data-name="Trazado 877923" d="M104.529,66.7q.3-4.651.593-9.3A5.413,5.413,0,0,0,105,55.412a5.234,5.234,0,0,0-1.845-2.27,36.63,36.63,0,0,0-12.933-7.056c-4.2-1.25-7.156-.122-11.057,1.271a30.892,30.892,0,0,0,1.059,3.55c5.254,14.614,15.22,17.179,24.3,15.8" transform="translate(29.012 16.69)" fill="#c95d4e"/>
              <path id="Trazado_877924" data-name="Trazado 877924" d="M80.685,20.149a36.332,36.332,0,0,0-7.3,9.866c-2.318,5.029-2.7,10.738-2.415,16.268.217,4.2.825,8.473,2.721,12.23,2.674,5.3,7.749,9.132,13.311,11.221s11.6,2.583,17.537,2.491c4.866-.077,10.658-1.166,12.548-5.65a24.77,24.77,0,0,0,.993-4.069c.672-2.879,2.18-5.481,3.367-8.189,3.953-9.006,4.272-19.77-.12-28.57a27.709,27.709,0,0,0-18.136-14.5c-8.851-2.07-16.519,2.749-22.508,8.9" transform="translate(25.978 3.944)" fill="#fbac98"/>
              <path id="Trazado_877925" data-name="Trazado 877925" d="M118.595,26.041a8.834,8.834,0,0,1-7.943-4.635,7.553,7.553,0,0,1-6.41-1.991,6,6,0,0,1-7.093.444c-.139,2.733-2.741,4.776-5.4,5.426s-5.444.294-8.18.387a5.447,5.447,0,0,1-2.5,7.849,1.308,1.308,0,0,0-1.019,1.466,6.238,6.238,0,0,1-4.138,5.034,84.916,84.916,0,0,1,1.153-10.777,24.6,24.6,0,0,1,2.072-7.065,18.328,18.328,0,0,1,4.321-5.363,25.011,25.011,0,0,1,13.9-6.059,24.446,24.446,0,0,1,14.793,3.258,39.617,39.617,0,0,1,7.51,6.138c1.308,1.3,2.64,2.732,3,4.537a3.841,3.841,0,0,1-1.187,3.621c-1.476,1.186-2.417-1.138-2.882-2.27" transform="translate(27.819 3.898)" fill="#f29c8b"/>
              <path id="Trazado_877926" data-name="Trazado 877926" d="M102.45,32.772a4.118,4.118,0,0,1,1.592,1.6,4.815,4.815,0,0,1,.914,2.648c-.052,1.806-1.756,3.163-3.489,3.673-2.9.851-6.011.063-8.846-.977a4.317,4.317,0,0,1-2.174-1.379,3.047,3.047,0,0,1,.249-3.378,8.931,8.931,0,0,1,2.767-2.271" transform="translate(32.996 11.98)" fill="none" stroke="#d36d59" stroke-linecap="round" stroke-linejoin="round" stroke-width="0.567"/>
              <path id="Trazado_877927" data-name="Trazado 877927" d="M94.228,44.23a18.146,18.146,0,0,1,9.132-1.719c.2.015.43.056.512.236s-.052.406-.184.568q-.717.883-1.433,1.765" transform="translate(34.53 15.561)" fill="none" stroke="#aa3f30" stroke-linecap="round" stroke-linejoin="round" stroke-width="0.567"/>
              <path id="Trazado_877928" data-name="Trazado 877928" d="M99.754,46.281a7.792,7.792,0,0,0,.083,1.711" transform="translate(36.55 16.96)" fill="none" stroke="#aa3f30" stroke-linecap="round" stroke-linejoin="round" stroke-width="0.567"/>
              <path id="Trazado_877929" data-name="Trazado 877929" d="M86.32,28.985c1.626-2.61,5.169-1.371,7.977-2.391a10.708,10.708,0,0,0,6.421-6.275c.15-.422.383-.94.832-.944a1.173,1.173,0,0,1,.717.4,6.163,6.163,0,0,0,8.17-.294,7.134,7.134,0,0,0,5.663,3.784c.525.042,1.279.019,1.664.455a7.251,7.251,0,0,1,.66,1.746,5.2,5.2,0,0,0,2.425,2.88,6.809,6.809,0,0,0,2.755.415c-.07,1.748,1.12,3.182,1.917,4.632a10.136,10.136,0,0,1,.728,2.2,12.12,12.12,0,0,1,.809,2.742c-.048-.717,1.272-2.028,1.7-2.61A18.063,18.063,0,0,0,130.6,32.3a8.575,8.575,0,0,0,.861-5.1,3.873,3.873,0,0,0-3.6-3.219q-.008-2.167-.019-4.333a5.877,5.877,0,0,0-.641-3.234,2.027,2.027,0,0,0-2.868-.667c-.257-5.936-3.847-12.093-9.594-13.6a7.241,7.241,0,0,0-4.333.068,4.381,4.381,0,0,0-2.83,3.121,9.157,9.157,0,0,0-3.341-.8A3.115,3.115,0,0,0,101.4,6.179,13.468,13.468,0,0,0,89.829.005a9.51,9.51,0,0,0-6.551,2.589,6.12,6.12,0,0,0-1.384,6.644,7.209,7.209,0,0,0-4.855,5.387,8.839,8.839,0,0,0-7.813,3.137c-1.757,2.348-1.722,6.036.454,8-1.555.835-3.21,1.775-3.945,3.379s.1,3.991,1.861,4.09a7.6,7.6,0,0,0,.056,14.243,9.187,9.187,0,0,0-1.212,4.4c.107,1.535,1.282,3.113,2.82,3.088-.734,1.688.355,3.726,1.942,4.66a10.678,10.678,0,0,0,5.354,1.048,34.651,34.651,0,0,1-2.38-10.74c-.094-1.607-.8-4.858,1.638-4.918a2.084,2.084,0,0,1,1.872,1.125,24.658,24.658,0,0,0,3.6-2.095,4.947,4.947,0,0,0,1.856-4.075,1.57,1.57,0,0,1,.089-.9,1.712,1.712,0,0,1,.484-.45,5.175,5.175,0,0,0,1.677-3.795,28.11,28.11,0,0,1,.312-4.258,5.178,5.178,0,0,1,.623-1.577" transform="translate(22.97 0)" fill="#2f353d"/>
              <path id="Trazado_877930" data-name="Trazado 877930" d="M69.874,28.9a6.684,6.684,0,0,0-3.76,7.511,7.048,7.048,0,0,0,6.7,5.194,5.448,5.448,0,0,0,4.021-1.632c4.52-4.983-.066-13.932-6.959-11.074" transform="translate(24.167 10.388)" fill="#fbac98"/>
              <path id="Trazado_877931" data-name="Trazado 877931" d="M97.9,21.42s-7.58-2.342-12.763,7.768c0,0,7.037-6.332,12.883-5.885,0,0,1.357-1.872.288-2.753,0,0-.072.738-.409.87" transform="translate(31.198 7.531)" fill="#2f353d"/>
              <path id="Trazado_877932" data-name="Trazado 877932" d="M99.453,21.826s5.783-2.252,9.758,7.529c0,0-5.385-6.133-9.847-5.709,0,0-1.04-1.812-.225-2.663,0,0,.056.715.314.843" transform="translate(36.216 7.689)" fill="#2f353d"/>
              <path id="Trazado_877933" data-name="Trazado 877933" d="M103.525,30.38c.01,1.264-.585,2.293-1.328,2.3s-1.354-1.014-1.364-2.278.585-2.293,1.328-2.3,1.354,1.014,1.364,2.278" transform="translate(36.951 10.298)" fill="#15191c"/>
              <path id="Trazado_877934" data-name="Trazado 877934" d="M92.662,29.92c.01,1.264-.585,2.293-1.328,2.3S89.98,31.2,89.97,29.94s.585-2.293,1.328-2.3,1.354,1.014,1.364,2.278" transform="translate(32.97 10.13)" fill="#15191c"/>
              <path id="Trazado_877935" data-name="Trazado 877935" d="M97.537,40.117a.418.418,0,0,0-.271.068c-.238.161-.231.506-.2.79-.521-.836-.675-.022-1.1.266-.534.361-1.011-.272-1.536-.07-.361.138-.437.665-.791.82a1.511,1.511,0,0,1-.747-.018,2.712,2.712,0,0,0-1.513.465l-3.31,1.8a1.6,1.6,0,0,0-.745.634,5.96,5.96,0,0,0,1.816-.186l1.054-.219,2.49-.518a6.176,6.176,0,0,0,1.813-.575,2.373,2.373,0,0,1,.974-.435,3.6,3.6,0,0,1,.816.15.681.681,0,0,0,.735-.254c.1-.2.055-.481.239-.6s.432.034.657.057c1.111.112.534-1.474.16-1.876a.89.89,0,0,0-.541-.292" transform="translate(32 14.701)" fill="#2f353d"/>
              <path id="Trazado_877936" data-name="Trazado 877936" d="M98.194,41.925l.041.094a2.5,2.5,0,0,0,.47-.76,1.064,1.064,0,0,0,.061.455.382.382,0,0,0,.361.24c.469-.052.8-.35,1.342-.31a9.326,9.326,0,0,1,1.934.44,28.222,28.222,0,0,1,3.588,1.336,2.03,2.03,0,0,0-1.351-1.394,4.964,4.964,0,0,1-1.774-.957,3.2,3.2,0,0,0-.525-.552,2.248,2.248,0,0,0-1.3-.148A3.545,3.545,0,0,1,99,39.78c-.257-.172-.865-.313-1.085,0a.891.891,0,0,0-.1.575,4.863,4.863,0,0,0,.377,1.569" transform="translate(35.843 14.51)" fill="#2f353d"/>
              <path id="Trazado_877937" data-name="Trazado 877937" d="M68.57,31.054a1.07,1.07,0,0,1,.717-.38,3.857,3.857,0,0,1,3.184.948A4.983,4.983,0,0,1,74.03,34.61a.8.8,0,0,0-.488-.593,2.246,2.246,0,0,0-.786-.148,6.394,6.394,0,0,0-1.862.081,2.461,2.461,0,0,0-1.532.991,1.543,1.543,0,0,0,.016,1.753" transform="translate(25.128 11.221)" fill="none" stroke="#d36d59" stroke-linecap="round" stroke-linejoin="round" stroke-width="0.567"/>
              <path id="Trazado_877938" data-name="Trazado 877938" d="M120.835,157.545l4.515,7.4,3.612-1.806,9.752,12.823,7.044-8.128-16.8-10.654-1.985,3.972Z" transform="translate(44.281 57.601)" fill="#232825"/>
              <path id="Trazado_877939" data-name="Trazado 877939" d="M128.765,155.417l6.682-2.348,1.084,1.987,12.823-4.877-.18,7.946-15.713-.541.362-2.167Z" transform="translate(47.187 55.034)" fill="#232825"/>
            </g>
          </g>
        </g>
      </g>
    </g>
  </g>
</svg>
