<svg xmlns="http://www.w3.org/2000/svg" width="96" height="96" viewBox="0 0 96 96">
  <g id="Grupo_1101808" data-name="Grupo 1101808" transform="translate(-853.052 -4308)">
    <g id="prueba-de-sangre" transform="translate(854.052 4315)">
      <path id="Trazado_877940" data-name="Trazado 877940" d="M71.467,48.033V18.267A1.27,1.27,0,0,0,70.2,17H37.267A1.27,1.27,0,0,0,36,18.267V48.033A1.27,1.27,0,0,0,37.267,49.3H70.2A1.27,1.27,0,0,0,71.467,48.033Zm-2.533-1.267h-30.4V19.533h30.4Z" transform="translate(-6.233 -6.233)" fill="#fff"/>
      <g id="Grupo_1101807" data-name="Grupo 1101807" transform="translate(19)">
        <path id="Trazado_877941" data-name="Trazado 877941" d="M61.433,0H33.567A14.569,14.569,0,0,0,19,14.567V51.3A14.569,14.569,0,0,0,33.567,65.866h5.067V79.8A1.27,1.27,0,0,0,39.9,81.066H55.1A1.27,1.27,0,0,0,56.367,79.8V65.866h5.067A14.569,14.569,0,0,0,76,51.3V14.567A14.569,14.569,0,0,0,61.433,0Zm-7.6,78.533H41.167v-22.8H53.833ZM73.466,51.3A12.028,12.028,0,0,1,61.433,63.333H56.367v-7.6H58.9a1.267,1.267,0,1,0,0-2.533H36.1a1.267,1.267,0,1,0,0,2.533h2.533v7.6H33.567A12.028,12.028,0,0,1,21.533,51.3V14.567A12.028,12.028,0,0,1,33.567,2.533H61.433A12.028,12.028,0,0,1,73.466,14.567Z" transform="translate(-19)" fill="#fff"/>
        <path id="Trazado_877942" data-name="Trazado 877942" d="M61.8,115.6a3.8,3.8,0,1,0-3.8-3.8A3.811,3.811,0,0,0,61.8,115.6Zm0-5.067a1.267,1.267,0,1,1-1.267,1.267A1.27,1.27,0,0,1,61.8,110.533Z" transform="translate(-33.3 -39.6)" fill="#fff"/>
      </g>
      <path id="Trazado_877943" data-name="Trazado 877943" d="M60.04,46.665a6.839,6.839,0,0,0,6.84-6.777c0-6.9-5.763-12.287-5.953-12.477a1.283,1.283,0,0,0-1.773.063c-.253.253-5.953,6.27-5.953,12.413a6.839,6.839,0,0,0,6.84,6.777ZM60.1,30.2c1.457,1.71,4.243,5.447,4.243,9.69a4.307,4.307,0,0,1-8.613,0C55.733,36.025,58.583,31.972,60.1,30.2Z" transform="translate(-12.54 -9.932)" fill="#fff"/>
    </g>
    <rect id="Rectángulo_403134" data-name="Rectángulo 403134" width="96" height="96" transform="translate(853.052 4308)" fill="none"/>
  </g>
</svg>
