<svg xmlns="http://www.w3.org/2000/svg" width="89" height="89" viewBox="0 0 89 89">
  <g id="Grupo_1101878" data-name="Grupo 1101878" transform="translate(-335.994 -1370)">
    <rect id="Rectángulo_400898" data-name="Rectángulo 400898" width="89" height="89" rx="44.5" transform="translate(335.994 1370)" fill="#fff"/>
    <g id="saludable" transform="translate(279.408 1380)">
      <path id="Trazado_878269" data-name="Trazado 878269" d="M167.758,312.779h-6.08a3.091,3.091,0,0,1-3.059-2.7l-4.033-18.569-4.048,18.657a3.064,3.064,0,0,1-3.044,2.611h-6.08a2.751,2.751,0,0,1-2.515-3.862l2.108-4.766,2.806-16.224a1.018,1.018,0,0,1,2.006.347l-2.827,16.348a1.018,1.018,0,0,1-.072.238l-2.158,4.88a.715.715,0,0,0,.653,1h6.08a1.052,1.052,0,0,0,1.04-.919l5.058-23.327a1.018,1.018,0,0,1,1.989,0l5.043,23.239a1.084,1.084,0,0,0,1.055,1.007h6.08a.715.715,0,0,0,.653-1l-2.158-4.88a1.018,1.018,0,0,1-.072-.238l-3.793-21.93a1.018,1.018,0,0,1,2.006-.347l3.771,21.806,2.107,4.765a2.751,2.751,0,0,1-2.515,3.862Z" transform="translate(-53.654 -243.301)" fill="#30169a"/>
      <path id="Trazado_878270" data-name="Trazado 878270" d="M216.966,14.37a6.135,6.135,0,0,1-6.128-6.128V5.892A4.967,4.967,0,0,1,215.8.931h2.335a4.967,4.967,0,0,1,4.961,4.961V8.241A6.135,6.135,0,0,1,216.966,14.37ZM215.8,2.966a2.929,2.929,0,0,0-2.925,2.925V8.241a4.093,4.093,0,0,0,8.186,0V5.892a2.929,2.929,0,0,0-2.925-2.925Z" transform="translate(-116.034 -0.804)" fill="#30169a"/>
      <path id="Trazado_878271" data-name="Trazado 878271" d="M178.847,95a1.018,1.018,0,0,1-1.018-1.018V91.515a4.025,4.025,0,0,1,1.187-2.865l2.471-2.47-3.194-3.194-.83.83a9.816,9.816,0,0,1-13.88,0l-.829-.829-3.194,3.194,2.47,2.47a4.024,4.024,0,0,1,1.187,2.865v2.463a1.018,1.018,0,1,1-2.035,0V91.515a2,2,0,0,0-.59-1.425L157.4,86.9a1.018,1.018,0,0,1,0-1.439l4.634-4.634a1.018,1.018,0,0,1,1.439,0l1.548,1.548a7.78,7.78,0,0,0,11,0l1.55-1.549a1.018,1.018,0,0,1,1.439,0l4.634,4.634a1.018,1.018,0,0,1,0,1.439l-3.191,3.19a2,2,0,0,0-.591,1.426v2.463A1.018,1.018,0,0,1,178.847,95Z" transform="translate(-69.59 -69.601)" fill="#30169a"/>
      <path id="Trazado_878272" data-name="Trazado 878272" d="M177.3,170.018a12.357,12.357,0,0,1-6.294-22.991,1.018,1.018,0,1,1,1.038,1.751,10.289,10.289,0,1,0,3.939-1.354,1.018,1.018,0,0,1-.257-2.019,12.5,12.5,0,0,1,1.574-.1,12.356,12.356,0,0,1,0,24.712Z" transform="translate(-76.37 -125.588)" fill="#30169a"/>
      <path id="Trazado_878273" data-name="Trazado 878273" d="M206.957,194.419a3.058,3.058,0,0,1,2.163,5.221l-5.888,5.888a3.262,3.262,0,0,1-4.613,0l-3.874-3.874a3.058,3.058,0,1,1,4.325-4.325l1.855,1.855,3.869-3.869A3.039,3.039,0,0,1,206.957,194.419Zm-6.032,10.029a1.218,1.218,0,0,0,.867-.359l5.888-5.888a1.023,1.023,0,0,0-1.447-1.447l-4.264,4.264a1.476,1.476,0,0,1-2.088,0l-2.25-2.25a1.023,1.023,0,1,0-1.447,1.447l3.874,3.874A1.218,1.218,0,0,0,200.925,204.448Z" transform="translate(-101.352 -168.036)" fill="#30169a"/>
      <path id="Trazado_878274" data-name="Trazado 878274" d="M311.413,17.612a1.018,1.018,0,0,1-.72-.3L306.06,12.68a1.018,1.018,0,0,1,0-1.439l5.506-5.506a1.018,1.018,0,1,1,1.439,1.439l-4.786,4.787,3.194,3.194,9.247-9.249a2.259,2.259,0,1,0-3.194-3.194l-1.052,1.052a1.018,1.018,0,0,1-1.439-1.439l1.052-1.052A4.294,4.294,0,1,1,322.1,7.345l-9.967,9.968A1.018,1.018,0,0,1,311.413,17.612Z" transform="translate(-198.077 -0.014)" fill="#30169a"/>
      <path id="Trazado_878275" data-name="Trazado 878275" d="M88.53,17.6a1.015,1.015,0,0,1-.72-.3L77.842,7.331a4.294,4.294,0,0,1,6.073-6.073l9.968,9.968a1.018,1.018,0,0,1,0,1.439L89.249,17.3A1.015,1.015,0,0,1,88.53,17.6ZM80.879,2.036a2.258,2.258,0,0,0-1.6,3.856L88.53,15.14l3.194-3.194L82.475,2.7A2.243,2.243,0,0,0,80.879,2.036Z" fill="#30169a"/>
      <path id="Línea_623" data-name="Línea 623" d="M2.267-5.465h-8.75A1.018,1.018,0,0,1-7.5-6.482,1.018,1.018,0,0,1-6.482-7.5h8.75A1.018,1.018,0,0,1,3.285-6.482,1.018,1.018,0,0,1,2.267-5.465Z" transform="translate(111.263 67.63)" fill="#30169a"/>
      <path id="Línea_624" data-name="Línea 624" d="M-6.482-5.464A1.018,1.018,0,0,1-7.5-6.482,1.018,1.018,0,0,1-6.482-7.5h8.75A1.018,1.018,0,0,1,3.285-6.482,1.018,1.018,0,0,1,2.267-5.465Z" transform="translate(94.817 67.629)" fill="#30169a"/>
    </g>
  </g>
</svg>
