<svg xmlns="http://www.w3.org/2000/svg" width="184.079" height="184.079" viewBox="0 0 184.079 184.079">
  <g id="Grupo_1101812" data-name="Grupo 1101812" transform="translate(1707.131 6546)">
    <rect id="Rectángulo_403051" data-name="Rectángulo 403051" width="184.079" height="184.079" rx="92" transform="translate(-1707.131 -6546)" fill="#59836b"/>
    <g id="dieta" transform="translate(-1672.82 -6504.754)">
      <path id="Trazado_877956" data-name="Trazado 877956" d="M70.661,28.434c0-7.959-4.978-14.434-11.1-14.434s-11.1,6.475-11.1,14.434c0,5.752,2.559,10.839,6.489,13.145L53.6,83.416a5.962,5.962,0,1,0,11.917,0L64.173,41.579c3.929-2.305,6.489-7.393,6.489-13.145ZM61.479,38.629a1.929,1.929,0,0,0-1.193,1.843l1.389,43.069a2.1,2.1,0,0,1-.593,1.537,2.164,2.164,0,0,1-3.038,0,2.094,2.094,0,0,1-.593-1.537l1.389-43.069a1.929,1.929,0,0,0-1.193-1.843c-3.14-1.287-5.334-5.482-5.334-10.195,0-5.738,3.319-10.585,7.249-10.585s7.251,4.847,7.251,10.585c0,4.714-2.194,8.907-5.334,10.195Z" transform="translate(44.795 12.94)" fill="#fff"/>
      <path id="Trazado_877957" data-name="Trazado 877957" d="M56.559,23.278a5.914,5.914,0,0,1-2.14,3.587,1.924,1.924,0,0,0,2.3,3.085,9.663,9.663,0,0,0,3.614-5.919,1.925,1.925,0,0,0-3.775-.752Z" transform="translate(49.582 20.084)" fill="#fff"/>
      <path id="Trazado_877958" data-name="Trazado 877958" d="M20.875,16.17a1.925,1.925,0,0,0-3.82.475L18.74,30.2a3.777,3.777,0,0,1-3.764,3.677H13.92c-.01,0-.019.006-.029.006s-.021-.006-.033-.006a1.867,1.867,0,0,0-.341.081,1.821,1.821,0,0,0-.373.089,1.812,1.812,0,0,0-.306.206,1.934,1.934,0,0,0-.3.214,1.894,1.894,0,0,0-.208.31,1.945,1.945,0,0,0-.192.306,1.911,1.911,0,0,0-.077.381A1.8,1.8,0,0,0,12,35.8c0,.012.006.019.006.031s-.006.019-.006.031l1.5,46.208a2.214,2.214,0,0,1-.623,1.616,2.253,2.253,0,0,1-3.152,0A2.207,2.207,0,0,1,9.1,82.072l1.5-46.213c0-.012-.006-.019-.006-.031s.006-.019.006-.031a1.969,1.969,0,0,0-.067-.337,1.884,1.884,0,0,0-.077-.381,1.945,1.945,0,0,0-.192-.306,1.894,1.894,0,0,0-.208-.31,1.812,1.812,0,0,0-.3-.214,1.812,1.812,0,0,0-.306-.206,1.956,1.956,0,0,0-.373-.089,1.867,1.867,0,0,0-.341-.081c-.012,0-.021.006-.033.006s-.019-.006-.029-.006H7.616A3.78,3.78,0,0,1,3.85,30.2L5.538,16.645a1.925,1.925,0,0,0-3.82-.475L.015,29.853A1.639,1.639,0,0,0,0,30.092a7.609,7.609,0,0,0,6.687,7.537L5.249,81.955a6.05,6.05,0,1,0,12.094,0L15.906,37.629a7.611,7.611,0,0,0,6.687-7.537,1.639,1.639,0,0,0-.015-.239Z" transform="translate(0 13.385)" fill="#fff"/>
      <path id="Trazado_877959" data-name="Trazado 877959" d="M6.99,33.668a1.925,1.925,0,0,0,1.924-1.924V16.407a1.924,1.924,0,0,0-3.849,0V31.744A1.925,1.925,0,0,0,6.99,33.668Z" transform="translate(4.682 13.386)" fill="#fff"/>
      <path id="Trazado_877960" data-name="Trazado 877960" d="M59.428.3A1.926,1.926,0,0,0,56.77.891L43.3,22.058a1.925,1.925,0,0,0,3.248,2.067L60.018,2.958A1.926,1.926,0,0,0,59.428.3Z" transform="translate(39.744 0)" fill="#fff"/>
      <path id="Trazado_877961" data-name="Trazado 877961" d="M50.67,6.7a5.335,5.335,0,1,0-5.336,5.336A5.34,5.34,0,0,0,50.67,6.7ZM45.334,8.186A1.487,1.487,0,1,1,46.822,6.7,1.488,1.488,0,0,1,45.334,8.186Z" transform="translate(36.971 1.261)" fill="#fff"/>
      <path id="Trazado_877962" data-name="Trazado 877962" d="M49,11.791a5.335,5.335,0,1,0,5.334-5.336A5.341,5.341,0,0,0,49,11.791Zm6.822,0A1.487,1.487,0,1,1,54.334,10.3,1.488,1.488,0,0,1,55.822,11.791Z" transform="translate(45.289 5.966)" fill="#fff"/>
      <g id="Grupo_1101811" data-name="Grupo 1101811" transform="translate(26.491 7.697)">
        <path id="Trazado_877963" data-name="Trazado 877963" d="M35.33,13.625a2.017,2.017,0,0,1,.253.016A31.17,31.17,0,0,1,49.128,70.4a2,2,0,0,1-2.761-.521L29.451,45.449a2,2,0,0,1-.334-1.431l4.237-28.685A2,2,0,0,1,35.33,13.625ZM48.491,65.92a26.76,26.76,0,0,0,3.624-3.439,27.215,27.215,0,0,0-15.1-44.554L33.189,43.821Z" transform="translate(2.249 6.745)" fill="#fff"/>
        <path id="Trazado_877964" data-name="Trazado 877964" d="M16.542,24.772a1.992,1.992,0,0,1,.873.2L41.586,36.731a2,2,0,0,1,.769.66L58.277,60.384a2,2,0,0,1-.524,2.8,29.575,29.575,0,0,1-16.539,5.072A29.452,29.452,0,0,1,14.742,25.9,2,2,0,0,1,16.542,24.772ZM39.365,40.1,17.533,29.479A25.448,25.448,0,0,0,48.7,63.126a25.591,25.591,0,0,0,5.1-2.193Z" transform="translate(-13.767 17.048)" fill="#fff"/>
        <path id="Trazado_877965" data-name="Trazado 877965" d="M38.624,9.906a29.267,29.267,0,0,1,3.691.234,2,2,0,0,1,1.725,2.276l-3.974,26.9a2,2,0,0,1-2.853,1.506L13.125,29.111a2,2,0,0,1-.924-2.673A29.369,29.369,0,0,1,38.624,9.906Zm1.149,4.026q-.575-.026-1.149-.026A25.37,25.37,0,0,0,16.744,26.422l19.765,9.612Z" transform="translate(-13.551 3.307)" fill="#fff"/>
        <path id="Trazado_877966" data-name="Trazado 877966" d="M25,18.849H21V15h4Z" transform="translate(-5.233 6.167)" fill="#fff"/>
        <path id="Trazado_877967" data-name="Trazado 877967" d="M25,11.849H21V8h4Z" transform="translate(-5.233 -0.303)" fill="#fff"/>
        <path id="Trazado_877968" data-name="Trazado 877968" d="M25,7.849H21V4h4Z" transform="translate(-5.233 -4)" fill="#fff"/>
        <path id="Trazado_877969" data-name="Trazado 877969" d="M29.849,7H26V3h3.849Z" transform="translate(-2.46 -3.076)" fill="#fff"/>
        <path id="Trazado_877970" data-name="Trazado 877970" d="M33.849,7H30V3h3.849Z" transform="translate(1.237 -3.076)" fill="#fff"/>
        <path id="Trazado_877971" data-name="Trazado 877971" d="M37.849,7H34V3h3.849Z" transform="translate(4.934 -3.076)" fill="#fff"/>
      </g>
    </g>
  </g>
</svg>
