<svg xmlns="http://www.w3.org/2000/svg" width="184.079" height="184.079" viewBox="0 0 184.079 184.079">
  <g id="Grupo_1101821" data-name="Grupo 1101821" transform="translate(446 6546)">
    <rect id="Rectángulo_403052" data-name="Rectángulo 403052" width="184.079" height="184.079" rx="92" transform="translate(-446 -6546)" fill="#59836b"/>
    <g id="Layer_x0020_1" transform="translate(-410 -6517)">
      <g id="_385810408" transform="translate(0 9)">
        <g id="Grupo_1101820" data-name="Grupo 1101820">
          <g id="_386553976" transform="translate(0 14.018)">
            <path id="Trazado_877963" data-name="Trazado 877963" d="M66.148,167.184H3.943A3.926,3.926,0,0,1,0,163.241v-86.3A3.926,3.926,0,0,1,3.943,73H18.18a1.646,1.646,0,0,1,1.533,1.533,1.5,1.5,0,0,1-1.533,1.533H3.943a.942.942,0,0,0-.876.876v86.3a.942.942,0,0,0,.876.876H66.148a1.533,1.533,0,1,1,0,3.066Zm11.828-62.205a1.5,1.5,0,0,1-1.533-1.533v-26.5a.942.942,0,0,0-.876-.876H61.329A1.5,1.5,0,0,1,59.8,74.533,1.646,1.646,0,0,1,61.329,73H75.566a3.926,3.926,0,0,1,3.943,3.943v26.5A1.5,1.5,0,0,1,77.976,104.979Z" transform="translate(0 -73)" fill="#fff" fill-rule="evenodd"/>
          </g>
          <g id="_386553064" transform="translate(16.646)">
            <path id="Trazado_877964" data-name="Trazado 877964" d="M120.683,31.779H77.533A1.5,1.5,0,0,1,76,30.246V19.076a1.5,1.5,0,0,1,1.533-1.533H92.427V15.79A6.686,6.686,0,0,1,99.217,9a6.824,6.824,0,0,1,6.79,6.79c0,.657-.219,1.314-.219,1.752h14.894a1.5,1.5,0,0,1,1.533,1.533V30.246A1.5,1.5,0,0,1,120.683,31.779ZM79.066,28.713h40.083v-8.1H103.16a1.467,1.467,0,0,1-1.1-2.409,4.593,4.593,0,0,0,.876-2.409,3.838,3.838,0,0,0-3.724-3.724,3.692,3.692,0,0,0-3.724,3.724,4.415,4.415,0,0,0,.657,2.409,1.467,1.467,0,0,1-1.1,2.409H79.066Z" transform="translate(-76 -9)" fill="#fff" fill-rule="evenodd"/>
          </g>
          <g id="_386553448" transform="translate(38.55 79.071)">
            <path id="Trazado_877965" data-name="Trazado 877965" d="M222,399.131H203.6a27.765,27.765,0,0,1-27.6-27.6A1.5,1.5,0,0,1,177.533,370h70.529a1.206,1.206,0,0,1,1.1.438,1.673,1.673,0,0,1,.438,1.1A27.765,27.765,0,0,1,222,399.131Zm-42.93-26.065a24.811,24.811,0,0,0,24.532,23H222a24.811,24.811,0,0,0,24.532-23Z" transform="translate(-176 -370)" fill="#fff" fill-rule="evenodd"/>
          </g>
          <g id="_386553880" transform="translate(50.729 91.031)">
            <path id="Trazado_877966" data-name="Trazado 877966" d="M247.025,434.111a20.517,20.517,0,0,1-15.113-7.009,1.557,1.557,0,1,1,2.409-1.971,17.024,17.024,0,0,0,12.7,5.914,1.533,1.533,0,1,1,0,3.066Z" transform="translate(-231.606 -424.606)" fill="#fff" fill-rule="evenodd"/>
          </g>
          <g id="_386554048" transform="translate(39.645 84.985)">
            <path id="Trazado_877967" data-name="Trazado 877967" d="M250.871,400.066H182.533a1.533,1.533,0,1,1,0-3.066h68.338a1.533,1.533,0,1,1,0,3.066Z" transform="translate(-181 -397)" fill="#fff" fill-rule="evenodd"/>
          </g>
          <g id="Grupo_1101815" data-name="Grupo 1101815" transform="translate(8.542 27.598)">
            <g id="_386553280">
              <path id="Trazado_877968" data-name="Trazado 877968" d="M58.932,156.465h-18.4A1.5,1.5,0,0,1,39,154.932v-18.4A1.5,1.5,0,0,1,40.533,135h18.4a1.5,1.5,0,0,1,1.533,1.533v18.4A1.5,1.5,0,0,1,58.932,156.465ZM42.066,153.4H57.4V138.066H42.066Z" transform="translate(-39 -135)" fill="#fff" fill-rule="evenodd"/>
            </g>
            <g id="_385810192" transform="translate(0 25.627)">
              <path id="Trazado_877969" data-name="Trazado 877969" d="M58.932,273.465h-18.4A1.5,1.5,0,0,1,39,271.932v-18.4A1.5,1.5,0,0,1,40.533,252h18.4a1.5,1.5,0,0,1,1.533,1.533v18.4A1.5,1.5,0,0,1,58.932,273.465ZM42.066,270.4H57.4V255.066H42.066Z" transform="translate(-39 -252)" fill="#fff" fill-rule="evenodd"/>
            </g>
            <g id="_387692448" transform="translate(0 51.254)">
              <path id="Trazado_877970" data-name="Trazado 877970" d="M58.932,390.465h-18.4A1.5,1.5,0,0,1,39,388.932v-18.4A1.5,1.5,0,0,1,40.533,369h18.4a1.5,1.5,0,0,1,1.533,1.533v18.4A1.5,1.5,0,0,1,58.932,390.465ZM42.066,387.4H57.4V372.066H42.066Z" transform="translate(-39 -369)" fill="#fff" fill-rule="evenodd"/>
            </g>
            <g id="Grupo_1101813" data-name="Grupo 1101813" transform="translate(6.297 6.297)">
              <g id="_387692568">
                <path id="Trazado_877971" data-name="Trazado 877971" d="M69.338,172.566a1.673,1.673,0,0,1-1.1-.438,1.463,1.463,0,0,1,0-2.19l5.695-5.695a1.549,1.549,0,0,1,2.19,2.19l-5.695,5.695C70,172.347,69.776,172.566,69.338,172.566Z" transform="translate(-67.75 -163.75)" fill="#fff" fill-rule="evenodd"/>
              </g>
              <g id="_387692640">
                <path id="Trazado_877972" data-name="Trazado 877972" d="M75.033,172.566c-.438,0-.657-.219-1.1-.438l-5.695-5.695a1.549,1.549,0,0,1,2.19-2.19l5.695,5.695a1.463,1.463,0,0,1,0,2.19A1.673,1.673,0,0,1,75.033,172.566Z" transform="translate(-67.75 -163.75)" fill="#fff" fill-rule="evenodd"/>
              </g>
            </g>
            <g id="Grupo_1101814" data-name="Grupo 1101814" transform="translate(6.297 31.924)">
              <g id="_387692736">
                <path id="Trazado_877973" data-name="Trazado 877973" d="M69.338,289.566a1.673,1.673,0,0,1-1.1-.438,1.463,1.463,0,0,1,0-2.19l5.695-5.695a1.549,1.549,0,0,1,2.19,2.19l-5.695,5.695C70,289.347,69.776,289.566,69.338,289.566Z" transform="translate(-67.75 -280.75)" fill="#fff" fill-rule="evenodd"/>
              </g>
              <g id="_387692808">
                <path id="Trazado_877974" data-name="Trazado 877974" d="M75.033,289.566c-.438,0-.657-.219-1.1-.438l-5.695-5.695a1.549,1.549,0,1,1,2.19-2.19l5.695,5.695a1.463,1.463,0,0,1,0,2.19A1.673,1.673,0,0,1,75.033,289.566Z" transform="translate(-67.75 -280.75)" fill="#fff" fill-rule="evenodd"/>
              </g>
            </g>
            <g id="_387692520" transform="translate(4.764 57.113)">
              <path id="Trazado_877975" data-name="Trazado 877975" d="M64.747,405.223c-.438,0-.876,0-1.1-.438l-2.409-2.409a1.463,1.463,0,0,1,0-2.19,1.232,1.232,0,0,1,1.971,0l1.533,1.533L70,396.243a1.549,1.549,0,0,1,2.19,2.19l-6.352,6.352C65.623,405.223,65.185,405.223,64.747,405.223Z" transform="translate(-60.75 -395.75)" fill="#fff" fill-rule="evenodd"/>
            </g>
          </g>
          <g id="Grupo_1101816" data-name="Grupo 1101816" transform="translate(35.483 31.322)">
            <g id="_387692976">
              <path id="Trazado_877976" data-name="Trazado 877976" d="M193.979,155.066H163.533A1.5,1.5,0,0,1,162,153.533,1.646,1.646,0,0,1,163.533,152h30.446a1.646,1.646,0,0,1,1.533,1.533A1.5,1.5,0,0,1,193.979,155.066Z" transform="translate(-162 -152)" fill="#fff" fill-rule="evenodd"/>
            </g>
            <g id="_387693048" transform="translate(0 6.133)">
              <path id="Trazado_877977" data-name="Trazado 877977" d="M193.979,183.066H163.533A1.646,1.646,0,0,1,162,181.533,1.5,1.5,0,0,1,163.533,180h30.446a1.5,1.5,0,0,1,1.533,1.533A1.646,1.646,0,0,1,193.979,183.066Z" transform="translate(-162 -180)" fill="#fff" fill-rule="evenodd"/>
            </g>
          </g>
          <g id="Grupo_1101817" data-name="Grupo 1101817" transform="translate(41.987 42.93)">
            <g id="_387692928" transform="translate(0 5.166)">
              <path id="Trazado_877978" data-name="Trazado 877978" d="M213.443,257.37c-8.98,0-18.4-8.761-21.027-16.646-1.533-5.038-.657-9.2,2.847-11.828a1.677,1.677,0,0,1,2.409.657,30.5,30.5,0,0,0,15.77,16.427,26.093,26.093,0,0,0,10.514,2.409,1.362,1.362,0,0,1,1.314.876,1.871,1.871,0,0,1,0,1.533C222.2,255.179,218.042,257.37,213.443,257.37ZM195.7,232.838c-1.314,1.971-1.1,4.819-.219,6.79,2.19,7.009,10.514,14.675,17.961,14.675a10.817,10.817,0,0,0,7.447-3.066,54.7,54.7,0,0,1-8.761-2.409A34.228,34.228,0,0,1,195.7,232.838Z" transform="translate(-191.691 -228.586)" fill="#fff" fill-rule="evenodd"/>
            </g>
            <g id="_387693216" transform="translate(2.915)">
              <path id="Trazado_877979" data-name="Trazado 877979" d="M206.533,213.1A1.5,1.5,0,0,1,205,211.571l.438-5.038A1.5,1.5,0,0,1,206.971,205a1.859,1.859,0,0,1,1.533,1.752l-.438,5.038C208.066,212.666,207.409,213.1,206.533,213.1Z" transform="translate(-205 -205)" fill="#fff" fill-rule="evenodd"/>
            </g>
          </g>
          <g id="Grupo_1101819" data-name="Grupo 1101819" transform="translate(74.765 39.864)">
            <g id="Grupo_1101818" data-name="Grupo 1101818" transform="translate(0 13.142)">
              <g id="_387693336">
                <path id="Trazado_877980" data-name="Trazado 877980" d="M350.905,280.131h-8.1a1.2,1.2,0,0,1-1.1-.657,1.3,1.3,0,0,1-.219-1.533l6.571-19.932c1.533-4.6,4.6-7.009,8.323-7.009a10.175,10.175,0,0,1,5.038,1.314,9.072,9.072,0,0,1,4.819,6.352,9.529,9.529,0,0,1-2.409,7.666L352.22,279.474A1.893,1.893,0,0,1,350.905,280.131Zm-5.914-3.066h5.257l11.171-12.7c1.533-1.752,2.19-3.5,1.752-5.038a5.232,5.232,0,0,0-3.285-4.162,5.826,5.826,0,0,0-3.5-1.314c-3.285,0-4.819,3.724-5.257,5.257Z" transform="translate(-341.343 -251)" fill="#fff" fill-rule="evenodd"/>
              </g>
              <g id="_387693408" transform="translate(6.268 7.438)">
                <path id="Trazado_877981" data-name="Trazado 877981" d="M373.911,289.349a1.317,1.317,0,0,1-.876-.219l-2.409-1.314a1.646,1.646,0,0,1-.438-2.19,1.427,1.427,0,0,1,1.971-.438l2.409,1.314a1.518,1.518,0,0,1,.657,2.19A1.893,1.893,0,0,1,373.911,289.349Z" transform="translate(-369.959 -284.959)" fill="#fff" fill-rule="evenodd"/>
              </g>
              <g id="_387693480" transform="translate(9.772 18.536)">
                <path id="Trazado_877982" data-name="Trazado 877982" d="M390.787,340.526a1.317,1.317,0,0,1-.876-.219l-3.285-1.752a1.7,1.7,0,0,1-.438-2.19,1.766,1.766,0,0,1,1.971-.657l3.285,1.971a1.518,1.518,0,0,1,.657,2.19A1.561,1.561,0,0,1,390.787,340.526Z" transform="translate(-385.959 -335.625)" fill="#fff" fill-rule="evenodd"/>
              </g>
            </g>
            <g id="_387693552" transform="translate(17.877 2.62)">
              <path id="Trazado_877983" data-name="Trazado 877983" d="M424.5,217.644h-.876a1.7,1.7,0,0,1-.438-2.19l6.79-11.828a1.427,1.427,0,0,1,1.971-.438,1.337,1.337,0,0,1,.657,1.971l-6.79,11.828A1.561,1.561,0,0,1,424.5,217.644Z" transform="translate(-422.959 -202.959)" fill="#fff" fill-rule="evenodd"/>
            </g>
            <g id="_387693624" transform="translate(17.886)">
              <path id="Trazado_877984" data-name="Trazado 877984" d="M424.533,208.3A1.5,1.5,0,0,1,423,206.77l.219-14.237a1.533,1.533,0,0,1,3.066,0l-.219,14.456A1.465,1.465,0,0,1,424.533,208.3Z" transform="translate(-423 -191)" fill="#fff" fill-rule="evenodd"/>
            </g>
            <g id="_387693696" transform="translate(17.877 7)">
              <path id="Trazado_877985" data-name="Trazado 877985" d="M424.5,233.263a1.561,1.561,0,0,1-1.314-.657,1.7,1.7,0,0,1,.438-2.19l12.266-7.228a1.646,1.646,0,0,1,2.19.438,1.7,1.7,0,0,1-.438,2.19l-12.266,7.228A1.656,1.656,0,0,1,424.5,233.263Z" transform="translate(-422.959 -222.959)" fill="#fff" fill-rule="evenodd"/>
            </g>
          </g>
          <g id="_387693768" transform="translate(65.71 48.406)">
            <path id="Trazado_877986" data-name="Trazado 877986" d="M306.571,242.7a6.356,6.356,0,1,1,0-12.7,6.352,6.352,0,1,1,0,12.7Zm0-9.637a3.292,3.292,0,1,0,0,6.571,3.285,3.285,0,1,0,0-6.571Z" transform="translate(-300 -230)" fill="#fff" fill-rule="evenodd"/>
          </g>
          <g id="_387693840" transform="translate(97.689 66.586)">
            <path id="Trazado_877987" data-name="Trazado 877987" d="M451.914,324.828A5.889,5.889,0,0,1,446,318.914a5.805,5.805,0,1,1,11.609,0A5.846,5.846,0,0,1,451.914,324.828Zm0-8.761a2.847,2.847,0,0,0,0,5.695,2.857,2.857,0,0,0,0-5.695Z" transform="translate(-446 -313)" fill="#fff" fill-rule="evenodd"/>
          </g>
        </g>
      </g>
    </g>
  </g>
</svg>
