<svg xmlns="http://www.w3.org/2000/svg" width="184.079" height="184.079" viewBox="0 0 184.079 184.079">
  <g id="Grupo_1101823" data-name="Grupo 1101823" transform="translate(-837 6546)">
    <rect id="Rectángulo_403053" data-name="Rectángulo 403053" width="184.079" height="184.079" rx="92" transform="translate(837 -6546)" fill="#59836b"/>
    <g id="Grupo_1101822" data-name="Grupo 1101822" transform="translate(714.954 -5379.043)">
      <g id="g1751" transform="translate(209.564 -1133.957)">
        <path id="path1753" d="M-14.316-13.333a2.978,2.978,0,0,1,1.259.279L-2.106-7.948A16.859,16.859,0,0,1,5.958.65,16.859,16.859,0,0,1,16.476-4.671L28.513-5.724a2.98,2.98,0,0,1,2.457.955,2.98,2.98,0,0,1,.737,2.531l-.95,5.386c-1.288,7.3-7.92,13.516-15.1,14.144L3.621,18.345A2.98,2.98,0,0,1,2.1,18.077L-8.849,12.97C-15.38,9.925-19.488,1.818-18.2-5.485l.95-5.387A2.98,2.98,0,0,1-15.692-13,2.979,2.979,0,0,1-14.316-13.333ZM1.331,10a3,3,0,0,1,.046-.523C2.191,4.854-.557-.65-4.625-2.546l-7.431-3.465-.275,1.562C-13.146.169-10.4,5.673-6.33,7.569l7.954,3.709A2.964,2.964,0,0,1,1.331,10ZM6.4,12.12l8.743-.765c4.471-.391,8.936-4.623,9.75-9.242L25.163.551,17,1.266c-4.471.391-8.935,4.623-9.75,9.242A2.966,2.966,0,0,1,6.4,12.12Z" transform="translate(18.436 13.333)" fill="#fff"/>
      </g>
      <g id="g1755" transform="translate(206.932 -1118.465)">
        <path id="path1757" d="M-19.575-13.333a2.979,2.979,0,0,1,1.709.539l9.9,6.93a16.865,16.865,0,0,1,6.453,9.89A17.23,17.23,0,0,1,8.548.537q.61,0,1.215.053L21.8,1.642A2.98,2.98,0,0,1,24.34,5.63l-1.871,5.14A17.937,17.937,0,0,1,6.358,22.129q-.61,0-1.215-.053L-6.894,21.023A2.98,2.98,0,0,1-8.343,20.5l-9.9-6.93c-5.9-4.134-8.541-12.831-6-19.8l1.871-5.139a2.98,2.98,0,0,1,1.9-1.823A2.978,2.978,0,0,1-19.575-13.333Zm11.831,26.25a2.974,2.974,0,0,1,.18-1.02c1.6-4.407-.147-10.3-3.822-12.879l-6.717-4.7-.542,1.49c-1.6,4.407.146,10.3,3.823,12.879l7.189,5.033A2.971,2.971,0,0,1-7.744,12.916ZM17.412,7.241,9.244,6.526q-.346-.03-.7-.03A12.05,12.05,0,0,0-1.963,13.935a2.967,2.967,0,0,1-1.117,1.44l8.743.765q.346.03.7.03A12.05,12.05,0,0,0,16.869,8.731Z" transform="translate(25.208 13.333)" fill="#fff"/>
      </g>
      <g id="g1759" transform="translate(201.26 -1103.404)">
        <path id="path1761" d="M-26.106-13.333A2.98,2.98,0,0,1-24-12.461l8.544,8.544A16.863,16.863,0,0,1-10.818,6.932a17.906,17.906,0,0,1,7.907-1.9,14.672,14.672,0,0,1,3.8.487L12.556,8.645a2.98,2.98,0,0,1,1.809,4.368L11.631,17.75A18.025,18.025,0,0,1-3.6,26.363a14.674,14.674,0,0,1-3.8-.487l-11.671-3.127a2.98,2.98,0,0,1-1.336-.771l-8.544-8.544c-5.1-5.1-6.183-14.118-2.476-20.54l2.735-4.737a2.98,2.98,0,0,1,2.192-1.464A2.981,2.981,0,0,1-26.106-13.333Zm7.565,28.464a2.966,2.966,0,0,1,.4-1.486C-15.8,9.583-16.5,3.471-19.67.3l-5.8-5.8-.793,1.374C-28.605-.066-27.905,6.046-24.732,9.22l6.206,6.206Q-18.541,15.279-18.541,15.131ZM7.263,13.4l-7.92-2.122a8.715,8.715,0,0,0-2.254-.284A12.226,12.226,0,0,0-12.98,16.624a2.966,2.966,0,0,1-1.35,1.224l8.477,2.271A8.716,8.716,0,0,0-3.6,20.4,12.225,12.225,0,0,0,6.47,14.77Z" transform="translate(33.62 13.333)" fill="#fff"/>
      </g>
      <g id="g1763" transform="translate(192.695 -1089.229)">
        <path id="path1765" d="M-33.8-13.333l.13,0a2.98,2.98,0,0,1,2.311,1.268l6.93,9.9a16.865,16.865,0,0,1,2.681,11.5,18.476,18.476,0,0,1,5.217-.764A15.6,15.6,0,0,1-9.977,9.964L.974,15.07a2.98,2.98,0,0,1,1.65,2.056A2.98,2.98,0,0,1,2,19.686l-3.516,4.19a18.081,18.081,0,0,1-13.593,6.087,15.6,15.6,0,0,1-6.555-1.388l-10.951-5.106a2.98,2.98,0,0,1-1.182-.991l-6.93-9.9C-44.863,6.675-44.367-2.4-39.6-8.079l3.516-4.19A2.98,2.98,0,0,1-33.8-13.333Zm2.988,29.683a2.966,2.966,0,0,1,.689-1.687c3.015-3.592,3.387-9.733.813-13.409l-4.7-6.717-1.02,1.215c-3.014,3.592-3.386,9.733-.812,13.409Zm25.75,2.48L-12.5,15.365a9.616,9.616,0,0,0-4.036-.83,12.151,12.151,0,0,0-9.028,3.959,2.967,2.967,0,0,1-1.542.971l7.954,3.709a9.619,9.619,0,0,0,4.037.83,12.149,12.149,0,0,0,9.028-3.959Z" transform="translate(43.53 13.333)" fill="#fff"/>
      </g>
      <g id="g1767" transform="translate(181.5 -1076.373)">
        <path id="path1769" d="M-42.418-13.333a2.978,2.978,0,0,1,.645.071,2.98,2.98,0,0,1,2.056,1.65L-34.611-.662a16.865,16.865,0,0,1,.644,11.794,18.785,18.785,0,0,1,2.1-.119,16.45,16.45,0,0,1,9.38,2.779l9.9,6.93a2.98,2.98,0,0,1,1.268,2.311,2.98,2.98,0,0,1-1.062,2.413l-4.19,3.516A17.745,17.745,0,0,1-27.847,32.87a16.451,16.451,0,0,1-9.38-2.779l-9.9-6.93a2.98,2.98,0,0,1-.992-1.182l-5.106-10.951C-56.268,4.5-54.2-4.354-48.523-9.121l4.19-3.516A2.98,2.98,0,0,1-42.418-13.333Zm-1.694,29.8a2.966,2.966,0,0,1,.971-1.543c3.593-3.014,5.025-9,3.129-13.064l-3.465-7.431-1.215,1.02c-3.592,3.014-5.025,9-3.128,13.065Zm24.928,6.914-6.717-4.7a10.462,10.462,0,0,0-5.962-1.7,11.71,11.71,0,0,0-7.448,2.514A2.967,2.967,0,0,1-41,20.175l7.189,5.034a10.463,10.463,0,0,0,5.961,1.7A11.709,11.709,0,0,0-20.4,24.4Z" transform="translate(54.626 13.333)" fill="#fff"/>
      </g>
      <g id="g1771" transform="translate(168.046 -1065.225)">
        <path id="path1773" d="M-51.587-13.333a2.978,2.978,0,0,1,1.14.227,2.98,2.98,0,0,1,1.738,1.982L-45.582.546A16.866,16.866,0,0,1-47,12.27a16.777,16.777,0,0,1,10.848,4.616l8.544,8.544a2.98,2.98,0,0,1,.847,2.5,2.98,2.98,0,0,1-1.465,2.192l-4.737,2.734a17,17,0,0,1-8.5,2.177A17.024,17.024,0,0,1-53.5,30.377l-8.544-8.544a2.98,2.98,0,0,1-.771-1.336L-65.941,8.827c-1.865-6.962,1.7-15.319,8.127-19.027l4.737-2.735A2.979,2.979,0,0,1-51.587-13.333Zm-6.325,29.095a2.966,2.966,0,0,1,1.224-1.35c4.062-2.345,6.512-7.988,5.35-12.323l-2.122-7.92-1.374.793C-58.9-2.694-61.345,2.95-60.184,7.285ZM-34.564,26.9l-5.8-5.8a11.2,11.2,0,0,0-7.822-2.907,11.05,11.05,0,0,0-5.524,1.379,2.967,2.967,0,0,1-1.781.385l6.205,6.205a11.2,11.2,0,0,0,7.823,2.907,11.049,11.049,0,0,0,5.524-1.379Z" transform="translate(66.435 13.333)" fill="#fff"/>
      </g>
    </g>
  </g>
</svg>
