<svg xmlns="http://www.w3.org/2000/svg" width="184.079" height="184.079" viewBox="0 0 184.079 184.079">
  <g id="Grupo_1101825" data-name="Grupo 1101825" transform="translate(-2098 6546)">
    <rect id="Rectángulo_403054" data-name="Rectángulo 403054" width="184.079" height="184.079" rx="92" transform="translate(2098 -6546)" fill="#59836b"/>
    <g id="Outlines" transform="translate(2129.033 -6514.896)">
      <g id="Grupo_1101824" data-name="Grupo 1101824" transform="translate(2 2)">
        <path id="Trazado_877988" data-name="Trazado 877988" d="M92.46,43.008a23.231,23.231,0,0,0-16.311-8.035,13.9,13.9,0,0,0,6.9-11.987A1.986,1.986,0,0,0,81.059,21H69.146a9.94,9.94,0,0,0-9.928,9.928v7.906c-.052-.034-.109-.048-.159-.085A19.107,19.107,0,0,0,47.595,34.9a23.252,23.252,0,0,0-17.65,8.111A22.176,22.176,0,0,0,24.771,60.8a27.414,27.414,0,0,0,2.581,8.141L40.987,96.206a11.049,11.049,0,0,0,5.56,5.349A10.93,10.93,0,0,0,59.5,98.067l1.7-2.277,1.479,1.972a11.381,11.381,0,0,0,6.254,4.319,11.1,11.1,0,0,0,2.678.328,10.813,10.813,0,0,0,9.7-6.008L95.053,68.931A1.986,1.986,0,1,0,91.5,67.156L77.767,94.626a6.894,6.894,0,0,1-7.875,3.6,7.424,7.424,0,0,1-4.035-2.849l-3.066-4.088a1.986,1.986,0,0,0-3.177,0l-3.292,4.39a6.963,6.963,0,0,1-8.258,2.2,7.09,7.09,0,0,1-3.524-3.459L30.906,67.156a23.384,23.384,0,0,1-2.21-6.949,17.969,17.969,0,0,1,4.261-14.6A19.288,19.288,0,0,1,47.595,38.87a15.164,15.164,0,0,1,9.133,3.093,7.47,7.47,0,0,0,9.022-.048,15.1,15.1,0,0,1,9.062-3.046A19.288,19.288,0,0,1,89.45,45.6a17.969,17.969,0,0,1,4.261,14.6,1.985,1.985,0,1,0,3.926.6A22.177,22.177,0,0,0,92.46,43.008ZM63.189,30.928a5.957,5.957,0,0,1,5.957-5.957h9.729a9.944,9.944,0,0,1-9.729,7.942H63.189Zm.1,7.871c-.03.022-.066.028-.1.05V36.884h3.223A19.349,19.349,0,0,0,63.285,38.8Z" transform="translate(20.204 16.725)" fill="#fff"/>
        <path id="Trazado_877989" data-name="Trazado 877989" d="M63.549,50.424a1.951,1.951,0,0,0,.3.024,1.986,1.986,0,0,0,1.962-1.688,14.06,14.06,0,0,0-3.35-11.417A15.314,15.314,0,0,0,50.84,32a1.986,1.986,0,1,0,0,3.971,11.348,11.348,0,0,1,8.612,3.96,10.14,10.14,0,0,1,2.434,8.232A1.986,1.986,0,0,0,63.549,50.424Z" transform="translate(44.177 27.566)" fill="#fff"/>
        <circle id="Elipse_11510" data-name="Elipse 11510" cx="2.201" cy="2.201" r="2.201" transform="translate(67.494 102.988)" fill="#fff"/>
        <circle id="Elipse_11511" data-name="Elipse 11511" cx="1.76" cy="1.76" r="1.76" transform="translate(63.973 97.707)" fill="#fff"/>
        <path id="Trazado_877990" data-name="Trazado 877990" d="M59.581,117.161H11.928A5.957,5.957,0,0,1,5.971,111.2V11.928a5.957,5.957,0,0,1,5.957-5.957H87.378a5.957,5.957,0,0,1,5.957,5.957V33.769a1.986,1.986,0,1,0,3.971,0V11.928A9.94,9.94,0,0,0,87.378,2H11.928A9.94,9.94,0,0,0,2,11.928V111.2a9.94,9.94,0,0,0,9.928,9.928H59.581a1.986,1.986,0,1,0,0-3.971Z" transform="translate(-2 -2)" fill="#fff"/>
        <path id="Trazado_877991" data-name="Trazado 877991" d="M80.465,31.579a1.986,1.986,0,0,0,1.986-1.986V8.986A1.986,1.986,0,0,0,80.465,7H8.986A1.986,1.986,0,0,0,7,8.986v35.74a1.986,1.986,0,0,0,1.986,1.986H70.537a1.986,1.986,0,0,0,0-3.971H10.971V10.971H78.479V29.593A1.986,1.986,0,0,0,80.465,31.579Z" transform="translate(2.928 2.928)" fill="#fff"/>
        <path id="Trazado_877992" data-name="Trazado 877992" d="M22.884,30.986A1.986,1.986,0,0,0,20.9,29H8.986A1.986,1.986,0,0,0,7,30.986V42.9a1.986,1.986,0,0,0,1.986,1.986H20.9A1.986,1.986,0,0,0,22.884,42.9Zm-3.971,9.928H10.971V32.971h7.942Z" transform="translate(2.928 24.61)" fill="#fff"/>
        <path id="Trazado_877993" data-name="Trazado 877993" d="M33.884,32.971V30.986A1.986,1.986,0,0,0,31.9,29H19.986A1.986,1.986,0,0,0,18,30.986V42.9a1.986,1.986,0,0,0,1.986,1.986h5.957a1.986,1.986,0,1,0,0-3.971H21.971V32.971h7.942a1.986,1.986,0,0,0,3.971,0Z" transform="translate(13.769 24.61)" fill="#fff"/>
        <path id="Trazado_877994" data-name="Trazado 877994" d="M22.884,40.986A1.986,1.986,0,0,0,20.9,39H8.986A1.986,1.986,0,0,0,7,40.986V52.9a1.986,1.986,0,0,0,1.986,1.986H20.9A1.986,1.986,0,0,0,22.884,52.9Zm-3.971,9.928H10.971V42.971h7.942Z" transform="translate(2.928 34.465)" fill="#fff"/>
        <path id="Trazado_877995" data-name="Trazado 877995" d="M25.942,42.971a1.986,1.986,0,1,0,0-3.971H19.986A1.986,1.986,0,0,0,18,40.986V52.9a1.986,1.986,0,0,0,1.986,1.986h7.942a1.986,1.986,0,1,0,0-3.971H21.971V42.971Z" transform="translate(13.769 34.465)" fill="#fff"/>
        <path id="Trazado_877996" data-name="Trazado 877996" d="M20.9,50H8.986A1.986,1.986,0,0,0,7,51.986V63.9a1.986,1.986,0,0,0,1.986,1.986H20.9A1.986,1.986,0,0,0,22.884,63.9V51.986A1.986,1.986,0,0,0,20.9,50ZM18.913,61.913H10.971V53.971h7.942Z" transform="translate(2.928 45.306)" fill="#fff"/>
        <path id="Trazado_877997" data-name="Trazado 877997" d="M18,63.9a1.986,1.986,0,0,0,1.986,1.986H31.9A1.986,1.986,0,0,0,33.884,63.9V51.986A1.986,1.986,0,0,0,31.9,50H19.986A1.986,1.986,0,0,0,18,51.986Zm3.971-9.928h7.942v7.942H21.971Z" transform="translate(13.769 45.306)" fill="#fff"/>
        <path id="Trazado_877998" data-name="Trazado 877998" d="M24.331,16.553a1.986,1.986,0,0,0-2.808,0l-4.553,4.553v-7.12a1.986,1.986,0,0,0-3.971,0V29.87a1.986,1.986,0,0,0,3.971,0V26.721l4.553,4.553a1.985,1.985,0,1,0,2.808-2.808l-4.553-4.553,4.553-4.553A1.986,1.986,0,0,0,24.331,16.553Z" transform="translate(8.841 7.855)" fill="#fff"/>
        <path id="Trazado_877999" data-name="Trazado 877999" d="M28.942,17.971a1.986,1.986,0,1,0,3.971,0A3.971,3.971,0,0,0,28.942,14H24.971A3.971,3.971,0,0,0,21,17.971v7.942a3.971,3.971,0,0,0,3.971,3.971h3.971a3.971,3.971,0,0,0,3.971-3.971,1.986,1.986,0,1,0-3.971,0H24.971V17.971Z" transform="translate(16.725 9.826)" fill="#fff"/>
        <path id="Trazado_878000" data-name="Trazado 878000" d="M31.971,19.957A3.971,3.971,0,0,0,28,23.928v1.986a3.971,3.971,0,0,0,3.971,3.971h1.986a5.919,5.919,0,0,0,3.971-1.549A5.919,5.919,0,0,0,41.9,29.884a1.986,1.986,0,1,0,0-3.971,1.986,1.986,0,0,1-1.986-1.986V17.971A3.971,3.971,0,0,0,35.942,14H29.986a1.986,1.986,0,1,0,0,3.971h5.957v1.986Zm1.986,5.957H31.971V23.928h3.971A1.986,1.986,0,0,1,33.957,25.913Z" transform="translate(23.624 9.826)" fill="#fff"/>
        <path id="Trazado_878001" data-name="Trazado 878001" d="M38,13.986V29.87a1.986,1.986,0,1,0,3.971,0V13.986a1.986,1.986,0,1,0-3.971,0Z" transform="translate(33.479 7.855)" fill="#fff"/>
      </g>
    </g>
  </g>
</svg>
