<svg xmlns="http://www.w3.org/2000/svg" width="184.079" height="184.079" viewBox="0 0 184.079 184.079">
  <g id="Grupo_1101826" data-name="Grupo 1101826" transform="translate(1707 6157)">
    <rect id="Rectángulo_403050" data-name="Rectángulo 403050" width="184.079" height="184.079" rx="92" transform="translate(-1707 -6157)" fill="#59836b"/>
    <g id="cronograma" transform="translate(-1674.75 -6122.55)">
      <path id="Trazado_878002" data-name="Trazado 878002" d="M11.355,2.55h95.72A10.7,10.7,0,0,1,117.68,13.155v89.012a10.583,10.583,0,0,1-10.605,10.605H11.355A10.583,10.583,0,0,1,.75,102.167V13.155A10.7,10.7,0,0,1,11.355,2.55Zm95.72,105.69a6.051,6.051,0,0,0,6.073-6.073V13.155a6.154,6.154,0,0,0-6.073-6.073H11.355a6.154,6.154,0,0,0-6.073,6.073v89.012a6.051,6.051,0,0,0,6.073,6.073Z" transform="translate(0 0)" fill="#fff"/>
      <path id="Trazado_878003" data-name="Trazado 878003" d="M115.414,22.382H3.016a2.266,2.266,0,0,1,0-4.532h112.4a2.266,2.266,0,1,1,0,4.532Z" transform="translate(0 12.437)" fill="#fff"/>
      <path id="Trazado_878004" data-name="Trazado 878004" d="M13.716,83.006A2.266,2.266,0,0,1,11.45,80.74V26.716a2.266,2.266,0,1,1,4.532,0V80.74A2.266,2.266,0,0,1,13.716,83.006Z" transform="translate(8.698 17.802)" fill="#fff"/>
      <path id="Trazado_878005" data-name="Trazado 878005" d="M23.916,73.089a2.266,2.266,0,0,1-2.266-2.266V38.916a2.266,2.266,0,1,1,4.532,0V70.823A2.266,2.266,0,0,1,23.916,73.089Z" transform="translate(16.989 27.719)" fill="#fff"/>
      <path id="Trazado_878006" data-name="Trazado 878006" d="M23.916,29.526A2.266,2.266,0,0,1,21.65,27.26v-.544a2.266,2.266,0,0,1,4.532,0v.544A2.266,2.266,0,0,1,23.916,29.526Z" transform="translate(16.989 17.802)" fill="#fff"/>
      <path id="Trazado_878007" data-name="Trazado 878007" d="M34.016,83.006A2.266,2.266,0,0,1,31.75,80.74V26.716a2.266,2.266,0,1,1,4.532,0V80.74A2.266,2.266,0,0,1,34.016,83.006Z" transform="translate(25.199 17.802)" fill="#fff"/>
      <path id="Trazado_878008" data-name="Trazado 878008" d="M44.216,66.017a2.266,2.266,0,0,1-2.266-2.266V47.616a2.266,2.266,0,1,1,4.532,0V63.751A2.266,2.266,0,0,1,44.216,66.017Z" transform="translate(33.49 34.791)" fill="#fff"/>
      <path id="Trazado_878009" data-name="Trazado 878009" d="M44.216,45.3a2.266,2.266,0,0,1-2.266-2.266V26.716a2.266,2.266,0,1,1,4.532,0V43.032A2.266,2.266,0,0,1,44.216,45.3Z" transform="translate(33.49 17.802)" fill="#fff"/>
      <path id="Trazado_878010" data-name="Trazado 878010" d="M54.316,83.006A2.266,2.266,0,0,1,52.05,80.74V26.716a2.266,2.266,0,1,1,4.532,0V80.74A2.266,2.266,0,0,1,54.316,83.006Z" transform="translate(41.7 17.802)" fill="#fff"/>
      <path id="Trazado_878011" data-name="Trazado 878011" d="M84.927,35.282H29.816a2.266,2.266,0,1,1,0-4.532H84.927a2.266,2.266,0,1,1,0,4.532Z" transform="translate(21.785 22.923)" fill="#fff"/>
      <path id="Trazado_878012" data-name="Trazado 878012" d="M26.126,35.282H7.816a2.266,2.266,0,0,1,0-4.532h18.31a2.266,2.266,0,0,1,0,4.532Z" transform="translate(3.902 22.923)" fill="#fff"/>
      <path id="Trazado_878013" data-name="Trazado 878013" d="M68.426,43.882H50.116a2.266,2.266,0,1,1,0-4.532h18.31a2.266,2.266,0,0,1,0,4.532Z" transform="translate(38.286 29.914)" fill="#fff"/>
      <path id="Trazado_878014" data-name="Trazado 878014" d="M62.927,43.882H7.816a2.266,2.266,0,1,1,0-4.532H62.927a2.266,2.266,0,1,1,0,4.532Z" transform="translate(3.902 29.914)" fill="#fff"/>
      <path id="Trazado_878015" data-name="Trazado 878015" d="M102.81,52.582H7.816a2.266,2.266,0,1,1,0-4.532H102.81a2.266,2.266,0,1,1,0,4.532Z" transform="translate(3.902 36.986)" fill="#fff"/>
      <path id="Elipse_11512" data-name="Elipse 11512" d="M6.273-1.25A7.523,7.523,0,1,1-1.25,6.273,7.532,7.532,0,0,1,6.273-1.25Zm0,10.515A2.991,2.991,0,1,0,3.282,6.273,2.995,2.995,0,0,0,6.273,9.265Z" transform="translate(83.398 12.32)" fill="#fff"/>
      <path id="Elipse_11513" data-name="Elipse 11513" d="M6.273-1.25A7.523,7.523,0,1,1-1.25,6.273,7.532,7.532,0,0,1,6.273-1.25Zm0,10.515A2.991,2.991,0,1,0,3.282,6.273,2.995,2.995,0,0,0,6.273,9.265Z" transform="translate(22.485 12.32)" fill="#fff"/>
      <path id="Elipse_11514" data-name="Elipse 11514" d="M6.273-1.25A7.523,7.523,0,1,1-1.25,6.273,7.532,7.532,0,0,1,6.273-1.25Zm0,10.515A2.991,2.991,0,1,0,3.282,6.273,2.995,2.995,0,0,0,6.273,9.265Z" transform="translate(71.433 65.256)" fill="#fff"/>
      <path id="Elipse_11515" data-name="Elipse 11515" d="M6.273-1.25A7.523,7.523,0,1,1-1.25,6.273,7.532,7.532,0,0,1,6.273-1.25Zm0,10.515A2.991,2.991,0,1,0,3.282,6.273,2.995,2.995,0,0,0,6.273,9.265Z" transform="translate(34.45 49.666)" fill="#fff"/>
    </g>
  </g>
</svg>
