<svg xmlns="http://www.w3.org/2000/svg" width="184.079" height="184.079" viewBox="0 0 184.079 184.079">
  <g id="Grupo_1101827" data-name="Grupo 1101827" transform="translate(446 6157)">
    <rect id="Rectángulo_403049" data-name="Rectángulo 403049" width="184.079" height="184.079" rx="92" transform="translate(-446 -6157)" fill="#59836b"/>
    <g id="Page-1" transform="translate(-416.984 -6127.022)">
      <g id="_028---Calorie-Counting" data-name="028---Calorie-Counting" transform="translate(-0.016 0.023)">
        <path id="Shape" d="M72.345,39.8a2.085,2.085,0,0,0,3.88-1.526C68.207,17.858,48.286,6.611,27.743,10.9a2.086,2.086,0,0,0,.855,4.083C43.73,11.816,63.872,18.229,72.345,39.8Z" transform="translate(26.253 10.798)" fill="#fff"/>
        <path id="Shape-2" data-name="Shape" d="M25.34,104.915a8.34,8.34,0,0,0,8.34-8.34V13.17A4.17,4.17,0,0,0,29.511,9C20.274,9,17,17.73,17,42.362V96.574A8.34,8.34,0,0,0,25.34,104.915Zm0-4.17a4.17,4.17,0,0,1-4.17-4.17V59.042h8.34V96.574A4.17,4.17,0,0,1,25.34,100.744Zm4.17-87.574c0,45.78.04,38.85-.094,41.7H21.17V42.362C21.17,13.17,26.383,13.17,29.511,13.17Z" transform="translate(16.396 9.719)" fill="#fff"/>
        <path id="Shape-3" data-name="Shape" d="M120.623,104.512a2.085,2.085,0,0,0-2.84.761,31.291,31.291,0,0,1-54.192,0,2.085,2.085,0,0,0-3.609,2.085,35.572,35.572,0,0,0,12.75,12.8A57.937,57.937,0,0,1,25.972,107.1c.121-1.274.077,4.514.077-49.625a10.394,10.394,0,0,0,6.245-9.543V25a6.255,6.255,0,0,0-7.448-6.134,58.362,58.362,0,0,1,96.375,52.772,35.459,35.459,0,0,0-61.254.265,2.085,2.085,0,0,0,3.609,2.085,31.276,31.276,0,0,1,56.437,4.81,2.085,2.085,0,0,0,3.962-.181A62.52,62.52,0,0,0,18.827,18.864c-.125-.023-.252-.063-.379-.077a5.519,5.519,0,0,0-1.374-.015,6.2,6.2,0,0,0-3.559,1.6A6.243,6.243,0,0,0,3.1,25V46.29A62.584,62.584,0,0,0,9.358,93.711v12.6a8.34,8.34,0,0,0,14.235,5.895,8.651,8.651,0,0,0,.8-.974,62.267,62.267,0,0,0,54.69,11.885,35.476,35.476,0,0,0,42.3-15.763,2.085,2.085,0,0,0-.759-2.846ZM7.273,25a2.085,2.085,0,0,1,4.17,0V41.677a2.085,2.085,0,0,0,4.17,0V25a2.125,2.125,0,0,1,1.937-2.085h.344A2.108,2.108,0,0,1,19.784,25V41.677a2.085,2.085,0,1,0,4.17,0V25a2.085,2.085,0,0,1,3.413-1.589,2.072,2.072,0,0,0,.158.142,2.012,2.012,0,0,1,.6,1.447V47.933a6.255,6.255,0,0,1-6.255,6.255h-8.34a6.255,6.255,0,0,1-6.255-6.255ZM5.7,54.784a10.236,10.236,0,0,0,3.657,2.7v26.71A58.112,58.112,0,0,1,5.7,54.784Zm12,55.7a4.17,4.17,0,0,1-4.17-4.17V58.358h8.34v47.957A4.17,4.17,0,0,1,17.7,110.486Z" transform="translate(-0.984 -0.023)" fill="#fff"/>
        <path id="Shape-4" data-name="Shape" d="M43.139,38.782a2.085,2.085,0,0,0-2.932-.325l-7.037,5.63v-4a2.085,2.085,0,1,0-4.17,0V56.766a2.085,2.085,0,1,0,4.17,0v-4l7.037,5.63a2.086,2.086,0,1,0,2.606-3.257l-8.393-6.712,8.39-6.712a2.085,2.085,0,0,0,.327-2.932Z" transform="translate(29.417 41.186)" fill="#fff"/>
        <path id="Shape-5" data-name="Shape" d="M43.255,42.17H45.34a2.085,2.085,0,0,1,2.085,2.085,2.085,2.085,0,1,0,4.17,0A6.255,6.255,0,0,0,45.34,38H43.255A6.255,6.255,0,0,0,37,44.255V52.6a6.255,6.255,0,0,0,6.255,6.255H45.34A6.255,6.255,0,0,0,51.6,52.6a2.085,2.085,0,0,0-4.17,0,2.085,2.085,0,0,1-2.085,2.085H43.255A2.085,2.085,0,0,1,41.17,52.6v-8.34A2.085,2.085,0,0,1,43.255,42.17Z" transform="translate(38.098 41.186)" fill="#fff"/>
        <path id="Shape-6" data-name="Shape" d="M53.341,38a2.085,2.085,0,0,0-1.954,1.353L45.132,56.034a2.086,2.086,0,1,0,3.907,1.46l1.055-2.813h6.493L57.642,57.5a2.086,2.086,0,0,0,3.907-1.46L55.294,39.357A2.085,2.085,0,0,0,53.341,38ZM51.658,50.511l1.683-4.487,1.683,4.487Z" transform="translate(46.778 41.186)" fill="#fff"/>
        <path id="Shape-7" data-name="Shape" d="M66.511,54.681H58.17v-14.6a2.085,2.085,0,1,0-4.17,0V56.766a2.085,2.085,0,0,0,2.085,2.085H66.511a2.085,2.085,0,0,0,0-4.17Z" transform="translate(56.544 41.186)" fill="#fff"/>
      </g>
    </g>
  </g>
</svg>
