<svg xmlns="http://www.w3.org/2000/svg" width="89" height="89" viewBox="0 0 89 89">
  <g id="Grupo_1101879" data-name="Grupo 1101879" transform="translate(-754.994 -1370)">
    <rect id="Rectángulo_400898" data-name="Rectángulo 400898" width="89" height="89" rx="44.5" transform="translate(754.994 1370)" fill="#fff"/>
    <g id="bienestar" transform="translate(766.994 1382.99)">
      <path id="Trazado_878269" data-name="Trazado 878269" d="M52.86,50.25,50.79,52.5A3.009,3.009,0,0,0,50,54.53V61a1,1,0,0,0,2,0V54.53a.937.937,0,0,1,.27-.67l2.07-2.25a1,1,0,1,0-1.47-1.35Z" fill="#30169a"/>
      <path id="Trazado_878270" data-name="Trazado 878270" d="M59.85,24.9a3.527,3.527,0,0,0-2.71-.89A3.615,3.615,0,0,0,54,27.64v8.7a3.544,3.544,0,0,0-3.98.68l-8.39,8.39A8.933,8.933,0,0,0,39,51.77V61a1,1,0,0,0,2,0V51.77a6.936,6.936,0,0,1,2.05-4.94l8.39-8.39a1.509,1.509,0,0,1,2.12,0c.01.01.02.03.04.04a1.86,1.86,0,0,1,.21.28c.01.02.03.05.04.07a1.468,1.468,0,0,1,.13.42v.02a1.642,1.642,0,0,1,.02.23,1.5,1.5,0,0,1-.44,1.06L48.6,45.52a1,1,0,0,0,0,1.41.982.982,0,0,0,.71.29,1.024,1.024,0,0,0,.71-.29l4.96-4.96a3.487,3.487,0,0,0,1.03-2.48c0-.11-.02-.22-.03-.33,0-.06.03-.11.03-.17V27.63a1.606,1.606,0,0,1,1.34-1.64,1.515,1.515,0,0,1,1.17.38,1.476,1.476,0,0,1,.49,1.12V41.25a5.94,5.94,0,0,1-1.6,4.07L55.59,47.3a1,1,0,1,0,1.47,1.35l1.82-1.98a7.941,7.941,0,0,0,2.13-5.43V27.48a3.513,3.513,0,0,0-1.15-2.6Z" fill="#30169a"/>
      <path id="Trazado_878271" data-name="Trazado 878271" d="M6.59,45.33A5.931,5.931,0,0,1,5,41.26V35a1,1,0,0,0-2,0v6.26a7.978,7.978,0,0,0,2.12,5.43l6.61,7.17a1.019,1.019,0,0,1,.27.67V61a1,1,0,0,0,2,0V54.53a3.008,3.008,0,0,0-.79-2.03L6.6,45.33Z" fill="#30169a"/>
      <path id="Trazado_878272" data-name="Trazado 878272" d="M22.37,45.41l-8.39-8.39a3.528,3.528,0,0,0-3.97-.68v-8.7a3.615,3.615,0,0,0-3.14-3.63,3.49,3.49,0,0,0-2.71.89,3.53,3.53,0,0,0-1.15,2.6V31a1,1,0,0,0,2,0V27.5a1.528,1.528,0,0,1,.49-1.12A1.5,1.5,0,0,1,6.67,26a1.6,1.6,0,0,1,1.34,1.64V39a1.01,1.01,0,0,0,.03.17c-.01.11-.03.22-.03.33a3.424,3.424,0,0,0,1.03,2.47L14,46.93a.982.982,0,0,0,.71.29,1.024,1.024,0,0,0,.71-.29,1,1,0,0,0,0-1.41l-4.96-4.96a1.5,1.5,0,0,1-.44-1.06,1.785,1.785,0,0,1,.02-.23v-.02a1.468,1.468,0,0,1,.13-.42.435.435,0,0,1,.04-.07,1.311,1.311,0,0,1,.2-.28c.02-.02.03-.04.04-.05a1.528,1.528,0,0,1,2.12,0l8.39,8.39a6.953,6.953,0,0,1,2.05,4.94v9.23a1,1,0,0,0,2,0V51.76a8.974,8.974,0,0,0-2.63-6.36Z" fill="#30169a"/>
      <path id="Trazado_878273" data-name="Trazado 878273" d="M32,35a.973.973,0,0,1-.49-.13C31,34.59,19,27.82,19,19.83,19,16.06,22.35,13,26.46,13A7.671,7.671,0,0,1,32,15.71,7.634,7.634,0,0,1,37.54,13C41.65,13,45,16.06,45,19.83c0,2.58-1.25,5.29-3.7,8.06a1,1,0,0,1-1.49-1.33c2.12-2.38,3.2-4.65,3.2-6.73,0-2.66-2.45-4.83-5.46-4.83a6.14,6.14,0,0,0-4.71,2.89,1.03,1.03,0,0,1-1.66,0A6.167,6.167,0,0,0,26.47,15c-3.01,0-5.46,2.17-5.46,4.83,0,6.01,8.81,11.69,11,13.01a39.711,39.711,0,0,0,5.03-3.6,1,1,0,0,1,1.29,1.53,40.405,40.405,0,0,1-5.84,4.1A1.054,1.054,0,0,1,32,35Z" fill="#30169a"/>
      <path id="Trazado_878274" data-name="Trazado 878274" d="M32,42A19.985,19.985,0,0,1,16.7,9.14a1,1,0,0,1,1.53,1.29A18.022,18.022,0,1,0,20.96,7.8a1,1,0,0,1-1.23-1.57A20,20,0,1,1,32.01,42.01Z" fill="#30169a"/>
    </g>
  </g>
</svg>
