<svg xmlns="http://www.w3.org/2000/svg" width="85" height="85" viewBox="0 0 85 85">
  <g id="Grupo_1101924" data-name="Grupo 1101924" transform="translate(-180.165 -1288)">
    <g id="Grupo_1098742" data-name="Grupo 1098742" transform="translate(180.165 1288)">
      <rect id="Rect치ngulo_400898" data-name="Rect치ngulo 400898" width="85" height="85" rx="42.5" transform="translate(0 0)" fill="#30169a"/>
      <rect id="Rect치ngulo_400907" data-name="Rect치ngulo 400907" width="85" height="85" rx="42.5" transform="translate(0 0)" fill="none"/>
    </g>
    <g id="deporte" transform="translate(196.726 1308.492)">
      <path id="Trazado_878427" data-name="Trazado 878427" d="M52.083,15.905V12.287a1.775,1.775,0,0,0-1.773-1.773A2.342,2.342,0,0,1,47.966,8.17V1.8a1.8,1.8,0,0,0-1.8-1.8H44a1.8,1.8,0,0,0-1.8,1.8V5.528a4.245,4.245,0,0,1-4.112,4.264A4.183,4.183,0,0,1,33.83,5.61V1.8a1.8,1.8,0,0,0-1.8-1.8h-2.17a1.8,1.8,0,0,0-1.8,1.8V4.1a.763.763,0,1,0,1.526,0V1.8a.274.274,0,0,1,.274-.273h2.17A.274.274,0,0,1,32.3,1.8V5.61a5.71,5.71,0,0,0,5.806,5.709,5.778,5.778,0,0,0,5.613-5.79V1.8A.274.274,0,0,1,44,1.526h2.17a.274.274,0,0,1,.273.273V8.17a3.869,3.869,0,0,0,3.87,3.869.247.247,0,0,1,.247.247v3.152L38.013,21.457,25.471,15.44V12.287a.248.248,0,0,1,.247-.247A3.874,3.874,0,0,0,29.587,8.17V7.15a.763.763,0,1,0-1.526,0V8.17a2.346,2.346,0,0,1-2.344,2.344,1.773,1.773,0,0,0-1.773,1.773v3.606q0,.026,0,.051V28.622l-3.924,2.352a3.682,3.682,0,0,0-1.827-.488H13.642V17.306h4.552a3.667,3.667,0,0,0,0-7.334h-.8V9.138A3,3,0,0,0,14.4,6.144h-.759v-1.5a1.578,1.578,0,0,0-1.577-1.577H9.8A1.578,1.578,0,0,0,8.219,4.649v1.5H7.461A3,3,0,0,0,4.466,9.138v.833h-.8a3.68,3.68,0,0,0-.987.134.763.763,0,1,0,.41,1.47,2.142,2.142,0,0,1,.577-.078H18.194a2.141,2.141,0,1,1,0,4.282H3.667a2.143,2.143,0,0,1-2.141-2.141,2.195,2.195,0,0,1,.03-.362.763.763,0,1,0-1.5-.255A3.718,3.718,0,0,0,0,13.639a3.671,3.671,0,0,0,3.667,3.667H8.219v13.18H3.667a3.667,3.667,0,1,0,0,7.334h.8v.833A3,3,0,0,0,7.46,41.648h.759v1.5A1.578,1.578,0,0,0,9.8,44.72h2.269a1.578,1.578,0,0,0,1.577-1.577v-1.5h.03a5.348,5.348,0,0,0,.521.588,5.28,5.28,0,0,0,3.709,1.51H45.407a2.917,2.917,0,0,0,2.913-2.913V36.314h.407a3.359,3.359,0,0,0,3.355-3.355V15.905ZM9.745,4.649A.051.051,0,0,1,9.8,4.6h2.269a.051.051,0,0,1,.051.051v1.5H9.745ZM5.992,9.971V9.138A1.47,1.47,0,0,1,7.461,7.67H14.4a1.47,1.47,0,0,1,1.469,1.468v.833Zm26,16.927a.815.815,0,0,1,.764.536,6.2,6.2,0,0,0,11.693-.116.62.62,0,0,1,.587-.42h.474a1.283,1.283,0,0,1,1.282,1.282v9.611H36.232l-2.5-3.586a.763.763,0,0,0-1.251.873l1.893,2.712H32.54l-4.713-6.754,1.291-.774,1.614,2.313a.763.763,0,0,0,1.252-.873L30.36,29.376a2.7,2.7,0,0,0,.682-1.787V26.9ZM28.9,37.792l-3.64-5.216,1.254-.751,4.164,5.968Zm-3.692,0-2.551-3.656,1.291-.774,3.091,4.43H25.21Zm-7.066-3.915a1.616,1.616,0,0,0,.133.2,2.6,2.6,0,0,0,3.054.818l2.019,2.893H14.173a3.807,3.807,0,0,1,1.783-2.6Zm11.372-6.815v.528a1.167,1.167,0,0,1-.552.988l-.04.025-2.561,1.535-.039.024-2.539,1.521-.015.009-2.88,1.726a1.073,1.073,0,0,1-1.4-.267.061.061,0,0,1,.014-.087l.874-.524.03-.018,9.077-5.441ZM9.745,17.306h2.371v13.18H9.745ZM5.993,38.653V37.82H10.3a.763.763,0,0,0,0-1.526H3.667a2.141,2.141,0,1,1,0-4.283H18.194l.092,0L15.172,33.88A5.314,5.314,0,0,0,12.8,39.9l.005.018,0,.012c.019.065.039.13.06.194H7.46A1.47,1.47,0,0,1,5.993,38.653Zm6.124,4.49a.051.051,0,0,1-.051.051H9.8a.051.051,0,0,1-.051-.051v-1.5h2.371Zm34.678-2.31a1.389,1.389,0,0,1-1.388,1.388c-17.6,0-27.525,0-27.606,0a3.792,3.792,0,0,1-3.58-2.9H46.795Zm1.933-6.045H48.32V28.181a2.811,2.811,0,0,0-2.808-2.808h-.474a2.146,2.146,0,0,0-2.032,1.454,4.672,4.672,0,0,1-8.814.087,2.345,2.345,0,0,0-2.2-1.542c-1.7.044-2.349-.167-3.3.4L25.47,27.707V17.132l12.213,5.859a.763.763,0,0,0,.66,0l12.213-5.86V32.959A1.831,1.831,0,0,1,48.728,34.788Zm0,0" transform="translate(0)" fill="#fff"/>
      <path id="Trazado_878428" data-name="Trazado 878428" d="M354.608,132.145h-.513a.763.763,0,1,0,0,1.526h.161v2.639h-.093a.763.763,0,0,0,0,1.526h1.712a.763.763,0,1,0,0-1.526h-.093v-2.99A1.176,1.176,0,0,0,354.608,132.145Zm0,0" transform="translate(-317.39 -118.702)" fill="#fff"/>
    </g>
  </g>
</svg>
