<svg xmlns="http://www.w3.org/2000/svg" xmlns:xlink="http://www.w3.org/1999/xlink" width="295" height="270.648" viewBox="0 0 295 270.648">
  <defs>
    <clipPath id="clip-path">
      <rect id="Rectángulo_401258" data-name="Rectángulo 401258" width="295" height="270.648" fill="#daf2e4"/>
    </clipPath>
    <clipPath id="clip-path-2">
      <rect id="Rectángulo_402492" data-name="Rectángulo 402492" width="254.876" height="458.558" fill="none"/>
    </clipPath>
  </defs>
  <g id="Grupo_1100556" data-name="Grupo 1100556" transform="translate(-705 -6239)">
    <g id="Grupo_133939" data-name="Grupo 133939" transform="translate(705 6239)">
      <rect id="Rectángulo_35929" data-name="Rectángulo 35929" width="295" height="270.648" fill="#daf2e4"/>
    </g>
    <g id="Enmascarar_grupo_1098662" data-name="Enmascarar grupo 1098662" transform="translate(705 6239)" clip-path="url(#clip-path)">
      <g id="Grupo_1098913" data-name="Grupo 1098913" transform="translate(30.099 -52.743)">
        <path id="Unión_19" data-name="Unión 19" d="M0,170.373,208.178,0l1.454,1.468,206.524,169.02-89.473,90.321L208.451,164.047,89.869,261.094Z" transform="translate(0 416.156) rotate(-90)" fill="#95dbb3"/>
        <path id="Unión_20" data-name="Unión 20" d="M0,124.56,152.7,0l1.064,1.071L305.248,124.644,239.62,190.677,152.9,119.935,65.919,190.886Z" transform="translate(209.378 360.662) rotate(-90)" fill="#95dbb3"/>
        <path id="Unión_21" data-name="Unión 21" d="M0,94.682,115.737,0l.807.814,114.82,93.932L181.62,144.94,115.889,91.166,49.963,145.1Z" transform="translate(361.803 323.719) rotate(-90)" fill="#95dbb3"/>
      </g>
      <g id="Grupo_1100586" data-name="Grupo 1100586" transform="translate(20.062 11.207)">
        <g id="Grupo_1100585" data-name="Grupo 1100585" clip-path="url(#clip-path-2)">
          <path id="Trazado_876203" data-name="Trazado 876203" d="M38.649,242.174Q33.006,311.362,27.362,380.55c-.278,3.407.157,7.994,3.032,8.576,3.011.608,4.667-3.914,5.194-7.444q10.338-69.269,15.087-139.472a17.8,17.8,0,0,1-12.027-.038" transform="translate(4.882 43.324)" fill="#e0c4a2"/>
          <path id="Trazado_876204" data-name="Trazado 876204" d="M146.915,242.174q5.643,69.188,11.287,138.376c.278,3.407-.157,7.994-3.033,8.576-3.01.608-4.666-3.914-5.193-7.444q-10.338-69.269-15.088-139.472a17.8,17.8,0,0,0,12.027-.038" transform="translate(24.131 43.324)" fill="#e0c4a2"/>
          <path id="Trazado_876205" data-name="Trazado 876205" d="M39.474,216.711V142.217a6.509,6.509,0,0,1,6.51-6.51H156.41a6.509,6.509,0,0,1,6.509,6.51v74.494a6.509,6.509,0,0,1-6.509,6.51H45.984a6.509,6.509,0,0,1-6.51-6.51" transform="translate(7.062 24.277)" fill="#75624b"/>
          <path id="Trazado_876206" data-name="Trazado 876206" d="M30.414,247.419V215.653a6.509,6.509,0,0,1,6.51-6.509H168.71a6.509,6.509,0,0,1,6.509,6.509v31.766a6.509,6.509,0,0,1-6.509,6.51H36.924a6.509,6.509,0,0,1-6.51-6.51" transform="translate(5.441 37.415)" fill="#594834"/>
          <path id="Trazado_876207" data-name="Trazado 876207" d="M59.92,181.725A226.463,226.463,0,0,0,44.109,222.3c-1.733,6.142-3.083,13.189.4,18.535,3.194,4.9,9.4,6.713,15.123,7.916a206.385,206.385,0,0,0,60.971,3.581c6-.542,12.07-1.372,17.59-3.784s10.5-6.6,12.672-12.223c2.526-6.535.983-13.852-.588-20.679q-3.717-16.15-7.435-32.3c-27.587,1.02-55.209,1.113-82.925-1.625" transform="translate(7.574 32.51)" fill="#1e6d8f"/>
          <path id="Trazado_876208" data-name="Trazado 876208" d="M88.744,194.431s2.658,14.4-.443,17.72" transform="translate(15.797 34.783)" fill="none" stroke="#071b24" stroke-miterlimit="10" stroke-width="0.5"/>
          <path id="Trazado_876209" data-name="Trazado 876209" d="M64.391,189.734s-6.866,26.8-19.492,26.137" transform="translate(8.032 33.942)" fill="none" stroke="#071b24" stroke-miterlimit="10" stroke-width="0.5"/>
          <path id="Trazado_876210" data-name="Trazado 876210" d="M120.43,190.485s2.524,22.833,15.881,23.6" transform="translate(21.544 34.077)" fill="none" stroke="#071b24" stroke-miterlimit="10" stroke-width="0.5"/>
          <path id="Trazado_876211" data-name="Trazado 876211" d="M135.093,341.04c-.078,2.775,2.71,6.714,5.036,8.229l9.457,6.161a43.936,43.936,0,0,1,9.023,7.073c2.559,2.855,4.387,6.572,4.17,10.4l-60.928-11.348c1.376-4.446,2.719-16.046,3.3-20.664,9.581,1.309,19.089-.17,29.939.15" transform="translate(18.221 60.983)" fill="#071b24"/>
          <path id="Trazado_876212" data-name="Trazado 876212" d="M135.106,330.839a68.683,68.683,0,0,0-.341,12.227,51.709,51.709,0,0,1-28.967.272,1.584,1.584,0,0,1-.789-.4,1.608,1.608,0,0,1-.29-.955q-.516-6.216-1.032-12.43a163.661,163.661,0,0,0,31.418,1.285" transform="translate(18.549 58.956)" fill="#ffc6b5"/>
          <path id="Trazado_876213" data-name="Trazado 876213" d="M143.2,354.276c2.055-31.853,3.653-63.757,3.33-95.673-.087-8.685-.331-17.468-2.6-25.85s-6.777-16.443-13.9-21.411-17.1-6.285-24.591-1.882c-8.2,4.824-11.63,14.911-12.956,24.335-1.456,10.355-1.16,20.87-.795,31.322q1.567,44.721,4.769,89.368a461.509,461.509,0,0,1,46.746-.21" transform="translate(16.349 36.993)" fill="#1a5f7d"/>
          <path id="Trazado_876214" data-name="Trazado 876214" d="M98.334,219.029c-.572-.43-1.138-.9-1.688-1.388a22.171,22.171,0,0,1,7.85-8.18c7.486-4.4,17.467-3.085,24.591,1.883a34.582,34.582,0,0,1,11.546,14.715,47.556,47.556,0,0,1-42.3-7.03" transform="translate(17.289 36.993)" fill="#145c7a"/>
          <line id="Línea_564" data-name="Línea 564" x1="46.493" transform="translate(113.37 387.03)" fill="none" stroke="#071b24" stroke-miterlimit="10" stroke-width="0.5"/>
          <path id="Trazado_876215" data-name="Trazado 876215" d="M187.386,222.321l4.034,61.5a27.306,27.306,0,0,1-7.293-5.033,44.26,44.26,0,0,1-6.143-9.639q-2.589-4.992-5.2-9.986c-1.278-2.447-4.916-5.6-7.669-5.792.729-10.8,3.11-20.088,2.742-29.719,4.564-.13,14.878-.421,19.527-1.327" transform="translate(29.539 39.772)" fill="#071b24"/>
          <path id="Trazado_876216" data-name="Trazado 876216" d="M154.792,252.689a68.465,68.465,0,0,1,12.166.846,51.581,51.581,0,0,0,3.075-28.717,1.581,1.581,0,0,0-.321-.82,1.613,1.613,0,0,0-.92-.381l-12.235-2.227a163.13,163.13,0,0,1-1.766,31.3" transform="translate(27.691 39.606)" fill="#ffc6b5"/>
          <path id="Trazado_876217" data-name="Trazado 876217" d="M177.656,262.363c-31.9-1.048-63.811-2.555-95.545-5.976-8.635-.93-17.353-2.025-25.476-5.1s-15.706-8.342-19.959-15.915-4.594-17.634.515-24.657c5.6-7.695,15.969-10.128,25.477-10.532,10.449-.444,20.884.871,31.25,2.251q44.361,5.9,88.484,13.423a461.7,461.7,0,0,0-4.747,46.505" transform="translate(5.979 35.796)" fill="#1f7194"/>
          <path id="Trazado_876218" data-name="Trazado 876218" d="M50.206,201.076a564.134,564.134,0,0,1,68.879,4.958" transform="translate(8.982 35.971)" fill="none" stroke="#071b24" stroke-miterlimit="10" stroke-width="0.5"/>
          <path id="Trazado_876219" data-name="Trazado 876219" d="M47.313,204.966c-.374-.611-.782-1.22-1.218-1.815a22.179,22.179,0,0,0-8.9,7.019c-5.109,7.024-4.767,17.085-.514,24.657A34.575,34.575,0,0,0,50.2,247.747a47.556,47.556,0,0,0-2.889-42.781" transform="translate(5.979 36.343)" fill="#145c7a"/>
          <line id="Línea_565" data-name="Línea 565" y1="46.273" x2="4.514" transform="translate(179.385 251.787)" fill="none" stroke="#071b24" stroke-miterlimit="10" stroke-width="0.5"/>
          <path id="Trazado_876220" data-name="Trazado 876220" d="M39.614,90.2c-2.476-16.81-4.745-36.027-6.413-52.937-8.872,2.41-17.031,3.751-25.905,6.16C6.247,64.948,6.365,89.972,8.683,111.4c.506,4.687,1.306,9.793,4.811,12.945,2.913,2.621,7.049,3.28,10.941,3.728A234.121,234.121,0,0,0,48.8,129.592c2.326-12.667,6.418-38.1,6.418-38.1s-11.655-1.346-15.606-1.3" transform="translate(1.192 6.666)" fill="#ffc6b5"/>
          <path id="Trazado_876221" data-name="Trazado 876221" d="M8.561,48.494c-1.623-4.261-4.054-9.323-5.844-13.583-.532-1.266-.973-2.954.088-3.827a3.663,3.663,0,0,1-1.234-6.572A4.775,4.775,0,0,1,.363,21.493,2.545,2.545,0,0,1,2.2,19.03C.534,18.614-.249,16.425.448,14.85a4.823,4.823,0,0,1,4.183-2.57,11.564,11.564,0,0,1,5,1.121c5.3,2.184,10.068,5.444,14.8,8.68a20.6,20.6,0,0,1,4.393,3.649c2.063,2.487,6.229,15.2,5.505,18.334a197.759,197.759,0,0,0-25.759,4.43" transform="translate(0 2.195)" fill="#ffc6b5"/>
          <path id="Trazado_876222" data-name="Trazado 876222" d="M23.782,38.833S26.817,12.692,27.766.192a125,125,0,0,0-24.85,1.02C3.472,13.31,8.658,38.9,8.658,38.9Z" transform="translate(0.522 0)" fill="#fff"/>
          <path id="Trazado_876223" data-name="Trazado 876223" d="M6.077,13.224,9.642,34.606q6.233.492,12.5.469Q23.6,24.16,24.1,13.167A12.258,12.258,0,0,1,13.09,14.6c-2.281-.837-4.691-2.392-7.013-1.375" transform="translate(1.087 2.306)" fill="#94dfff"/>
          <path id="Trazado_876224" data-name="Trazado 876224" d="M3.477,35.327a20.7,20.7,0,0,0,8.416.119,4.331,4.331,0,0,0,1.8-.668,1.71,1.71,0,0,0,.73-1.675c-.21-.9-1.258-1.284-2.16-1.474A27.745,27.745,0,0,0,3.5,31.2l7.3-.543a3.571,3.571,0,0,0,2.6-.925,2.433,2.433,0,0,0-.626-3.25,7.06,7.06,0,0,0-3.433-1.2L2.5,24.181q4.186.6,8.416.805c1.22.058,2.79-.153,3.095-1.336a1.894,1.894,0,0,0-.124-1.168c-.6-1.5-2.251-2.269-3.8-2.74a24,24,0,0,0-6.769-1.036q3.823.446,7.673.555a6.462,6.462,0,0,0,2.887-.377,2.314,2.314,0,0,0,1.447-2.317c-.171-.99-1.146-1.612-2.061-2.027A17.855,17.855,0,0,0,2.48,13.3" transform="translate(0.444 2.319)" fill="#ffc6b5"/>
          <path id="Trazado_876225" data-name="Trazado 876225" d="M3.477,35.327a20.7,20.7,0,0,0,8.416.119,4.331,4.331,0,0,0,1.8-.668,1.71,1.71,0,0,0,.73-1.675c-.21-.9-1.258-1.284-2.16-1.474A27.745,27.745,0,0,0,3.5,31.2l7.3-.543a3.571,3.571,0,0,0,2.6-.925,2.433,2.433,0,0,0-.626-3.25,7.06,7.06,0,0,0-3.433-1.2L2.5,24.181q4.186.6,8.416.805c1.22.058,2.79-.153,3.095-1.336a1.894,1.894,0,0,0-.124-1.168c-.6-1.5-2.251-2.269-3.8-2.74a24,24,0,0,0-6.769-1.036q3.823.446,7.673.555a6.462,6.462,0,0,0,2.887-.377,2.314,2.314,0,0,0,1.447-2.317c-.171-.99-1.146-1.612-2.061-2.027A17.855,17.855,0,0,0,2.48,13.3" transform="translate(0.444 2.319)" fill="none" stroke="#4a281e" stroke-miterlimit="10" stroke-width="0.5"/>
          <path id="Trazado_876226" data-name="Trazado 876226" d="M23.149,32a22.075,22.075,0,0,0-4.667-6.225,13.553,13.553,0,0,1-3-2.591c-.757-1.089-.872-2.8.19-3.592a2.958,2.958,0,0,1,2.843-.084A21.359,21.359,0,0,0,21.24,20.7c1.2.3,2.544.066,3.636.65A4.036,4.036,0,0,1,26.16,22.54,18.046,18.046,0,0,1,29.3,31.626" transform="translate(2.665 3.432)" fill="#ffc6b5"/>
          <path id="Trazado_876227" data-name="Trazado 876227" d="M23.149,32a22.075,22.075,0,0,0-4.667-6.225,13.553,13.553,0,0,1-3-2.591c-.757-1.089-.872-2.8.19-3.592a2.958,2.958,0,0,1,2.843-.084A21.359,21.359,0,0,0,21.24,20.7c1.2.3,2.544.066,3.636.65A4.036,4.036,0,0,1,26.16,22.54,18.046,18.046,0,0,1,29.3,31.626" transform="translate(2.665 3.432)" fill="none" stroke="#4a281e" stroke-miterlimit="10" stroke-width="0.5"/>
          <path id="Trazado_876228" data-name="Trazado 876228" d="M30.361,118.714C28.484,103.948,14.032,95.886,7.713,93.04c.226,2.842.486,5.641.782,8.381.507,4.686,1.307,9.792,4.811,12.945,2.913,2.621,7.049,3.279,10.941,3.726q3.052.35,6.114.621" transform="translate(1.38 16.644)" fill="#ff9f82"/>
          <path id="Trazado_876229" data-name="Trazado 876229" d="M31.933,80.1s.416,2.831,5.162,2.748" transform="translate(5.713 14.329)" fill="none" stroke="#3d2119" stroke-miterlimit="10" stroke-width="0.5"/>
          <path id="Trazado_876230" data-name="Trazado 876230" d="M163.605,103.73q10.223-23.347,19.32-47.166L206.7,70.546a413.307,413.307,0,0,1-18.839,61.781c-1.722,4.388-3.84,9.1-8.051,11.222-3.5,1.761-7.663,1.307-11.535.714a234.223,234.223,0,0,1-23.909-4.95c1.093-12.832,3.841-38.443,3.841-38.443s11.6,1.771,15.4,2.86" transform="translate(25.827 10.119)" fill="#ffc6b5"/>
          <path id="Trazado_876231" data-name="Trazado 876231" d="M185.2,121.7c.473-1.558.942-3.118,1.383-4.686-13.122-.778-22.914,9.048-27.754,15.271,2.281.42,4.566.813,6.859,1.165,3.873.593,8.037,1.047,11.537-.714,4.152-2.089,6.265-6.7,7.975-11.036" transform="translate(28.414 20.926)" fill="#ff9f82"/>
          <path id="Trazado_876232" data-name="Trazado 876232" d="M176.824,59.432c.39-3.059,2.713-4.833,5.446-6.259.829-.433,1.718-.742,2.541-1.185,1.959-1.053,3.441-2.793,5.073-4.305S193.5,44.8,195.73,44.8s4.529,1.955,4.136,4.145a3.763,3.763,0,0,1,5.47,4.462c2.912-.464,5.617,3.039,4.431,5.741,1.326-1.36,3.862.209,4.007,2.1s-1.159,3.566-2.444,4.967a69.814,69.814,0,0,1-8.664,7.975,8.476,8.476,0,0,1-2.946,1.675,8,8,0,0,1-4.093-.3,33.689,33.689,0,0,1-12.034-6.113c-3.57-2.842-6.993-8.281-6.769-10.03" transform="translate(31.631 8.015)" fill="#ffc6b5"/>
          <path id="Trazado_876233" data-name="Trazado 876233" d="M192.482,71.674c1.184.941,2.918.615,4.327.068a18.32,18.32,0,0,0,6.292-4.1" transform="translate(34.434 12.1)" fill="none" stroke="#4a281e" stroke-miterlimit="10" stroke-width="0.5"/>
          <path id="Trazado_876234" data-name="Trazado 876234" d="M205.172,73.039a133.079,133.079,0,0,0-20.783-24.588,9.635,9.635,0,0,1-2.531-3.073,2.774,2.774,0,0,1,4.236-3.508A9.382,9.382,0,0,1,188.52,44.8a252.464,252.464,0,0,0,15.474,22.1,11.49,11.49,0,0,0,2.814,2.822,14.1,14.1,0,0,0,4.086,1.395,18.72,18.72,0,0,1,7.978,3.837,9.764,9.764,0,0,1,3.5,7.876c-.255,2.97-2.578,5.794-5.542,6.1-3.61.376-6.658-2.794-8.128-6.111s-1.814-7.168-3.527-9.781" transform="translate(32.479 7.373)" fill="#75624b"/>
          <path id="Trazado_876235" data-name="Trazado 876235" d="M192.822,46.019a49.789,49.789,0,0,0-7.1,6.551c-.989,1.107-1.906,2.915-.8,3.909.772.7,1.988.4,2.945-.008,3.91-1.66,7.238-4.413,10.506-7.128l-6.755,6.163c-1.125,1.027-2.329,2.21-2.43,3.73a1.6,1.6,0,0,0,.262,1.082c.464.606,1.385.552,2.13.38,4.364-1.006,8.007-3.912,11.486-6.734l-8.466,7.294c-.809.7-1.636,1.985-.818,2.669a1.594,1.594,0,0,0,1.119.266,10.7,10.7,0,0,0,4.185-1.405q4.32-2.18,8.509-4.6a91.913,91.913,0,0,0-7.969,6.331,2.781,2.781,0,0,0-.914,1.181,1.887,1.887,0,0,0,1.279,2.14,4.559,4.559,0,0,0,2.7-.068,17.7,17.7,0,0,0,7.781-4.345" transform="translate(32.991 8.233)" fill="#ffc6b5"/>
          <path id="Trazado_876236" data-name="Trazado 876236" d="M192.822,46.019a49.789,49.789,0,0,0-7.1,6.551c-.989,1.107-1.906,2.915-.8,3.909.772.7,1.988.4,2.945-.008,3.91-1.66,7.238-4.413,10.506-7.128l-6.755,6.163c-1.125,1.027-2.329,2.21-2.43,3.73a1.6,1.6,0,0,0,.262,1.082c.464.606,1.385.552,2.13.38,4.364-1.006,8.007-3.912,11.486-6.734l-8.466,7.294c-.809.7-1.636,1.985-.818,2.669a1.594,1.594,0,0,0,1.119.266,10.7,10.7,0,0,0,4.185-1.405q4.32-2.18,8.509-4.6a91.913,91.913,0,0,0-7.969,6.331,2.781,2.781,0,0,0-.914,1.181,1.887,1.887,0,0,0,1.279,2.14,4.559,4.559,0,0,0,2.7-.068,17.7,17.7,0,0,0,7.781-4.345" transform="translate(32.991 8.233)" fill="none" stroke="#4a281e" stroke-miterlimit="10" stroke-width="0.5"/>
          <path id="Trazado_876237" data-name="Trazado 876237" d="M183.05,51.468a40.174,40.174,0,0,1,11.236-.548,4.1,4.1,0,0,1,1.553.363,1.492,1.492,0,0,1,.855,1.263,1.746,1.746,0,0,1-.531,1.107c-.871.95-5.362,2.8-6.611,3.116,1.925,3.663-1.806,6.921-1.806,6.921" transform="translate(32.747 9.079)" fill="#ffc6b5"/>
          <path id="Trazado_876238" data-name="Trazado 876238" d="M183.05,51.468a40.174,40.174,0,0,1,11.236-.548,4.1,4.1,0,0,1,1.553.363,1.492,1.492,0,0,1,.855,1.263,1.746,1.746,0,0,1-.531,1.107c-.871.95-5.362,2.8-6.611,3.116,1.925,3.663-1.806,6.921-1.806,6.921" transform="translate(32.747 9.079)" fill="none" stroke="#4a281e" stroke-miterlimit="10" stroke-width="0.5"/>
          <path id="Trazado_876239" data-name="Trazado 876239" d="M158.911,96.491s2.885,1.063,4.352.147" transform="translate(28.428 17.262)" fill="none" stroke="#3d2119" stroke-miterlimit="10" stroke-width="0.5"/>
          <path id="Trazado_876240" data-name="Trazado 876240" d="M92.874,79.39a299.348,299.348,0,0,1-43.758-.753q-7.027,25.349-14.054,50.7c5.938,3.23,12.369,5.551,19.928,5.6-.476,22.1-3.966,71.608-1.637,75.863,32.341.667,65.109.69,97.558-.13,1.174-3.507-1.775-46.572-.7-64.852l1.191.177,12.3.434s9.589-29.767,10.221-53.745c-27.392-4.565-54.784-9.128-81.056-13.3" transform="translate(6.272 14.068)" fill="#ffc987"/>
          <path id="Trazado_876241" data-name="Trazado 876241" d="M52.441,80.341A409.211,409.211,0,0,0,39.474,127.6" transform="translate(7.062 14.373)" fill="none" stroke="#704f27" stroke-miterlimit="10" stroke-width="0.5"/>
          <path id="Trazado_876242" data-name="Trazado 876242" d="M151.555,91.8c-.224,16.339-6.438,31.927-12.56,47.078" transform="translate(24.865 16.423)" fill="none" stroke="#704f27" stroke-miterlimit="10" stroke-width="0.5"/>
          <path id="Trazado_876243" data-name="Trazado 876243" d="M61.563,125.6a14.624,14.624,0,0,0,10.742,10.777" transform="translate(11.013 22.468)" fill="none" stroke="#704f27" stroke-miterlimit="10" stroke-width="0.5"/>
          <path id="Trazado_876244" data-name="Trazado 876244" d="M95.034,165.32a33.813,33.813,0,0,1-11.861,6.674" transform="translate(14.879 29.575)" fill="none" stroke="#704f27" stroke-miterlimit="10" stroke-width="0.5"/>
          <path id="Trazado_876245" data-name="Trazado 876245" d="M92.136,169.3a40.229,40.229,0,0,1-4.232,2.387" transform="translate(15.726 30.287)" fill="none" stroke="#704f27" stroke-miterlimit="10" stroke-width="0.5"/>
          <path id="Trazado_876246" data-name="Trazado 876246" d="M130.523,128.205a16.161,16.161,0,0,1-9.438,9.1" transform="translate(21.661 22.935)" fill="none" stroke="#704f27" stroke-miterlimit="10" stroke-width="0.5"/>
          <path id="Trazado_876247" data-name="Trazado 876247" d="M49.414,119.673a37.914,37.914,0,0,1,3.373,16.741" transform="translate(8.84 21.409)" fill="none" stroke="#704f27" stroke-miterlimit="10" stroke-width="0.5"/>
          <path id="Trazado_876248" data-name="Trazado 876248" d="M135.566,124.746a66.946,66.946,0,0,0-3.086,23.37" transform="translate(23.687 22.316)" fill="none" stroke="#704f27" stroke-miterlimit="10" stroke-width="0.5"/>
          <path id="Trazado_876249" data-name="Trazado 876249" d="M113.171,31.072c-5.219-3.652-12-5.355-18.129-3.611S83.8,34.758,83.468,41.118c-.1,1.944.211,3.962-.449,5.793-1.478,4.1-7.19,5.687-8.158,9.935-.7,3.072,1.457,6.322.551,9.34-.539,1.792-2.042,3.09-3.26,4.51a16.946,16.946,0,0,0-3.965,12.339,31.946,31.946,0,0,1,10.028-.285c12.422,1.186,24.563,4.869,37.036,5.243,5.066.152,10.141-.245,15.2.047s10.212,1.33,14.467,4.081A12.924,12.924,0,0,0,146,79.189a24.739,24.739,0,0,1-1.35-2.765c-1.726-5.036,3.249-10.3,2.278-15.538-.493-2.655-2.434-4.784-3.506-7.262a24.061,24.061,0,0,1-1.455-6.644A40.216,40.216,0,0,0,139.4,35.771c-1.54-3.525-4.2-6.724-7.8-8.091a17.741,17.741,0,0,0-7.3-.812c-4.072.23-8.321,1.116-11.124,4.2" transform="translate(12.188 4.79)" fill="#4a281e"/>
          <path id="Trazado_876250" data-name="Trazado 876250" d="M87.918,32.808c-1.986,6.6-10.26,10.141-11.345,16.949-.485,3.034.6,6.243-.34,9.167-.66,2.047-2.223,3.651-3.412,5.444a16.667,16.667,0,0,0-1.994,13.94" transform="translate(12.542 5.869)" fill="none" stroke="#4a281e" stroke-miterlimit="10" stroke-width="0.5"/>
          <path id="Trazado_876251" data-name="Trazado 876251" d="M128.984,37.422c-.393,5.077,5.9,8.5,6.339,13.571.21,2.436-.993,4.758-1.307,7.182-.508,3.9,1.293,7.7,1.857,11.59a18.749,18.749,0,0,1-2.628,12.5" transform="translate(23.071 6.695)" fill="none" stroke="#4a281e" stroke-miterlimit="10" stroke-width="0.5"/>
          <path id="Trazado_876252" data-name="Trazado 876252" d="M102.718,26.36a8.566,8.566,0,0,1,3.927,7.6" transform="translate(18.376 4.716)" fill="none" stroke="#4a281e" stroke-miterlimit="10" stroke-width="0.5"/>
          <path id="Trazado_876253" data-name="Trazado 876253" d="M108,25.709a15.83,15.83,0,0,0-1.658,8.587" transform="translate(19.013 4.599)" fill="none" stroke="#4a281e" stroke-miterlimit="10" stroke-width="0.5"/>
          <path id="Trazado_876254" data-name="Trazado 876254" d="M125.907,57.687a9,9,0,0,1,3.642-3.856c1.1-.62,2.595-.956,3.545-.126a3.272,3.272,0,0,1,.688,3.007A10.178,10.178,0,0,1,131,62.332a8.233,8.233,0,0,1-5.711,2.444c.307-2.52-.283-5.259.613-7.089" transform="translate(22.414 9.519)" fill="#ffc6b5"/>
          <path id="Trazado_876255" data-name="Trazado 876255" d="M130.257,56.88A5.444,5.444,0,0,1,126.1,59.7" transform="translate(22.558 10.176)" fill="none" stroke="#3d2119" stroke-miterlimit="10" stroke-width="0.5"/>
          <path id="Trazado_876256" data-name="Trazado 876256" d="M128.727,61.3a.831.831,0,1,1-.831-.831.832.832,0,0,1,.831.831" transform="translate(22.731 10.817)" fill="#4a281e"/>
          <path id="Trazado_876257" data-name="Trazado 876257" d="M84.586,92.828A178.133,178.133,0,0,1,86.2,64.3c1.376-9.353,3.751-18.9,9.564-26.357,2.53-3.242,5.821-6.094,9.806-7.109a18.128,18.128,0,0,1,7.883-.007A24.84,24.84,0,0,1,127.3,38.367c4.981,5.582,6.669,13.442,6.549,20.923-.176,10.907-4.9,22.852-14.985,27l.255,8.35c-11.26,4.716-20.591,3.3-34.53-1.817" transform="translate(15.123 5.437)" fill="#ffc6b5"/>
          <path id="Trazado_876258" data-name="Trazado 876258" d="M89.077,54.183a7.865,7.865,0,0,0-3.31-2.889,3.982,3.982,0,0,0-4.172.591,4.2,4.2,0,0,0-1,1.64,7.374,7.374,0,0,0,1.49,7.111,9.937,9.937,0,0,0,6.683,3.23,38.022,38.022,0,0,0,.311-9.682" transform="translate(14.352 9.118)" fill="#ffc6b5"/>
          <path id="Trazado_876259" data-name="Trazado 876259" d="M83.5,54.1s1.621,3.118,3.866,3.242" transform="translate(14.938 9.678)" fill="none" stroke="#3d2119" stroke-miterlimit="10" stroke-width="0.5"/>
          <path id="Trazado_876260" data-name="Trazado 876260" d="M86.191,59.676a.831.831,0,1,1-.831-.831.831.831,0,0,1,.831.831" transform="translate(15.122 10.527)" fill="#4a281e"/>
          <path id="Trazado_876261" data-name="Trazado 876261" d="M83.361,83a53.93,53.93,0,0,0,38.314,2.207" transform="translate(14.913 14.848)" fill="none" stroke="#3d2119" stroke-miterlimit="10" stroke-width="0.5"/>
          <path id="Trazado_876262" data-name="Trazado 876262" d="M104.026,75.618a15.668,15.668,0,0,0,14.354,1.253" transform="translate(18.61 13.528)" fill="none" stroke="#3d2119" stroke-miterlimit="10" stroke-width="0.5"/>
          <path id="Trazado_876263" data-name="Trazado 876263" d="M113.847,53.247s.444,5.494,1.977,6.677a2.486,2.486,0,0,1-3.066,1.742" transform="translate(20.172 9.526)" fill="#ff9f82"/>
          <path id="Trazado_876264" data-name="Trazado 876264" d="M113.847,53.247s.444,5.494,1.977,6.677a2.486,2.486,0,0,1-3.066,1.742" transform="translate(20.172 9.526)" fill="none" stroke="#3d2119" stroke-miterlimit="10" stroke-width="0.5"/>
          <path id="Trazado_876265" data-name="Trazado 876265" d="M108.205,63.005a3.569,3.569,0,0,0,4,2.083" transform="translate(19.357 11.271)" fill="none" stroke="#3d2119" stroke-miterlimit="10" stroke-width="0.5"/>
          <path id="Trazado_876266" data-name="Trazado 876266" d="M108.044,55.337a1.083,1.083,0,1,1-1.083-1.083,1.083,1.083,0,0,1,1.083,1.083" transform="translate(18.941 9.706)" fill="#3d2119"/>
          <path id="Trazado_876267" data-name="Trazado 876267" d="M103.786,53.4c-.434-.923,3.593-2.755,4.192-2.036s-3.714,3.055-4.192,2.036" transform="translate(18.561 9.159)" fill="#4a281e"/>
          <path id="Trazado_876268" data-name="Trazado 876268" d="M121.255,55.875a1.083,1.083,0,1,1-1.083-1.083,1.083,1.083,0,0,1,1.083,1.083" transform="translate(21.304 9.802)" fill="#3d2119"/>
          <path id="Trazado_876269" data-name="Trazado 876269" d="M119.265,51.313c.388-.943,4.459.792,4.332,1.719s-4.76-.678-4.332-1.719" transform="translate(21.331 9.131)" fill="#4a281e"/>
          <path id="Trazado_876270" data-name="Trazado 876270" d="M124.722,58.112c-2.8,0-5.065,1.833-5.065,4.1s2.267,4.1,5.065,4.1a5.982,5.982,0,0,0,.79-.065,38.023,38.023,0,0,0,1.738-7.56,5.939,5.939,0,0,0-2.528-.566" transform="translate(21.406 10.396)" fill="#ff9f82"/>
          <path id="Trazado_876271" data-name="Trazado 876271" d="M103.75,61.213c0,2.262-2.267,4.1-5.065,4.1s-5.065-1.833-5.065-4.1,2.267-4.1,5.065-4.1,5.065,1.833,5.065,4.1" transform="translate(16.748 10.218)" fill="#ff9f82"/>
          <path id="Trazado_876272" data-name="Trazado 876272" d="M87.562,59.147s.935,4.413,1.4,6.619a29.71,29.71,0,0,0,8.061-16.54,10.3,10.3,0,0,1,1.247,4.27,39.574,39.574,0,0,1,12.368-3.419,6.887,6.887,0,0,0,2.128-.437c2.2-.988,2.8-4,3.1-6.569a20.286,20.286,0,0,1-.129,7.533l6.483,1.918q1.627-3.669,3.253-7.337l.417,7.1a2.3,2.3,0,0,0,.223,1.032,1.579,1.579,0,0,0,1.033.667c2.471.611,5.122-2.009,4.8-4.74l1.192,17.9c1.069-3.867,2.467-8.165,5.83-9.878-1.745-10.473-3.954-17.807-12.542-22.915-3.784-2.252-12.124-3.953-16.444-3.926-5.483.034-11.433,1.28-15.514,5.247C88.875,41.1,87.316,46.8,85.977,54.824c-.189,1.125,1.584,4.323,1.584,4.323" transform="translate(15.378 5.442)" fill="#4a281e"/>
          <rect id="Rectángulo_402489" data-name="Rectángulo 402489" width="224.315" height="13.584" transform="translate(2.039 212.902)" fill="#45271a"/>
          <rect id="Rectángulo_402490" data-name="Rectángulo 402490" width="10.945" height="224.628" transform="translate(206.087 222.037)" fill="#45271a"/>
          <path id="Trazado_876273" data-name="Trazado 876273" d="M183.054,372.468l-23.713,19.458h47.427Z" transform="translate(28.505 66.633)" fill="#45271a"/>
          <rect id="Rectángulo_402491" data-name="Rectángulo 402491" width="10.945" height="224.628" transform="translate(21.665 222.037)" fill="#45271a"/>
          <path id="Trazado_876274" data-name="Trazado 876274" d="M26.617,372.468,2.9,391.926H50.331Z" transform="translate(0.52 66.633)" fill="#45271a"/>
          <path id="Trazado_876275" data-name="Trazado 876275" d="M24.7,152.344a8.9,8.9,0,1,1,8.9,8.9,8.9,8.9,0,0,1-8.9-8.9" transform="translate(4.42 25.661)" fill="#ff6b61"/>
          <path id="Trazado_876276" data-name="Trazado 876276" d="M63.119,155.365a8.9,8.9,0,1,1,8.9,8.9,8.9,8.9,0,0,1-8.9-8.9" transform="translate(11.292 26.201)" fill="#ff6b61"/>
          <path id="Trazado_876277" data-name="Trazado 876277" d="M34.437,154.494l10.225-8.3a8.254,8.254,0,0,1,3.319-1.92,2.827,2.827,0,0,1,3.249,1.441c.466,1.225-.3,2.544-1.037,3.629,3.426-3.024,7.276-6.217,11.846-6.265.984-.011,2.168.288,2.457,1.228a2.333,2.333,0,0,1-.121,1.386,9.952,9.952,0,0,1-2.495,4.016,13.323,13.323,0,0,1,6.227-3.016c1.434-.272,3.118-.222,4.091.866,1.505,1.686.153,4.437-1.681,5.758-3.435,2.475-7.991,2.535-12.225,2.5l-23.348-.2c.123-.582.408-1.129-.5-1.116" transform="translate(6.161 25.596)" fill="#56ba59"/>
          <path id="Trazado_876278" data-name="Trazado 876278" d="M72.178,152.519a16.8,16.8,0,0,1,8.609-6.3,2.185,2.185,0,0,1,1.876.028c.452.312.618.894.954,1.326a2.816,2.816,0,0,0,3.032.691,12.706,12.706,0,0,0,2.882-1.6,15.591,15.591,0,0,1,5.454-2.113c.808-.149,1.826-.137,2.223.581.311.559.066,1.263.2,1.889.25,1.2,1.779,1.688,2.972,1.418a27.6,27.6,0,0,0,3.357-1.462c1.146-.427,2.651-.4,3.349.6.651.936.286,2.215-.152,3.268a35.529,35.529,0,0,1-2.678,5.2,7.793,7.793,0,0,1-1.924,2.279,7.934,7.934,0,0,1-3.614,1.185c-6.816.962-13.747.255-20.6-.454-1.913-.2-3.983-.467-5.356-1.813a4.383,4.383,0,0,1-.584-4.716" transform="translate(12.834 25.845)" fill="#56ba59"/>
          <path id="Trazado_876279" data-name="Trazado 876279" d="M18.962,153.6c1.748,9.781,3.941,20.344,11.422,26.882,6.45,5.637,15.506,7.049,24.054,7.594a174.8,174.8,0,0,0,30.73-.752c7.985-.9,16.339-2.556,22.391-7.843,6.594-5.761,9.286-15.01,9.023-23.761a2.779,2.779,0,0,0-.534-1.869,2.868,2.868,0,0,0-1.906-.648,511.382,511.382,0,0,0-95.18.4" transform="translate(3.392 27.045)" fill="#ff9061"/>
          <path id="Trazado_876280" data-name="Trazado 876280" d="M39.719,163.147c-3.242-.367-7.111.746-8.224,3.814-1.089,3,1.458,6.572,4.633,6.9s6.246-2.216,6.938-5.332c.479-2.161-.481-5.06-3.347-5.384" transform="translate(5.588 29.174)" fill="#ffa47d"/>
          <path id="Trazado_876281" data-name="Trazado 876281" d="M24.117,157.164a630.115,630.115,0,0,1,86.043.088" transform="translate(4.314 27.861)" fill="none" stroke="#c75938" stroke-miterlimit="10" stroke-width="0.5"/>
          <path id="Trazado_876282" data-name="Trazado 876282" d="M195.607,188.387s3.948-34.005,5.181-50.265a162.587,162.587,0,0,0-32.325,1.326c.724,15.737,7.471,49.03,7.471,49.03Z" transform="translate(30.137 24.665)" fill="#fff"/>
          <path id="Trazado_876283" data-name="Trazado 876283" d="M172.576,155.074q2.318,13.908,4.638,27.816,8.108.638,16.262.609,1.894-14.2,2.546-28.5a15.942,15.942,0,0,1-14.322,1.86c-2.968-1.088-6.1-3.111-9.123-1.787" transform="translate(30.873 27.664)" fill="#94dfff"/>
          <path id="Trazado_876284" data-name="Trazado 876284" d="M177.3,178.766a21.309,21.309,0,0,0-3.278-17.048,30.636,30.636,0,0,0-13.924-10.828c-9.944-4.077-21.726-3.776-31.159,1.372s-16.164,15.214-16.7,25.947c22.348-.777,44.727-.713,65.062.556" transform="translate(20.078 26.492)" fill="#9c6035"/>
          <path id="Trazado_876285" data-name="Trazado 876285" d="M143.955,151.864c3.481-1.153,7.22.594,10.327,2.543a8.417,8.417,0,0,1,2.454,2.051,3.106,3.106,0,0,1,.468,3.036c-.65,1.4-2.452,1.783-3.994,1.779a17.3,17.3,0,0,1-11.77-4.731,3.5,3.5,0,0,1-.989-1.355,2.638,2.638,0,0,1,.508-2.342c.5-.666,1.191-1.153,3-.981" transform="translate(25.108 27.102)" fill="#bd7440"/>
          <path id="Trazado_876286" data-name="Trazado 876286" d="M100.736,158.107l-4.008-5.03s.815-2.8-.408-2.853-1.979,2.212-1.979,2.212-2.5-1.164-2.678.35,3.376,1.514,3.376,1.514l3.435,4.424Z" transform="translate(16.397 26.874)" fill="#fff7ed"/>
          <path id="Trazado_876287" data-name="Trazado 876287" d="M131.255,179.492c2.423-1.319,3.4-4.485,2.827-7.184a13.508,13.508,0,0,0-4.417-6.841,29.293,29.293,0,0,0-22.3-7.51,8.587,8.587,0,0,1-2.426.033c-1.589-.308-2.777-1.582-4.131-2.469s-3.379-1.305-4.433-.078c-.885,1.032-.543,2.645.167,3.8a22.662,22.662,0,0,1,2.229,3.4c.993,2.561-.469,5.4-.376,8.14.119,3.523,2.868,6.523,6.07,8s6.812,1.716,10.328,1.938l6.855.429a18.747,18.747,0,0,0,9.607-1.656" transform="translate(17.146 27.671)" fill="#9c6035"/>
          <path id="Trazado_876288" data-name="Trazado 876288" d="M113.584,161.322c2.493-.915,5.169.472,7.394,2.018a6.2,6.2,0,0,1,1.758,1.629,2.684,2.684,0,0,1,.336,2.41,2.886,2.886,0,0,1-2.86,1.412,11.773,11.773,0,0,1-8.428-3.756,2.786,2.786,0,0,1-.709-1.075,2.267,2.267,0,0,1,.364-1.859c.355-.529.852-.916,2.144-.779" transform="translate(19.858 28.807)" fill="#bd7440"/>
          <path id="Trazado_876289" data-name="Trazado 876289" d="M196.539,172.287l-112.18.633c2.954,7.363,12.434,9.094,20.355,9.518,25.159,1.351,50.378.464,75.557-.422,3.256-.114,6.611-.251,9.569-1.615a13.274,13.274,0,0,0,6.7-8.114" transform="translate(15.091 30.821)" fill="#dba993"/>
        </g>
      </g>
    </g>
    <g id="Grupo_1098911" data-name="Grupo 1098911" transform="translate(719.419 6244.95)">
      <path id="Trazado_873012" data-name="Trazado 873012" d="M11.142,159.172.628,155.564l7.444,7.478L0,167.779l9.287.423v9.989l5.082-9.025,9.184,4.218-5.671-8.14,8.319-4.475-10.255-.6L15.6,149.628Z" transform="translate(0 40.539)" fill="#59836b"/>
      <path id="Trazado_873013" data-name="Trazado 873013" d="M101.769,4.784l1.175.3a.245.245,0,0,1,0,.484l-1.147.308a5.813,5.813,0,0,0-3.972,3.33L97.3,10.538a.307.307,0,0,1-.555-.012l-.36-1.067a5.775,5.775,0,0,0-4.155-3.606l-1.149-.291a.245.245,0,0,1,0-.485l1.149-.292a5.774,5.774,0,0,0,4.155-3.605l.336-1a.306.306,0,0,1,.559,0l.336,1a5.774,5.774,0,0,0,4.155,3.605" transform="translate(16.813 40.552)" fill="#fff"/>
      <path id="Trazado_873014" data-name="Trazado 873014" d="M172.339,152.753l1.021.259a.213.213,0,0,1,0,.421l-1,.268a5.051,5.051,0,0,0-3.451,2.893l-.464,1.157a.267.267,0,0,1-.482-.01l-.313-.927a5.017,5.017,0,0,0-3.61-3.133l-1-.253a.213.213,0,0,1,0-.422l1-.254a5.016,5.016,0,0,0,3.61-3.132l.292-.866a.266.266,0,0,1,.486,0l.292.866a5.016,5.016,0,0,0,3.61,3.132" transform="translate(71.359 4.121)" fill="#fff"/>
      <path id="Trazado_873015" data-name="Trazado 873015" d="M49.345,107.069l1.276.324a.266.266,0,0,1,.005.526l-1.245.334a6.314,6.314,0,0,0-4.314,3.617l-.58,1.447a.333.333,0,0,1-.6-.013l-.391-1.159a6.272,6.272,0,0,0-4.513-3.917l-1.248-.316a.266.266,0,0,1,0-.527l1.248-.317a6.271,6.271,0,0,0,4.513-3.916l.365-1.083a.332.332,0,0,1,.608,0l.365,1.083a6.271,6.271,0,0,0,4.513,3.916" transform="translate(16.433 25.259)" fill="#fff"/>
    </g>
  </g>
</svg>
