<svg xmlns="http://www.w3.org/2000/svg" xmlns:xlink="http://www.w3.org/1999/xlink" width="420" height="218.359" viewBox="0 0 420 218.359">
  <defs>
    <clipPath id="clip-path">
      <rect id="Rectángulo_403151" data-name="Rectángulo 403151" width="335.438" height="205.359" fill="none"/>
    </clipPath>
    <clipPath id="clip-path-3">
      <rect id="Rectángulo_403141" data-name="Rectángulo 403141" width="4.591" height="4.616" fill="none"/>
    </clipPath>
    <clipPath id="clip-path-4">
      <rect id="Rectángulo_403145" data-name="Rectángulo 403145" width="35.118" height="7.767" fill="none"/>
    </clipPath>
  </defs>
  <g id="Grupo_1101845" data-name="Grupo 1101845" transform="translate(-1001.356 -5937)">
    <path id="Trazado_877417" data-name="Trazado 877417" d="M420,0H0V218.042H420Z" transform="translate(1001.356 5937)" fill="#5357de"/>
    <g id="Grupo_1101844" data-name="Grupo 1101844" transform="translate(1041.051 5950)">
      <g id="Grupo_1101843" data-name="Grupo 1101843" clip-path="url(#clip-path)">
        <g id="Grupo_1101842" data-name="Grupo 1101842">
          <g id="Grupo_1101841" data-name="Grupo 1101841" clip-path="url(#clip-path)">
            <path id="Trazado_878106" data-name="Trazado 878106" d="M328.957,92.733C310.879,43.887,253.31,43.416,208.328,41.391c-27.753-1.249-55.55-.886-83.315-.25C80.15,42.169,31.569,46.639,9.048,89.934c-14.174,27.25-11.478,62.256,6.557,87.147,18.338,25.309,64.926,29.734,94.483,30.692,44.235,1.434,88.839-1.547,132.814-4.563,25.342-1.737,54.863-4.2,73.215-23.373,22.334-23.329,23.4-58.554,12.839-87.1" transform="translate(0 -19.498)" fill="#ebebfd" opacity="0.224"/>
            <path id="Trazado_878107" data-name="Trazado 878107" d="M91.246,79.215c6.838-3.342,20.236-6.473,31.361-1.036S145.8,96.9,134.586,118.81l-10.979-3.79s6.638-8.658,3.063-18.787S113.779,85.252,108.9,85.225c-6.044-.033-11.783,4.038-11.783,4.038Z" transform="translate(-43.864 -36.166)" fill="#e2758f"/>
            <path id="Trazado_878108" data-name="Trazado 878108" d="M112.908,83.312c5.625,3,11.7,2.6,15.148,8.229,4.629,7.564,4.261,18.815-.857,25.207l-3.592-1.24s6.638-8.658,3.063-18.787S113.779,85.739,108.9,85.712c-6.044-.033-11.784,4.038-11.784,4.038L91.246,79.7A41.44,41.44,0,0,1,102.6,76.246a46.814,46.814,0,0,0,10.308,7.066" transform="translate(-43.864 -36.653)" fill="#d65173"/>
            <path id="Trazado_878109" data-name="Trazado 878109" d="M156.932,78.187c-2.548-2.21-.079-5.994.926-8.165s2.79-3.867-.775-5.759-4.711,1.085-5.77,3.417-3.094,4.616-5.1,3.753c0,0,.594,1.583,3.846,4.252a11.016,11.016,0,0,0,6.87,2.5" transform="translate(-70.29 -30.605)" fill="#e2758f"/>
            <path id="Trazado_878110" data-name="Trazado 878110" d="M118.058,66.038c3.329-.545,3.338-3.471,3.619-5.847s.374-4.67,4.4-4.412,2.72,3.309,2.4,5.85.079,5.1,2.238,5.412c0,0-1.2,1.493-5.37,2.06s-7.288-3.064-7.288-3.064" transform="translate(-56.754 -26.805)" fill="#e2758f"/>
            <path id="Trazado_878111" data-name="Trazado 878111" d="M128.7,57.848c-.028.5.9.959,2.082,1.024s2.154-.287,2.183-.787-.9-.959-2.082-1.025-2.155.287-2.183.788" transform="translate(-61.87 -27.426)" fill="#9c1144"/>
            <path id="Trazado_878112" data-name="Trazado 878112" d="M161.6,65.773c-.192.463.536,1.2,1.626,1.655s2.129.441,2.32-.022-.536-1.2-1.626-1.655-2.128-.441-2.32.022" transform="translate(-77.669 -31.449)" fill="#9c1144"/>
            <path id="Trazado_878113" data-name="Trazado 878113" d="M69.511,93.067c4.6-5.081,1.083-8.281-2.209-12.006A180.983,180.983,0,0,0,49.355,63.937c-2.171-1.972-4.68-2.148-6.82.085-2.553,2.664-.885,5.793.582,7.782,2.409,3.269.967,1.063,5.078,7.014,4.2,6.086,2.637,11.46,5.565,19.453.653,1.783,2.834,4.467,5.828,7.562-.514-1.656,9.939-11.741,9.923-12.766" transform="translate(-19.811 -29.998)" fill="#e595ad"/>
            <path id="Trazado_878114" data-name="Trazado 878114" d="M47.481,79.514a6.245,6.245,0,0,0,8.5-3.824A148.3,148.3,0,0,1,67.708,87.4c3.291,3.725,6.813,6.925,2.208,12.006.017,1.026-10.436,11.109-9.923,12.766-2.993-3.094-5.175-5.779-5.828-7.561-2.928-7.994-1.36-13.367-5.565-19.453-4.111-5.951-2.669-3.745-5.078-7.014a11.541,11.541,0,0,1-1.469-2.556,15.09,15.09,0,0,0,5.427,3.928" transform="translate(-20.216 -36.336)" fill="#d65173"/>
            <path id="Trazado_878115" data-name="Trazado 878115" d="M50.533,114.222c-11.478,2.9-16.9,10.379-19.081,16.9-2.837,8.463-.727,20.283,2.185,24.136,5.969,7.9,12.068,1.207,18.826-14.724s-1.931-26.308-1.931-26.308" transform="translate(-14.475 -54.91)" fill="#b00d41"/>
            <path id="Trazado_878116" data-name="Trazado 878116" d="M33.039,131.774c4.417-4.195,8.657-9.248,10.383-14.811a30.683,30.683,0,0,1,7.12-2.74s8.69,10.379,1.931,26.308-12.858,22.62-18.826,14.723c-2.619-3.464-4.576-13.364-2.884-21.479.77-.649,1.538-1.3,2.275-2" transform="translate(-14.485 -54.91)" fill="#9c1144"/>
            <path id="Trazado_878117" data-name="Trazado 878117" d="M124.579,182.338c-.28,1.439-.6,2.884-.96,4.323-.18.739-.375,1.479-.579,2.214q-.465,1.679-.969,3.273-.689,2.211-1.434,4.263c-5.148,14.233-12.159,22.938-19.59,28.99-.07.055-.135.11-.205.165-3.488,2.814-6.387,1.257-9.905,3.207-13.278,7.376-22.41.129-28.183-6.752-5.632-6.712-16.148-12.491-24.06-32.2,0-.01-.015-.01-.015-.025-.994-2.488-1.954-5.147-2.848-7.971-7.911-25.017.894-37.16,7.051-47.885S69.108,118.511,85.3,120.2c3.473.37,6.836.8,10.025,1.359,11.624,2,20.824,5.542,24.627,12.388,5.3,9.505,8.445,28.82,4.623,48.395" transform="translate(-15.716 -57.621)" fill="#e2758f"/>
            <path id="Trazado_878118" data-name="Trazado 878118" d="M42.881,137.553c2.541-4.429,7.458-7.829,13.493-10.177a77.056,77.056,0,0,1-.426,9.5,1.442,1.442,0,0,0-.15.191c-6.483,10.224-7.23,23.857-6.586,35.6.671,12.251,3.25,24.721,8.593,35.821,4.1,8.522,10.7,17.434,20.447,19.649,12.778,2.905,24.218-6.687,32.484-15.148a82.6,82.6,0,0,0,9.308-11.358c-7.371,17.072-14.429,26.059-26.465,34.279-12.544,8.566-21.515,2.367-28.769-2.935-8.207-6-18.2-19.828-26.115-39.533,0-.014-.013-.014-.013-.028-1-2.485-1.956-5.147-2.848-7.971-7.912-25.016.892-37.157,7.047-47.885" transform="translate(-15.717 -61.233)" fill="#d65173"/>
            <path id="Trazado_878119" data-name="Trazado 878119" d="M165.557,153.014c-3.3,4.831-9.15,9.994-12.332,13.432-3.65,3.943-3.559,7.925-5.339,11.774s-7.251,6-8.586,11.437,1.44,10.147,1.662,10.147-3.044-7.657,1.807-12.98c3.318-3.64,3.678-2.156,6.259-5.493a26.846,26.846,0,0,0,3.306,9.8c3.8,6.481,8.008,12.454,8.453,16.755a18.771,18.771,0,0,1-1.557,8.6s3.114-3.849,3.114-7.472a20.815,20.815,0,0,0-2-7.7s3.782.679,5.561,2.491c0,0-2.892-4.3-6.229-4.755a106.033,106.033,0,0,1-6.514-12.032c-1.939-4.724-3.051-7.894-.6-12.649l2.447-4.755a18.817,18.817,0,0,0,8.675,7.246c5.784,2.264,6.9,4.981,8.23,7.7,0,0-.445-4.981-4.449-7.472s-9.565-4.529-10.677-8.831c0,0,8.471-10.513,15.589-11.419Z" transform="translate(-66.792 -73.558)" fill="#bf395c"/>
            <path id="Trazado_878120" data-name="Trazado 878120" d="M162.139,108.944c-5.1,2.307-14.994-3.861-17.539-10.474-2.477-6.434-.844-9.763.918-11.385,2.541-2.338,8.136-1.9,10.96-4.99,4.781-5.226,11.758-14.775,13.355-16.666,2.328-2.757,3.539-5.258,10.038-1.07s4.865,7.915,2.942,10.384S168.02,92.181,167.09,96.153s1.1,10.053-4.951,12.791" transform="translate(-68.906 -29.867)" fill="#599dd9"/>
            <path id="Trazado_878121" data-name="Trazado 878121" d="M145.519,97.476c2.541-2.338,8.137-1.9,10.96-4.99.52-.569,1.018-1.119,1.5-1.655,2,1.644,5.685,5.458,10.217,5.458,4.407,0,13.332-10.116,15.544-12.544a10.69,10.69,0,0,1-.926,1.39c-1.923,2.469-14.792,17.437-15.723,21.409s1.1,10.053-4.951,12.791c-5.1,2.307-14.993-3.861-17.539-10.474-2.477-6.434-.844-9.763.918-11.385" transform="translate(-68.906 -40.258)" fill="#4b85c6"/>
            <path id="Trazado_878122" data-name="Trazado 878122" d="M201.723,65.18c-.645.784.778,3.02,3.178,4.993s4.869,2.938,5.514,2.153-.778-3.02-3.178-4.993-4.869-2.938-5.514-2.153" transform="translate(-96.899 -31.202)" fill="#223a77"/>
            <path id="Trazado_878123" data-name="Trazado 878123" d="M134.218,113.256c-3.217-.426-.236,4.763,2.665,6.659s4.932,4.9,8.45,8.714,6.536,4.918,11.819,5.859,8.6,1.775,9.641,3.424a4.906,4.906,0,0,0,4.613,1.968c1.1-.3,5.076-3.824,2.424-12.8s-6.634-11.9-13.445-14.054c-6.11-1.927-15.242-.981-18.493-.508s-5.81.984-7.675.737" transform="translate(-63.853 -53.777)" fill="#eba3a1"/>
            <path id="Trazado_878124" data-name="Trazado 878124" d="M134.218,113.6c1.866.247,4.425-.264,7.675-.737.577-.084,1.348-.183,2.246-.278,5.331,3.588,4.247,9.2,7.076,13.687,2.76,4.373,8.8,5.468,11.98,6.033,7.768,1.381,10.62,3,10.9,4.556a5.094,5.094,0,0,1-2.687,3.362,4.906,4.906,0,0,1-4.613-1.968c-1.035-1.649-4.358-2.483-9.641-3.424s-13.306-3.213-16.824-7.025-.543-5.652-3.445-7.548-5.883-7.085-2.665-6.659" transform="translate(-63.853 -54.124)" fill="#d66474"/>
            <path id="Trazado_878125" data-name="Trazado 878125" d="M106.3,97.929c2.579-11.111-.778-24.971-12.1-34.724S79.5,53.894,74.781,47.6,69.2,36.8,67.232,33.593c-.838-1.368-2.932-2.766-6.293-1.259-4.1,1.837-4.09,5.034-3.46,6.607s4.4,11.955,5.348,16.36-.944,15.73,4.719,22.652S106.3,97.929,106.3,97.929" transform="translate(-27.484 -15.23)" fill="#599dd9"/>
            <path id="Trazado_878126" data-name="Trazado 878126" d="M73.429,83.941c2.433,2.622,5.728,4.117,8.828,5.781a53.354,53.354,0,0,1,11.72,8.715,66.017,66.017,0,0,1,9.321,11.685c1.9,2.929,3.649,6.224,6.079,8.8-7.438-3.029-31.811-13.259-36.6-19.108-5.663-6.921-4.2-16.184-4.719-22.652a59.712,59.712,0,0,0,5.368,6.775" transform="translate(-32.719 -37.096)" fill="#4b85c6"/>
            <path id="Trazado_878127" data-name="Trazado 878127" d="M66.6,34.388c.494.861-.623,2.43-2.494,3.5s-3.79,1.247-4.284.386.622-2.43,2.494-3.5,3.79-1.247,4.284-.386" transform="translate(-28.703 -16.268)" fill="#223a77"/>
            <path id="Trazado_878128" data-name="Trazado 878128" d="M58.95,144.959c-5.06,10.662-2.941,17.109-1.274,20.867.743,1.674-.1,8.211-.1,11.121,0,5.162-3.527,11.645-5.774,16.257s.788,10.9,3.1,12.686c0,0-5.683-4.865-1.888-11.574s6.341-12.228,7.018-16.291c.737-4.422.989-7.7.989-7.7s3.981,4.03,6.681,6.653a14.681,14.681,0,0,1,4.265,12.87c-.79,5.976-1.456,16.3,1.467,21.367a27.806,27.806,0,0,0,5.942,7.459s-7.5-7.7-6.516-18.26c0,0,4.531.145,6.171,3.027a7.449,7.449,0,0,0-2.668-3.256,8.816,8.816,0,0,0-3.084-1.123s1.1-5.553,1.546-9.1a43.536,43.536,0,0,0-.059-8.269s1.943-.816,7.538-.149,11.036,6.841,11.036,6.841-3.069-5.788-9.05-7.817a32.731,32.731,0,0,0-10.242-1.386s-4.092-5.253-6.475-8.111-5.683-4.865-6.327-6.74a12.3,12.3,0,0,1-.425-6.718,23.4,23.4,0,0,1,3.921-7.842Z" transform="translate(-24.525 -69.686)" fill="#bf395c"/>
            <path id="Trazado_878129" data-name="Trazado 878129" d="M92.053,125.537A37.076,37.076,0,0,1,73.72,112.182,61.426,61.426,0,0,0,53.02,95.22c-8.338-4.025-18.717-7.054-25.153-6.285a5.96,5.96,0,0,0-4.49,3.924c-1.639,6.1,3.672,6.819,3.672,6.819s8.418.664,12.976,5.071c4.238,4.1,3.858,15.662,6.382,22.384s11.5,18.112,19.55,16.963,26.1-18.558,26.1-18.558" transform="translate(-11.087 -42.696)" fill="#e2758f"/>
            <path id="Trazado_878130" data-name="Trazado 878130" d="M102.174,125.8a37.076,37.076,0,0,1-18.333-13.355c-4.6-6.038-18.548-20.055-39.724-23.08" transform="translate(-21.208 -42.962)" fill="none" stroke="#d65173" stroke-miterlimit="10" stroke-width="2"/>
            <path id="Trazado_878131" data-name="Trazado 878131" d="M55.342,142.768c-9.622-8.248-7.5-23.15-11.628-27.963-4.276-4.986-12.976-5.071-12.976-5.071" transform="translate(-14.777 -52.752)" fill="none" stroke="#d65173" stroke-miterlimit="10" stroke-width="2"/>
            <path id="Trazado_878132" data-name="Trazado 878132" d="M141.189,268.31c-6.507,5.714-12.057,5.4-17.77,2.7s-5.4-10.634-5.4-10.634a9.363,9.363,0,0,0-.159,5.714,21.84,21.84,0,0,0,2.239,4.776,8.259,8.259,0,0,1-3.824-.494,10.989,10.989,0,0,1-4.207-3.577,7.213,7.213,0,0,0,3.89,4.688,13.246,13.246,0,0,0,5.163.6,21.707,21.707,0,0,0,8.7,3.307s-3.39,4.352-11.8,5.14-17.775-4.118-20.629-9.356c0,0,1.718,6.129,11.543,9.73a8.167,8.167,0,0,0-3.857,1.548c-2.063,1.581-1.79,2.732-1.79,2.732s.619-1.565,3.863-2.638c1.8-.6,7.16-.282,7.16-.282h0c6.9.932,12.536-1.554,18.15-4.741,6.763-3.843,9.123-6.455,9.267-6.613-7.409,10.1-3.586,11.216-3.586,11.216-1.585-3.823,7.013-13.016,8.6-15.236.84-1.176,2.971-3.643,4.781-5.7q.692-1.917,1.338-3.978.469-1.491.905-3.055c.191-.685.373-1.376.541-2.066-4.16,5.037-7.691,11.459-13.12,16.226" transform="translate(-46.82 -121.183)" fill="#bf395c"/>
            <path id="Trazado_878133" data-name="Trazado 878133" d="M195.276,264.125s.263,26.99.263,43.012c0,13.8,1.88,24.562,15.7,24.562" transform="translate(-93.874 -126.972)" fill="none" stroke="#572737" stroke-miterlimit="10" stroke-width="1"/>
            <path id="Trazado_878134" data-name="Trazado 878134" d="M186.627,209.2s.852,28.993.852,49.908c0,25.05-3.615,46.188,15.009,46.188" transform="translate(-89.716 -100.566)" fill="none" stroke="#572737" stroke-miterlimit="10" stroke-width="1"/>
            <path id="Trazado_878135" data-name="Trazado 878135" d="M85.218,196.106s-.207,17.393.7,41.225C87.96,290.756,81.681,299,120.376,299" transform="translate(-40.957 -94.273)" fill="none" stroke="#572737" stroke-miterlimit="10" stroke-width="1"/>
            <path id="Trazado_878136" data-name="Trazado 878136" d="M85.707,172.3a8.059,8.059,0,1,0-6.273,9.515,8.069,8.069,0,0,0,6.273-9.515" transform="translate(-33.532 -79.734)" fill="#572737"/>
            <path id="Trazado_878137" data-name="Trazado 878137" d="M73.95,177.076a5.943,5.943,0,1,1,7.016,4.626,5.949,5.949,0,0,1-7.016-4.626" transform="translate(-35.491 -81.693)" fill="#fff"/>
            <path id="Trazado_878138" data-name="Trazado 878138" d="M78.185,179.954a3.13,3.13,0,0,0,.936,1.265,6.84,6.84,0,0,1,1.758,3.9l.007.057h1.663l.007-.057a6.838,6.838,0,0,1,1.759-3.9A2.98,2.98,0,0,0,85.24,180a3.838,3.838,0,1,0-7.055-.047" transform="translate(-37.443 -83.961)" fill="#94b3ed"/>
            <path id="Trazado_878139" data-name="Trazado 878139" d="M133.7,215.155a8.059,8.059,0,1,0-6.273,9.515,8.068,8.068,0,0,0,6.273-9.515" transform="translate(-56.604 -100.335)" fill="#572737"/>
            <path id="Trazado_878140" data-name="Trazado 878140" d="M121.944,219.93a5.943,5.943,0,1,1,7.016,4.627,5.95,5.95,0,0,1-7.016-4.627" transform="translate(-58.563 -102.295)" fill="#fff"/>
            <path id="Trazado_878141" data-name="Trazado 878141" d="M126.179,222.808a3.13,3.13,0,0,0,.936,1.265,6.84,6.84,0,0,1,1.758,3.9l.007.057h1.663l.007-.057a6.838,6.838,0,0,1,1.759-3.9,2.98,2.98,0,0,0,.925-1.218,3.838,3.838,0,1,0-7.055-.047" transform="translate(-60.515 -104.562)" fill="#94b3ed"/>
            <path id="Trazado_878142" data-name="Trazado 878142" d="M187.237,187.33a8.059,8.059,0,1,0-6.273,9.515,8.069,8.069,0,0,0,6.273-9.515" transform="translate(-82.34 -86.959)" fill="#572737"/>
            <path id="Trazado_878143" data-name="Trazado 878143" d="M175.48,192.106a5.943,5.943,0,1,1,7.016,4.627,5.949,5.949,0,0,1-7.016-4.627" transform="translate(-84.299 -88.919)" fill="#fff"/>
            <path id="Trazado_878144" data-name="Trazado 878144" d="M179.715,194.984a3.13,3.13,0,0,0,.936,1.265,6.841,6.841,0,0,1,1.759,3.9l.007.057h1.663l.007-.057a6.838,6.838,0,0,1,1.759-3.9,2.981,2.981,0,0,0,.925-1.218,3.838,3.838,0,1,0-7.055-.047" transform="translate(-86.251 -91.186)" fill="#bf395c"/>
            <path id="Trazado_878145" data-name="Trazado 878145" d="M100.508,254.055a8.059,8.059,0,1,0-6.273,9.515,8.069,8.069,0,0,0,6.273-9.515" transform="translate(-40.647 -119.036)" fill="#572737"/>
            <path id="Trazado_878146" data-name="Trazado 878146" d="M88.751,258.831a5.943,5.943,0,1,1,7.016,4.626,5.949,5.949,0,0,1-7.016-4.626" transform="translate(-42.606 -120.995)" fill="#fff"/>
            <path id="Trazado_878147" data-name="Trazado 878147" d="M92.986,261.708a3.13,3.13,0,0,0,.936,1.265,6.84,6.84,0,0,1,1.758,3.9l.007.057H97.35l.007-.057a6.838,6.838,0,0,1,1.759-3.9,2.981,2.981,0,0,0,.925-1.218,3.838,3.838,0,1,0-7.055-.047" transform="translate(-44.558 -123.262)" fill="#bf395c"/>
            <path id="Trazado_878148" data-name="Trazado 878148" d="M43.484,216.9c-.626-4.55-3.619-8.309-6.671-8.38s-5.024,3.576-4.4,8.126,3.619,8.31,6.671,8.379,5.024-3.575,4.4-8.126" transform="translate(-15.527 -100.241)" fill="#572737"/>
            <path id="Trazado_878149" data-name="Trazado 878149" d="M35.242,218.687c-.462-3.356.993-6.044,3.243-5.992s4.457,2.823,4.919,6.179-.993,6.044-3.243,5.993-4.456-2.824-4.919-6.18" transform="translate(-16.9 -102.247)" fill="#fff"/>
            <path id="Trazado_878150" data-name="Trazado 878150" d="M38.211,222.117a4.757,4.757,0,0,0,.656,1.472,10.905,10.905,0,0,1,1.233,4.293l0,.059,1.166.368,0-.056a6.371,6.371,0,0,1,1.233-3.514,2.067,2.067,0,0,0,.649-1.013,4.951,4.951,0,0,0,.168-2.23c-.3-2.165-1.722-3.954-3.174-3.987s-2.391,1.7-2.092,3.867a6.2,6.2,0,0,0,.152.742" transform="translate(-18.269 -104.562)" fill="#94b3ed"/>
            <path id="Trazado_878151" data-name="Trazado 878151" d="M186.515,242.752c1.736-4.252,5.568-7.151,8.542-6.461s3.979,4.711,2.243,8.964-5.569,7.151-8.542,6.461-3.979-4.711-2.243-8.964" transform="translate(-89.254 -113.543)" fill="#572737"/>
            <path id="Trazado_878152" data-name="Trazado 878152" d="M197.4,246.825c-1.281,3.136-4.106,5.274-6.3,4.765s-2.935-3.474-1.654-6.611,4.106-5.273,6.3-4.764,2.934,3.474,1.654,6.61" transform="translate(-90.771 -115.442)" fill="#fff"/>
            <path id="Trazado_878153" data-name="Trazado 878153" d="M197.012,249.707a4.788,4.788,0,0,1-1,1.263,10.911,10.911,0,0,0-2.261,3.853l-.019.055-1.221.068.009-.055a6.364,6.364,0,0,0-.321-3.71,2.071,2.071,0,0,1-.377-1.143,4.951,4.951,0,0,1,.39-2.2c.826-2.023,2.65-3.4,4.065-3.074s1.893,2.242,1.067,4.265a6.2,6.2,0,0,1-.331.681" transform="translate(-92.209 -117.64)" fill="#bf395c"/>
            <path id="Trazado_878154" data-name="Trazado 878154" d="M42.922,238.858s.9,24.719.9,43.483c0,19.876-.146,37.583,20.808,37.583,11.93,0,37.187-.373,47.77-.373" transform="translate(-20.634 -114.825)" fill="none" stroke="#572737" stroke-miterlimit="10" stroke-width="1"/>
            <path id="Trazado_878155" data-name="Trazado 878155" d="M99.515,277.756s.092,7.778.71,26.575c1.008,30.65,6.386,33.92,38.564,33.92" transform="translate(-47.839 -133.525)" fill="none" stroke="#572737" stroke-miterlimit="10" stroke-width="1"/>
            <path id="Trazado_878156" data-name="Trazado 878156" d="M133.173,224.854s.607,11.288.607,28.907c0,21.5-2.09,51.909,22.621,51.909h49.461a11.612,11.612,0,0,0,11.612-11.612V220.084a10.1,10.1,0,0,1,10.1-10.1H239.6" transform="translate(-64.02 -100.943)" fill="none" stroke="#572737" stroke-miterlimit="10" stroke-width="1"/>
            <path id="Trazado_878157" data-name="Trazado 878157" d="M553.784,372.758a52.91,52.91,0,0,0,.555,6.776c.13.426.562,1.248.684,1.675.163.569.576,2.189.191,2.594l-7.753-.066-7.636.066-.535-1.712c-.034-1.161,1.915-1.566,2.77-2.222,1.612-1.238,2.8-2.027,2.8-2.027l.556-5.879Z" transform="translate(-259.25 -178.812)" fill="#4a212f"/>
            <path id="Trazado_878158" data-name="Trazado 878158" d="M539.477,393.178s-.538-1.114-.262-1.712h15.964s.42,1.232-.038,1.712Z" transform="translate(-259.177 -188.188)" fill="#4a212f"/>
            <path id="Trazado_878159" data-name="Trazado 878159" d="M518.034,372.758a51.452,51.452,0,0,0,.514,6.776c.13.426.562,1.248.684,1.675.163.569.576,2.189.191,2.594l-7.712-.066-7.636.066-.535-1.712c-.034-1.161,1.915-1.566,2.77-2.222,1.611-1.238,2.8-2.027,2.8-2.027l.556-5.879Z" transform="translate(-242.064 -178.812)" fill="#4a212f"/>
            <path id="Trazado_878160" data-name="Trazado 878160" d="M503.727,393.178s-.538-1.114-.262-1.712h15.922s.42,1.232-.038,1.712Z" transform="translate(-241.991 -188.188)" fill="#4a212f"/>
            <path id="Trazado_878161" data-name="Trazado 878161" d="M522.077,270.668c.237-4.8,1.8-64.77,2.089-69.558.3-5.06-.688-23.4-.688-23.4l-4.649-17.336-11.523-2.663s-2.7,30.183-1.78,42.653c.826,11.142,2.922,61.5,4.145,70.546,1.284.241,10.523.463,12.406-.241" transform="translate(-242.927 -75.815)" fill="#6d3145"/>
            <path id="Trazado_878162" data-name="Trazado 878162" d="M530.975,201.235c1.059,3.558,1.519,20.672,2.132,29.827,1.544,23.064,2.023,40.239,2.023,40.239,2.231-.018,7.78.444,9.987.261.595-.049,1.184-.117,1.772-.188-.049-3.388,1.655-23.616,2.453-42.572.441-10.478,2.923-33.669,3.022-39.353a169.149,169.149,0,0,0-1.647-28.3l-27.68-2.9,4.782,27.208c1.317,6.964,2.028,11.988,3.156,15.779" transform="translate(-251.438 -76.074)" fill="#6d3145"/>
            <path id="Trazado_878163" data-name="Trazado 878163" d="M535.149,206.49c.208,1.467.378,2.938.568,4.406l.508,4.412c.332,2.942.613,5.889.922,8.833.262,2.949.549,5.9.788,8.847l.346,4.428c.095,1.477.209,2.954.285,4.433-.208-1.467-.379-2.938-.569-4.407l-.508-4.412c-.331-2.942-.613-5.889-.92-8.833-.261-2.949-.55-5.895-.787-8.846l-.346-4.428c-.094-1.478-.209-2.954-.286-4.434" transform="translate(-257.26 -99.265)" fill="#572737"/>
            <path id="Trazado_878164" data-name="Trazado 878164" d="M534.932,33.889a18.066,18.066,0,0,0,.593,6.545c.535,1.541,6.777,4.48,6.777,4.48s-17,15.762-23.239,15.514,3.091-16.483,3.091-16.483,2.15-.032,2.756-1.687a69.036,69.036,0,0,0,1.53-6.889l7.52-8.987Z" transform="translate(-248.494 -12.683)" fill="#f2b596"/>
            <path id="Trazado_878165" data-name="Trazado 878165" d="M542.859,39.634a22.27,22.27,0,0,1-.353-5.745l-.973-7.506-7.52,8.987a27.2,27.2,0,0,1-.953,4.776,15.042,15.042,0,0,1-.391,1.529,19.045,19.045,0,0,0,10.189-2.041" transform="translate(-256.068 -12.683)" fill="#db9079"/>
            <path id="Trazado_878166" data-name="Trazado 878166" d="M526.365,10.58c-2.106,2.83-1.46,5.758-1.165,7.826.264,1.849-.6,1.92-.935,4.55a10.2,10.2,0,0,0,4.093,8.965c3.15,2.207,9.647-.841,11.849-4.044,1.337-1.944,1.168-2.954,1.712-4.67s2.363-7.463.35-10.189-6.079-3.281-10.312-3.067-4.7-.567-5.593.629" transform="translate(-251.999 -4.757)" fill="#f2b596"/>
            <path id="Trazado_878167" data-name="Trazado 878167" d="M541.215,13.694a11.943,11.943,0,0,1-1.353-3.858,6.257,6.257,0,0,1,.494-3.179,5.584,5.584,0,0,1-4.276.712c-7.8-1.659-9.648-.329-9.648-.329a5.374,5.374,0,0,1,4.237-6.55,26.186,26.186,0,0,1,10.04,0c4.321,1.1,3.068,3.436,3.068,3.436a5,5,0,0,1,3.111,3.168c.914,2.651.2,4.638-1.006,7.526a12.387,12.387,0,0,1-4.953,5.707l.345-2.236-.206-.283a2.393,2.393,0,0,1-.385-1.987Z" transform="translate(-253.01 0)" fill="#4e2100"/>
            <path id="Trazado_878168" data-name="Trazado 878168" d="M539.591,18.63a5.807,5.807,0,0,1,4.337,1.4,2.9,2.9,0,0,1-.7.2c-.405-.042-2.709-.826-4.165-.375a2.549,2.549,0,0,1,.525-1.227" transform="translate(-259.143 -8.941)" fill="#4e2100"/>
            <path id="Trazado_878169" data-name="Trazado 878169" d="M529.168,18.563s-1.278-.432-3.406.873c0,0,.03.573.445.476a5.446,5.446,0,0,1,3.132-.068,1.9,1.9,0,0,0-.171-1.282" transform="translate(-252.748 -8.891)" fill="#4e2100"/>
            <path id="Trazado_878170" data-name="Trazado 878170" d="M543.891,26.592c-.061.6-.4,1.061-.752,1.026s-.594-.553-.533-1.155.4-1.062.752-1.026.594.553.533,1.155" transform="translate(-260.84 -12.227)" fill="#4e2100"/>
            <path id="Trazado_878171" data-name="Trazado 878171" d="M529.731,25.945c-.061.6-.4,1.061-.752,1.026s-.594-.553-.533-1.155.4-1.061.752-1.026.594.553.533,1.155" transform="translate(-254.033 -11.916)" fill="#4e2100"/>
            <path id="Trazado_878172" data-name="Trazado 878172" d="M554.42,29.409c1.556-1.4,3.8-.756,3.323,1.509a4.822,4.822,0,0,1-2.448,3.5c-1.152.832-2.33.3-2.323-.243.018-1.531.481-3.894,1.448-4.762" transform="translate(-265.828 -13.784)" fill="#f2b596"/>
            <path id="Trazado_878173" data-name="Trazado 878173" d="M505.806,66.286,503,64.2s-2.595.894-4.986,4.565S489.205,94.074,488.8,95.11s-3.025,9.767-1,12.35c.6.77,4.171.9,6.234.955s4.769-5.062,7.349-11.863,4.428-30.266,4.428-30.266" transform="translate(-234.132 -30.864)" fill="#fff"/>
            <path id="Trazado_878174" data-name="Trazado 878174" d="M547.249,130.846c-12.252,6.874-26.347,9.112-38.816,2.1,1.357-12.334,2.053-55.144,2.577-58.372.665-4.1,4.07-13.389,4.07-13.389l.649-.276c5,5.1,17.643,5.553,20.65-1.452,2.831,1.657,7.063,4.2,8,5.135,2.926,2.927,2.985,8.358,2.752,12.463-.187,3.277.364,42.136.122,53.787" transform="translate(-244.417 -28.584)" fill="#599dd9"/>
            <path id="Trazado_878175" data-name="Trazado 878175" d="M558.583,137.059c0,.2-.028,7.916-.062,8.065a48.587,48.587,0,0,1-26.46,2.4c-.1-2.774-.726-16.82-.736-18.875-.028-6.007-.419-20.554.118-26.537.523-5.838.278-10.871,1.078-16.679a75.166,75.166,0,0,1,1.705-7.4,66.953,66.953,0,0,1,4.247-10.575c1.869-3.668,3.45-5.885,4.835-9.77a16.62,16.62,0,0,0,1.377-1.143s9.186,5.22,10.616,6.65c2.926,2.927,2.985,8.358,2.751,12.463-.2,3.455.739,51.268.53,61.4" transform="translate(-255.344 -27.182)" fill="#fff"/>
            <path id="Trazado_878176" data-name="Trazado 878176" d="M536.471,120.737a1,1,0,1,1-1-1,1,1,0,0,1,1,1" transform="translate(-256.938 -57.563)" fill="#cdcdd1"/>
            <path id="Trazado_878177" data-name="Trazado 878177" d="M535.643,144.976a1,1,0,1,1-1-1,1,1,0,0,1,1,1" transform="translate(-256.54 -69.215)" fill="#cdcdd1"/>
            <path id="Trazado_878178" data-name="Trazado 878178" d="M534.816,169.215a1,1,0,1,1-1-1,1,1,0,0,1,1,1" transform="translate(-256.142 -80.867)" fill="#cdcdd1"/>
            <path id="Trazado_878179" data-name="Trazado 878179" d="M514.365,74.158c-.363,2.8,3.867,12.607,4.176,15.41.3,2.738-.143,5.47.2,8.2.666,5.335-1.474,13.769-1.574,22.628-.126,11.07-1.27,22.934-1.38,28.132-3.277-.718-9.793-1.757-12.825-3.182.046-1.942.568-13.171.684-14.32,1.081-10.611,3.331-53.674,3.889-57.114.665-4.1,3.118-12.008,3.118-12.008l5.921-2.485a2.113,2.113,0,0,0,.5,1.15,60.123,60.123,0,0,0-1.619,6.368c-.478,2.394-.771,4.8-1.086,7.223" transform="translate(-241.786 -28.563)" fill="#fff"/>
            <path id="Trazado_878180" data-name="Trazado 878180" d="M558.245,146.182a47.678,47.678,0,0,1-13.052,3.144,48.746,48.746,0,0,1-13.44-.572l-.138-.025-.007-.144L531,137.093c-.1-1.917-.2-3.832-.266-5.753-.047-1.93-.044-3.838-.073-5.76-.042-3.837-.08-7.674-.07-11.513q0-2.88.078-5.76c.049-1.918.129-3.847.3-5.76.327-3.812.33-7.652.593-11.491a54.937,54.937,0,0,1,.655-5.738c.341-1.907.941-3.741,1.4-5.595a34.21,34.21,0,0,1,1.849-5.467c.731-1.777,1.512-3.533,2.368-5.255s1.839-3.373,2.769-5.049a35.777,35.777,0,0,0,2.428-5.208A35.8,35.8,0,0,1,540.7,64c-.9,1.7-1.844,3.366-2.671,5.093s-1.576,3.493-2.288,5.271a33.9,33.9,0,0,0-1.778,5.441c-.441,1.876-1.019,3.706-1.334,5.584s-.489,3.789-.614,5.7c-.249,3.818-.239,7.662-.554,11.5-.326,3.811-.322,7.649-.357,11.482s0,7.67.035,11.507c.023,1.915.015,3.844.055,5.749.065,1.914.16,3.831.249,5.746.183,3.833.368,7.662.52,11.5l-.145-.169a49.014,49.014,0,0,0,6.651.806,51.129,51.129,0,0,0,6.7-.1,47.549,47.549,0,0,0,13.072-2.929" transform="translate(-255.068 -28.24)" fill="#cdcdd1"/>
            <path id="Trazado_878181" data-name="Trazado 878181" d="M530.247,116.294a24.7,24.7,0,0,1,.168,3.725c-.011,1.244-.043,2.487-.088,3.73-.1,2.485-.252,4.969-.381,7.448-.247,4.957-.343,9.93-.491,14.9-.172,4.968-.326,9.938-.6,14.9s-.616,9.93-1.2,14.868c.175-2.48.36-4.957.469-7.44.139-2.481.242-4.963.338-7.446q.273-7.449.475-14.9l.248-7.453c.093-2.484.175-4.969.344-7.454s.382-4.956.531-7.437c.081-1.239.158-2.479.208-3.72a28.1,28.1,0,0,0-.024-3.722" transform="translate(-253.659 -55.906)" fill="#cdcdd1"/>
            <path id="Trazado_878182" data-name="Trazado 878182" d="M509.895,87.325c-.062,2.619-.18,5.233-.307,7.848s-.3,5.225-.445,7.838c-.189,2.61-.355,5.222-.565,7.831l-.326,3.913c-.127,1.3-.237,2.608-.38,3.91.025-1.309.085-2.617.126-3.925l.181-3.922c.127-2.615.3-5.226.446-7.839.19-2.611.355-5.223.566-7.832s.429-5.218.7-7.822" transform="translate(-244.147 -41.979)" fill="#cdcdd1"/>
            <path id="Trazado_878183" data-name="Trazado 878183" d="M554.825,32.958s.55-1.673,1.607-1.836.879,1.412.465,2.364c-.707,1.627-1.928,1.415-1.928,1.415a1.961,1.961,0,0,0,.742-1.7c-.141-.8-.887-.245-.887-.245" transform="translate(-266.719 -14.956)" fill="#db9079"/>
            <path id="Trazado_878184" data-name="Trazado 878184" d="M546.914,55.718a9.274,9.274,0,0,1-2.4-2.311s-3.012,7.021-4.8,11.066c-2.78,6.272-5.816,15.57-6.052,17.507-.3,2.434-.692,4.7-.692,4.7s5.511-10.626,7.314-13.236a31.479,31.479,0,0,0,2.135-3.322l-1.234-2.23,2.658-.854s.854-4.793,1.708-7.5a36.851,36.851,0,0,1,1.368-3.819" transform="translate(-256.21 -25.674)" fill="#fff"/>
            <path id="Trazado_878185" data-name="Trazado 878185" d="M526.354,55.831s-1.52.632-1.871,1.284-4.6,10.113-4.6,10.113l1.2.953L519.53,70.84s2.612,7.3,2.813,9.1,4.163,7.9,4.163,7.9-2.773-15.793-2.221-19.855,2.069-12.157,2.069-12.157" transform="translate(-249.752 -26.839)" fill="#fff"/>
            <path id="Trazado_878186" data-name="Trazado 878186" d="M546.431,55.617a11.183,11.183,0,0,1-1.32-1.032,8.081,8.081,0,0,1-1.125-1.25l.093-.008-3.431,8.149-1.727,4.067c-.563,1.358-1.1,2.729-1.611,4.107-1.032,2.755-2,5.536-2.866,8.346a27.842,27.842,0,0,0-1.062,4.24c-.184,1.467-.393,2.927-.648,4.385l-.482-.163c1.478-2.818,2.973-5.625,4.515-8.41.774-1.391,1.551-2.779,2.394-4.139.43-.685.9-1.323,1.339-1.981s.894-1.325,1.258-1.99l.006.173-1.216-2.24-.1-.184.2-.062,2.664-.833-.1.116c.366-1.928.783-3.844,1.284-5.742.248-.95.548-1.887.872-2.811s.665-1.845,1.068-2.738m0,0c-.374.905-.676,1.838-.977,2.769s-.574,1.87-.8,2.822c-.448,1.9-.815,3.828-1.156,5.753l-.016.088-.086.028-2.651.875.1-.246,1.251,2.221.051.09-.045.083c-.776,1.436-1.716,2.718-2.566,4.046-.826,1.347-1.6,2.738-2.361,4.129-1.524,2.787-3.006,5.6-4.467,8.421l-.75,1.447.268-1.61c.241-1.447.47-2.9.656-4.359a14.923,14.923,0,0,1,.47-2.193q.3-1.069.631-2.126c.882-2.819,1.867-5.6,2.917-8.36.536-1.375,1.091-2.742,1.677-4.1l1.791-4.044,3.612-8.069.039-.088.054.08a8.531,8.531,0,0,0,1.075,1.267,11.2,11.2,0,0,0,1.281,1.073" transform="translate(-255.727 -25.573)" fill="#cdcdd1"/>
            <path id="Trazado_878187" data-name="Trazado 878187" d="M526.137,55.831a6.744,6.744,0,0,0-1.439.844,1.522,1.522,0,0,0-.5.648l-.344.764-1.349,3.069L519.817,67.3l-.049-.2,1.212.942.123.1-.079.138-1.531,2.673.01-.191c1.259,2.8,2.474,5.609,3.613,8.462l.818,2.149.85,2.131,1.741,4.25-.489.142q-.677-3.993-1.237-8c-.368-2.673-.713-5.352-.889-8.051a20.5,20.5,0,0,1,.029-4.072q.3-2,.662-3.993c.487-2.652.988-5.3,1.535-7.942m0,0c-.438,2.66-.889,5.318-1.3,7.982-.2,1.332-.413,2.663-.587,4a20.21,20.21,0,0,0,.043,4c.234,2.677.584,5.348.966,8.013s.815,5.326,1.279,7.977l.395,2.249-.884-2.107c-.592-1.413-1.16-2.837-1.731-4.26l-.84-2.143-.806-2.15c-1.114-2.846-2.334-5.657-3.553-8.465l-.043-.1.054-.091,1.579-2.644.044.234-1.2-.964-.1-.083.054-.117c.935-2.03,1.866-4.062,2.823-6.083l1.436-3.03.368-.754a1.627,1.627,0,0,1,.531-.652,6.741,6.741,0,0,1,1.467-.809" transform="translate(-249.535 -26.839)" fill="#cdcdd1"/>
            <path id="Trazado_878188" data-name="Trazado 878188" d="M529.673,40s.614,1.853,2.2,2.035c2.072.164,2.892-2.294,2.892-2.294a4.52,4.52,0,0,1-2.757.807A3.506,3.506,0,0,1,529.673,40" transform="translate(-254.628 -19.105)" fill="#b00d41"/>
            <path id="Trazado_878189" data-name="Trazado 878189" d="M529.926,31.994c.408-.616.788-1.25,1.148-1.9a17.549,17.549,0,0,0,1.048-2.2,17.414,17.414,0,0,0-1.447,1.965c-.437.682-.852,1.378-1.23,2.1l-.113.216.2.084a15.885,15.885,0,0,0,1.809.655,14.578,14.578,0,0,0-1.417-.916" transform="translate(-254.464 -13.409)" fill="#db9079"/>
            <path id="Trazado_878190" data-name="Trazado 878190" d="M557.663,162.319a30.775,30.775,0,0,1-3.3.594,31.4,31.4,0,0,1-3.351.231,32.183,32.183,0,0,1-6.7-.583l.293-.241c0,1.038.02,2.076.008,3.114l-.206-.25q1.628.329,3.283.5c1.1.117,2.21.165,3.318.192a37.893,37.893,0,0,0,6.64-.49l-.038.047.048-2.354.047,2.354v.037l-.039.009a31.632,31.632,0,0,1-3.3.577q-1.669.193-3.354.224a30.172,30.172,0,0,1-3.363-.132q-1.677-.153-3.335-.467l-.2-.038,0-.211c-.012-1.038.005-2.076.008-3.114v-.3l.292.06a37.59,37.59,0,0,0,6.6.708c1.11.024,2.22-.021,3.33-.093s2.216-.209,3.32-.374" transform="translate(-261.565 -77.886)" fill="#cdcdd1"/>
            <path id="Trazado_878191" data-name="Trazado 878191" d="M512.992,160.849a5,5,0,0,1-2.5.807,5.32,5.32,0,0,1-2.616-.591l.356-.216q.022,1.557.007,3.114l-.135-.223a5.642,5.642,0,0,0,2.388.683,5.811,5.811,0,0,0,2.482-.5l-.025.043.047-2.354.047,2.354v.026l-.026.016a5.921,5.921,0,0,1-1.2.56,5.217,5.217,0,0,1-1.324.229,5.31,5.31,0,0,1-2.62-.608l-.133-.068,0-.155q-.017-1.557.007-3.114l.006-.4.35.188a5.608,5.608,0,0,0,2.392.7,5.971,5.971,0,0,0,2.5-.484" transform="translate(-244.077 -77.13)" fill="#cdcdd1"/>
            <path id="Trazado_878192" data-name="Trazado 878192" d="M555.452,122.677c-1.4-.459-3.667-1.209-6.164-2.032l0,.006c-.4-.163-.761-.31-.969-.405a3.3,3.3,0,0,1-.307-.165c-.61,1.844-1.122,2.151-1.709,4,2.568,1.891,5.716,4.141,8.463,6.028.323-2.46.522-4.941.69-7.434" transform="translate(-262.621 -57.726)" fill="#f2b596"/>
            <path id="Trazado_878193" data-name="Trazado 878193" d="M576.935,94.413c-.558-3.462-2.484-13.3-5.681-18.925-2.073-3.645-4.576-6.745-6.085-7.091,0,0-1.77,11.255-.931,15.4s3.537,16.123,3.537,16.123a26.833,26.833,0,0,0-7.287-2.192c-.475-.09-3.794-1.12-5.028-1.35a20.108,20.108,0,0,1-.942,6.437c2.7,1.9,7,4.384,8.707,5.431,5.919,3.634,9.39,5.26,10.426,5.395,2.1.273,3.631-1.944,3.981-4.763a53.728,53.728,0,0,0-.7-14.462" transform="translate(-266.571 -32.88)" fill="#fff"/>
            <path id="Trazado_878194" data-name="Trazado 878194" d="M554.517,102.812c2.526,1.68,5.152,3.195,7.774,4.719,2.6,1.555,5.206,3.109,7.911,4.463.676.336,1.357.662,2.05.95a10.762,10.762,0,0,0,1.043.383,2.37,2.37,0,0,0,1.03.082,2.575,2.575,0,0,0,.965-.367,3.585,3.585,0,0,0,.781-.717,5.947,5.947,0,0,0,.992-1.934,9.947,9.947,0,0,0,.4-2.184c.069-.749.12-1.5.137-2.253.046-1.505-.008-3.015-.106-4.521a87,87,0,0,0-3.22-17.82,39.028,39.028,0,0,0-3.326-8.4,33.88,33.88,0,0,0-2.468-3.8,17.613,17.613,0,0,0-1.472-1.722,4.722,4.722,0,0,0-1.837-1.289,4.747,4.747,0,0,1,1.891,1.233,17.491,17.491,0,0,1,1.526,1.694,34.093,34.093,0,0,1,2.579,3.758,39.146,39.146,0,0,1,3.49,8.419,85.5,85.5,0,0,1,2.157,8.857,77.058,77.058,0,0,1,1.2,9.043c.091,1.52.138,3.045.083,4.571-.02.762-.077,1.525-.15,2.286a10.435,10.435,0,0,1-.43,2.278,6.4,6.4,0,0,1-1.085,2.083,4.033,4.033,0,0,1-.893.808,3.017,3.017,0,0,1-1.147.428,2.829,2.829,0,0,1-1.217-.1,9.8,9.8,0,0,1-1.087-.409c-.7-.3-1.385-.645-2.062-.994-2.7-1.406-5.286-3-7.86-4.6s-5.184-3.159-7.644-4.936" transform="translate(-266.571 -32.88)" fill="#cdcdd1"/>
            <path id="Trazado_878195" data-name="Trazado 878195" d="M565.11,98.048l.988,4.008.96,4.014.924,4.021c.3,1.341.625,2.679.911,4.024l.094.444-.423-.152c-2.005-.719-4.047-1.349-6.077-2.006-2.038-.635-4.085-1.236-6.155-1.774a62.324,62.324,0,0,1,6.261,1.415c2.07.549,4.1,1.212,6.138,1.89l-.329.292c-.318-1.339-.6-2.686-.893-4.03l-.865-4.036c-.544-2.7-1.094-5.394-1.534-8.113" transform="translate(-267.443 -47.134)" fill="#cdcdd1"/>
            <path id="Trazado_878196" data-name="Trazado 878196" d="M488.651,124.317c-1.3,3.149-1.393,5.069,1.033,6.478,2.888,1.676,8.648-1.288,10.951-8.613,2.049-6.516,3.587-8.076,3.587-8.076l-4.424-5.073s-4.136,5.209-6.569,8.446c-1.412,1.88-3.821,5.007-4.578,6.838" transform="translate(-234.473 -52.415)" fill="#fff"/>
            <path id="Trazado_878197" data-name="Trazado 878197" d="M495.87,130.286a11.514,11.514,0,0,0,3.74-3.189,25.706,25.706,0,0,0,2.639-4.177,41.924,41.924,0,0,0,1.978-4.535c.571-1.547,1.08-3.126,1.5-4.711l.049.2-4.449-5.051.4-.009-5.48,6.913c-.913,1.153-1.823,2.3-2.657,3.511a24.987,24.987,0,0,0-2.257,3.774,22.475,22.475,0,0,1,2.048-3.914c.8-1.244,1.677-2.429,2.552-3.612s1.777-2.346,2.676-3.511l2.713-3.482.192-.247.206.238,4.4,5.1.078.091-.03.112a44.3,44.3,0,0,1-1.576,4.739,42.439,42.439,0,0,1-2.078,4.535,23.9,23.9,0,0,1-2.769,4.146,11.213,11.213,0,0,1-3.87,3.082" transform="translate(-236.195 -52.037)" fill="#cdcdd1"/>
            <path id="Trazado_878198" data-name="Trazado 878198" d="M541.546,108.8c-.715-1.5-1.327-1.72-2.858-2.886s-2.144-1.665-2.45-.777.612,1.832,1.429,2.609-.051,1.776,1.174,2.164,2.7-1.11,2.7-1.11" transform="translate(-257.755 -50.323)" fill="#db9079"/>
            <path id="Trazado_878199" data-name="Trazado 878199" d="M520.957,111.318l-.015.009a.949.949,0,0,1-.581.158l-18.143-1.117a1.013,1.013,0,0,1-.847-.6L489.66,84.8a1.155,1.155,0,0,1,.38-1.436.951.951,0,0,1,.547-.159l19.163.457a1.013,1.013,0,0,1,.9.645l10.706,25.619a1.154,1.154,0,0,1-.4,1.4" transform="translate(-235.34 -39.996)" fill="#9c1144"/>
            <path id="Trazado_878200" data-name="Trazado 878200" d="M519.306,112.137l-17.846-.426a1.014,1.014,0,0,1-.9-.645L490.149,86.152a1.1,1.1,0,0,1,.944-1.556l17.847.426a1.014,1.014,0,0,1,.9.645l10.412,24.915a1.1,1.1,0,0,1-.944,1.556" transform="translate(-235.583 -40.667)" fill="#d65173"/>
            <path id="Trazado_878201" data-name="Trazado 878201" d="M539.625,120.192a5.923,5.923,0,0,1,1.49.572c.984-.407,2.053-2.714,2.3-4.592-2.1-.953-2.67-2.022-2.9-2.7-.313-.935-1.148-2.941-2.633-3.281a16.413,16.413,0,0,0-5.159-.51.994.994,0,0,0-.313,1.785s-1.016-.17-1.407.255a1.326,1.326,0,0,0,.86,2.04,1.425,1.425,0,0,0-.625,1.275,1.631,1.631,0,0,0,.938,1.361s-.86.51-.078,1.445,2.28,1.247,3.841,1.918c1.884.81,2.5.143,3.681.429" transform="translate(-255.16 -52.69)" fill="#f2b596"/>
            <path id="Trazado_878202" data-name="Trazado 878202" d="M580.059,128.691a17.556,17.556,0,0,1,2.118,2.048,10.969,10.969,0,0,1,1.639,2.415,10.866,10.866,0,0,0-1.827-2.236,17.278,17.278,0,0,0-2.232-1.8Z" transform="translate(-278.704 -61.865)" fill="#cdcdd1"/>
            <path id="Trazado_878203" data-name="Trazado 878203" d="M361.9,165.456H335.434L317,193.83h26.461Z" transform="translate(-152.388 -79.539)" fill="#e089a3"/>
            <path id="Trazado_878204" data-name="Trazado 878204" d="M380.7,165.456H356.6l-13.025,21.8,8.044,6.579h12.285Z" transform="translate(-165.168 -79.539)" fill="#d65173"/>
            <path id="Trazado_878205" data-name="Trazado 878205" d="M350.756,205.794h20.517l9.72,5.091H358.872Z" transform="translate(-168.617 -98.931)" fill="#d65173"/>
            <path id="Trazado_878206" data-name="Trazado 878206" d="M312.069,214.432h49.868a5.438,5.438,0,0,1,5.438,5.438v.233H306.631v-.233a5.438,5.438,0,0,1,5.438-5.438" transform="translate(-147.406 -103.083)" fill="#f7c3d2"/>
            <path id="Trazado_878207" data-name="Trazado 878207" d="M309.883,214.432h15.225a3.252,3.252,0,0,1,3.252,3.253V220.1H306.631v-2.418a3.252,3.252,0,0,1,3.252-3.253" transform="translate(-147.406 -103.083)" fill="#e089a3"/>
            <path id="Trazado_878208" data-name="Trazado 878208" d="M361.176,136.7H278.6a4.577,4.577,0,0,1-4.628-4.813l.254-49.978c0-5.924,5.9-8.4,9.2-8.4h71.751a4.576,4.576,0,0,1,4.627,4.813l6.889,50.128c.134,4.566-.826,8.25-5.519,8.25" transform="translate(-131.704 -35.338)" fill="#e089a3"/>
            <path id="Trazado_878209" data-name="Trazado 878209" d="M369.856,133.987H302.371a5.055,5.055,0,0,1-5.1-4.6L292.486,79.8a5.754,5.754,0,0,1,5.68-6.21H365.65a5.055,5.055,0,0,1,5.1,4.6l4.79,49.583a5.754,5.754,0,0,1-5.68,6.209" transform="translate(-140.593 -35.379)" fill="#f7c3d2"/>
            <path id="Trazado_878210" data-name="Trazado 878210" d="M419.383,121.961a4.669,4.669,0,0,0-6.55.115l-.078-.074a4.57,4.57,0,0,0-5.38-.7,4.684,4.684,0,0,0-1.013,7.514l5.732,5.036a1.275,1.275,0,0,0,1.7-.018l5.653-5.178a2.591,2.591,0,0,0,.186-.185,4.67,4.67,0,0,0-.254-6.506" transform="translate(-194.652 -58.012)" fill="#e34a7b"/>
            <path id="Trazado_878211" data-name="Trazado 878211" d="M405.82,124.5a5.567,5.567,0,0,0,.991,4.412,14.022,14.022,0,0,0,1.989,2.08,8.9,8.9,0,0,0,2.422,1.641,6.2,6.2,0,0,0,4.837-.238,9.562,9.562,0,0,0,4.744-4.665,4.647,4.647,0,0,1-1.164,2.577c-.059.065-.121.126-.186.185l-5.653,5.178a1.275,1.275,0,0,1-1.7.018l-5.732-5.036a4.669,4.669,0,0,1-.544-6.15" transform="translate(-194.652 -59.849)" fill="#cc3767"/>
            <g id="Grupo_1101837" data-name="Grupo 1101837" transform="translate(220.493 63.346)" opacity="0.12">
              <g id="Grupo_1101836" data-name="Grupo 1101836">
                <g id="Grupo_1101835" data-name="Grupo 1101835" clip-path="url(#clip-path-3)">
                  <path id="Trazado_878212" data-name="Trazado 878212" d="M427.035,122.189a3.181,3.181,0,0,1,2.079,3.546c-.408,1.182-1.59,1.1-2.894.122a3.445,3.445,0,0,1-1.589-2.812c.122-.774.937-1.385,2.4-.856" transform="translate(-424.618 -121.989)" fill="#f4f4f4"/>
                </g>
              </g>
            </g>
            <path id="Trazado_878213" data-name="Trazado 878213" d="M360.411,171.275h36.663a3.514,3.514,0,0,0,3.493-3.9l-.463-4.23a3.514,3.514,0,0,0-3.493-3.132H359.947a3.514,3.514,0,0,0-3.493,3.9l.463,4.231a3.514,3.514,0,0,0,3.493,3.132" transform="translate(-171.347 -76.924)" fill="#e089a3"/>
            <path id="Trazado_878214" data-name="Trazado 878214" d="M338.456,171.275h1.919a3.515,3.515,0,0,0,3.494-3.9l-.463-4.23a3.514,3.514,0,0,0-3.493-3.132h-1.919a3.514,3.514,0,0,0-3.493,3.9l.463,4.231a3.514,3.514,0,0,0,3.493,3.132" transform="translate(-160.792 -76.924)" fill="#d65173"/>
            <path id="Trazado_878215" data-name="Trazado 878215" d="M316.936,171.275h1.919a3.515,3.515,0,0,0,3.494-3.9l-.463-4.23a3.514,3.514,0,0,0-3.493-3.132h-1.919a3.514,3.514,0,0,0-3.493,3.9l.463,4.231a3.514,3.514,0,0,0,3.493,3.132" transform="translate(-150.447 -76.924)" fill="#d65173"/>
            <path id="Trazado_878216" data-name="Trazado 878216" d="M350.685,117.661H314.217a2.922,2.922,0,0,1-2.9-2.58L308.36,89.949a2.922,2.922,0,0,1,2.9-3.263h36.466a2.922,2.922,0,0,1,2.9,2.58l2.956,25.132a2.922,2.922,0,0,1-2.9,3.263" transform="translate(-148.227 -41.672)" fill="#4a212f"/>
            <path id="Trazado_878217" data-name="Trazado 878217" d="M350.685,117.661H314.217a2.922,2.922,0,0,1-2.9-2.58L308.36,89.949a2.922,2.922,0,0,1,2.9-3.263h36.466a2.922,2.922,0,0,1,2.9,2.58l2.956,25.132A2.922,2.922,0,0,1,350.685,117.661Z" transform="translate(-148.227 -41.672)" fill="none" stroke="#e089a3" stroke-miterlimit="10" stroke-width="4"/>
            <path id="Trazado_878218" data-name="Trazado 878218" d="M415.385,98.782H400.1a1.224,1.224,0,0,1-1.216-1.082l-1.239-10.533a1.224,1.224,0,0,1,1.216-1.368h15.284a1.225,1.225,0,0,1,1.216,1.082L416.6,97.415a1.225,1.225,0,0,1-1.216,1.367" transform="translate(-191.155 -41.246)" fill="#4a212f"/>
            <path id="Trazado_878219" data-name="Trazado 878219" d="M415.385,98.782H400.1a1.224,1.224,0,0,1-1.216-1.082l-1.239-10.533a1.224,1.224,0,0,1,1.216-1.368h15.284a1.225,1.225,0,0,1,1.216,1.082L416.6,97.415A1.225,1.225,0,0,1,415.385,98.782Z" transform="translate(-191.155 -41.246)" fill="none" stroke="#e089a3" stroke-miterlimit="10" stroke-width="4"/>
            <path id="Trazado_878220" data-name="Trazado 878220" d="M321.973,103.776h2.062l1.314,1.906.515-1.906h2.721l.576-4.543,1.135,4.543h2.421l.911-.8.712.8h1.772l1.337,3.451.531-3.451h2.482l.588-2.033.956,2.033h2.537l.911,2.52.48-2.52h1.958l.628-4.1,1.942,5.963.46-1.859h1.392" transform="translate(-154.781 -47.704)" fill="none" stroke="#e2758f" stroke-miterlimit="10" stroke-width="1"/>
            <path id="Trazado_878221" data-name="Trazado 878221" d="M354.961,123.094H353.57l-.46,2.03-1.942-5.962-.628,3.932h-1.957l-.48,1.448-.911-1.448h-2.537l-.956-1.862-.722,1.862H341.7l-.531,3.622-1.337-3.622h-2.845l-.712-1.316-.911,1.316h-2.421l-.326,3.374-1.386-3.374h-2.743l-.678,1.506-1.112-5.83-.717,4.324h-3.611" transform="translate(-154.972 -57.096)" fill="none" stroke="#d65173" stroke-miterlimit="10" stroke-width="1"/>
            <path id="Trazado_878222" data-name="Trazado 878222" d="M282.257,106.627h1.277c1.472,0,2.666,2.052,2.666,4.583s-1.194,4.583-2.666,4.583h-1.277c-1.473,0-2.666-2.052-2.666-4.583s1.194-4.583,2.666-4.583" transform="translate(-134.407 -51.258)" fill="#572737"/>
            <path id="Trazado_878223" data-name="Trazado 878223" d="M280.12,111.977c0,1.874.884,3.393,1.974,3.393s1.975-1.519,1.975-3.393-.884-3.393-1.975-3.393-1.974,1.519-1.974,3.393" transform="translate(-134.661 -52.199)" fill="#b00d41"/>
            <path id="Trazado_878224" data-name="Trazado 878224" d="M275.191,108.583h3.585v6.787h-3.585c-1.09,0-1.974-1.519-1.974-3.394s.884-3.393,1.974-3.393" transform="translate(-131.343 -52.199)" fill="#b00d41"/>
            <path id="Trazado_878225" data-name="Trazado 878225" d="M274.259,113.054c0,1.232.532,2.23,1.188,2.23s1.188-1,1.188-2.23-.532-2.23-1.188-2.23-1.188,1-1.188,2.23" transform="translate(-131.843 -53.276)" fill="#d65173"/>
            <path id="Trazado_878226" data-name="Trazado 878226" d="M270.392,115.119s-4.078.44-6,7.31.687,15.939,4.671,17.175" transform="translate(-126.789 -55.341)" fill="none" stroke="#572737" stroke-linecap="round" stroke-linejoin="round" stroke-width="3"/>
            <rect id="Rectángulo_403142" data-name="Rectángulo 403142" width="35.119" height="79.508" transform="translate(173.391 121.678)" fill="#d65173"/>
            <rect id="Rectángulo_403143" data-name="Rectángulo 403143" width="14.029" height="79.508" transform="translate(173.391 121.678)" fill="#bf4363"/>
            <g id="Grupo_1101840" data-name="Grupo 1101840" transform="translate(173.391 121.678)" opacity="0.28" style="mix-blend-mode: multiply;isolation: isolate">
              <g id="Grupo_1101839" data-name="Grupo 1101839">
                <g id="Grupo_1101838" data-name="Grupo 1101838" clip-path="url(#clip-path-4)">
                  <rect id="Rectángulo_403144" data-name="Rectángulo 403144" width="35.119" height="7.767" fill="#a85d70"/>
                </g>
              </g>
            </g>
            <rect id="Rectángulo_403146" data-name="Rectángulo 403146" width="86.775" height="5.723" transform="translate(148.972 116.405)" fill="#d65173"/>
            <rect id="Rectángulo_403147" data-name="Rectángulo 403147" width="27.551" height="5.723" transform="translate(148.972 116.405)" fill="#bf4363"/>
            <rect id="Rectángulo_403148" data-name="Rectángulo 403148" width="67.672" height="5.723" transform="translate(158.524 199.267)" fill="#d65173"/>
            <rect id="Rectángulo_403149" data-name="Rectángulo 403149" width="21.486" height="5.723" transform="translate(158.524 199.267)" fill="#bf4363"/>
            <path id="Trazado_878227" data-name="Trazado 878227" d="M380.131,299.779h-8.38A1.774,1.774,0,0,1,369.977,298v-13.39a1.774,1.774,0,0,1,1.774-1.774h8.38a1.774,1.774,0,0,1,1.774,1.774V298a1.774,1.774,0,0,1-1.774,1.774" transform="translate(-177.858 -135.969)" fill="#bf4363"/>
            <path id="Trazado_878228" data-name="Trazado 878228" d="M380.756,323.96h-9.629a1.149,1.149,0,0,1-1.149-1.149v-2.486a1.149,1.149,0,0,1,1.149-1.149h9.629a1.149,1.149,0,0,1,1.149,1.149v2.486a1.149,1.149,0,0,1-1.149,1.149" transform="translate(-177.858 -153.436)" fill="#bf4363"/>
          </g>
        </g>
      </g>
    </g>
    <g id="Grupo_1101639" data-name="Grupo 1101639" transform="translate(1013.693 5957.184)">
      <g id="Grupo_1098935" data-name="Grupo 1098935" transform="translate(0 0)">
        <path id="Trazado_873068" data-name="Trazado 873068" d="M81.221,9.6l-2.047.6a.507.507,0,0,0-.008.972l2,.618a10.656,10.656,0,0,1,6.917,6.684l.929,2.674a.507.507,0,0,0,.966-.024l.627-2.141a10.66,10.66,0,0,1,7.236-7.237l2-.585a.508.508,0,0,0,0-.974l-2-.586A10.658,10.658,0,0,1,90.6,2.365l-.586-2a.508.508,0,0,0-.974,0l-.586,2A10.658,10.658,0,0,1,81.221,9.6" transform="translate(124.651 0)" fill="#6063c0"/>
        <path id="Trazado_873069" data-name="Trazado 873069" d="M153.843,101.409l-4.019,1.177a1,1,0,0,0-.016,1.909l3.922,1.214a20.927,20.927,0,0,1,13.583,13.126l1.825,5.251a1,1,0,0,0,1.9-.048l1.232-4.2a20.934,20.934,0,0,1,14.211-14.213l3.928-1.148a1,1,0,0,0,0-1.913l-3.928-1.15A20.931,20.931,0,0,1,172.268,87.2l-1.15-3.929a1,1,0,0,0-1.913,0l-1.15,3.929a20.931,20.931,0,0,1-14.211,14.211" transform="translate(-149.106 33.208)" fill="#30169a"/>
        <path id="Trazado_873070" data-name="Trazado 873070" d="M3.935,149.963.6,150.942a.828.828,0,0,0-.013,1.586l3.258,1.008a17.387,17.387,0,0,1,11.285,10.905l1.516,4.363a.828.828,0,0,0,1.576-.04l1.023-3.493a17.392,17.392,0,0,1,11.806-11.808l3.264-.954a.828.828,0,0,0,0-1.59l-3.264-.956a17.39,17.39,0,0,1-11.806-11.806l-.956-3.264a.828.828,0,0,0-1.59,0l-.956,3.264A17.39,17.39,0,0,1,3.935,149.963" transform="translate(361.791 -84.176)" fill="#30169a"/>
      </g>
    </g>
  </g>
</svg>
