<svg xmlns="http://www.w3.org/2000/svg" xmlns:xlink="http://www.w3.org/1999/xlink" width="85" height="85" viewBox="0 0 85 85">
  <defs>
    <clipPath id="clip-path">
      <path id="path1611" d="M0-682.665H65.606v65.606H0Z" transform="translate(0 682.665)" fill="none"/>
    </clipPath>
  </defs>
  <g id="Grupo_1101640" data-name="Grupo 1101640" transform="translate(-710 -5961)">
    <g id="Grupo_1098883" data-name="Grupo 1098883" transform="translate(-309 -803)">
      <g id="Grupo_1098742" data-name="Grupo 1098742" transform="translate(1019 6764)">
        <rect id="Rect치ngulo_400898" data-name="Rect치ngulo 400898" width="85" height="85" rx="42.5" transform="translate(0 0)" fill="#30169a"/>
        <rect id="Rect치ngulo_400907" data-name="Rect치ngulo 400907" width="85" height="85" rx="42.5" transform="translate(0 0)" fill="none"/>
      </g>
    </g>
    <g id="g1605" transform="translate(720 6653.665)">
      <g id="g1607" transform="translate(0 -682.665)">
        <g id="g1609" clip-path="url(#clip-path)">
          <g id="g1615" transform="translate(3.595 38.829)">
            <path id="path1617" d="M-24.671,16.775a17.415,17.415,0,0,1-17.4-17.4V-3.7a7.15,7.15,0,0,1,3.562-6.17.961.961,0,0,1,1.313.351.961.961,0,0,1-.351,1.313,5.222,5.222,0,0,0-2.6,4.507V-.62A15.491,15.491,0,0,0-24.671,14.853a5.208,5.208,0,0,0,5.2-5.2V.407a5.208,5.208,0,0,0-5.2-5.2h-.066V8.624a.961.961,0,0,1-.961.961.961.961,0,0,1-.961-.961V-5.756a.961.961,0,0,1,.961-.961h1.027A7.132,7.132,0,0,1-17.547.407V9.651A7.132,7.132,0,0,1-24.671,16.775Z" transform="translate(42.067 10.002)" fill="#fff"/>
          </g>
          <g id="g1619" transform="translate(14.894 50.331)">
            <path id="path1621" d="M-9.039-46.721A.958.958,0,0,1-9.718-47a.961.961,0,0,1,0-1.359L-5.61-52.47a.961.961,0,0,1,1.359,0,.961.961,0,0,1,0,1.359L-8.359-47A.958.958,0,0,1-9.039-46.721Z" transform="translate(10 52.752)" fill="#fff"/>
          </g>
          <g id="g1623" transform="translate(6.677 29.788)">
            <path id="path1625" d="M-193.208-91.945a.961.961,0,0,1-.961-.961v-3.081a1.99,1.99,0,0,1,1.988-1.988h2.054l.066-2.12-2.12-.066a4.18,4.18,0,0,0-4.175,4.175v1.027a3.012,3.012,0,0,1-1.063,2.3,3.026,3.026,0,0,1-2.452.677,3.13,3.13,0,0,1-2.516-3.191v-.811a10.217,10.217,0,0,1,10.205-10.205,10.217,10.217,0,0,1,10.205,10.205.961.961,0,0,1-.961.961.961.961,0,0,1-.961-.961,8.293,8.293,0,0,0-8.283-8.283,8.293,8.293,0,0,0-8.283,8.283v.811a1.212,1.212,0,0,0,.9,1.294,1.093,1.093,0,0,0,.9-.244,1.093,1.093,0,0,0,.386-.834v-1.027a6.1,6.1,0,0,1,6.1-6.1h2.054a1.99,1.99,0,0,1,1.988,1.988v2.054a1.99,1.99,0,0,1-1.988,1.988h-2.054l-.066,3.148A.961.961,0,0,1-193.208-91.945Z" transform="translate(202.386 106.193)" fill="#fff"/>
          </g>
          <g id="g1627" transform="translate(38.518 19.516)">
            <path id="path1629" d="M-30.882-65.289a3.516,3.516,0,0,1-2.5-1.037l-1.761-1.761a3.516,3.516,0,0,1-1.037-2.5,3.516,3.516,0,0,1,1.037-2.5,3.516,3.516,0,0,1,2.5-1.037,3.516,3.516,0,0,1,2.5,1.037l1.761,1.761a3.516,3.516,0,0,1,1.037,2.5,3.516,3.516,0,0,1-1.037,2.5A3.516,3.516,0,0,1-30.882-65.289Zm-1.761-6.918a1.607,1.607,0,0,0-1.144.474,1.619,1.619,0,0,0,0,2.288l1.761,1.761a1.607,1.607,0,0,0,1.144.474,1.607,1.607,0,0,0,1.144-.474,1.607,1.607,0,0,0,.474-1.144,1.607,1.607,0,0,0-.474-1.144L-31.5-71.734A1.607,1.607,0,0,0-32.643-72.207Z" transform="translate(36.183 74.129)" fill="#fff"/>
          </g>
          <g id="g1631" transform="translate(10.785 0)">
            <path id="path1633" d="M14.736-236.666a25.784,25.784,0,0,1-5.335-.557.961.961,0,0,1-.741-1.139A.961.961,0,0,1,9.8-239.1a23.858,23.858,0,0,0,4.937.515,23.718,23.718,0,0,0,23.691-23.691,23.718,23.718,0,0,0-23.691-23.691A23.718,23.718,0,0,0-8.955-262.278c0,.658.027,1.323.081,1.975a.961.961,0,0,1-.879,1.037.961.961,0,0,1-1.037-.879c-.058-.7-.088-1.422-.088-2.133a25.642,25.642,0,0,1,25.613-25.613,25.642,25.642,0,0,1,25.613,25.613A25.642,25.642,0,0,1,14.736-236.666Z" transform="translate(10.877 287.891)" fill="#fff"/>
          </g>
          <g id="g1635" transform="translate(14.894 4.109)">
            <path id="path1637" d="M-148.815-387.783a21.575,21.575,0,0,1-5.376-.678.961.961,0,0,1-.691-1.17.961.961,0,0,1,1.17-.691,19.654,19.654,0,0,0,4.9.617,19.6,19.6,0,0,0,19.582-19.582,19.6,19.6,0,0,0-19.582-19.582A19.6,19.6,0,0,0-168.4-409.287q0,.493.024.98a.961.961,0,0,1-.913,1.007.961.961,0,0,1-1.007-.913q-.026-.534-.026-1.074a21.529,21.529,0,0,1,21.5-21.5,21.528,21.528,0,0,1,21.5,21.5A21.528,21.528,0,0,1-148.815-387.783Z" transform="translate(170.32 430.791)" fill="#fff"/>
          </g>
          <g id="g1639" transform="translate(19.002 10.277)">
            <path id="path1641" d="M-300.017-20.545a.961.961,0,0,1-.958-.9q-.034-.539-.034-1.087a17.391,17.391,0,0,1,7.555-14.324,3.905,3.905,0,0,1,2.5-.661,13.049,13.049,0,0,1,4.535,1.324,8.228,8.228,0,0,0,3.4.97,4.836,4.836,0,0,0,3.409-1.322,10.738,10.738,0,0,1,1.137-.8,4.017,4.017,0,0,1,4.149.121,17.526,17.526,0,0,1,2.915,2.314.961.961,0,0,1,.011,1.359.961.961,0,0,1-1.359.011,15.6,15.6,0,0,0-2.594-2.06,2.08,2.08,0,0,0-2.145-.089,9.146,9.146,0,0,0-.935.667,6.73,6.73,0,0,1-4.587,1.726,9.965,9.965,0,0,1-4.181-1.136,11.307,11.307,0,0,0-3.9-1.164,1.977,1.977,0,0,0-1.267.328,15.469,15.469,0,0,0-6.723,12.74q0,.487.03.967a.961.961,0,0,1-.9,1.019Z" transform="translate(301.009 37.869)" fill="#fff"/>
          </g>
          <g id="g1643" transform="translate(29.274 16.323)">
            <path id="path1645" d="M-8.3-188.273a4.621,4.621,0,0,1-.932-.1.961.961,0,0,1-.748-1.135.961.961,0,0,1,1.135-.748c1.2.247,1.87-.3,3.04-1.365a7.4,7.4,0,0,1,4.429-2.331,6.675,6.675,0,0,1,4.363,1.314c1.268.782,1.988,1.165,3.225.619a5.266,5.266,0,0,0,1.2-.9,8.067,8.067,0,0,1,3.157-1.945A2.14,2.14,0,0,0,12.1-196.3a15.294,15.294,0,0,0,.495-3.849,15.425,15.425,0,0,0-2.136-7.84.961.961,0,0,1,.339-1.316.961.961,0,0,1,1.316.339,17.349,17.349,0,0,1,2.4,8.818,17.217,17.217,0,0,1-.557,4.334,4.04,4.04,0,0,1-2.847,2.8,6.287,6.287,0,0,0-2.428,1.539,6.648,6.648,0,0,1-1.7,1.219c-2.219.979-3.7.065-5.009-.742A4.816,4.816,0,0,0-1.2-192.037,5.588,5.588,0,0,0-4.512-190.2,5.585,5.585,0,0,1-8.3-188.273Z" transform="translate(10.002 209.441)" fill="#fff"/>
          </g>
          <g id="g1647" transform="translate(25.165 24.652)">
            <path id="path1649" d="M-25.279-46.721h-3.081a3.019,3.019,0,0,1-3.015-3.015,3.019,3.019,0,0,1,3.015-3.015h3.081a3.019,3.019,0,0,1,3.015,3.015A3.019,3.019,0,0,1-25.279-46.721Zm-3.081-4.109a1.094,1.094,0,0,0-1.093,1.093,1.094,1.094,0,0,0,1.093,1.093h3.081a1.1,1.1,0,0,0,1.093-1.093,1.1,1.1,0,0,0-1.093-1.093Z" transform="translate(31.376 52.752)" fill="#fff"/>
          </g>
          <g id="g1651" transform="translate(29.274 16.435)">
            <path id="path1653" d="M-49.738-31.376a3.019,3.019,0,0,1,3.015,3.015,3.019,3.019,0,0,1-3.015,3.015,3.019,3.019,0,0,1-3.015-3.015A3.019,3.019,0,0,1-49.738-31.376Zm0,4.109a1.1,1.1,0,0,0,1.093-1.093,1.1,1.1,0,0,0-1.093-1.093,1.094,1.094,0,0,0-1.093,1.093A1.094,1.094,0,0,0-49.738-27.267Z" transform="translate(52.753 31.376)" fill="#fff"/>
          </g>
          <g id="g1655" transform="translate(37.491 35.95)">
            <path id="path1657" d="M-8.012-7.051a.958.958,0,0,1-.68-.281L-9.718-8.359a.961.961,0,0,1,0-1.359.961.961,0,0,1,1.359,0l1.027,1.027a.961.961,0,0,1,0,1.359A.958.958,0,0,1-8.012-7.051Z" transform="translate(10 10)" fill="#fff"/>
          </g>
          <g id="g1659" transform="translate(32.361 40.059)">
            <path id="path1661" d="M-8.98-8.078a.965.965,0,0,1-.966-.961A.957.957,0,0,1-8.991-10h.01a.961.961,0,0,1,.961.961A.961.961,0,0,1-8.98-8.078Z" transform="translate(9.947 10)" fill="#fff"/>
          </g>
          <g id="g1663" transform="translate(43.649 38.005)">
            <path id="path1665" d="M-8.98-8.078a.965.965,0,0,1-.966-.961A.957.957,0,0,1-8.991-10h.01a.961.961,0,0,1,.961.961A.961.961,0,0,1-8.98-8.078Z" transform="translate(9.947 10)" fill="#fff"/>
          </g>
          <g id="g1667" transform="translate(37.486 41.086)">
            <path id="path1669" d="M-8.98-8.078a.965.965,0,0,1-.966-.961A.957.957,0,0,1-8.991-10h.01a.961.961,0,0,1,.961.961A.961.961,0,0,1-8.98-8.078Z" transform="translate(9.947 10)" fill="#fff"/>
          </g>
        </g>
      </g>
    </g>
  </g>
</svg>
