<svg xmlns="http://www.w3.org/2000/svg" xmlns:xlink="http://www.w3.org/1999/xlink" width="89" height="89" viewBox="0 0 89 89">
  <defs>
    <clipPath id="clip-path">
      <path id="path1173" d="M0-682.665H70.9v70.9H0Z" transform="translate(0 682.665)" fill="none"/>
    </clipPath>
  </defs>
  <g id="Grupo_1101846" data-name="Grupo 1101846" transform="translate(-283.052 -6694)">
    <rect id="Rectángulo_400898" data-name="Rectángulo 400898" width="89" height="89" rx="44.5" transform="translate(283.052 6694)" fill="#fff"/>
    <g id="g1167" transform="translate(292.052 7385.665)">
      <g id="g1169" transform="translate(0 -682.665)">
        <g id="g1171" clip-path="url(#clip-path)">
          <g id="g1177" transform="translate(0 0)">
            <path id="path1179" d="M-73.185-34.56a35.492,35.492,0,0,1-35.452-35.452A35.2,35.2,0,0,1-98.083-95.249a1.039,1.039,0,0,1,1.469.01,1.039,1.039,0,0,1-.01,1.469,33.137,33.137,0,0,0-9.936,23.759A33.413,33.413,0,0,0-73.185-36.637,33.413,33.413,0,0,0-39.81-70.012a33.413,33.413,0,0,0-33.375-33.375A33.106,33.106,0,0,0-93-96.867a1.039,1.039,0,0,1-1.453-.218,1.039,1.039,0,0,1,.218-1.453,35.169,35.169,0,0,1,21.055-6.926A35.492,35.492,0,0,1-37.733-70.012,35.492,35.492,0,0,1-73.185-34.56Z" transform="translate(108.637 105.464)" fill="#30169a"/>
          </g>
          <g id="g1181" transform="translate(42.708 10.976)">
            <path id="path1183" d="M5.962,24.514A1.039,1.039,0,0,1,4.993,23.1a23.885,23.885,0,0,0,1.42-11.463A23.791,23.791,0,0,0-9.313-7.986a1.039,1.039,0,0,1-.629-1.327,1.039,1.039,0,0,1,1.327-.629A25.857,25.857,0,0,1,8.476,11.386,25.969,25.969,0,0,1,6.931,23.849,1.039,1.039,0,0,1,5.962,24.514Z" transform="translate(10.003 10.003)" fill="#30169a"/>
          </g>
          <g id="g1185" transform="translate(24.519 9.537)">
            <path id="path1187" d="M-8.963-25.423a1.039,1.039,0,0,1-.954-.628,1.039,1.039,0,0,1,.543-1.365,25.916,25.916,0,0,1,7.123-1.921,25.94,25.94,0,0,1,6.91.082,1.039,1.039,0,0,1,.877,1.179,1.039,1.039,0,0,1-1.179.877A23.863,23.863,0,0,0-2-27.275a23.84,23.84,0,0,0-6.553,1.767A1.035,1.035,0,0,1-8.963-25.423Z" transform="translate(10.003 29.529)" fill="#30169a"/>
          </g>
          <g id="g1189" transform="translate(11.754 11.139)">
            <path id="path1191" d="M-307.115-162.062a3.35,3.35,0,0,1-2.246-.86l-.534-.479a9.112,9.112,0,0,1-2.8-8.7,12.811,12.811,0,0,0-6.486-2.643c-5.65-.642-13.556-2.459-19.139-7.471a31.4,31.4,0,0,1-9.431-15.036c-1.3-4.917-.92-9.3,1-11.429s6.228-2.982,11.256-2.216a31.4,31.4,0,0,1,15.961,7.763c3.541,3.18,6.3,7.745,8.209,13.571a1.039,1.039,0,0,1-.664,1.31,1.039,1.039,0,0,1-1.31-.664c-1.791-5.475-4.355-9.738-7.622-12.671-9.567-8.59-21.473-8.836-24.284-5.705s-1.289,14.942,8.278,23.532c5.175,4.646,12.637,6.346,17.986,6.953a14.867,14.867,0,0,1,8.1,3.543,1.039,1.039,0,0,1,.313,1.086,7.023,7.023,0,0,0,2.019,7.237l.534.479a1.292,1.292,0,0,0,1.823-.1,1.3,1.3,0,0,0,.276-.476l1.226-3.817a3.808,3.808,0,0,1,2.113-2.33l3.557-1.54a1.3,1.3,0,0,0,.448-.322,1.282,1.282,0,0,0,.328-.932,1.283,1.283,0,0,0-.427-.891l-.534-.479a6.952,6.952,0,0,0-7.293-1.281,1.039,1.039,0,0,1-1.082-.191,14.948,14.948,0,0,1-4.5-7.487,1.039,1.039,0,0,1,.752-1.262,1.039,1.039,0,0,1,1.262.752,12.894,12.894,0,0,0,3.432,6.03,9.008,9.008,0,0,1,8.822,1.892l.534.479a3.346,3.346,0,0,1,1.113,2.325,3.346,3.346,0,0,1-.857,2.431,3.394,3.394,0,0,1-1.168.841l-3.557,1.54a1.731,1.731,0,0,0-.96,1.059l-1.226,3.817a3.343,3.343,0,0,1-.7,1.221A3.375,3.375,0,0,1-307.115-162.062Z" transform="translate(348.511 211.178)" fill="#30169a"/>
          </g>
          <g id="g1193" transform="translate(19.163 15.488)">
            <path id="path1195" d="M-43.954-39.077a3.249,3.249,0,0,1-2.173-.833A3.233,3.233,0,0,1-47.2-42.157a3.233,3.233,0,0,1,.828-2.349,3.26,3.26,0,0,1,2.422-1.08,3.249,3.249,0,0,1,2.173.833A3.233,3.233,0,0,1-40.7-42.506a3.233,3.233,0,0,1-.828,2.349A3.26,3.26,0,0,1-43.954-39.077Zm0-4.432a1.164,1.164,0,0,0-.877.391,1.17,1.17,0,0,0-.3.85,1.169,1.169,0,0,0,.389.813,1.175,1.175,0,0,0,.786.3,1.164,1.164,0,0,0,.877-.391,1.169,1.169,0,0,0,.3-.85,1.17,1.17,0,0,0-.389-.813A1.175,1.175,0,0,0-43.953-43.509Z" transform="translate(47.208 45.586)" fill="#30169a"/>
          </g>
          <g id="g1197" transform="translate(15.609 13.658)">
            <path id="path1199" d="M-156.823,9.179a1.039,1.039,0,0,1-.969-.665,1.039,1.039,0,0,1,.6-1.343,24.349,24.349,0,0,0,14.727-16.4,1.039,1.039,0,0,1,1.271-.736,1.039,1.039,0,0,1,.736,1.271A26.433,26.433,0,0,1-156.45,9.11,1.036,1.036,0,0,1-156.823,9.179Z" transform="translate(157.862 10.002)" fill="#30169a"/>
          </g>
          <g id="g1201" transform="translate(34.352 13.857)">
            <path id="path1203" d="M1.582-10.033a1.038,1.038,0,0,1-.892-.506,1.039,1.039,0,0,1,.359-1.424l2.8-1.673a2.351,2.351,0,0,0,1.046-1.337,3.107,3.107,0,0,0-1.4-3.593l-6.988-4.1a3.763,3.763,0,0,0-4.691.728,1.039,1.039,0,0,1-1.467.079,1.039,1.039,0,0,1-.079-1.467,5.847,5.847,0,0,1,7.288-1.132l6.988,4.1A5.178,5.178,0,0,1,6.881-14.37a4.424,4.424,0,0,1-1.967,2.516l-2.8,1.673A1.034,1.034,0,0,1,1.582-10.033Z" transform="translate(10 25.26)" fill="#30169a"/>
          </g>
          <g id="g1205" transform="translate(12.476 39.377)">
            <path id="path1207" d="M-42.109-156.848a16.662,16.662,0,0,1-6.828-1.47,1.039,1.039,0,0,1-.519-1.374,1.039,1.039,0,0,1,1.374-.519,14.561,14.561,0,0,0,6.491,1.277,14.642,14.642,0,0,0,10.9-5.514L-55.836-178.23a14.533,14.533,0,0,0,3.917,15.491,1.039,1.039,0,0,1,.064,1.467,1.039,1.039,0,0,1-1.467.064,16.609,16.609,0,0,1-4-18.917,1.039,1.039,0,0,1,.617-.566,1.039,1.039,0,0,1,.834.072L-28.656-165.7a1.039,1.039,0,0,1,.51.665,1.039,1.039,0,0,1-.147.825,16.716,16.716,0,0,1-13.222,7.353Q-41.812-156.848-42.109-156.848Z" transform="translate(58.719 180.746)" fill="#30169a"/>
          </g>
          <g id="g1209" transform="translate(16.626 41.384)">
            <path id="path1211" d="M-111.536-143a12.487,12.487,0,0,1-5.983-1.536,12.383,12.383,0,0,1-5.974-7.437,12.318,12.318,0,0,1,.388-8.117,1.039,1.039,0,0,1,.614-.591,1.039,1.039,0,0,1,.849.067l19.89,10.9a1.039,1.039,0,0,1,.514.682,1.039,1.039,0,0,1-.17.836,12.581,12.581,0,0,1-9.676,5.186Q-111.31-143-111.536-143Zm-10.019-15.2a10.267,10.267,0,0,0,.056,5.642,10.319,10.319,0,0,0,4.978,6.2,10.4,10.4,0,0,0,5.361,1.273,10.5,10.5,0,0,0,7.319-3.4Z" transform="translate(124.001 160.741)" fill="#30169a"/>
          </g>
          <g id="g1213" transform="translate(18.939 46.909)">
            <path id="path1215" d="M-8.961-54.114a1.038,1.038,0,0,1-.878-.482,1.039,1.039,0,0,1,.32-1.434l8.427-5.354a1.039,1.039,0,0,1,1.434.32,1.039,1.039,0,0,1-.32,1.434l-8.427,5.354A1.034,1.034,0,0,1-8.961-54.114Z" transform="translate(10.001 61.545)" fill="#30169a"/>
          </g>
          <g id="g1217" transform="translate(27.367 46.909)">
            <path id="path1219" d="M-11.128-94.444a1.039,1.039,0,0,1-1.038-1.013l-.251-10.028a1.039,1.039,0,0,1,1.012-1.064,1.039,1.039,0,0,1,1.064,1.012l.251,10.028A1.039,1.039,0,0,1-11.1-94.444Z" transform="translate(12.417 106.549)" fill="#30169a"/>
          </g>
          <g id="g1221" transform="translate(35.34 55.073)">
            <path id="path1223" d="M-134.637-3.621a1.039,1.039,0,0,1-1.037-1,1.039,1.039,0,0,1,1-1.079c.652-.026,1.312-.079,1.962-.158A23.58,23.58,0,0,0-122.168-9.82a1.039,1.039,0,0,1,1.443.272A1.039,1.039,0,0,1-121-8.1a25.993,25.993,0,0,1-11.466,4.311c-.706.086-1.424.144-2.131.172Z" transform="translate(135.674 10.001)" fill="#30169a"/>
          </g>
          <g id="g1225" transform="translate(9.443 22.937)">
            <path id="path1227" d="M-35.377-210.644a1.038,1.038,0,0,1-.911-.539,25.776,25.776,0,0,1-3-9.326,25.792,25.792,0,0,1,2.763-15.151,1.039,1.039,0,0,1,1.4-.438,1.039,1.039,0,0,1,.438,1.4,23.724,23.724,0,0,0-2.541,13.936,23.708,23.708,0,0,0,2.756,8.578,1.039,1.039,0,0,1-.411,1.41A1.034,1.034,0,0,1-35.377-210.644Z" transform="translate(39.478 236.217)" fill="#30169a"/>
          </g>
        </g>
      </g>
    </g>
  </g>
</svg>
