<svg xmlns="http://www.w3.org/2000/svg" width="89.267" height="89.209" viewBox="0 0 89.267 89.209">
  <g id="Grupo_1102084" data-name="Grupo 1102084" transform="translate(-913.052 -6693.791)">
    <rect id="Rect치ngulo_400898" data-name="Rect치ngulo 400898" width="89" height="89" rx="44.5" transform="translate(913.319 6693.791)" fill="#fff"/>
    <g id="Grupo_1101851" data-name="Grupo 1101851">
      <rect id="Rect치ngulo_400907" data-name="Rect치ngulo 400907" width="89" height="89" rx="44.5" transform="translate(913.052 6694)" fill="none"/>
      <g id="ensalada-de-frutas" transform="translate(920.052 6669.375)">
        <g id="Grupo_1101848" data-name="Grupo 1101848" transform="translate(0 36.625)">
          <g id="Grupo_1101847" data-name="Grupo 1101847" transform="translate(0 0)">
            <path id="Trazado_878243" data-name="Trazado 878243" d="M70.4,55.459,69.033,49.8a1.253,1.253,0,0,0-2.248-.419l-2.084,3c-.257-.108-.516-.21-.775-.312a12.34,12.34,0,0,0-15.845-4.734A12.632,12.632,0,0,0,47,43.957l-1.539-3.181a1.253,1.253,0,0,0-1.674-.583L40.6,41.732l-.072.037A12.81,12.81,0,0,0,36.82,38.55l-3.066-1.758a1.253,1.253,0,0,0-1.71.463l-1.76,3.067a12.665,12.665,0,0,0-1.491,4.116,9.741,9.741,0,0,0-5.536,3.967,12.38,12.38,0,0,0-9.818-.864,1.253,1.253,0,1,0,.795,2.377,9.851,9.851,0,0,1,12.6,6.7,4.835,4.835,0,0,0-1.673,1.949,6.61,6.61,0,0,0-6.313,1.854A1.253,1.253,0,1,0,20.624,62.2a4.223,4.223,0,0,1,4.1-1.159,4.838,4.838,0,0,0,.534,1.852c-2.863.706-4.764,2.276-4.765,4.19v1.49a9.715,9.715,0,0,1-2.52.493,6.444,6.444,0,0,0-8.727-4.256A9.832,9.832,0,0,1,11.1,51.659a1.253,1.253,0,0,0-1.6-1.933A12.337,12.337,0,0,0,7.164,66.209a6.424,6.424,0,0,0-1.6,2.674c-1.626-1.369-3.06-3.172-3.06-5.278a5.8,5.8,0,0,1,1.377-3.562A1.253,1.253,0,0,0,1.906,58.5,8.235,8.235,0,0,0,0,63.6s0,0,0,.006A37.793,37.793,0,0,0,64.888,89.953a1.253,1.253,0,0,0-1.8-1.748,35.288,35.288,0,0,1-60-18.184,18.455,18.455,0,0,0,2.779,2.2,35.726,35.726,0,0,0,8.57,3.914,61.315,61.315,0,0,0,7.06,1.8,83.94,83.94,0,0,0,14.249,1.48c.649.014,1.336.022,2.043.022,1.079,0,2.164-.019,3.224-.056h.014c.854-.03,1.638-.068,2.393-.115,1.422-.086,2.867-.209,4.293-.366,2.531-.28,4.986-.667,7.3-1.152,7.212-1.511,12.921-3.881,16.512-6.853.349-.289.675-.584.98-.882A34.85,34.85,0,0,1,65.3,85.715a1.253,1.253,0,1,0,1.952,1.572A37.888,37.888,0,0,0,75.586,63.65c0-.015,0-.03,0-.045C75.587,60.68,73.8,57.871,70.4,55.459ZM14.548,73.53a33.523,33.523,0,0,1-6.743-3.052,3.947,3.947,0,0,1,7.871-.045c.008.1.012.205.012.322A3.907,3.907,0,0,1,14.548,73.53Zm5.941,1.631h0q-1.743-.382-3.373-.84a6.494,6.494,0,0,0,1.026-2.757,12.223,12.223,0,0,0,2.347-.375ZM48.246,50.1a9.764,9.764,0,0,1,5.138-1.45,9.869,9.869,0,0,1,9.3,6.638l-.9,1.3L59.624,53.85a1.249,1.249,0,0,0-2.047.12l0,0L50.122,66.047a4.83,4.83,0,0,0-2.572-.914,4.874,4.874,0,0,0,.057-1.576,1.253,1.253,0,1,0-2.486.316A2.339,2.339,0,1,1,43.681,62a1.253,1.253,0,0,0,.942-2.323,4.879,4.879,0,0,0-1.032-.291A12.826,12.826,0,0,0,48.246,50.1ZM41.7,43.989l2.055-.994.993,2.053a10.3,10.3,0,0,1-2.531,12.225,4.838,4.838,0,0,0-1.068-1.611l-.054-.051A9.824,9.824,0,0,0,38.165,46.8,10.238,10.238,0,0,1,41.7,43.989Zm-1.638,15.1a2.338,2.338,0,1,1-.685-1.654A2.324,2.324,0,0,1,40.058,59.089Zm-7.6-17.52,1.136-1.98,1.979,1.135A10.147,10.147,0,0,1,38.389,43.1a12.691,12.691,0,0,0-2.245,2.217,9.773,9.773,0,0,0-4.716-1.223A10.217,10.217,0,0,1,32.457,41.569ZM25.326,49.82a7.332,7.332,0,0,1,13.4,4.111c0,.14-.005.28-.013.419a4.837,4.837,0,0,0-5.547,3.075c-.063-.071-.129-.142-.2-.21a4.853,4.853,0,0,0-3.763-1.406A12.288,12.288,0,0,0,25.326,49.82ZM31.2,62.3a2.376,2.376,0,0,1-.4.322,15.748,15.748,0,0,0-2.035-.13c-.213,0-.423.005-.631.013a2.308,2.308,0,0,1-.238-.205,2.343,2.343,0,0,1,0-3.309,2.284,2.284,0,0,1,.824-.532A2.339,2.339,0,0,1,31.2,62.3Zm1.868,7.546a1.253,1.253,0,0,0,1.457.575v6.449A81.366,81.366,0,0,1,23,75.658V70.437a12.54,12.54,0,0,0,5.765,1.242,15.572,15.572,0,0,0,2.259-.162,1.253,1.253,0,0,0-.365-2.48,13.028,13.028,0,0,1-1.894.135C25.184,69.172,23,67.82,23,67.083s2.189-2.089,5.765-2.089,5.765,1.352,5.765,2.089c0,.293-.389.7-.991,1.049A1.253,1.253,0,0,0,33.068,69.843Zm3.835-3.6a4.882,4.882,0,0,0-2.91-2.772,2.334,2.334,0,0,1,2.91,2.772Zm2.451,10.67c-.519.009-1.041.014-1.561.014-.257,0-.511,0-.762,0v-2.08a4.8,4.8,0,0,0,2.379.794A4.82,4.82,0,0,0,39.355,76.914Zm.352-3.772a2.34,2.34,0,1,1,1.654-.685A2.323,2.323,0,0,1,39.707,73.143Zm3.565,3.619c-.454.028-.92.052-1.4.074a2.34,2.34,0,1,1,4.654-.334C45.439,76.608,44.35,76.7,43.272,76.761Zm4-4.454a2.34,2.34,0,1,1,1.654-.685A2.323,2.323,0,0,1,47.274,72.307Zm6.4,3.153c-1.5.3-3.061.547-4.659.756a4.909,4.909,0,0,0-.368-1.6,4.853,4.853,0,0,0,3.122-6.465l4.492-7.28Zm17.2-7.364-3.03-3.836a1.253,1.253,0,0,0-1.967,1.554l3.075,3.892a37.558,37.558,0,0,1-12.635,5.177l3.066-17.289,4.329,5.479a1.253,1.253,0,1,0,1.967-1.554l-2.274-2.878,2.733-3.94c.012-.015.024-.031.035-.047L67.254,53.1l3.628,14.991Zm1.9-2.822-1.345-5.558a6.063,6.063,0,0,1,1.647,3.89A4.9,4.9,0,0,1,72.779,65.273Z" transform="translate(0 -36.625)" fill="#30169a"/>
          </g>
        </g>
        <g id="Grupo_1101850" data-name="Grupo 1101850" transform="translate(52.238 49.372)">
          <g id="Grupo_1101849" data-name="Grupo 1101849">
            <path id="Trazado_878244" data-name="Trazado 878244" d="M354.423,123.153a1.253,1.253,0,1,0,1.914,1.211A1.263,1.263,0,0,0,354.423,123.153Z" transform="translate(-353.841 -122.964)" fill="#30169a"/>
          </g>
        </g>
      </g>
    </g>
  </g>
</svg>
