<svg xmlns="http://www.w3.org/2000/svg" width="89.598" height="97.209" viewBox="0 0 89.598 97.209">
  <g id="Grupo_1102085" data-name="Grupo 1102085" transform="translate(-598.052 -7013.791)">
    <rect id="Rect치ngulo_400907" data-name="Rect치ngulo 400907" width="89" height="89" rx="44.5" transform="translate(598.65 7013.791)" fill="none"/>
    <g id="Grupo_1101874" data-name="Grupo 1101874">
      <rect id="Rect치ngulo_400898" data-name="Rect치ngulo 400898" width="89" height="89" rx="44.5" transform="translate(598.052 7022)" fill="#fff"/>
      <g id="sal" transform="translate(612.052 7023.482)">
        <g id="Grupo_1101855" data-name="Grupo 1101855" transform="translate(0 14.517)">
          <g id="Grupo_1101854" data-name="Grupo 1101854" transform="translate(0 0)">
            <path id="Trazado_878251" data-name="Trazado 878251" d="M57.764,25.624a11.511,11.511,0,0,0-3.4-7.689,11.666,11.666,0,0,0-15.116-1.181,4.571,4.571,0,0,0-6.075,5.859L3.237,38.95A6.221,6.221,0,0,0,.019,44.891L.754,54.23a10.31,10.31,0,0,0,.8,3.251c.005.013.011.026.017.039a10.317,10.317,0,0,0,2.17,3.2l7.836,7.836a10.317,10.317,0,0,0,3.2,2.17l.037.016a10.309,10.309,0,0,0,3.251.8s9.664.753,9.825.753a6.222,6.222,0,0,0,5.454-3.237L49.683,39.126a4.583,4.583,0,0,0,1.673.314,4.571,4.571,0,0,0,4.186-6.39A11.727,11.727,0,0,0,57.764,25.624Zm-6.258-7.708a9.859,9.859,0,0,1,2.871,2.875,2.165,2.165,0,0,1-2.871-2.875Zm-4.982-1.6a2.157,2.157,0,0,1-.469.7,2.432,2.432,0,0,1-3.206-.154A9.821,9.821,0,0,1,46.525,16.311ZM2.543,54.089,1.808,44.75A4.425,4.425,0,0,1,4.1,40.525l30.049-16.4,0,0-3.338,3.338a.9.9,0,0,0,0,1.269.911.911,0,0,0,1.269,0L35.416,25.4,46.9,36.879l-7.593,7.593a6.116,6.116,0,0,0-2.871-2.98.258.258,0,0,1-.132-.243,5.223,5.223,0,0,0-5.225-5.256h-.007a.273.273,0,0,1-.255-.153,5.4,5.4,0,0,0-1.163-1.585,6.562,6.562,0,0,0-1.865-1.23L29.615,31.2a.9.9,0,0,0-1.269-1.269l-2.6,2.6a6.709,6.709,0,0,0-3.617.774L5.2,42.546A2.119,2.119,0,0,0,4.1,44.57l.7,8.9L2.775,55.5A8.5,8.5,0,0,1,2.543,54.089Zm34.346-5.932a.9.9,0,0,0-1.269,0L18.154,65.623a4.43,4.43,0,0,1-2.409-1.237L7.909,56.55a4.43,4.43,0,0,1-1.237-2.409L26.38,34.433a4.617,4.617,0,0,1,2.053,1.138,3.61,3.61,0,0,1,.774,1.062,2.063,2.063,0,0,0,1.864,1.155h.007a3.428,3.428,0,0,1,3.43,3.451A2.041,2.041,0,0,0,35.639,43.1a3.987,3.987,0,0,1,1.144.821c2.107,2.234.552,5.53.541,5.551l-9.15,16.764a.324.324,0,0,1-.308.167l-7.375-.58,16.4-16.4A.9.9,0,0,0,36.889,48.157ZM6.472,51.8l-.58-7.375a.322.322,0,0,1,.167-.308l16.933-9.243.014-.008a4.324,4.324,0,0,1,.693-.294Zm8.482,17.02a8.52,8.52,0,0,1-2.106-1.54L5.012,59.447a8.519,8.519,0,0,1-1.54-2.106L5.214,55.6a6.221,6.221,0,0,0,1.426,2.22l7.836,7.836a6.221,6.221,0,0,0,2.22,1.426ZM31.77,68.2a4.426,4.426,0,0,1-4.225,2.288l-9.339-.734A8.5,8.5,0,0,1,16.8,69.52l2.028-2.028s9.013.707,9.068.707a2.12,2.12,0,0,0,1.858-1.1h0l9.134-16.735a8.1,8.1,0,0,0,.947-3.877l8.338-8.338,0,0ZM53.318,36.838a2.784,2.784,0,0,1-3.922,0h0L35.457,22.9a2.773,2.773,0,0,1,3.922-3.922L53.318,32.916a2.784,2.784,0,0,1,0,3.922Zm1.621-10.155a.917.917,0,0,0-.324-1.227.9.9,0,0,0-1.227.324A3.949,3.949,0,0,0,54.67,31.1q-.114.2-.238.391L40.8,17.862q.194-.124.391-.239a3.96,3.96,0,0,0,7.144-1.066,9.84,9.84,0,0,1,1.582.513,3.958,3.958,0,0,0,5.3,5.31,9.863,9.863,0,0,1,.21,7.061A2.212,2.212,0,0,1,54.939,26.683Z" transform="translate(0 -14.517)" fill="#30169a"/>
          </g>
        </g>
        <g id="Grupo_1101857" data-name="Grupo 1101857" transform="translate(54.68 43.884)">
          <g id="Grupo_1101856" data-name="Grupo 1101856" transform="translate(0 0)">
            <path id="Trazado_878252" data-name="Trazado 878252" d="M460.352,259.989a3.286,3.286,0,1,0,3.286,3.286A3.29,3.29,0,0,0,460.352,259.989Zm0,4.777a1.491,1.491,0,1,1,1.491-1.491A1.493,1.493,0,0,1,460.352,264.766Z" transform="translate(-457.066 -259.989)" fill="#30169a"/>
          </g>
        </g>
        <g id="Grupo_1101859" data-name="Grupo 1101859" transform="translate(49.708 53.369)">
          <g id="Grupo_1101858" data-name="Grupo 1101858">
            <path id="Trazado_878253" data-name="Trazado 878253" d="M418.789,339.28a3.289,3.289,0,0,0-3.286,3.286.9.9,0,1,0,1.794,0,1.489,1.489,0,1,1,.974,1.4.9.9,0,0,0-.623,1.683,3.286,3.286,0,1,0,1.14-6.368Z" transform="translate(-415.503 -339.28)" fill="#30169a"/>
          </g>
        </g>
        <g id="Grupo_1101861" data-name="Grupo 1101861" transform="translate(54.68 61.868)">
          <g id="Grupo_1101860" data-name="Grupo 1101860">
            <path id="Trazado_878254" data-name="Trazado 878254" d="M460.352,410.32a3.286,3.286,0,1,0,3.286,3.286A3.29,3.29,0,0,0,460.352,410.32Zm0,4.777a1.491,1.491,0,1,1,1.491-1.491A1.493,1.493,0,0,1,460.352,415.1Z" transform="translate(-457.066 -410.32)" fill="#30169a"/>
          </g>
        </g>
        <g id="Grupo_1101863" data-name="Grupo 1101863" transform="translate(20.185 49.116)">
          <g id="Grupo_1101862" data-name="Grupo 1101862">
            <circle id="Elipse_11512" data-name="Elipse 11512" cx="0.897" cy="0.897" r="0.897" fill="#30169a"/>
          </g>
        </g>
        <g id="Grupo_1101865" data-name="Grupo 1101865" transform="translate(25.042 50.356)">
          <g id="Grupo_1101864" data-name="Grupo 1101864">
            <circle id="Elipse_11513" data-name="Elipse 11513" cx="0.897" cy="0.897" r="0.897" fill="#30169a"/>
          </g>
        </g>
        <g id="Grupo_1101867" data-name="Grupo 1101867" transform="translate(25.601 44.437)">
          <g id="Grupo_1101866" data-name="Grupo 1101866" transform="translate(0 0)">
            <circle id="Elipse_11514" data-name="Elipse 11514" cx="0.897" cy="0.897" r="0.897" fill="#30169a"/>
          </g>
        </g>
        <g id="Grupo_1101869" data-name="Grupo 1101869" transform="translate(30.309 45.335)">
          <g id="Grupo_1101868" data-name="Grupo 1101868">
            <circle id="Elipse_11515" data-name="Elipse 11515" cx="0.897" cy="0.897" r="0.897" fill="#30169a"/>
          </g>
        </g>
        <g id="Grupo_1101871" data-name="Grupo 1101871" transform="translate(28.63 40.752)">
          <g id="Grupo_1101870" data-name="Grupo 1101870">
            <circle id="Elipse_11516" data-name="Elipse 11516" cx="0.897" cy="0.897" r="0.897" fill="#30169a"/>
          </g>
        </g>
        <g id="Grupo_1101873" data-name="Grupo 1101873" transform="translate(20.516 54.266)">
          <g id="Grupo_1101872" data-name="Grupo 1101872">
            <circle id="Elipse_11517" data-name="Elipse 11517" cx="0.897" cy="0.897" r="0.897" fill="#30169a"/>
          </g>
        </g>
      </g>
    </g>
  </g>
</svg>
