<svg xmlns="http://www.w3.org/2000/svg" width="93.402" height="89.209" viewBox="0 0 93.402 89.209">
  <g id="Grupo_1102086" data-name="Grupo 1102086" transform="translate(-913.65 -7013.791)">
    <rect id="Rect치ngulo_400907" data-name="Rect치ngulo 400907" width="89" height="89" rx="44.5" transform="translate(913.65 7013.791)" fill="none"/>
    <g id="Grupo_1101852" data-name="Grupo 1101852" transform="translate(635 320)">
      <rect id="Rect치ngulo_400898" data-name="Rect치ngulo 400898" width="89" height="89" rx="44.5" transform="translate(283.052 6694)" fill="#fff"/>
      <g id="churrasco" transform="translate(293.188 6704.137)">
        <path id="Trazado_878229" data-name="Trazado 878229" d="M59.427,10.2A34.819,34.819,0,0,0,.717,27.749a1.02,1.02,0,0,0,2,.412,32.8,32.8,0,1,1-.675,6.65c0-.691.022-1.389.065-2.075a1.02,1.02,0,0,0-2.036-.127C.023,33.337,0,34.078,0,34.812A34.812,34.812,0,0,0,59.427,59.427a34.812,34.812,0,0,0,0-49.231Z" fill="#30169a"/>
        <path id="Trazado_878230" data-name="Trazado 878230" d="M50.848,97.656a18.557,18.557,0,0,0,4.672,5.206,6.471,6.471,0,0,1,.844,3.492,6.467,6.467,0,0,0,4.935,6.563,10.328,10.328,0,0,1,4.046,2.1,7.536,7.536,0,0,0,4.768,1.7,7.632,7.632,0,0,0,1.412-.135,5.07,5.07,0,0,0,2.91.915,5.137,5.137,0,0,0,4.72-3.175,13.533,13.533,0,0,0,4.52.781,14.81,14.81,0,0,0,6.354-1.487,1.02,1.02,0,0,0-.873-1.844,12.4,12.4,0,0,1-10.018.378,117.256,117.256,0,0,1-16.277-7.066c-5.095-2.61-8.54-5.45-10.241-8.441a9.343,9.343,0,0,1-.15-9.126,19.105,19.105,0,0,1,9.27-8.846c4.1-1.9,8.3-2.27,11.526-1,3.8,1.49,5.391,3.886,7.081,6.421,1.655,2.483,3.366,5.051,7.131,6.544C97.793,94.73,97.936,99.37,97.146,102.5a13.987,13.987,0,0,1-4.3,6.811,1.02,1.02,0,1,0,1.362,1.518,16.593,16.593,0,0,0,4.439-6.316,15.392,15.392,0,0,0,5.221-4.814,9.115,9.115,0,0,0,.7-9.34,7.47,7.47,0,0,0,1.222-4.034,7.59,7.59,0,0,0-1.053-3.938,6.442,6.442,0,0,1-.743-4.694,6.467,6.467,0,0,0-3.72-7.32,10.328,10.328,0,0,1-3.62-2.771,7.584,7.584,0,0,0-8.164-2.222,14.856,14.856,0,0,0-6.256-2.664,1.02,1.02,0,1,0-.379,2,12.505,12.505,0,0,1,5.809,2.611c3.1,2.645,3.833,5.429,4.605,8.377.756,2.887,1.538,5.872,4.612,8.51,8.421,7.226,7.045,11.66,5.278,14.366a12.522,12.522,0,0,1-2.759,2.966,8.828,8.828,0,0,0-1.931-6.784l.567-.327a3.06,3.06,0,0,0-3.06-5.3l-2.633,1.52a33.961,33.961,0,0,0-3.566-1.7l1.962-1.133a3.06,3.06,0,1,0-3.06-5.3l-4.231,2.443c-.49-.645-.942-1.321-1.4-2.01q-.233-.35-.474-.708l6.043-3.522a3.06,3.06,0,1,0-3.063-5.3l-7.174,4.181a14.543,14.543,0,0,0-3.269-1.8l3.058-1.766a3.06,3.06,0,1,0-3.06-5.3l-8.244,4.759A3.077,3.077,0,0,0,64.4,75.54a21.423,21.423,0,0,0-2.612.89,9.585,9.585,0,0,1,3.006-6.553,19.4,19.4,0,0,1,12.58-5.421,1.02,1.02,0,1,0-.117-2.036,21.483,21.483,0,0,0-13.926,6.037c-.1.1-.2.205-.291.309a9.864,9.864,0,0,0-11.923,9.641,9.792,9.792,0,0,0,1.418,5.1,18.036,18.036,0,0,0-1.907,3.153,11.4,11.4,0,0,0,.224,11Zm23.587,17.806a3.057,3.057,0,0,1-2.9-4.033c2.111.886,3.917,1.56,5.7,2.207A3.082,3.082,0,0,1,74.434,115.462Zm-4.777-4.843a5.085,5.085,0,0,0,.213,4.054,5.513,5.513,0,0,1-3.24-1.239,12.344,12.344,0,0,0-4.85-2.5,4.427,4.427,0,0,1-3.379-4.492,8.558,8.558,0,0,0-.08-1.594q1.657,1.054,3.61,2.055c3.068,1.572,5.565,2.759,7.726,3.715ZM95.862,79.8a18.948,18.948,0,0,1-1.575-4.42,2.408,2.408,0,0,1,.409-.035A2.38,2.38,0,0,1,95.862,79.8Zm2.344,2.872a10.644,10.644,0,0,1-1.183-1.186,4.419,4.419,0,0,0-3.272-8.077,15.244,15.244,0,0,0-3.436-6.353c.1-.011.208-.021.313-.026a5.513,5.513,0,0,1,4.482,1.909,12.345,12.345,0,0,0,4.342,3.3A4.427,4.427,0,0,1,102,77.256a8.474,8.474,0,0,0,.979,6.175,5.551,5.551,0,0,1,.769,2.88,5.436,5.436,0,0,1-.376,1.942,28.517,28.517,0,0,0-5.165-5.578Zm-2.214,8.235a1.02,1.02,0,1,1,1.02,1.766l-.984.568a17.066,17.066,0,0,0-1.722-1.361ZM88.7,84.3a1.02,1.02,0,0,1,1.02,1.766L86.542,87.9a10.148,10.148,0,0,1-1.728-1.357Zm-3.121-9.1a1.02,1.02,0,1,1,1.016,1.769l-6.216,3.623a17.237,17.237,0,0,0-1.367-1.564ZM75.126,70.516a1.02,1.02,0,1,1,1.02,1.767l-4.816,2.78a15.558,15.558,0,0,0-3.94-.08ZM53.153,78.407a7.828,7.828,0,0,1,7.819-7.819c.207,0,.413.009.618.025a10.924,10.924,0,0,0-1.825,6.771,22.433,22.433,0,0,0-5.826,4.443,7.776,7.776,0,0,1-.786-3.419Z" transform="translate(-42.615 -53.93)" fill="#30169a"/>
        <path id="Trazado_878231" data-name="Trazado 878231" d="M142.219,225.695a1.02,1.02,0,0,0-1.438.106l-6.61,7.666a1.02,1.02,0,1,1-1.537-1.341l11.223-13.018a1.02,1.02,0,1,1,1.537,1.341l-1.5,1.745a1.02,1.02,0,0,0,1.545,1.332l1.5-1.742a3.06,3.06,0,1,0-4.621-4.011l-11.223,13.018a3.039,3.039,0,0,0-.743,2.221,2.917,2.917,0,0,0,1.045,2.1,3.162,3.162,0,0,0,4.319-.3l6.612-7.669a1.02,1.02,0,0,0-.106-1.439Z" transform="translate(-112.618 -187.248)" fill="#30169a"/>
        <path id="Trazado_878232" data-name="Trazado 878232" d="M231.407,281.943a3.085,3.085,0,0,0,4.316-.3l3.54-4.072a3.06,3.06,0,0,0-4.618-4.015l-3.54,4.072A3.063,3.063,0,0,0,231.407,281.943Zm1.237-2.978,3.54-4.071a1.02,1.02,0,0,1,1.54,1.338l-3.54,4.072a1.02,1.02,0,0,1-1.54-1.338Z" transform="translate(-199.032 -235.448)" fill="#30169a"/>
        <path id="Trazado_878233" data-name="Trazado 878233" d="M101.984,201.279a3.063,3.063,0,0,0-4.316.3l-6.245,7.184a3.06,3.06,0,0,0,4.618,4.014l6.245-7.184A3.063,3.063,0,0,0,101.984,201.279Zm-1.238,2.978L94.5,211.441a1.02,1.02,0,0,1-1.539-1.338l6.245-7.184a1.02,1.02,0,1,1,1.539,1.338Z" transform="translate(-78.342 -173.261)" fill="#30169a"/>
        <path id="Trazado_878234" data-name="Trazado 878234" d="M278.039,303.853a3.06,3.06,0,0,0-5.361-1.794l-8.029,9.236a3.039,3.039,0,0,0-.743,2.221,2.934,2.934,0,0,0,1.045,2.1,3.15,3.15,0,0,0,4.316-.3l8.029-9.236A3.04,3.04,0,0,0,278.039,303.853Zm-2.283.883-8.029,9.236a1.02,1.02,0,1,1-1.539-1.338l8.029-9.236a1.02,1.02,0,1,1,1.539,1.338Z" transform="translate(-228.012 -260.077)" fill="#30169a"/>
        <path id="Trazado_878235" data-name="Trazado 878235" d="M197.062,188.274a1.02,1.02,0,0,0-1.02-1.02h0a1.02,1.02,0,1,0,1.021,1.02Z" transform="translate(-168.502 -161.791)" fill="#30169a"/>
        <path id="Trazado_878236" data-name="Trazado 878236" d="M348.041,377.254a1.02,1.02,0,1,0,1.021,1.02,1.019,1.019,0,0,0-1.021-1.02Z" transform="translate(-299.833 -325.954)" fill="#30169a"/>
        <path id="Trazado_878237" data-name="Trazado 878237" d="M368.043,356.294a1.02,1.02,0,0,0,0-2.04h0a1.02,1.02,0,0,0,0,2.04Z" transform="translate(-317.113 -306.082)" fill="#30169a"/>
        <path id="Trazado_878238" data-name="Trazado 878238" d="M309.043,111.294a1.02,1.02,0,0,0,0-2.04h0a1.02,1.02,0,1,0,0,2.04Z" transform="translate(-266.136 -94.397)" fill="#30169a"/>
        <path id="Trazado_878239" data-name="Trazado 878239" d="M281.062,101.274a1.02,1.02,0,0,0-1.02-1.02h0a1.02,1.02,0,1,0,1.021,1.02Z" transform="translate(-241.08 -86.621)" fill="#30169a"/>
        <path id="Trazado_878240" data-name="Trazado 878240" d="M219.842,362.233a1.02,1.02,0,0,0,0-2.04h0a1.02,1.02,0,0,0,0,2.04Z" transform="translate(-189.065 -311.213)" fill="#30169a"/>
        <path id="Trazado_878241" data-name="Trazado 878241" d="M201.85,337.275a1.02,1.02,0,1,0,1.021,1.02,1.019,1.019,0,0,0-1.021-1.02Z" transform="translate(-173.521 -291.411)" fill="#30169a"/>
        <path id="Trazado_878242" data-name="Trazado 878242" d="M185.842,361.337a1.02,1.02,0,1,0,1.021,1.02,1.019,1.019,0,0,0-1.021-1.02Z" transform="translate(-159.69 -312.201)" fill="#30169a"/>
      </g>
    </g>
  </g>
</svg>
