<svg xmlns="http://www.w3.org/2000/svg" width="66" height="66" viewBox="0 0 66 66">
  <g id="Grupo_1101742" data-name="Grupo 1101742" transform="translate(-636.052 -1313)">
    <rect id="Rectángulo_403122" data-name="Rectángulo 403122" width="66" height="66" rx="33" transform="translate(636.052 1313)" fill="#30169a"/>
    <path id="selenio" d="M28.579,22.26a3.33,3.33,0,0,0,4.648,4.648L36.02,29.7a.54.54,0,0,0,.764,0l8.253-8.253A7.106,7.106,0,0,0,34.988,11.4l-3.466,3.466A2.314,2.314,0,0,0,28.386,18l-1.651,1.651a.54.54,0,0,0,0,.764Zm2.706,4.194A2.252,2.252,0,1,1,33.538,24.2,2.255,2.255,0,0,1,31.285,26.455Zm-.863-10.787A1.234,1.234,0,1,1,29.189,16.9,1.235,1.235,0,0,1,30.422,15.668ZM29.11,18.806a2.313,2.313,0,0,0,3.218-3.218l3.425-3.425a6.025,6.025,0,0,1,8.521,8.521L36.4,28.555l-2.411-2.411A3.33,3.33,0,0,0,29.343,21.5l-1.462-1.462Zm-18.4,2.744a2.327,2.327,0,0,0,.6.08,2.314,2.314,0,0,0,2.214-1.658,3.916,3.916,0,0,0,4.544.009,2.315,2.315,0,1,0,1.65-2.889c.008-.105.014-.212.014-.319a3.934,3.934,0,0,0-2.265-3.558,2.315,2.315,0,1,0-3.331,0,3.934,3.934,0,0,0-2.265,3.558c0,.1.005.2.013.3a2.314,2.314,0,0,0-1.178,4.476Zm9.585-3.45a1.237,1.237,0,1,1-.321.043A1.24,1.24,0,0,1,20.293,18.1ZM14.57,11.61A1.234,1.234,0,1,1,15.8,12.843,1.235,1.235,0,0,1,14.57,11.61ZM15.8,13.924a2.849,2.849,0,1,1-2.849,2.849A2.852,2.852,0,0,1,15.8,13.924ZM10.116,19a1.233,1.233,0,1,1,.123.936A1.226,1.226,0,0,1,10.116,19ZM47.057,40.656a2.311,2.311,0,0,0-2.792-1.646c.01-.112.016-.226.016-.341a3.934,3.934,0,0,0-2.268-3.56,2.315,2.315,0,1,0-3.324,0,3.934,3.934,0,0,0-2.268,3.56c0,.109.006.217.014.324a2.315,2.315,0,1,0,1.65,2.884,3.917,3.917,0,0,0,4.511.014,2.314,2.314,0,0,0,4.461-1.236Zm-6.706-8.389A1.234,1.234,0,1,1,39.117,33.5,1.235,1.235,0,0,1,40.351,32.268ZM36.48,42.3a1.234,1.234,0,1,1,.451-1.685A1.235,1.235,0,0,1,36.48,42.3Zm3.871-.786A2.849,2.849,0,1,1,43.2,38.67,2.852,2.852,0,0,1,40.351,41.518Zm5.538.354a1.234,1.234,0,1,1,.123-.936A1.235,1.235,0,0,1,45.889,41.872ZM37.32,24.091A2.315,2.315,0,1,0,35,21.777,2.317,2.317,0,0,0,37.32,24.091Zm0-3.548a1.234,1.234,0,1,1-1.234,1.234A1.235,1.235,0,0,1,37.32,20.543ZM20.8,24.748a2.315,2.315,0,1,0,2.315-2.315A2.317,2.317,0,0,0,20.8,24.748Zm2.315-1.234a1.234,1.234,0,1,1-1.234,1.234A1.235,1.235,0,0,1,23.118,23.514Zm11.311,7.265a2.315,2.315,0,1,0-2.315,2.315A2.317,2.317,0,0,0,34.429,30.779Zm-2.315,1.234a1.234,1.234,0,1,1,1.234-1.234A1.235,1.235,0,0,1,32.114,32.013ZM29.037,34.37a2.3,2.3,0,0,0-1.209.342l-.691-.691A3.445,3.445,0,1,0,22.315,29.2l-2.181-2.181a.54.54,0,0,0-.764,0L11.117,35.27A7.106,7.106,0,0,0,21.167,45.32l6.662-6.662a2.314,2.314,0,1,0,1.209-4.288ZM25.071,28.9a2.365,2.365,0,1,1-2.365,2.365A2.368,2.368,0,0,1,25.071,28.9ZM20.4,44.555a6.025,6.025,0,0,1-8.521-8.521l7.871-7.871,2.04,2.04a3.445,3.445,0,0,0,4.34,4.34l.932.932a2.309,2.309,0,0,0,0,2.417Zm8.635-6.637a1.234,1.234,0,1,1,1.234-1.234A1.235,1.235,0,0,1,29.037,37.918Z" transform="translate(641.06 1317.705)" fill="#fff"/>
  </g>
</svg>
