<svg xmlns="http://www.w3.org/2000/svg" width="89" height="89" viewBox="0 0 89 89">
  <g id="Grupo_1101881" data-name="Grupo 1101881" transform="translate(-334.994 -1662.079)">
    <rect id="Rectángulo_400898" data-name="Rectángulo 400898" width="89" height="89" rx="44.5" transform="translate(334.994 1662.079)" fill="#fff"/>
    <g id="secundario" transform="translate(341.435 1671.679)">
      <path id="Trazado_878275" data-name="Trazado 878275" d="M32.934,55.8H63.248a.75.75,0,0,0,.75-.75V51.541a6.238,6.238,0,0,0-3.55-5.619,4.543,4.543,0,1,0-5.377,0A6.263,6.263,0,0,0,51.984,49.2,4.72,4.72,0,0,0,50.537,48a3.641,3.641,0,1,0-4.895,0,4.721,4.721,0,0,0-1.433,1.182,6.261,6.261,0,0,0-3.1-3.311,4.543,4.543,0,1,0-5.377,0,6.238,6.238,0,0,0-3.55,5.62v3.568a.75.75,0,0,0,.752.75ZM54.718,42.268a3.043,3.043,0,1,1,3.115,3.039c-.024,0-.047,0-.072,0s-.05,0-.072,0a3.045,3.045,0,0,1-2.971-3.039Zm-1.694,9.273a4.741,4.741,0,0,1,4.665-4.733c.024,0,.05,0,.072,0s.05,0,.072,0A4.74,4.74,0,0,1,62.5,51.541V54.3H53.024Zm-4.932-8.373a2.138,2.138,0,1,1,.053,4.277h-.106a2.138,2.138,0,1,1,.053-4.277Zm-.244,5.777h.138c.035,0,.07,0,.106,0s.07,0,.106,0h.138a3.192,3.192,0,0,1,3.189,3.187V54.3H44.659V52.131a3.191,3.191,0,0,1,3.188-3.187Zm-12.469-6.73a3.043,3.043,0,1,1,3.116,3.039c-.025,0-.05,0-.073,0s-.05,0-.072,0A3.045,3.045,0,0,1,35.378,42.214Zm-1.694,9.273a4.741,4.741,0,0,1,4.665-4.734c.024,0,.048,0,.072,0s.05,0,.073,0a4.741,4.741,0,0,1,4.665,4.734V54.3H33.684Z" transform="translate(-10.312 -15.931)" fill="#30169a"/>
      <path id="Trazado_878276" data-name="Trazado 878276" d="M49.721,21.107l.015.013c2.16,1.675,3.369,2.514,4.574,2.514s2.413-.846,4.567-2.538l.011-.008c5.667-4.458,5.32-8.831,4.908-10.505a6.12,6.12,0,0,0-4.65-4.7,5.264,5.264,0,0,0-4.972,1.9A5.667,5.667,0,0,0,48.8,5.934a5.9,5.9,0,0,0-4.279,4.582C44.144,12.2,43.907,16.59,49.721,21.107ZM45.98,10.84A4.4,4.4,0,0,1,49.13,7.4c1.562-.356,3.2.382,4.483,2.021a.74.74,0,0,0,.612.286.75.75,0,0,0,.593-.321A4.027,4.027,0,0,1,58.872,7.36a4.687,4.687,0,0,1,3.469,3.582c.725,2.942-.874,6.212-4.385,8.972l-.01.008c-1.909,1.5-2.861,2.221-3.632,2.222h0c-.768,0-1.726-.714-3.639-2.2l-.015-.013C45.5,15.938,45.67,12.243,45.98,10.84Z" transform="translate(-16.397)" fill="#30169a"/>
      <path id="Trazado_878277" data-name="Trazado 878277" d="M58.859,23.075a.75.75,0,0,0,1.061,0l3.861-3.862a.75.75,0,1,0-1.061-1.061l-3.329,3.331-1.428-1.428A.75.75,0,1,0,56.9,21.117Z" transform="translate(-22.561 -6.067)" fill="#30169a"/>
      <path id="Trazado_878278" data-name="Trazado 878278" d="M31.04,71.817l-2.57-1.137-7.05-6.41c-.017-.016-.037-.029-.055-.045-.069-.06-.138-.118-.21-.171l-.019-.013a3.245,3.245,0,0,0-2.207-.609l-.82-7.828a3.284,3.284,0,0,0-6.55.343V68.863a8.053,8.053,0,0,0,2.66,5.975l5.873,5.289a3.85,3.85,0,0,1,1.274,2.86v3.69a.75.75,0,0,0,.75.75H34.789a.75.75,0,0,0,.75-.75V78.715a7.537,7.537,0,0,0-4.5-6.9Zm3,14.109H22.866V82.987a5.349,5.349,0,0,0-1.77-3.975l-5.872-5.288a6.554,6.554,0,0,1-2.164-4.861V55.948a1.784,1.784,0,0,1,3.558-.187l.855,8.17a3.3,3.3,0,0,0-.582.47,3.266,3.266,0,0,0,.047,4.619L23.455,75.4a.75.75,0,1,0,1.05-1.071l-6.518-6.383a1.765,1.765,0,0,1,.821-2.978c.046-.011.093-.018.14-.025s.1-.014.144-.018.1-.006.154,0,.09,0,.135.008a1.819,1.819,0,0,1,.208.03,1.785,1.785,0,0,1,.194.05,1.259,1.259,0,0,1,.121.05,1.812,1.812,0,0,1,.167.08c.032.018.065.035.1.056a1.8,1.8,0,0,1,.246.182l7.14,6.494s.009,0,.013.007a.764.764,0,0,0,.187.122l2.684,1.187a6.038,6.038,0,0,1,3.6,5.526Z" transform="translate(0 -23.427)" fill="#30169a"/>
      <path id="Trazado_878279" data-name="Trazado 878279" d="M91.5,53.639a3.286,3.286,0,0,0-5.589,1.98l-.821,7.826a3.25,3.25,0,0,0-2.493.838l-7.047,6.41-2.57,1.136a7.537,7.537,0,0,0-4.5,6.9v7.961a.75.75,0,0,0,.75.75H81.9a.75.75,0,0,0,.75-.75V83a3.85,3.85,0,0,1,1.275-2.861L89.8,74.85a8.053,8.053,0,0,0,2.66-5.975V55.96a3.262,3.262,0,0,0-.96-2.321Zm-.539,15.236A6.554,6.554,0,0,1,88.8,73.736l-5.87,5.286A5.353,5.353,0,0,0,81.154,83v2.94H69.981V78.727A6.038,6.038,0,0,1,73.587,73.2l2.682-1.186a.762.762,0,0,0,.186-.122s.009,0,.013-.007l1.9-1.728,5.24-4.766.012-.009a1.825,1.825,0,0,1,.232-.174c.032-.02.065-.039.1-.057a1.824,1.824,0,0,1,.167-.08c.039-.017.078-.034.118-.048a1.8,1.8,0,0,1,.227-.059c.055-.01.111-.016.167-.022s.1-.009.15-.009a1.265,1.265,0,0,1,.145,0c.049.005.1.011.156.019s.089.012.132.023a1.766,1.766,0,0,1,.822,2.979l-6.52,6.383a.75.75,0,1,0,1.05,1.071l6.517-6.382a3.266,3.266,0,0,0,.05-4.62,3.3,3.3,0,0,0-.582-.469l.855-8.171a1.784,1.784,0,0,1,3.558.187Z" transform="translate(-28.461 -23.439)" fill="#30169a"/>
    </g>
  </g>
</svg>
