<svg xmlns="http://www.w3.org/2000/svg" width="66" height="66" viewBox="0 0 66 66">
  <g id="Grupo_1101745" data-name="Grupo 1101745" transform="translate(-636.052 -1429)">
    <rect id="Rectángulo_403124" data-name="Rectángulo 403124" width="66" height="66" rx="33" transform="translate(636.052 1429)" fill="#30169a"/>
    <g id="microbiota-intestinal" transform="translate(649.052 1442)">
      <path id="Trazado_877803" data-name="Trazado 877803" d="M7.987,142.1a2.329,2.329,0,0,1-1.8-.845,8.986,8.986,0,0,1-1.58-2.8,4.63,4.63,0,0,1-3.5-6.49,4.627,4.627,0,0,1,0-6.014,4.631,4.631,0,0,1,1.984-5.974.778.778,0,0,1,.751,1.364,3.073,3.073,0,0,0-1.122,4.329.778.778,0,0,1-.14,1,3.072,3.072,0,0,0,0,4.584.778.778,0,0,1,.14,1,3.072,3.072,0,0,0,2.5,4.705.778.778,0,0,1,.723.567,7.432,7.432,0,0,0,1.442,2.743.777.777,0,0,0,.6.282.769.769,0,0,0,.5-.185.8.8,0,0,0,.078-1.112,5.921,5.921,0,0,1-.968-1.676.778.778,0,0,1,.628-1.046,3.072,3.072,0,0,0,2.084-4.849.778.778,0,0,1,0-.915,3.07,3.07,0,0,0,0-3.605.778.778,0,0,1,0-.915,3.078,3.078,0,0,0,.455-2.689.778.778,0,0,1,1.491-.448,4.64,4.64,0,0,1-.393,3.595,4.632,4.632,0,0,1,0,4.52,4.593,4.593,0,0,1,.589,2.26,4.645,4.645,0,0,1-3,4.335,4.4,4.4,0,0,0,.321.445,2.362,2.362,0,0,1-.275,3.288A2.338,2.338,0,0,1,7.987,142.1Z" transform="translate(0 -110.548)" fill="#fff"/>
      <path id="Trazado_877804" data-name="Trazado 877804" d="M433.914,113.973a.778.778,0,0,1-.594-1.281,3.072,3.072,0,0,0,0-3.963.778.778,0,0,1,0-1,3.072,3.072,0,0,0-.487-4.423.778.778,0,0,1,.945-1.237,4.629,4.629,0,0,1,1.1,6.162,4.629,4.629,0,0,1-.372,5.47A.777.777,0,0,1,433.914,113.973Z" transform="translate(-398.861 -93.973)" fill="#fff"/>
      <path id="Trazado_877805" data-name="Trazado 877805" d="M312.359,160.269h-.015a.778.778,0,0,1-.764-.793,4.6,4.6,0,0,1,.562-2.126,4.6,4.6,0,0,1-.6-2.094.778.778,0,1,1,1.556-.063,3.053,3.053,0,0,0,.592,1.688.778.778,0,0,1,.008.91,3.054,3.054,0,0,0-.562,1.713A.778.778,0,0,1,312.359,160.269Z" transform="translate(-287.291 -142.424)" fill="#fff"/>
      <path id="Trazado_877806" data-name="Trazado 877806" d="M21.157,0a4.49,4.49,0,0,1,3.662,1.9,4.459,4.459,0,0,1,2.244-.6,4.51,4.51,0,0,1,.869.085,4.454,4.454,0,0,1,2.279,1.2,4.479,4.479,0,0,1,4.856,0,4.454,4.454,0,0,1,2.279-1.2,4.509,4.509,0,0,1,.869-.085,4.459,4.459,0,0,1,2.244.6A4.49,4.49,0,0,1,44.12,0a4.481,4.481,0,0,1,4.435,3.841,4.658,4.658,0,0,1-3.4,7.833,4.684,4.684,0,0,1-2.02-.463,4.9,4.9,0,0,1-3.244,2.252,4.959,4.959,0,0,1-.956.094,4.885,4.885,0,0,1-2.881-.933,5.31,5.31,0,0,1-6.822,0,4.885,4.885,0,0,1-2.881.933,4.961,4.961,0,0,1-.956-.094,4.9,4.9,0,0,1-3.244-2.252,4.683,4.683,0,0,1-2.02.463,4.658,4.658,0,0,1-3.4-7.833A4.481,4.481,0,0,1,21.157,0Zm3.41,3.823a.779.779,0,0,1-.717-.476,2.926,2.926,0,0,0-2.692-1.79,2.925,2.925,0,0,0-2.915,2.7A.778.778,0,0,1,18,4.763a3.069,3.069,0,0,0-.767,1.148A3.1,3.1,0,0,0,22,9.488a.778.778,0,0,1,1.2.343,3.354,3.354,0,0,0,2.5,2.105,3.4,3.4,0,0,0,.655.064,3.349,3.349,0,0,0,2.367-.977.778.778,0,0,1,1.127.034,3.755,3.755,0,0,0,5.6,0,.778.778,0,0,1,1.127-.034,3.361,3.361,0,0,0,3.023.912,3.354,3.354,0,0,0,2.5-2.105.778.778,0,0,1,1.2-.343,3.127,3.127,0,0,0,1.872.629,3.1,3.1,0,0,0,2.127-5.354.778.778,0,0,1-.242-.506,2.923,2.923,0,0,0-5.608-.91.778.778,0,0,1-1.242.272,2.916,2.916,0,0,0-1.971-.768,2.949,2.949,0,0,0-.569.056A2.909,2.909,0,0,0,35.815,4.1a.778.778,0,0,1-1.173.12,2.918,2.918,0,0,0-4.008,0A.778.778,0,0,1,29.462,4.1a2.908,2.908,0,0,0-1.831-1.195,2.95,2.95,0,0,0-.569-.056,2.916,2.916,0,0,0-1.97.768A.778.778,0,0,1,24.566,3.823Z" transform="translate(-14.267)" fill="#fff"/>
      <path id="Trazado_877807" data-name="Trazado 877807" d="M68.378,137.958a.779.779,0,0,1-.773-.7,29.018,29.018,0,0,1-.166-3.1,28.472,28.472,0,0,1,1.878-10.212.778.778,0,0,1,1.454.556A26.921,26.921,0,0,0,69,134.166a27.454,27.454,0,0,0,.157,2.93.778.778,0,0,1-.691.857A.788.788,0,0,1,68.378,137.958Z" transform="translate(-62.189 -113.843)" fill="#fff"/>
      <path id="Trazado_877808" data-name="Trazado 877808" d="M93.847,67.887a30.91,30.91,0,0,1-11.51-2.2.778.778,0,1,1,.577-1.446,29.615,29.615,0,0,0,21.865,0,.778.778,0,0,1,.577,1.446A30.911,30.911,0,0,1,93.847,67.887Z" transform="translate(-75.476 -59.186)" fill="#fff"/>
      <path id="Trazado_877809" data-name="Trazado 877809" d="M216.939,228.888a11.823,11.823,0,0,1-5.419-1.3.778.778,0,0,1,.707-1.387,10.281,10.281,0,0,0,4.712,1.127,10.392,10.392,0,1,0-10.392-10.392,10.28,10.28,0,0,0,1.127,4.712.778.778,0,0,1-1.387.707,11.823,11.823,0,0,1-1.3-5.419,11.949,11.949,0,1,1,11.949,11.949Z" transform="translate(-189.033 -189.033)" fill="#fff"/>
      <path id="Elipse_11508" data-name="Elipse 11508" d="M-7.665-10A2.338,2.338,0,0,1-5.329-7.665,2.338,2.338,0,0,1-7.665-5.329,2.338,2.338,0,0,1-10-7.665,2.338,2.338,0,0,1-7.665-10Zm0,3.114a.779.779,0,0,0,.778-.778.779.779,0,0,0-.778-.778.779.779,0,0,0-.778.778A.779.779,0,0,0-7.665-6.886Z" transform="translate(34.756 29.544)" fill="#fff"/>
      <path id="Elipse_11509" data-name="Elipse 11509" d="M-7.665-10A2.338,2.338,0,0,1-5.329-7.665,2.338,2.338,0,0,1-7.665-5.329,2.338,2.338,0,0,1-10-7.665,2.338,2.338,0,0,1-7.665-10Zm0,3.114a.779.779,0,0,0,.778-.778.779.779,0,0,0-.778-.778.779.779,0,0,0-.778.778A.779.779,0,0,0-7.665-6.886Z" transform="translate(36.739 41.215)" fill="#fff"/>
      <g id="Grupo_1101743" data-name="Grupo 1101743" transform="translate(19.857 25.46)">
        <path id="Trazado_877810" data-name="Trazado 877810" d="M257.426,327.07a2.278,2.278,0,0,1,1.024.244,2.436,2.436,0,0,0,1.411.241,2.366,2.366,0,0,1,.311-.021h0a2.337,2.337,0,0,1,.292,4.657,7.287,7.287,0,0,1-4.07-.688,2.345,2.345,0,0,1-1.274-1.717,2.306,2.306,0,0,1,.652-2.029A2.357,2.357,0,0,1,257.426,327.07Zm2.119,2.063a4,4,0,0,1-1.8-.43.7.7,0,0,0-.321-.076.79.79,0,0,0-.553.232.766.766,0,0,0-.217.674.774.774,0,0,0,.427.574,5.707,5.707,0,0,0,3.193.539.765.765,0,0,0,.586-.4.781.781,0,0,0-.69-1.154.756.756,0,0,0-.106.007A3.97,3.97,0,0,1,259.544,329.133Z" transform="translate(-255.087 -327.07)" fill="#fff"/>
      </g>
      <g id="Grupo_1101744" data-name="Grupo 1101744" transform="translate(30.181 22.795)">
        <path id="Trazado_877811" data-name="Trazado 877811" d="M390.524,292.838h0a2.338,2.338,0,0,1,2.321,2.05,7.236,7.236,0,0,1-.688,4.07,2.334,2.334,0,1,1-4.19-2.056,2.412,2.412,0,0,0,.241-1.411,2.34,2.34,0,0,1,2.316-2.653Zm-.467,5.869a.781.781,0,0,0,.7-.437,5.679,5.679,0,0,0,.539-3.193.781.781,0,0,0-.775-.682h0a.774.774,0,0,0-.344.082.785.785,0,0,0-.428.81,3.962,3.962,0,0,1-.4,2.318.766.766,0,0,0,.156.874A.756.756,0,0,0,390.057,298.707Z" transform="translate(-387.722 -292.838)" fill="#fff"/>
      </g>
      <path id="Línea_623" data-name="Línea 623" d="M-8.61-8.112a.775.775,0,0,1-.371-.094l-.614-.333a.778.778,0,0,1-.313-1.055.778.778,0,0,1,1.055-.313l.614.333a.778.778,0,0,1,.313,1.055A.778.778,0,0,1-8.61-8.112Z" transform="translate(32.493 42.54)" fill="#fff"/>
      <path id="Línea_624" data-name="Línea 624" transform="translate(22.393 22.929)" fill="#fff"/>
      <path id="Línea_625" data-name="Línea 625" transform="translate(34.689 32.137)" fill="#fff"/>
      <path id="Línea_626" data-name="Línea 626" transform="translate(20.007 35.805)" fill="#fff"/>
    </g>
  </g>
</svg>
