<svg xmlns="http://www.w3.org/2000/svg" width="85" height="85" viewBox="0 0 85 85">
  <g id="Grupo_1101926" data-name="Grupo 1101926" transform="translate(-180.165 -2158)">
    <g id="Grupo_1098883" data-name="Grupo 1098883" transform="translate(-838.835 -4606)">
      <g id="Grupo_1098742" data-name="Grupo 1098742" transform="translate(1019 6764)">
        <rect id="Rectángulo_400898" data-name="Rectángulo 400898" width="85" height="85" rx="42.5" transform="translate(0 0)" fill="#30169a"/>
        <rect id="Rectángulo_400907" data-name="Rectángulo 400907" width="85" height="85" rx="42.5" transform="translate(0 0)" fill="none"/>
      </g>
    </g>
    <g id="OUTLINE" transform="translate(179.315 2156.779)">
      <path id="Trazado_878433" data-name="Trazado 878433" d="M67.66,64.765H44.2v1.84H67.66a1.38,1.38,0,1,1,0,2.76H42.2a2.747,2.747,0,0,0,.158-.92V60.722a.917.917,0,0,1,.155-.51l.864-1.3,1.094.625L48.8,53.357l3.489,4.361,1.08-.72,2.441,3.051a2.747,2.747,0,0,0,2.155,1.036h5.714a2.76,2.76,0,0,0,5.362-.92V57.4a2.763,2.763,0,0,0-2.76-2.76H59.9a.918.918,0,0,1-.766-.41l-.5-.751.681-.454L53.91,45.818a3.078,3.078,0,0,0,.409-1.533v-.109a1.244,1.244,0,0,1,.164-.616L57.257,38.7a2.746,2.746,0,0,0-.241-3.094l-5.878-7.347a6.4,6.4,0,0,0,3.18-5.554v-.268A6.448,6.448,0,0,0,47.878,16H38.419l.509,2.036a4.592,4.592,0,0,0,1.59,2.478v3.55a2.745,2.745,0,0,0,1.526,2.469l.482.241.679,2.037-1.469,2.937-2.951.59a.917.917,0,0,1-.946-.392l-2.587-3.881A1.515,1.515,0,0,1,35,27.223V26.86a3.36,3.36,0,0,0-5.375-2.688l-.211.158a3.355,3.355,0,0,0-1.172,3.75l.045.134a3.338,3.338,0,0,0,1.685,1.942l.209.1a1.53,1.53,0,0,1,.68.68l3.554,7.108a2.759,2.759,0,0,0,3.227,1.42l3.8-1.086v7.743l-4.926,8.867.843.482-1.24,3.1a2.747,2.747,0,0,0-.2,1.025v6.245a2.758,2.758,0,0,0-1.682,3.522H18.9a1.38,1.38,0,0,1,0-2.76H33.157v-1.84H26.716V48.2h9.2a2.763,2.763,0,0,0,2.76-2.76v-.92a2.763,2.763,0,0,0-2.76-2.76h-9.8a.916.916,0,0,1-.854-.578L22.512,34.3a2.747,2.747,0,0,0-2.563-1.735H18.393a2.76,2.76,0,0,0-2.563,3.785l4.048,10.121a2.781,2.781,0,0,0,.4.687v17.61H18.9a3.22,3.22,0,0,0,0,6.441H67.66a3.22,3.22,0,1,0,0-6.441Zm-2.3-8.281h.92a.921.921,0,0,1,.92.92v2.76a.92.92,0,1,1-1.84,0ZM24.876,64.765h-2.76V48.183a2.8,2.8,0,0,0,.326.021h2.434Zm-7.337-29.1a.92.92,0,0,1,.854-1.262h1.557a.916.916,0,0,1,.854.578l2.755,6.887A2.747,2.747,0,0,0,26.122,43.6h9.8a.921.921,0,0,1,.92.92v.92a.921.921,0,0,1-.92.92H22.441a.916.916,0,0,1-.854-.578ZM57.608,55.255a2.755,2.755,0,0,0,2.3,1.229H63.52v2.76H57.964a.916.916,0,0,1-.718-.345L54.9,55.973l2.2-1.469ZM55.579,36.76a.915.915,0,0,1,.08,1.031l-2.775,4.856a3.087,3.087,0,0,0-.406,1.53v.109a1.24,1.24,0,0,1-.553,1.034l-.6.4a1.239,1.239,0,0,1-1.378,0l-.6-.4a1.241,1.241,0,0,1-.554-1.035v-.26a1.24,1.24,0,0,1,.691-1.118l.023-.012a3.02,3.02,0,0,0,1.343-1.343l.841-1.684a2.76,2.76,0,0,0-.813-3.443l-.5-.373a2.755,2.755,0,0,1-1.022-2.878l.8-3.188Zm-8.622,7.522a3.083,3.083,0,0,0,.226,1.161H43.278V32.779L44.766,29.8H48.31l-.732,2.927a4.591,4.591,0,0,0,1.7,4.8l.5.373a.92.92,0,0,1,.271,1.148l-.841,1.684a1.168,1.168,0,0,1-.519.52l-.023.012a3.069,3.069,0,0,0-1.708,2.768ZM40.788,17.84h7.09a4.606,4.606,0,0,1,4.6,4.6v.268a4.572,4.572,0,0,1-1.84,3.682v-2.11a4.606,4.606,0,0,0-4.6-4.6H43.391A2.756,2.756,0,0,1,40.788,17.84Zm2.078,7.046a.915.915,0,0,1-.509-.823V21.4a4.618,4.618,0,0,0,1.033.118h2.647a2.763,2.763,0,0,1,2.76,2.76v3.567l-.028.113H44.861l-.831-2.493ZM31,28.615l-.209-.1a1.509,1.509,0,0,1-.762-.878l-.045-.134a1.518,1.518,0,0,1,.53-1.7l.211-.158a1.519,1.519,0,0,1,2.431,1.216v.363a3.348,3.348,0,0,0,.306,1.4l-1.482.74A3.369,3.369,0,0,0,31,28.615ZM37.133,37.7a.921.921,0,0,1-1.076-.473l-3.138-6.276,1.533-.766,1.856,2.784a2.752,2.752,0,0,0,2.838,1.176l2.291-.458v2.784ZM42.9,47.283h6.085a3.068,3.068,0,0,0,3.364-.034l.223-.149,4.108,5.477L52.67,55.251,49.9,51.786l1.494-2.134L49.885,48.6l-5.959,8.513L39,54.3ZM40.517,68.446a.921.921,0,0,1-.92.92h-2.76a.92.92,0,0,1,0-1.84h3.68Zm.464-9.255a2.751,2.751,0,0,0-.464,1.531v4.963h-2.76V59.6a.916.916,0,0,1,.066-.342L38.968,56.4,41.775,58Z" fill="#fff"/>
      <rect id="Rectángulo_403174" data-name="Rectángulo 403174" width="11.961" height="1.84" transform="translate(55.239 27.961)" fill="#fff"/>
      <rect id="Rectángulo_403175" data-name="Rectángulo 403175" width="1.84" height="1.84" transform="translate(69.04 27.961)" fill="#fff"/>
      <rect id="Rectángulo_403176" data-name="Rectángulo 403176" width="5.521" height="1.84" transform="translate(57.079 21.521)" fill="#fff"/>
      <rect id="Rectángulo_403177" data-name="Rectángulo 403177" width="1.84" height="1.84" transform="translate(64.44 21.521)" fill="#fff"/>
      <rect id="Rectángulo_403178" data-name="Rectángulo 403178" width="8.281" height="1.84" transform="translate(60.76 35.322)" fill="#fff"/>
      <rect id="Rectángulo_403179" data-name="Rectángulo 403179" width="11.961" height="1.84" transform="translate(58.919 43.603)" fill="#fff"/>
    </g>
  </g>
</svg>
