<svg xmlns="http://www.w3.org/2000/svg" width="89" height="89" viewBox="0 0 89 89">
  <g id="Grupo_1101882" data-name="Grupo 1101882" transform="translate(-754.994 -1662)">
    <rect id="Rectángulo_400898" data-name="Rectángulo 400898" width="89" height="89" rx="44.5" transform="translate(754.994 1662)" fill="#fff"/>
    <path id="apoyo-social" d="M83.125,96.3a2.353,2.353,0,1,1,2.358-2.352A2.353,2.353,0,0,1,83.125,96.3ZM98.382,50.262l-.151,1.846-.585-.064a3.461,3.461,0,0,0-3.076,5.611c0,.005.009.012.018.018l-.027.014a3.456,3.456,0,0,0-.532,4.868c.009,0,.009.012.018.017-.009.005-.018.01-.018.013a3.446,3.446,0,0,0-.523,4.887c-.009,0-.018.008-.018.012a3.414,3.414,0,0,0-1.277,2.323,3.319,3.319,0,0,0,.089,1.256l-.55,4.9-1.684,3.5a1.029,1.029,0,0,1-1.356.472c-.364-.179-.461-.355-.5-.47a2.583,2.583,0,0,1,.328-1.578l.931-1.871.053-.269.452-6.553a1,1,0,0,0-2-.137l-.434,6.371-.239.457c-.195.373-.408.776-.594,1.2l-1.649,3.284a1.366,1.366,0,0,1-2.447-.022,2.5,2.5,0,0,1,.133-1.4l1.693-3.454.08-.243.213-6.084a1,1,0,0,0-2-.067l-.186,5.7c-.115.225-.248.478-.4.741A18.015,18.015,0,0,0,80.882,78.2l-1.144,2.347a1.351,1.351,0,0,1-2.243.28c1.1-1.75,1.553-4.072,2.181-6.03s1.161-12.6.913-16.746h3.723a3.557,3.557,0,0,0,3.555-3.55v-.269a3.558,3.558,0,0,0-3.555-3.551H78.249A4.579,4.579,0,0,0,75.4,51.86l1.481-3.709A6.069,6.069,0,0,1,79.269,45.2l2.642-1.759a8.1,8.1,0,0,0,2.677-2.9l2.066-3.719a28.249,28.249,0,0,1,13.989,8.391,8.074,8.074,0,0,0-2.261,5.047Zm2.464,4.581a1.454,1.454,0,0,0-.984-.541l-2.429-.269a1.429,1.429,0,0,0-1.073.315,1.462,1.462,0,0,0,.745,2.594l2.438.269a1.461,1.461,0,0,0,1.613-1.3,1.427,1.427,0,0,0-.31-1.073Zm-1.3,15.771A1.469,1.469,0,0,0,98.249,69l-2.438-.267a1.446,1.446,0,0,0-1.073.315,1.463,1.463,0,0,0,.754,2.592l2.438.269A1.466,1.466,0,0,0,99.543,70.615Zm-3.892,6.994a5.967,5.967,0,0,0,.612-2.235l.142-1.619a6.422,6.422,0,0,1-2.34-.486l-.346,3.083a4.177,4.177,0,0,1-.293.868c-.78,1.95-.692,2.388-.018,2.713a1.007,1.007,0,0,0,1.348-.472Zm4.433-11.894A1.467,1.467,0,0,0,98.79,64.1l-2.438-.269a1.463,1.463,0,0,0-.319,2.909l2.438.268A1.473,1.473,0,0,0,100.084,65.715Zm.541-4.9A1.476,1.476,0,0,0,99.331,59.2l-2.438-.268a1.463,1.463,0,0,0-.319,2.909L99,62.112a1.476,1.476,0,0,0,1.622-1.3ZM74.2,81a3.859,3.859,0,0,0,1.56-1.172c.977-1.524,1.412-3.808,2-5.645.629-1.934,1.179-14.608.736-16.952a1.01,1.01,0,0,1,.984-1.184h4.831A1.548,1.548,0,0,0,85.864,54.5v-.269a1.55,1.55,0,0,0-1.551-1.549H78.249a1.457,1.457,0,0,0-.86.261l-7.1,4.734a6.125,6.125,0,0,0-2.624,3.664l-1.525,5.707a8.125,8.125,0,0,1-1.791,3.359l-8.422,9.621a28.413,28.413,0,0,0,7.58,7.78,27.994,27.994,0,0,0,3.8,2.226l4.557-7.164A5.572,5.572,0,0,1,74.2,81Zm-3.706-46.78a2.353,2.353,0,1,1-2.358,2.354A2.355,2.355,0,0,1,70.492,34.221Zm32.881,11.026a30.626,30.626,0,0,0-2.385-2.606l-.372-.359A30.6,30.6,0,0,0,89.3,35.512c-.009,0-.018-.006-.018-.009-1-.32-1.882-.578-2.917-.808a1,1,0,0,0-1.091.492L82.832,39.57a5.988,5.988,0,0,1-2.039,2.21L78.16,43.539a8.1,8.1,0,0,0-3.138,3.869l-2.553,6.41-3.3,2.193a8.162,8.162,0,0,0-3.449,4.815l-1.516,5.707a6.131,6.131,0,0,1-1.365,2.557l-8,9.143A28.43,28.43,0,0,1,66.884,39.018a4.362,4.362,0,1,0-.709-1.882,30.46,30.46,0,0,0,1.1,55.092,1,1,0,0,0,1.25-.376l5.035-7.9c.48-.758,1.626-1.145,2.518-1.712a3.343,3.343,0,0,0,5.16-.316,3.386,3.386,0,0,0,5.612-.67l.08-.151a3.061,3.061,0,0,0,4.548-.16,3.062,3.062,0,0,0,5.089-.606l.9-1.855a11.4,11.4,0,0,0,.94-4.571,3.466,3.466,0,0,0,2.376-5.636,3.466,3.466,0,0,0,.541-4.9s.009-.007.018-.012a3.463,3.463,0,0,0,.523-4.885,3.47,3.47,0,0,0-1.64-6.144l.168-1.9a6.042,6.042,0,0,1,1.569-3.681A28.4,28.4,0,0,1,86.99,91.933a4.361,4.361,0,1,0,.488,1.94,30.462,30.462,0,0,0,15.9-48.626Z" transform="translate(719.743 1641.782)" fill="#30169a" fill-rule="evenodd"/>
  </g>
</svg>
