<svg xmlns="http://www.w3.org/2000/svg" width="66" height="66" viewBox="0 0 66 66">
  <g id="Grupo_1101747" data-name="Grupo 1101747" transform="translate(-636.052 -1521)">
    <rect id="Rectángulo_403125" data-name="Rectángulo 403125" width="66" height="66" rx="33" transform="translate(636.052 1521)" fill="#30169a"/>
    <g id="vitamina-a" transform="translate(649.174 1530)">
      <g id="Grupo_1101746" data-name="Grupo 1101746" transform="translate(-5.122)">
        <path id="Trazado_877803" data-name="Trazado 877803" d="M261.636,115.409a.93.93,0,0,1-.749-1.479l3.192-4.355a.93.93,0,0,1,1.5,1.1l-3.192,4.355A.928.928,0,0,1,261.636,115.409Z" transform="translate(-235.995 -99.044)" fill="#fff"/>
        <path id="Trazado_877804" data-name="Trazado 877804" d="M309.016,211.561a.93.93,0,0,1-.236-1.829l6.189-1.628a.93.93,0,0,1,.473,1.8l-6.189,1.628A.931.931,0,0,1,309.016,211.561Z" transform="translate(-278.969 -188.729)" fill="#fff"/>
        <path id="Línea_623" data-name="Línea 623" d="M-1.036-5.692a.929.929,0,0,1-.271-.041L-9.344-8.184a.93.93,0,0,1-.618-1.16A.93.93,0,0,1-8.8-9.962L-.765-7.511a.93.93,0,0,1,.618,1.16A.93.93,0,0,1-1.036-5.692Z" transform="translate(38.996 37.373)" fill="#fff"/>
        <path id="Trazado_877805" data-name="Trazado 877805" d="M81.356,157.758a12.627,12.627,0,0,1-11.709-8.034.93.93,0,1,1,1.735-.669,10.691,10.691,0,1,0,0-7.7.93.93,0,1,1-1.735-.669,12.55,12.55,0,1,1,11.709,17.067Z" transform="translate(-62.639 -120.326)" fill="#fff"/>
        <path id="Elipse_11508" data-name="Elipse 11508" d="M-3.492-10A6.515,6.515,0,0,1,3.015-3.492,6.515,6.515,0,0,1-3.492,3.015,6.515,6.515,0,0,1-10-3.492,6.515,6.515,0,0,1-3.492-10Zm0,11.156A4.653,4.653,0,0,0,1.156-3.492,4.653,4.653,0,0,0-3.492-8.141,4.653,4.653,0,0,0-8.141-3.492,4.653,4.653,0,0,0-3.492,1.156Z" transform="translate(35.68 10)" fill="#fff"/>
        <path id="Elipse_11509" data-name="Elipse 11509" d="M5.578,0A5.578,5.578,0,1,1,0,5.578,5.584,5.584,0,0,1,5.578,0Zm0,9.3A3.719,3.719,0,1,0,1.859,5.578,3.723,3.723,0,0,0,5.578,9.3Z" transform="translate(35.909 36.473) rotate(-78.375)" fill="#fff"/>
        <path id="Elipse_11510" data-name="Elipse 11510" d="M-6.746-10A3.257,3.257,0,0,1-3.492-6.746,3.257,3.257,0,0,1-6.746-3.492,3.257,3.257,0,0,1-10-6.746,3.257,3.257,0,0,1-6.746-10Zm0,4.648A1.4,1.4,0,0,0-5.352-6.746,1.4,1.4,0,0,0-6.746-8.141,1.4,1.4,0,0,0-8.141-6.746,1.4,1.4,0,0,0-6.746-5.352Z" transform="translate(45.32 26.404)" fill="#fff"/>
        <path id="Elipse_11511" data-name="Elipse 11511" d="M4.5,0A4.5,4.5,0,1,1,0,4.5,4.5,4.5,0,0,1,4.5,0Zm0,7.14A2.64,2.64,0,1,0,1.859,4.5,2.643,2.643,0,0,0,4.5,7.14Z" transform="matrix(0.974, -0.228, 0.228, 0.974, 1.706, 39.744)" fill="#fff"/>
        <path id="Elipse_11512" data-name="Elipse 11512" d="M3.254,0A3.254,3.254,0,1,1,0,3.254,3.257,3.257,0,0,1,3.254,0Zm0,4.648A1.394,1.394,0,1,0,1.859,3.254,1.4,1.4,0,0,0,3.254,4.648Z" transform="matrix(0.987, -0.159, 0.159, 0.987, 0, 8.485)" fill="#fff"/>
        <path id="Línea_624" data-name="Línea 624" transform="translate(7.096 24.882)" fill="#fff"/>
        <path id="Trazado_877806" data-name="Trazado 877806" d="M170.86,226.954a.93.93,0,0,1-.93-.93v-5.578a.93.93,0,1,0-1.859,0v5.578a.93.93,0,0,1-1.859,0v-5.578a2.789,2.789,0,1,1,5.578,0v5.578A.93.93,0,0,1,170.86,226.954Z" transform="translate(-150.284 -197.424)" fill="#fff"/>
        <path id="Elipse_11513" data-name="Elipse 11513" d="M8.832,0A8.832,8.832,0,1,1,0,8.832,8.842,8.842,0,0,1,8.832,0Zm0,15.8A6.972,6.972,0,1,0,1.859,8.832,6.98,6.98,0,0,0,8.832,15.8Z" transform="translate(9.46 33.267) rotate(-87.168)" fill="#fff"/>
      </g>
    </g>
  </g>
</svg>
