<svg xmlns="http://www.w3.org/2000/svg" xmlns:xlink="http://www.w3.org/1999/xlink" width="400" height="270.4" viewBox="0 0 400 270.4">
  <defs>
    <clipPath id="clip-path">
      <rect id="Rectángulo_403152" data-name="Rectángulo 403152" width="400" height="270.4" rx="23" transform="translate(1020 1635.079)" fill="#d0d1fa"/>
    </clipPath>
    <clipPath id="clip-path-2">
      <rect id="Rectángulo_402134" data-name="Rectángulo 402134" width="390.23" height="696.291" fill="none"/>
    </clipPath>
    <clipPath id="clip-path-4">
      <rect id="Rectángulo_402132" data-name="Rectángulo 402132" width="7.615" height="14.071" fill="none"/>
    </clipPath>
  </defs>
  <g id="Grupo_1102084" data-name="Grupo 1102084" transform="translate(-1020 -1635.079)">
    <rect id="Rectángulo_402748" data-name="Rectángulo 402748" width="400" height="270.4" rx="23" transform="translate(1020 1635.079)" fill="#d0d1fa"/>
    <g id="Enmascarar_grupo_1098752" data-name="Enmascarar grupo 1098752" clip-path="url(#clip-path)">
      <g id="Unión_73" data-name="Unión 73" transform="translate(1038.024 1644.5)" fill="none">
        <path d="M0,170.3,181.063,0l1.262,1.464L361.951,170.413l-77.82,90.281L181.3,163.975l-103.137,97Z" stroke="none"/>
        <path d="M 78.69305419921875 250.8720703125 L 181.3003692626953 154.3656158447266 L 283.6025085449219 250.5865783691406 L 352.273681640625 170.9190216064453 L 180.9426574707031 9.722549438476562 L 9.678351402282715 170.8052673339844 L 78.69305419921875 250.8720703125 M 78.16378021240234 260.9795532226562 L -6.720291821693536e-06 170.2985076904297 L 181.0626220703125 -1.28623560158303e-05 L 182.3244171142578 1.463829278945923 L 361.9513549804688 170.4130401611328 L 284.1316833496094 260.694091796875 L 181.3003082275391 163.9753570556641 L 78.16378021240234 260.9795532226562 Z" stroke="none" fill="#5357de"/>
      </g>
      <g id="Unión_72" data-name="Unión 72" transform="translate(1080.5 1685.258)" fill="none">
        <path d="M0,124.6,138.567,0l.966,1.071L277,124.68l-59.555,66.053-78.7-70.763-78.93,70.972Z" stroke="none"/>
        <path d="M 60.33624649047852 181.0629730224609 L 138.74853515625 110.5567092895508 L 216.9272308349609 180.8541412353516 L 267.1084594726562 125.1978302001953 L 138.4816741943359 9.49005126953125 L 9.892585754394531 125.1150894165039 L 60.33624649047852 181.0629730224609 M 59.81844711303711 190.9422454833984 L -1.114908809540793e-05 124.5966262817383 L 138.5665740966797 -2.25830081035383e-06 L 139.5322418212891 1.070956110954285 L 277.0000610351562 124.6804580688477 L 217.4449462890625 190.7334136962891 L 138.7484893798828 119.9704132080078 L 59.81844711303711 190.9422454833984 Z" stroke="none" fill="#5357de"/>
      </g>
      <g id="Grupo_1099920" data-name="Grupo 1099920" transform="translate(1029.77 1644.5)">
        <g id="Grupo_1099919" data-name="Grupo 1099919" clip-path="url(#clip-path-2)">
          <g id="Grupo_1099918" data-name="Grupo 1099918">
            <g id="Grupo_1099917" data-name="Grupo 1099917" clip-path="url(#clip-path-2)">
              <path id="Trazado_874717" data-name="Trazado 874717" d="M210.76,36.819a29.3,29.3,0,0,1-8.1-22.9c.737-7.528,10.6-10.594,15.259-9.747,0,0-5.278,2.679-7.719,12.5a40.987,40.987,0,0,0,.562,20.147" transform="translate(-51.645 0.427)" fill="#381512"/>
              <path id="Trazado_874718" data-name="Trazado 874718" d="M231.881,35.056a49.492,49.492,0,0,0-22.888-13.174s16.426-7.063,22.888,13.174" transform="translate(-72.766 2.19)" fill="#381512"/>
              <path id="Trazado_874719" data-name="Trazado 874719" d="M297.184,70.69s-.553,20.483-23.73,24.72c-24.5,4.48-37.833,27.981-22.012,46.621,0,0-8.9-27.141,22.012-37.405,37.533-12.461,23.73-33.936,23.73-33.936" transform="translate(-179.91 7.482)" fill="#381512"/>
              <path id="Trazado_874720" data-name="Trazado 874720" d="M302.936,112.6c-.309-34.955-39.943-34.288-54.308-44.113-19.746-13.5-32.063-73.36-83.185-68.17C153.464,1.533,142.147,16,139.206,34.9c-10.318-6.164-25.073-3.287-32.318,6.3-6.191,8.191-6.666,19.175-7.582,29.4-1,11.156-2.9,22.5-8.3,32.3-5.241,9.507-38.874,22.576-26.29,50.46,17.237,38.193,70.615,39.346,115.212,37.243,61.971-2.923,123.538-18.649,123.014-78" transform="translate(18.826 0)" fill="#381512"/>
              <path id="Trazado_874721" data-name="Trazado 874721" d="M293.6,380.774s25.453,83.415,21.432,183.645H61.5c1.251-.137-1.349-104.086,19.351-194.365Z" transform="translate(6.757 39.17)" fill="#381512"/>
              <path id="Trazado_874722" data-name="Trazado 874722" d="M80.694,301.057C78.04,361.99,72.08,455.135,72.08,455.135H308.355c-3.384-33.231-7.3-67.932-9.4-107.013-.8-14.984-1.338-30.621-1.471-47.065h2.676l-2.709-6.381V293c0-1.725.033-3.439.122-5.142a66.631,66.631,0,0,1,.652-6.679l-7.4-.763-.166-.022-.2-.387L218.682,134.959,181.293,138.4,95.778,260.3l-13.834-1.427c.011,5.806-.177,14.011-.52,23.8l-11.733,18.39Z" transform="translate(4.807 14.285)" fill="#ffbd40"/>
              <path id="Trazado_874723" data-name="Trazado 874723" d="M128.371,383.619a372.223,372.223,0,0,0,67.672,19.995c24.469,4.688,49.481,6.426,74.356,7.174,11.128.335,22.274.322,33.4-.215q1.1,10.611,2.166,20.983H69.687s2.156-33.715,4.452-73.843a474.263,474.263,0,0,0,54.232,25.906" transform="translate(7.204 37.863)" fill="#f49706"/>
              <path id="Trazado_874724" data-name="Trazado 874724" d="M181.064,155.992s-1.538,228.7-1.538,296.917" transform="translate(10.637 16.512)" fill="none" stroke="#381512" stroke-linecap="round" stroke-miterlimit="10" stroke-width="0.75"/>
              <path id="Trazado_874725" data-name="Trazado 874725" d="M285.9,201.279c-3.218,55.071-42.424,107.08-85.5,140.986.8-14.984,1.509-26.164,1.642-42.608l2.7-5.619,2.709-6.381v-1.681c0-1.725-.033-3.439-.122-5.142,2.676-2.853,4.711-5.131,6.746-7.442.122-.133.243-.276.365-.409,8.228-9.344,17.284-19.817,71.46-71.7" transform="translate(-117.285 21.305)" fill="#f49706"/>
              <path id="Trazado_874726" data-name="Trazado 874726" d="M217.257,328.014c18.651,5.3,37.047-.709,54.083-12.472a149.329,149.329,0,0,0,17.632-14.57c38.947-37.161,66.98-96.857,66.98-96.857l-12.444-7.824,27.184-58.306s-66.7,4.648-116.783,33.051a135.325,135.325,0,0,0-12.388,7.937c-25,17.744-42.149,42.037-50.681,65.932-13.38,37.473-5.585,74.01,26.418,83.109" transform="translate(-184.591 14.606)" fill="#ffbd40"/>
              <path id="Trazado_874727" data-name="Trazado 874727" d="M272.048,201.01c-.652-.142-7.086-1.786-15.958-4.337-12.018-3.458-28.459-8.56-40.789-13.8-11.423-4.876-19.331-9.892-16.894-13.861,2.522-4.082,12.5-1.275,24.321,4.082,11.848,5.358,25.567,13.266,35.545,19.275l.142.085c.425.283.822.539,1.247.765,6.972,4.252,11.792,7.4,12.387,7.8" transform="translate(-100.737 17.683)" fill="#381512"/>
              <path id="Trazado_874728" data-name="Trazado 874728" d="M333.655,168.822s-40.548,47.534-69.1,76.7" transform="translate(-235.985 17.87)" fill="none" stroke="#381512" stroke-linecap="round" stroke-miterlimit="10" stroke-width="0.75"/>
              <path id="Trazado_874729" data-name="Trazado 874729" d="M284.516,197.761s-28.651,65.861-86.551,112.794" transform="translate(-113.204 20.933)" fill="none" stroke="#381512" stroke-linecap="round" stroke-miterlimit="10" stroke-width="0.75"/>
              <path id="Trazado_874730" data-name="Trazado 874730" d="M202.47,92.943l3.895,48.327a19.523,19.523,0,0,1-18.033,20.805L170.4,163.648c-11.634,1.02-21.658-7.908-21.658-19.288V97.135A19.5,19.5,0,0,1,164.8,78.129l14.038-2.676c11.658-2.223,22.7,5.951,23.631,17.49" transform="translate(19.318 7.948)" fill="#fe8f8c"/>
              <path id="Trazado_874731" data-name="Trazado 874731" d="M188.511,90.847s19.125,16.2,16.3,28.068-27.086,28.816-43.493,18.858V96.167Z" transform="translate(6.742 9.616)" fill="#f56961"/>
              <path id="Trazado_874732" data-name="Trazado 874732" d="M188.543,40.142c-23.636-.111-34.624,20.552-34.645,44.2-.019,20.627,5.315,46.133,37.46,44.209,25.843-1.547,41.255-33.746,38.5-54.877s-15.286-33.413-41.317-33.535" transform="translate(-10.134 4.249)" fill="#fe8f8c"/>
              <path id="Trazado_874733" data-name="Trazado 874733" d="M205.068,101.379s-11.8,25.973-43.493,19.714" transform="translate(6.484 10.731)" fill="none" stroke="#381512" stroke-linecap="round" stroke-miterlimit="10" stroke-width="0.75"/>
              <path id="Trazado_874734" data-name="Trazado 874734" d="M206.521,97.407s-8.377,4.086-10.827,2.044,3.764-14.191,8-24.927,1.331-14.408-2.866-14.691" transform="translate(-32.085 6.333)" fill="none" stroke="#381512" stroke-linecap="round" stroke-miterlimit="10" stroke-width="0.75"/>
              <path id="Trazado_874735" data-name="Trazado 874735" d="M180.093,74.772c0,1.951.886,3.531,1.977,3.531s1.977-1.58,1.977-3.531-.885-3.531-1.977-3.531-1.977,1.58-1.977,3.531" transform="translate(7.027 7.541)" fill="#381512"/>
              <path id="Trazado_874736" data-name="Trazado 874736" d="M206.541,74.772c0,1.951.886,3.531,1.977,3.531s1.977-1.58,1.977-3.531-.885-3.531-1.977-3.531-1.977,1.58-1.977,3.531" transform="translate(-48.669 7.541)" fill="#381512"/>
              <path id="Trazado_874737" data-name="Trazado 874737" d="M135.317,86.963c-3.144-13.2,23.78-22.032,26.556-11.283,4.521,17.5-23.73,23.149-26.556,11.283" transform="translate(78.51 7.502)" fill="#fe8f8c"/>
              <path id="Trazado_874738" data-name="Trazado 874738" d="M154.1,78.609a15.685,15.685,0,0,0-14.075,9.2" transform="translate(81.294 8.321)" fill="none" stroke="#381512" stroke-linecap="round" stroke-miterlimit="10" stroke-width="0.75"/>
              <path id="Trazado_874739" data-name="Trazado 874739" d="M150.119,35.672s-7.67,35.12,61.213,43.409c0,0,14.771-23.068-9.448-40.018s-51.765-3.391-51.765-3.391" transform="translate(8.709 3.232)" fill="#381512"/>
              <path id="Trazado_874740" data-name="Trazado 874740" d="M218.25,46.307a58.208,58.208,0,0,1-1.276-8.849c-.543-6.126-5.679-3.814-8.644,0" transform="translate(-58.4 3.565)" fill="none" stroke="#381512" stroke-linecap="round" stroke-miterlimit="10" stroke-width="0.75"/>
              <path id="Trazado_874741" data-name="Trazado 874741" d="M77.1,201.279C80.319,256.35,113.981,307.2,157.054,341.1c-.8-14.984-1.338-30.621-1.471-47.065h2.676l-2.709-6.381v-1.681c0-1.725.033-3.439.122-5.142-2.676-2.853-4.711-5.131-6.746-7.442-.122-.133-.243-.276-.365-.409-8.228-9.344-17.284-19.817-71.46-71.7" transform="translate(146.709 21.305)" fill="#f49706"/>
              <path id="Trazado_874742" data-name="Trazado 874742" d="M0,204.436s28.033,59.7,66.98,96.857c21.543,20.579,46.4,34.241,71.714,27.041,52.411-14.91,39.91-103.433-24.263-149.041a135.482,135.482,0,0,0-12.388-7.937c-50.086-28.4-97.423-36.4-97.423-36.4l7.823,61.652Z" transform="translate(218.867 14.285)" fill="#ffbd40"/>
              <path id="Trazado_874743" data-name="Trazado 874743" d="M79.332,197.786S110.7,263.645,162.965,308.5" transform="translate(139.536 20.935)" fill="none" stroke="#381512" stroke-linecap="round" stroke-miterlimit="10" stroke-width="0.75"/>
              <path id="Trazado_874744" data-name="Trazado 874744" d="M87.916,201.01c.652-.142,7.086-1.786,15.959-4.337,12.018-3.458,28.459-8.56,40.789-13.8,11.423-4.876,19.331-9.892,16.894-13.861-2.522-4.082-12.5-1.275-24.321,4.082-11.848,5.358-25.567,13.266-35.545,19.275l-.142.085c-.425.283-.822.539-1.247.765-6.972,4.252-11.792,7.4-12.387,7.8" transform="translate(131.008 17.683)" fill="#381512"/>
              <path id="Trazado_874745" data-name="Trazado 874745" d="M25.832,168.822s40.548,47.534,69.1,76.7" transform="translate(266.734 17.87)" fill="none" stroke="#381512" stroke-linecap="round" stroke-miterlimit="10" stroke-width="0.75"/>
              <path id="Trazado_874746" data-name="Trazado 874746" d="M144.739,155.145a18.248,18.248,0,0,0,5.1-3.758,12.915,12.915,0,0,1,2.781-2.072,12.386,12.386,0,0,1,2.825-.782,4.214,4.214,0,0,0,3.1-2.549c.655-1.516.866-3.733,2.434-4.575,1.663-.892,3.364-1.851,3.776-3.861.376-1.833-.908-4.658.878-5.881,1.569-1.076,2.66-2.368,2.473-4.4-.165-1.8-1.276-3.414-.488-4.919a30.979,30.979,0,1,1-25.126,33.316,7.366,7.366,0,0,0,2.249-.521" transform="translate(28.274 12.893)" fill="#e23f29"/>
              <path id="Trazado_874747" data-name="Trazado 874747" d="M151.23,152.522a18.248,18.248,0,0,0,5.1-3.758,12.915,12.915,0,0,1,2.781-2.072c.087-.044.177-.071.265-.108a30.99,30.99,0,0,0,44.32,23.371c-.251.3-.485.62-.746.911a31.021,31.021,0,0,1-53.969-17.823,7.365,7.365,0,0,0,2.249-.521" transform="translate(21.783 15.516)" fill="#c6321e"/>
              <path id="Trazado_874748" data-name="Trazado 874748" d="M170.03,129.5l6.334,1.284L171.708,133l2.866,6.927-7.341-4.538-8.375,3.556,2.419-6.454-6.306-6.453,8.664,1.611,2.09-4.123Z" transform="translate(42.489 13.075)" fill="#5e7c00"/>
              <g id="Grupo_1099916" data-name="Grupo 1099916" transform="translate(222.895 154.979)" opacity="0.22">
                <g id="Grupo_1099915" data-name="Grupo 1099915">
                  <g id="Grupo_1099914" data-name="Grupo 1099914" clip-path="url(#clip-path-4)">
                    <path id="Trazado_874749" data-name="Trazado 874749" d="M147.022,140.145c-3.09-.049-2.059,2.892-2.109,5.982s-1.694,8.04,1.4,8.089,5.2-3.187,5.611-6.249c.732-5.44-1.808-7.773-4.9-7.822" transform="translate(-144.432 -140.145)" fill="#fff"/>
                  </g>
                </g>
              </g>
              <path id="Trazado_874750" data-name="Trazado 874750" d="M161.875,129.433a2.248,2.248,0,1,0,2.6-1.205,2.045,2.045,0,0,0-2.6,1.205" transform="translate(45.079 13.564)" fill="#7d9b00"/>
              <path id="Trazado_874751" data-name="Trazado 874751" d="M187.145,178.236c.51-.68,1.048-1.36,1.587-2.069,9.44-12.359,22.28-28.742,25.313-30.528,4.9-2.948,25.057-8.39,28.006-7.568,2.948.85,0,5.045,0,5.045s13.152-4.082,14.372-.425c.595,1.757-4.054,2.636-4.054,2.636s5.1-.029,3.685,3.458c-.963,2.41-11.536,5.244-11.536,5.244s4.421,0,3.94,3.685c-.261,1.812-4.857,3.684-6.188,4.422-3.211,1.782-7.008,4.416-10.615,4.925a2.751,2.751,0,0,0-1.191.6,8.052,8.052,0,0,0-3.514,4.753c-1.742,6.927,1.616,14.145.6,21.21-.04.275-.085.589-.137.922-.52.521-1.051,1.052-1.608,1.6-.056.056-.085.084-.142.142-1.106,1.1-2.3,2.239-3.572,3.458-12.017-3.458-28.458-8.56-40.788-13.8,1.558-2.041,3.571-4.705,5.839-7.71" transform="translate(-66.743 14.606)" fill="#fe8f8c"/>
              <path id="Trazado_874752" data-name="Trazado 874752" d="M253.541,192.3l-.14.142c-1.106,1.106-2.3,2.239-3.572,3.458-12.02-3.458-28.459-8.56-40.79-13.8,1.56-2.04,3.572-4.705,5.841-7.71Z" transform="translate(-94.475 18.458)" fill="#f56961"/>
              <path id="Trazado_874753" data-name="Trazado 874753" d="M219.083,142.628s-9.653,1.936-13.578,2.777-11.157,5.608-11.157,5.608" transform="translate(-43.772 15.097)" fill="none" stroke="#381512" stroke-linecap="round" stroke-miterlimit="10" stroke-width="0.75"/>
              <path id="Trazado_874754" data-name="Trazado 874754" d="M215.866,144.62s-13.527,2.256-17.171,3.938-12.5,7.57-12.5,7.57" transform="translate(-31.536 15.308)" fill="none" stroke="#381512" stroke-linecap="round" stroke-miterlimit="10" stroke-width="0.75"/>
              <path id="Trazado_874755" data-name="Trazado 874755" d="M212.826,152.494s-6.4.557-20.7,7.566" transform="translate(-35.058 16.141)" fill="none" stroke="#381512" stroke-linecap="round" stroke-miterlimit="10" stroke-width="0.75"/>
              <path id="Trazado_874756" data-name="Trazado 874756" d="M172.171,178.236c-.51-.68-1.048-1.36-1.587-2.069-9.44-12.359-22.28-28.742-25.313-30.528-4.9-2.948-25.057-8.39-28.006-7.568-2.948.85,0,5.045,0,5.045s-13.152-4.082-14.372-.425c-.595,1.757,4.054,2.636,4.054,2.636s-5.1-.029-3.685,3.458c.963,2.41,11.536,5.244,11.536,5.244s-4.421,0-3.94,3.685c.261,1.812,4.857,3.684,6.188,4.422,3.211,1.782,7.008,4.416,10.615,4.925a2.75,2.75,0,0,1,1.191.6,8.052,8.052,0,0,1,3.514,4.753c1.742,6.927-1.616,14.145-.6,21.21.04.275.085.589.137.922.52.521,1.051,1.052,1.608,1.6.056.056.085.084.142.142,1.106,1.1,2.3,2.239,3.572,3.458,12.017-3.458,28.458-8.56,40.788-13.8-1.558-2.041-3.571-4.705-5.839-7.71" transform="translate(98.494 14.606)" fill="#fe8f8c"/>
              <path id="Trazado_874757" data-name="Trazado 874757" d="M102.84,192.3l.142.142c1.106,1.106,2.3,2.239,3.572,3.458,12.018-3.458,28.459-8.56,40.789-13.8-1.559-2.04-3.572-4.705-5.84-7.71Z" transform="translate(129.162 18.458)" fill="#f56961"/>
              <path id="Trazado_874758" data-name="Trazado 874758" d="M135.406,142.628s9.653,1.936,13.578,2.777,11.157,5.608,11.157,5.608" transform="translate(80.351 15.097)" fill="none" stroke="#381512" stroke-linecap="round" stroke-miterlimit="10" stroke-width="0.75"/>
              <path id="Trazado_874759" data-name="Trazado 874759" d="M139.095,144.62s13.527,2.256,17.171,3.938,12.5,7.57,12.5,7.57" transform="translate(67.641 15.308)" fill="none" stroke="#381512" stroke-linecap="round" stroke-miterlimit="10" stroke-width="0.75"/>
              <path id="Trazado_874760" data-name="Trazado 874760" d="M141.276,152.494s6.4.557,20.7,7.566" transform="translate(72.022 16.141)" fill="none" stroke="#381512" stroke-linecap="round" stroke-miterlimit="10" stroke-width="0.75"/>
              <path id="Trazado_874761" data-name="Trazado 874761" d="M138.825,166.113a38.284,38.284,0,0,1,7.889,5.611" transform="translate(89.996 17.583)" fill="none" stroke="#381512" stroke-linecap="round" stroke-miterlimit="10" stroke-width="0.75"/>
              <path id="Trazado_874762" data-name="Trazado 874762" d="M84.3,371.131c7.831,13.349,24.083,25.063,38.668,29.58" transform="translate(174.03 39.284)" fill="none" stroke="#381512" stroke-linecap="round" stroke-miterlimit="10" stroke-width="0.75"/>
              <path id="Trazado_874763" data-name="Trazado 874763" d="M241.005,400.711c14.585-4.517,30.837-16.232,38.668-29.579" transform="translate(-155.959 39.284)" fill="none" stroke="#381512" stroke-linecap="round" stroke-miterlimit="10" stroke-width="0.75"/>
              <path id="Trazado_874764" data-name="Trazado 874764" d="M173.627,107.962a18.511,18.511,0,0,0,3.784.4,12.681,12.681,0,0,0,9.744-3.958" transform="translate(11.07 11.051)" fill="none" stroke="#381512" stroke-linecap="round" stroke-miterlimit="10" stroke-width="0.75"/>
              <path id="Trazado_874765" data-name="Trazado 874765" d="M170.472,102.608c.243,2.3.839,3.151,3.117,3.151q.309,0,.658-.02" transform="translate(27.466 10.861)" fill="none" stroke="#381512" stroke-linecap="round" stroke-miterlimit="10" stroke-width="0.75"/>
              <path id="Trazado_874766" data-name="Trazado 874766" d="M187.7,106.089a2.227,2.227,0,0,1,.26,1.047,3.458,3.458,0,0,1-2.059,2.887" transform="translate(-3.313 11.229)" fill="none" stroke="#381512" stroke-linecap="round" stroke-miterlimit="10" stroke-width="0.75"/>
              <path id="Trazado_874767" data-name="Trazado 874767" d="M88.447,449.734c13.91,52.7,11.361,108.154,8.713,162.592" transform="translate(193.178 47.604)" fill="none" stroke="#fff" stroke-linecap="round" stroke-miterlimit="10" stroke-width="0.75"/>
              <path id="Trazado_874768" data-name="Trazado 874768" d="M130.477,452.4A1570.71,1570.71,0,0,1,127.1,636.318" transform="translate(117.929 47.886)" fill="none" stroke="#fff" stroke-linecap="round" stroke-miterlimit="10" stroke-width="0.75"/>
              <path id="Trazado_874769" data-name="Trazado 874769" d="M178.512,458.976q-7.584,88.819-7.84,178.06" transform="translate(22.98 48.582)" fill="none" stroke="#fff" stroke-linecap="round" stroke-miterlimit="10" stroke-width="0.75"/>
              <path id="Trazado_874770" data-name="Trazado 874770" d="M223.773,456.46a1188.92,1188.92,0,0,0-8.493,191.1" transform="translate(-70.752 48.316)" fill="none" stroke="#fff" stroke-linecap="round" stroke-miterlimit="10" stroke-width="0.75"/>
              <path id="Trazado_874771" data-name="Trazado 874771" d="M274.272,454.194a560.332,560.332,0,0,0-18.544,186.251" transform="translate(-165.378 48.076)" fill="none" stroke="#fff" stroke-linecap="round" stroke-miterlimit="10" stroke-width="0.75"/>
            </g>
          </g>
        </g>
      </g>
      <path id="Unión_71" data-name="Unión 71" d="M0,71.444,79.379,0l.553.614,78.749,70.878-34.117,37.875L79.483,68.791l-45.216,40.7Z" transform="translate(1282.681 1841.171)" fill="#30169a"/>
    </g>
  </g>
</svg>
