<svg xmlns="http://www.w3.org/2000/svg" width="85" height="85" viewBox="0 0 85 85">
  <g id="Grupo_1101883" data-name="Grupo 1101883" transform="translate(-1314.994 -2051)">
    <path id="Trazado_876878" data-name="Trazado 876878" d="M42.5,0A42.5,42.5,0,1,1,0,42.5,42.5,42.5,0,0,1,42.5,0Z" transform="translate(1314.994 2051)" fill="#30169a"/>
    <g id="vida-laboral" transform="translate(1331.002 2067.009)">
      <path id="Trazado_878280" data-name="Trazado 878280" d="M10.26,13.525H10.3A3.289,3.289,0,0,0,12.556,7.88a3.317,3.317,0,0,0-2.338-.933,3.289,3.289,0,0,0,.041,6.578ZM9.081,9.085a1.638,1.638,0,0,1,1.159-.5h.022a1.648,1.648,0,0,1,.021,3.3,1.6,1.6,0,0,1-1.171-.467,1.65,1.65,0,0,1-.03-2.331Z" transform="translate(-1.071 -1.067)" fill="#fff"/>
      <path id="Trazado_878281" data-name="Trazado 878281" d="M1.511,9.785a.82.82,0,0,0-.461,1.066l1.084,2.741a.821.821,0,0,0,1.065.461l.988-.391c.13.146.266.287.409.421l-.423.975A.822.822,0,0,0,4.6,16.138L7.3,17.31a.819.819,0,0,0,1.079-.427l.423-.975c.2.012.392.015.587.01l.392.988a.82.82,0,0,0,1.065.462l2.741-1.084a.821.821,0,0,0,.461-1.065l-.391-.988c.146-.13.287-.266.421-.409l.975.423a.822.822,0,0,0,1.079-.427l1.171-2.7a.82.82,0,0,0-.427-1.079l-.975-.423c.011-.2.015-.392.01-.587l.988-.392a.82.82,0,0,0,.461-1.066L16.282,4.825a.819.819,0,0,0-1.065-.461l-.988.391c-.13-.146-.266-.287-.409-.421l.423-.975a.822.822,0,0,0-.427-1.079L11.109,1.105a.819.819,0,0,0-1.079.427l-.423.975c-.2-.011-.392-.015-.587-.01l-.392-.988a.817.817,0,0,0-1.065-.46L4.823,2.134A.82.82,0,0,0,4.363,3.2l.391.988c-.146.13-.287.266-.421.409l-.976-.422A.822.822,0,0,0,2.277,4.6l-1.171,2.7a.821.821,0,0,0,.427,1.079l.975.423c-.011.2-.015.392-.01.587ZM4.2,8.422a.821.821,0,0,0-.484-.881L2.938,7.2l.519-1.2.777.337a.819.819,0,0,0,.974-.25A5.022,5.022,0,0,1,6.222,5.11a.82.82,0,0,0,.28-.965l-.311-.786L7.4,2.878l.311.786a.819.819,0,0,0,.865.513A5.05,5.05,0,0,1,9.992,4.2a.822.822,0,0,0,.881-.484l.337-.777,1.2.519-.337.777a.82.82,0,0,0,.25.974A5.022,5.022,0,0,1,13.3,6.223a.82.82,0,0,0,.965.28l.786-.311.48,1.214-.786.311a.822.822,0,0,0-.513.865,5.05,5.05,0,0,1-.023,1.411.821.821,0,0,0,.484.881l.777.337-.519,1.2-.777-.337a.823.823,0,0,0-.974.25,5.022,5.022,0,0,1-1.014.983.82.82,0,0,0-.28.965l.311.786-1.214.48-.311-.786a.82.82,0,0,0-.763-.519.718.718,0,0,0-.1.007,5.05,5.05,0,0,1-1.411-.023.818.818,0,0,0-.881.484l-.337.777-1.2-.519.337-.777a.82.82,0,0,0-.25-.974,5.022,5.022,0,0,1-.983-1.014.82.82,0,0,0-.965-.28l-.786.311-.48-1.214.786-.311a.822.822,0,0,0,.513-.865A5.025,5.025,0,0,1,4.2,8.422Z" fill="#fff"/>
      <path id="Trazado_878282" data-name="Trazado 878282" d="M56.066,2.117a5.085,5.085,0,0,0-4.857,1.589,5.088,5.088,0,0,0-4.857-1.589A4.22,4.22,0,0,0,43,6.474c0,4.6,5.933,8.942,7.751,10.164a.822.822,0,0,0,.916,0c1.818-1.221,7.751-5.565,7.751-10.164a4.22,4.22,0,0,0-3.352-4.356ZM51.209,14.959c-1.785-1.263-6.567-4.973-6.567-8.485A2.582,2.582,0,0,1,46.71,3.72a3.226,3.226,0,0,1,.7-.076,3.341,3.341,0,0,1,3.055,1.905.822.822,0,0,0,1.486,0,3.369,3.369,0,0,1,3.756-1.83,2.583,2.583,0,0,1,2.068,2.755C57.776,9.986,52.994,13.7,51.209,14.959Z" transform="translate(-7.524 -0.182)" fill="#fff"/>
      <path id="Trazado_878283" data-name="Trazado 878283" d="M9.821,25.6A.821.821,0,0,0,9,26.418V29.7a.821.821,0,0,0,.821.821h7.454a2.461,2.461,0,0,0,1.87-.859l2.815-3.284-.639,8.944L17.232,52.5a.819.819,0,0,0,.8,1.01h4.925a.82.82,0,0,0,.789-.6l4.136-14.476,4.136,14.476a.82.82,0,0,0,.789.6h4.925a.821.821,0,0,0,.8-1.011L34.441,35.323,33.8,26.379l2.815,3.284a2.457,2.457,0,0,0,1.87.859H45.94a.821.821,0,0,0,.821-.821V26.417a.821.821,0,0,0-.821-.821H40.563L35.22,19.586a4.114,4.114,0,0,0-3.068-1.377h-.611a4.925,4.925,0,1,0-7.322,0h-.611a4.109,4.109,0,0,0-3.068,1.377L15.2,25.6ZM24.6,14.925a3.284,3.284,0,1,1,3.284,3.284A3.287,3.287,0,0,1,24.6,14.925ZM16.181,26.964l5.588-6.286a2.459,2.459,0,0,1,1.84-.827h8.543a2.465,2.465,0,0,1,1.84.827l5.588,6.286a.821.821,0,0,0,.614.276h4.925v1.642H38.487a.819.819,0,0,1-.623-.286L33.43,23.421a.821.821,0,0,0-1.442.593l.821,11.493a.794.794,0,0,0,.021.131l3.863,16.228H33.426L28.67,35.222a.821.821,0,0,0-1.579,0L22.336,51.866H19.07l3.864-16.228a.794.794,0,0,0,.021-.131l.821-11.493a.821.821,0,0,0-1.442-.593L17.9,28.594a.824.824,0,0,1-.625.286H10.642V27.239h4.925A.823.823,0,0,0,16.181,26.964Z" transform="translate(-1.434 -1.614)" fill="#fff"/>
      <path id="Trazado_878284" data-name="Trazado 878284" d="M52,22h1.642v1.642H52Z" transform="translate(-9.136 -3.763)" fill="#fff"/>
      <path id="Trazado_878285" data-name="Trazado 878285" d="M52,26h1.642v1.642H52Z" transform="translate(-9.136 -4.479)" fill="#fff"/>
      <path id="Trazado_878286" data-name="Trazado 878286" d="M10,22h1.642v1.642H10Z" transform="translate(-1.613 -3.763)" fill="#fff"/>
      <path id="Trazado_878287" data-name="Trazado 878287" d="M10,26h1.642v1.642H10Z" transform="translate(-1.613 -4.479)" fill="#fff"/>
    </g>
  </g>
</svg>
