<svg xmlns="http://www.w3.org/2000/svg" width="89" height="89" viewBox="0 0 89 89">
  <g id="Grupo_1101673" data-name="Grupo 1101673" transform="translate(-283 -1383)">
    <rect id="Rect치ngulo_400898" data-name="Rect치ngulo 400898" width="89" height="89" rx="44.5" transform="translate(283 1383)" fill="#fff"/>
    <rect id="Rect치ngulo_400907" data-name="Rect치ngulo 400907" width="89" height="89" rx="44.5" transform="translate(283 1383)" fill="none"/>
    <g id="hipertension" transform="translate(298.928 1396.591)">
      <path id="Trazado_877567" data-name="Trazado 877567" d="M97.9,354.042h1.67v1.67H97.9Z" transform="translate(-87.004 -311.738)" fill="#30169a"/>
      <path id="Trazado_877568" data-name="Trazado 877568" d="M57,17.444A14.194,14.194,0,0,0,33.417,6.8l1.105,1.252a12.527,12.527,0,1,1-1.107,1.107L32.164,8.054a14.2,14.2,0,0,0-2.91,13.614,15.906,15.906,0,0,0-7.795,5.5,16.141,16.141,0,0,0-7.576-5.438A10.131,10.131,0,0,0,6,22.5a11.4,11.4,0,0,0-5.309,6.9,16.288,16.288,0,0,0,.308,9.571H0v5.01H3.31c3.475,5.742,9.445,10.9,17.756,15.344l.394.21.394-.21c7.7-4.113,13.4-8.862,16.976-14.12h4.09v-5.01H41.491a17.692,17.692,0,0,0,1.2-8.551h.115A14.211,14.211,0,0,0,57,17.444ZM41.25,43.529H30.588l-2.777-3.716L24.106,47.3,20.086,42.3H14.24v1.67h5.046l5.157,6.4L28.1,42.991l1.65,2.208h7.031C33.4,49.773,28.254,53.95,21.46,57.634,14.151,53.668,8.6,48.973,5.288,43.974H9.23V42.3H1.67v-1.67H20.885l2.883,3.58,3.754-7.58,3.9,5.224H41.25Zm-1.56-3.34H32.262l-5.03-6.733-3.8,7.677-1.746-2.169H2.755a14.841,14.841,0,0,1-.466-9.1A9.746,9.746,0,0,1,6.8,23.959c3.475-1.922,8.975-1.6,13.989,5.06l.667.887.667-.887c2.314-3.075,4.971-5.06,7.723-5.782a14.234,14.234,0,0,0,11.143,8.287A16.157,16.157,0,0,1,39.689,40.189Z" transform="translate(0)" fill="#30169a"/>
      <path id="Trazado_877569" data-name="Trazado 877569" d="M308.709,44.939V44.1a10.855,10.855,0,0,0-21.71,0v.835h5.01V44.1a5.845,5.845,0,0,1,11.69,0v.835Zm-3.386-1.67a7.479,7.479,0,0,0-1.6-3.852l1.187-1.187A9.144,9.144,0,0,1,307,43.269Zm-16.617,0a9.143,9.143,0,0,1,2.092-5.04l1.187,1.187a7.478,7.478,0,0,0-1.6,3.852Zm4.46-5.033-1.187-1.187a9.144,9.144,0,0,1,5.039-2.091v1.679A7.478,7.478,0,0,0,293.167,38.236Zm5.522-1.6V34.958a9.144,9.144,0,0,1,5.039,2.091l-1.187,1.187A7.477,7.477,0,0,0,298.689,36.637Z" transform="translate(-255.046 -26.66)" fill="#30169a"/>
      <path id="Trazado_877570" data-name="Trazado 877570" d="M368.359,145.02l-2.789,2.824a2.506,2.506,0,1,0,1.189,1.173l2.789-2.824Zm-3.854,5.926a.835.835,0,1,1,.835-.835A.836.836,0,0,1,364.505,150.946Z" transform="translate(-321.697 -125.987)" fill="#30169a"/>
      <path id="Trazado_877571" data-name="Trazado 877571" d="M338.889,275.043h1.67v1.67h-1.67Z" transform="translate(-301.159 -241.534)" fill="#30169a"/>
      <path id="Trazado_877572" data-name="Trazado 877572" d="M323.888,305.042h1.67v1.67h-1.67Z" transform="translate(-287.828 -268.193)" fill="#30169a"/>
    </g>
  </g>
</svg>
