<svg id="Grupo_1101667" data-name="Grupo 1101667" xmlns="http://www.w3.org/2000/svg" width="85" height="85" viewBox="0 0 85 85">
  <g id="Grupo_1098742" data-name="Grupo 1098742">
    <rect id="Rect치ngulo_400898" data-name="Rect치ngulo 400898" width="85" height="85" rx="42.5" transform="translate(0)" fill="#30169a" opacity="0.859"/>
    <rect id="Rect치ngulo_400907" data-name="Rect치ngulo 400907" width="85" height="85" rx="42.5" fill="none"/>
  </g>
  <g id="yoga" transform="translate(16 16)">
    <path id="Trazado_877564" data-name="Trazado 877564" d="M52.418,55.526H44.9a3.469,3.469,0,0,0-2.531-2.539l-1.809-.452,2.286-11.089a4.391,4.391,0,0,0-2.863-5.024c-5.116-1.775-3.366-.989-8.072-2.064a35.779,35.779,0,0,0,4.6-3.124c.824-.826,3.334-3.338,3.334-5.742a5.009,5.009,0,0,0-.609-2.226L52.366,10.13a3.02,3.02,0,1,0-4.272-4.272.832.832,0,1,0,1.177,1.177,1.357,1.357,0,0,1,1.918,1.918L35.88,24.263a.833.833,0,0,0,.588,1.42c.451,0,.582-.238,1.5-1.156a2.806,2.806,0,0,1,.206.965c0,1.138-.958,2.674-2.851,4.57a50.477,50.477,0,0,1-5.779,3.77L26.73,33.48a.832.832,0,1,0-.206,1.651l3.047.381c7.076,1.735,4.292.566,9.877,2.486a2.722,2.722,0,0,1,1.766,3.111l-1.058,5.131H37.433l.439-3.85a.832.832,0,0,0-.751-.923c-9.93-.9-9,.193-12.406-.993a6.481,6.481,0,0,1-.8-.33c-2.034-1.053-2.471-4.1-1.829-5.816a21.783,21.783,0,0,0,2.334-1.919A.832.832,0,1,0,23.279,31.2a18.892,18.892,0,0,1-2,1.654c-.209.049-.268.118-1.1.661-2.069,1.359-1.667,1.1-12.4,10.112l-6.5,4.335A2.878,2.878,0,0,0,.2,51.414c1.347,3.476,1.345,3.58,1.72,4.111H.835a.832.832,0,0,0,0,1.664H52.418a.832.832,0,1,0,0-1.664ZM20.154,35.536a6.628,6.628,0,0,0,2.4,5.718c-3.094,1.44-7.245,3.091-12.337,5.718l-.94-2.427C17.522,37.616,18.9,36.414,20.154,35.536ZM2.216,49.344l5.672-3.784.87,2.245L4.9,50.263a.832.832,0,0,0-.373.844l.768,4.411a2.267,2.267,0,0,1-2.275-1.44L1.751,50.813A1.224,1.224,0,0,1,2.216,49.344Zm4.042,2.025c3.783-2.409,4.349-3.016,13.783-7.165,1.7-.748,3.185-1.4,4.474-2.044,3.416,1.085,3.172.169,11.607.89-1.211,10.612-.909,8.547-1.408,10.542a2.875,2.875,0,0,0,.188,1.934H6.981Zm31.265,4.157A1.231,1.231,0,0,1,36.328,54c.533-2.133.3-.717.915-6.091h2.569L38.766,52.98a.832.832,0,0,0,.613.975l2.583.646a1.808,1.808,0,0,1,1.17.925Z" transform="translate(0 -4.974)" fill="#fff"/>
    <path id="Trazado_877565" data-name="Trazado 877565" d="M250.9,12.749a6.591,6.591,0,0,0,1.761,4.026,27.08,27.08,0,0,1-3.169,7.741.77.77,0,0,0,1.313.8,28.367,28.367,0,0,0,3.164-7.444,6.872,6.872,0,0,0,1.217.627l.429.321-1.13,1.13a.77.77,0,0,0,1.088,1.088l9.866-9.866a7.63,7.63,0,0,0,2.25-5.431.77.77,0,1,0-1.539,0,6.1,6.1,0,0,1-1.8,4.343L261,13.431c0-1.787.132-2.807-.649-4.181a5.12,5.12,0,0,0-6.736-1.974,2.749,2.749,0,0,0-4.937.457L248.164,9.2a2.687,2.687,0,0,0,2.731,3.55Zm7.873-3.111a3.917,3.917,0,0,1-3.142,1.618.771.771,0,1,0-.055,1.541,5.507,5.507,0,0,0,3.863-1.573c.041.3.03.109.03,3.747l-2.438,2.438a5.416,5.416,0,0,1-2.644-1.125l.648-1.607A.77.77,0,0,0,253.6,14.1l-.37.92a5.033,5.033,0,0,1-.817-2.755c0-.1-.011-.071.054-.124a2.7,2.7,0,0,0,.843-1.188,9.5,9.5,0,0,0,.657-2.107,3.6,3.6,0,0,1,4.8.792Zm-9.153.073.516-1.466a1.183,1.183,0,0,1,1.122-.773,1.146,1.146,0,0,1,1.123,1.5c-.5,1.423-.535,1.793-1.027,2.075A1.17,1.17,0,0,1,249.616,9.711Z" transform="translate(-220.158 -4.977)" fill="#fff"/>
    <path id="Trazado_877566" data-name="Trazado 877566" d="M243.339,231.42a.773.773,0,0,0,1.085-.121l.117-.147a.769.769,0,0,0-1.208-.953l-.114.143A.766.766,0,0,0,243.339,231.42Z" transform="translate(-217.707 -206.45)" fill="#fff"/>
  </g>
</svg>
